<?xml version="1.0" encoding="utf-8"?>
<!-- Generator: Adobe Illustrator 22.1.0, SVG Export Plug-In . SVG Version: 6.00 Build 0)  -->
<svg version="1.0" id="TEXT" xmlns="http://www.w3.org/2000/svg" xmlns:xlink="http://www.w3.org/1999/xlink" x="0px" y="0px"
	 width="565.2px" height="186.8px" viewBox="0 0 565.2 186.8" enable-background="new 0 0 565.2 186.8" xml:space="preserve">
<g>
	
		<linearGradient id="SVGID_1_" gradientUnits="userSpaceOnUse" x1="-751.6063" y1="-1402.8174" x2="-1297.9644" y2="-1402.8174" gradientTransform="matrix(1 0 0 -1 1307.8203 -1322.6299)">
		<stop  offset="0" style="stop-color:#013A67"/>
		<stop  offset="1" style="stop-color:#6CD1FF"/>
	</linearGradient>
	<polygon fill="url(#SVGID_1_)" points="489.5,27.7 535,27.9 556.2,5.9 478.2,5.6 404.9,79.2 394.7,79.8 395,9 353.7,51.1 
		343.9,52.2 343.9,9.4 259.5,92.8 249,94 249.9,8.1 176.2,82.9 166.5,83 165.4,11.1 125.6,51.2 114.5,51.7 115,8.9 9.9,114.9 
		44.5,114.3 89.9,70.3 98.6,70.3 98.1,114.5 134.3,77.5 142.9,77.5 142.9,115.2 103.2,154.7 141.3,154.2 216.3,78.3 226.4,78.3 
		226.4,115.6 273.2,115.9 318.4,70.4 327.1,69.8 327,112.8 363.1,76.7 371.6,76.7 372.2,113.1 371.5,115 480.6,115 501.5,93.8 
		433.7,92.7 433,82.8 443.6,71.7 469.2,71.7 491.5,49.1 478,48.6 478,39.1 	"/>
	
		<linearGradient id="SVGID_2_" gradientUnits="userSpaceOnUse" x1="-1245.0249" y1="-1386.0111" x2="-1248.9705" y2="-1382.0659" gradientTransform="matrix(1 0 0 -1 1307.8203 -1322.6299)">
		<stop  offset="0" style="stop-color:#08406F"/>
		<stop  offset="1" style="stop-color:#60C5F5"/>
	</linearGradient>
	<path fill="url(#SVGID_2_)" d="M113,13.2L11.8,114.3l-11.5,4.3c0,0-0.6,0-0.3-0.4c0,0,117.3-117.3,117.5-117.5c0.2-0.2,0.5,0,0.5,0
		L113,13.2z"/>
	
		<linearGradient id="SVGID_3_" gradientUnits="userSpaceOnUse" x1="-1186.4399" y1="-1461.1295" x2="-1190.0649" y2="-1457.5045" gradientTransform="matrix(1 0 0 -1 1307.8203 -1322.6299)">
		<stop  offset="0" style="stop-color:#08406F"/>
		<stop  offset="1" style="stop-color:#60C5F5"/>
	</linearGradient>
	<path fill="url(#SVGID_3_)" d="M144.1,115.8l-37.5,37.5l-11.1,4.5c0,0-0.6,0.1-0.2-0.4l43.9-43.8L144.1,115.8z"/>
	
		<linearGradient id="SVGID_4_" gradientUnits="userSpaceOnUse" x1="-1284.0114" y1="-1441.2739" x2="-1284.0114" y2="-1436.9598" gradientTransform="matrix(1 0 0 -1 1307.8203 -1322.6299)">
		<stop  offset="0" style="stop-color:#08406F"/>
		<stop  offset="1" style="stop-color:#60C5F5"/>
	</linearGradient>
	<polygon fill="url(#SVGID_4_)" points="47.2,118.6 0.4,118.6 11.9,114.3 44.5,114.3 	"/>
	
		<linearGradient id="SVGID_5_" gradientUnits="userSpaceOnUse" x1="-1188.5498" y1="-1480.4028" x2="-1188.5498" y2="-1475.9449" gradientTransform="matrix(1 0 0 -1 1307.8203 -1322.6299)">
		<stop  offset="0" style="stop-color:#08406F"/>
		<stop  offset="1" style="stop-color:#60C5F5"/>
	</linearGradient>
	<polygon fill="url(#SVGID_5_)" points="143,157.8 95.5,157.8 106.6,153.3 140.4,153.3 	"/>
	
		<linearGradient id="SVGID_6_" gradientUnits="userSpaceOnUse" x1="-882.0408" y1="-1441.2439" x2="-882.0408" y2="-1436.7778" gradientTransform="matrix(1 0 0 -1 1307.8203 -1322.6299)">
		<stop  offset="0" style="stop-color:#08406F"/>
		<stop  offset="1" style="stop-color:#60C5F5"/>
	</linearGradient>
	<polygon fill="url(#SVGID_6_)" points="483.1,118.6 368.5,118.6 372.3,114.1 479.8,114.1 	"/>
	
		<linearGradient id="SVGID_7_" gradientUnits="userSpaceOnUse" x1="-1058.6708" y1="-1442.1149" x2="-1058.6708" y2="-1437.6379" gradientTransform="matrix(1 0 0 -1 1307.8203 -1322.6299)">
		<stop  offset="0" style="stop-color:#08406F"/>
		<stop  offset="1" style="stop-color:#60C5F5"/>
	</linearGradient>
	<path fill="url(#SVGID_7_)" d="M275.3,119.5l-51.5,0c-0.3,0-0.8-0.3-0.8-0.3l4.6-4.1h45.1L275.3,119.5z"/>
	
		<linearGradient id="SVGID_8_" gradientUnits="userSpaceOnUse" x1="-787.4548" y1="-1329.4078" x2="-787.4548" y2="-1324.5449" gradientTransform="matrix(1 0 0 -1 1307.8203 -1322.6299)">
		<stop  offset="0" style="stop-color:#08406F"/>
		<stop  offset="1" style="stop-color:#60C5F5"/>
	</linearGradient>
	<path fill="url(#SVGID_8_)" d="M475.6,1.9h88.7c0.8,0,0.8,0.3,0.8,0.3l-10.6,4.6h-75.2L475.6,1.9z"/>
	
		<linearGradient id="SVGID_9_" gradientUnits="userSpaceOnUse" x1="-794.7218" y1="-1353.9359" x2="-794.7218" y2="-1349.7258" gradientTransform="matrix(1 0 0 -1 1307.8203 -1322.6299)">
		<stop  offset="0" style="stop-color:#08406F"/>
		<stop  offset="1" style="stop-color:#60C5F5"/>
	</linearGradient>
	<polygon fill="url(#SVGID_9_)" points="537.3,31.3 491,31.3 488.9,27.1 534.2,27.1 	"/>
	
		<linearGradient id="SVGID_10_" gradientUnits="userSpaceOnUse" x1="-850.3653" y1="-1397.4519" x2="-850.3653" y2="-1393.7319" gradientTransform="matrix(1 0 0 -1 1307.8203 -1322.6299)">
		<stop  offset="0" style="stop-color:#08406F"/>
		<stop  offset="1" style="stop-color:#60C5F5"/>
	</linearGradient>
	<polygon fill="url(#SVGID_10_)" points="471.9,74.8 447.2,74.8 443.1,71.1 468.7,71.1 	"/>
	
		<linearGradient id="SVGID_11_" gradientUnits="userSpaceOnUse" x1="-819.5743" y1="-1372.3319" x2="-819.5743" y2="-1366.7775" gradientTransform="matrix(1 0 0 -1 1307.8203 -1322.6299)">
		<stop  offset="0" style="stop-color:#08406F"/>
		<stop  offset="1" style="stop-color:#60C5F5"/>
	</linearGradient>
	<path fill="url(#SVGID_11_)" d="M490.1,49.7h-13.6l-1.2-5.5h25.5c0.3,0,0.4,0.1,0.4,0.1L490.1,49.7z"/>
	
		<linearGradient id="SVGID_12_" gradientUnits="userSpaceOnUse" x1="-1235.3446" y1="-1416.0481" x2="-1238.8876" y2="-1412.505" gradientTransform="matrix(1 0 0 -1 1307.8203 -1322.6299)">
		<stop  offset="0" style="stop-color:#08406F"/>
		<stop  offset="1" style="stop-color:#60C5F5"/>
	</linearGradient>
	<path fill="url(#SVGID_12_)" d="M95.1,70.6l-47.9,48l-2.8-4.3L91.1,68c2-2.3,4.7-1.7,4.7-1.7L95.1,70.6z"/>
	
		<linearGradient id="SVGID_13_" gradientUnits="userSpaceOnUse" x1="-1189.4792" y1="-1351.5905" x2="-1194.8453" y2="-1351.5905" gradientTransform="matrix(1 0 0 -1 1307.8203 -1322.6299)">
		<stop  offset="0" style="stop-color:#08406F"/>
		<stop  offset="1" style="stop-color:#60C5F5"/>
	</linearGradient>
	<path fill="url(#SVGID_13_)" d="M113,51.7V13.2L118,0.7c0,0,0.3,0.1,0.3,0.6c0,0.5,0,53.6,0,53.6l-0.3,2.3
		C118,57.2,113.5,57.2,113,51.7z"/>
	
		<linearGradient id="SVGID_14_" gradientUnits="userSpaceOnUse" x1="-1136.6533" y1="-1367.1808" x2="-1143.3136" y2="-1367.1808" gradientTransform="matrix(1 0 0 -1 1307.8203 -1322.6299)">
		<stop  offset="0" style="stop-color:#08406F"/>
		<stop  offset="1" style="stop-color:#60C5F5"/>
	</linearGradient>
	<path fill="url(#SVGID_14_)" d="M171.2,88.8c0,0-6.5,1.9-6.6-5.6c-0.1-7.3,0-69.3,0-69.3L169.7,0c0,0,0.2,0,0.2,0.7l0,81.8
		L171.2,88.8z"/>
	
		<linearGradient id="SVGID_15_" gradientUnits="userSpaceOnUse" x1="-1053.7463" y1="-1372.4371" x2="-1059.7393" y2="-1372.4371" gradientTransform="matrix(1 0 0 -1 1307.8203 -1322.6299)">
		<stop  offset="0" style="stop-color:#08406F"/>
		<stop  offset="1" style="stop-color:#60C5F5"/>
	</linearGradient>
	<path fill="url(#SVGID_15_)" d="M254.1,98.9c0,0-5.9,0.6-6-6.1l0-80.1l4.7-12.1c0,0,0.6,0.2,0.6,0.9l0,91.1L254.1,98.9z"/>
	
		<linearGradient id="SVGID_16_" gradientUnits="userSpaceOnUse" x1="-960.4583" y1="-1351.8457" x2="-966.1593" y2="-1351.8457" gradientTransform="matrix(1 0 0 -1 1307.8203 -1322.6299)">
		<stop  offset="0" style="stop-color:#08406F"/>
		<stop  offset="1" style="stop-color:#60C5F5"/>
	</linearGradient>
	<path fill="url(#SVGID_16_)" d="M347.4,57.4c0,0-4.9,0.5-5.7-4.6V13.1L346.1,1c0,0,0.6,0.1,0.6,0.9v49.7L347.4,57.4z"/>
	
		<linearGradient id="SVGID_17_" gradientUnits="userSpaceOnUse" x1="-908.7743" y1="-1365.6667" x2="-914.5713" y2="-1365.6667" gradientTransform="matrix(1 0 0 -1 1307.8203 -1322.6299)">
		<stop  offset="0" style="stop-color:#08406F"/>
		<stop  offset="1" style="stop-color:#60C5F5"/>
	</linearGradient>
	<path fill="url(#SVGID_17_)" d="M399,85.3c0,0-4.9,0.6-5.8-4.4V13.3l4.9-12.5c0,0,0.3,0.2,0.3,1.7v77.2L399,85.3z"/>
	
		<linearGradient id="SVGID_18_" gradientUnits="userSpaceOnUse" x1="-1207.9694" y1="-1416.1589" x2="-1213.0803" y2="-1416.1589" gradientTransform="matrix(1 0 0 -1 1307.8203 -1322.6299)">
		<stop  offset="0" style="stop-color:#08406F"/>
		<stop  offset="1" style="stop-color:#60C5F5"/>
	</linearGradient>
	<path fill="url(#SVGID_18_)" d="M96,120.8c0,0-0.8-0.1-0.8-1.1c0-0.9-0.1-49-0.1-49s-1.2-1.6,0.6-4.4c0.5,0.1,3.5,0.7,4.1,4.3v40.4
		L96,120.8z"/>
	
		<linearGradient id="SVGID_19_" gradientUnits="userSpaceOnUse" x1="-1188.4855" y1="-1421.0581" x2="-1192.0386" y2="-1417.5052" gradientTransform="matrix(1 0 0 -1 1307.8203 -1322.6299)">
		<stop  offset="0" style="stop-color:#08406F"/>
		<stop  offset="1" style="stop-color:#60C5F5"/>
	</linearGradient>
	<path fill="url(#SVGID_19_)" d="M139.1,78.6c0,0-41.5,41.5-41.9,41.9c-0.3,0.4-1.2,0.3-1.2,0.3l3.8-10l36.1-36.1
		c0,0,1.3-1.7,3.8-1.6L139.1,78.6z"/>
	
		<linearGradient id="SVGID_20_" gradientUnits="userSpaceOnUse" x1="-756.2981" y1="-1339.7222" x2="-759.9673" y2="-1336.0527" gradientTransform="matrix(1 0 0 -1 1307.8203 -1322.6299)">
		<stop  offset="0" style="stop-color:#08406F"/>
		<stop  offset="1" style="stop-color:#60C5F5"/>
	</linearGradient>
	<path fill="url(#SVGID_20_)" d="M564.9,3.6l-27.6,27.7l-3.1-4.2l20.3-20.3l10.6-4.5C565.1,2.2,565.4,3.1,564.9,3.6z"/>
	
		<linearGradient id="SVGID_21_" gradientUnits="userSpaceOnUse" x1="-1163.7404" y1="-1417.0994" x2="-1169.1388" y2="-1417.0994" gradientTransform="matrix(1 0 0 -1 1307.8203 -1322.6299)">
		<stop  offset="0" style="stop-color:#08406F"/>
		<stop  offset="1" style="stop-color:#60C5F5"/>
	</linearGradient>
	<path fill="url(#SVGID_21_)" d="M139.2,113.6l-0.1-35c0,0-1.3-2.6,0.6-5.5c0.6,0,3.7,0.4,4.3,4.1l0,38.5L139.2,113.6z"/>
	
		<linearGradient id="SVGID_22_" gradientUnits="userSpaceOnUse" x1="-1160.9584" y1="-1354.2308" x2="-1165.4459" y2="-1349.7433" gradientTransform="matrix(1 0 0 -1 1307.8203 -1322.6299)">
		<stop  offset="0" style="stop-color:#08406F"/>
		<stop  offset="1" style="stop-color:#60C5F5"/>
	</linearGradient>
	<path fill="url(#SVGID_22_)" d="M164.5,13.9l-41.5,41.5c-2,2-5,1.8-5,1.8c-1.8-3.5,0.3-6.1,0.3-6.1s50.5-50.5,50.9-50.9
		c0.3-0.4,0.5-0.3,0.5-0.3L164.5,13.9z"/>
	
		<linearGradient id="SVGID_23_" gradientUnits="userSpaceOnUse" x1="-1093.8884" y1="-1369.543" x2="-1098.0469" y2="-1365.3846" gradientTransform="matrix(1 0 0 -1 1307.8203 -1322.6299)">
		<stop  offset="0" style="stop-color:#08406F"/>
		<stop  offset="1" style="stop-color:#60C5F5"/>
	</linearGradient>
	<path fill="url(#SVGID_23_)" d="M248.1,12.8l-74.4,74.4c-1.6,1.6-2.5,1.7-2.5,1.7c-3.8-1.9-1.2-6.3-1.2-6.3s80.7-80.6,81-81
		c0.9-1.1,1.8-0.9,1.8-0.9L248.1,12.8z"/>
	
		<linearGradient id="SVGID_24_" gradientUnits="userSpaceOnUse" x1="-1005.4196" y1="-1375.031" x2="-1009.8035" y2="-1370.6469" gradientTransform="matrix(1 0 0 -1 1307.8203 -1322.6299)">
		<stop  offset="0" style="stop-color:#08406F"/>
		<stop  offset="1" style="stop-color:#60C5F5"/>
	</linearGradient>
	<path fill="url(#SVGID_24_)" d="M341.7,13.1l-84.2,84.2c-1.4,1.4-3.4,1.6-3.4,1.6c-3.1-1.6-0.8-6.2-0.8-6.2s90.6-90.5,91-90.9
		c0.9-1.1,1.8-0.9,1.8-0.9L341.7,13.1z"/>
	
		<linearGradient id="SVGID_25_" gradientUnits="userSpaceOnUse" x1="-932.7646" y1="-1354.0817" x2="-936.9719" y2="-1349.8739" gradientTransform="matrix(1 0 0 -1 1307.8203 -1322.6299)">
		<stop  offset="0" style="stop-color:#08406F"/>
		<stop  offset="1" style="stop-color:#60C5F5"/>
	</linearGradient>
	<path fill="url(#SVGID_25_)" d="M393.2,13.3l-42.5,42.5c-1.4,1.4-3.4,1.7-3.4,1.7c-2.9-1.9-0.6-6-0.6-6s49.6-49.7,49.9-50.1
		c1-1,1.4-0.7,1.4-0.7L393.2,13.3z"/>
	
		<linearGradient id="SVGID_26_" gradientUnits="userSpaceOnUse" x1="-820.9973" y1="-1382.4858" x2="-824.4544" y2="-1379.0289" gradientTransform="matrix(1 0 0 -1 1307.8203 -1322.6299)">
		<stop  offset="0" style="stop-color:#08406F"/>
		<stop  offset="1" style="stop-color:#60C5F5"/>
	</linearGradient>
	<path fill="url(#SVGID_26_)" d="M501.2,45.5l-29.4,29.4l-3.2-3.7l21.4-21.4l11.1-5.4C501.2,44.3,501.6,44.6,501.2,45.5z"/>
	
		<linearGradient id="SVGID_27_" gradientUnits="userSpaceOnUse" x1="-809.9262" y1="-1426.597" x2="-813.887" y2="-1422.6364" gradientTransform="matrix(1 0 0 -1 1307.8203 -1322.6299)">
		<stop  offset="0" style="stop-color:#08406F"/>
		<stop  offset="1" style="stop-color:#60C5F5"/>
	</linearGradient>
	<path fill="url(#SVGID_27_)" d="M511.9,90l-28.8,28.7l-3.3-4.5l20-20l12.3-5.4C512.1,88.7,512.5,89.2,511.9,90z"/>
	
		<linearGradient id="SVGID_28_" gradientUnits="userSpaceOnUse" x1="-867.899" y1="-1368.8367" x2="-872.1835" y2="-1364.5522" gradientTransform="matrix(1 0 0 -1 1307.8203 -1322.6299)">
		<stop  offset="0" style="stop-color:#08406F"/>
		<stop  offset="1" style="stop-color:#60C5F5"/>
	</linearGradient>
	<path fill="url(#SVGID_28_)" d="M479.3,6.8l-76.9,76.9c-1.4,1.4-3.4,1.6-3.4,1.6c-2.4-3.1-0.7-6-0.7-6l77.3-77.4L479.3,6.8z"/>
	
		<linearGradient id="SVGID_29_" gradientUnits="userSpaceOnUse" x1="-822.876" y1="-1363.8704" x2="-827.989" y2="-1358.7574" gradientTransform="matrix(1 0 0 -1 1307.8203 -1322.6299)">
		<stop  offset="0" style="stop-color:#08406F"/>
		<stop  offset="1" style="stop-color:#60C5F5"/>
	</linearGradient>
	<path fill="url(#SVGID_29_)" d="M491,31.3l-12.7,12.8c-2.8,2.3-1.8,5.6-1.8,5.6c-2.3-0.2-3.1-2.1-3.4-3.7c-0.3-1.6,0.3-3.4,1.3-4.5
		l14.5-14.4L491,31.3z"/>
	
		<linearGradient id="SVGID_30_" gradientUnits="userSpaceOnUse" x1="-1123.7572" y1="-1439.5515" x2="-1127.4001" y2="-1435.9084" gradientTransform="matrix(1 0 0 -1 1307.8203 -1322.6299)">
		<stop  offset="0" style="stop-color:#08406F"/>
		<stop  offset="1" style="stop-color:#60C5F5"/>
	</linearGradient>
	<path fill="url(#SVGID_30_)" d="M140.4,153.3l77.9-77.9c0,0,1.4-1.9,4.3-1.8l-0.5,5.2c0,0-78.7,78.5-79.1,78.9L140.4,153.3z"/>
	
		<linearGradient id="SVGID_31_" gradientUnits="userSpaceOnUse" x1="-1006.7061" y1="-1416.3596" x2="-1010.3478" y2="-1412.7179" gradientTransform="matrix(1 0 0 -1 1307.8203 -1322.6299)">
		<stop  offset="0" style="stop-color:#08406F"/>
		<stop  offset="1" style="stop-color:#60C5F5"/>
	</linearGradient>
	<path fill="url(#SVGID_31_)" d="M272.6,115l47.6-47.7c0,0,1.4-1.9,4.3-1.8l-0.9,5.6l-48.3,48.3L272.6,115z"/>
	
		<linearGradient id="SVGID_32_" gradientUnits="userSpaceOnUse" x1="-959.8457" y1="-1420.3055" x2="-963.3552" y2="-1416.796" gradientTransform="matrix(1 0 0 -1 1307.8203 -1322.6299)">
		<stop  offset="0" style="stop-color:#08406F"/>
		<stop  offset="1" style="stop-color:#60C5F5"/>
	</linearGradient>
	<path fill="url(#SVGID_32_)" d="M328.4,110.3l36.8-36.8c0.8-0.8,1.8-1.8,3.4-1.8l-0.1,5.5l-43.1,43c-0.6,0.6-1,0.4-1,0.4
		L328.4,110.3z"/>
	
		<linearGradient id="SVGID_33_" gradientUnits="userSpaceOnUse" x1="-938.9277" y1="-1440.8652" x2="-943.3527" y2="-1436.4406" gradientTransform="matrix(1 0 0 -1 1307.8203 -1322.6299)">
		<stop  offset="0" style="stop-color:#08406F"/>
		<stop  offset="1" style="stop-color:#60C5F5"/>
	</linearGradient>
	<path fill="url(#SVGID_33_)" d="M360.2,118.1l7.3-7.3l5.6,2.3l-0.7,1l-3.8,4.4l-0.3,0.3h-7.7c-0.3,0-0.5-0.3-0.5-0.3
		S359.8,118.5,360.2,118.1z"/>
	
		<linearGradient id="SVGID_34_" gradientUnits="userSpaceOnUse" x1="-1080.2773" y1="-1418.9899" x2="-1086.3153" y2="-1418.9899" gradientTransform="matrix(1 0 0 -1 1307.8203 -1322.6299)">
		<stop  offset="0" style="stop-color:#08406F"/>
		<stop  offset="1" style="stop-color:#60C5F5"/>
	</linearGradient>
	<path fill="url(#SVGID_34_)" d="M222.2,117.3l-0.1-38.5c0,0-1.7-2,0.5-5.2c0.7,0,4.2,0.5,4.9,4.7l0,36.7l-4.6,4.1
		C223,119.1,222.3,118.6,222.2,117.3z"/>
	
		<linearGradient id="SVGID_35_" gradientUnits="userSpaceOnUse" x1="-979.4303" y1="-1415.7388" x2="-984.6423" y2="-1415.7388" gradientTransform="matrix(1 0 0 -1 1307.8203 -1322.6299)">
		<stop  offset="0" style="stop-color:#08406F"/>
		<stop  offset="1" style="stop-color:#60C5F5"/>
	</linearGradient>
	<path fill="url(#SVGID_35_)" d="M323.7,119.9l-0.1-48.8c0,0-1.5-2.7,0.9-5.6c0.6,0,3.2,0.5,3.9,4.7v40l-4,10.4
		C324.4,120.6,323.8,120.5,323.7,119.9z"/>
	
		<linearGradient id="SVGID_36_" gradientUnits="userSpaceOnUse" x1="-934.7653" y1="-1415.0269" x2="-941.0099" y2="-1415.0269" gradientTransform="matrix(1 0 0 -1 1307.8203 -1322.6299)">
		<stop  offset="0" style="stop-color:#08406F"/>
		<stop  offset="1" style="stop-color:#60C5F5"/>
	</linearGradient>
	<path fill="url(#SVGID_36_)" d="M367.5,110.8V78.1c0,0-2.1-3.4,1.1-6.5c0.7,0,4.1,0.2,4.5,4.3v37.1L367.5,110.8z"/>
	
		<linearGradient id="SVGID_37_" gradientUnits="userSpaceOnUse" x1="-869.0967" y1="-1406.8972" x2="-873.5153" y2="-1402.4788" gradientTransform="matrix(1 0 0 -1 1307.8203 -1322.6299)">
		<stop  offset="0" style="stop-color:#08406F"/>
		<stop  offset="1" style="stop-color:#60C5F5"/>
	</linearGradient>
	<path fill="url(#SVGID_37_)" d="M447.2,74.8l-13.5,13.5l-3.8,4.8c-3.9-2.5-2-6.9-0.9-7.9l14.1-14.1L447.2,74.8z"/>
	
		<linearGradient id="SVGID_38_" gradientUnits="userSpaceOnUse" x1="-836.8143" y1="-1416.7308" x2="-836.8143" y2="-1410.9279" gradientTransform="matrix(1 0 0 -1 1307.8203 -1322.6299)">
		<stop  offset="0" style="stop-color:#08406F"/>
		<stop  offset="1" style="stop-color:#60C5F5"/>
	</linearGradient>
	<path fill="url(#SVGID_38_)" d="M499.8,94.1h-66.4c-2.5-0.2-3.6-1-3.6-1c0-3.6,3.8-4.8,3.8-4.8l77.7,0c0.5,0,0.7,0.4,0.7,0.4
		L499.8,94.1z"/>
</g>
<g>
	<path fill="#C0392B" d="M176.6,174.1c2.3,0,4.2,2.1,4.2,4.4h-13v-42h4.3v37.6H176.6z"/>
	<path fill="#C0392B" d="M188.6,178.5c-2.3,0-4.4-2.1-4.4-4.4v-29.2h4.4V178.5z"/>
	<g>
		<g>
			<path fill="#C0392B" d="M201.6,144.9h-4.4v-8.4h-4.4v42h8.8c2.3,0,4.2-2.1,4.2-4.4V149C205.8,146.7,203.9,144.9,201.6,144.9z
				 M201.5,174.1h-4.4v-25h4.4V174.1z"/>
		</g>
	</g>
	<g>
		<path fill="#231F20" d="M210.5,136.2c0,0,33.5,0,35,0c1.5,0,2,0.3,2.6,1.5c0.6,1.2,5.7,11.6,6.2,12.8c0.5,1.2,0.1,2-0.6,3
			c-0.7,0.9-7.9,9.2-7.9,9.2l8.9,15.6h-13.4c0,0-10.5-17.9-11.1-18.8c-0.6-0.9-0.6-2.3,0.7-2.3c1.3,0,4,0,4.6,0
			c0.6,0,0.9-0.1,1.6-0.7c0.7-0.6,4.3-4.9,4.3-4.9s-1.7-4.6-2.1-5.5c-0.4-0.9-1.2-1.1-1.9-1.1c-0.8,0-13.5,0-13.5,0v33.3h-13.2
			L210.5,136.2L210.5,136.2z"/>
		<path fill="#FFFFFF" d="M241,178.6l-0.1-0.2c0,0-2.6-4.5-5.3-9.1l0,0c-2.7-4.6-5.5-9.3-5.7-9.7l0,0c-0.3-0.4-0.4-0.9-0.4-1.4l0,0
			c0-0.4,0.1-0.7,0.3-1l0,0c0.2-0.3,0.6-0.4,1.1-0.4l0,0c1.3,0,4,0,4.6,0l0,0c0.5,0,0.6,0,1.3-0.6l0,0c0.3-0.2,1.4-1.5,2.4-2.7l0,0
			c0.8-0.9,1.5-1.7,1.7-2.1l0,0c-0.3-0.9-1.7-4.5-2-5.3l0,0c-0.3-0.7-0.9-0.9-1.6-0.9l0,0c-0.4,0-3.7,0-7,0l0,0c-2.6,0-5.2,0-6.1,0
			l0,0v33.3h-13.9v-42.4v-0.4h0.4c0,0,33.5,0,35,0l0,0c1.5,0,2.3,0.4,2.9,1.7l0,0c0.7,1.2,5.7,11.6,6.2,12.8l0,0
			c0.2,0.4,0.2,0.8,0.2,1.1l0,0c0,0.9-0.4,1.5-0.9,2.2l0,0c-0.7,0.9-6.7,7.8-7.8,9l0,0l9,15.9L241,178.6L241,178.6z M253.9,177.9
			l-8.7-15.3l0.2-0.2c0,0,7.3-8.3,7.9-9.2l0,0c0.5-0.6,0.8-1.2,0.8-1.8l0,0c0-0.3-0.1-0.5-0.2-0.8l0,0c-0.5-1.1-5.5-11.6-6.2-12.7
			l0,0c-0.7-1.1-0.9-1.3-2.3-1.3l0,0c-1.4,0-31,0-34.6,0l0,0v41.3h12.5v-33.3h0.4c0,0,12.7,0,13.5,0l0,0c0.8,0,1.8,0.3,2.3,1.3l0,0
			c0.4,0.9,2.1,5.5,2.1,5.5l0,0l0.1,0.2l-0.1,0.2c0,0-3.6,4.3-4.3,5l0,0c-0.7,0.6-1.1,0.8-1.8,0.8l0,0c-0.6,0-3.3,0-4.6,0l0,0
			c-0.6,0-0.7,0.3-0.7,0.7l0,0c0,0.3,0.1,0.7,0.3,1l0,0c0.6,0.9,9.9,16.7,11,18.6l0,0L253.9,177.9L253.9,177.9z"/>
	</g>
	<g>
		<path fill="#231F20" d="M345.2,136.2c0,0,33.5,0,35,0c1.5,0,2,0.3,2.6,1.5c0.6,1.2,5.7,11.6,6.2,12.8c0.5,1.2,0.1,2-0.6,3
			c-0.7,0.9-7.9,9.2-7.9,9.2l8.9,15.6h-13.4c0,0-10.5-17.9-11.1-18.8c-0.6-0.9-0.6-2.3,0.7-2.3s4,0,4.6,0c0.6,0,0.9-0.1,1.6-0.7
			c0.7-0.6,4.3-4.9,4.3-4.9s-1.7-4.6-2.1-5.5c-0.4-0.9-1.2-1.1-1.9-1.1c-0.8,0-13.5,0-13.5,0v33.3h-13.2L345.2,136.2L345.2,136.2
			L345.2,136.2z"/>
		<path fill="#FFFFFF" d="M375.6,178.6l-0.1-0.2c0,0-2.6-4.5-5.3-9.1l0,0c-2.7-4.6-5.5-9.3-5.7-9.7l0,0c-0.3-0.4-0.4-0.9-0.4-1.4
			l0,0c0-0.4,0.1-0.7,0.3-1l0,0c0.2-0.3,0.6-0.4,1.1-0.4l0,0c1.3,0,4,0,4.6,0l0,0c0.5,0,0.6,0,1.3-0.6l0,0c0.3-0.2,1.4-1.5,2.4-2.7
			l0,0c0.8-0.9,1.5-1.7,1.7-2.1l0,0c-0.3-0.9-1.7-4.5-2-5.3l0,0c-0.3-0.7-0.9-0.9-1.6-0.9l0,0c-0.4,0-3.7,0-7,0l0,0
			c-2.6,0-5.2,0-6.1,0l0,0v33.3h-13.9v-42.4v-0.4h0.4c0,0,33.5,0,35,0l0,0c1.5,0,2.3,0.4,2.9,1.7l0,0c0.7,1.2,5.7,11.6,6.2,12.8l0,0
			c0.2,0.4,0.2,0.8,0.2,1.1l0,0c0,0.8-0.4,1.5-0.9,2.2l0,0c-0.7,0.9-6.7,7.8-7.8,9l0,0l9,15.9L375.6,178.6L375.6,178.6z
			 M388.6,177.9l-8.7-15.3l0.2-0.2c0,0,7.3-8.3,7.9-9.2l0,0c0.5-0.6,0.8-1.2,0.8-1.8l0,0c0-0.3-0.1-0.5-0.2-0.8l0,0
			c-0.5-1.1-5.5-11.6-6.2-12.7l0,0c-0.7-1.1-0.9-1.3-2.3-1.3l0,0c-1.4,0-31,0-34.6,0l0,0v41.3H358v-33.3h0.4c0,0,12.7,0,13.5,0l0,0
			c0.8,0,1.8,0.3,2.3,1.3l0,0c0.4,0.9,2.1,5.5,2.1,5.5l0,0l0.1,0.2l-0.1,0.2c0,0-3.6,4.3-4.3,5l0,0c-0.7,0.6-1.1,0.8-1.8,0.8l0,0
			c-0.6,0-3.3,0-4.6,0l0,0c-0.6,0-0.7,0.3-0.7,0.7l0,0c0,0.3,0.1,0.7,0.3,1l0,0c0.6,0.9,9.9,16.7,11,18.6l0,0H388.6L388.6,177.9z"/>
	</g>
	<g>
		<path fill="#231F20" d="M257,178.3c0,0,0-26.9,0-27.8c0-0.9,0.2-1.3,0.6-2.2c0.4-0.9,5.4-10,5.9-10.8c0.5-0.9,1.3-1.2,2.7-1.2
			s34.8,0,34.8,0v8.7c0,0-25.2,0-26.1,0s-1.4,0.1-2,1.5s-2.7,6.3-2.7,6.3h26.5v8.8h-26.5v7.9H301v8.8L257,178.3L257,178.3z"/>
		<path fill="#FFFFFF" d="M257,178.6v-0.4h0.4H257V178.6h-0.4v-0.4c0,0,0-26.9,0-27.8l0,0c0-1,0.3-1.5,0.7-2.4l0,0
			c0.5-1,5.4-10,5.9-10.9l0,0c0.6-1,1.6-1.4,3-1.4l0,0c1.4,0,34.8,0,34.8,0l0,0h0.4v9.4H301c0,0-25.2,0-26.1,0l0,0
			c-1,0.1-1-0.1-1.7,1.2l0,0c-0.5,1.1-1.9,4.5-2.5,5.8l0,0H297v9.5l-26.5,0v7.2h30.9v9.6L257,178.6L257,178.6z M300.7,177.9v-8.1
			h-30.9v-8.7h26.5v-8h-26.6l0.2-0.5c0,0,2-4.9,2.7-6.3l0,0c0.6-1.5,1.4-1.7,2.4-1.7l0,0c0.9,0,22.7,0,25.8,0l0,0v-8
			c-3.6,0-33.1,0-34.4,0l0,0c-1.4,0-2,0.3-2.4,1l0,0c-0.5,0.8-5.5,9.9-5.9,10.8l0,0c-0.4,0.9-0.6,1.2-0.6,2l0,0c0,0.8,0,24.2,0,27.4
			l0,0L300.7,177.9L300.7,177.9z"/>
	</g>
	<g>
		<g>
			<path fill="#231F20" d="M330,149.4v-13.2h-15.8v13.2H301v15.4h13.2v13.4H330v-13.4H343v-15.4L330,149.4L330,149.4z M322.1,161.8
				c-2.6,0-4.6-2.1-4.6-4.6c0-2.6,2.1-4.6,4.6-4.6c2.6,0,4.6,2.1,4.6,4.6C326.7,159.7,324.7,161.8,322.1,161.8z"/>
		</g>
		<g>
			<path fill="#FFFFFF" d="M313.9,178.6v-13.4h-13.2v-16.2h13.2v-13.2h16.5v13.2h12.9v16.2l-12.9,0v13.4L313.9,178.6L313.9,178.6z
				 M301.4,164.5h13.2v13.4h15v-13.4h12.9v-14.7H330v-0.4h0.4H330v0.4h-0.4v-13.2h-15v13.2l-13.2,0V164.5L301.4,164.5z M322.1,162.2
				v-0.4v-0.4c2.4,0,4.3-1.9,4.3-4.3l0,0c0-2.4-1.9-4.3-4.3-4.3l0,0c-2.4,0-4.3,1.9-4.3,4.3l0,0c0,2.4,1.9,4.3,4.3,4.3l0,0v0.4
				V162.2c-2.8,0-5-2.2-5-5l0,0c0-2.8,2.2-5,5-5l0,0c2.8,0,5,2.2,5,5l0,0C327.1,159.9,324.9,162.2,322.1,162.2L322.1,162.2
				L322.1,162.2L322.1,162.2z"/>
		</g>
	</g>
	<polygon fill="#FFFFFF" points="334,152.6 334,161.7 338.5,157.2 	"/>
	<polygon fill="#FFFFFF" points="310.1,161.7 310.1,152.6 305.6,157 	"/>
	<g>
		<g>
			<path fill="#231F20" d="M424.7,136.2h-25.3c-4.7,0-8.5,3.8-8.5,8.5v25.1c0,4.7,3.8,8.5,8.5,8.5h25.3c4.7,0,8.5-3.8,8.5-8.5v-25.1
				C433.2,140,429.4,136.2,424.7,136.2z M412.1,169.9c-7,0-12.7-5.7-12.7-12.7c0-7,5.7-12.7,12.7-12.7s12.7,5.7,12.7,12.7
				C424.8,164.2,419.1,169.9,412.1,169.9z"/>
		</g>
		<g>
			<path fill="#FFFFFF" d="M399.5,178.6c-4.9,0-8.8-4-8.8-8.8l0,0v-25.1c0-4.9,4-8.8,8.8-8.8l0,0h25.3v0.4v0.4h-25.3
				c-4.5,0-8.1,3.6-8.1,8.1l0,0v25.1c0,4.5,3.6,8.1,8.1,8.1l0,0h25.3c4.5,0,8.1-3.6,8.1-8.1l0,0v-25.1c0-4.5-3.6-8.1-8.1-8.1l0,0
				v-0.4v-0.4c4.9,0,8.8,4,8.8,8.8l0,0l0,25.1c0,4.9-4,8.8-8.8,8.8l0,0L399.5,178.6L399.5,178.6z M399.1,157.2c0-7.2,5.8-13,13-13
				l0,0c7.2,0,13,5.8,13,13l0,0c0,7.2-5.8,13-13,13l0,0v-0.4v-0.4c6.8,0,12.3-5.5,12.3-12.3l0,0c0-6.8-5.5-12.3-12.3-12.3l0,0
				c-6.8,0-12.3,5.5-12.3,12.3l0,0c0,6.8,5.5,12.3,12.3,12.3l0,0v0.4v0.4C404.9,170.2,399.1,164.4,399.1,157.2L399.1,157.2z"/>
		</g>
	</g>
	<rect x="184.3" y="136.5" fill="#C0392B" width="4.4" height="4.5"/>
	<polygon fill="#FFFFFF" points="317.5,145.2 326.6,145.2 322.1,140.7 	"/>
	<polygon fill="#FFFFFF" points="326.6,169.1 317.5,169.1 322,173.6 	"/>
</g>
<linearGradient id="SVGID_39_" gradientUnits="userSpaceOnUse" x1="558.775" y1="156.2976" x2="441.9585" y2="156.2976">
	<stop  offset="0" style="stop-color:#013A67"/>
	<stop  offset="1" style="stop-color:#6CD1FF"/>
</linearGradient>
<path fill="url(#SVGID_39_)" d="M450.1,169.2h14.1v7.6H442v-14c0-3.1,1-5.6,3.1-7.5c2-1.8,4.7-2.7,8-2.7c1.1,0,1.8-0.2,2.3-0.5
	c0.5-0.4,0.7-1.1,0.7-2.1v-6.4h-6v6.2H442v-8.2c0-1.5,0.6-2.9,1.8-4c1.2-1.1,2.6-1.6,4.2-1.6h10.2c1.6,0,3,0.5,4.2,1.6
	c1.2,1.1,1.8,2.4,1.8,4v8.4c0,3.1-1,5.6-3.1,7.5c-2,1.8-4.7,2.7-8,2.7c-1.1,0-1.9,0.2-2.3,0.5c-0.5,0.4-0.7,1.1-0.7,2.1V169.2z
	 M489.9,135.9c1.6,0,3,0.5,4.2,1.6c1.2,1.1,1.8,2.4,1.8,4v29.7c0,1.5-0.6,2.9-1.8,4c-1.2,1.1-2.6,1.6-4.2,1.6h-10.2
	c-1.6,0-3-0.5-4.2-1.6c-1.2-1.1-1.8-2.4-1.8-4v-29.7c0-1.5,0.6-2.9,1.8-4c1.2-1.1,2.6-1.6,4.2-1.6H489.9z M481.8,143.4v25.7h6v-25.7
	H481.8z M520.6,169.2h7.1v7.6h-22.2v-7.6h7.1v-25.7h-7.1v-7.6h9.2c1.6,0,3,0.5,4.2,1.6c1.2,1.1,1.8,2.4,1.8,4V169.2z M552.8,135.9
	c1.6,0,3,0.5,4.2,1.6c1.2,1.1,1.8,2.4,1.8,4v29.7c0,1.5-0.6,2.9-1.8,4c-1.2,1.1-2.6,1.6-4.2,1.6h-10.2c-1.6,0-3-0.5-4.2-1.6
	c-1.2-1.1-1.8-2.4-1.8-4v-29.7c0-1.5,0.6-2.9,1.8-4c1.2-1.1,2.6-1.6,4.2-1.6H552.8z M544.7,143.4v25.7h6v-25.7H544.7z"/>
<g>
	<path fill="#003366" d="M552.8,135.9c1.6,0,3,0.5,4.2,1.6c1.2,1.1,1.8,2.4,1.8,4v29.7c0,1.5-0.6,2.9-1.8,4
		c-1.2,1.1-2.6,1.6-4.2,1.6h-10.2c-1.6,0-3-0.5-4.2-1.6c-1.2-1.1-1.8-2.4-1.8-4v-29.7c0-1.5,0.6-2.9,1.8-4c1.2-1.1,2.6-1.6,4.2-1.6
		H552.8 M544.7,169.2h6v-25.7h-6V169.2 M514.6,135.9c1.6,0,3,0.5,4.2,1.6c1.2,1.1,1.8,2.4,1.8,4v27.7h7.1v7.6h-22.2v-7.6h7.1v-25.7
		h-7.1v-7.6H514.6 M489.9,135.9c1.6,0,3,0.5,4.2,1.6c1.2,1.1,1.8,2.4,1.8,4v29.7c0,1.5-0.6,2.9-1.8,4c-1.2,1.1-2.6,1.6-4.2,1.6
		h-10.2c-1.6,0-3-0.5-4.2-1.6c-1.2-1.1-1.8-2.4-1.8-4v-29.7c0-1.5,0.6-2.9,1.8-4c1.2-1.1,2.6-1.6,4.2-1.6H489.9 M481.8,169.2h6
		v-25.7h-6V169.2 M458.2,135.9c1.6,0,3,0.5,4.2,1.6c1.2,1.1,1.8,2.4,1.8,4v8.4c0,3.1-1,5.6-3.1,7.5c-2,1.8-4.7,2.7-8,2.7
		c-1.1,0-1.9,0.2-2.3,0.5c-0.5,0.4-0.7,1.1-0.7,2.1v6.4h14.1v7.6H442v-14c0-3.1,1-5.6,3.1-7.5c2-1.8,4.7-2.7,8-2.7
		c1.1,0,1.8-0.2,2.3-0.5c0.5-0.4,0.7-1.1,0.7-2.1v-6.4h-6v6.2H442v-8.2c0-1.5,0.6-2.9,1.8-4c1.2-1.1,2.6-1.6,4.2-1.6H458.2
		 M552.8,134.9h-10.2c-1.9,0-3.5,0.6-4.9,1.9c-1.4,1.3-2.1,2.9-2.1,4.7v29.7c0,1.8,0.7,3.4,2.1,4.7c1.4,1.2,3,1.9,4.9,1.9h10.2
		c1.9,0,3.5-0.6,4.9-1.9c1.4-1.3,2.1-2.9,2.1-4.7v-29.7c0-1.8-0.7-3.4-2.1-4.7C556.3,135.5,554.7,134.9,552.8,134.9L552.8,134.9z
		 M545.7,144.4h4v23.7h-4V144.4L545.7,144.4z M514.6,134.9h-9.2h-1v1v7.6v1h1h6.1v23.7h-6.1h-1v1v7.6v1h1h22.2h1v-1v-7.6v-1h-1h-6.1
		v-26.7c0-1.8-0.7-3.4-2.1-4.7C518.1,135.5,516.5,134.9,514.6,134.9L514.6,134.9z M489.9,134.9h-10.2c-1.9,0-3.5,0.6-4.9,1.9
		c-1.4,1.3-2.1,2.9-2.1,4.7v29.7c0,1.8,0.7,3.4,2.1,4.7c1.4,1.2,3,1.9,4.9,1.9h10.2c1.9,0,3.5-0.6,4.9-1.9c1.4-1.3,2.1-2.9,2.1-4.7
		v-29.7c0-1.8-0.7-3.4-2.1-4.7C493.4,135.5,491.8,134.9,489.9,134.9L489.9,134.9z M482.8,144.4h4v23.7h-4V144.4L482.8,144.4z
		 M458.2,134.9h-10.2c-1.9,0-3.5,0.6-4.9,1.9c-1.4,1.3-2.1,2.9-2.1,4.7v8.2v1h1h8.1h1v-1v-5.2h4v5.4c0,0.7-0.1,1.1-0.3,1.3
		c-0.1,0.1-0.5,0.3-1.6,0.3c-3.6,0-6.5,1-8.7,3c-2.3,2-3.4,4.8-3.4,8.2v14v1h1h22.2h1v-1v-7.6v-1h-1h-13.1v-5.4
		c0-0.7,0.1-1.1,0.3-1.3c0.1-0.1,0.5-0.3,1.7-0.3c3.6,0,6.5-1,8.7-3c2.3-2,3.4-4.8,3.4-8.2v-8.4c0-1.8-0.7-3.4-2.1-4.7
		C461.7,135.5,460.1,134.9,458.2,134.9L458.2,134.9z"/>
</g>
</svg>
