<?xml version="1.0" encoding="utf-8"?>
<!-- Generator: Adobe Illustrator 22.1.0, SVG Export Plug-In . SVG Version: 6.00 Build 0)  -->
<svg version="1.0" id="Livello_1" xmlns="http://www.w3.org/2000/svg" xmlns:xlink="http://www.w3.org/1999/xlink" x="0px" y="0px"
	 width="1099.4px" height="433.5px" viewBox="0 0 1099.4 433.5" enable-background="new 0 0 1099.4 433.5" xml:space="preserve">
<path fill="#0000A5" d="M57.2,373.7c-2.2-1.9-4.6-3.9-7.1-6l-0.1-0.1c-8.1-6.8-16.6-13.7-24.6-23c-12.5-14.4-13.2-35.8-10-49.7
	c4.3-18.7,9.8-37,15.2-54c2.5-8,5.4-15.2,8.3-22.1c1.5-3.6,2.9-7.2,4.2-10.5c10.3-27.6,23.9-56.2,40.4-85
	c6-10.5,13.1-21.7,21.7-34.2c1.3-1.8,2.5-3.7,3.8-5.5l0.3-0.4c8.7-12.8,17.7-25.9,28-38.7c10.4-12.8,24.6-19.9,39.9-19.9
	c16.4,0,31.1,7.9,41.3,22.2c2.9,4.1,5.5,8.5,7.7,13.3c9.4-3.6,19.4-5.4,29.8-5.4c4.3,0,8.7,0.3,13.2,0.9
	c15.2,2.1,28.1,11.1,35.5,24.6c4.7,8.5,6.7,18.2,5.9,27.9c8.5-1.9,17.2-2.9,26.1-2.9c2.9,0,5.8,0.1,8.7,0.3
	c11.3,0.8,19.6,5.7,24,8.3l0.2,0.1c0.3,0.2,0.8,0.5,1,0.6l15.6,7.5c4.2-2.4,8.6-4.5,13.2-6.4c9.2-3.8,17.7-5.7,26-5.7
	c15.7,0,29.4,6.7,38.5,18.6c21.2-19,43.6-28.3,68.4-28.3c2.2,0,4.4,0.1,6.6,0.2c2.9,0.2,7.1,0.7,11.8,1.7
	c5.6-8.7,13.9-15.4,24.7-19.9c11.8-4.9,24.2-11.4,36.1-17.7l5.5-2.9c13.6-7.2,24-11.3,37-11.3c7.4,0,14.3,1.5,21.2,4.5
	c12.3-6.8,26.2-10.1,42.3-10.1c3.4,0,6.9,0.2,10.4,0.5c16.5,1.5,30.8,8.9,40.2,20.7c7.6-10.7,16.2-20.4,26.2-29.3
	c16.5-14.7,34.9-21.6,57.6-21.6c3.9,0,7.8,0.2,12,0.6c15.4,1.5,28.1,10.7,35.7,25.9c5.6,11.2,8.6,28.6,4.1,44.7
	c1.4,0.1,2.7,0.3,4.1,0.4c7.5,0.9,25.8,5.5,33.9,28.7c1.7,4.9,2.8,10.3,3.3,16c3-1.2,5.7-2.2,8.4-3.2c4.4-1.6,9.1-2.4,13.9-2.4
	c9.4,0,28.1,4.2,38.3,19c4.8-4.7,11.3-9.6,19.8-12.2c3.9-1.2,8-1.8,12.1-1.8c13.2,0,27.4,6.5,36.3,16.5
	c14.9,16.8,10.3,40.2,3.7,51.7c-3.1,5.4-6.3,9.8-9.3,14.1c-2.7,3.9-5.3,7.5-6.7,10.3c-3.5,7.3-6.8,15.6-10,23.7
	c-3,7.6-6.1,15.5-9.7,23.4c-14.9,33-30.5,65.9-45.5,97.8l-0.2,0.4c-3.5,7.5-8.6,12.5-11.3,15.2c-0.4,0.4-0.9,0.9-1.2,1.2l-23.5,26.5
	l-30.6-27c-2.9-2.5-5.6-5-8.4-7.4c-12.9-11.3-18.7-25.5-16.7-41.1c1.4-11.1,6.4-19.1,8.9-23.1c-4.3-0.7-8.6-1.5-13-2.4
	c-107.9-22.2-121-22.9-222.8-28.3l-13.4-0.7c-0.3,0-0.6,0-1,0c-0.6,0-1.3,0-2,0l-0.6,0c-1.5,0-3.2,0.1-5.2,0.1
	c-7.8,24.7-11.7,38.3-14.9,57.7c-0.2,1.3-0.7,4.3-1.1,8.2c-0.3,2.8-0.4,5.7-0.5,8.5l-0.8,58.4L587,386.9
	c-33.8-18.1-49.4-46.4-41.7-75.6l1.6-6.1c1.7-6.4,3.3-12.5,5-18.7c-3.6,0.2-7,0.3-10.1,0.4c-47.4,2.4-82.4,5.9-98.3,7.8
	c-3.2,15.1-10.4,27.5-21.7,37.9c-10.1,9.2-23.9,14.3-39.1,14.3c-18.2,0-40.6-8.4-51.8-26.9c-36.7,8.7-71.4,20.8-111.9,36.2
	L185.6,369l-37-98.7l33.2-12.5c5.1-1.9,10.2-3.8,15.1-5.5c2.2-0.8,4.6-1.6,6.9-2.4c-3.1-1.7-6.3-3.8-9.2-6.5
	c-11.2-10.4-15.2-25.1-15.2-37.2c-0.4,0-0.9,0-1.3,0c-7.7,0-14.8-2.1-21-6.3c-0.4-0.2-0.7-0.5-1.1-0.8c-4,8.5-8.3,18-11.9,27.4
	c-6.3,16.4-10.7,34.7-14.5,52.1c-3.6,16.1-6.5,32.6-9.5,50l-0.1,0.5c-1.4,7.8-2.8,15.8-4.3,24.1l-11.3,61.5L57.2,373.7z"/>
<path fill="#0000E7" d="M589.3,382.5c-31.6-17-46.3-43.1-39.2-69.9l1.6-6.1c2.2-8.6,4.4-16.7,6.9-25.3c-5.3,0.2-11.2,0.5-17.1,0.7
	c-50.7,2.6-88.2,6.4-102.3,8.3c-2.6,15.6-9.5,28.3-20.8,38.7c-9.1,8.4-21.8,13-35.7,13c-17.8,0-39.8-8.6-49.3-27.7
	c-38.2,8.8-74.3,21.3-116.2,37.3l-28.6,10.9L155,273.3l28.5-10.7c5.1-1.9,10.1-3.7,15-5.4c6.5-2.3,13.5-4.6,21-6.9
	c-6.4-1.2-14.7-4-21.5-10.3c-11-10.3-14.8-26.2-13.3-39.1c-2.2,0.4-4.4,0.6-6.6,0.6c-6.7,0-12.8-1.8-18.2-5.5
	c-1.9-1.3-3.8-2.8-5.7-4.5c-5.3,11-10.5,22.4-14.8,33.5c-6.4,16.7-10.9,35.3-14.7,52.8c-3.6,16.2-6.5,32.7-9.6,50.2l-0.1,0.5
	c-1.4,7.7-2.8,15.7-4.3,24.1l-9.7,52.8l-40.4-35.4c-2.2-1.9-4.6-3.9-7.2-6.1l-0.1-0.1c-8-6.6-16.2-13.5-24-22.4
	c-11.3-13-11.8-32.5-8.9-45.3c4.3-18.5,9.8-36.7,15.1-53.6c2.5-7.8,5.3-14.9,8.1-21.7c1.4-3.6,2.9-7.2,4.2-10.6
	c10.2-27.4,23.7-55.7,40.1-84.2c6-10.4,13-21.5,21.5-33.9c1.3-1.8,2.5-3.7,3.8-5.5l0.3-0.4c8.6-12.7,17.6-25.8,27.7-38.3
	c9.4-11.6,22.2-18.1,36-18.1c14.7,0,28,7.1,37.2,20.1c3.6,5.1,6.7,10.7,9.2,16.9c10-4.6,20.9-6.9,32.4-6.9c4.1,0,8.3,0.3,12.5,0.9
	c13.6,1.9,25.2,9.9,31.9,22.1c5.4,9.8,6.8,21.4,4.2,32.3c10.5-3.1,21.2-4.6,32.3-4.6c2.8,0,5.6,0.1,8.4,0.3
	c10.1,0.7,17.7,5.2,21.8,7.6c0.4,0.3,1.1,0.7,1.5,0.9l17.5,8.4l0,0.7c5-2.9,10.1-5.5,15.5-7.8c8.6-3.6,16.4-5.3,24.1-5.3
	c16.2,0,29.7,7.8,37.6,21.3c21.5-20.8,44.2-30.9,69.3-30.9c2.1,0,4.2,0.1,6.3,0.2c3.7,0.3,9,0.9,14.6,2.5c4.9-9.4,13.1-16.4,24.2-21
	c12.1-5,24.5-11.6,36.5-17.9l4.9-2.6c0,0,0.4-0.2,0.6-0.3c12.9-6.8,22.7-10.8,34.7-10.8c7.4,0,14.5,1.7,21.4,5.1
	c12.1-7.2,25.9-10.7,42.1-10.7c3.2,0,6.6,0.2,10,0.5c18,1.6,32.6,10.6,40.6,24.7c8.3-12.9,18-24.2,29.5-34.5
	c15.6-13.9,32.8-20.3,54.3-20.3c3.7,0,7.5,0.2,11.5,0.6c13.7,1.4,24.9,9.6,31.7,23.2c6,11.9,8.6,30.9,1.7,47c3.5,0.1,7,0.4,10.4,0.8
	c6.6,0.8,22.6,4.9,29.8,25.4c2.3,6.5,3.4,14,3.2,21.7c5-2.1,9.8-4,14.9-5.8c3.8-1.4,8-2.1,12.2-2.1c9.5,0,29.5,4.7,37.2,22.4
	c4.3-4.9,11.5-12.4,22.4-15.8c3.4-1.1,7-1.6,10.7-1.6c11.8,0,24.6,5.8,32.5,14.8c13.1,14.9,9,35.6,3.1,45.9c-3,5.2-6.1,9.5-9.1,13.7
	c-2.9,4.1-5.6,7.9-7.1,11c-3.6,7.5-6.9,15.9-10.1,24c-3,7.6-6.1,15.4-9.6,23.2c-14.9,32.9-30.4,65.9-45.5,97.8l-0.2,0.4
	c-3.2,6.7-7.8,11.3-10.3,13.7c-0.5,0.5-1.1,1.1-1.4,1.4l-20.2,22.7L933.2,381c-2.9-2.6-5.6-5-8.4-7.4c-11.6-10.1-16.8-22.8-15-36.6
	c1.3-10.2,6.1-17.7,8.4-21.3c1.3-2,2.5-4,3.8-6.1l-0.6-0.1c-6.4-1.1-12.9-2.2-19.6-3.6c-108.3-22.3-121.4-23-223.6-28.4l-13.4-0.7
	c-0.4,0-0.8,0-1.3,0c-0.7,0-1.4,0-2.1,0l-0.6,0c-1.5,0-3.2,0.1-5.3,0.1c-1.1,0-2.2,0-3.4,0c-9,28.3-12.9,41.8-16.2,61.9
	c-0.2,1.3-0.7,4.5-1.1,8.6c-0.3,2.9-0.4,5.9-0.5,8.9l-0.7,50.2L589.3,382.5z M874,220.7c13.2,3.1,26.7,6.5,40.8,10.4
	c-0.8-3.3-1.3-6.7-1.5-10.1c-1.3,0.2-2.5,0.3-3.8,0.5c-2.4,0.3-4.8,0.4-7.1,0.4c-7.4,0-14.5-1.6-20.7-4.6
	C879.3,218.4,876.8,219.6,874,220.7z"/>
<path fill="#0042E7" d="M592,377.7c-29.2-15.7-42.9-39.5-36.5-63.6l1.6-6.1c2.7-10.2,5.2-19.9,8.4-30.3c0.2-0.7,0.4-1.4,0.7-2.2
	c-8.3,0.4-16.6,0.8-24.8,1c-57.2,2.9-97.5,7.4-107,9c-1.9,16.2-8.4,29.1-19.7,39.5c-8.1,7.4-19.5,11.5-32,11.5
	c-16.3,0-36.4-7.8-44.6-25.2c-0.5-1.1-1-2.2-1.3-3.4c-40,8.9-77.7,21.9-121.5,38.6l-23.5,8.9l-29.6-79l23.4-8.8
	c5-1.9,10-3.7,14.8-5.4c19.2-6.7,43.1-13.9,69.6-21c-2.8-3.2-5.2-6.9-7-10.9c-5.2,4.2-11,8.5-18.1,11.9c-5.9,2.8-12,3.4-16,3.4
	c-3.9,0-17.3-0.7-27-9.7c-11.5-10.7-13.9-28.4-10.5-40.4c0.3-0.9,0.5-1.8,0.8-2.7c-3.9,1.7-8.7,3.1-14,3.1c-5.6,0-10.7-1.5-15.2-4.5
	c-3.2-2.1-6.9-5.4-10.2-9.6c-6.6,13.6-13.2,27.5-18.5,41.2c-6.5,17-11,35.8-15,53.6c-3.6,16.3-6.5,32.9-9.6,50.5l-0.1,0.4
	c-1.4,7.8-2.8,15.8-4.3,24.2l-8,43.3l-33.1-29c-2.3-2-4.7-4-7.3-6.2l-0.1-0.1c-7.8-6.5-15.9-13.2-23.3-21.8
	c-9.9-11.5-10.3-29-7.7-40.5c4.2-18.3,9.7-36.4,15-53.2c2.4-7.6,5.2-14.6,8-21.3c1.5-3.6,3-7.3,4.3-10.8
	c10.1-27.1,23.5-55.2,39.7-83.4c5.9-10.3,12.8-21.2,21.2-33.5c1.3-1.9,2.5-3.7,3.8-5.6l0.3-0.4c8.6-12.6,17.4-25.6,27.4-38
	c8.4-10.3,19.6-16,31.7-16c12.9,0,24.5,6.3,32.7,17.8c4.4,6.2,8,13.4,10.6,21.5c10.8-6.1,22.7-9.1,35.5-9.1c3.8,0,7.8,0.3,11.7,0.8
	c11.9,1.7,22,8.7,27.8,19.3c5.9,10.8,6.4,24.1,1.2,35.6c-0.5,1-0.9,2.1-1.4,3.1c13.6-5.5,27.3-8.2,41.5-8.2c2.6,0,5.3,0.1,8,0.3
	c8.8,0.6,15.4,4.5,19.4,6.9c0.6,0.3,1.5,0.9,1.8,1.1l14.4,6.9l-0.1,7.5c7.3-5.2,15-9.5,23.3-13c7.9-3.3,15.1-4.9,22-4.9
	c13.5,0,29,6.8,36,25.1c1.5-1.5,3.1-3,4.6-4.5c20.7-20.4,42.4-30.2,66.4-30.2c1.9,0,3.9,0.1,5.9,0.2c4,0.3,11,1.1,17.9,3.7
	c0,0,0-0.1,0-0.1c3.9-10.2,11.8-17.8,23.3-22.6c12.3-5.1,24.9-11.7,37-18.2l0,0c0.9-0.5,2.4-1.3,5.5-2.9
	c12.2-6.4,21.3-10.1,32.1-10.1c7.5,0,14.6,1.9,21.7,5.9c11.8-7.8,25.6-11.6,41.9-11.6c3.1,0,6.3,0.1,9.5,0.4
	c20.1,1.8,35,13.6,40.4,31.2c9-16.2,20.2-30.2,34-42.4c14.5-12.9,30.6-18.9,50.7-18.9c3.5,0,7.1,0.2,11,0.6
	c11.7,1.2,21.4,8.3,27.4,20.2c6,12,8.3,31.9-0.9,47.2c-0.6,1-1.2,2-1.8,3c1.8-0.1,3.6-0.1,5.4-0.1c4.6,0,9.2,0.3,13.6,0.8
	c5.5,0.7,19.1,4.1,25.3,21.8c3,8.5,3.7,18.8,2.1,28.5c7.4-3.1,15.1-6.4,23-9.2c3.2-1.2,6.7-1.8,10.4-1.8c8.3,0,25.8,4.1,32.3,19.4
	c1.1,2.7,2,5.6,2.6,8.7c1.4-1.7,2.8-3.3,4.3-5c0.4-0.4,0.7-0.8,1.1-1.3c3.9-4.6,10.5-12.3,21-15.5c2.9-0.9,5.9-1.4,9-1.4
	c10.3,0,21.4,5.1,28.4,13c11.2,12.7,7.6,30.6,2.4,39.5c-2.8,4.9-5.9,9.2-8.8,13.3c-3,4.3-5.9,8.3-7.5,11.8
	c-3.7,7.7-7,16.2-10.3,24.4c-3,7.5-6,15.3-9.5,23c-14.9,32.8-30.4,65.8-45.4,97.7l-0.2,0.4c-2.8,5.8-6.8,9.8-9.2,12.2
	c-0.6,0.6-1.2,1.2-1.6,1.6L959.6,397l-22.8-20.1c-2.9-2.6-5.7-5-8.5-7.5c-10.2-8.8-14.7-19.8-13.2-31.8c1.2-9,5.5-15.8,7.6-19.1
	c2.6-4.1,5.2-8.4,8-13.1c-2.6-0.5-5.1-0.9-7.7-1.3l-0.9-0.1c-6.4-1.1-12.9-2.2-19.4-3.5c-108.7-22.3-121.9-23-224.4-28.5l-13.4-0.7
	c-0.5,0-1,0-1.6,0c-0.8,0-1.5,0-2.3,0l-0.5,0c-1.5,0-3.2,0.1-5.2,0.1c-2.3,0-4.8-0.1-7.4-0.2c-9.5,29.9-14,44.8-17.7,66.6
	c-0.2,1.4-0.8,4.6-1.2,9c-0.3,3.1-0.5,6.2-0.5,9.3l-0.6,41.1L592,377.7z M954.3,263.6c0-0.1,0.1-0.2,0.1-0.3c-0.1,0-0.2,0-0.4-0.1
	C954.1,263.4,954.2,263.5,954.3,263.6z M851.5,221.4c20.3,4.3,41.1,9.4,63.1,15.4c3.2,0.9,6.1,1.9,8.9,3c-0.6-1.3-1.1-2.6-1.6-3.9
	c-2.3-6.4-3.4-13.7-3.4-21.1c-3.3,0.4-6.5,0.8-9.8,1.2c-2.2,0.3-4.3,0.4-6.4,0.4c-7.6,0-14.6-1.8-20.7-5.3
	c-6.7,3.5-14.1,6.8-22.5,8.8C856.5,220.6,853.9,221,851.5,221.4z M810.8,213.7c5,0.8,10.1,1.7,15.1,2.6c-2.8-1.8-5.3-4.1-7.5-6.7
	C816.1,211,813.5,212.3,810.8,213.7z M702.8,201.8c10.5,0.7,21.2,1.5,31.9,2.5c-1.2-2.8-2-5.9-2.6-9.2c-7.2,1.9-14.7,3.8-22.4,5.4
	C707.4,201,705.1,201.4,702.8,201.8z M597.1,169.5c2,11.4,0.3,21.9-4.8,31c1-0.1,2-0.2,3-0.3l3.2-7.2c4.8-10.7,9.6-21.5,14.6-32.6
	c-0.4,0.2-0.9,0.5-1.3,0.7c-5.1,2.6-10.2,4.3-15.3,5L597.1,169.5z"/>
<path fill="#3399FF" d="M940.5,372.8c-2.9-2.6-5.7-5-8.5-7.5c-8.7-7.6-12.6-16.9-11.3-26.9c1-7.8,4.9-13.9,6.7-16.9
	c3.8-6.1,7.7-12.5,12.1-20l-7.2-1.3c-2.8-0.5-5.7-1-8.6-1.5l-0.6-0.1c-6.3-1.1-12.7-2.2-19.2-3.5c-109.1-22.4-122.3-23.1-225.2-28.6
	l-13.4-0.7c-0.6,0-1.2,0-1.9,0c-0.9,0-1.7,0-2.7,0l-0.3,0c-1.5,0-3.1,0.1-5.1,0.1c-3.5,0-7.2-0.1-11.3-0.4c-0.1,0.3-0.2,0.5-0.3,0.8
	c-10.3,32.4-15.1,47.6-18.9,70.6c-0.2,1.5-0.8,4.9-1.2,9.4c-0.3,3.2-0.5,6.5-0.5,9.7l-0.5,32.1l-28.3-15.2
	c-26.8-14.4-39.5-35.9-33.8-57.4l1.6-6.1c2.7-10.2,5.2-19.8,8.3-30.1c0.7-2.4,1.7-5.6,3-9.7c-10.6,0.5-21.6,1.1-32.6,1.4
	c-61.5,3.1-103.9,8.1-109.7,9.4c-0.7,0.2-1.5,0.4-2.2,0.6c-1.1,16.6-7.1,29.7-18.3,39.9c-7.1,6.5-17.1,10.1-28.3,10.1
	c-14.5,0-32.5-6.8-39.7-22.1c-1.1-2.4-1.8-4.9-2.1-7.5c-42.2,8.9-81.7,22.5-127.6,39.9l-18.3,7l-25.8-68.6l18.2-6.9
	c4.9-1.9,9.9-3.6,14.7-5.3c21.4-7.4,49.1-15.7,79-23.5c-5.9-4.1-10.6-9.7-13.6-16.7c-0.9-2.1-1.6-4.1-2.2-6.3
	c-6.8,5.9-13.9,11.9-23,16.2c-5,2.4-10.2,2.9-13.7,2.9c-3.4,0-15-0.6-23.2-8.3c-9.7-9.1-11.9-24.7-8.9-34.9
	c1.6-5.5,3.3-11.1,5.3-17.3c-1.2,1-2.5,2-3.8,3.1c-4.6,3.7-12.2,7.6-20,7.6c-4.5,0-8.6-1.2-12.1-3.6c-4.4-2.9-10.6-8.9-13.7-16.6
	c-0.8,1.6-2.5,5.1-2.5,5.1c-7.3,14.9-14.8,30.4-20.6,45.7c-6.6,17.4-11.2,36.4-15.2,54.4c-3.6,16.4-6.6,33-9.7,50.7l0,0.2
	c-1.4,7.8-2.8,15.9-4.3,24.3l-6.2,33.8l-25.8-22.6c-2.3-2-4.8-4.1-7.4-6.3l-0.1-0.1c-7.6-6.3-15.5-12.9-22.7-21.2
	c-8.6-9.9-8.9-25.4-6.5-35.6c4.2-18.2,9.6-36.1,14.8-52.8c2.3-7.4,5.1-14.2,7.8-20.9c1.5-3.6,3-7.4,4.3-10.9
	c10-26.8,23.3-54.6,39.3-82.6c5.8-10.2,12.7-21,21-33.1c1.3-1.9,2.5-3.7,3.8-5.6l0.3-0.4c8.5-12.5,17.3-25.4,27.2-37.6
	c7.3-9,17-14,27.5-14c11.1,0,21.1,5.5,28.2,15.5c6.3,8.8,9.9,18.7,11.9,26.8c11.5-8.1,24.5-12.2,38.7-12.2c3.6,0,7.2,0.3,10.9,0.8
	C276.9,73,285.5,79,290.5,88c5.1,9.3,5.5,20.8,1,30.6c-2.4,5.2-4.8,10.4-7.2,15.7l-0.5,1.2c17.3-9.5,34.7-14.1,52.8-14.1
	c2.5,0,5.1,0.1,7.6,0.3c7.5,0.5,13.2,3.9,16.9,6.1c0.9,0.5,1.8,1.1,2.3,1.3l11.3,5.4l-0.2,15.5c9.6-8.3,19.8-14.7,31-19.3
	c7.2-3,13.7-4.5,19.9-4.5c13.8,0,29.3,8.1,33.2,30.3c3.9-4,7.6-7.8,11.2-11.3c19.6-19.3,40-28.7,62.5-28.7c1.8,0,3.7,0.1,5.5,0.2
	c4.5,0.3,14,1.5,21.9,5.8c0.3-1.9,0.9-3.9,1.6-5.7c3.4-8.8,10.2-15.3,20.3-19.4c12.6-5.2,25.3-11.9,37.5-18.4c0,0,3.7-2,5.5-2.9
	c11.4-6,19.9-9.5,29.5-9.5c7.5,0,14.7,2.3,21.9,7c11.5-8.5,25.2-12.6,41.6-12.6c2.9,0,5.9,0.1,9,0.4c21.5,1.9,36.2,16.8,37.5,38
	c0.1,2.3,0.2,4.5,0.2,6.6c9.8-22.8,23.2-41.6,40.8-57.2c13.4-12,28.4-17.5,47-17.5c3.3,0,6.7,0.2,10.4,0.5c9.8,1,17.9,7.1,23,17.2
	c5.4,10.7,7.4,28.4-0.7,41.9c-2.6,4.3-5.4,8.5-8.2,12.5c5.4-0.8,10.9-1.3,16.5-1.3c4.3,0,8.7,0.3,13,0.8c4.5,0.5,15.6,3.4,20.7,18.1
	c3.5,10.1,3.6,24.5-0.8,36.1c3-1.3,6.1-2.6,9.1-3.8c7.7-3.3,15.7-6.7,23.9-9.6c2.6-1,5.5-1.4,8.5-1.4c7.1,0,21.9,3.4,27.2,16
	c2.9,6.9,3.4,14.7,2.6,21.3c0.9-1.1,1.8-2.2,2.7-3.3c3.4-4.2,7-8.5,10.7-12.7c0.4-0.4,0.8-0.9,1.1-1.3c3.8-4.4,9.5-11.1,18.5-13.9
	c2.3-0.7,4.8-1.1,7.4-1.1c8.8,0,18.3,4.4,24.3,11.1c9.2,10.4,6,25.9,1.8,33.1c-2.7,4.7-5.7,8.9-8.5,12.9c-3.2,4.4-6.1,8.6-8,12.6
	c-3.8,7.8-7.2,16.4-10.4,24.7c-3,7.5-6,15.1-9.4,22.7c-14.8,32.8-30.4,65.7-45.4,97.6l-0.2,0.4c-2.3,5-5.8,8.4-8.1,10.6
	c-0.7,0.6-1.3,1.3-1.9,1.9l-12.9,14.5L940.5,372.8z M792.1,216.4c37,5.3,75.6,13.2,121.1,25.7c13.7,3.7,23.9,11.2,24.3,11.5l0.5,0.4
	c5.9,4.8,10.8,10.6,14.7,17.3l1.9,3.3c0.7-1.2,2.2-4,2.2-4c1.8-3.2,3.5-6.4,5.3-9.6c0.4-0.7,0.8-1.4,1.2-2.2
	c-5.3-0.3-11.3-1.2-17.3-3.7c-8.6-3.6-15.1-10.9-18.8-21.1c-2.7-7.6-3.7-16.8-2.7-25.5c-5.4,0.7-10.9,1.3-16.3,2
	c-2,0.2-3.9,0.4-5.8,0.4c-7.7,0-14.8-2.2-20.4-6.2c-7.3,3.9-15.2,7.7-24.1,9.9c-4.6,1.1-8.7,1.7-12.4,1.7c-11.2,0-20-4.9-25.3-13.8
	c-8.4,4.7-18,9.8-27.8,13.9C792.3,216.3,792.2,216.4,792.1,216.4z M665.8,205c28.1,1.6,54,3.3,79.5,5.8c-0.1-0.1-0.2-0.3-0.4-0.4
	c-5.9-6.6-7.7-14.6-8.1-22.3c-9.2,2.4-18.6,4.9-28.3,6.9c-12.7,2.7-25.2,4-37.9,5.3c-1,0.1-2,0.2-3.1,0.2L665.8,205z M591.7,170.4
	c2.5,14.5-1.4,26.9-11.5,36.7c6.2-0.6,12.5-1.2,18.8-1.8l4.5-10.1c6.8-15.2,13.7-30.7,20.9-46.6c-5.5,2.7-10.5,5.2-15.2,7.6
	c-6.2,3.2-12.5,4.8-18.5,4.8c-0.2,0-0.5,0-0.7,0L591.7,170.4z"/>
<path fill="#9999FF" d="M943.4,369.4c-2.9-2.6-5.7-5-8.5-7.5c-7.6-6.6-10.9-14.4-9.8-23c0.9-6.8,4.4-12.4,6.1-15
	c4.8-7.5,9.7-15.7,15.4-25.7l-13.5-2.4c-2.9-0.5-5.9-1-8.8-1.5l-0.3-0.1c-6.2-1.1-12.6-2.2-19-3.5
	c-109.4-22.5-122.7-23.2-225.8-28.7l-13.4-0.7c-0.7,0-1.4-0.1-2.1-0.1c-0.9,0-1.9,0-2.9,0l-0.2,0c-1.5,0-3.1,0.1-5,0.1
	c-3.4,0-7.1-0.1-11.2-0.4c-1-0.1-2-0.1-2.7-0.1c-0.2,0-0.3,0-0.4,0c-0.4,0.8-0.9,2-1.5,4c-10.4,32.6-15.2,48-19,71.3
	c-0.2,1.5-0.8,5-1.3,9.7c-0.3,3.3-0.5,6.7-0.5,10.1l-0.4,24.7l-21.7-11.7c-24.9-13.4-36.7-32.9-31.6-52.3l1.6-6.1
	c2.7-10.2,5.2-19.7,8.3-30c1-3.4,2.7-8.7,4.9-15.8l-4.5,0.2c-11.2,0.6-22.9,1.2-34.5,1.5c-61.9,3.2-104.7,8.2-110.6,9.5
	c-2.1,0.5-4.2,1.1-5.5,1.6c-0.5,16.9-6.1,30-17,40c-6.3,5.7-15.2,8.9-25.2,8.9c-13.1,0-29.2-6-35.6-19.5c-1.6-3.3-2.2-7.1-1.8-11.1
	c-44.5,8.9-85.7,23-133.6,41.2l-14.1,5.4l-22.6-60.2l14-5.3c4.9-1.8,9.8-3.6,14.6-5.3c24.1-8.4,56.8-17.9,90.9-26.6
	c-10.4-2.8-18.5-9.6-22.8-19.7c-1.8-4.2-2.9-8.7-3.1-13.1c-1.3,1.1-2.6,2.2-3.8,3.3l-1.8,1.6c-6.7,5.8-13.7,11.8-22.5,16
	c-4.2,2-8.7,2.4-11.7,2.4c-3,0-13.1-0.5-20.2-7.1c-8.1-7.5-10.3-21.3-7.7-30.3c3.2-11,6.7-21.8,10.2-32.1
	c-5.1,4.3-10.4,8.8-15.8,13.1c-3.8,3-10.6,6.6-17.2,6.6c-3.6,0-6.8-1-9.6-2.8c-5.5-3.7-14.5-12.8-13.5-23.9c0.2-2.1,0.4-4.3,0.7-6.5
	c-0.6,1.3-1.2,2.5-1.8,3.7c-2.6,5.6-5.3,11.1-8,16.5l-0.2,0.4c-7.3,15-14.9,30.6-20.8,46.1c-6.7,17.6-11.4,36.9-15.4,55
	c-3.6,16.5-6.6,33.2-9.7,50.9l0,0.2c-1.4,7.8-2.8,15.9-4.3,24.3l-4.8,26l-19.9-17.4c-2.4-2.1-4.9-4.1-7.5-6.3l-0.1-0.1
	c-7.5-6.2-15.2-12.6-22.2-20.7c-7-8.1-7.8-21.7-5.5-31.7c4.1-18,9.5-35.8,14.7-52.4c2.3-7.2,5-14,7.7-20.6c1.5-3.7,3-7.4,4.4-11.1
	c10-26.6,23.1-54.2,39-81.9c5.8-10.1,12.6-20.8,20.8-32.8c1.3-1.9,2.5-3.7,3.8-5.6l0.3-0.4c8.5-12.4,17.2-25.2,27-37.3
	c6.4-7.9,14.9-12.3,24-12.3c9.6,0,18.3,4.8,24.6,13.6c7.4,10.4,10.8,22.5,12.4,30.8c0.1,0.5,0.2,0.9,0.2,1.4
	c12-10.4,26-15.7,41.6-15.7c3.4,0,6.8,0.2,10.3,0.7c8.7,1.2,16.2,6.4,20.4,14.2c4.4,8.1,4.7,18,0.8,26.6c-2.4,5.2-4.8,10.4-7.2,15.7
	l-0.5,1c-2.1,4.5-4.1,9.1-6.2,13.7c20.7-14.3,41.4-21.2,63.1-21.2c2.4,0,4.9,0.1,7.3,0.3c6.4,0.4,11.3,3.4,14.9,5.5
	c1,0.6,2,1.2,2.6,1.5l8.7,4.1l-0.3,23.2c11.5-11.7,23.6-20,37.4-25.7c6.6-2.8,12.6-4.1,18.1-4.1c6.3,0,27,2.3,29.5,31.7
	c0.1,1.4,0.2,2.8,0.2,4.2c6.5-6.8,12.4-12.8,17.9-18.2c18.7-18.4,38.1-27.4,59.3-27.4c1.7,0,3.5,0.1,5.2,0.2
	c5.1,0.4,19.3,2.1,26.4,10.3c-0.6-4.5-0.1-8.9,1.6-13c2.9-7.6,8.9-13.3,17.8-16.9c12.8-5.3,25.6-12,37.9-18.6c0,0,3.7-2,5.5-2.9
	c10.8-5.7,18.7-9,27.4-9c9.6,0,17,4.4,22,8.1c11.2-9.2,24.8-13.7,41.5-13.7c2.8,0,5.7,0.1,8.6,0.4c19.1,1.7,32.2,15,33.4,33.8
	c0.6,9.9,0.1,18.3-1.7,26.5c3.4-2.9,5.7-6.1,7.3-10.3c9.8-25.9,23.8-46.7,42.9-63.7c12.6-11.2,26.5-16.4,44-16.4
	c3.2,0,6.4,0.2,10,0.5c8.2,0.8,15.1,6,19.4,14.7c4.8,9.6,6.7,25.5-0.5,37.5c-4.8,8-10.1,15.4-15.7,22c1.6-0.5,3.3-1,5-1.4
	c7.3-1.7,15-2.6,22.9-2.6c4.2,0,8.4,0.2,12.4,0.7c4.6,0.6,12.9,3.3,17,15.2c4.5,12.8,2.7,33.3-7.2,43.3c-0.1,0.1-0.1,0.1-0.2,0.2
	c0.3,0,0.5,0,0.6-0.1c7-2.6,14.1-5.6,21-8.5c7.7-3.3,15.6-6.6,23.7-9.6c2.1-0.8,4.5-1.2,7-1.2c7,0,19,3.5,23.1,13.3
	c3.6,8.5,3,18.7,1.1,25.4c-2,7.2-6.2,12.5-9.8,17.2l-0.9,1.1c0.3-0.3,0.7-0.6,1-0.9l1-0.9c7.3-6.6,14-14.8,20.5-22.8
	c3.4-4.1,6.9-8.4,10.6-12.6c0.4-0.4,0.8-0.9,1.2-1.4c3.7-4.3,8.7-10.1,16.4-12.5c1.9-0.6,3.9-0.9,6-0.9c7.4,0,15.8,3.9,20.9,9.6
	c7.3,8.2,5.1,21.3,1.3,27.9c-2.6,4.5-5.5,8.6-8.3,12.5c-3.3,4.6-6.3,8.9-8.4,13.2c-3.8,8-7.3,16.7-10.6,25c-2.9,7.4-5.9,15-9.3,22.5
	c-14.8,32.7-30.4,65.7-45.4,97.5l-0.2,0.4c-2,4.2-5,7.2-7.1,9.3c-0.7,0.7-1.4,1.4-2,2.1l-9.9,11.2L943.4,369.4z M659.2,209.2
	c89,5,155.3,10.5,252.8,37.2c12.9,3.5,22.4,10.5,22.8,10.8l0.3,0.3c5.5,4.4,10,9.8,13.6,16.1l5.9,10.3c2-3.6,4-7.2,5.9-10.7l0.2-0.3
	c1.8-3.2,3.5-6.4,5.3-9.6c1.4-2.6,2.9-5.5,4.5-8.7c-0.6,0-1.2,0-1.7,0c-5.9,0-13.6-0.4-21.1-3.5c-7.4-3.1-13-9.5-16.3-18.4
	c-3.1-8.7-3.7-19.7-1.5-29.2c-7.3,0.9-14.8,1.8-22.2,2.7c-1.8,0.2-3.5,0.3-5.2,0.3c-7.8,0-14.8-2.5-19.9-7
	c-7.2,3.9-15.9,8.4-25.6,10.8c-4.3,1.1-8,1.6-11.3,1.6c-11.1,0-19.3-5.5-23.3-15.6c-10.4,5.9-20.6,11.5-31.5,16
	c-5.4,2.2-12.7,3.6-19.4,3.6c-7.1,0-16.8-1.4-22.9-8.3c-6.3-7-7.1-16.1-7-25.1l-2.6,0.7c-10,2.7-20.4,5.5-31,7.7
	c-12.5,2.6-24.8,4-37.4,5.2c-0.9,0.1-1.9,0.1-2.9,0.1c-0.9,0-1.8,0-2.7-0.1L659.2,209.2z M355.9,228.6c-1.1,0-1.6,0.1-1.6,0.1
	c-3.5,1-7.2,2.9-11,5c7.4-1.6,14.3-3,20.4-4.1c-0.8-0.2-1.5-0.3-2.2-0.4C359.1,228.8,357.4,228.6,355.9,228.6z M462.7,219.8
	c3.9-0.2,7.9-0.5,12-0.7c-0.6-0.5-1.3-1.1-1.8-1.7c-1.3-1.4-2.5-2.9-3.5-4.6L462.7,219.8z M527.3,214.4c-0.8,0.5-1.6,1-2.5,1.5
	c1.3-0.1,2.6-0.2,3.8-0.3C528.2,215.2,527.7,214.8,527.3,214.4z M587.2,171.2c4.3,24.4-12.7,36.4-23,41.8c4-0.3,6.9-0.5,8.1-0.6
	c9.9-0.9,19.9-1.9,29.8-2.9l5.6-12.5c8.4-18.8,17.1-38.2,25.9-57.8c-10,4.7-18.7,9-26.4,13c-5.6,2.9-11.1,4.3-16.5,4.3
	c-2.1,0-4.2-0.2-6.2-0.7L587.2,171.2z M352.2,170.6c0.8,2.2,1.4,4.3,1.7,6.3c3-2.5,5.7-5.1,8.1-7.9c1.2-1.4,2.4-2.8,3.7-4.2
	l-7.5,1.7c-1.7,0.4-3.5,0.8-5.4,1.3c-0.5,0.1-1,0.3-1.5,0.4L352.2,170.6z M568.4,144c0.4,5.5-0.1,10.9-0.8,15.3l10.4-5.9
	C574.1,151.3,570.9,148.1,568.4,144z M705.5,125.8c-7.6,5.4-13.3,12.7-18.6,21.5C694.8,141.7,701,134.5,705.5,125.8z"/>
<path fill="#FFFFFF" d="M946.8,365.6c-2.9-2.6-5.7-5.1-8.6-7.5c-13.2-11.5-7.9-23.5-2.8-31.6c6.6-10.4,12.9-21.3,19-32.1l-20.5-3.7
	c-3.1-0.5-6.1-1.1-9.2-1.6c-6.2-1.1-12.5-2.1-18.9-3.4c-109.8-22.6-123.1-23.3-226.6-28.8l-13.4-0.7c-0.8,0-1.5-0.1-2.4-0.1
	c-1,0-2,0-3,0.1l-0.1,0c-1.5,0-3,0.1-4.9,0.1c-3.3,0-6.9-0.1-10.9-0.4c-1.1-0.1-2.1-0.1-3-0.1c-1.9,0-2.8,0.2-3,0.3
	c-0.4,0.1-1.7,1.1-3.7,7.3c-10.5,32.8-15.3,48.3-19.2,72c-0.3,1.6-0.9,5.2-1.3,10.1c-0.3,3.5-0.5,7-0.6,10.5l-0.2,16.5l-14.5-7.8
	c-22.7-12.2-33.6-29.6-29.1-46.6l1.6-6.1c2.6-10.1,5.1-19.6,8.2-29.8c1.6-5.4,4.6-14.8,7-22.6c-3.8,0.2-7.6,0.4-11.3,0.6l-0.4,0
	c-11.2,0.6-22.8,1.2-34.3,1.5c-62.2,3.2-105.6,8.3-111.5,9.7c-3.5,0.8-6.9,2-7.3,2.2c-0.7,0.2-1.4,0.5-2.1,0.8
	c0.2,17.1-4.9,30.1-15.4,39.8c-5.3,4.9-13.1,7.6-21.8,7.6c-11.6,0-25.6-5.1-31.1-16.6c-2.5-5.3-1.2-11.3,0.3-15.4
	c-47.4,8.8-91.2,23.6-142.1,43l-9.4,3.6l-19.1-50.8l9.4-3.5c4.8-1.8,9.7-3.6,14.5-5.2c59-20.5,156-43.6,182.7-45.3
	c0.2,0,1.4-0.3,3.1-0.8c-5.9-0.8-11.6-2.2-17.1-3.5c-3.8-0.9-7.8-1.9-11.6-2.6c-2.6-0.5-4.6-0.7-6.3-0.7c-1.2,0-2.3,0.1-3.1,0.4
	c-4.9,1.4-9.7,4.1-14.8,6.9c-9.6,5.3-19.4,10.7-32.7,10.7c-0.3,0-0.5,0-0.8,0c-13.1-0.2-23.5-6.8-28.4-18c-3-6.9-4.1-15.8-0.7-24
	c-4.7,4.2-9.3,8.3-14.1,12.3l-1.8,1.6c-6.5,5.6-13.2,11.3-21.4,15.2c-3.4,1.6-7.1,2-9.6,2c-2.5,0-11.1-0.4-16.8-5.7
	c-6.6-6.2-8.4-17.9-6.3-25.3c4.8-16.5,10.4-32.8,15.9-48.6l0.1-0.2c-4.1,3.4-8.1,6.8-12.1,10.1c-5.7,4.8-11.5,9.7-17.5,14.5
	c-3.4,2.7-9.1,5.5-14.1,5.5c-2.6,0-4.9-0.7-6.8-2c-4.6-3.1-12.1-10.6-11.3-19.3c0.9-10.7,3.1-21.2,5.2-31.3l0.1-0.3
	c-6.6,7.8-11.5,17.1-15.8,26.2c-2.6,5.6-5.4,11.2-8,16.6l-0.1,0.2c-7.4,15.1-15,30.8-21,46.5c-6.9,17.9-11.6,37.4-15.6,55.7
	c-3.7,16.6-6.6,33.4-9.7,51.1c-1.4,7.9-2.8,16-4.4,24.4l-3.2,17.3L74,354.5c-2.4-2.1-5-4.3-7.7-6.5c-7.4-6.1-14.9-12.4-21.6-20.1
	c-5.8-6.8-6.4-18.6-4.4-27.3c4.1-17.8,9.5-35.6,14.6-52.1c2.2-7,4.9-13.7,7.6-20.2c1.5-3.7,3.1-7.5,4.4-11.2
	c9.9-26.4,22.9-53.7,38.7-81.2c5.7-9.9,12.4-20.6,20.6-32.5c1.3-1.9,2.5-3.7,3.8-5.6l0.3-0.4c8.4-12.3,17.1-25.1,26.7-37
	c5.5-6.7,12.6-10.5,20.1-10.5c7.9,0,15.2,4.1,20.5,11.5c6.9,9.7,10.1,21,11.5,28.8c0.7,3.9,1,7.9,1,11.7
	c12.6-14.5,28-21.8,45.7-21.8c3.1,0,6.4,0.2,9.6,0.7c7.1,1,13.2,5.2,16.7,11.6c3.7,6.7,3.9,15,0.7,22.1c-2.4,5.3-4.8,10.6-7.3,15.9
	c-4.9,10.7-9.9,21.7-14.9,32.8c20.7-17.6,44.5-32.5,76-32.5c2.3,0,4.7,0.1,7,0.2c5.2,0.4,9.4,2.8,12.7,4.8c1.1,0.7,2.2,1.3,3,1.7
	l5.8,2.8l-0.2,19.5l-7.7,1.7c-1.8,0.4-3.6,0.9-5.6,1.4c-4.5,1.2-9.2,2.4-14.2,2.9h7.7l2.4,6.5c2.1,5.4,2.3,10.3,0.8,14.6
	c7.2-4.4,12.8-9.2,17.5-14.7c13.3-15.7,27.1-26.2,43.3-32.9c6-2.5,11.3-3.7,16.2-3.7c6.7,0,22.4,2.6,24.5,27.2
	c0.5,5.9,0.1,11.7-1.1,17.6c8.5-9,18-19,27.7-28.5c17.7-17.4,36-25.9,55.8-25.9c1.6,0,3.2,0.1,4.9,0.2c3.9,0.3,23.7,2.3,25.8,14.3
	c1.7,10.1-0.5,20.3-2.5,28.6l19.4-11l2.4,14c3.9,22.5-12.4,32.9-25,38.8c-6.3,2.9-10.8,4.6-15.3,4.6c-5.6,0-10.2-2.6-13.6-7.7
	c-6.5,4.1-13.2,8.1-20.8,10.7c-3.5,1.2-7.7,1.8-12,1.8c-4.8,0-13.7-0.8-19.2-6.5c-3.1-3.1-4.4-7-5-10.4l-21.2,22.1
	c24-1.4,57.4-3.5,83.5-5.3c17.1-1.2,35.5-2.6,39-2.8c10.9-1,21.9-2.1,32.8-3.2l6.8-15.2c9.9-22.2,20.1-45.1,30.4-67.8
	c0.4-0.8,0.8-1.6,1.2-2.4c-12.8,5.9-26.1,12.2-38.9,18.9c-4.9,2.5-9.6,3.8-14.2,3.8c-8.5,0-15.6-4.5-19.3-12.4
	c-3.1-6.5-3.5-13-1.2-18.9c2.4-6.2,7.5-11,15-14.1c13-5.4,25.9-12.2,38.4-18.8c1.8-1,3.6-1.9,5.5-2.9c10.1-5.3,17.4-8.4,25.1-8.4
	c9.1,0,16.3,4.7,22.2,9.6c10.8-10.2,24.4-15.2,41.3-15.2c2.6,0,5.4,0.1,8.2,0.4c16.5,1.5,27.9,12.9,28.8,29.1
	c0.9,15.6-1.2,26.2-5,37c9.5-4.5,16.5-9.3,20.3-19.3c9.5-25.1,23.1-45.3,41.5-61.7C823,45.5,836,40.7,852.1,40.7
	c3,0,6.1,0.2,9.5,0.5c6.4,0.6,11.9,4.9,15.4,12c4.2,8.5,5.9,22.3-0.3,32.7c-13.3,21.9-29.3,38.2-49,49.8
	c-10.6,6.2-20.5,13.3-31.5,21.2c-2.2,1.6-3.9,4.8-4.7,8.9c8-4.6,15.6-8.9,23.6-13c7.2-3.6,13.4-9.5,19.9-15.7
	c10.1-9.6,20.6-19.5,36.4-23.2c6.9-1.6,14.2-2.5,21.7-2.5c4,0,8,0.2,11.9,0.7c3.4,0.4,9.6,2.5,12.9,11.8c3.9,11.2,2.4,29.6-6,38.1
	c-2,2.1-3.1,4.6-2.8,6.4c0.1,0.6,0.4,1.1,1.3,1.4c1.2,0.5,3,0.8,4.6,0.8c1,0,1.9-0.1,2.5-0.3c7.1-2.6,14.3-5.7,21.3-8.6
	c7.6-3.2,15.4-6.6,23.4-9.4c1.6-0.6,3.4-0.9,5.3-0.9c5.5,0,15.3,2.8,18.5,10.2c3.1,7.4,2.5,16.3,0.9,22.1
	c-1.7,6.2-5.5,11.1-8.9,15.4l-0.9,1.1c-4.7,6-3.1,7.4-0.4,9.8c1.2,1,1.7,1.1,1.7,1.1c1.6,0,5.6-3.7,7.1-5l1-0.9
	c7.5-6.8,14.4-15.2,21-23.3c3.4-4.1,6.9-8.4,10.5-12.5c0.4-0.5,0.8-0.9,1.2-1.4c3.4-4,7.7-9,14.1-11c1.4-0.4,3-0.7,4.6-0.7
	c6,0,13,3.3,17.1,7.9c5.6,6.3,3.7,16.9,0.7,22.1c-2.5,4.3-5.3,8.3-8,12.1c-3.4,4.8-6.6,9.3-8.8,14c-3.9,8.2-7.4,16.9-10.7,25.4
	c-2.9,7.3-5.9,14.9-9.2,22.2c-14.8,32.7-30.3,65.6-45.3,97.5l-0.2,0.4c-1.6,3.4-4.1,5.9-6.1,7.9c-0.8,0.8-1.6,1.5-2.3,2.3l-6.6,7.5
	L946.8,365.6z M651.9,213.8c95.3,5.3,160.9,10.6,258.7,37.5c12,3.3,20.8,9.7,21.2,10l0.3,0.2c4.9,4,9.1,8.9,12.3,14.6l10.3,18
	c3.5-6.2,6.9-12.5,10.3-18.6l0.1-0.1c1.8-3.2,3.5-6.4,5.3-9.5c2.9-5.3,5.6-10.9,8-16.4c-0.7,0-2.4,0.1-2.4,0.1
	c-2.2,0.1-4.8,0.2-7.3,0.2c-5.4,0-12.5-0.4-19.1-3.2c-6.1-2.5-10.8-7.9-13.5-15.5c-3.7-10.4-3.3-23.8,1-33.4c-9.9,1.2-20,2.5-30,3.7
	c-1.6,0.2-3.1,0.3-4.6,0.3c-8,0-14.7-2.9-19-8.2l-1.1,0.6c-8.4,4.5-17,9.2-26.7,11.6c-3.9,1-7.2,1.4-10.1,1.4
	c-7.8,0-17.4-3.2-20.3-18.1l-0.9,0.5c-11.4,6.5-23.1,13.2-35.5,18.3c-4.8,2-11.4,3.2-17.5,3.2c-6,0-14.3-1.1-19.2-6.6
	c-6.2-6.9-5.9-16.8-5.7-25.6c0-0.9,0.1-1.8,0.1-2.7c-3,0.8-5.9,1.6-8.8,2.3l-0.2,0.1c-10,2.7-20.3,5.4-30.7,7.6
	c-12.2,2.6-24.4,3.9-36.9,5.2c-0.8,0.1-1.6,0.1-2.4,0.1c-2.1,0-4.1-0.3-5.9-0.6L651.9,213.8z M713.7,116.5c-1.6,0-2.8,0.3-3.1,0.5
	c-17.1,8.3-26.2,23-36.1,42.8c18.9-7.8,32-21.1,39.1-39.8c0.3-0.9,0.5-2.3,0.6-3.5C714,116.5,713.9,116.5,713.7,116.5z"/>
<path d="M605.8,333.6c-0.3,1.8-0.9,5.7-1.4,10.8c-0.4,4.5-0.6,8.3-0.6,11.2c-17.8-9.6-27.5-22.8-24.2-35.3
	c3.2-12.1,6.1-23.5,9.7-35.5c3.2-10.6,11.2-36.1,11.2-36.1c-20,0.8-40,2.1-60.1,2.8c-61.9,3.2-106.8,8.4-113.5,9.9
	c-4.4,1-8.4,2.5-8.4,2.5c-3.7,1.3-6.7,2.8-8.9,4c1.1,14.1-0.3,28.1-11.9,38.7c-9.5,8.7-31.7,5.5-37.1-6c-1.3-2.7,0.3-7.7,2.2-10.7
	c2.6-4.3,6.6-7.7,12.4-14.3c-60.5,8.3-114.8,26.9-168.9,47.5c-4.4-11.6-7.8-20.8-12-32.1c6.4-2.4,11.4-4.2,14.2-5.2
	c59.8-20.8,154.6-43.2,180-44.7c1.4-0.1,5.8-1,10-3c6.8-4.2,9.9-12.2,11.3-19.7c-0.7-0.9-1.3-1.8-2-2.6c-4.6,1.7-9.3,5.4-13.6,4.9
	c-10.2-1.1-20.1-4.5-30.2-6.3c-4.6-0.8-9.7-1.4-14-0.1c-15.4,4.6-27.4,17.5-45.3,17.2c-9.9-0.2-16.4-5.2-19.4-12
	c-3.2-7.5-3-17,4.9-23.5c2.5-2.1,4.7-4.4,6.5-6.1c-1.3-5.7-2.5-11.1-4.3-19.1c-13.1,11.7-25.2,22.8-37.6,33.4
	c-6.6,5.6-13.3,11.7-21,15.4c-4.1,1.9-12.1,0.9-15.2-2.1c-3.2-3-4.8-10.6-3.5-15.2c5.7-19.7,12.6-39,19.3-58.4
	c1.2-3.5,3.3-6.7,4.9-10c-0.7-1.1-1.4-2.2-2.1-3.3c-4.4,1.6-9.5,2.2-12.9,5c-13.1,10.3-25.6,21.5-38.6,31.9c-2.4,2-7.4,4.1-9.1,3
	c-3.2-2.2-7.2-6.8-6.9-10.1c1-11.5,3.5-22.9,5.8-34.3c1.2-6,3.2-11.9,4.8-17.8c-1.1-0.7-2.2-1.4-3.4-2.2c-2.5,1.3-5.1,2.4-7.3,4
	c-14.1,10.1-22.3,24.6-29.5,39.8c-10,21.2-21,42.2-29.4,64.1c-7,18.4-11.8,37.8-16,57.2c-5.4,24.3-9.2,48.9-14.2,75.9
	c-9-7.9-19.8-15.8-28.3-25.6c-3.4-4-3.6-12.7-2.3-18.5c4-17.3,9.1-34.4,14.4-51.3c3.3-10.5,8-20.6,11.8-30.9
	c10.2-27.3,23.2-54,38-79.7c6.2-10.8,13.1-21.5,20.2-31.8c9.8-14.3,19.4-28.8,30.3-42.3c7.4-9.2,17.8-9,24.6,0.6
	c5.1,7.1,8.2,16.2,9.9,24.9c1.7,8.9,0.4,18.3,0.5,27.4c0,1.2,0.5,2.4,1.5,6.6c5.7-6,10.6-10.6,14.8-15.8
	c12.5-15.3,28.1-22.5,48-19.7c8.8,1.2,13.7,11,9.7,19.7c-11.1,24.3-22.3,48.6-33,73c-1.3,2.9-0.2,6.9-0.2,11.8
	c30.1-28,58-57.3,102.4-54.3c4.2,0.3,8.1,3.6,12.1,5.6c0,1.7,0,3.5-0.1,5.2c-6.4,1.4-12.7,3.6-19.2,4.1
	c-10.6,0.9-19.3,8.5-20.4,19.9c3.8,0,7.5,0,11.2,0c3.7,0,7.4,0,11.5,0c3.4,9.1-1.4,12-8.4,15.5c-8.6,4.4-16.1,10.8-23.8,16.8
	c-0.9,0.7-0.8,4.5,0.2,5.6c1,1.1,4.1,1.6,5.6,0.9c22-9.5,45.4-16.8,61.7-36c10.9-12.9,23.3-23.4,39.5-30.1c16.3-6.8,25.4-2,26.9,15
	c1.4,16.4-5.3,29.6-12.5,43.1c-1.1,2.1-1.5,4.6-2.2,6.9c1.2,0.9,2.4,1.8,3.7,2.7c18.2-19.2,35.9-38.8,54.7-57.3
	c14.4-14.2,31.6-24.4,53-22.9c5.9,0.4,16.1,3.1,16.6,6c1.4,8.2-0.6,17.2-2.6,25.6c-1.6,6.8-5.1,13.2-7.7,19.8
	c1.1,0.4,2.1,0.9,3.2,1.3c8.6-4.9,17.2-9.7,26.5-15c2.2,12.8-4.1,20.9-19.4,28c-13.3,6.2-15.5,5.3-20.3-8.4
	c-9.4,5.4-18.3,12.2-28.4,15.7c-6.3,2.1-16.9,1.8-20.9-2.2c-3.9-4-2.2-13.8-2.3-21.1c0-2.3,2-4.5,1.1-8.1
	c-18.9,19.7-37.9,39.5-56.8,59.2c13.7-0.6,66.9-3.8,108.9-6.6c18.7-1.3,39.1-2.9,39.1-2.9c14.9-1.4,27.9-2.7,38.7-3.8
	c12.8-28.7,26.1-58.5,39.5-88.2c1.8-3.9,4.9-7.3,6.2-11.3c0.7-2-0.4-5.6-2-7.2c-1.4-1.4-5-2.2-6.8-1.4
	c-16.4,7.5-32.8,15.1-48.8,23.4c-8.3,4.3-16.2,3.7-19.9-4c-3.6-7.6-1.8-15.2,8.5-19.4c15.3-6.3,30-14.3,44.7-22.1
	c20.5-10.8,26-10.2,43.5,6.5c12-16,28.5-20.8,47.8-19c11.6,1,19,8.2,19.7,19.7c1.4,22.9-4.2,33.2-14.5,56.8
	c19.2-11.2,40.6-13.6,49.1-36.2c8.3-22.1,20.6-41.6,38.8-57.8c13.1-11.6,27-13.7,42.6-12.1c8.5,0.8,13.6,19.4,7.5,29.5
	c-11.4,18.9-26,34.9-45.5,46.3c-11.2,6.6-21.8,14.1-32.3,21.7c-7.9,5.7-11.5,19.1-8.5,34c13.2-7.4,25.2-14.7,37.8-21
	c20-10.1,31.2-32.7,54.1-38.1c9.7-2.3,20.2-2.7,30.1-1.6c7.5,0.9,8.4,25.4,1,33c-8.3,8.5-7.4,20.2,1.7,24.1
	c4.2,1.8,10.2,2.3,14.5,0.7c15.1-5.5,29.6-12.6,44.7-18.1c3-1.1,10.1,1.3,11.1,3.9c1.9,4.5,1.8,10.7,0.5,15.6
	c-1.3,4.7-4.9,8.9-8,12.9c-6.4,8.2-7.5,16.1,0.8,23.5c9.6,8.5,17.9-0.3,23.1-5c12-10.8,21.5-24.3,32.3-36.6
	c3.2-3.6,6.6-8.1,10.7-9.4c3.1-1,8.8,1.5,11.2,4.3c1.7,1.9,1.2,7.7-0.5,10.5c-5.3,9.2-12.7,17.3-17.2,26.8
	c-7.5,15.6-12.9,32.1-20,47.8c-14.8,32.7-30.1,65.2-45.5,97.7c-1.3,2.8-4.1,4.8-6.8,7.9c-4.4-3.9-8.5-7.6-12.7-11.2
	c-6.8-6-5.7-11-0.9-18.7c12.6-19.9,23.8-40.8,35.2-61.4c4.4-7.9,8.1-16.3,11.7-24.6c1.1-2.5,1.1-5.5,1.6-8.3c-2.5,0.6-5,1.7-7.5,1.7
	c-10.6-0.3-22.3,1.8-31.4-2.1c-10.4-4.4-12.6-25.7-6.6-36.9c2.7-5.1,5-10.5,7.1-15c-16.3,2-32.2,4-48.1,5.9
	c-10,1.2-16.6-2.5-17.4-11.9c-11.9,5.7-23,13.3-35.2,16.3c-14.4,3.6-18.2-1.2-18.9-15.8c-0.1-2.1-0.5-4.1-0.9-7.2
	c-16.5,8.9-31.8,18.8-48.5,25.7c-7.6,3.1-21.4,3.7-25.5-0.9c-4.9-5.5-2.6-17.5-3.1-26.8c-0.1-2.5,1-5,1.5-7.5
	c-2.8,0.5-5.6,0.9-8.4,1.6c-15,3.8-29.8,8.2-44.9,11.3c-11.8,2.5-23.8,3.8-35.8,5c-4,0.4-8.3-1.1-13.4-1.9
	c-5.2,12.6-12,29.2-17.6,42.8c0.3,0.1,1.2,0.6,2.4,1.2c104.8,5.7,167.7,10.3,267.9,37.7c10.4,2.8,17.9,8.4,17.9,8.4
	c4.6,3.8,7.7,8,9.8,11.7c-9.3-1.7-18.6-3.1-27.8-5c-115.1-23.7-124.5-23.4-241.5-29.7c-5.6-0.3-8.8,0.5-21.2-0.3
	c-5.5-0.3-8.3,0-10.2,0.8c-5.9,2.3-8.3,9.5-9.6,13.6C615.1,292.3,609.9,308.8,605.8,333.6z M657.6,171.4c8.7-0.7,14.5,0.2,19.2-1.7
	c21.9-8.6,37.7-24,46.1-46.1c1.7-4.5,1.9-13.2-0.6-14.9c-3.8-2.6-11.6-2.8-16.1-0.7C680.6,120.5,670.7,145.3,657.6,171.4z
	 M795.4,124.3c20.4-1.4,49.8-34.4,46.5-54.8C815.2,79.3,808.7,104.3,795.4,124.3z M858.7,177.3c14.9-14.6,29.7-29.2,45.8-44.9
	C878.3,131.2,854.7,151.4,858.7,177.3z M502.6,193.5c16-15.7,30.9-30.3,46.7-45.9C523.6,144.7,495.2,171.5,502.6,193.5z M432.5,158
	c-37.2,20.7-44.4,28-40.8,41.8C409.8,196.6,434.4,171.4,432.5,158z"/>
</svg>
