<svg xmlns="http://www.w3.org/2000/svg" height="800" width="1200" viewBox="-107.1 -169.5 928.2 1017"><path d="M0 339V0h714v678H0z"/><path d="M341.286 624.594c-23.768-10.61-28.126-41.227-8.341-58.598 22.072-19.38 55.406-3.468 55.308 26.401-.081 24.768-25.135 41.942-46.967 32.197z"/><path d="M368.61 618.188c16.887-8.5 20.453-30.902 7.302-45.88-15.715-17.898-42.73-10.687-49.924 13.326-1.895 6.323-1.707 9.205 1.073 16.484 4.01 10.5 8.332 14.77 18.592 18.365 7.987 2.799 14.038 2.194 22.956-2.295z" fill="#8b2e87"/><path d="M447.284 610.983c-.607-2.505-.856-53.604-.551-113.554l.553-109 26.123-.556 26.123-.555 33.877 55.789 33.877 55.79 1-55.235 1-55.233 28.516-.555 28.517-.555-.517 113.555-.516 113.555h-55.818l-31.541-53-31.541-53-.55 53-.55 53-28.448.554c-28.155.55-28.46.508-29.554-4z"/><path d="M500.754 554.094c.37-38.573 1.209-55.56 2.768-56.078 1.23-.41 17.238 24.49 35.575 55.334l33.34 56.079h49.849V391.305l-24.5.562-24.5.562-.53 58.5c-.407 44.85-1.107 58.481-3 58.422-1.359-.043-18.519-26.593-38.134-59l-35.663-58.922h-43.673v218h47.936z" fill="#0092d6"/><path d="M100.286 500.429v-113l59.5.023c64.182.026 72.752 1.056 89.253 10.727 11.255 6.595 20.542 17.295 27.045 31.158 4.659 9.934 5.201 13.492 5.198 34.092 0 21.159-.468 24.007-5.81 35.583-7.33 15.882-22.723 30.418-38.693 36.54-9.497 3.64-16.965 4.578-42.993 5.404l-31.5 1v71.473h-62z"/><path d="M158.74 572.929l.546-36.5 34.051-1c33.558-.986 34.245-1.096 47.416-7.584 24.844-12.24 36.186-32.017 36.366-63.416.076-13.172-.962-20.915-3.865-28.867-5.537-15.162-19.664-30.064-35.385-37.323l-12.583-5.81-60.5-.655-60.5-.654v218.309h53.91z" fill="#e12a3f"/><path d="M158.286 464.429v-29h24.704c22.422 0 25.332.422 31.5 4.573 16.228 10.92 14.768 41.65-2.402 50.529-3.984 2.06-12.57 2.898-29.703 2.898h-24.1z"/><path d="M213.385 483.244c10.139-10.15 10.018-28.305-.252-37.964-4.73-4.449-7.055-4.907-28.003-5.524l-22.844-.672v50.689l22.96-.672c21.607-.633 23.265-.978 28.14-5.857zm110.901-21.815v-74h60v148h-60z"/><path d="M380.286 461.429v-70h-52v140h52z" fill="#8b2e87"/><path d="M323.217 306.972c-.54-1.41-.747-34.51-.457-73.554l.526-70.99h60v146l-29.542.554c-22.592.424-29.774-.05-30.527-2.01z"/><path d="M380.286 235.429v-68h-52v136h52z" fill="#fdb539"/><path d="M100.286 194.326V81.223l64.5.603 64.5.603 12.235 5.654c15.23 7.038 26.886 18.756 34.163 34.346 5.115 10.957 5.602 13.997 5.602 35 0 21.002-.487 24.042-5.602 35-7.278 15.59-18.934 27.308-34.163 34.342-11.624 5.368-13.91 5.684-45.735 6.323l-33.5.672v73.663h-62z"/><path d="M158.286 266.597v-36.831l33.5-.76c28.99-.656 35.04-1.368 44.942-5.29 29.116-11.532 45.748-44.567 39.976-79.403-4.257-25.692-18.432-44.572-39.976-53.248-10.922-4.399-14.192-4.636-71.942-5.23l-60.5-.623V303.43h54z" fill="#54bb46"/><path d="M447.203 304.929c-.526-1.375-.723-52-.437-112.5l.52-110H577.38l13.347 6.573c16.042 7.901 27.645 20.288 33.842 36.132 6.337 16.2 6.322 48.427-.03 64.671-5.9 15.085-19.972 29.858-35.254 37.009-11.414 5.34-13.638 5.645-45.5 6.246l-33.5.632v73.737h-31.063c-23.007 0-31.311-.649-32.02-2.5z"/><path d="M504.74 266.929l.546-36.5 34-1.069c31.957-1.004 34.75-1.411 46.495-6.77 14.306-6.53 26.702-18.786 33.183-32.81 3.636-7.868 4.322-12.999 4.322-32.351 0-19.353-.686-24.483-4.322-32.352-6.45-13.955-18.88-26.272-33.183-32.878l-12.495-5.77-60.5-.632-60.5-.632v218.264h51.91z" fill="#f57930"/><path d="M338.327 136.929c-10.565-5.399-15.66-11.915-18.218-23.295-3.54-15.76 5.236-33.51 19.52-39.477 34.7-14.5 64.702 28.56 39.03 56.018-11.018 11.784-25.682 14.24-40.332 6.754z"/><path d="M370.756 130.294c7.792-5.801 11.863-14.02 11.863-23.95 0-19.698-17.358-33.557-35.795-28.578-25.342 6.843-30.204 39.874-7.93 53.87 8.044 5.053 24.185 4.374 31.862-1.342z" fill="#fdb539"/><path d="M157.287 157.286v-29h24.704c22.422 0 25.332.422 31.5 4.573 16.228 10.92 14.768 41.65-2.402 50.529-3.983 2.06-12.57 2.898-29.703 2.898h-24.1z"/><path d="M212.386 176.1c10.139-10.148 10.018-28.304-.251-37.963-4.73-4.448-7.056-4.907-28.004-5.523l-22.844-.673v50.689l22.96-.672c21.607-.633 23.265-.978 28.14-5.857zM504.144 157v-29h24.704c22.422 0 25.332.423 31.5 4.573 16.228 10.92 14.768 41.65-2.402 50.53-3.983 2.06-12.57 2.897-29.703 2.897h-24.099z"/><path d="M559.243 175.815c10.139-10.149 10.018-28.305-.251-37.964-4.73-4.448-7.056-4.907-28.003-5.523l-22.845-.672v50.688l22.96-.672c21.607-.632 23.265-.977 28.14-5.857z"/></svg>