<?xml version="1.0" encoding="UTF-8" standalone="no"?>
<svg
   version="1.0"
   width="1300.391"
   height="300"
   id="svg30"
   sodipodi:docname="acclaim-w.svg"
   inkscape:version="1.1 (c68e22c387, 2021-05-23)"
   xmlns:inkscape="http://www.inkscape.org/namespaces/inkscape"
   xmlns:sodipodi="http://sodipodi.sourceforge.net/DTD/sodipodi-0.dtd"
   xmlns:xlink="http://www.w3.org/1999/xlink"
   xmlns="http://www.w3.org/2000/svg"
   xmlns:svg="http://www.w3.org/2000/svg">
  <sodipodi:namedview
     id="namedview32"
     pagecolor="#ffffff"
     bordercolor="#666666"
     borderopacity="1.0"
     inkscape:pageshadow="2"
     inkscape:pageopacity="0.0"
     inkscape:pagecheckerboard="0"
     showgrid="false"
     inkscape:zoom="0.81360145"
     inkscape:cx="649.58094"
     inkscape:cy="150.56512"
     inkscape:window-width="1920"
     inkscape:window-height="1017"
     inkscape:window-x="-8"
     inkscape:window-y="712"
     inkscape:window-maximized="1"
     inkscape:current-layer="svg30" />
  <defs
     id="defs22">
    <linearGradient
       id="b">
      <stop
         style="stop-color:#bf0000;stop-opacity:1"
         offset="0"
         id="stop2" />
      <stop
         style="stop-color:#fff20c;stop-opacity:1"
         offset=".245"
         id="stop4" />
      <stop
         style="stop-color:#0ce500;stop-opacity:1"
         offset=".445"
         id="stop6" />
      <stop
         style="stop-color:#31e1fd;stop-opacity:1"
         offset=".643"
         id="stop8" />
      <stop
         style="stop-color:#0019bf;stop-opacity:1"
         offset="1"
         id="stop10" />
    </linearGradient>
    <linearGradient
       id="a">
      <stop
         style="stop-color:#bf0000;stop-opacity:1"
         offset="0"
         id="stop13" />
      <stop
         style="stop-color:#bf0000;stop-opacity:1"
         offset=".375"
         id="stop15" />
      <stop
         style="stop-color:#fbe40a;stop-opacity:1"
         offset="1"
         id="stop17" />
    </linearGradient>
    <linearGradient
       x1="287.041"
       y1="350.877"
       x2="348.692"
       y2="275.901"
       id="c"
       xlink:href="#a"
       gradientUnits="userSpaceOnUse"
       gradientTransform="matrix(2.01834 0 0 2.01834 -521.637 -516.58)" />
    <linearGradient
       x1="289.839"
       y1="355.517"
       x2="639.313"
       y2="355.517"
       id="d"
       xlink:href="#b"
       gradientUnits="userSpaceOnUse"
       gradientTransform="matrix(2.01834 0 0 2.01834 -521.637 -516.58)" />
  </defs>
  <path
     d="M199.352 36.38c-3.51 5.61-66.682 104.664-94.231 147.844h40.619c5.65-8.881 7.256-11.451 12.488-19.679l41.376-.315c.002 6.659 0 13.336 0 19.994h38.286c.015-49.274-.037-98.569-.127-147.843h-38.411zm90.825 0-31.032 48.63-.252.316-.19.315c-18.5 28.166-17.415 23.456.316 52.414l.252.441.253.442 29.96 45.286h41.123l-41.88-63.325c-.026-.045-.038-.082-.064-.126-3.48-6.035-5.163-9.47-.252-17.976l42.385-66.416h-40.619zm56.198 0-31.032 48.63-.252.316-.19.315c-18.5 28.166-17.415 23.456.316 52.414l.252.441.253.442 29.96 45.286h41.06L344.925 120.9c-.026-.045-.038-.082-.064-.126-3.48-6.035-5.163-9.47-.252-17.976l42.385-66.416h-40.619zm46.107 0v147.844h36.897V36.381h-36.897zm165.63 0v27.627h36.96V36.38h-36.96zm-64.776 32.988c-31.635 0-57.65 26.014-57.65 57.649 0 29.328 22.37 53.79 50.838 57.207h13.56a57.32 57.32 0 0 0 17.03-4.793v4.793h33.87V70.377h-33.87v4.226c-7.27-3.335-15.312-5.235-23.778-5.235zm64.776 2.018v112.838h36.96V71.386h-36.96zm45.601.253v112.585h34.312v-64.019c0-8.403 6.23-14.633 14.633-14.633 8.404 0 14.633 6.23 14.633 14.633v64.02h37.024V120.52c0-8.403 6.23-14.633 14.633-14.633 8.403 0 14.633 6.23 14.633 14.633v63.704h34.312V120.52c0-26.818-10.773-48.187-49.323-47.43-12.084 0-19.907 5.364-27.437 12.74-7.536-8.418-19.805-13.43-38.853-13.056-4.367 0-8.677.617-12.804 1.766V71.64h-35.763zM199.478 99.58c.01 6.32.054 5.981.063 14.507.004 4.268-.005 7.541 0 11.795l-16.84.126c8.07-12.693 8.728-13.767 16.777-26.428zm293.858 4.1c13.07 0 23.337 10.267 23.337 23.337s-10.268 23.337-23.337 23.337c-13.07 0-23.338-10.267-23.338-23.337s10.268-23.337 23.338-23.337z"
     style="opacity:1;fill:#000;fill-opacity:1;fill-rule:evenodd;stroke:none;stroke-width:17;stroke-linecap:butt;stroke-linejoin:miter;stroke-miterlimit:4;stroke-dasharray:none;stroke-opacity:1"
     transform="translate(-42.86 -63.572) scale(1.7474)"
     id="path24" />
  <path
     d="M183.748 40.281 24.528 208.064h744.185v-14.182H72.428l111.32-153.6z"
     style="opacity:1;fill:url(#c);fill-opacity:1;fill-rule:evenodd;stroke:none;stroke-width:1px;stroke-linecap:butt;stroke-linejoin:miter;stroke-opacity:1"
     transform="translate(-42.86 -63.572) scale(1.7474)"
     id="path26" />
  <path
     d="M63.356 208.064h705.357v-14.182H72.428l-9.072 14.182z"
     style="opacity:1;fill:url(#d);fill-opacity:1;fill-rule:evenodd;stroke:none;stroke-width:1px;stroke-linecap:butt;stroke-linejoin:miter;stroke-opacity:1"
     transform="translate(-42.86 -63.572) scale(1.7474)"
     id="path28" />
  <path
     style="fill:#ffffff;fill-opacity:0.941176;stroke-width:1.2291"
     d="m 142.7808,257.03172 c 0.22534,-0.59395 37.1277,-58.66907 82.00525,-129.05582 L 306.38159,0 h 33.01832 33.0183 v 129.05582 129.05581 h -33.18578 -33.18578 v -18.01707 -18.01709 l -24.88934,0.80641 c -13.68913,0.44352 -30.14903,0.80787 -36.57754,0.80964 l -11.68821,0.003 -10.90749,17.20744 -10.9075,17.20744 h -34.35273 c -19.22942,0 -34.17238,-0.47541 -33.94304,-1.07991 z M 306.04665,133.08419 c 0,-20.88754 -0.23299,-23.9056 -1.68418,-21.81657 -1.41187,2.03241 -25.33185,39.7261 -28.25263,44.52119 -0.72926,1.19722 2.47172,1.53638 14.50048,1.53638 h 15.43633 z"
     id="path1136" />
  <path
     style="fill:#ffffff;fill-opacity:0.941176;stroke-width:1.2291"
     d="m 438.70214,220.31672 c -46.15639,-69.96566 -52.02138,-80.12443 -51.97833,-90.0318 0.0314,-7.22114 3.23268,-13.34483 22.48896,-43.018606 8.55432,-13.18213 24.62892,-38.20974 35.72134,-55.616911 L 465.10214,0 h 34.16429 c 18.79035,0 34.16428,0.29761402 34.16428,0.66136448 0,0.36375032 -16.69888,26.77410152 -37.10862,58.68966852 -21.44561,33.535404 -38.07961,60.830757 -39.40909,64.667847 -4.00417,11.55673 -3.70115,12.15858 37.67496,74.83062 20.40295,30.90416 37.52187,56.88075 38.04205,57.72575 0.74811,1.21527 -6.36325,1.53638 -34.02439,1.53638 h -34.97016 z"
     id="path1175" />
  <path
     style="fill:#ffffff;fill-opacity:0.941176;stroke-width:1.2291"
     d="m 533.76935,215.4003 c -43.81505,-66.27367 -48.7243,-74.78806 -48.72171,-84.50083 0.002,-7.53052 4.11431,-16.00905 17.56054,-36.205332 5.19529,-7.803339 20.96864,-32.301796 35.05189,-54.441014 L 563.26599,0 h 34.24648 c 18.83557,0 34.24648,0.25181604 34.24648,0.55959118 0,0.30777527 -16.69679,26.71812682 -37.10396,58.68966882 -20.40717,31.971543 -38.15534,60.8924 -39.44037,64.26857 -2.56025,6.72657 -2.21226,12.9343 1.0822,19.30507 1.04558,2.02192 13.28484,20.90741 27.19836,41.96776 13.91352,21.06035 30.45736,46.17316 36.76411,55.80626 l 11.46679,17.51471 h -34.85964 -34.85965 z"
     id="path1214" />
  <path
     style="fill:#ffffff;fill-opacity:0.941176;stroke-width:1.2291"
     d="M 644.04998,129.05582 V 0 h 31.34213 31.34212 v 129.05582 129.05581 h -31.34212 -31.34213 z"
     id="path1253" />
  <path
     style="fill:#ffffff;fill-opacity:0.941176;stroke-width:1.2291"
     d="m 798.91696,256.29027 c -30.18305,-6.72798 -55.41258,-26.45763 -69.26874,-54.16856 -31.41597,-62.82875 11.35691,-137.064679 82.78887,-143.687042 12.86556,-1.192748 32.17426,2.309641 47.01319,8.527682 1.78038,0.746041 2.15093,0.243425 2.15093,-2.917493 v -3.818809 h 28.88393 28.88392 v 98.942792 98.94279 h -28.88392 -28.88393 v -4.30186 c 0,-2.36602 -0.24508,-4.30186 -0.54461,-4.30186 -0.29955,0 -5.69224,1.7404 -11.98376,3.86755 -9.92402,3.35528 -13.47407,3.92237 -26.80292,4.2816 -10.33782,0.2786 -17.9773,-0.16851 -23.35296,-1.36679 z m 36.22662,-59.72741 c 8.30071,-3.10568 17.35164,-11.57735 21.56687,-20.18658 2.5442,-5.19626 3.01177,-7.94908 3.02711,-17.82199 0.0213,-13.65789 -2.19835,-19.81412 -10.32095,-28.6261 -15.47906,-16.7928 -44.95984,-16.7928 -60.4389,0 -8.1226,8.81198 -10.34219,14.96821 -10.32096,28.6261 0.0154,9.87291 0.48293,12.62573 3.02712,17.82199 4.09394,8.36149 13.28129,17.07641 21.21753,20.12648 8.9643,3.44517 23.12423,3.47156 32.24218,0.0601 z"
     id="path1292" />
  <path
     style="fill:#ffffff;fill-opacity:0.941176;stroke-width:1.2291"
     d="M 932.88919,159.78339 V 61.455151 h 31.95668 31.95668 v 98.328239 98.32824 h -31.95668 -31.95668 z"
     id="path1331" />
  <path
     style="fill:#ffffff;fill-opacity:0.941176;stroke-width:1.2291"
     d="M 932.88919,23.967509 V 0 h 31.95668 31.95668 v 23.967509 23.967509 h -31.95668 -31.95668 z"
     id="path1370" />
  <path
     style="fill:#ffffff;fill-opacity:0.941176;stroke-width:1.2291"
     d="M 1012.7809,160.39794 V 62.684254 h 30.7276 c 30.4282,0 30.7275,0.02522 30.7275,2.589706 0,1.867329 0.5478,2.379517 1.9637,1.836182 5.4819,-2.103617 20.6771,-3.428144 31.2221,-2.721553 22.982,1.539964 40.1573,7.425806 51.7446,17.732497 l 5.6532,5.028433 7.2524,-6.155129 c 3.9888,-3.385321 11.3719,-8.198636 16.4069,-10.696254 l 9.1545,-4.541125 20.3439,0.02097 c 15.8192,0.0163 22.0976,0.513855 28.2284,2.237051 25.7353,7.233493 41.2606,22.552675 48.783,48.135208 1.9279,6.55674 2.2189,14.83772 2.6235,74.668 l 0.4552,67.29339 h -28.8855 -28.8855 l -0.373,-58.68967 -0.373,-58.68966 -2.9426,-5.97764 c -9.4933,-19.2847 -39.0397,-18.07288 -47.3883,1.94357 -1.6311,3.91054 -1.906,12.99634 -1.906,62.99153 v 58.42187 h -31.9567 -31.9566 v -59.35106 c 0,-59.10979 -0.011,-59.37329 -2.7655,-64.81874 -1.6169,-3.19675 -4.9791,-7.00599 -8.0951,-9.17143 -4.8199,-3.34959 -6.2495,-3.70375 -14.9506,-3.70375 -8.7011,0 -10.1307,0.35416 -14.9506,3.70375 -3.116,2.16544 -6.4782,5.97468 -8.0951,9.17143 -2.7542,5.44545 -2.7655,5.70895 -2.7655,64.81874 v 59.35106 h -29.4984 -29.4985 z"
     id="path1409" />
</svg>
