<?xml version="1.0" encoding="UTF-8" standalone="no"?>
<svg
   height="183.747"
   width="884.92"
   version="1.1"
   id="svg3"
   sodipodi:docname="adam.svg"
   inkscape:version="1.3 (0e150ed6c4, 2023-07-21)"
   xmlns:inkscape="http://www.inkscape.org/namespaces/inkscape"
   xmlns:sodipodi="http://sodipodi.sourceforge.net/DTD/sodipodi-0.dtd"
   xmlns="http://www.w3.org/2000/svg"
   xmlns:svg="http://www.w3.org/2000/svg">
  <defs
     id="defs3" />
  <sodipodi:namedview
     id="namedview3"
     pagecolor="#ffffff"
     bordercolor="#111111"
     borderopacity="1"
     inkscape:showpageshadow="0"
     inkscape:pageopacity="0"
     inkscape:pagecheckerboard="1"
     inkscape:deskcolor="#d1d1d1"
     inkscape:zoom="3.1302265"
     inkscape:cx="346.62028"
     inkscape:cy="92.006121"
     inkscape:window-width="3440"
     inkscape:window-height="1377"
     inkscape:window-x="-8"
     inkscape:window-y="760"
     inkscape:window-maximized="1"
     inkscape:current-layer="svg3" />
  <g
     fill="#c7282a"
     id="g3">
    <path
       d="M758.736 104.37 724.108.002h-97.857c-2.2 0-3.872 1.364-4.884 3.522L603.46 42.549c-.97 2.2-.53 3.916 1.67 3.916h15.62c7.44 0 11.705 4.312 11.705 11.706l.088 122.32a3.25 3.25 0 0 0 3.258 3.256h46.286a3.249 3.249 0 0 0 3.256-3.257V51.835c0-1.234 1.408-2.2 2.596-2.2l-.043.042c1.23 0 2.33.924 2.728 2.158l42.724 129.536c.44 1.364 1.89 2.376 3.344 2.376h45.144c1.452 0 2.903-1.012 3.344-2.376l41.668-129.536c.395-1.234 1.495-2.158 2.728-2.158l-.045-.042c1.188 0 2.596.966 2.596 2.2V180.49a3.25 3.25 0 0 0 3.257 3.257h46.287a3.248 3.248 0 0 0 3.254-3.257V.001h-91.564z"
       id="path1" />
    <path
       d="M516.384 50.777c.395-1.23 1.495-2.154 2.728-2.154l.439-.046.44.046c1.233 0 2.333.924 2.728 2.154l24.024 56.058c.792 1.848.176 2.99-1.671 2.99h-51.041c-1.847 0-2.463-1.142-1.671-2.99zM408.76 183.747h50.6l12.67-29.57h95.042l12.67 29.57h50.6a3.25 3.25 0 0 0 3.258-3.257L554.925.001h-98.689c-2.201 0-3.875 1.364-4.885 3.522l-17.908 39.026c-.967 2.2-.528 3.916 1.672 3.916h12.453c7.435 0 11.704 4.312 11.704 11.706l-53.77 122.32a3.249 3.249 0 0 0 3.258 3.256"
       id="path2" />
    <path
       d="M285.207 135.17a3.249 3.249 0 0 1-3.258-3.257v-82.19a3.25 3.25 0 0 1 3.258-3.258h67.408c7.392 0 11.704 4.312 11.704 11.706v65.294c0 7.394-4.312 11.704-11.704 11.704zm94.381 48.577c20.636 0 35.419-14.786 35.419-35.422V35.423C415.007 14.787 400.224 0 379.588 0h-156.64c-2.2 0-3.872 1.364-4.887 3.522l-17.906 39.026c-.967 2.2-.528 3.916 1.672 3.916h15.621c7.39 0 11.703 4.312 11.703 11.706v122.32a3.249 3.249 0 0 0 3.256 3.256zM110.878 50.777c.398-1.23 1.498-2.154 2.729-2.154l.44-.046.441.046c1.231 0 2.331.924 2.727 2.154l24.024 56.058c.792 1.848.176 2.99-1.672 2.99h-51.04c-1.848 0-2.465-1.142-1.672-2.99zM3.255 183.747h50.6l12.672-29.57h95.04l12.672 29.57h50.6a3.249 3.249 0 0 0 3.256-3.257L149.424.001H50.731c-2.2 0-3.871 1.364-4.884 3.522L27.938 42.549c-.967 2.2-.527 3.916 1.674 3.916h12.45c7.438 0 11.705 4.312 11.705 11.706L0 180.49a3.247 3.247 0 0 0 3.255 3.256"
       id="path3" />
  </g>
  <path
     style="fill:#ff0000;fill-opacity:1;stroke-width:0.319466"
     d="m 1.3046124,182.70786 c -0.63736293,-0.5363 -0.9851467,-1.12341 -0.9851467,-1.66307 0,-0.45878 12.0951833,-28.34558 26.8781843,-61.97067 L 54.075834,57.937583 53.706212,55.699429 c -0.446386,-2.70297 -1.478152,-4.819274 -3.123163,-6.406079 -2.640241,-2.546816 -5.416481,-3.105642 -15.503575,-3.120692 -6.428638,-0.0096 -6.624262,-0.02909 -7.099457,-0.707523 -0.3035,-0.433308 -0.412903,-1.008298 -0.288728,-1.517463 C 27.936927,42.940451 45.446954,4.6555276 46.477802,2.8717578 46.890805,2.157104 47.781165,1.2740976 48.491091,0.87509715 l 1.272819,-0.7153643 49.79315,0.00887 49.79315,0.00887 39.13455,89.82199115 c 21.524,49.402096 39.17973,90.227636 39.23496,90.723426 0.0733,0.65811 -0.1577,1.15953 -0.85585,1.85768 l -0.95626,0.95626 -25.80796,-0.0818 -25.80796,-0.0818 -6.24116,-14.60884 -6.24115,-14.60884 H 114.04925 66.289132 l -6.241158,14.60884 -6.241156,14.60884 -25.758529,0.0817 -25.75853,0.0817 z M 141.40364,109.25727 c 0.27671,-0.37808 0.39106,-0.965 0.28008,-1.4376 -0.10314,-0.43926 -5.65469,-13.593262 -12.33676,-29.231108 -9.36881,-21.925503 -12.36444,-28.633503 -13.08958,-29.310978 -1.30228,-1.216676 -3.11386,-1.216676 -4.41655,0 -0.72419,0.676369 -3.67859,7.274144 -12.838979,28.672046 -6.544082,15.286434 -12.093786,28.34832 -12.332673,29.02641 -0.514145,1.45942 -0.29748,2.37654 0.652918,2.76372 0.383291,0.15614 12.468037,0.25358 27.152314,0.21891 26.05598,-0.0615 26.46877,-0.0723 26.92923,-0.7014 z"
     id="path4" />
  <path
     style="fill:#ff0000;fill-opacity:1;stroke-width:0.319466"
     d="m 230.31019,182.59922 -0.93382,-0.93382 v -62.26172 c 0,-43.55123 -0.10459,-62.8275 -0.34805,-64.144462 -0.66918,-3.619962 -2.79494,-6.490917 -5.78212,-7.809102 -2.24714,-0.991616 -5.33195,-1.266583 -14.33161,-1.277458 -5.91105,-0.0071 -8.26808,-0.115601 -8.5457,-0.393224 -0.21085,-0.210847 -0.38336,-0.840351 -0.38336,-1.398901 0,-1.024699 17.53869,-39.7973609 18.94775,-41.8876505 0.37863,-0.5616821 1.21361,-1.3164198 1.85553,-1.67719495 l 1.16711,-0.6559547 80.30213,0.006328 c 51.53178,0.004061 81.10332,0.12023832 82.53838,0.32426768 16.93125,2.40719447 28.34715,14.54134147 29.87066,31.74999647 0.42982,4.854984 0.42073,114.452395 -0.01,119.346145 -0.89667,10.18997 -5.13196,18.47701 -12.46089,24.3818 -4.57246,3.68396 -10.90962,6.36681 -17.05943,7.22217 -1.69628,0.23593 -26.03723,0.3426 -78.17803,0.3426 h -75.71483 z m 128.20369,-48.51691 c 2.50226,-1.23197 4.08433,-2.92433 5.11539,-5.47202 l 0.72136,-1.78241 V 90.887991 c 0,-35.148309 -0.0141,-35.978121 -0.63893,-37.675705 -0.8421,-2.287761 -3.18827,-4.845125 -5.26437,-5.738236 -0.88184,-0.379359 -2.64579,-0.825145 -3.91988,-0.990638 -3.32529,-0.431921 -68.739,-0.413094 -70.29946,0.02023 -0.81514,0.226357 -1.41956,0.672322 -1.83773,1.35595 -0.61067,0.998305 -0.6215,1.863344 -0.54245,43.294234 l 0.0807,42.275574 1.05071,0.93878 1.0507,0.93878 36.17396,-0.0865 36.17395,-0.0865 z"
     id="path5" />
  <path
     style="fill:#ff0000;fill-opacity:1;stroke-width:0.319466"
     d="m 406.6205,182.56446 c -0.7318,-0.7318 -0.9333,-1.18087 -0.82422,-1.83693 0.0794,-0.47759 12.17084,-28.20541 26.86988,-61.6174 20.3492,-46.255233 26.72461,-61.041863 26.72172,-61.976342 -0.01,-3.12769 -1.73122,-6.85834 -3.88476,-8.418358 -2.8827,-2.088217 -4.0593,-2.30876 -13.20286,-2.474767 -4.86651,-0.08835 -8.47147,-0.284193 -8.70544,-0.472918 -0.21963,-0.177166 -0.39933,-0.755322 -0.39933,-1.284792 0,-0.961441 17.69313,-39.9589389 18.99875,-41.8752318 0.35662,-0.5234045 1.05425,-1.252382 1.55031,-1.61995 l 0.90192,-0.6683055 50.07134,-0.0828039 50.07134,-0.0828039 38.59994,88.5748001 c 21.22997,48.716142 38.72102,88.790442 38.86902,89.054002 0.14799,0.26356 0.23648,-27.42468 0.19666,-61.52942 l -0.0724,-62.008626 -1.11813,-2.191956 c -0.80455,-1.577222 -1.55405,-2.521045 -2.67249,-3.36537 -2.84844,-2.150327 -3.63973,-2.280969 -14.82641,-2.447884 -9.5998,-0.143232 -10.00492,-0.174233 -10.3349,-0.790805 -0.18889,-0.352949 -0.26401,-1.038867 -0.16693,-1.524267 0.34315,-1.715729 18.72157,-41.3183475 19.60028,-42.2355197 0.47656,-0.4974245 1.3756,-1.05093542 1.99787,-1.23002422 0.75291,-0.2166877 17.52969,-0.29445562 50.1503,-0.23246918 l 49.01891,0.0931468 17.22333,51.9131763 c 9.47283,28.552246 17.30006,51.985058 17.39382,52.072908 0.22254,0.20847 -1.70994,5.94108 17.6616,-52.392374 l 17.13336,-51.5937103 45.74072,-0.0809531 45.74071,-0.080953 -0.0821,90.7555604 -0.0821,90.75556 -1.04331,0.93218 -1.04331,0.93218 h -23.93984 c -17.22175,0 -24.16387,-0.10207 -24.73817,-0.36373 -1.90667,-0.86875 -1.78748,3.61227 -1.78748,-67.19268 0,-41.621228 -0.11168,-64.95308 -0.31272,-65.328717 -0.91792,-1.71518 -4.0538,-1.279662 -4.95769,0.688538 -0.26669,0.580757 -9.83504,30.167235 -21.26294,65.747729 -18.7382,58.34073 -20.87114,64.77805 -21.72625,65.57033 l -0.94821,0.87853 -23.55555,-0.001 c -22.74273,-0.001 -23.59059,-0.0226 -24.57116,-0.62045 -1.12675,-0.68704 0.49869,4.11384 -31.75099,-93.78047 -6.71449,-20.381912 -12.41313,-37.464685 -12.66366,-37.961719 -0.62397,-1.237933 -2.27895,-1.907636 -3.58719,-1.451582 -0.54583,0.190277 -1.13314,0.608905 -1.30514,0.930284 -0.20103,0.375637 -0.31272,23.707489 -0.31272,65.328717 0,70.80495 0.11921,66.32393 -1.78749,67.19268 -0.57426,0.26165 -7.5115,0.36373 -24.71868,0.36373 h -23.92039 l -0.9829,-0.82706 c -0.5406,-0.45489 -0.98291,-0.67421 -0.98291,-0.4874 0,0.18681 -0.4258,0.55985 -0.94622,0.82896 -0.83064,0.42955 -4.07218,0.47932 -26.53968,0.40754 l -25.59347,-0.0818 -6.26098,-14.61659 -6.26098,-14.61659 -47.75239,0.0809 -47.75238,0.0809 -6.25847,14.61556 -6.25848,14.61555 h -25.82471 -25.82471 z m 139.91422,-73.00584 c 0.39248,-0.2749 0.71002,-0.83432 0.71002,-1.25086 0,-0.63094 -23.22106,-55.338117 -24.71566,-58.228359 -0.90384,-1.747829 -3.9745,-2.203546 -5.37965,-0.798396 -0.82728,0.827279 -25.17226,57.758265 -25.17226,58.865585 0,1.99449 -1.23226,1.90934 27.63379,1.90934 23.20845,0 26.29515,-0.057 26.92376,-0.49731 z"
     id="path6" />
</svg>
