<svg id="svg" version="1.1" xmlns="http://www.w3.org/2000/svg" xmlns:xlink="http://www.w3.org/1999/xlink" width="400" height="161.78343949044586" viewBox="0, 0, 400,161.78343949044586"><g id="svgg"><path id="path0" d="M283.583 59.100 C 282.781 59.287,280.445 59.331,271.738 59.327 L 260.893 59.321 260.696 59.751 C 260.588 59.988,260.500 60.314,260.500 60.475 C 260.500 60.635,260.437 60.838,260.361 60.925 C 260.284 61.012,259.864 62.208,259.427 63.583 C 257.618 69.273,257.442 69.330,255.824 64.750 C 255.533 63.925,255.200 63.025,255.084 62.750 C 254.967 62.475,254.781 61.987,254.669 61.667 C 254.558 61.346,254.405 60.933,254.330 60.750 C 254.256 60.567,254.100 60.185,253.985 59.902 L 253.776 59.387 243.777 59.277 C 238.278 59.216,228.766 59.167,222.639 59.167 L 211.500 59.167 211.500 59.521 C 211.500 59.914,211.003 59.904,209.000 59.474 C 208.317 59.327,199.468 59.262,174.292 59.220 L 140.500 59.163 140.500 62.155 C 140.500 65.490,140.428 65.693,139.645 64.545 C 139.347 64.108,139.042 63.725,138.968 63.694 C 138.894 63.664,138.833 63.566,138.833 63.477 C 138.833 63.387,138.493 62.850,138.076 62.282 C 137.660 61.715,136.984 60.781,136.574 60.208 L 135.830 59.167 120.262 59.167 C 104.591 59.167,104.167 59.178,104.167 59.601 C 104.167 59.729,104.104 59.833,104.028 59.833 C 103.952 59.833,103.783 60.040,103.653 60.292 C 103.524 60.544,103.372 60.788,103.317 60.833 C 103.262 60.879,102.520 61.988,101.669 63.298 C 100.817 64.608,100.037 65.651,99.935 65.617 C 99.810 65.576,99.735 64.521,99.705 62.360 L 99.659 59.164 90.621 59.207 L 81.583 59.250 81.534 60.292 C 81.480 61.415,81.459 61.440,80.833 61.115 C 79.955 60.658,77.363 59.853,76.167 59.666 C 75.479 59.559,74.557 59.402,74.117 59.319 C 72.805 59.069,49.719 59.122,49.497 59.375 C 49.294 59.607,47.179 62.545,46.917 62.960 C 46.825 63.105,46.659 63.342,46.548 63.487 C 46.437 63.632,45.460 64.987,44.377 66.500 L 42.408 69.250 35.817 69.294 L 29.225 69.337 28.801 69.794 C 28.567 70.045,28.086 70.671,27.730 71.186 C 27.374 71.701,26.113 73.464,24.928 75.103 C 22.105 79.006,21.604 79.705,19.933 82.083 C 19.160 83.183,18.463 84.158,18.384 84.250 C 18.305 84.342,18.058 84.679,17.833 85.000 C 17.609 85.321,17.363 85.658,17.287 85.750 C 17.211 85.842,16.698 86.554,16.149 87.333 C 15.599 88.112,15.008 88.938,14.835 89.167 C 13.744 90.612,12.169 92.949,12.168 93.125 C 12.167 93.288,13.560 93.333,18.583 93.333 C 23.613 93.333,25.000 93.378,25.000 93.542 C 25.000 93.657,24.355 94.651,23.566 95.750 C 22.191 97.667,21.442 98.743,21.083 99.317 C 20.992 99.463,20.872 99.621,20.818 99.667 C 20.588 99.861,19.500 101.511,19.500 101.666 C 19.500 101.780,23.109 101.822,30.455 101.793 L 41.409 101.750 42.207 100.667 C 42.646 100.071,43.111 99.433,43.240 99.250 C 43.370 99.067,43.931 98.301,44.488 97.549 C 45.045 96.796,45.500 96.141,45.500 96.092 C 45.500 96.043,45.664 95.814,45.863 95.585 C 46.601 94.736,46.656 94.926,46.705 98.458 L 46.750 101.750 58.917 101.803 C 66.919 101.838,71.654 101.794,72.750 101.674 C 75.133 101.415,76.839 101.167,77.417 100.996 C 78.950 100.543,80.757 99.900,80.806 99.792 C 81.089 99.153,81.654 99.732,81.700 100.708 L 81.750 101.750 89.688 101.793 L 97.626 101.837 98.646 100.242 C 99.207 99.365,99.667 98.576,99.667 98.490 C 99.667 98.404,99.726 98.333,99.798 98.333 C 99.870 98.333,100.187 97.902,100.501 97.375 C 103.678 92.045,103.833 92.059,103.833 97.681 L 103.833 101.833 121.167 101.833 L 138.500 101.833 138.500 98.510 C 138.500 95.347,138.560 94.874,138.925 95.136 C 139.108 95.268,139.833 96.279,139.833 96.404 C 139.833 96.450,140.619 97.690,141.579 99.160 L 143.325 101.833 157.163 101.833 L 171.000 101.833 171.000 100.093 C 171.000 99.136,171.062 98.314,171.139 98.267 C 171.281 98.179,172.330 98.831,172.906 99.367 C 173.084 99.532,173.328 99.667,173.448 99.667 C 173.568 99.667,173.667 99.730,173.667 99.807 C 173.667 100.014,176.308 101.210,177.417 101.505 C 177.692 101.578,178.367 101.768,178.917 101.926 C 180.350 102.340,184.999 102.337,186.417 101.922 C 186.967 101.761,187.624 101.591,187.877 101.545 C 188.130 101.499,188.378 101.395,188.429 101.314 C 188.598 101.040,189.143 101.164,189.250 101.501 C 189.356 101.833,189.470 101.834,214.803 101.792 L 240.250 101.750 240.333 97.833 L 240.417 93.917 244.072 93.917 L 247.728 93.917 248.250 95.424 C 248.537 96.253,248.813 97.003,248.863 97.091 C 248.914 97.178,249.125 97.775,249.332 98.417 C 249.539 99.058,249.774 99.655,249.854 99.742 C 249.934 99.829,250.000 100.057,250.000 100.250 C 250.000 100.442,250.060 100.671,250.133 100.758 C 250.206 100.845,250.365 101.217,250.486 101.583 C 250.910 102.861,249.396 102.759,266.696 102.667 C 275.251 102.621,282.325 102.628,282.417 102.684 C 283.227 103.170,288.081 103.313,290.333 102.917 C 291.471 102.716,293.467 102.667,300.458 102.667 L 309.167 102.667 309.167 101.828 C 309.167 100.831,309.383 100.682,310.186 101.126 C 310.860 101.498,312.298 102.049,313.333 102.333 C 313.746 102.446,314.271 102.601,314.500 102.677 C 316.450 103.325,323.071 103.324,324.750 102.675 C 325.471 102.396,326.287 102.167,326.556 102.167 C 326.711 102.167,326.968 102.098,327.127 102.013 C 329.609 100.698,330.000 100.675,330.000 101.845 L 330.000 102.670 338.708 102.626 L 347.417 102.583 347.462 98.875 C 347.507 95.083,347.585 94.702,348.103 95.705 C 348.256 96.001,348.971 97.135,349.691 98.224 C 350.411 99.313,351.005 100.252,351.010 100.310 C 351.032 100.536,352.590 102.724,352.708 102.696 C 352.777 102.680,356.057 102.667,359.997 102.667 L 367.162 102.667 367.206 97.875 L 367.250 93.083 368.751 93.036 L 370.251 92.989 370.666 92.369 C 370.894 92.029,371.121 91.712,371.172 91.667 C 371.280 91.568,376.043 85.310,377.832 82.917 C 378.517 82.000,379.122 81.212,379.176 81.167 C 379.230 81.121,379.719 80.483,380.262 79.750 C 380.805 79.017,381.419 78.230,381.625 78.002 C 381.831 77.773,382.000 77.535,382.000 77.472 C 382.000 77.409,382.097 77.258,382.216 77.137 C 382.712 76.632,388.167 69.332,388.167 69.173 C 388.167 69.055,384.856 69.000,377.768 69.000 C 368.439 69.000,367.359 68.973,367.268 68.736 C 367.212 68.591,367.167 66.416,367.167 63.902 L 367.167 59.330 358.458 59.374 L 349.750 59.417 349.705 62.638 C 349.651 66.490,349.758 66.444,347.711 63.488 C 346.858 62.257,345.859 60.819,345.491 60.292 L 344.821 59.333 337.410 59.333 L 330.000 59.333 330.000 60.139 C 330.000 61.158,329.955 61.195,329.166 60.814 C 328.809 60.641,328.449 60.500,328.367 60.500 C 328.285 60.500,327.968 60.376,327.663 60.223 C 325.206 58.997,319.197 58.435,315.667 59.101 C 314.887 59.248,314.043 59.406,313.790 59.453 C 313.536 59.500,313.288 59.605,313.238 59.686 C 313.188 59.767,312.968 59.833,312.750 59.833 C 312.532 59.833,312.307 59.908,312.250 60.000 C 312.193 60.092,312.013 60.167,311.849 60.167 C 311.685 60.167,311.296 60.297,310.984 60.456 C 309.346 61.290,309.167 61.259,309.167 60.139 L 309.167 59.333 300.292 59.327 C 293.230 59.323,291.195 59.273,290.333 59.083 C 288.933 58.775,284.937 58.785,283.583 59.100 M288.946 60.677 C 289.663 60.774,290.981 61.101,291.875 61.404 L 293.500 61.955 293.500 61.561 L 293.500 61.167 300.417 61.167 L 307.333 61.167 307.333 62.657 C 307.333 64.402,307.428 64.512,308.374 63.866 C 314.693 59.544,323.674 59.452,330.559 63.639 C 331.187 64.021,331.731 64.333,331.767 64.333 C 331.803 64.333,331.833 63.621,331.833 62.750 L 331.833 61.167 337.875 61.170 L 343.917 61.174 345.000 62.740 C 350.393 70.539,350.730 70.956,351.324 70.589 C 351.441 70.517,351.500 68.915,351.500 65.822 L 351.500 61.163 358.458 61.207 L 365.417 61.250 365.461 65.932 L 365.505 70.615 374.878 70.734 C 380.032 70.799,384.315 70.917,384.394 70.996 C 384.476 71.076,383.601 72.370,382.402 73.944 C 381.226 75.488,379.471 77.800,378.501 79.083 C 377.530 80.367,375.881 82.542,374.835 83.917 C 373.789 85.292,372.480 87.017,371.926 87.750 C 371.372 88.483,370.881 89.121,370.834 89.167 C 370.787 89.212,370.421 89.681,370.021 90.208 L 369.293 91.167 367.490 91.167 C 366.494 91.167,365.641 91.240,365.586 91.330 C 365.530 91.419,365.469 93.576,365.451 96.121 L 365.417 100.750 359.466 100.794 L 353.516 100.838 352.049 98.581 C 351.243 97.340,349.871 95.199,349.000 93.823 L 347.417 91.323 346.583 91.370 L 345.750 91.417 345.706 96.125 L 345.661 100.833 338.747 100.833 L 331.833 100.833 331.833 99.250 C 331.833 97.464,331.808 97.439,330.751 98.166 C 324.332 102.582,315.038 102.489,308.094 97.939 C 307.441 97.511,307.333 97.710,307.333 99.343 L 307.333 100.833 300.417 100.833 C 293.611 100.833,293.500 100.828,293.500 100.500 C 293.500 100.071,293.460 100.075,291.709 100.661 C 288.140 101.857,283.639 101.620,280.661 100.081 C 280.021 99.749,280.000 99.757,280.000 100.335 L 280.000 100.837 273.042 100.793 L 266.083 100.750 266.083 97.958 C 266.083 94.443,265.983 94.447,264.833 98.001 L 263.917 100.834 258.008 100.792 L 252.100 100.750 251.702 99.667 C 251.484 99.071,251.165 98.208,250.994 97.750 C 250.823 97.292,250.292 95.809,249.815 94.456 L 248.946 91.995 243.765 92.039 L 238.583 92.083 238.500 96.000 L 238.417 99.917 223.250 99.962 C 214.908 99.988,207.933 99.970,207.750 99.924 C 207.567 99.878,206.892 99.092,206.250 98.178 C 204.814 96.132,204.855 96.131,204.797 98.208 L 204.750 99.917 197.917 99.917 L 191.083 99.917 191.033 99.125 C 190.973 98.193,190.915 98.180,189.720 98.835 C 183.184 102.422,173.938 100.048,170.129 93.804 C 169.346 92.520,169.345 92.523,169.293 96.583 L 169.250 99.917 156.818 99.959 C 145.137 100.000,144.372 99.984,144.138 99.709 C 143.896 99.424,140.092 93.534,139.347 92.292 C 138.977 91.673,138.962 91.667,137.903 91.667 L 136.833 91.667 136.833 95.732 C 136.833 99.286,136.800 99.810,136.570 99.899 C 136.425 99.954,129.493 100.000,121.167 100.000 C 112.840 100.000,105.909 99.954,105.764 99.899 C 105.533 99.810,105.500 99.286,105.500 95.732 L 105.500 91.667 103.752 91.667 L 102.003 91.667 101.439 92.542 C 101.128 93.023,99.955 94.842,98.833 96.583 C 97.710 98.325,96.707 99.806,96.604 99.874 C 96.501 99.942,93.529 99.979,90.000 99.957 L 83.583 99.917 83.539 98.333 C 83.479 96.215,83.480 96.216,82.627 96.802 C 78.444 99.671,76.135 100.000,60.176 100.000 L 48.506 100.000 48.461 95.875 L 48.417 91.750 47.484 91.701 L 46.552 91.652 45.880 92.534 C 45.510 93.020,44.215 94.804,43.003 96.500 C 41.791 98.196,40.680 99.677,40.534 99.792 C 40.182 100.069,23.000 100.098,23.000 99.821 C 23.000 99.723,24.199 97.970,25.664 95.926 C 27.129 93.881,28.375 92.087,28.432 91.938 C 28.527 91.690,27.974 91.667,22.111 91.667 C 18.394 91.667,15.647 91.602,15.592 91.514 C 15.540 91.430,17.236 88.936,19.361 85.972 C 21.486 83.008,24.535 78.746,26.137 76.500 C 27.739 74.254,29.270 72.135,29.539 71.792 L 30.028 71.167 36.669 71.167 L 43.311 71.167 43.628 70.708 C 43.802 70.456,44.764 69.100,45.764 67.694 C 46.765 66.289,48.223 64.226,49.005 63.111 L 50.427 61.083 62.339 61.083 C 73.335 61.083,74.365 61.107,75.750 61.395 C 78.361 61.939,80.558 62.818,82.474 64.086 C 83.361 64.673,83.360 64.674,83.391 62.720 L 83.417 61.083 90.667 61.083 L 97.917 61.083 97.961 65.875 L 98.005 70.667 98.461 70.667 C 98.873 70.667,99.230 70.199,102.152 65.833 L 105.388 61.000 120.185 61.000 L 134.981 61.000 136.040 62.542 C 136.623 63.390,138.064 65.459,139.243 67.141 C 142.381 71.615,142.333 71.640,142.333 65.479 L 142.333 60.999 162.042 61.041 L 181.750 61.083 181.833 65.500 L 181.917 69.917 182.667 69.917 L 183.417 69.917 183.500 65.500 L 183.583 61.083 195.917 61.083 C 209.405 61.083,209.049 61.061,211.784 62.090 C 213.129 62.596,213.225 62.573,213.239 61.740 L 213.250 61.083 223.250 61.045 C 228.750 61.023,237.595 61.061,242.906 61.128 L 252.562 61.250 253.047 62.500 C 253.314 63.188,253.596 63.900,253.673 64.083 C 253.750 64.267,254.225 65.504,254.729 66.833 C 255.233 68.162,255.697 69.384,255.759 69.547 C 255.860 69.810,256.069 69.839,257.562 69.797 L 259.250 69.750 260.671 65.500 L 262.093 61.250 271.046 61.207 L 280.000 61.164 280.000 61.749 C 280.000 62.070,280.027 62.333,280.060 62.333 C 280.093 62.333,280.688 62.071,281.382 61.750 C 283.744 60.659,286.220 60.307,288.946 60.677 M238.667 66.730 C 238.667 68.693,238.718 69.337,238.875 69.349 C 239.284 69.379,240.584 69.303,240.643 69.245 C 240.676 69.213,240.386 68.300,239.998 67.218 C 239.610 66.136,239.256 65.084,239.211 64.880 C 238.893 63.438,238.667 64.207,238.667 66.730 " stroke="none" fill="#2a378b" fill-rule="evenodd"></path><path id="path1" d="M284.667 62.607 C 282.834 62.965,280.589 64.108,279.237 65.371 C 278.008 66.520,278.000 66.515,278.000 64.556 L 278.000 63.000 270.763 63.000 L 263.526 63.000 263.342 63.542 C 263.241 63.840,262.579 65.808,261.871 67.917 L 260.583 71.750 258.583 71.802 C 257.483 71.831,256.121 71.806,255.556 71.749 L 254.529 71.643 254.165 70.697 C 253.965 70.176,253.737 69.600,253.660 69.417 C 253.582 69.233,253.057 67.846,252.492 66.333 C 251.928 64.821,251.396 63.452,251.310 63.292 C 251.158 63.007,240.911 62.812,240.634 63.089 C 240.552 63.170,240.944 64.306,242.694 69.055 C 243.060 70.047,243.318 70.966,243.268 71.096 C 243.173 71.344,237.532 71.463,236.925 71.230 C 236.688 71.139,236.657 70.665,236.667 67.188 C 236.673 65.022,236.675 63.156,236.672 63.040 C 236.668 62.874,234.468 62.840,225.958 62.874 L 215.250 62.917 215.202 64.542 C 215.159 66.028,214.905 66.697,214.639 66.027 C 214.190 64.894,210.332 63.321,207.192 62.991 C 204.911 62.751,185.778 62.788,185.533 63.033 C 185.388 63.179,185.333 64.412,185.333 67.537 L 185.333 71.842 182.625 71.796 L 179.917 71.750 179.872 67.291 L 179.828 62.832 162.039 62.874 L 144.250 62.917 144.167 67.500 L 144.083 72.083 142.310 72.130 L 140.537 72.178 140.044 71.547 C 139.773 71.200,138.803 69.829,137.888 68.500 C 136.974 67.171,135.714 65.352,135.090 64.458 L 133.954 62.833 120.256 62.833 L 106.558 62.833 106.212 63.208 C 106.022 63.415,104.547 65.590,102.934 68.042 L 100.002 72.500 97.990 72.500 L 95.978 72.500 96.013 67.824 C 96.034 65.011,95.984 63.084,95.888 62.988 C 95.791 62.891,93.704 62.846,90.573 62.873 L 85.417 62.917 85.371 65.958 C 85.321 69.325,85.328 69.308,84.445 68.251 C 82.699 66.163,79.263 64.134,76.417 63.512 C 75.867 63.391,75.154 63.214,74.833 63.118 C 73.734 62.788,51.770 62.753,51.443 63.081 C 51.189 63.334,49.965 65.031,45.938 70.708 L 44.313 73.000 39.599 73.000 C 37.007 73.000,33.967 73.049,32.845 73.110 L 30.804 73.219 29.860 74.544 C 29.341 75.273,28.536 76.405,28.071 77.059 C 27.606 77.714,25.849 80.162,24.167 82.500 C 19.888 88.443,19.167 89.464,19.167 89.572 C 19.167 89.624,22.092 89.667,25.667 89.667 C 30.757 89.667,32.166 89.712,32.164 89.875 C 32.162 89.990,30.927 91.808,29.417 93.917 C 27.908 96.025,26.672 97.806,26.670 97.875 C 26.668 97.944,29.575 98.000,33.130 98.000 L 39.593 98.000 40.255 97.076 C 42.379 94.112,45.231 90.208,45.460 89.954 C 45.695 89.693,45.996 89.663,47.988 89.704 L 50.250 89.750 50.295 93.875 L 50.339 98.000 61.795 97.999 C 77.590 97.998,79.648 97.551,84.292 93.110 L 85.333 92.114 85.333 95.059 L 85.333 98.005 90.522 97.961 L 95.711 97.917 98.390 93.792 L 101.069 89.667 104.076 89.669 C 105.730 89.671,107.158 89.727,107.250 89.794 C 107.353 89.870,107.417 91.443,107.417 93.917 L 107.417 97.917 121.125 97.959 L 134.833 98.002 134.833 93.935 C 134.833 89.165,134.508 89.667,137.600 89.667 L 139.839 89.667 141.718 92.542 C 142.751 94.123,143.957 95.998,144.399 96.708 L 145.201 98.000 149.681 98.000 L 154.161 98.000 154.205 93.875 L 154.250 89.750 155.498 89.700 C 156.184 89.673,156.916 89.693,157.123 89.745 L 157.500 89.840 157.500 93.922 L 157.500 98.005 162.458 97.961 L 167.417 97.917 167.417 93.917 C 167.417 91.443,167.480 89.870,167.583 89.794 C 168.036 89.461,170.337 89.657,170.489 90.042 C 170.571 90.248,170.797 90.829,170.992 91.333 C 174.041 99.226,186.107 101.127,192.240 94.681 C 192.962 93.922,193.000 93.992,193.000 96.083 L 193.000 98.000 197.917 98.000 L 202.833 98.000 202.833 94.361 C 202.833 92.360,202.881 90.675,202.939 90.617 C 203.087 90.468,202.947 90.280,207.801 97.118 L 208.417 97.985 222.500 97.951 L 236.583 97.917 236.628 94.063 L 236.673 90.210 243.295 90.131 C 246.937 90.088,249.992 90.080,250.085 90.112 C 250.268 90.177,250.563 90.913,251.746 94.250 C 252.498 96.371,253.047 97.873,253.346 98.628 L 253.495 99.005 258.019 98.961 L 262.543 98.917 264.003 94.500 L 265.464 90.083 266.690 90.083 L 267.917 90.083 268.000 94.500 L 268.083 98.917 273.042 98.961 L 278.000 99.005 278.000 97.697 C 278.000 96.044,278.020 96.030,279.147 96.912 C 283.438 100.271,289.958 100.410,294.374 97.237 C 295.451 96.463,295.500 96.489,295.500 97.836 L 295.500 99.005 300.458 98.961 L 305.417 98.917 305.500 96.102 L 305.583 93.287 306.333 94.018 C 309.044 96.661,311.602 98.090,315.471 99.120 C 316.833 99.483,322.317 99.548,323.417 99.214 C 323.783 99.103,324.646 98.845,325.333 98.641 C 327.872 97.887,330.499 96.315,332.625 94.278 C 333.198 93.730,333.669 93.386,333.673 93.515 C 333.676 93.644,333.695 94.912,333.714 96.333 L 333.750 98.917 338.750 98.917 L 343.750 98.917 343.794 94.208 L 343.839 89.500 346.153 89.500 L 348.467 89.500 349.668 91.375 C 350.329 92.406,351.705 94.544,352.726 96.126 L 354.583 99.003 359.000 98.960 L 363.417 98.917 363.500 94.167 L 363.583 89.417 365.952 89.370 L 368.320 89.324 370.453 86.537 C 371.626 85.004,373.260 82.862,374.084 81.778 C 374.909 80.693,376.727 78.301,378.125 76.463 C 379.523 74.624,380.667 73.018,380.667 72.893 C 380.667 72.706,379.529 72.667,374.110 72.667 C 370.503 72.667,366.642 72.618,365.529 72.558 L 363.505 72.449 363.461 67.766 L 363.417 63.083 358.458 63.039 L 353.500 62.995 353.500 67.748 L 353.500 72.500 351.532 72.500 L 349.564 72.500 348.740 71.379 C 348.287 70.762,347.504 69.652,347.000 68.912 C 346.496 68.173,345.872 67.271,345.613 66.909 C 345.355 66.546,344.636 65.537,344.016 64.667 L 342.888 63.083 338.319 63.083 L 333.750 63.083 333.716 65.750 C 333.677 68.782,333.710 68.736,332.425 67.504 C 330.390 65.552,328.082 64.166,325.599 63.404 C 322.944 62.589,322.997 62.596,319.667 62.593 C 316.335 62.590,315.962 62.641,313.510 63.440 C 311.302 64.159,308.546 65.833,306.694 67.581 L 305.508 68.699 305.462 65.891 L 305.417 63.083 300.458 63.039 L 295.500 62.995 295.500 64.248 C 295.500 65.688,295.428 65.735,294.445 64.934 C 292.146 63.061,287.726 62.009,284.667 62.607 M288.744 65.415 C 292.614 66.104,295.334 69.009,295.533 72.667 L 295.583 73.583 293.524 73.667 C 291.132 73.763,291.243 73.801,291.084 72.833 C 290.416 68.788,285.022 68.039,283.262 71.748 C 281.968 74.476,283.489 76.489,288.000 78.016 C 294.153 80.098,296.165 82.457,296.161 87.583 C 296.152 99.348,278.196 99.994,277.631 88.250 L 277.583 87.250 279.750 87.250 L 281.917 87.250 282.061 88.083 C 283.128 94.223,291.043 94.278,291.764 88.151 C 292.087 85.395,290.948 84.171,286.430 82.425 C 280.912 80.293,279.291 78.866,278.588 75.522 C 277.283 69.319,282.351 64.276,288.744 65.415 M323.083 65.616 C 333.859 67.755,338.960 80.763,332.627 89.954 C 327.550 97.323,317.127 98.953,310.000 93.493 C 300.266 86.036,302.337 70.947,313.724 66.363 C 316.605 65.204,319.743 64.953,323.083 65.616 M58.241 72.542 C 58.304 76.323,58.331 82.979,58.302 87.333 L 58.250 95.250 55.750 95.250 L 53.250 95.250 53.205 91.125 L 53.161 87.000 48.605 87.000 L 44.048 87.000 43.325 88.042 C 42.927 88.615,42.557 89.121,42.502 89.167 C 42.448 89.212,41.619 90.372,40.660 91.743 C 39.701 93.114,38.680 94.483,38.392 94.785 L 37.867 95.333 35.095 95.333 C 32.939 95.333,32.304 95.284,32.238 95.111 C 32.191 94.989,33.965 92.345,36.180 89.236 C 38.395 86.127,40.592 83.036,41.062 82.366 C 41.532 81.697,42.150 80.835,42.435 80.450 C 42.720 80.065,45.002 76.862,47.507 73.333 C 50.011 69.804,52.278 66.635,52.544 66.292 L 53.028 65.667 55.578 65.667 L 58.127 65.667 58.241 72.542 M75.583 66.142 C 76.317 66.339,77.067 66.568,77.250 66.650 C 77.433 66.733,77.955 66.965,78.409 67.167 C 84.633 69.932,87.768 78.683,85.215 86.167 C 83.988 89.764,81.885 92.143,78.583 93.673 C 77.942 93.970,77.297 94.271,77.150 94.342 C 75.789 95.003,73.431 95.221,67.500 95.236 L 61.583 95.250 61.500 80.625 C 61.454 72.581,61.444 65.919,61.477 65.820 C 61.603 65.442,74.038 65.726,75.583 66.142 M93.250 76.527 C 93.250 87.123,93.280 87.889,93.666 87.168 C 94.048 86.454,107.732 65.914,107.905 65.793 C 108.003 65.726,111.946 65.688,116.667 65.710 L 125.250 65.750 125.250 67.667 L 125.250 69.583 119.833 69.667 L 114.417 69.750 114.417 74.000 L 114.417 78.250 119.833 78.333 L 125.250 78.417 125.250 80.333 L 125.250 82.250 119.833 82.333 L 114.417 82.417 114.372 86.686 C 114.337 90.110,114.372 90.992,114.553 91.142 C 114.706 91.269,116.451 91.343,120.014 91.373 L 125.250 91.417 125.298 93.142 C 125.329 94.272,125.279 94.948,125.152 95.101 C 124.871 95.439,110.636 95.447,110.355 95.109 C 110.223 94.950,110.156 91.354,110.126 82.659 L 110.083 70.433 108.500 72.880 C 107.629 74.225,106.842 75.462,106.750 75.628 C 106.658 75.794,106.314 76.339,105.985 76.840 C 105.656 77.340,104.288 79.456,102.944 81.542 C 99.362 87.099,95.712 92.759,94.896 94.021 C 94.504 94.628,94.060 95.172,93.911 95.229 C 93.493 95.389,88.365 95.353,88.264 95.189 C 88.201 95.087,88.110 68.632,88.163 65.871 C 88.166 65.706,88.736 65.668,90.708 65.704 L 93.250 65.750 93.250 76.527 M134.261 68.208 C 135.247 69.606,136.742 71.725,137.582 72.917 C 138.423 74.108,139.494 75.646,139.962 76.333 C 140.430 77.021,141.136 78.041,141.531 78.601 C 141.927 79.160,143.255 81.052,144.482 82.804 C 145.710 84.556,146.779 85.950,146.857 85.902 C 146.936 85.853,147.000 81.281,147.000 75.740 L 147.000 65.667 149.168 65.667 L 151.335 65.667 151.293 80.458 L 151.250 95.250 149.333 95.298 C 146.956 95.358,146.784 95.315,146.315 94.542 C 145.888 93.839,136.748 79.561,134.022 75.340 L 132.250 72.597 132.207 83.831 C 132.174 92.564,132.118 95.094,131.957 95.197 C 131.613 95.415,128.094 95.361,127.867 95.133 C 127.649 94.915,127.561 65.995,127.778 65.778 C 127.839 65.717,128.919 65.667,130.178 65.667 L 132.468 65.667 134.261 68.208 M170.297 67.625 L 170.250 69.583 167.458 69.629 L 164.667 69.675 164.667 82.403 C 164.667 93.856,164.640 95.141,164.403 95.232 C 163.960 95.402,160.832 95.345,160.487 95.160 C 160.170 94.990,160.163 94.703,160.169 82.368 L 160.175 69.750 157.379 69.667 L 154.583 69.583 154.536 67.845 C 154.509 66.888,154.526 66.007,154.572 65.886 C 154.640 65.709,156.164 65.667,162.500 65.667 L 170.344 65.667 170.297 67.625 M177.001 75.708 C 177.003 86.539,177.052 87.319,177.845 88.952 C 179.708 92.789,185.611 92.789,187.493 88.952 C 188.258 87.395,188.323 86.350,188.328 75.537 L 188.333 65.657 190.458 65.703 L 192.583 65.750 192.636 75.917 C 192.673 83.099,192.631 86.491,192.492 87.472 C 191.012 97.908,176.107 98.922,173.039 88.795 C 172.775 87.925,172.491 66.531,172.735 65.896 C 172.803 65.718,173.292 65.667,174.911 65.667 L 177.000 65.667 177.001 75.708 M208.961 66.042 C 213.465 67.390,215.645 70.615,215.461 75.660 C 215.364 78.327,214.854 79.744,213.341 81.550 C 212.462 82.600,209.929 83.887,208.325 84.100 C 207.090 84.264,207.010 84.110,211.247 89.755 C 213.413 92.641,215.139 95.077,215.083 95.168 C 214.885 95.488,210.252 95.376,209.874 95.042 C 209.692 94.881,207.505 91.883,205.012 88.379 C 202.520 84.875,200.410 81.964,200.324 81.911 C 200.226 81.851,200.167 84.311,200.167 88.386 C 200.167 96.106,200.420 95.363,197.809 95.297 L 195.917 95.250 195.874 80.446 L 195.832 65.641 201.957 65.710 C 206.901 65.766,208.253 65.830,208.961 66.042 M233.917 67.667 L 233.917 69.583 228.122 69.627 L 222.328 69.671 222.372 73.960 L 222.417 78.250 228.167 78.333 L 233.917 78.417 233.917 80.333 L 233.917 82.250 228.122 82.294 L 222.328 82.338 222.372 86.794 L 222.417 91.250 228.167 91.333 L 233.917 91.417 233.964 93.237 C 233.999 94.580,233.956 95.092,233.798 95.192 C 233.472 95.399,218.544 95.369,218.156 95.161 C 217.834 94.988,217.621 66.748,217.935 65.929 C 218.027 65.690,218.845 65.668,225.977 65.707 L 233.917 65.750 233.917 67.667 M249.631 66.708 C 249.816 67.190,250.281 68.408,250.665 69.417 C 251.049 70.425,251.465 71.512,251.590 71.833 C 251.716 72.154,252.127 73.242,252.505 74.250 C 252.883 75.258,253.254 76.233,253.330 76.417 C 253.405 76.600,253.632 77.200,253.833 77.750 C 254.035 78.300,254.264 78.900,254.343 79.083 C 254.423 79.267,254.905 80.542,255.415 81.917 C 255.925 83.292,256.408 84.567,256.489 84.750 C 256.919 85.731,257.668 87.780,257.668 87.972 C 257.663 89.011,258.586 86.565,261.750 77.145 C 263.767 71.142,265.477 66.141,265.552 66.032 C 265.703 65.809,270.260 65.740,270.386 65.958 C 270.425 66.027,269.090 70.208,267.419 75.250 C 265.747 80.292,263.623 86.704,262.697 89.500 C 261.771 92.296,260.890 94.941,260.740 95.379 L 260.466 96.175 257.953 96.129 L 255.441 96.083 255.147 95.333 C 254.986 94.921,254.555 93.758,254.190 92.750 C 252.855 89.058,251.294 84.714,250.808 83.333 C 250.534 82.554,250.167 81.542,249.993 81.083 C 249.820 80.625,249.221 78.975,248.662 77.417 C 248.103 75.858,247.281 73.571,246.835 72.333 C 244.918 67.015,244.667 66.290,244.667 66.068 C 244.667 65.878,245.103 65.833,246.981 65.833 L 249.295 65.833 249.631 66.708 M275.167 81.000 L 275.167 96.167 273.002 96.167 L 270.837 96.167 270.793 81.125 C 270.770 72.852,270.773 66.027,270.802 65.958 C 270.830 65.890,271.824 65.833,273.010 65.833 L 275.167 65.833 275.167 81.000 M302.667 81.005 L 302.667 96.176 300.458 96.130 L 298.250 96.083 298.207 81.167 C 298.183 72.962,298.200 66.156,298.243 66.042 C 298.301 65.890,298.911 65.833,300.495 65.833 L 302.667 65.833 302.667 81.005 M342.340 67.125 C 342.840 67.835,343.666 69.017,344.177 69.750 C 344.687 70.483,346.107 72.508,347.332 74.250 C 348.557 75.992,350.136 78.242,350.841 79.250 C 351.545 80.258,352.961 82.283,353.987 83.750 C 355.013 85.217,355.961 86.441,356.093 86.471 C 356.300 86.517,356.333 85.107,356.333 76.174 L 356.333 65.824 358.502 65.870 L 360.671 65.917 360.671 81.000 L 360.671 96.083 358.377 96.125 L 356.083 96.167 353.482 92.125 C 349.594 86.083,343.318 76.291,341.945 74.125 C 341.611 73.598,341.262 73.167,341.169 73.167 C 341.056 73.167,341.000 77.019,341.000 84.672 L 341.000 96.176 338.792 96.130 L 336.583 96.083 336.540 81.167 C 336.517 72.962,336.533 66.156,336.577 66.042 C 336.635 65.888,337.287 65.833,339.044 65.833 L 341.432 65.833 342.340 67.125 M317.333 69.517 C 315.856 69.905,315.339 70.095,314.262 70.647 C 305.850 74.960,306.650 88.698,315.500 91.894 C 325.537 95.518,334.362 85.351,329.666 75.573 C 327.550 71.167,321.801 68.343,317.333 69.517 M65.778 69.778 C 65.562 69.994,65.649 90.915,65.867 91.133 C 66.481 91.748,73.720 91.221,75.750 90.414 C 84.810 86.814,83.527 72.415,73.932 69.999 C 72.606 69.665,66.068 69.488,65.778 69.778 M200.167 75.250 L 200.167 80.833 202.708 80.827 C 208.558 80.814,211.167 79.067,211.167 75.162 C 211.167 71.321,208.728 69.673,203.042 69.669 L 200.167 69.667 200.167 75.250 M49.958 77.626 C 48.240 80.216,46.833 82.372,46.833 82.417 C 46.833 82.553,53.143 82.511,53.198 82.375 C 53.227 82.306,53.212 80.150,53.167 77.583 L 53.083 72.917 49.958 77.626 " stroke="none" fill="#e4140d" fill-rule="evenodd"></path><path id="path2" d="M284.917 57.000 C 284.860 57.092,284.331 57.167,283.740 57.167 C 283.136 57.167,282.667 57.239,282.667 57.333 C 282.667 57.443,278.778 57.500,271.333 57.500 C 263.889 57.500,260.000 57.557,260.000 57.667 C 260.000 57.758,259.886 57.833,259.746 57.833 C 259.606 57.833,259.423 58.014,259.339 58.234 C 259.256 58.454,259.108 58.683,259.010 58.744 C 258.913 58.804,258.833 59.111,258.833 59.427 C 258.833 59.742,258.758 60.000,258.667 60.000 C 258.575 60.000,258.500 60.150,258.500 60.333 C 258.500 60.517,258.425 60.667,258.333 60.667 C 258.242 60.667,258.167 60.892,258.167 61.167 C 258.167 61.442,258.092 61.667,258.000 61.667 C 257.908 61.667,257.833 61.897,257.833 62.179 C 257.833 62.460,257.726 62.798,257.595 62.929 C 257.279 63.245,257.167 63.229,257.167 62.867 C 257.167 62.494,256.794 61.670,256.625 61.668 C 256.556 61.667,256.500 61.442,256.500 61.167 C 256.500 60.892,256.425 60.667,256.333 60.667 C 256.242 60.667,256.167 60.442,256.167 60.167 C 256.167 59.892,256.092 59.667,256.000 59.667 C 255.908 59.667,255.833 59.517,255.833 59.333 C 255.833 59.150,255.764 59.000,255.680 59.000 C 255.596 59.000,255.475 58.766,255.412 58.480 C 255.345 58.172,255.169 57.926,254.982 57.877 C 254.809 57.832,254.667 57.728,254.667 57.647 C 254.667 57.563,245.216 57.500,232.500 57.500 C 217.833 57.500,210.333 57.556,210.333 57.667 C 210.333 57.758,210.108 57.833,209.833 57.833 C 209.558 57.833,209.333 57.758,209.333 57.667 C 209.333 57.556,197.576 57.500,174.394 57.500 L 139.455 57.500 139.061 57.958 C 138.844 58.210,138.667 58.623,138.667 58.875 C 138.667 59.127,138.626 59.333,138.576 59.333 C 138.415 59.333,137.667 58.521,137.667 58.347 C 137.667 58.255,137.503 58.027,137.302 57.840 C 136.889 57.455,103.333 57.284,103.333 57.667 C 103.333 57.758,103.183 57.833,103.000 57.833 C 102.778 57.833,102.667 57.944,102.667 58.167 C 102.667 58.350,102.597 58.500,102.511 58.500 C 102.426 58.500,102.303 58.665,102.239 58.867 C 102.123 59.235,101.775 59.667,101.595 59.667 C 101.543 59.667,101.500 59.385,101.500 59.042 C 101.500 58.625,101.368 58.264,101.105 57.958 L 100.711 57.500 90.672 57.500 L 80.634 57.500 80.167 58.000 C 79.715 58.484,78.833 58.704,78.833 58.333 C 78.833 58.242,78.533 58.167,78.167 58.167 C 77.800 58.167,77.500 58.092,77.500 58.000 C 77.500 57.908,77.092 57.833,76.593 57.833 C 76.094 57.833,75.640 57.758,75.583 57.667 C 75.441 57.436,48.667 57.436,48.667 57.667 C 48.667 57.758,48.517 57.833,48.333 57.833 C 48.115 57.833,48.000 57.944,48.000 58.155 C 48.000 58.333,47.862 58.521,47.693 58.575 C 47.525 58.628,47.281 58.877,47.153 59.128 C 47.024 59.378,46.787 59.705,46.626 59.853 C 46.465 60.001,46.333 60.208,46.333 60.313 C 46.333 60.417,46.108 60.738,45.833 61.026 C 45.558 61.314,45.333 61.653,45.333 61.780 C 45.333 61.907,45.221 62.054,45.083 62.106 C 44.946 62.159,44.833 62.328,44.833 62.481 C 44.833 62.634,44.683 62.868,44.500 63.000 C 44.317 63.132,44.167 63.344,44.167 63.470 C 44.167 63.596,43.942 63.910,43.667 64.167 C 43.392 64.424,43.167 64.737,43.167 64.863 C 43.167 64.990,43.017 65.201,42.833 65.333 C 42.650 65.465,42.500 65.635,42.500 65.711 C 42.500 65.786,42.315 66.047,42.090 66.290 C 41.864 66.533,41.593 66.943,41.486 67.199 L 41.293 67.667 34.646 67.667 C 30.327 67.667,28.000 67.725,28.000 67.833 C 28.000 67.925,27.915 68.000,27.811 68.000 C 27.601 68.000,27.000 68.637,27.000 68.860 C 27.000 68.939,26.775 69.238,26.500 69.526 C 26.225 69.814,26.000 70.134,26.000 70.238 C 26.000 70.342,25.850 70.535,25.667 70.667 C 25.483 70.799,25.333 71.010,25.333 71.137 C 25.333 71.263,25.108 71.576,24.833 71.833 C 24.558 72.090,24.333 72.371,24.333 72.458 C 24.333 72.544,24.183 72.751,24.000 72.917 C 23.817 73.083,23.667 73.316,23.667 73.435 C 23.667 73.554,23.479 73.839,23.250 74.068 C 23.021 74.297,22.833 74.584,22.833 74.706 C 22.833 74.827,22.683 75.035,22.500 75.167 C 22.317 75.299,22.167 75.535,22.167 75.692 C 22.167 75.849,22.029 76.021,21.860 76.075 C 21.691 76.128,21.448 76.377,21.318 76.628 C 21.189 76.878,20.928 77.242,20.737 77.437 C 20.547 77.631,20.294 78.025,20.176 78.312 C 20.057 78.599,19.894 78.833,19.813 78.833 C 19.733 78.833,19.667 78.978,19.667 79.155 C 19.667 79.333,19.517 79.525,19.333 79.583 C 19.150 79.642,19.000 79.785,19.000 79.903 C 19.000 80.021,18.775 80.353,18.500 80.640 C 18.225 80.928,18.000 81.260,18.000 81.378 C 18.000 81.496,17.850 81.701,17.667 81.833 C 17.483 81.965,17.333 82.173,17.333 82.294 C 17.333 82.416,17.146 82.703,16.917 82.932 C 16.687 83.161,16.500 83.421,16.500 83.509 C 16.500 83.597,16.275 83.905,16.000 84.193 C 15.725 84.481,15.500 84.801,15.500 84.905 C 15.500 85.008,15.350 85.201,15.167 85.333 C 14.983 85.465,14.833 85.677,14.833 85.803 C 14.833 85.930,14.608 86.243,14.333 86.500 C 14.058 86.757,13.833 87.049,13.833 87.150 C 13.833 87.251,13.767 87.333,13.686 87.333 C 13.604 87.333,13.405 87.615,13.243 87.958 C 13.081 88.302,12.810 88.705,12.641 88.853 C 12.472 89.001,12.333 89.228,12.333 89.358 C 12.333 89.487,12.183 89.701,12.000 89.833 C 11.817 89.965,11.667 90.133,11.667 90.205 C 11.667 90.277,11.442 90.572,11.167 90.860 C 10.892 91.147,10.667 91.484,10.667 91.608 C 10.667 91.732,10.592 91.833,10.500 91.833 C 10.408 91.833,10.333 91.983,10.333 92.167 C 10.333 92.350,10.258 92.500,10.167 92.500 C 9.694 92.500,9.999 94.177,10.578 94.756 L 11.156 95.333 16.161 95.333 C 21.506 95.333,21.894 95.402,20.833 96.167 C 20.650 96.299,20.500 96.506,20.500 96.628 C 20.500 96.750,20.312 97.023,20.083 97.235 C 19.854 97.448,19.667 97.728,19.667 97.857 C 19.667 97.987,19.517 98.201,19.333 98.333 C 19.150 98.465,19.000 98.677,19.000 98.803 C 19.000 98.930,18.775 99.243,18.500 99.500 C 18.225 99.757,18.000 100.087,18.000 100.234 C 18.000 100.380,17.925 100.500,17.833 100.500 C 17.739 100.500,17.667 100.972,17.667 101.583 C 17.667 102.179,17.733 102.667,17.814 102.667 C 17.895 102.667,18.000 102.817,18.048 103.000 C 18.096 103.183,18.255 103.333,18.401 103.333 C 18.547 103.333,18.667 103.408,18.667 103.500 C 18.667 103.610,22.694 103.667,30.417 103.667 C 38.139 103.667,42.167 103.610,42.167 103.500 C 42.167 103.408,42.260 103.333,42.375 103.333 C 42.664 103.333,43.500 102.590,43.500 102.333 C 43.500 102.217,43.639 102.001,43.809 101.853 C 43.979 101.705,44.276 101.283,44.468 100.917 L 44.819 100.250 44.826 101.379 C 44.833 102.409,44.880 102.560,45.360 103.088 L 45.887 103.667 59.827 103.667 C 68.140 103.667,73.831 103.604,73.925 103.513 C 74.012 103.428,74.646 103.319,75.333 103.271 C 77.189 103.142,78.167 102.985,78.167 102.817 C 78.167 102.734,78.414 102.667,78.717 102.667 C 79.019 102.667,79.349 102.584,79.450 102.484 C 79.583 102.351,79.825 102.488,80.336 102.984 L 81.040 103.667 89.770 103.667 C 95.479 103.667,98.500 103.609,98.500 103.500 C 98.500 103.408,98.615 103.333,98.755 103.333 C 98.896 103.333,99.059 103.202,99.119 103.042 C 99.178 102.881,99.363 102.629,99.530 102.480 C 99.697 102.332,99.833 102.105,99.833 101.976 C 99.833 101.846,99.983 101.632,100.167 101.500 C 100.350 101.368,100.500 101.161,100.500 101.040 C 100.500 100.918,100.638 100.671,100.807 100.490 C 100.975 100.309,101.219 99.956,101.348 99.706 C 101.477 99.455,101.635 99.210,101.700 99.162 C 101.764 99.114,101.891 98.889,101.981 98.662 C 102.103 98.356,102.151 98.807,102.168 100.417 C 102.193 102.877,102.243 103.081,102.898 103.421 C 103.479 103.722,139.333 103.800,139.333 103.500 C 139.333 103.408,139.453 103.333,139.599 103.333 C 139.745 103.333,139.904 103.183,139.952 103.000 C 140.000 102.817,140.105 102.667,140.186 102.667 C 140.267 102.667,140.333 102.292,140.333 101.833 C 140.333 101.375,140.408 101.000,140.500 101.000 C 140.592 101.000,140.667 101.133,140.667 101.297 C 140.667 101.460,140.817 101.701,141.000 101.833 C 141.183 101.965,141.333 102.202,141.333 102.358 C 141.333 102.514,141.613 102.873,141.955 103.155 L 142.576 103.667 157.205 103.667 C 165.558 103.667,171.833 103.604,171.833 103.519 C 171.833 103.438,171.983 103.333,172.167 103.285 C 172.350 103.237,172.500 103.078,172.500 102.932 C 172.500 102.786,172.575 102.667,172.667 102.667 C 172.758 102.667,172.833 102.442,172.833 102.167 C 172.833 101.714,173.057 101.482,173.194 101.792 C 173.285 101.994,175.353 103.000,175.680 103.000 C 175.845 103.000,176.027 103.075,176.083 103.167 C 176.140 103.258,176.354 103.333,176.560 103.333 C 176.765 103.333,177.014 103.414,177.112 103.512 C 177.210 103.610,178.013 103.734,178.895 103.787 C 179.778 103.839,180.500 103.946,180.500 104.024 C 180.500 104.103,181.475 104.167,182.667 104.167 C 183.858 104.167,184.833 104.103,184.833 104.025 C 184.833 103.717,189.085 103.665,214.507 103.668 L 240.932 103.670 241.549 103.104 L 242.167 102.538 242.167 99.103 L 242.167 95.667 244.208 95.668 L 246.250 95.669 246.458 96.118 C 246.573 96.365,246.667 96.702,246.667 96.867 C 246.667 97.032,246.742 97.167,246.833 97.167 C 246.925 97.167,247.000 97.392,247.000 97.667 C 247.000 97.942,247.075 98.167,247.167 98.167 C 247.258 98.167,247.333 98.392,247.333 98.667 C 247.333 98.942,247.408 99.167,247.500 99.167 C 247.592 99.167,247.667 99.354,247.667 99.583 C 247.667 99.813,247.742 100.000,247.833 100.000 C 247.925 100.000,248.000 100.150,248.000 100.333 C 248.000 100.517,248.075 100.667,248.167 100.667 C 248.258 100.667,248.333 100.892,248.333 101.167 C 248.333 101.442,248.408 101.667,248.500 101.667 C 248.592 101.667,248.667 101.862,248.667 102.100 C 248.667 102.935,249.404 104.167,249.905 104.167 C 250.049 104.167,250.167 104.242,250.167 104.333 C 250.167 104.443,255.694 104.500,266.417 104.500 C 277.139 104.500,282.667 104.557,282.667 104.667 C 282.667 104.761,283.136 104.833,283.740 104.833 C 284.331 104.833,284.860 104.908,284.917 105.000 C 284.976 105.095,285.832 105.167,286.917 105.167 C 288.002 105.167,288.858 105.095,288.917 105.000 C 288.973 104.908,289.503 104.833,290.093 104.833 C 290.698 104.833,291.167 104.761,291.167 104.667 C 291.167 104.558,294.417 104.500,300.583 104.500 C 306.750 104.500,310.000 104.442,310.000 104.333 C 310.000 104.242,310.150 104.167,310.333 104.167 C 310.524 104.167,310.667 104.056,310.667 103.906 C 310.667 103.621,312.192 103.729,312.306 104.023 C 312.336 104.102,312.617 104.167,312.931 104.167 C 313.244 104.167,313.500 104.242,313.500 104.333 C 313.500 104.425,313.800 104.500,314.167 104.500 C 314.533 104.500,314.833 104.575,314.833 104.667 C 314.833 104.763,315.358 104.833,316.073 104.833 C 316.756 104.833,317.360 104.908,317.417 105.000 C 317.476 105.096,318.363 105.167,319.510 105.167 C 320.726 105.167,321.500 105.102,321.500 105.000 C 321.500 104.902,322.083 104.833,322.917 104.833 C 323.750 104.833,324.333 104.765,324.333 104.667 C 324.333 104.575,324.633 104.500,325.000 104.500 C 325.367 104.500,325.667 104.425,325.667 104.333 C 325.667 104.242,325.923 104.167,326.236 104.167 C 326.549 104.167,326.831 104.102,326.861 104.023 C 326.974 103.729,328.500 103.621,328.500 103.906 C 328.500 104.056,328.642 104.167,328.833 104.167 C 329.017 104.167,329.167 104.242,329.167 104.333 C 329.167 104.442,332.444 104.500,338.667 104.500 C 344.889 104.500,348.167 104.442,348.167 104.333 C 348.167 104.242,348.317 104.167,348.500 104.167 C 348.685 104.167,348.833 104.056,348.833 103.917 C 348.833 103.779,348.908 103.667,349.000 103.667 C 349.095 103.667,349.167 103.167,349.167 102.500 C 349.167 101.833,349.238 101.333,349.333 101.333 C 349.425 101.333,349.500 101.467,349.500 101.630 C 349.500 101.793,349.650 102.035,349.833 102.167 C 350.017 102.299,350.167 102.524,350.167 102.667 C 350.167 102.810,350.317 103.035,350.500 103.167 C 350.683 103.299,350.833 103.471,350.833 103.549 C 350.833 103.783,351.291 104.167,351.571 104.167 C 351.715 104.167,351.833 104.242,351.833 104.333 C 351.833 104.442,354.639 104.500,359.917 104.500 C 365.194 104.500,368.000 104.442,368.000 104.333 C 368.000 104.242,368.131 104.166,368.292 104.165 C 368.903 104.163,369.000 103.450,369.000 98.967 L 369.000 94.667 370.174 94.667 C 371.354 94.667,372.167 94.257,372.167 93.663 C 372.167 93.562,372.392 93.289,372.667 93.058 C 372.942 92.826,373.167 92.535,373.167 92.409 C 373.167 92.284,373.354 91.994,373.583 91.765 C 373.813 91.536,374.000 91.268,374.000 91.169 C 374.000 91.070,374.244 90.739,374.542 90.434 C 375.211 89.749,376.226 88.512,376.318 88.269 C 376.356 88.170,376.469 87.997,376.568 87.884 C 377.060 87.327,377.167 87.164,377.168 86.965 C 377.169 86.847,377.394 86.573,377.668 86.356 C 377.942 86.140,378.167 85.889,378.167 85.798 C 378.167 85.708,378.392 85.424,378.667 85.167 C 378.942 84.910,379.167 84.610,379.167 84.500 C 379.167 84.390,379.392 84.090,379.667 83.833 C 379.942 83.576,380.167 83.276,380.167 83.166 C 380.167 83.057,380.429 82.704,380.750 82.383 C 381.071 82.062,381.333 81.725,381.333 81.634 C 381.333 81.542,381.558 81.257,381.833 81.000 C 382.108 80.743,382.333 80.443,382.333 80.333 C 382.333 80.224,382.558 79.924,382.833 79.667 C 383.108 79.410,383.333 79.130,383.333 79.046 C 383.333 78.961,383.521 78.715,383.750 78.500 C 383.979 78.285,384.167 78.002,384.167 77.871 C 384.167 77.741,384.392 77.424,384.667 77.167 C 384.942 76.910,385.167 76.610,385.167 76.500 C 385.167 76.390,385.392 76.090,385.667 75.833 C 385.942 75.576,386.167 75.321,386.167 75.265 C 386.167 75.209,386.399 74.921,386.684 74.623 C 386.968 74.326,387.316 73.858,387.458 73.583 C 387.600 73.308,387.855 72.962,388.025 72.814 C 388.194 72.666,388.333 72.427,388.333 72.283 C 388.333 72.140,388.471 71.979,388.640 71.925 C 388.809 71.872,389.052 71.623,389.181 71.372 C 389.309 71.122,389.546 70.795,389.707 70.647 C 390.197 70.196,390.120 68.272,389.591 67.742 L 389.182 67.333 380.684 67.333 C 375.199 67.333,372.150 67.274,372.083 67.167 C 372.027 67.075,371.310 67.000,370.490 67.000 L 369.000 67.000 369.000 62.750 C 369.000 60.028,368.940 58.500,368.833 58.500 C 368.742 58.500,368.667 58.350,368.667 58.167 C 368.667 57.944,368.556 57.833,368.333 57.833 C 368.150 57.833,368.000 57.758,368.000 57.667 C 368.000 57.557,364.694 57.500,358.417 57.500 C 352.139 57.500,348.833 57.557,348.833 57.667 C 348.833 57.758,348.721 57.833,348.583 57.833 C 348.444 57.833,348.333 57.981,348.333 58.167 C 348.333 58.350,348.258 58.500,348.167 58.500 C 348.075 58.500,347.999 58.894,347.997 59.375 L 347.994 60.250 347.539 59.677 C 347.288 59.361,346.925 58.937,346.733 58.735 C 346.540 58.532,346.336 58.247,346.279 58.100 C 346.223 57.953,346.062 57.833,345.922 57.833 C 345.782 57.833,345.667 57.758,345.667 57.667 C 345.667 57.558,342.806 57.500,337.417 57.500 C 332.028 57.500,329.167 57.558,329.167 57.667 C 329.167 57.758,329.017 57.833,328.833 57.833 C 328.611 57.833,328.500 57.944,328.500 58.167 C 328.500 58.350,328.425 58.500,328.333 58.500 C 328.242 58.500,328.167 58.425,328.167 58.333 C 328.167 58.242,327.942 58.167,327.667 58.167 C 327.392 58.167,327.167 58.092,327.167 58.000 C 327.167 57.908,326.904 57.833,326.583 57.833 C 326.262 57.833,326.000 57.758,326.000 57.667 C 326.000 57.575,325.625 57.500,325.167 57.500 C 324.708 57.500,324.333 57.425,324.333 57.333 C 324.333 57.239,323.864 57.167,323.260 57.167 C 322.669 57.167,322.140 57.092,322.083 57.000 C 322.023 56.902,321.057 56.833,319.750 56.833 C 318.443 56.833,317.477 56.902,317.417 57.000 C 317.360 57.092,316.756 57.167,316.073 57.167 C 315.358 57.167,314.833 57.237,314.833 57.333 C 314.833 57.425,314.500 57.500,314.093 57.500 C 313.686 57.500,313.307 57.575,313.250 57.667 C 313.193 57.758,312.964 57.833,312.740 57.833 C 312.516 57.833,312.333 57.908,312.333 58.000 C 312.333 58.092,312.108 58.167,311.833 58.167 C 311.558 58.167,311.333 58.242,311.333 58.333 C 311.333 58.425,311.183 58.500,311.000 58.500 C 310.778 58.500,310.667 58.389,310.667 58.167 C 310.667 57.944,310.556 57.833,310.333 57.833 C 310.150 57.833,310.000 57.758,310.000 57.667 C 310.000 57.558,306.750 57.500,300.583 57.500 C 294.417 57.500,291.167 57.442,291.167 57.333 C 291.167 57.239,290.694 57.167,290.083 57.167 C 289.472 57.167,289.000 57.094,289.000 57.000 C 289.000 56.898,288.226 56.833,287.010 56.833 C 285.863 56.833,284.976 56.904,284.917 57.000 M290.333 59.083 C 291.195 59.273,293.230 59.323,300.292 59.327 L 309.167 59.333 309.167 60.139 C 309.167 61.259,309.346 61.290,310.984 60.456 C 311.296 60.297,311.685 60.167,311.849 60.167 C 312.013 60.167,312.193 60.092,312.250 60.000 C 312.307 59.908,312.532 59.833,312.750 59.833 C 312.968 59.833,313.188 59.767,313.238 59.686 C 313.288 59.605,313.536 59.500,313.790 59.453 C 314.043 59.406,314.887 59.248,315.667 59.101 C 319.197 58.435,325.206 58.997,327.663 60.223 C 327.968 60.376,328.285 60.500,328.367 60.500 C 328.449 60.500,328.809 60.641,329.166 60.814 C 329.955 61.195,330.000 61.158,330.000 60.139 L 330.000 59.333 337.410 59.333 L 344.821 59.333 345.491 60.292 C 345.859 60.819,346.858 62.257,347.711 63.488 C 349.758 66.444,349.651 66.490,349.705 62.638 L 349.750 59.417 358.458 59.374 L 367.167 59.330 367.167 63.902 C 367.167 66.416,367.212 68.591,367.268 68.736 C 367.359 68.973,368.439 69.000,377.768 69.000 C 384.856 69.000,388.167 69.055,388.167 69.173 C 388.167 69.332,382.712 76.632,382.216 77.137 C 382.097 77.258,382.000 77.409,382.000 77.472 C 382.000 77.535,381.831 77.773,381.625 78.002 C 381.419 78.230,380.805 79.017,380.262 79.750 C 379.719 80.483,379.230 81.121,379.176 81.167 C 379.122 81.212,378.517 82.000,377.832 82.917 C 376.043 85.310,371.280 91.568,371.172 91.667 C 371.121 91.712,370.894 92.029,370.666 92.369 L 370.251 92.989 368.751 93.036 L 367.250 93.083 367.206 97.875 L 367.162 102.667 359.997 102.667 C 356.057 102.667,352.777 102.680,352.708 102.696 C 352.590 102.724,351.032 100.536,351.010 100.310 C 351.005 100.252,350.411 99.313,349.691 98.224 C 348.971 97.135,348.256 96.001,348.103 95.705 C 347.585 94.702,347.507 95.083,347.462 98.875 L 347.417 102.583 338.708 102.626 L 330.000 102.670 330.000 101.845 C 330.000 100.675,329.609 100.698,327.127 102.013 C 326.968 102.098,326.711 102.167,326.556 102.167 C 326.287 102.167,325.471 102.396,324.750 102.675 C 323.071 103.324,316.450 103.325,314.500 102.677 C 314.271 102.601,313.746 102.446,313.333 102.333 C 312.298 102.049,310.860 101.498,310.186 101.126 C 309.383 100.682,309.167 100.831,309.167 101.828 L 309.167 102.667 300.458 102.667 C 293.467 102.667,291.471 102.716,290.333 102.917 C 288.081 103.313,283.227 103.170,282.417 102.684 C 282.325 102.628,275.251 102.621,266.696 102.667 C 249.396 102.759,250.910 102.861,250.486 101.583 C 250.365 101.217,250.206 100.845,250.133 100.758 C 250.060 100.671,250.000 100.442,250.000 100.250 C 250.000 100.057,249.934 99.829,249.854 99.742 C 249.774 99.655,249.539 99.058,249.332 98.417 C 249.125 97.775,248.914 97.178,248.863 97.091 C 248.813 97.003,248.537 96.253,248.250 95.424 L 247.728 93.917 244.072 93.917 L 240.417 93.917 240.333 97.833 L 240.250 101.750 214.803 101.792 C 189.470 101.834,189.356 101.833,189.250 101.501 C 189.143 101.164,188.598 101.040,188.429 101.314 C 188.378 101.395,188.130 101.499,187.877 101.545 C 187.624 101.591,186.967 101.761,186.417 101.922 C 184.999 102.337,180.350 102.340,178.917 101.926 C 178.367 101.768,177.692 101.578,177.417 101.505 C 176.308 101.210,173.667 100.014,173.667 99.807 C 173.667 99.730,173.568 99.667,173.448 99.667 C 173.328 99.667,173.084 99.532,172.906 99.367 C 172.330 98.831,171.281 98.179,171.139 98.267 C 171.062 98.314,171.000 99.136,171.000 100.093 L 171.000 101.833 157.163 101.833 L 143.325 101.833 141.579 99.160 C 140.619 97.690,139.833 96.450,139.833 96.404 C 139.833 96.279,139.108 95.268,138.925 95.136 C 138.560 94.874,138.500 95.347,138.500 98.510 L 138.500 101.833 121.167 101.833 L 103.833 101.833 103.833 97.681 C 103.833 92.059,103.678 92.045,100.501 97.375 C 100.187 97.902,99.870 98.333,99.798 98.333 C 99.726 98.333,99.667 98.404,99.667 98.490 C 99.667 98.576,99.207 99.365,98.646 100.242 L 97.626 101.837 89.688 101.793 L 81.750 101.750 81.700 100.708 C 81.654 99.732,81.089 99.153,80.806 99.792 C 80.757 99.900,78.950 100.543,77.417 100.996 C 76.839 101.167,75.133 101.415,72.750 101.674 C 71.654 101.794,66.919 101.838,58.917 101.803 L 46.750 101.750 46.705 98.458 C 46.656 94.926,46.601 94.736,45.863 95.585 C 45.664 95.814,45.500 96.043,45.500 96.092 C 45.500 96.141,45.045 96.796,44.488 97.549 C 43.931 98.301,43.370 99.067,43.240 99.250 C 43.111 99.433,42.646 100.071,42.207 100.667 L 41.409 101.750 30.455 101.793 C 23.109 101.822,19.500 101.780,19.500 101.666 C 19.500 101.511,20.588 99.861,20.818 99.667 C 20.872 99.621,20.992 99.463,21.083 99.317 C 21.442 98.743,22.191 97.667,23.566 95.750 C 24.355 94.651,25.000 93.657,25.000 93.542 C 25.000 93.378,23.613 93.333,18.583 93.333 C 13.560 93.333,12.167 93.288,12.168 93.125 C 12.169 92.949,13.744 90.612,14.835 89.167 C 15.008 88.938,15.599 88.112,16.149 87.333 C 16.698 86.554,17.211 85.842,17.287 85.750 C 17.363 85.658,17.609 85.321,17.833 85.000 C 18.058 84.679,18.305 84.342,18.384 84.250 C 18.463 84.158,19.160 83.183,19.933 82.083 C 21.604 79.705,22.105 79.006,24.928 75.103 C 26.113 73.464,27.374 71.701,27.730 71.186 C 28.086 70.671,28.567 70.045,28.801 69.794 L 29.225 69.337 35.817 69.294 L 42.408 69.250 44.377 66.500 C 45.460 64.987,46.437 63.632,46.548 63.487 C 46.659 63.342,46.825 63.105,46.917 62.960 C 47.179 62.545,49.294 59.607,49.497 59.375 C 49.719 59.122,72.805 59.069,74.117 59.319 C 74.557 59.402,75.479 59.559,76.167 59.666 C 77.363 59.853,79.955 60.658,80.833 61.115 C 81.459 61.440,81.480 61.415,81.534 60.292 L 81.583 59.250 90.621 59.207 L 99.659 59.164 99.705 62.360 C 99.735 64.521,99.810 65.576,99.935 65.617 C 100.037 65.651,100.817 64.608,101.669 63.298 C 102.520 61.988,103.262 60.879,103.317 60.833 C 103.372 60.788,103.524 60.544,103.653 60.292 C 103.783 60.040,103.952 59.833,104.028 59.833 C 104.104 59.833,104.167 59.729,104.167 59.601 C 104.167 59.178,104.591 59.167,120.262 59.167 L 135.830 59.167 136.574 60.208 C 136.984 60.781,137.660 61.715,138.076 62.282 C 138.493 62.850,138.833 63.387,138.833 63.477 C 138.833 63.566,138.894 63.664,138.968 63.694 C 139.042 63.725,139.347 64.108,139.645 64.545 C 140.428 65.693,140.500 65.490,140.500 62.155 L 140.500 59.163 174.292 59.220 C 199.468 59.262,208.317 59.327,209.000 59.474 C 211.003 59.904,211.500 59.914,211.500 59.521 L 211.500 59.167 222.639 59.167 C 228.766 59.167,238.278 59.216,243.777 59.277 L 253.776 59.387 253.985 59.902 C 254.100 60.185,254.256 60.567,254.330 60.750 C 254.405 60.933,254.558 61.346,254.669 61.667 C 254.781 61.987,254.967 62.475,255.084 62.750 C 255.200 63.025,255.533 63.925,255.824 64.750 C 257.442 69.330,257.618 69.273,259.427 63.583 C 259.864 62.208,260.284 61.012,260.361 60.925 C 260.437 60.838,260.500 60.635,260.500 60.475 C 260.500 60.314,260.588 59.988,260.696 59.751 L 260.893 59.321 271.738 59.327 C 280.445 59.331,282.781 59.287,283.583 59.100 C 284.937 58.785,288.933 58.775,290.333 59.083 M285.333 60.620 C 284.094 60.761,282.592 61.191,281.382 61.750 C 280.688 62.071,280.093 62.333,280.060 62.333 C 280.027 62.333,280.000 62.070,280.000 61.749 L 280.000 61.164 271.046 61.207 L 262.093 61.250 260.671 65.500 L 259.250 69.750 257.562 69.797 C 256.069 69.839,255.860 69.810,255.759 69.547 C 255.697 69.384,255.233 68.162,254.729 66.833 C 254.225 65.504,253.750 64.267,253.673 64.083 C 253.596 63.900,253.314 63.188,253.047 62.500 L 252.562 61.250 242.906 61.128 C 237.595 61.061,228.750 61.023,223.250 61.045 L 213.250 61.083 213.239 61.740 C 213.225 62.573,213.129 62.596,211.784 62.090 C 209.049 61.061,209.405 61.083,195.917 61.083 L 183.583 61.083 183.500 65.500 L 183.417 69.917 182.667 69.917 L 181.917 69.917 181.833 65.500 L 181.750 61.083 162.042 61.041 L 142.333 60.999 142.333 65.479 C 142.333 71.640,142.381 71.615,139.243 67.141 C 138.064 65.459,136.623 63.390,136.040 62.542 L 134.981 61.000 120.185 61.000 L 105.388 61.000 102.152 65.833 C 99.230 70.199,98.873 70.667,98.461 70.667 L 98.005 70.667 97.961 65.875 L 97.917 61.083 90.667 61.083 L 83.417 61.083 83.391 62.720 C 83.360 64.674,83.361 64.673,82.474 64.086 C 80.558 62.818,78.361 61.939,75.750 61.395 C 74.365 61.107,73.335 61.083,62.339 61.083 L 50.427 61.083 49.005 63.111 C 48.223 64.226,46.765 66.289,45.764 67.694 C 44.764 69.100,43.802 70.456,43.628 70.708 L 43.311 71.167 36.669 71.167 L 30.028 71.167 29.539 71.792 C 29.270 72.135,27.739 74.254,26.137 76.500 C 24.535 78.746,21.486 83.008,19.361 85.972 C 17.236 88.936,15.540 91.430,15.592 91.514 C 15.647 91.602,18.394 91.667,22.111 91.667 C 27.974 91.667,28.527 91.690,28.432 91.938 C 28.375 92.087,27.129 93.881,25.664 95.926 C 24.199 97.970,23.000 99.723,23.000 99.821 C 23.000 100.098,40.182 100.069,40.534 99.792 C 40.680 99.677,41.791 98.196,43.003 96.500 C 44.215 94.804,45.510 93.020,45.880 92.534 L 46.552 91.652 47.484 91.701 L 48.417 91.750 48.461 95.875 L 48.506 100.000 60.176 100.000 C 76.135 100.000,78.444 99.671,82.627 96.802 C 83.480 96.216,83.479 96.215,83.539 98.333 L 83.583 99.917 90.000 99.957 C 93.529 99.979,96.501 99.942,96.604 99.874 C 96.707 99.806,97.710 98.325,98.833 96.583 C 99.955 94.842,101.128 93.023,101.439 92.542 L 102.003 91.667 103.752 91.667 L 105.500 91.667 105.500 95.732 C 105.500 99.286,105.533 99.810,105.764 99.899 C 105.909 99.954,112.840 100.000,121.167 100.000 C 129.493 100.000,136.425 99.954,136.570 99.899 C 136.800 99.810,136.833 99.286,136.833 95.732 L 136.833 91.667 137.903 91.667 C 138.962 91.667,138.977 91.673,139.347 92.292 C 140.092 93.534,143.896 99.424,144.138 99.709 C 144.372 99.984,145.137 100.000,156.818 99.959 L 169.250 99.917 169.293 96.583 C 169.345 92.523,169.346 92.520,170.129 93.804 C 173.938 100.048,183.184 102.422,189.720 98.835 C 190.915 98.180,190.973 98.193,191.033 99.125 L 191.083 99.917 197.917 99.917 L 204.750 99.917 204.797 98.208 C 204.855 96.131,204.814 96.132,206.250 98.178 C 206.892 99.092,207.567 99.878,207.750 99.924 C 207.933 99.970,214.908 99.988,223.250 99.962 L 238.417 99.917 238.500 96.000 L 238.583 92.083 243.765 92.039 L 248.946 91.995 249.815 94.456 C 250.292 95.809,250.823 97.292,250.994 97.750 C 251.165 98.208,251.484 99.071,251.702 99.667 L 252.100 100.750 258.008 100.792 L 263.917 100.834 264.833 98.001 C 265.983 94.447,266.083 94.443,266.083 97.958 L 266.083 100.750 273.042 100.793 L 280.000 100.837 280.000 100.335 C 280.000 99.757,280.021 99.749,280.661 100.081 C 283.639 101.620,288.140 101.857,291.709 100.661 C 293.460 100.075,293.500 100.071,293.500 100.500 C 293.500 100.828,293.611 100.833,300.417 100.833 L 307.333 100.833 307.333 99.343 C 307.333 97.710,307.441 97.511,308.094 97.939 C 315.038 102.489,324.332 102.582,330.751 98.166 C 331.808 97.439,331.833 97.464,331.833 99.250 L 331.833 100.833 338.747 100.833 L 345.661 100.833 345.706 96.125 L 345.750 91.417 346.583 91.370 L 347.417 91.323 349.000 93.823 C 349.871 95.199,351.243 97.340,352.049 98.581 L 353.516 100.838 359.466 100.794 L 365.417 100.750 365.451 96.121 C 365.469 93.576,365.530 91.419,365.586 91.330 C 365.641 91.240,366.494 91.167,367.490 91.167 L 369.293 91.167 370.021 90.208 C 370.421 89.681,370.787 89.212,370.834 89.167 C 370.881 89.121,371.372 88.483,371.926 87.750 C 372.480 87.017,373.789 85.292,374.835 83.917 C 375.881 82.542,377.530 80.367,378.501 79.083 C 379.471 77.800,381.226 75.488,382.402 73.944 C 383.601 72.370,384.476 71.076,384.394 70.996 C 384.315 70.917,380.032 70.799,374.878 70.734 L 365.505 70.615 365.461 65.932 L 365.417 61.250 358.458 61.207 L 351.500 61.163 351.500 65.822 C 351.500 72.541,351.914 72.737,345.000 62.740 L 343.917 61.174 337.875 61.170 L 331.833 61.167 331.833 62.750 C 331.833 63.621,331.803 64.333,331.767 64.333 C 331.731 64.333,331.187 64.021,330.559 63.639 C 323.674 59.452,314.693 59.544,308.374 63.866 C 307.428 64.512,307.333 64.402,307.333 62.657 L 307.333 61.167 300.417 61.167 L 293.500 61.167 293.500 61.561 L 293.500 61.955 291.875 61.404 C 289.598 60.632,287.466 60.376,285.333 60.620 M290.989 63.076 C 292.468 63.610,293.503 64.167,294.445 64.934 C 295.428 65.735,295.500 65.688,295.500 64.248 L 295.500 62.995 300.458 63.039 L 305.417 63.083 305.462 65.891 L 305.508 68.699 306.694 67.581 C 308.546 65.833,311.302 64.159,313.510 63.440 C 315.962 62.641,316.335 62.590,319.667 62.593 C 322.997 62.596,322.944 62.589,325.599 63.404 C 328.082 64.166,330.390 65.552,332.425 67.504 C 333.710 68.736,333.677 68.782,333.716 65.750 L 333.750 63.083 338.319 63.083 L 342.888 63.083 344.016 64.667 C 344.636 65.537,345.355 66.546,345.613 66.909 C 345.872 67.271,346.496 68.173,347.000 68.912 C 347.504 69.652,348.287 70.762,348.740 71.379 L 349.564 72.500 351.532 72.500 L 353.500 72.500 353.500 67.748 L 353.500 62.995 358.458 63.039 L 363.417 63.083 363.461 67.766 L 363.505 72.449 365.529 72.558 C 366.642 72.618,370.503 72.667,374.110 72.667 C 379.529 72.667,380.667 72.706,380.667 72.893 C 380.667 73.018,379.523 74.624,378.125 76.463 C 376.727 78.301,374.909 80.693,374.084 81.778 C 373.260 82.862,371.626 85.004,370.453 86.537 L 368.320 89.324 365.952 89.370 L 363.583 89.417 363.500 94.167 L 363.417 98.917 359.000 98.960 L 354.583 99.003 352.726 96.126 C 351.705 94.544,350.329 92.406,349.668 91.375 L 348.467 89.500 346.153 89.500 L 343.839 89.500 343.794 94.208 L 343.750 98.917 338.750 98.917 L 333.750 98.917 333.714 96.333 C 333.695 94.912,333.676 93.644,333.673 93.515 C 333.669 93.386,333.198 93.730,332.625 94.278 C 330.499 96.315,327.872 97.887,325.333 98.641 C 324.646 98.845,323.783 99.103,323.417 99.214 C 322.317 99.548,316.833 99.483,315.471 99.120 C 311.602 98.090,309.044 96.661,306.333 94.018 L 305.583 93.287 305.500 96.102 L 305.417 98.917 300.458 98.961 L 295.500 99.005 295.500 97.836 C 295.500 96.489,295.451 96.463,294.374 97.237 C 289.958 100.410,283.438 100.271,279.147 96.912 C 278.020 96.030,278.000 96.044,278.000 97.697 L 278.000 99.005 273.042 98.961 L 268.083 98.917 268.000 94.500 L 267.917 90.083 266.690 90.083 L 265.464 90.083 264.003 94.500 L 262.543 98.917 258.019 98.961 L 253.495 99.005 253.346 98.628 C 253.047 97.873,252.498 96.371,251.746 94.250 C 250.563 90.913,250.268 90.177,250.085 90.112 C 249.992 90.080,246.937 90.088,243.295 90.131 L 236.673 90.210 236.628 94.063 L 236.583 97.917 222.500 97.951 L 208.417 97.985 207.801 97.118 C 202.947 90.280,203.087 90.468,202.939 90.617 C 202.881 90.675,202.833 92.360,202.833 94.361 L 202.833 98.000 197.917 98.000 L 193.000 98.000 193.000 96.083 C 193.000 93.992,192.962 93.922,192.240 94.681 C 186.107 101.127,174.041 99.226,170.992 91.333 C 170.797 90.829,170.571 90.248,170.489 90.042 C 170.337 89.657,168.036 89.461,167.583 89.794 C 167.480 89.870,167.417 91.443,167.417 93.917 L 167.417 97.917 162.458 97.961 L 157.500 98.005 157.500 93.922 L 157.500 89.840 157.123 89.745 C 156.916 89.693,156.184 89.673,155.498 89.700 L 154.250 89.750 154.205 93.875 L 154.161 98.000 149.681 98.000 L 145.201 98.000 144.399 96.708 C 143.957 95.998,142.751 94.123,141.718 92.542 L 139.839 89.667 137.600 89.667 C 134.508 89.667,134.833 89.165,134.833 93.935 L 134.833 98.002 121.125 97.959 L 107.417 97.917 107.417 93.917 C 107.417 91.443,107.353 89.870,107.250 89.794 C 107.158 89.727,105.730 89.671,104.076 89.669 L 101.069 89.667 98.390 93.792 L 95.711 97.917 90.522 97.961 L 85.333 98.005 85.333 95.059 L 85.333 92.114 84.292 93.110 C 79.648 97.551,77.590 97.998,61.795 97.999 L 50.339 98.000 50.295 93.875 L 50.250 89.750 47.988 89.704 C 45.996 89.663,45.695 89.693,45.460 89.954 C 45.231 90.208,42.379 94.112,40.255 97.076 L 39.593 98.000 33.130 98.000 C 29.575 98.000,26.668 97.944,26.670 97.875 C 26.672 97.806,27.908 96.025,29.417 93.917 C 30.927 91.808,32.162 89.990,32.164 89.875 C 32.166 89.712,30.757 89.667,25.667 89.667 C 22.092 89.667,19.167 89.624,19.167 89.572 C 19.167 89.464,19.888 88.443,24.167 82.500 C 25.849 80.162,27.606 77.714,28.071 77.059 C 28.536 76.405,29.341 75.273,29.860 74.544 L 30.804 73.219 32.845 73.110 C 33.967 73.049,37.007 73.000,39.599 73.000 L 44.313 73.000 45.938 70.708 C 49.965 65.031,51.189 63.334,51.443 63.081 C 51.770 62.753,73.734 62.788,74.833 63.118 C 75.154 63.214,75.867 63.391,76.417 63.512 C 79.263 64.134,82.699 66.163,84.445 68.251 C 85.328 69.308,85.321 69.325,85.371 65.958 L 85.417 62.917 90.573 62.873 C 93.704 62.846,95.791 62.891,95.888 62.988 C 95.984 63.084,96.034 65.011,96.013 67.824 L 95.978 72.500 97.990 72.500 L 100.002 72.500 102.934 68.042 C 104.547 65.590,106.022 63.415,106.212 63.208 L 106.558 62.833 120.256 62.833 L 133.954 62.833 135.090 64.458 C 135.714 65.352,136.974 67.171,137.888 68.500 C 138.803 69.829,139.773 71.200,140.044 71.547 L 140.537 72.178 142.310 72.130 L 144.083 72.083 144.167 67.500 L 144.250 62.917 162.039 62.874 L 179.828 62.832 179.872 67.291 L 179.917 71.750 182.625 71.796 L 185.333 71.842 185.333 67.537 C 185.333 64.412,185.388 63.179,185.533 63.033 C 185.778 62.788,204.911 62.751,207.192 62.991 C 210.332 63.321,214.190 64.894,214.639 66.027 C 214.905 66.697,215.159 66.028,215.202 64.542 L 215.250 62.917 225.958 62.874 C 234.468 62.840,236.668 62.874,236.672 63.040 C 236.675 63.156,236.673 65.022,236.667 67.188 C 236.657 70.665,236.688 71.139,236.925 71.230 C 237.532 71.463,243.173 71.344,243.268 71.096 C 243.318 70.966,243.060 70.047,242.694 69.055 C 240.944 64.306,240.552 63.170,240.634 63.089 C 240.911 62.812,251.158 63.007,251.310 63.292 C 251.396 63.452,251.928 64.821,252.492 66.333 C 253.057 67.846,253.582 69.233,253.660 69.417 C 253.737 69.600,253.965 70.176,254.165 70.697 L 254.529 71.643 255.556 71.749 C 256.121 71.806,257.483 71.831,258.583 71.802 L 260.583 71.750 261.871 67.917 C 262.579 65.808,263.241 63.840,263.342 63.542 L 263.526 63.000 270.763 63.000 L 278.000 63.000 278.000 64.556 C 278.000 66.515,278.008 66.520,279.237 65.371 C 282.102 62.694,287.187 61.701,290.989 63.076 M239.211 64.880 C 239.256 65.084,239.610 66.136,239.998 67.218 C 240.386 68.300,240.676 69.213,240.643 69.245 C 240.584 69.303,239.284 69.379,238.875 69.349 C 238.718 69.337,238.667 68.693,238.667 66.730 C 238.667 64.207,238.893 63.438,239.211 64.880 M285.104 65.426 C 280.446 66.351,277.590 70.776,278.588 75.522 C 279.291 78.866,280.912 80.293,286.430 82.425 C 290.948 84.171,292.087 85.395,291.764 88.151 C 291.043 94.278,283.128 94.223,282.061 88.083 L 281.917 87.250 279.750 87.250 L 277.583 87.250 277.631 88.250 C 277.962 95.116,285.719 98.965,292.056 95.408 C 294.706 93.921,296.158 91.151,296.161 87.583 C 296.165 82.457,294.153 80.098,288.000 78.016 C 283.489 76.489,281.968 74.476,283.262 71.748 C 285.022 68.039,290.416 68.788,291.084 72.833 C 291.243 73.801,291.132 73.763,293.524 73.667 L 295.583 73.583 295.533 72.667 C 295.265 67.748,290.404 64.373,285.104 65.426 M318.167 65.270 C 302.195 67.204,298.344 88.206,312.688 95.146 C 325.429 101.311,339.140 89.023,334.505 75.594 C 332.259 69.088,324.922 64.452,318.167 65.270 M52.544 66.292 C 52.278 66.635,50.011 69.804,47.507 73.333 C 45.002 76.862,42.720 80.065,42.435 80.450 C 42.150 80.835,41.532 81.697,41.062 82.366 C 40.592 83.036,38.395 86.127,36.180 89.236 C 33.965 92.345,32.191 94.989,32.238 95.111 C 32.304 95.284,32.939 95.333,35.095 95.333 L 37.867 95.333 38.392 94.785 C 38.680 94.483,39.701 93.114,40.660 91.743 C 41.619 90.372,42.448 89.212,42.502 89.167 C 42.557 89.121,42.927 88.615,43.325 88.042 L 44.048 87.000 48.605 87.000 L 53.161 87.000 53.205 91.125 L 53.250 95.250 55.750 95.250 L 58.250 95.250 58.302 87.333 C 58.331 82.979,58.304 76.323,58.241 72.542 L 58.127 65.667 55.578 65.667 L 53.028 65.667 52.544 66.292 M61.477 65.820 C 61.444 65.919,61.454 72.581,61.500 80.625 L 61.583 95.250 67.500 95.236 C 73.431 95.221,75.789 95.003,77.150 94.342 C 77.297 94.271,77.942 93.970,78.583 93.673 C 81.885 92.143,83.988 89.764,85.215 86.167 C 87.768 78.683,84.633 69.932,78.409 67.167 C 77.955 66.965,77.433 66.733,77.250 66.650 C 75.473 65.851,61.708 65.126,61.477 65.820 M88.163 65.871 C 88.110 68.632,88.201 95.087,88.264 95.189 C 88.365 95.353,93.493 95.389,93.911 95.229 C 94.060 95.172,94.504 94.628,94.896 94.021 C 95.712 92.759,99.362 87.099,102.944 81.542 C 104.288 79.456,105.656 77.340,105.985 76.840 C 106.314 76.339,106.658 75.794,106.750 75.628 C 106.842 75.462,107.629 74.225,108.500 72.880 L 110.083 70.433 110.126 82.659 C 110.156 91.354,110.223 94.950,110.355 95.109 C 110.636 95.447,124.871 95.439,125.152 95.101 C 125.279 94.948,125.329 94.272,125.298 93.142 L 125.250 91.417 120.014 91.373 C 116.451 91.343,114.706 91.269,114.553 91.142 C 114.372 90.992,114.337 90.110,114.372 86.686 L 114.417 82.417 119.833 82.333 L 125.250 82.250 125.250 80.333 L 125.250 78.417 119.833 78.333 L 114.417 78.250 114.417 74.000 L 114.417 69.750 119.833 69.667 L 125.250 69.583 125.250 67.667 L 125.250 65.750 116.667 65.710 C 111.946 65.688,108.003 65.726,107.905 65.793 C 107.732 65.914,94.048 86.454,93.666 87.168 C 93.280 87.889,93.250 87.123,93.250 76.527 L 93.250 65.750 90.708 65.704 C 88.736 65.668,88.166 65.706,88.163 65.871 M127.778 65.778 C 127.561 65.995,127.649 94.915,127.867 95.133 C 128.094 95.361,131.613 95.415,131.957 95.197 C 132.118 95.094,132.174 92.564,132.207 83.831 L 132.250 72.597 134.022 75.340 C 136.748 79.561,145.888 93.839,146.315 94.542 C 146.784 95.315,146.956 95.358,149.333 95.298 L 151.250 95.250 151.293 80.458 L 151.335 65.667 149.168 65.667 L 147.000 65.667 147.000 75.740 C 147.000 81.281,146.936 85.853,146.857 85.902 C 146.779 85.950,145.710 84.556,144.482 82.804 C 143.255 81.052,141.927 79.160,141.531 78.601 C 141.136 78.041,140.430 77.021,139.962 76.333 C 139.494 75.646,138.423 74.108,137.582 72.917 C 136.742 71.725,135.247 69.606,134.261 68.208 L 132.468 65.667 130.178 65.667 C 128.919 65.667,127.839 65.717,127.778 65.778 M154.572 65.886 C 154.526 66.007,154.509 66.888,154.536 67.845 L 154.583 69.583 157.379 69.667 L 160.175 69.750 160.169 82.368 C 160.163 94.703,160.170 94.990,160.487 95.160 C 160.832 95.345,163.960 95.402,164.403 95.232 C 164.640 95.141,164.667 93.856,164.667 82.403 L 164.667 69.675 167.458 69.629 L 170.250 69.583 170.297 67.625 L 170.344 65.667 162.500 65.667 C 156.164 65.667,154.640 65.709,154.572 65.886 M172.735 65.896 C 172.491 66.531,172.775 87.925,173.039 88.795 C 175.739 97.707,188.831 98.336,191.986 89.705 C 192.622 87.965,192.691 86.510,192.636 75.917 L 192.583 65.750 190.458 65.703 L 188.333 65.657 188.328 75.537 C 188.323 86.350,188.258 87.395,187.493 88.952 C 185.611 92.789,179.708 92.789,177.845 88.952 C 177.052 87.319,177.003 86.539,177.001 75.708 L 177.000 65.667 174.911 65.667 C 173.292 65.667,172.803 65.718,172.735 65.896 M195.874 80.446 L 195.917 95.250 197.809 95.297 C 200.420 95.363,200.167 96.106,200.167 88.386 C 200.167 84.311,200.226 81.851,200.324 81.911 C 200.410 81.964,202.520 84.875,205.012 88.379 C 207.505 91.883,209.692 94.881,209.874 95.042 C 210.252 95.376,214.885 95.488,215.083 95.168 C 215.139 95.077,213.413 92.641,211.247 89.755 C 207.010 84.110,207.090 84.264,208.325 84.100 C 209.929 83.887,212.462 82.600,213.341 81.550 C 217.135 77.020,215.846 69.115,210.938 66.819 C 208.768 65.803,208.622 65.785,201.957 65.710 L 195.832 65.641 195.874 80.446 M217.935 65.929 C 217.621 66.748,217.834 94.988,218.156 95.161 C 218.544 95.369,233.472 95.399,233.798 95.192 C 233.956 95.092,233.999 94.580,233.964 93.237 L 233.917 91.417 228.167 91.333 L 222.417 91.250 222.372 86.794 L 222.328 82.338 228.122 82.294 L 233.917 82.250 233.917 80.333 L 233.917 78.417 228.167 78.333 L 222.417 78.250 222.372 73.960 L 222.328 69.671 228.122 69.627 L 233.917 69.583 233.917 67.667 L 233.917 65.750 225.977 65.707 C 218.845 65.668,218.027 65.690,217.935 65.929 M244.667 66.068 C 244.667 66.290,244.918 67.015,246.835 72.333 C 247.281 73.571,248.103 75.858,248.662 77.417 C 249.221 78.975,249.820 80.625,249.993 81.083 C 250.167 81.542,250.534 82.554,250.808 83.333 C 251.294 84.714,252.855 89.058,254.190 92.750 C 254.555 93.758,254.986 94.921,255.147 95.333 L 255.441 96.083 257.953 96.129 L 260.466 96.175 260.740 95.379 C 260.890 94.941,261.771 92.296,262.697 89.500 C 263.623 86.704,265.747 80.292,267.419 75.250 C 269.090 70.208,270.425 66.027,270.386 65.958 C 270.260 65.740,265.703 65.809,265.552 66.032 C 265.477 66.141,263.767 71.142,261.750 77.145 C 258.586 86.565,257.663 89.011,257.668 87.972 C 257.668 87.780,256.919 85.731,256.489 84.750 C 256.408 84.567,255.925 83.292,255.415 81.917 C 254.905 80.542,254.423 79.267,254.343 79.083 C 254.264 78.900,254.035 78.300,253.833 77.750 C 253.632 77.200,253.405 76.600,253.330 76.417 C 253.254 76.233,252.883 75.258,252.505 74.250 C 252.127 73.242,251.716 72.154,251.590 71.833 C 251.465 71.512,251.049 70.425,250.665 69.417 C 250.281 68.408,249.816 67.190,249.631 66.708 L 249.295 65.833 246.981 65.833 C 245.103 65.833,244.667 65.878,244.667 66.068 M270.802 65.958 C 270.773 66.027,270.770 72.852,270.793 81.125 L 270.837 96.167 273.002 96.167 L 275.167 96.167 275.167 81.000 L 275.167 65.833 273.010 65.833 C 271.824 65.833,270.830 65.890,270.802 65.958 M298.243 66.042 C 298.200 66.156,298.183 72.962,298.207 81.167 L 298.250 96.083 300.458 96.130 L 302.667 96.176 302.667 81.005 L 302.667 65.833 300.495 65.833 C 298.911 65.833,298.301 65.890,298.243 66.042 M336.577 66.042 C 336.533 66.156,336.517 72.962,336.540 81.167 L 336.583 96.083 338.792 96.130 L 341.000 96.176 341.000 84.672 C 341.000 77.019,341.056 73.167,341.169 73.167 C 341.262 73.167,341.611 73.598,341.945 74.125 C 343.318 76.291,349.594 86.083,353.482 92.125 L 356.083 96.167 358.377 96.125 L 360.671 96.083 360.671 81.000 L 360.671 65.917 358.502 65.870 L 356.333 65.824 356.333 76.174 C 356.333 85.107,356.300 86.517,356.093 86.471 C 355.961 86.441,355.013 85.217,353.987 83.750 C 352.961 82.283,351.545 80.258,350.841 79.250 C 350.136 78.242,348.557 75.992,347.332 74.250 C 346.107 72.508,344.687 70.483,344.177 69.750 C 343.666 69.017,342.840 67.835,342.340 67.125 L 341.432 65.833 339.044 65.833 C 337.287 65.833,336.635 65.888,336.577 66.042 M322.000 69.570 C 335.134 72.792,333.095 92.640,319.627 92.664 C 307.984 92.685,303.907 75.956,314.262 70.647 C 315.339 70.095,315.856 69.905,317.333 69.517 C 318.216 69.285,320.965 69.316,322.000 69.570 M73.932 69.999 C 83.527 72.415,84.810 86.814,75.750 90.414 C 73.720 91.221,66.481 91.748,65.867 91.133 C 65.649 90.915,65.562 69.994,65.778 69.778 C 66.068 69.488,72.606 69.665,73.932 69.999 M206.750 69.894 C 209.667 70.676,211.167 72.465,211.167 75.162 C 211.167 79.067,208.558 80.814,202.708 80.827 L 200.167 80.833 200.167 75.250 L 200.167 69.667 203.042 69.669 C 204.913 69.670,206.208 69.749,206.750 69.894 M53.198 82.375 C 53.143 82.511,46.833 82.553,46.833 82.417 C 46.833 82.372,48.240 80.216,49.958 77.626 L 53.083 72.917 53.167 77.583 C 53.212 80.150,53.227 82.306,53.198 82.375 " stroke="none" fill="#fbf9fa" fill-rule="evenodd"></path></g></svg>