<?xml version="1.0" encoding="UTF-8" standalone="no"?>
<!-- Generator: Adobe Illustrator 16.0.2, SVG Export Plug-In . SVG Version: 6.00 Build 0)  -->
<svg xmlns:rdf="http://www.w3.org/1999/02/22-rdf-syntax-ns#" xmlns="http://www.w3.org/2000/svg" enable-background="new 0 0 512 512" xml:space="preserve" height="498.737" viewBox="0 0 504.48965 498.73727" width="504.49" version="1.0" y="0px" x="0px" xmlns:cc="http://creativecommons.org/ns#" xmlns:xlink="http://www.w3.org/1999/xlink" xmlns:dc="http://purl.org/dc/elements/1.1/"><metadata><rdf:RDF><cc:Work rdf:about=""><dc:format>image/svg+xml</dc:format><dc:type rdf:resource="http://purl.org/dc/dcmitype/StillImage"/><dc:title/></cc:Work></rdf:RDF></metadata><defs><radialGradient id="radialGradient7528" gradientUnits="userSpaceOnUse" cy="-319.71" cx="850.361" gradientTransform="matrix(0.59120594,0.32463363,-0.30348991,0.55270014,-374.91817,43.243176)" r="242.245"><stop stop-color="#32c000" offset="0"/><stop stop-color="#2ba800" offset="0.278802"/><stop stop-color="#259000" offset="0.46467"/><stop stop-color="#196000" offset="0.667949"/><stop stop-color="#000" offset="1"/></radialGradient><radialGradient id="radialGradient7514" xlink:href="#linearGradient7508" gradientUnits="userSpaceOnUse" cy="-243.352" cx="872.737" gradientTransform="matrix(1.0152165,-1.4203853e-6,1.4303934e-6,1.0295146,-649.11258,516.1441)" r="242.245"/><linearGradient id="linearGradient7508"><stop stop-color="#32c000" offset="0"/><stop stop-color="#2ba800" offset="0.2712"/><stop stop-color="#259000" offset="0.4312"/><stop stop-color="#196000" offset="0.6712"/><stop stop-color="#000" offset="1"/></linearGradient><radialGradient id="radialGradient9617" xlink:href="#linearGradient7508" gradientUnits="userSpaceOnUse" cy="-243.352" cx="872.737" gradientTransform="matrix(1.0775533,7.4476633e-5,-7.5405927e-5,1.0908263,-703.53492,530.99818)" r="242.245"/></defs>
<g transform="translate(-8.1793637e-5,2.7229485e-4)"><path fill="url(#radialGradient9617)" d="m51.1032,380.583c119.023,174.239,397.58,118.489,438.316-87.725,44.417-224.839-213.078-353.296-377.921-242.236-106.09,71.476-133.747,222.58-60.3946,329.961"/><path fill="url(#radialGradient7514)" d="m51.1032,380.583c119.023,174.239,397.58,118.489,438.316-87.725,44.417-224.839-213.078-353.296-377.921-242.236-106.09,71.476-133.747,222.58-60.3946,329.961"/><path fill="#FFF" d="m348.062,283.626c31.7719-27.419,51.8879-67.976,51.8879-113.238,0-82.586-66.9489-149.534-149.535-149.534-82.586,0-149.534,66.948-149.534,149.534,0,77.921,59.602,141.91,135.702,148.892v169.457h29.593v-169.64c31.137-3.261,59.424-16.085,81.886-35.471z"/><path fill="url(#radialGradient7528)" d="m140.173,243.046c65.234,95.4972,217.905,64.9416,240.232-48.0798,24.344-123.229-116.783-193.634-207.13-132.764-58.145,39.1743-73.3042,121.991-33.102,180.844"/></g></svg>
