<?xml version="1.0" encoding="UTF-8" standalone="no"?>
<svg
   height="256.202"
   viewBox="0 0 500 240.189"
   width="533.333"
   version="1.1"
   id="svg25"
   sodipodi:docname="alg-w.svg"
   inkscape:version="1.1 (c68e22c387, 2021-05-23)"
   xmlns:inkscape="http://www.inkscape.org/namespaces/inkscape"
   xmlns:sodipodi="http://sodipodi.sourceforge.net/DTD/sodipodi-0.dtd"
   xmlns="http://www.w3.org/2000/svg"
   xmlns:svg="http://www.w3.org/2000/svg">
  <defs
     id="defs29" />
  <sodipodi:namedview
     id="namedview27"
     pagecolor="#ffffff"
     bordercolor="#666666"
     borderopacity="1.0"
     inkscape:pageshadow="2"
     inkscape:pageopacity="0.0"
     inkscape:pagecheckerboard="0"
     showgrid="false"
     inkscape:zoom="11.221791"
     inkscape:cx="523.49039"
     inkscape:cy="222.46894"
     inkscape:window-width="1920"
     inkscape:window-height="1017"
     inkscape:window-x="-8"
     inkscape:window-y="712"
     inkscape:window-maximized="1"
     inkscape:current-layer="svg25" />
  <linearGradient
     id="a"
     gradientUnits="userSpaceOnUse"
     x1="119.772"
     x2="421.392"
     y1="172.48"
     y2="172.48">
    <stop
       offset="0"
       stop-color="red"
       id="stop2" />
    <stop
       offset=".262"
       stop-color="red"
       id="stop4" />
    <stop
       offset=".354"
       stop-color="#ff7c00"
       id="stop6" />
    <stop
       offset=".621"
       stop-color="#ff7c00"
       id="stop8" />
    <stop
       offset=".759"
       stop-color="#ff0"
       id="stop10" />
    <stop
       offset="1"
       stop-color="#ff0"
       id="stop12" />
  </linearGradient>
  <path
     d="M74.984 190.602 50.19 170.886h34.953l19.12-34.356v34.356h54.371V0L0 240.19h46.305z"
     id="path15" />
  <path
     d="m105.667 196.876 10.545 31.365h42.421v-31.365z"
     id="path17" />
  <g
     fill="url(#a)"
     transform="matrix(1.30612 0 0 1.30612 -52.205 -41.582)"
     id="g21">
    <path
       d="M421.392 165.396v-1.116l-265.332-.679-5.819 2.49zM421.392 169.195v-1.116l-274.157-.703-5.928 2.536zM421.392 172.99v-1.115l-282.984-.723-6.032 2.58zM421.392 176.79v-1.117l-291.812-.747-6.137 2.626zM120.519 181.359l300.873-.771v-1.116l-300.638-.77-.982.42z"
       id="path19" />
  </g>
  <path
     d="M186.158 121.161v45.826H170.66V87.44h20.931l6.633 36.63 6.949-36.63h19.386v79.548h-15.635v-45.826l-7.772 45.826h-6.95zM231.945 166.987V87.44h27.43v11.658H249.09v18.926h9.554v11.796h-9.554v25.737h10.285v11.431zM266.336 166.987V87.44h19.653c8.539 0 13.979.947 16.325 2.84 2.347 1.892 3.521 6.416 3.521 13.57v8.267c0 5.777-.58 9.64-1.738 11.585-1.16 1.945-6.283 3.445-9.317 4.498 2.936.827 8.035 2.188 9.244 4.082 1.207 1.895 1.811 4.833 1.811 8.81v25.896H289.23v-27.333c0-1.657-.275-2.776-.824-3.35-.548-.575-2.257-.863-3.774-.863h-1.015v31.546zm22.894-51.884v-11.736c0-2.128-.256-3.431-.763-3.913-.51-.481-1.546-.723-3.105-.723h-1.688v21.932c.216 0 .526.021.927.054.399.035.684.05.869.05 1.45 0 2.443-.23 2.97-.696.523-.463.79-1.346.79-2.649zM314.529 166.987h17.145V87.44h-17.145zM339.032 103.511c0-7.41 1.093-12.01 3.282-13.8s8.743-3.78 17.466-3.78c8.918 0 13.359 2.056 15.515 3.972s3.235 6.454 3.235 13.608v11.085h-17.28v-10.604c0-1.534-.195-2.574-.58-3.117-.389-.546-1.939-.817-3.003-.817-.806 0-1.372.238-1.692.72-.324.48-.486 1.55-.486 3.214v46.362c0 1.466.184 2.505.557 3.109.37.604 1.008.905 1.912.905.773 0 2.201-.228 2.639-.691.435-.461.653-1.106.653-1.935V133.11h17.28v17.723c0 7.328-1.112 11.945-3.331 13.849-2.222 1.901-6.57 3.979-15.292 3.979-8.82 0-15.444-2.1-17.615-4.053-2.174-1.95-3.26-6.543-3.26-13.775zM381.13 166.987l13.128-79.548h20.847l9.317 79.548h-14.804l-1.75-14.024h-8.854l-1.308 14.024zm20.503-28.527h5.425l-2.687-30.71zM428.15 166.987V87.44h15.986l8.563 32.608V87.439h14.95v79.548h-13.776l-10.912-38.986v38.986zM174.465 228.596v-23.38h-2.76l-.002 26.14h18.833v-2.76zM270.899 207.977v-2.76h-20.296v26.14H270.9v-2.761h-17.534v-9.063h16.909v-2.76h-16.909v-8.796zM437.209 207.977v-2.76h-20.294v26.14h20.294v-2.761h-17.534v-9.063h16.908v-2.76h-16.908v-8.796zM294.615 219.998c2.307-.665 3.962-2.418 3.962-4.49V210c0-2.64-2.686-4.784-5.998-4.784H275.28v26.14h2.76v-10.15h14.699c1.79 0 3.237 2.298 3.237 3.726v6.425h2.76v-6.838c0-2.115-1.734-3.89-4.121-4.521zm-2.036-1.555c-.119 0-9.707-.01-14.538 0v-10.487c4.674-.044 13.812-.122 14.538-.122 1.788 0 3.237 1.155 3.237 2.581v4.681c0 1.425-1.449 3.347-3.237 3.347zM206.841 205.216h-3.31l-12.274 26.14h3.049l2.55-5.43h16.66l2.55 5.43h3.05zm-8.69 17.95 7.036-14.984 7.034 14.984zM361.434 205.216h-3.312l-12.276 26.14h3.051l2.551-5.43h16.66l2.55 5.43h3.049zm-8.692 17.95 7.036-14.984 7.036 14.984zM245.666 212.736V210c0-2.64-2.685-4.784-5.997-4.784h-11.61c-3.312 0-5.997 2.145-5.997 4.784v5.068c0 2.642 2.685 4.782 5.998 4.782h11.609c1.788 0 3.237 1.157 3.237 2.583v3.579c0 1.428-1.449 2.584-3.237 2.584h-11.61c-1.788 0-3.237-1.156-3.237-2.584v-2.846h-2.76v3.408c0 2.64 2.685 4.783 5.998 4.783h11.609c3.312 0 5.997-2.143 5.997-4.783v-4.7c0-2.642-2.685-4.782-5.997-4.782h-11.61c-1.788 0-3.237-1.157-3.237-2.583v-3.948c0-1.426 1.45-2.584 3.238-2.584h11.609c1.788 0 3.237 1.158 3.237 2.584v2.175zM463.031 212.736V210c0-2.64-2.685-4.784-5.997-4.784h-11.61c-3.311 0-5.995 2.145-5.995 4.784v5.068c0 2.642 2.684 4.782 5.996 4.782h11.609c1.79 0 3.237 1.157 3.237 2.583v3.579c0 1.428-1.447 2.584-3.237 2.584h-11.61c-1.786 0-3.235-1.156-3.235-2.584v-2.846h-2.76v3.408c0 2.64 2.684 4.783 5.996 4.783h11.609c3.312 0 5.997-2.143 5.997-4.783v-4.7c0-2.642-2.685-4.782-5.997-4.782h-11.61c-1.786 0-3.235-1.157-3.235-2.583v-3.948c0-1.426 1.45-2.584 3.236-2.584h11.609c1.79 0 3.237 1.158 3.237 2.584v2.175zM342.711 212.736V210c0-2.64-2.685-4.784-5.997-4.784h-13.487c-3.314 0-5.997 2.145-5.997 4.784v16.574c0 2.64 2.683 4.783 5.997 4.783h13.487c3.312 0 5.997-2.143 5.997-4.783v-8.131h-13.404v2.76h10.644v4.809c0 1.428-1.449 2.584-3.237 2.584h-13.487c-1.79 0-3.239-1.156-3.239-2.584v-15.45c0-1.427 1.45-2.585 3.24-2.585h13.486c1.788 0 3.237 1.158 3.237 2.584v2.175zM405.607 205.216l-12.425 22.497-12.424-22.497h-4.22v26.067h2.76v-23.001l12.741 23.075h2.285l12.743-23.075v23.001h2.76v-26.067zM498.793 228.686v1.608c0 .625-.632 1.129-1.414 1.129h-3.655c-.782 0-1.414-.504-1.414-1.13v-6.749c0-.623.632-1.13 1.414-1.13h3.655c.782 0 1.414.507 1.414 1.13v.95H500V223.3c0-1.155-1.174-2.092-2.621-2.092h-3.655c-1.45 0-2.621.937-2.621 2.092v7.24c0 1.154 1.172 2.09 2.62 2.09h3.656c1.447 0 2.621-.936 2.621-2.09v-1.853zM475.717 232.63h1.206v-11.423h-1.206zM487.874 221.207v10.38l-6.477-10.38h-2.166v11.422h1.207v-10.68l6.666 10.68h1.975v-11.422zM468.124 228.457h-2.938v3.518h1.746l.098.384v1.564c0 .565-.571 1.02-1.28 1.02h-.747l-.754 1.095h1.5c1.312 0 2.375-.847 2.375-1.895z"
     id="path23" />
  <path
     style="fill:#ffffff;fill-opacity:0.941176;stroke-width:0.504095"
     d="M 0.86448209,255.45038 C 1.130591,255.10381 38.84817,197.9961 84.681324,128.54434 130.51448,59.092592 168.2073,2.0529288 168.44316,1.7895389 c 0.23589,-0.263429 0.42882,40.1639751 0.42882,89.8550181 V 181.97846 H 140.13854 111.4051 v -18.25545 c 0,-15.36991 -0.10777,-18.13879 -0.68178,-17.51732 -0.37498,0.40598 -5.04382,8.62093 -10.37519,18.25546 l -9.693415,17.51731 H 72.044417 c -10.235663,0 -18.599373,0.17014 -18.58602,0.37808 0.01336,0.20794 5.895225,5.01609 13.070823,10.68479 12.251062,9.67828 13.0103,10.37307 12.452085,11.39495 -0.326951,0.59853 -7.172905,12.46017 -15.213228,26.35921 l -14.618769,25.27099 -24.38433,0.007 c -19.4302964,0.006 -24.28603215,-0.12101 -23.90049591,-0.62311 z"
     id="path920"
     transform="matrix(0.93750057,0,0,0.93750057,0,-2.5885453e-4)" />
  <path
     style="fill:#ffffff;fill-opacity:0.941176;stroke-width:0.504095"
     d="M 182.48256,135.60168 V 93.257662 h 10.83805 c 5.96093,0 10.83806,0.130139 10.83806,0.289197 0,0.41302 5.9563,33.182981 6.63605,36.509771 0.31158,1.52489 0.6879,2.43226 0.83628,2.01638 0.14838,-0.41588 1.88327,-9.26275 3.8553,-19.65972 l 3.58551,-18.90358 10.18677,-0.136462 10.18677,-0.136461 v 42.354453 42.35446 h -8.06553 -8.06553 v -24.54945 c 0,-13.89182 -0.18977,-24.34155 -0.43714,-24.07056 -0.24043,0.26339 -2.18599,10.91367 -4.32346,23.66729 -2.13747,12.75361 -3.99763,23.58536 -4.13368,24.07055 -0.20426,0.72843 -0.83945,0.88217 -3.64476,0.88217 h -3.39739 l -4.19299,-24.07056 c -2.30614,-13.2388 -4.39152,-24.28606 -4.63417,-24.54945 -0.25269,-0.27429 -0.44118,10.00941 -0.44118,24.07056 v 24.54945 h -7.81348 -7.81348 z"
     id="path959"
     transform="matrix(0.93750057,0,0,0.93750057,0,-2.5885453e-4)" />
  <path
     style="fill:#ffffff;fill-opacity:0.941176;stroke-width:0.504095"
     d="M 247.51088,135.60168 V 93.257662 h 14.36672 14.36672 v 6.049146 6.049142 h -5.293 -5.29301 v 10.33396 10.33396 h 5.04096 5.04095 v 6.04914 6.04915 h -5.04095 -5.04096 v 14.11467 14.11468 h 5.29301 5.293 v 5.79709 5.7971 H 261.8776 247.51088 Z"
     id="path998"
     transform="matrix(0.93750057,0,0,0.93750057,0,-2.5885453e-4)" />
  <path
     style="fill:#ffffff;fill-opacity:0.941176;stroke-width:0.504095"
     d="M 284.30985,135.60168 V 93.257662 l 8.94769,0.01079 c 11.60069,0.01398 22.38567,0.743911 25.67104,1.737413 5.12122,1.548667 6.62711,5.100825 7.0591,16.651285 0.31962,8.54605 -0.36937,17.02356 -1.57267,19.35048 -0.83061,1.60622 -3.78038,3.38833 -7.59101,4.58613 -1.10901,0.34859 -2.18705,0.78842 -2.39566,0.9774 -0.2086,0.18897 1.26588,0.86727 3.27662,1.50733 2.01075,0.64006 4.34808,1.68285 5.19406,2.31731 2.65363,1.99012 2.87122,3.47564 3.11891,21.29282 l 0.22599,16.25708 h -8.57872 -8.57872 l -0.164,-15.86166 c -0.18538,-17.92934 -0.0434,-17.32002 -4.14481,-17.78231 l -2.32039,-0.26154 v 16.95276 16.95275 h -9.07372 -9.07371 z m 23.47011,-7.26964 c 0.91362,-0.66888 0.97852,-1.40319 0.97852,-11.07232 0,-11.76269 0.0273,-11.67748 -3.91877,-12.21835 l -2.38243,-0.32655 v 12.16681 12.16681 h 2.17208 c 1.19465,0 2.61242,-0.32238 3.1506,-0.7164 z"
     id="path1037"
     transform="matrix(0.93750057,0,0,0.93750057,0,-2.5885453e-4)" />
  <path
     style="fill:#ffffff;fill-opacity:0.941176;stroke-width:0.504095"
     d="M 335.72758,135.60168 V 93.257662 h 8.82167 8.82167 v 42.344018 42.34402 h -8.82167 -8.82167 z"
     id="path1076"
     transform="matrix(0.93750057,0,0,0.93750057,0,-2.5885453e-4)" />
  <path
     style="fill:#ffffff;fill-opacity:0.941176;stroke-width:0.504095"
     d="m 373.82302,178.69604 c -7.53843,-1.5539 -10.21199,-3.92284 -11.33405,-10.04266 -0.75703,-4.12891 -0.7501,-61.80465 0.008,-66.15771 0.99388,-5.707297 3.50224,-7.964983 10.4569,-9.411891 11.46193,-2.384638 23.01515,-0.971659 27.17261,3.323257 2.48637,2.568566 3.14995,6.069024 3.14995,16.616264 v 8.9678 h -8.82167 -8.82168 v -6.58638 c 0,-3.62251 -0.22959,-7.01539 -0.51022,-7.53974 -0.63493,-1.18638 -3.55694,-1.78768 -4.98175,-1.02515 -1.05922,0.56688 -1.06127,0.62141 -1.06127,28.30863 0,18.15833 0.18026,28.07746 0.52184,28.71571 0.37874,0.70769 1.05998,0.97505 2.48447,0.97505 3.47563,0 3.54693,-0.24392 3.54693,-12.1343 v -10.55 h 8.85724 8.85724 l -0.16159,13.98865 c -0.15892,13.7571 -0.18245,14.03036 -1.42183,16.5084 -1.41255,2.82428 -3.44529,4.39702 -7.26483,5.62081 -3.56337,1.14171 -15.95974,1.39548 -20.67624,0.42326 z"
     id="path1115"
     transform="matrix(0.93750057,0,0,0.93750057,0,-2.5885453e-4)" />
  <path
     style="fill:#ffffff;fill-opacity:0.941176;stroke-width:0.504095"
     d="m 407.01759,176.55944 c 0.16096,-0.76245 3.23953,-19.30686 6.84127,-41.20981 3.60173,-21.90294 6.66818,-40.333935 6.81433,-40.957753 0.2654,-1.132775 0.27948,-1.134215 11.09418,-1.134215 5.95565,0 10.82851,0.170132 10.82858,0.378072 6e-5,0.207939 2.15507,18.747326 4.7889,41.198636 2.63383,22.45131 4.78879,41.33598 4.78879,41.96595 0,1.13976 -0.0368,1.14538 -7.49549,1.14538 h -7.49548 l -0.56513,-4.41083 c -0.31082,-2.42596 -0.71308,-5.82861 -0.89391,-7.56144 l -0.32877,-3.15059 h -4.92483 -4.92483 l -0.27136,1.89035 c -0.14925,1.0397 -0.40548,3.47826 -0.5694,5.41903 -0.16392,1.94077 -0.42777,4.49275 -0.58633,5.67108 l -0.28829,2.1424 h -8.55244 -8.55244 z m 27.28783,-31.00187 c -0.15766,-1.17833 -0.737,-7.58664 -1.28741,-14.2407 -1.0597,-12.81096 -1.47145,-16.59197 -1.77393,-16.28949 -0.10231,0.1023 -0.76137,6.75825 -1.46458,14.79099 -0.70322,8.03274 -1.38219,15.34222 -1.50882,16.24329 l -0.23024,1.63831 h 3.27581 3.27582 z"
     id="path1154"
     transform="matrix(0.93750057,0,0,0.93750057,0,-2.5885453e-4)" />
  <path
     style="fill:#ffffff;fill-opacity:0.941176;stroke-width:0.504095"
     d="M 456.7105,135.58949 V 93.233285 l 8.39975,0.138212 8.39975,0.138213 4.58071,17.39129 4.5807,17.3913 0.13256,-17.51732 0.13255,-17.517318 h 7.80695 7.80695 v 42.357858 42.35786 l -7.11741,-0.13986 -7.11742,-0.13987 -5.69842,-20.33526 c -3.13414,-11.1844 -5.82922,-20.46606 -5.98907,-20.62591 -0.15986,-0.15985 -0.29064,9.04773 -0.29064,20.46129 v 20.75193 h -7.81348 -7.81348 z"
     id="path1193"
     transform="matrix(0.93750057,0,0,0.93750057,0,-2.5885453e-4)" />
  <path
     style="fill:#ffffff;fill-opacity:0.941176;stroke-width:0.504095"
     d="m 118.75645,226.96887 c -2.93423,-8.80284 -5.33497,-16.17523 -5.33497,-16.38311 0,-0.20787 12.47636,-0.37795 27.72525,-0.37795 h 27.72525 v 16.3831 16.38311 H 146.4817 124.09142 Z"
     id="path1232"
     transform="matrix(0.93750057,0,0,0.93750057,0,-2.5885453e-4)" />
  <path
     style="fill:#ffffff;fill-opacity:0.941176;stroke-width:0.015753"
     d="m 183.15994,224.69268 v -5.78922 h 1.46503 1.46502 v 5.78922 5.78922 h -1.46502 -1.46503 z"
     id="path1271"
     transform="matrix(0.93750057,0,0,0.93750057,0,-2.5885453e-4)" />
  <path
     style="fill:#ffffff;fill-opacity:0.941176;stroke-width:0.0891123"
     d="m 183.21495,238.64282 v -8.10922 h 1.4258 1.4258 v 6.68343 6.68342 h 8.55478 8.55479 v 1.4258 1.4258 h -9.98059 -9.98058 z"
     id="path1310"
     transform="matrix(0.93750057,0,0,0.93750057,0,-2.5885453e-4)" />
  <path
     style="fill:#ffffff;fill-opacity:0.941176;stroke-width:0.0891123"
     d="m 204.10165,246.67936 c 0.0496,-0.0803 4.85071,-10.2979 9.81543,-20.88906 l 3.20512,-6.83744 1.73769,-0.002 1.73769,-0.002 6.36482,13.56732 c 3.50066,7.46203 6.43931,13.71863 6.53035,13.90356 l 0.16551,0.33624 -1.58095,-0.0243 -1.58096,-0.0243 -1.34034,-2.87117 -1.34033,-2.87118 -8.95124,0.0196 -8.95123,0.0196 -1.34124,2.871 -1.34124,2.87099 -1.58701,0.003 c -0.87285,0.002 -1.56678,-0.0298 -1.54207,-0.0698 z m 22.3056,-8.6826 c -0.16109,-0.388 -7.45526,-15.86643 -7.4964,-15.90757 -0.028,-0.028 -0.0683,-0.0337 -0.0894,-0.0125 -0.0382,0.0382 -6.92428,14.67063 -7.3243,15.56365 l -0.20956,0.46784 h 7.58295 c 6.03163,0 7.5735,-0.0228 7.53671,-0.11139 z"
     id="path1349"
     transform="matrix(0.93750057,0,0,0.93750057,0,-2.5885453e-4)" />
  <path
     style="fill:#ffffff;fill-opacity:0.941176;stroke-width:0.0891123"
     d="m 241.97042,246.62021 c -2.23597,-0.40574 -4.06361,-1.71981 -4.76797,-3.42816 -0.1911,-0.46347 -0.20582,-0.63912 -0.23383,-2.78926 l -0.0299,-2.29464 h 1.43127 1.43127 l 8.8e-4,1.75997 c 8.2e-4,1.65753 0.013,1.7859 0.20928,2.20553 0.23465,0.50167 0.8343,1.09577 1.39446,1.38154 0.83501,0.42599 1.12571,0.44206 8.02543,0.44371 4.26633,0.001 6.64647,-0.0313 6.99532,-0.095 1.20108,-0.21938 2.259,-1.01167 2.57014,-1.92484 0.20652,-0.60608 0.20768,-4.79356 0.002,-5.39864 -0.25594,-0.75113 -0.99466,-1.42328 -2.00126,-1.82089 -0.36513,-0.14423 -1.00302,-0.16131 -7.70529,-0.20628 -7.10707,-0.0477 -7.32568,-0.0542 -7.98159,-0.23884 -2.07794,-0.58482 -3.69527,-1.96829 -4.18469,-3.57957 -0.1743,-0.57386 -0.18231,-0.7834 -0.15744,-4.11791 0.0256,-3.43438 0.0308,-3.52475 0.23228,-4.02344 0.61398,-1.52002 2.20591,-2.78701 4.15695,-3.30844 0.70561,-0.18859 0.82764,-0.19147 8.11271,-0.19147 8.35644,0 7.89349,-0.0351 9.44591,0.71552 1.57718,0.76256 2.56804,1.87817 2.94145,3.31176 0.095,0.36475 0.13292,0.98804 0.13292,2.18475 V 226.88 h -1.41828 -1.41829 l -0.0306,-1.49264 c -0.0271,-1.32283 -0.0525,-1.53363 -0.22278,-1.85308 -0.40374,-0.75723 -1.39366,-1.43729 -2.39516,-1.64544 -0.29817,-0.062 -2.76642,-0.0852 -7.30721,-0.0686 -6.80188,0.0248 -6.86109,0.0265 -7.37156,0.21948 -0.70871,0.26792 -1.32865,0.74598 -1.68257,1.29752 l -0.29797,0.46435 v 2.90591 2.90592 l 0.33061,0.49794 c 0.35863,0.54012 0.90764,0.96688 1.62148,1.26041 0.44462,0.18283 0.604,0.18764 7.76115,0.23439 7.21838,0.0471 7.31588,0.0502 8.02011,0.24693 1.2358,0.3453 2.13183,0.85154 2.94365,1.6631 0.39372,0.39359 0.82348,0.91912 0.95503,1.16785 0.47304,0.8944 0.51238,1.23943 0.51238,4.4935 0,3.25587 -0.0395,3.60146 -0.51351,4.4935 -0.30833,0.58024 -1.43238,1.70197 -2.09482,2.0905 -0.66753,0.39152 -1.81302,0.77328 -2.68353,0.89436 -1.05504,0.14674 -13.8941,0.11566 -14.72797,-0.0357 z"
     id="path1388"
     transform="matrix(0.93750057,0,0,0.93750057,0,-2.5885453e-4)" />
  <path
     style="fill:#ffffff;fill-opacity:0.941176;stroke-width:0.0891123"
     d="M 267.33699,232.85052 V 218.949 h 10.7826 10.78259 v 1.4258 1.42579 h -9.3568 -9.35679 v 4.72296 4.72295 h 9.0449 9.0449 v 1.4258 1.42579 h -9.0449 -9.0449 v 4.90118 4.90118 h 9.35679 9.3568 v 1.4258 1.4258 h -10.78259 -10.7826 z"
     id="path1427"
     transform="matrix(0.93750057,0,0,0.93750057,0,-2.5885453e-4)" />
  <path
     style="fill:#ffffff;fill-opacity:0.941176;stroke-width:0.0891123"
     d="m 293.71424,232.84826 v -13.90378 l 9.82464,0.0252 c 9.75396,0.025 9.82949,0.0266 10.49901,0.21724 2.08581,0.59391 3.69559,1.97154 4.18445,3.581 0.17475,0.57534 0.18218,0.78226 0.15743,4.38525 l -0.026,3.78142 -0.34462,0.70538 c -0.58054,1.18828 -1.82968,2.27601 -3.17184,2.762 -0.29062,0.10523 -0.5522,0.21513 -0.58129,0.24422 -0.0291,0.0291 0.15919,0.12179 0.41841,0.206 1.76713,0.57409 3.27461,1.95597 3.72521,3.41484 0.16522,0.53491 0.17692,0.83431 0.17692,4.52888 v 3.95612 h -1.42223 -1.42223 l -0.0258,-3.85411 -0.0258,-3.85411 -0.37633,-0.76953 c -0.45865,-0.93785 -1.18297,-1.71488 -1.94929,-2.09115 l -0.52597,-0.25825 -8.1315,-0.0245 -8.1315,-0.0245 v 5.43811 5.43812 h -1.4258 -1.4258 z m 19.71106,-0.15583 c 0.73073,-0.35978 1.41629,-1.07943 1.80188,-1.89149 l 0.27503,-0.57923 0.0255,-3.13943 c 0.0247,-3.04174 0.0196,-3.15324 -0.16553,-3.58354 -0.21595,-0.50199 -0.84693,-1.13873 -1.41625,-1.42917 -0.84817,-0.43271 -0.94941,-0.43651 -9.42555,-0.3542 -4.3505,0.0422 -7.92003,0.0787 -7.93228,0.081 -0.0123,0.002 -0.0223,2.53116 -0.0223,5.61966 v 5.61545 l 8.13342,-0.0237 8.13343,-0.0237 z"
     id="path1466"
     transform="matrix(0.93750057,0,0,0.93750057,0,-2.5885453e-4)" />
  <path
     style="fill:#ffffff;fill-opacity:0.941176;stroke-width:0.0891123"
     d="m 343.62066,246.6494 c -2.419,-0.35199 -4.53182,-2.00111 -5.04815,-3.94024 -0.0993,-0.37309 -0.12161,-2.20476 -0.12094,-9.94775 l 8.2e-4,-9.49046 0.2094,-0.59322 c 0.44645,-1.26479 1.4084,-2.26203 2.87681,-2.98237 1.54632,-0.75856 1.34205,-0.74385 10.34893,-0.74519 5.34013,-7.9e-4 8.07534,0.0307 8.51023,0.098 1.98913,0.30778 3.85969,1.54064 4.61862,3.04408 0.40716,0.80657 0.5191,1.50518 0.52086,3.25057 l 0.002,1.53719 h -1.41646 -1.41646 l -0.0316,-1.40352 c -0.0298,-1.32158 -0.0461,-1.43297 -0.27933,-1.90795 -0.40415,-0.82297 -1.11779,-1.3595 -2.17432,-1.63469 -0.43486,-0.11327 -1.66384,-0.13325 -8.19667,-0.13325 -5.35455,0 -7.82831,0.0304 -8.15733,0.10028 -1.05216,0.22342 -1.96913,0.8932 -2.35379,1.71929 l -0.21084,0.4528 v 8.77756 8.77757 l 0.20841,0.44556 c 0.23465,0.50167 0.83431,1.09577 1.39446,1.38154 0.8467,0.43195 1.0527,0.4421 8.99976,0.4432 4.35905,6.2e-4 7.65816,-0.0345 7.96549,-0.0849 1.1313,-0.18527 2.18087,-0.90549 2.58103,-1.77112 0.18129,-0.39219 0.193,-0.56769 0.21938,-3.28818 l 0.0279,-2.87387 h -5.70878 -5.70878 v -1.4258 -1.42579 h 7.12899 7.12898 l -0.002,4.43334 c -0.002,4.7827 -0.033,5.18298 -0.47458,6.05431 -0.70658,1.39436 -2.13922,2.45799 -4.02404,2.98755 l -0.7129,0.20029 -8.06467,0.0145 c -4.65156,0.008 -8.30832,-0.021 -8.64039,-0.0693 z"
     id="path1505"
     transform="matrix(0.93750057,0,0,0.93750057,0,-2.5885453e-4)" />
  <path
     style="fill:#ffffff;fill-opacity:0.941176;stroke-width:0.0891123"
     d="m 369.01416,246.71092 c 0,-0.035 3.37951,-7.24364 11.30227,-24.10832 l 1.69547,-3.60905 h 1.75238 1.75238 l 6.49684,13.83754 c 3.57327,7.61064 6.49685,13.8563 6.49685,13.87924 0,0.023 -0.69562,0.0417 -1.54583,0.0417 h -1.54582 l -1.36397,-2.89615 -1.36397,-2.89616 h -8.92882 -8.92883 l -1.36196,2.89616 -1.36197,2.89615 h -1.54751 c -0.85113,0 -1.54751,-0.0185 -1.54751,-0.0411 z m 22.27809,-8.6735 c 0,-0.16946 -7.44982,-15.90317 -7.52999,-15.90303 -0.049,8e-5 -0.41653,0.69694 -0.8167,1.54859 -0.40017,0.85164 -2.05824,4.37553 -3.6846,7.83086 -1.62637,3.45533 -2.97783,6.35259 -3.00326,6.43836 -0.0438,0.14766 0.35464,0.15595 7.49416,0.15595 4.14721,0 7.54039,-0.0318 7.54039,-0.0707 z"
     id="path1544"
     transform="matrix(0.93750057,0,0,0.93750057,0,-2.5885453e-4)" />
  <path
     style="fill:#ffffff;fill-opacity:0.941176;stroke-width:0.0891123"
     d="m 418.17767,246.68521 c -0.0204,-0.0368 -3.05579,-5.54056 -6.74539,-12.23067 -3.6896,-6.6901 -6.743,-12.20192 -6.78533,-12.24849 -0.0433,-0.0476 -0.077,5.29081 -0.077,12.18612 v 12.27076 h -1.4258 -1.4258 V 232.80597 218.949 l 2.20553,0.003 2.20553,0.003 6.59431,11.9569 c 3.62688,6.5763 6.63442,11.94587 6.68343,11.93238 0.049,-0.0135 3.05588,-5.39561 6.68193,-11.96028 l 6.59283,-11.93575 h 2.20702 2.20702 v 13.85697 13.85696 h -1.4258 -1.4258 l -0.003,-12.27522 c -0.002,-10.48981 -0.0208,-12.25149 -0.12651,-12.11204 -0.068,0.0898 -3.14416,5.63365 -6.83586,12.31978 l -6.71218,12.1566 h -1.17616 c -0.64689,0 -1.19282,-0.0301 -1.21318,-0.0668 z"
     id="path1583"
     transform="matrix(0.93750057,0,0,0.93750057,0,-2.5885453e-4)" />
  <path
     style="fill:#ffffff;fill-opacity:0.941176;stroke-width:0.0891123"
     d="M 444.75965,232.85052 V 218.949 h 10.78259 10.78259 v 1.4258 1.42579 h -9.35679 -9.3568 v 4.72296 4.72295 h 9.00035 9.00034 v 1.4258 1.42579 h -9.00034 -9.00035 v 4.90118 4.90118 h 9.3568 9.35679 v 1.4258 1.4258 h -10.78259 -10.78259 z"
     id="path1622"
     transform="matrix(0.93750057,0,0,0.93750057,0,-2.5885453e-4)" />
  <path
     style="fill:#ffffff;fill-opacity:0.941176;stroke-width:0.0891123"
     d="m 473.84071,246.62219 c -2.75317,-0.50816 -4.65951,-2.18205 -5.02794,-4.41487 -0.0445,-0.26957 -0.0811,-1.30216 -0.0814,-2.29465 l -5.2e-4,-1.80452 h 1.4154 1.41539 l 0.0353,1.75997 c 0.0323,1.61025 0.0527,1.79556 0.23876,2.17834 0.43719,0.89923 1.41495,1.56579 2.58469,1.76206 0.41048,0.0689 2.64859,0.091 7.27626,0.0719 l 6.68342,-0.0275 0.53468,-0.20173 c 1.02181,-0.38553 1.77949,-1.14092 2.01256,-2.0065 0.0562,-0.20861 0.0815,-1.25488 0.0646,-2.67474 -0.0276,-2.33136 -0.0277,-2.33226 -0.26576,-2.78333 -0.43508,-0.82438 -1.33343,-1.44242 -2.38708,-1.64224 -0.29148,-0.0553 -3.04643,-0.0901 -7.16702,-0.0905 -4.25816,-4.3e-4 -6.90429,-0.0348 -7.27277,-0.0945 -2.63829,-0.42746 -4.74582,-2.23759 -5.07685,-4.36042 -0.11727,-0.75208 -0.11727,-5.84223 0,-6.59431 0.33103,-2.12284 2.43856,-3.93296 5.07685,-4.36043 0.80746,-0.13082 13.96156,-0.12897 14.80626,0.002 1.48349,0.23017 2.72928,0.84867 3.73761,1.85561 0.73146,0.73047 1.13864,1.44262 1.31881,2.30661 0.0542,0.25972 0.0985,1.19206 0.0985,2.07186 v 1.5997 h -1.4258 -1.42579 v -1.27596 c 0,-0.87844 -0.0419,-1.41711 -0.13455,-1.72903 -0.16614,-0.55944 -0.75069,-1.23299 -1.35599,-1.56243 -0.94731,-0.51559 -0.88999,-0.51199 -8.14015,-0.51199 -4.1212,0 -6.83519,0.0344 -7.13255,0.0904 -1.04225,0.1962 -1.96262,0.84596 -2.36821,1.67191 l -0.25049,0.5101 v 2.62881 2.62882 l 0.24864,0.5063 c 0.38631,0.78668 1.1551,1.36769 2.15384,1.62776 0.45736,0.11909 1.4674,0.1383 7.27326,0.1383 7.33231,0 7.58794,0.0145 8.90702,0.50338 1.80062,0.66743 3.2215,2.16983 3.55229,3.75612 0.13172,0.63161 0.13196,5.99682 2.7e-4,6.6301 -0.28459,1.36889 -1.37713,2.67531 -2.84638,3.40359 -1.7014,0.84336 -1.19129,0.79829 -9.30839,0.82251 -5.60083,0.0167 -7.26572,-0.004 -7.76689,-0.0965 z"
     id="path1661"
     transform="matrix(0.93750057,0,0,0.93750057,0,-2.5885453e-4)" />
  <path
     style="fill:#ffffff;fill-opacity:0.941176;stroke-width:0.0891123"
     d="m 495.64201,251.21907 0.36705,-0.52327 0.64115,-0.0416 c 0.74814,-0.0485 1.15974,-0.23394 1.40222,-0.63161 0.14221,-0.23324 0.17401,-0.44992 0.17428,-1.18755 1.9e-4,-0.49625 -0.0247,-1.02758 -0.0554,-1.18074 l -0.0557,-0.27848 h -0.92455 -0.92454 v -1.8268 -1.8268 h 1.51491 1.51491 v 3.14599 3.14599 l -0.22843,0.4584 c -0.43176,0.86643 -1.34266,1.26973 -2.86781,1.26973 h -0.92519 z"
     id="path1700"
     transform="matrix(0.93750057,0,0,0.93750057,0,-2.5885453e-4)" />
  <path
     style="fill:#ffffff;fill-opacity:0.941176;stroke-width:0.0891123"
     d="m 507.49473,242.02909 v -6.05964 h 0.57923 0.57923 v 6.05964 6.05964 h -0.57923 -0.57923 z"
     id="path1739"
     transform="matrix(0.93750057,0,0,0.93750057,0,-2.5885453e-4)" />
  <path
     style="fill:#ffffff;fill-opacity:0.941176;stroke-width:0.0891123"
     d="m 511.23745,242.02909 v -6.05964 h 1.09923 1.09924 l 3.36999,5.41358 c 1.85349,2.97746 3.42401,5.47229 3.49005,5.54406 0.10078,0.10953 0.12006,-0.75968 0.12006,-5.41358 v -5.54406 h 0.62378 0.62379 v 6.06247 6.06247 l -1.04044,-0.0251 -1.04044,-0.0251 -3.49428,-5.59961 c -1.92185,-3.07978 -3.53888,-5.64421 -3.5934,-5.69873 -0.0728,-0.0728 -0.0991,1.42271 -0.0991,5.62189 v 5.72101 h -0.57923 -0.57923 z"
     id="path1778"
     transform="matrix(0.93750057,0,0,0.93750057,0,-2.5885453e-4)" />
  <path
     style="fill:#ffffff;fill-opacity:0.941176;stroke-width:0.0891123"
     d="m 525.7182,247.96408 c -0.19605,-0.062 -0.47883,-0.17654 -0.62841,-0.25454 -0.40485,-0.21109 -0.99399,-0.89302 -1.10841,-1.28297 -0.0703,-0.23968 -0.0923,-1.62122 -0.073,-4.59042 l 0.0276,-4.24755 0.27016,-0.38629 c 0.31145,-0.44533 0.96272,-0.91298 1.49807,-1.0757 0.26132,-0.0794 1.11871,-0.1126 2.91017,-0.1126 2.88424,0 3.15045,0.048 3.89271,0.70133 0.60624,0.53363 0.74113,0.87569 0.74113,1.87938 v 0.85011 h -0.57923 -0.57923 l -3.3e-4,-0.64606 c -4.2e-4,-0.81013 -0.18905,-1.16142 -0.75905,-1.41355 -0.37086,-0.16405 -0.56903,-0.17434 -2.88743,-0.14989 -2.35308,0.0248 -2.5027,0.0363 -2.73515,0.20998 -0.13524,0.10106 -0.32857,0.29449 -0.42962,0.42986 -0.17911,0.23993 -0.18374,0.34563 -0.18374,4.19855 0,3.84977 0.005,3.9588 0.18328,4.19787 0.1008,0.13499 0.3414,0.3284 0.53467,0.42978 0.33053,0.1734 0.49696,0.18434 2.80199,0.18434 2.66837,0 2.71689,-0.008 3.20804,-0.53312 0.20752,-0.22184 0.22482,-0.31095 0.25253,-1.30059 l 0.0297,-1.06244 h 0.57834 0.57834 l -0.0289,1.27679 c -0.0277,1.22614 -0.0387,1.29172 -0.27833,1.65334 -0.28953,0.43701 -0.90014,0.85237 -1.52667,1.03849 -0.58504,0.1738 -5.16344,0.17853 -5.70929,0.006 z"
     id="path1817"
     transform="matrix(0.93750057,0,0,0.93750057,0,-2.5885453e-4)" />
</svg>
