<?xml version="1.0" encoding="UTF-8" standalone="no"?>
<svg
   height="67.786751mm"
   viewBox="0 0 500.00001 240.18927"
   width="141.11111mm"
   version="1.1"
   id="svg77"
   sodipodi:docname="alg.svg"
   inkscape:version="1.1 (c68e22c387, 2021-05-23)"
   xmlns:inkscape="http://www.inkscape.org/namespaces/inkscape"
   xmlns:sodipodi="http://sodipodi.sourceforge.net/DTD/sodipodi-0.dtd"
   xmlns="http://www.w3.org/2000/svg"
   xmlns:svg="http://www.w3.org/2000/svg">
  <defs
     id="defs81" />
  <sodipodi:namedview
     id="namedview79"
     pagecolor="#ffffff"
     bordercolor="#666666"
     borderopacity="1.0"
     inkscape:pageshadow="2"
     inkscape:pageopacity="0.0"
     inkscape:pagecheckerboard="0"
     inkscape:document-units="mm"
     showgrid="false"
     inkscape:zoom="0.92370266"
     inkscape:cx="172.67461"
     inkscape:cy="236.54798"
     inkscape:window-width="1366"
     inkscape:window-height="705"
     inkscape:window-x="-8"
     inkscape:window-y="-8"
     inkscape:window-maximized="1"
     inkscape:current-layer="svg77" />
  <linearGradient
     id="a"
     gradientUnits="userSpaceOnUse"
     x1="119.7724"
     x2="421.392"
     y1="172.48013"
     y2="172.48013">
    <stop
       offset="0"
       stop-color="#f00"
       id="stop2" />
    <stop
       offset=".26179838"
       stop-color="#f00"
       id="stop4" />
    <stop
       offset=".35360512"
       stop-color="#ff7c00"
       id="stop6" />
    <stop
       offset=".62091219"
       stop-color="#ff7c00"
       id="stop8" />
    <stop
       offset=".75927901"
       stop-color="#ff0"
       id="stop10" />
    <stop
       offset="1"
       stop-color="#ff0"
       id="stop12" />
  </linearGradient>
  <g
     transform="matrix(1.3061242 0 0 1.3061242 -97.055856 -914.82881)"
     id="g75">
    <path
       d="m131.71816 846.34434-18.98387-15.0948h26.76093l14.63854-26.30414v26.30414h41.62786v-130.83467l-121.45333 183.89466h35.452z"
       id="path15" />
    <path
       d="m155.20976 851.14807 8.07293 24.01346h32.47893v-24.01346z"
       id="path17" />
    <g
       fill="url(#a)"
       transform="translate(34.338958 668.57887)"
       id="g29">
      <path
         d="m421.39199 165.39573v-1.1156l-265.33199-.67866-5.81867 2.48906z"
         id="path19" />
      <path
         d="m421.39199 169.19467v-1.11614l-274.15733-.70253-5.928 2.53587z"
         id="path21" />
      <path
         d="m421.39199 172.99053v-1.1156l-282.98399-.72293-6.032 2.58013z"
         id="path23" />
      <path
         d="m421.39199 176.78947v-1.11614l-291.81226-.74693-6.13707 2.6256z"
         id="path25" />
      <path
         d="m120.5188 181.3588 300.87319-.77093v-1.11614l-300.63786-.7692-.98173.42027z"
         id="path27" />
    </g>
    <g
       transform="matrix(.13333333 0 0 -.13333333 34.338958 927.3522)"
       id="g73">
      <path
         d="m1368.72 1006.3v-263.14h-88.99v456.78h120.19l38.09-210.338 39.9 210.338h111.32v-456.78h-89.78v263.14l-44.63-263.14h-39.91z"
         id="path31" />
      <path
         d="m1631.64 743.16v456.78h157.51v-66.94h-59.06v-108.68h54.86v-67.734h-54.86v-147.785h59.06v-65.641z"
         id="path33" />
      <path
         d="m1829.12 743.16v456.78h112.85c49.03 0 80.27-5.44 93.74-16.31 13.48-10.86 20.22-36.84 20.22-77.92v-47.47c0-33.17-3.33-55.35-9.98-66.521-6.66-11.172-36.08-19.785-53.5-25.828 16.86-4.75 46.14-12.567 53.08-23.442 6.93-10.879 10.4-27.75 10.4-50.59v-148.699h-95.35v156.949c0 9.52-1.58 15.942-4.73 19.243-3.15 3.296-12.96 4.949-21.67 4.949h-5.83v-181.141zm131.46 297.93v67.39c0 12.22-1.47 19.7-4.38 22.47-2.93 2.76-8.88 4.15-17.83 4.15h-9.69v-125.94c1.24 0 3.02-.12 5.32-.31 2.29-.2 3.93-.29 4.99-.29 8.33 0 14.03 1.33 17.05 4 3.01 2.66 4.54 7.73 4.54 15.21z"
         id="path35" />
      <path
         d="m2105.85 743.16h98.4492v456.777h-98.4492z"
         id="path37" />
      <path
         d="m2246.55 1107.65c0 42.55 6.28 68.97 18.85 79.24s50.2 21.71 100.29 21.71c51.21 0 76.71-11.81 89.09-22.81s18.58-37.06 18.58-78.14v-63.65h-99.23v60.89c0 8.81-1.12 14.78-3.33 17.9-2.23 3.13-11.13 4.69-17.24 4.69-4.63 0-7.88-1.37-9.72-4.13-1.86-2.76-2.79-8.91-2.79-18.46v-266.218c0-8.422 1.06-14.383 3.2-17.852 2.13-3.468 5.79-5.199 10.98-5.199 4.44 0 12.64 1.309 15.15 3.969 2.5 2.648 3.75 6.351 3.75 11.109v106.992h99.23v-101.769c0-42.082-6.39-68.59-19.13-79.524-12.76-10.918-37.73-22.847-87.81-22.847-50.65 0-88.68 12.058-101.15 23.269-12.48 11.2-18.72 37.571-18.72 79.102z"
         id="path39" />
      <path
         d="m2488.29 743.16 75.38 456.78h119.71l53.5-456.78h-85.01l-10.05 80.531h-50.84l-7.51-80.531zm117.73 163.809h31.15l-15.43 176.341z"
         id="path41" />
      <path
         d="m2758.28 743.16v456.78h91.8l49.17-187.24v187.24h85.84v-456.78h-79.1l-62.66 223.863v-223.863z"
         id="path43" />
      <path
         d="m1301.58 389.391v134.25h-15.85l-.01-150.102h108.14v15.852z"
         id="path45" />
      <path
         d="m1855.32 507.789v15.852h-116.54v-150.102h116.54v15.852h-100.68v52.039h97.09v15.851h-97.09v50.508z"
         id="path47" />
      <path
         d="m2810.3 507.789v15.852h-116.53v-150.102h116.53v15.852h-100.68v52.039h97.09v15.851h-97.09v50.508z"
         id="path49" />
      <path
         d="m1991.5 438.762c13.25 3.816 22.75 13.886 22.75 25.777v31.633c0 15.156-15.42 27.469-34.44 27.469h-99.33v-150.102h15.85v58.281h84.4c10.28 0 18.59-13.191 18.59-21.39v-36.891h15.85v39.262c0 12.148-9.96 22.34-23.67 25.961zm-11.69 8.929c-.68 0-55.74.059-83.48 0v60.219c26.84.25 79.31.699 83.48.699 10.27 0 18.59-6.629 18.59-14.82v-26.879c0-8.18-8.32-19.219-18.59-19.219z"
         id="path51" />
      <path
         d="m1487.49 523.641h-19.01l-70.48-150.102h17.51l14.64 31.18h95.67l14.64-31.18h17.51zm-49.9-103.071 40.4 86.039 40.39-86.039z"
         id="path53" />
      <path
         d="m2375.19 523.641h-19.02l-70.49-150.102h17.52l14.65 31.18h95.66l14.64-31.18h17.51zm-49.91-103.071 40.4 86.039 40.4-86.039z"
         id="path55" />
      <path
         d="m1710.43 480.461v15.711c0 15.156-15.42 27.469-34.44 27.469h-66.66c-19.02 0-34.44-12.313-34.44-27.469v-29.102c0-15.172 15.42-27.461 34.44-27.461h66.66c10.27 0 18.59-6.64 18.59-14.828v-20.551c0-8.199-8.32-14.839-18.59-14.839h-66.66c-10.27 0-18.59 6.64-18.59 14.839v16.34h-15.85v-19.57c0-15.16 15.42-27.461 34.44-27.461h66.66c19.02 0 34.44 12.301 34.44 27.461v26.988c0 15.172-15.42 27.461-34.44 27.461h-66.66c-10.27 0-18.59 6.641-18.59 14.832v22.668c0 8.192 8.32 14.84 18.59 14.84h66.66c10.27 0 18.59-6.648 18.59-14.84v-12.488z"
         id="path57" />
      <path
         d="m2958.58 480.461v15.711c0 15.156-15.42 27.469-34.44 27.469h-66.66c-19.02 0-34.43-12.313-34.43-27.469v-29.102c0-15.172 15.41-27.461 34.43-27.461h66.66c10.28 0 18.59-6.64 18.59-14.828v-20.551c0-8.199-8.31-14.839-18.59-14.839h-66.66c-10.26 0-18.58 6.64-18.58 14.839v16.34h-15.85v-19.57c0-15.16 15.41-27.461 34.43-27.461h66.66c19.02 0 34.44 12.301 34.44 27.461v26.988c0 15.172-15.42 27.461-34.44 27.461h-66.66c-10.26 0-18.58 6.641-18.58 14.832v22.668c0 8.192 8.32 14.84 18.58 14.84h66.66c10.28 0 18.59-6.648 18.59-14.84v-12.488z"
         id="path59" />
      <path
         d="m2267.68 480.461v15.711c0 15.156-15.42 27.469-34.44 27.469h-77.44c-19.03 0-34.44-12.313-34.44-27.469v-95.172c0-15.16 15.41-27.461 34.44-27.461h77.44c19.02 0 34.44 12.301 34.44 27.461v46.691h-76.97v-15.851h61.12v-27.61c0-8.199-8.32-14.839-18.59-14.839h-77.44c-10.28 0-18.6 6.64-18.6 14.839v88.719c0 8.192 8.32 14.84 18.6 14.84h77.44c10.27 0 18.59-6.648 18.59-14.84v-12.488z"
         id="path61" />
      <path
         d="m2628.84 523.641-71.35-129.18-71.34 129.18h-24.23v-149.68h15.85v132.078l73.16-132.5h13.12l73.17 132.5v-132.078h15.85v149.68z"
         id="path63" />
      <path
         d="m3163.93 388.871v-9.23c0-3.59-3.63-6.481-8.12-6.481h-20.99c-4.49 0-8.12 2.891-8.12 6.481v38.757c0 3.582 3.63 6.493 8.12 6.493h20.99c4.49 0 8.12-2.911 8.12-6.493v-5.457h6.93v6.868c0 6.632-6.74 12.011-15.05 12.011h-20.99c-8.32 0-15.05-5.379-15.05-12.011v-41.579c0-6.621 6.73-12 15.05-12h20.99c8.31 0 15.05 5.379 15.05 12v10.641z"
         id="path65" />
      <path
         d="m3031.42 366.23h6.9297v65.5898h-6.9297z"
         id="path67" />
      <path
         d="m3101.23 431.82v-59.601l-37.19 59.601h-12.44v-65.59h6.93v61.329l38.28-61.329h11.34v65.59z"
         id="path69" />
      <path
         d="m2987.82 390.191h-16.87v-20.203h10.03l.56-2.207v-8.98c0-3.242-3.28-5.86-7.35-5.86h-4.29l-4.33-6.281h8.62c7.53 0 13.63 4.86 13.63 10.879z"
         id="path71" />
    </g>
  </g>
  <path
     style="fill:#ffffff;fill-opacity:1;stroke-width:0.504096"
     d="M 1.0081916,255.53415 C 1.0081916,255.30884 167.927,2.2497713 168.7006,1.3022474 c 0.0943,-0.1155219 0.17149,40.5461046 0.17149,90.3591686 v 90.569214 h -28.72725 -28.72725 l -0.13223,-18.52552 -0.13224,-18.52552 -10.33396,18.51882 -10.333966,18.51883 -18.580108,0.13272 -18.580104,0.13272 13.137628,10.45671 13.137629,10.45672 -4.318619,7.43868 c -2.375244,4.09128 -9.199088,15.88859 -15.164099,26.21626 L 49.272045,255.82861 H 25.140118 c -13.272559,0 -24.1319264,-0.13251 -24.1319264,-0.29446 z"
     id="path24003"
     transform="scale(0.93749994)" />
  <path
     style="fill:#ffffff;fill-opacity:1;stroke-width:0.504096"
     d="M 182.48268,135.60177 V 93.509769 h 10.798 10.79801 l 0.28324,1.386264 c 0.15578,0.762444 1.64997,8.985507 3.32044,18.273467 3.44473,19.15311 3.48837,19.36907 3.84305,19.0144 0.14312,-0.14312 1.89236,-8.84664 3.8872,-19.34115 l 3.627,-19.080933 10.20294,-0.136462 10.20294,-0.136461 v 42.102436 42.10244 h -8.06553 -8.06553 v -24.1966 c 0,-13.30813 -0.17049,-24.1966 -0.37885,-24.1966 -0.20837,0 -2.16764,10.60492 -4.35394,23.56648 -2.1863,12.96156 -4.08167,23.85003 -4.21195,24.1966 -0.15719,0.41819 -1.3776,0.63012 -3.62864,0.63012 h -3.39179 l -1.53414,-8.69566 c -0.84378,-4.78261 -2.75256,-15.67079 -4.24174,-24.19595 -1.48918,-8.52517 -2.87773,-15.50059 -3.08567,-15.50095 -0.20794,-3.5e-4 -0.37807,10.88783 -0.37807,24.19596 v 24.1966 h -7.81349 -7.81348 z"
     id="path24079"
     transform="scale(0.93749994)" />
  <path
     style="fill:#ffffff;fill-opacity:1;stroke-width:0.504096"
     d="M 247.51103,135.60177 V 93.509769 h 14.36673 14.36673 v 6.04915 6.049151 h -5.293 -5.29301 v 10.33396 10.33397 h 5.04096 5.04096 v 6.04914 6.04915 h -5.04096 -5.04096 v 13.86264 13.86263 h 5.29301 5.293 v 5.7971 5.79711 h -14.36673 -14.36673 z"
     id="path24118"
     transform="scale(0.93749994)" />
  <path
     style="fill:#ffffff;fill-opacity:1;stroke-width:0.504096"
     d="M 284.31003,135.60177 V 93.509769 l 13.23251,0.01014 c 21.83842,0.01673 25.32575,1.015088 27.43747,7.854841 0.77301,2.50372 0.91491,4.72386 0.89883,14.06319 -0.028,16.25941 -0.23221,16.73682 -8.54611,19.97718 -1.94613,0.7585 -3.19346,1.48453 -2.77696,1.61636 5.08901,1.61073 7.85071,2.75553 8.82449,3.658 2.15289,1.99523 2.4118,4.05488 2.6398,20.99924 l 0.21535,16.00505 h -8.61234 -8.61235 l -0.022,-13.98866 c -0.0224,-14.24812 -0.33788,-18.05699 -1.5599,-18.83123 -0.37762,-0.23925 -1.65066,-0.43847 -2.82899,-0.44272 l -2.14241,-0.008 v 16.63517 16.63516 h -9.07372 -9.07372 z m 23.67393,-7.62507 c 0.87864,-0.82362 1.35926,-11.51482 0.79049,-17.5844 -0.42217,-4.50516 -1.02707,-5.28833 -4.08455,-5.28833 h -2.23243 v 11.80929 c 0,10.83069 0.0731,11.82673 0.88217,12.01978 1.35298,0.32283 3.82209,-0.1856 4.64432,-0.95634 z"
     id="path24157"
     transform="scale(0.93749994)" />
  <path
     style="fill:#ffffff;fill-opacity:1;stroke-width:0.504096"
     d="M 335.7278,135.60177 V 93.509769 h 8.82167 8.82168 v 42.092001 42.092 h -8.82168 -8.82167 z"
     id="path24196"
     transform="scale(0.93749994)" />
  <path
     style="fill:#ffffff;fill-opacity:1;stroke-width:0.504096"
     d="m 376.8116,179.18554 c -4.67733,-0.72788 -9.60893,-2.37915 -11.26358,-3.77145 -0.82544,-0.69456 -1.91152,-2.33723 -2.4135,-3.65037 -0.83866,-2.19386 -0.92612,-4.94068 -1.07817,-33.86049 -0.17014,-32.36132 0.009,-36.32777 1.79742,-39.774684 1.91096,-3.683304 7.53427,-5.574439 17.74674,-5.968278 11.51755,-0.444168 17.62244,1.567754 20.16383,6.645173 1.20187,2.401189 1.26812,3.002319 1.43032,12.977799 l 0.17007,10.45999 h -8.82853 -8.82854 l -0.16322,-7.32875 c -0.13002,-5.83858 -0.31696,-7.42575 -0.91935,-7.80577 -1.0735,-0.67722 -4.22214,-0.60554 -4.94014,0.11246 -0.4559,0.4559 -0.60492,7.46924 -0.60492,28.4698 v 27.86487 l 1.17772,0.77167 c 1.45679,0.95453 4.19433,0.51675 4.88934,-0.78188 0.2674,-0.49965 0.48619,-5.46023 0.48619,-11.02351 v -10.11506 h 8.82168 8.82167 v 12.49648 c 0,14.93755 -0.43102,17.46258 -3.47481,20.35648 -2.76109,2.62511 -7.35557,3.96541 -14.42059,4.20676 -3.04978,0.10419 -6.90611,-0.0224 -8.56963,-0.28124 z"
     id="path24235"
     transform="scale(0.93749994)" />
  <path
     style="fill:#ffffff;fill-opacity:1;stroke-width:0.504096"
     d="m 407.09822,176.3075 c 0.14724,-0.76244 3.27362,-19.64713 6.94751,-41.96597 l 6.6798,-40.579713 10.93529,-0.135855 c 6.01441,-0.07472 10.93528,-0.02983 10.93528,0.09976 0,0.129591 2.15501,18.621668 4.78891,41.093498 2.6339,22.47183 4.78891,41.31163 4.78891,41.86621 0,0.96318 -0.33571,1.00834 -7.49701,1.00834 h -7.497 l -0.29179,-1.89036 c -0.16048,-1.0397 -0.57058,-4.32893 -0.91132,-7.30939 l -0.61954,-5.41903 h -4.91016 -4.91015 l -0.26197,1.38626 c -0.14408,0.76245 -0.39627,3.20101 -0.56042,5.41903 -0.16416,2.21802 -0.4245,4.88343 -0.57854,5.92313 l -0.28008,1.89036 h -8.51272 -8.51271 z m 27.22638,-30.74984 c -0.16531,-1.31695 -0.7561,-7.83869 -1.31285,-14.49275 -1.07371,-12.83249 -1.47639,-16.58227 -1.75077,-16.30329 -0.0932,0.0947 -0.75508,6.86409 -1.47093,15.04305 -0.71586,8.17895 -1.40231,15.60806 -1.52545,16.50913 l -0.22389,1.63831 h 3.29223 3.29224 z"
     id="path24274"
     transform="scale(0.93749994)" />
  <path
     style="fill:#ffffff;fill-opacity:1;stroke-width:0.504096"
     d="M 456.71079,135.58958 V 93.485392 l 8.4436,0.138213 8.4436,0.138212 4.53687,17.333413 4.53686,17.33341 0.13256,-17.45943 0.13255,-17.459441 h 7.80695 7.80696 v 42.105841 42.10584 l -7.15769,-0.13987 -7.15769,-0.13986 -5.59595,-19.91179 c -3.07778,-10.95148 -5.73683,-20.25204 -5.90901,-20.66792 -0.17218,-0.41588 -0.33096,8.60113 -0.35285,20.0378 l -0.0398,20.79396 h -7.81349 -7.81348 z"
     id="path24313"
     transform="scale(0.93749994)" />
  <path
     style="fill:#ffffff;fill-opacity:1;stroke-width:0.504096"
     d=""
     id="path24352"
     transform="scale(0.93749994)" />
  <path
     style="fill:#ffffff;fill-opacity:1;stroke-width:0.504096"
     d="m 411.83174,234.64914 c -3.66251,-6.65817 -6.85887,-12.22921 -7.10302,-12.3801 -0.2511,-0.15519 -0.4439,4.99315 -0.4439,11.8537 v 12.12805 h -1.26024 -1.26024 v -13.63957 -13.63957 l 2.12361,0.15501 2.1236,0.15501 6.57205,11.95896 c 3.61463,6.57743 6.68547,11.959 6.8241,11.95904 0.13862,4e-5 3.20101,-5.38149 6.80529,-11.95896 l 6.55325,-11.95904 2.1424,-0.15501 2.14241,-0.15501 v 13.63957 13.63957 h -1.26024 -1.26024 v -12.12805 c 0,-7.17584 -0.1877,-12.01204 -0.45968,-11.84394 -0.25283,0.15625 -3.45388,5.72729 -7.11344,12.38009 -4.86284,8.84026 -6.89772,12.096 -7.56017,12.096 -0.66247,0 -2.69863,-3.25809 -7.56554,-12.10575 z"
     id="path24391"
     transform="scale(0.93749994)" />
  <path
     style="fill:#ffffff;fill-opacity:1;stroke-width:0.504096"
     d="m 445.11658,232.89226 v -13.86264 h 10.58601 10.58602 v 1.26024 1.26024 h -9.32578 -9.32577 v 5.04096 5.04096 h 8.82168 8.82167 v 1.26024 1.26023 h -8.82167 -8.82168 v 5.04096 5.04096 h 9.32577 9.32578 v 1.26024 1.26024 h -10.58602 -10.58601 z"
     id="path24430"
     transform="scale(0.93749994)" />
  <path
     style="fill:#ffffff;fill-opacity:1;stroke-width:0.504096"
     d=""
     id="path24469"
     transform="scale(0.93749994)" />
  <path
     style="fill:#ffffff;fill-opacity:1;stroke-width:0.504096"
     d="m 473.40798,246.24977 c -2.66693,-0.62966 -4.1927,-2.50225 -4.48067,-5.49915 -0.23983,-2.496 -0.21069,-2.56536 1.07788,-2.56536 1.20496,0 1.32437,0.17851 1.32437,1.9798 0,1.53839 0.29614,2.21273 1.32823,3.02457 1.20244,0.94584 2.00202,1.04408 8.4436,1.03735 9.31735,-0.01 9.58673,-0.14167 9.78778,-4.79392 0.22323,-5.16554 0.01,-5.28057 -9.81062,-5.28057 -8.69854,0 -10.1514,-0.39091 -11.55735,-3.1097 -1.15312,-2.2299 -0.81345,-7.98177 0.56251,-9.52524 1.8356,-2.05906 3.78827,-2.48793 11.32777,-2.48793 9.6394,0 12.0983,1.14979 12.0983,5.65722 0,1.6951 -0.1384,1.90422 -1.26024,1.90422 -1.10026,0 -1.26024,-0.22035 -1.26024,-1.73575 0,-2.91864 -1.10771,-3.30521 -9.47108,-3.30521 -9.53645,0 -10.16803,0.32053 -10.18094,5.16698 -0.0125,4.68012 0.43323,4.91259 9.44408,4.92601 6.20305,0.009 7.78376,0.16923 9.53715,0.96533 2.73953,1.24385 3.19127,2.21023 3.19127,6.82685 0,3.36535 -0.14694,3.98371 -1.19586,5.03263 -0.65771,0.65772 -2.07548,1.44009 -3.15059,1.73861 -2.22723,0.61841 -13.1918,0.64852 -15.75535,0.0433 z"
     id="path24508"
     transform="scale(0.93749994)" />
  <path
     style="fill:#ffffff;fill-opacity:1;stroke-width:0.504096"
     d="m 498.55074,248.77127 c 0,-1.17622 -0.22405,-1.51228 -1.00819,-1.51228 -0.81616,0 -1.0082,-0.33607 -1.0082,-1.76434 0,-1.54589 0.15603,-1.76434 1.26024,-1.76434 1.215,0 1.26024,0.11763 1.26024,3.27663 0,1.80214 -0.11342,3.27662 -0.25205,3.27662 -0.13862,0 -0.25204,-0.68053 -0.25204,-1.51229 z"
     id="path24547"
     transform="scale(0.93749994)" />
  <path
     style="fill:#ffffff;fill-opacity:1;stroke-width:0.504096"
     d=""
     id="path24623"
     transform="scale(0.93749994)" />
  <path
     style="fill:#ffffff;fill-opacity:1;stroke-width:0.14532"
     d="m 369.11345,246.61069 c 0,-0.0634 11.84601,-25.33215 12.65548,-26.99546 l 0.33593,-0.69027 1.67856,0.002 1.67856,0.002 6.31111,13.47626 c 3.47111,7.41194 6.40033,13.65834 6.50939,13.88087 l 0.19827,0.40461 -1.55015,-0.0413 -1.55015,-0.0413 -1.33015,-2.83374 -1.33015,-2.83375 -8.94399,-0.0374 -8.94398,-0.0374 -1.35861,2.90751 -1.35861,2.9075 h -1.50076 c -0.82541,0 -1.50075,-0.0317 -1.50075,-0.0704 z m 22.234,-8.5557 c 0,-0.11237 -7.43257,-15.86677 -7.53304,-15.96736 -0.093,-0.0931 -7.58086,15.62316 -7.58043,15.91062 9e-5,0.0599 3.40065,0.10899 7.55681,0.10899 4.15616,0 7.55666,-0.0235 7.55666,-0.0522 z"
     id="path24699"
     transform="scale(0.93749994)" />
  <path
     style="fill:#ffffff;fill-opacity:1;stroke-width:0.14532"
     d="m 342.84892,246.45711 c -1.76734,-0.47597 -3.3739,-1.71238 -4.00758,-3.08426 -0.317,-0.68628 -0.31781,-0.71308 -0.31781,-10.5698 v -9.88178 l 0.38513,-0.72948 c 0.49438,-0.93642 1.66171,-2.0262 2.65987,-2.48318 1.67542,-0.76703 2.20548,-0.8033 10.96995,-0.75061 7.93013,0.0477 8.08903,0.0543 8.93404,0.37172 1.27994,0.48084 1.99928,0.94963 2.79772,1.82325 0.98097,1.07334 1.2102,1.83808 1.2102,4.03745 v 1.72716 h -1.38054 -1.38054 l -0.003,-1.34421 c -0.002,-0.99208 -0.0736,-1.49919 -0.27187,-1.93578 -0.32224,-0.70948 -1.13415,-1.41286 -1.89345,-1.64035 -0.38644,-0.11578 -3.00622,-0.16544 -8.67471,-0.16445 l -8.12107,0.001 -0.73254,0.34111 c -0.84891,0.39531 -1.44602,1.04127 -1.6695,1.80607 -0.10739,0.36753 -0.14321,3.28597 -0.11286,9.19571 l 0.0445,8.65731 0.37896,0.57251 c 0.22504,0.33998 0.69724,0.74879 1.16257,1.00649 l 0.78359,0.43398 h 8.35592 8.35591 l 0.76227,-0.40175 c 0.48231,-0.25419 0.90928,-0.62371 1.16256,-1.00613 0.39912,-0.60261 0.40043,-0.6131 0.44734,-3.55823 l 0.047,-2.95385 h -5.6782 -5.6782 v -1.4532 -1.4532 h 7.04803 7.04803 v 4.6448 c 0,4.39953 -0.0165,4.68896 -0.31299,5.48133 -0.56483,1.50966 -2.18603,2.80634 -4.14737,3.3172 -1.19195,0.31047 -17.01487,0.30415 -18.17116,-0.007 z"
     id="path24738"
     transform="scale(0.93749994)" />
  <path
     style="fill:#ffffff;fill-opacity:1;stroke-width:0.14532"
     d="m 495.39675,251.70631 c 0,-0.057 0.17124,-0.3282 0.38055,-0.60261 0.33553,-0.43991 0.46015,-0.49947 1.05357,-0.50354 1.09643,-0.008 1.45582,-0.48998 1.49208,-2.00299 0.0181,-0.75345 0.0301,-0.71926 0.137,0.38865 0.12578,1.30379 0.18993,1.47568 0.45266,1.21295 0.25041,-0.25041 0.25311,-5.65927 0.003,-6.09707 -0.1683,-0.29466 -0.15654,-0.32697 0.11898,-0.32697 0.303,0 0.30533,0.029 0.25942,3.23337 -0.0521,3.63869 -0.0927,3.79093 -1.15583,4.33329 -0.54921,0.28018 -2.74147,0.572 -2.74147,0.36492 z"
     id="path24777"
     transform="scale(0.93749994)" />
  <path
     style="fill:#ffffff;fill-opacity:1;stroke-width:0.14532"
     d="m 507.45833,242.10354 v -6.03079 h 0.58128 0.58128 v 6.03079 6.03079 h -0.58128 -0.58128 z"
     id="path24816"
     transform="scale(0.93749994)" />
  <path
     style="fill:#ffffff;fill-opacity:1;stroke-width:0.14532"
     d="m 512.4653,242.5395 c 4e-5,-3.11711 0.0193,-4.37162 0.0428,-2.78779 0.0235,1.58384 0.0234,4.13421 -8e-5,5.66749 -0.0235,1.53329 -0.0427,0.23742 -0.0427,-2.8797 z"
     id="path24855"
     transform="scale(0.93749994)" />
  <path
     style="fill:#ffffff;fill-opacity:1;stroke-width:0.14532"
     d="m 512.41069,241.07419 c 0.007,-0.16929 0.0414,-0.20372 0.0878,-0.0878 0.042,0.10491 0.0368,0.23025 -0.0115,0.27854 -0.0483,0.0483 -0.0826,-0.0375 -0.0763,-0.19074 z"
     id="path24894"
     transform="scale(0.93749994)" />
  <path
     style="fill:#ffffff;fill-opacity:1;stroke-width:0.14532"
     d="m 511.23666,242.10354 v -6.03079 l 1.12623,0.006 1.12623,0.006 3.41503,5.51053 c 1.87826,3.0308 3.46407,5.51316 3.52401,5.51636 0.0599,0.003 0.10899,-2.47916 0.10899,-5.51636 v -5.52217 h 0.50862 0.50862 v 6.03079 6.03079 h -0.93527 -0.93527 l -3.60599,-5.77031 -3.60598,-5.77031 -0.038,5.77031 -0.038,5.77031 h -0.57961 -0.57961 z"
     id="path24933"
     transform="scale(0.93749994)" />
  <path
     style="fill:#ffffff;fill-opacity:1;stroke-width:0.14532"
     d="m 526.04553,248.00602 c -0.69666,-0.14569 -1.41301,-0.57888 -1.78752,-1.08094 -0.29218,-0.39169 -0.30773,-0.60095 -0.34837,-4.68787 -0.0482,-4.85118 -0.0201,-5.00621 1.03495,-5.70513 0.57169,-0.37871 0.63922,-0.38761 3.28325,-0.43237 1.48476,-0.0251 2.91603,-0.005 3.1806,0.0445 0.26457,0.0496 0.73741,0.32187 1.05076,0.60496 0.59984,0.54192 0.86394,1.18924 0.86532,2.12096 8e-4,0.53605 -0.008,0.54495 -0.56198,0.54495 h -0.56279 l -0.0725,-0.75438 c -0.0563,-0.58552 -0.1598,-0.82948 -0.46255,-1.0899 -0.3771,-0.32437 -0.47957,-0.33552 -3.08157,-0.33552 h -2.6915 l -0.42478,0.42478 -0.42478,0.42478 v 3.85533 c 0,2.43146 0.0575,3.9815 0.15566,4.19697 0.30348,0.66606 0.64345,0.75686 3.03632,0.81101 3.36836,0.0762 3.92871,-0.20303 3.92871,-1.95784 v -0.92498 h 0.59995 0.59996 l -0.0661,1.14231 c -0.0832,1.43771 -0.38071,1.9843 -1.35209,2.48436 -0.67279,0.34634 -0.86484,0.37132 -3.04728,0.39643 -1.28108,0.0147 -2.56432,-0.0224 -2.85165,-0.0824 z"
     id="path24972"
     transform="scale(0.93749994)" />
  <path
     style="fill:#ffffff;fill-opacity:1;stroke-width:0.14532"
     d="m 293.69223,232.79647 v -13.88466 l 9.91811,0.0461 c 9.56425,0.0444 9.94713,0.0567 10.7314,0.343 1.70391,0.62209 3.01968,1.68679 3.6505,2.95395 0.31578,0.63431 0.33394,0.849 0.3767,4.45268 0.0425,3.58469 0.0282,3.83092 -0.26911,4.62555 -0.49968,1.33553 -1.97718,2.61725 -3.69946,3.20924 -0.23596,0.0811 -0.13548,0.1634 0.53406,0.4374 1.62566,0.66529 2.63894,1.56815 3.2654,2.90956 0.32982,0.70625 0.33937,0.83955 0.34075,4.75923 l 0.001,4.03264 h -1.38054 -1.38055 v -3.62755 c 0,-4.18669 -0.10131,-4.67171 -1.24055,-5.93882 -1.12953,-1.25631 -0.55652,-1.18733 -9.86208,-1.18733 h -8.22496 v 5.37685 5.37685 h -1.38054 -1.38055 z m 19.69652,-0.0484 c 0.3228,-0.14663 0.85739,-0.57388 1.18798,-0.94945 0.94366,-1.07206 1.05899,-1.59503 1.05805,-4.79792 -4.3e-4,-1.52434 -0.0679,-3.01299 -0.14984,-3.30811 -0.18372,-0.66149 -1.20304,-1.59652 -2.00108,-1.83562 -0.40807,-0.12226 -2.9128,-0.1709 -8.80048,-0.1709 h -8.23006 v 5.66749 5.66749 l 8.17426,-0.003 c 7.61439,-0.003 8.21447,-0.0215 8.76117,-0.26979 z"
     id="path25011"
     transform="scale(0.93749994)" />
  <path
     style="fill:#ffffff;fill-opacity:1;stroke-width:0.14532"
     d="m 267.38927,232.80305 v -13.87809 h 10.7537 10.7537 v 1.45321 1.4532 h -9.37316 -9.37316 v 4.72291 4.72291 h 9.00986 9.00985 v 1.38054 1.38054 h -9.00985 -9.00986 v 4.94089 4.94089 h 9.37316 9.37316 v 1.38054 1.38054 h -10.7537 -10.7537 z"
     id="path25050"
     transform="scale(0.93749994)" />
  <path
     style="fill:#ffffff;fill-opacity:1;stroke-width:0.14532"
     d="m 241.42568,246.4744 c -1.17432,-0.2848 -2.31349,-0.93657 -3.11126,-1.7801 -1.15773,-1.22412 -1.33291,-1.766 -1.4131,-4.37093 l -0.0682,-2.21613 h 1.47265 1.47266 v 1.82372 c 0,2.03595 0.0958,2.35243 0.93511,3.08936 0.98599,0.8657 1.31606,0.89973 8.72869,0.89973 7.48637,0 7.76012,-0.0298 8.78355,-0.95435 0.85491,-0.77237 0.90421,-1.00366 0.85312,-4.00253 -0.0522,-3.0639 -0.12246,-3.26553 -1.39925,-4.01609 l -0.68077,-0.40019 -7.55665,-0.0782 c -7.27759,-0.0753 -7.59179,-0.0899 -8.50806,-0.39636 -1.80681,-0.60422 -3.3712,-2.05002 -3.7951,-3.5074 -0.13732,-0.4721 -0.19439,-1.6505 -0.19439,-4.01402 v -3.34573 l 0.47764,-0.9699 c 0.79235,-1.609 2.25028,-2.65183 4.32047,-3.09034 1.48041,-0.31359 13.91846,-0.31359 15.39888,0 2.00945,0.42565 3.64968,1.58049 4.38794,3.08945 0.36664,0.74938 0.40893,1.00251 0.46011,2.7542 l 0.0564,1.92898 h -1.47003 -1.47004 v -1.57704 c 0,-1.85372 -0.18779,-2.26389 -1.37172,-2.99603 l -0.7123,-0.44048 -7.41346,-0.0402 -7.41346,-0.0402 -0.77357,0.37847 c -0.42546,0.20816 -0.95286,0.61354 -1.172,0.90084 l -0.39842,0.52236 v 3.06303 c 0,2.9694 0.0103,3.07746 0.33647,3.53477 0.18505,0.25945 0.64281,0.65182 1.01724,0.87192 l 0.68077,0.4002 7.484,0.0885 c 4.86498,0.0575 7.69851,0.14644 8.09698,0.254 1.80113,0.48618 3.42007,1.72292 4.11711,3.14514 0.34722,0.70846 0.35611,0.81188 0.35611,4.14163 0,3.40062 -0.002,3.41853 -0.38962,4.24631 -0.69197,1.47638 -2.15302,2.59122 -4.06168,3.09923 -1.05945,0.28198 -14.90256,0.28575 -16.06278,0.004 z"
     id="path25089"
     transform="scale(0.93749994)" />
  <path
     style="fill:#ffffff;fill-opacity:1;stroke-width:0.14532"
     d="m 204.28682,246.41946 c 0.0584,-0.14929 2.98346,-6.39655 6.50021,-13.88278 l 6.39409,-13.61135 1.68417,-1.8e-4 1.68418,-1.9e-4 6.43347,13.69644 c 3.5384,7.53304 6.46594,13.77817 6.50563,13.87808 0.055,0.13836 -0.29074,0.18165 -1.45046,0.18165 h -1.52264 l -1.35627,-2.9064 -1.35626,-2.90641 -8.94392,0.005 -8.94391,0.005 -1.33511,2.86513 -1.3351,2.86514 -1.5321,0.0412 c -1.4454,0.0389 -1.52609,0.0259 -1.42598,-0.23022 z m 22.05869,-8.56653 c -0.24645,-0.6629 -7.42796,-15.87559 -7.49231,-15.87106 -0.06,0.004 -7.37168,15.51962 -7.53333,15.9857 -0.0306,0.0882 2.74762,0.13967 7.53587,0.13967 7.16229,0 7.57905,-0.0142 7.48977,-0.25431 z"
     id="path25128"
     transform="scale(0.93749994)" />
  <path
     style="fill:#ffffff;fill-opacity:1;stroke-width:0.14532"
     d="m 183.24884,232.80305 v -13.87809 h 1.38054 1.38055 v 12.49755 12.49754 h 8.57389 8.5739 v 1.38054 1.38054 h -9.95444 -9.95444 z"
     id="path25167"
     transform="scale(0.93749994)" />
  <path
     style="fill:#ffffff;fill-opacity:1;stroke-width:0.14532"
     d="m 118.4532,226.80859 c -3.0497,-9.0916 -5.54366,-16.57923 -5.54214,-16.63917 0.002,-0.06 12.65654,-0.10899 28.12225,-0.10899 h 28.11947 v 16.63917 16.63917 h -22.57734 -22.57733 z"
     id="path25206"
     transform="scale(0.93749994)" />
</svg>
