<?xml version="1.0" encoding="UTF-8" standalone="no"?>
<svg
   height="400"
   viewBox="0 0 600 300"
   width="800"
   version="1.1"
   id="svg6"
   sodipodi:docname="alphadenshi-w.svg"
   inkscape:version="1.1 (c68e22c387, 2021-05-23)"
   xmlns:inkscape="http://www.inkscape.org/namespaces/inkscape"
   xmlns:sodipodi="http://sodipodi.sourceforge.net/DTD/sodipodi-0.dtd"
   xmlns="http://www.w3.org/2000/svg"
   xmlns:svg="http://www.w3.org/2000/svg">
  <defs
     id="defs10" />
  <sodipodi:namedview
     id="namedview8"
     pagecolor="#ffffff"
     bordercolor="#666666"
     borderopacity="1.0"
     inkscape:pageshadow="2"
     inkscape:pageopacity="0.0"
     inkscape:pagecheckerboard="0"
     showgrid="false"
     inkscape:zoom="0.66125"
     inkscape:cx="846.12476"
     inkscape:cy="322.87335"
     inkscape:window-width="1920"
     inkscape:window-height="1017"
     inkscape:window-x="-8"
     inkscape:window-y="712"
     inkscape:window-maximized="1"
     inkscape:current-layer="svg6" />
  <path
     d="M237 169.5V236h72v-28l-21.7-.2-21.8-.3-.3-52.3-.2-52.2h-28zM318.5 104.2c-.3.7-.4 30.5-.3 66.3l.3 65 14.3.3 14.2.3v-34.9l12.3-.4c9.8-.3 13.1-.8 16.9-2.5 9.3-4.2 17.2-14.8 21.4-28.9 2.9-9.4 2.5-27.6-.8-37.6-4.5-13.7-13-24-22.5-27.2-6.1-2.1-55.1-2.4-55.8-.4zm45.3 28c8.7 5.8 11.9 20.4 6.8 31.3-1.3 2.7-3.2 5.8-4.2 6.7-3.3 2.9-9.1 4.8-14.4 4.8h-5v-46.2l6.4.4c4.7.3 7.4 1.1 10.4 3zM408 169.5V236h28v-53h25v53h29V103h-29v52h-25v-52h-28zM533 106.2c-.6 1.8-8.8 25.3-18.1 52.1l-17 48.8v28.4h22.4l11.1-33.2C537.5 184 542.7 169 543 169s3.4 8.7 6.9 19.2c3.5 10.6 6.6 19.8 6.8 20.5.4.9-2 1.3-8.7 1.5l-9.2.3-3.9 12.5c-2.1 6.9-3.9 12.6-3.9 12.7 0 .2 14.6.3 32.5.3 25.7 0 32.5-.3 32.5-1.3 0-1.3-9.2-28.9-21.3-63.7-17-48.8-22.5-64.6-23.2-66.3-.6-1.4-2-1.7-9-1.7h-8.3zM284 247.8c-2.7 1.3-3.7 2.6-4.5 5.5-1.4 6.1.6 8.6 9.4 11.9 4.1 1.5 7.8 3.3 8.2 4 2.5 3.9-1.1 8.8-6.5 8.8-3.9 0-8.6-3.3-8.6-6.1 0-1.2-.7-1.9-2-1.9-4.8 0-.2 9.1 5.5 11 10.2 3.4 18.9-4.3 15.2-13.3-1.2-2.8-2.5-3.8-6.3-5.2-9.9-3.4-11.4-4.3-11.4-6.8 0-3.2 3-5.7 6.6-5.7 3.4 0 7.4 2.5 7.4 4.6 0 .8.9 1.4 2 1.4 2.4 0 2.5-1.1.5-4.9-2.5-4.9-9.5-6.4-15.5-3.3zM382 247.8c-4.4 2.2-7 6.7-7.7 13.4-1.4 14 6.8 23.2 17.7 19.9 4.2-1.2 8-5.7 8-9.4 0-2.9-3.4-1.9-5 1.6-2.8 6-10.1 6.2-14.4.4-1.7-2.2-2.1-4.3-2.1-9.7s.4-7.5 2.1-9.7c4.1-5.5 11.2-5.6 14.2-.3 1.9 3.3 2.1 3.4 4.1 2.1 1.1-.7 1-1.5-.8-4.4-3.4-5.5-9.8-7.1-16.1-3.9zM415.3 247.6c-5.5 2.8-7.8 7.7-7.8 16.4 0 8.9 2.4 13.8 8.1 16.5 15.6 7.4 27.6-16.5 15-30.2-3.9-4.3-10.1-5.4-15.3-2.7zm12 4.8c2.3 2.2 4.7 8 4.7 11.6 0 3.5-2.3 9.4-4.5 11.6-3.5 3.5-8.8 3.3-12.5-.4-3.3-3.4-4.5-8.3-3.5-14.9 1.3-9.1 9.9-13.4 15.8-7.9zM19.5 248.2c-.3.7-3 8.4-6 17C8.6 279.5 8.2 281 9.9 281c1.4 0 2.4-1.3 3.6-5l1.7-5.1 6.6.3 6.6.3 1.5 4.8c1.2 3.9 1.9 4.7 3.9 4.7 1.9 0 2.3-.4 1.7-1.8-.4-.9-3.2-8.6-6.2-17-4.5-12.2-6-15.2-7.5-15.2-1 0-2.1.6-2.3 1.2zm4.9 11.6 2.5 7.2h-5c-2.7 0-4.9-.3-4.9-.7 0-1.2 4.4-14.3 4.7-13.9.2.1 1.4 3.5 2.7 7.4zM43 264v17h9.5c8.8 0 9.5-.1 9.5-2 0-1.8-.7-2-7.5-2H47v-15c0-14.3-.1-15-2-15s-2 .7-2 17zM70 264c0 16.3.1 17 2 17 1.8 0 2-.7 2-6.9v-6.9l7.1-.4c6.3-.3 7.4-.7 9.5-3.1 4.3-5 2.7-13.7-2.9-15.7-1.6-.5-6.3-1-10.3-1H70zm17.4-11.4c2.1 2 2 6.3-.1 8.6-1.2 1.3-3.1 1.8-7.5 1.8H74v-12h5.9c4.1 0 6.5.5 7.5 1.6zM101 264c0 16.3.1 17 2 17 1.8 0 2-.7 2-8v-8h16v8c0 7.3.2 8 2 8 1.9 0 2-.7 2-17s-.1-17-2-17c-1.8 0-2 .7-2 7v7h-16v-7c0-6.3-.2-7-2-7-1.9 0-2 .7-2 17zM143.5 248.2c-.3.7-3 8.4-6 17-4.9 14.3-5.3 15.8-3.6 15.8 1.4 0 2.4-1.3 3.6-5l1.7-5.1 6.6.3 6.6.3 1.5 4.8c1.2 3.9 1.9 4.7 3.9 4.7 1.9 0 2.3-.4 1.7-1.8-.4-.9-3.2-8.6-6.2-17-4.5-12.2-6-15.2-7.5-15.2-1 0-2.1.6-2.3 1.2zm4.9 11.6 2.5 7.2h-5c-2.7 0-4.9-.3-4.9-.7 0-1.2 4.4-14.3 4.7-13.9.2.1 1.4 3.5 2.7 7.4zM179 264v17h7c3.9 0 8.6-.6 10.6-1.5 9.9-4.1 9.9-26.9 0-31-2-.9-6.7-1.5-10.6-1.5h-7zm16.2-11.9c1.1.6 2.6 2.6 3.4 4.4 2.8 6.7 1 17.1-3.4 19.4-1.2.6-4.3 1.1-7.1 1.1H183v-26h5.1c2.8 0 5.9.5 7.1 1.1zM214 264v17h11c10.3 0 11-.1 11-2s-.7-2-9.5-2H217v-12h8.5c7.8 0 8.5-.2 8.5-2s-.7-2-8.5-2H217v-10h9c8.3 0 9-.1 9-2s-.7-2-10.5-2H214zM245 264c0 16.2.1 17 2 17 1.8 0 2-.8 2.2-13l.3-13.1 7.5 12.8c5.7 9.6 8.1 12.9 9.8 13.1l2.2.3v-17c0-16.3-.1-17.1-2-17.1-1.8 0-2 .8-2.2 13l-.3 13.1-7.5-13c-6.1-10.6-7.9-13-9.7-13.1-2.3 0-2.3 0-2.3 17zM310 264c0 16.3.1 17 2 17 1.8 0 2-.7 2-8v-8h16v8c0 7.3.2 8 2 8 1.9 0 2-.7 2-17s-.1-17-2-17c-1.8 0-2 .7-2 7v7h-16v-7c0-6.3-.2-7-2-7-1.9 0-2 .7-2 17zM345 264c0 16.3.1 17 2 17s2-.7 2-17-.1-17-2-17-2 .7-2 17zM491 264v17h9.5c8.8 0 9.5-.1 9.5-2 0-1.8-.7-2-7.5-2H495v-15c0-14.3-.1-15-2-15s-2 .7-2 17zM512 249c0 1.7.7 2 5 2h5v15c0 14.3.1 15 2 15s2-.7 2-15v-15h5c4.3 0 5-.3 5-2 0-1.9-.7-2-12-2s-12 .1-12 2zM544 264v17h7c9.6 0 13.5-1.8 16-7.2 2.6-5.6 2.6-14 0-19.6-2.5-5.4-6.4-7.2-16-7.2h-7zm16.2-11.9c6.2 3.3 6.2 20.5 0 23.8-1.2.6-4.3 1.1-7.1 1.1H548v-26h5.1c2.8 0 5.9.5 7.1 1.1zM446 279c0 1.3.7 2 2 2s2-.7 2-2-.7-2-2-2-2 .7-2 2zM461 278.9c0 1.1.5 2.1 1.1 2.3.9.3.9.9 0 2.5-1.8 3.5-1.2 5 .9 2.4 1.1-1.3 2-3.8 2-5.7 0-2.7-.4-3.4-2-3.4-1.3 0-2 .7-2 1.9zM578 279c0 1.3.7 2 2 2s2-.7 2-2-.7-2-2-2-2 .7-2 2zM117.8 122.5C55.7 184.3 5 235.1 5 235.4s9.8.6 21.7.6h21.8l76.2-76.2L201 83.5V209h-70v-8h62v-98.5L126.5 169 60 235.5l85.2.3c46.8.1 85.3.1 85.5-.1s.2-51 .1-112.9l-.3-112.5z"
     id="path2" />
  <path
     d="M193 200.806h-61.806L193 139z"
     fill="#ff0004"
     opacity=".98"
     id="path4" />
  <path
     style="fill:#ffffff;fill-opacity:0.941176;stroke-width:0.378072"
     d="M 14.864781,314.19969 C 10.87595,314.07698 7.4983315,313.86254 7.3589629,313.72317 7.0475751,313.41178 95.633078,224.77045 216.25709,104.69339 l 90.5482,-90.137624 0.23404,8.31758 c 0.3595,12.776165 0.81884,268.545894 0.50401,280.642584 l -0.27748,10.66176 -87.18681,-0.0542 c -47.95274,-0.0298 -98.88376,-0.15743 -113.18005,-0.28356 l -25.993253,-0.22932 88.091553,-88.09044 88.09155,-88.09043 v 24.00791 24.0079 l -41.40562,41.39822 -41.40562,41.39822 0.10127,5.293 0.10127,5.29301 46.78639,0.096 46.78639,0.096 V 194.99229 110.96461 L 166.25683,212.76019 64.460722,314.55577 43.288963,314.48929 c -11.644469,-0.0366 -24.43535,-0.16688 -28.424182,-0.2896 z"
     id="path901"
     transform="scale(0.75)" />
  <path
     style="fill:#ffffff;fill-opacity:0.941176;stroke-width:0.378072"
     d="M 34.530459,314.19837 C 20.14792,314.08303 8.2573418,313.86557 8.1069517,313.71512 7.6645377,313.27254 48.271902,272.52644 181.20566,140.02502 l 125.22156,-124.814293 0.24466,3.264202 c 0.34983,4.667187 0.86703,285.936011 0.53541,291.165901 l -0.27569,4.34783 -99.11797,-0.11858 c -54.51489,-0.0652 -105.20078,-0.23535 -112.635324,-0.37807 l -13.517349,-0.2595 87.713943,-87.71235 87.71395,-87.71236 v 23.62854 23.62854 l -41.49339,41.58855 -41.49338,41.58854 0.11445,5.38752 0.11444,5.38752 h 46.86098 46.86098 V 194.80177 110.58654 L 166.06779,212.57115 64.08265,314.55577 l -1.701058,-0.0738 c -0.935584,-0.0406 -13.468594,-0.16821 -27.851133,-0.28356 z"
     id="path940"
     transform="scale(0.75)" />
  <path
     style="fill:#ffffff;fill-opacity:0.941176;stroke-width:0.378072"
     d="m 316.06805,226.08696 v -88.46881 h 18.52552 18.52552 l 0.0115,10.68053 c 0.0301,27.92886 0.72958,128.18281 0.89545,128.34868 0.18557,0.18557 37.44096,0.8001 50.79435,0.83786 l 6.89981,0.0195 v 18.52552 18.52552 h -47.82609 -47.82609 z"
     id="path979"
     transform="scale(0.75)" />
  <path
     style="fill:#ffffff;fill-opacity:0.941176;stroke-width:0.378072"
     d="m 438.04425,314.13414 c -7.04352,-0.1658 -12.91309,-0.40812 -13.04348,-0.53848 -0.30914,-0.30907 -0.31043,-174.32819 -10e-4,-174.6377 1.27146,-1.273 24.27055,-1.99695 44.70093,-1.40707 27.09444,0.78229 29.39797,1.16076 36.88976,6.06096 7.43121,4.86058 14.64186,14.00853 19.21093,24.37239 4.80725,10.90413 6.62388,20.81928 6.59318,35.98551 -0.03,14.81768 -2.04739,23.80955 -8.0187,35.74082 -5.90559,11.79994 -13.78728,20.21528 -22.85895,24.40665 -5.11892,2.36509 -9.40088,2.95731 -25.67432,3.55096 -5.80091,0.21161 -11.20261,0.38475 -12.00378,0.38475 h -1.45668 v 23.25142 23.25142 l -5.76559,-0.0601 c -3.17108,-0.033 -11.52848,-0.19574 -18.57201,-0.36155 z m 38.24339,-81.39735 c 3.75894,-0.81276 7.81503,-2.44011 10.46357,-4.19812 3.66365,-2.43179 8.06187,-9.94064 9.67009,-16.50922 3.3898,-13.84524 -1.30215,-29.08313 -10.98028,-35.66033 -4.48307,-3.04667 -8.34415,-4.01024 -18.23875,-4.55168 l -4.82042,-0.26378 v 31.10229 31.10228 l 5.57656,-0.21313 c 3.06711,-0.11722 6.81526,-0.48096 8.32923,-0.80831 z"
     id="path1018"
     transform="scale(0.75)" />
  <path
     style="fill:#ffffff;fill-opacity:0.941176;stroke-width:0.378072"
     d="m 44.153467,374.36183 c -1.682132,-0.19396 -2.75062,-1.95487 -4.476611,-7.37762 l -1.616999,-5.08031 -4.001573,-0.22672 c -2.200865,-0.12469 -6.234871,-0.33556 -8.964458,-0.46859 l -4.962884,-0.24187 -1.422162,4.29925 c -1.590653,4.8086 -2.544704,6.91956 -3.694476,8.17448 -0.864351,0.94341 -2.452277,1.13573 -2.759829,0.33426 -0.47228,-1.23074 3.552612,-13.70394 12.704093,-39.37017 1.308955,-3.67109 2.146138,-4.7259 3.750872,-4.7259 2.505558,0 4.026012,3.27312 13.347489,28.73346 2.702626,7.38185 4.99479,13.95281 5.093699,14.60213 0.162133,1.06437 0.07398,1.19462 -0.895605,1.32325 -0.591491,0.0785 -1.537192,0.0894 -2.101556,0.0243 z m -8.236643,-18.5328 c 0,-0.39563 -5.413911,-16.1074 -6.191525,-17.96849 -0.316352,-0.75713 -0.720498,-1.37661 -0.898104,-1.37661 -0.525717,0 -5.157397,13.19256 -6.091916,17.3518 -0.335557,1.49345 -0.308918,1.56624 0.650231,1.77663 0.550068,0.12066 1.170256,0.27613 1.378195,0.34549 0.844625,0.28176 11.153119,0.16268 11.153119,-0.12882 z"
     id="path1057"
     transform="scale(0.75)" />
  <path
     style="fill:#ffffff;fill-opacity:0.941176;stroke-width:0.378072"
     d="m 57.529234,353.46169 c 0.146544,-23.69023 0.125005,-23.48322 2.46718,-23.71061 2.198212,-0.21342 2.184306,-0.33713 2.31299,20.57717 l 0.116587,18.94828 9.017276,0.17286 c 7.731841,0.14821 9.160082,0.26642 10.019053,0.82924 1.335976,0.87536 1.235067,2.83955 -0.180548,3.51436 -0.627694,0.29921 -4.830369,0.54402 -12.416654,0.72329 l -11.467801,0.27099 z"
     id="path1096"
     transform="scale(0.75)" />
  <path
     style="fill:#ffffff;fill-opacity:0.941176;stroke-width:0.378072"
     d="m 94.512814,373.71781 c -0.718813,-0.86612 -1.091944,-10.34973 -1.111676,-28.25467 l -0.0174,-15.7845 7.844992,0.001 c 12.53752,0.002 16.31239,0.70731 19.09119,3.56855 4.95363,5.10059 4.57335,14.19497 -0.80388,19.22474 -2.28551,2.13782 -3.41304,2.46046 -10.25328,2.93395 -3.01512,0.20871 -6.71551,0.47437 -8.22307,0.59036 l -2.741018,0.21088 v 8.07168 c 0,4.43942 -0.165922,8.50808 -0.368714,9.04146 -0.296074,0.77874 -0.622131,0.9698 -1.655031,0.9698 -0.707474,0 -1.500427,-0.25799 -1.762118,-0.57331 z m 19.399746,-23.64536 c 1.86039,-0.64014 3.88819,-2.90528 4.44562,-4.96596 0.61071,-2.25758 0.23979,-5.65275 -0.80164,-7.33782 -1.56062,-2.52513 -3.18792,-2.95422 -11.79094,-3.10907 l -7.466923,-0.1344 v 8.2035 8.20349 l 7.088843,-0.18277 c 4.37833,-0.1129 7.638,-0.37174 8.52504,-0.67697 z"
     id="path1135"
     transform="scale(0.75)" />
  <path
     style="fill:#ffffff;fill-opacity:0.941176;stroke-width:0.378072"
     d="m 135.64657,373.44045 c -0.70841,-1.24023 -0.70841,-41.67091 0,-42.91115 0.35549,-0.62236 0.83389,-0.85066 1.78254,-0.85066 2.07618,0 2.22354,0.62327 2.39104,10.11342 l 0.14847,8.4121 h 10.69301 10.693 l 0.14847,-8.4121 c 0.16751,-9.49015 0.31486,-10.11342 2.39104,-10.11342 2.31629,0 2.26843,-0.47066 2.26843,22.30624 0,22.77689 0.0479,22.30624 -2.26843,22.30624 -2.1156,0 -2.22407,-0.51881 -2.39102,-11.43668 l -0.14887,-9.73535 H 150.66163 139.969 l -0.14887,9.73535 c -0.16695,10.91787 -0.27541,11.43668 -2.39102,11.43668 -0.94865,0 -1.42705,-0.2283 -1.78254,-0.85067 z"
     id="path1174"
     transform="scale(0.75)" />
  <path
     style="fill:#ffffff;fill-opacity:0.941176;stroke-width:0.378072"
     d="m 177.7966,372.26973 c 0.38181,-3.69933 13.31666,-41.23987 14.51018,-42.1126 0.90139,-0.65911 2.6028,-0.59996 3.31812,0.11535 1.03313,1.03314 2.37716,3.61749 4.21346,8.10181 2.52912,6.17624 12.71932,34.06532 12.77805,34.97165 0.04,0.61685 -0.22294,0.7784 -1.42725,0.87697 -3.42308,0.28016 -4.0483,-0.47028 -6.28119,-7.53917 l -1.5073,-4.77184 -4.06329,-0.23072 c -2.2348,-0.12689 -6.27772,-0.33851 -8.98426,-0.47027 l -4.92099,-0.23956 -0.88681,2.78465 c -2.53178,7.94998 -3.98966,10.53512 -5.94122,10.53512 -1.0021,0 -1.01324,-0.0279 -0.8075,-2.02139 z m 21.04396,-23.78202 c -3.67456,-10.68093 -4.17832,-12.00378 -4.57117,-12.00378 -0.18998,0 -0.66697,0.75018 -1.06,1.66706 -1.34734,3.14322 -5.34347,15.85252 -5.23104,16.63678 0.15326,1.06902 1.29562,1.2577 7.93845,1.31117 l 5.55763,0.0447 z"
     id="path1213"
     transform="scale(0.75)" />
  <path
     style="fill:#ffffff;fill-opacity:0.941176;stroke-width:0.378072"
     d="m 238.9414,352.23328 v -22.55464 h 7.32288 c 14.21178,0 18.82332,1.77068 22.48019,8.63167 2.15001,4.03383 2.88286,7.51004 2.88286,13.67457 0,6.08653 -0.68081,9.39138 -2.78817,13.53466 -3.46314,6.80888 -7.70442,8.49985 -22.61433,9.01617 l -7.28343,0.25221 z m 18.6973,16.57281 c 3.13255,-0.66358 4.77245,-1.85157 6.30816,-4.56981 3.3496,-5.92889 3.66209,-16.89101 0.65887,-23.11365 -1.25809,-2.60675 -3.86341,-5.23218 -5.71286,-5.75697 -0.88824,-0.25203 -4.63484,-0.54997 -8.32576,-0.66207 l -6.71078,-0.20382 v 17.43821 17.4382 l 5.57656,-0.007 c 3.44476,-0.004 6.58167,-0.21948 8.20581,-0.56352 z"
     id="path1252"
     transform="scale(0.75)" />
  <path
     style="fill:#ffffff;fill-opacity:0.941176;stroke-width:0.378072"
     d="m 285.44423,352.21299 v -22.57082 l 13.175,0.11275 c 14.51954,0.12426 14.42425,0.10816 14.42425,2.43684 0,1.04673 -0.19365,1.36658 -1.0397,1.71725 -0.65924,0.27324 -5.01723,0.49265 -11.90926,0.59957 l -10.86957,0.16864 v 6.73679 6.7368 l 10.54698,0.12119 c 9.74409,0.11197 10.6075,0.17602 11.34215,0.84142 1.01509,0.9194 1.01509,2.17702 0,3.09641 -0.73465,0.6654 -1.59806,0.72945 -11.34215,0.84142 l -10.54698,0.12119 v 8.05525 8.05524 l 11.43668,0.18091 c 6.93547,0.10971 11.83314,0.34273 12.44402,0.59208 1.8901,0.77148 1.85228,3.13309 -0.0609,3.80002 -0.6061,0.21129 -7.06418,0.5065 -14.35128,0.65602 l -13.24927,0.27186 z"
     id="path1291"
     transform="scale(0.75)" />
  <path
     style="fill:#ffffff;fill-opacity:0.941176;stroke-width:0.378072"
     d="m 356.34227,374.29335 c -2.994,-0.57558 -5.74631,-4.39226 -17.1778,-23.82076 -3.3646,-5.71834 -6.25543,-10.44554 -6.42406,-10.50489 -0.16863,-0.0593 -0.43018,6.06541 -0.58123,13.61059 -0.28421,14.19757 -0.63221,19.28526 -1.3808,20.18726 -0.70057,0.84413 -2.51304,0.65228 -3.07132,-0.3251 -0.3748,-0.65618 -0.51104,-5.39246 -0.59592,-20.71681 -0.12516,-22.5983 -0.10786,-22.7748 2.25051,-22.97131 1.17039,-0.0975 1.60155,0.10186 2.7898,1.29011 1.94258,1.94258 5.17862,6.99831 11.71075,18.29593 3.06581,5.30246 6.27402,10.83176 7.12936,12.28734 l 1.55516,2.6465 0.2488,-2.07939 c 0.13683,-1.14367 0.27291,-5.22685 0.3024,-9.07373 0.0819,-10.68885 0.63565,-21.21777 1.17809,-22.40075 0.37426,-0.8162 0.7351,-1.0397 1.67862,-1.0397 2.27664,0 2.25271,-0.23615 2.38413,23.53497 0.0652,11.80057 -0.0192,21.43601 -0.18758,21.4121 -0.1684,-0.0239 -0.98241,-0.17348 -1.80891,-0.33236 z"
     id="path1330"
     transform="scale(0.75)" />
  <path
     style="fill:#ffffff;fill-opacity:0.941176;stroke-width:0.378072"
     d="m 382.23062,374.90459 c -4.35437,-1.2635 -8.07694,-4.40791 -10.1648,-8.58609 -1.8688,-3.73982 -1.35961,-6.01604 1.34581,-6.01604 1.41737,0 2.22338,0.89091 2.51159,2.77616 0.43268,2.83022 3.47306,5.58943 7.7446,7.02841 2.81335,0.94775 4.92987,0.97359 7.48209,0.0913 2.52368,-0.87239 4.0225,-2.111 5.27152,-4.35638 0.8466,-1.52192 0.99132,-2.17343 0.85308,-3.84041 -0.0916,-1.10415 -0.45261,-2.44423 -0.80232,-2.97795 -0.73182,-1.1169 -4.59137,-3.03915 -11.85418,-5.90398 -8.80698,-3.47394 -11.85595,-6.17545 -12.14811,-10.76373 -0.20007,-3.14212 0.98393,-7.21302 2.64965,-9.11017 1.35509,-1.54336 4.43233,-3.20689 7.67709,-4.15017 2.89503,-0.84161 7.92067,-0.59395 10.46221,0.51557 3.29449,1.43822 5.72213,4.25539 7.30351,8.4754 0.81383,2.17179 0.40362,2.93424 -1.57869,2.93424 -1.79578,0 -2.76439,-0.6004 -2.76439,-1.71353 0,-1.41129 -2.33088,-3.70971 -5.00499,-4.9353 -4.63603,-2.12478 -9.73185,-1.22015 -12.51801,2.22224 -0.95163,1.17578 -1.18385,1.84792 -1.30563,3.77903 -0.12437,1.97228 -0.0175,2.51451 0.66677,3.38188 1.02032,1.29341 4.7761,3.07191 11.35657,5.37777 2.80718,0.98366 5.81275,2.1967 6.67903,2.69564 2.4203,1.39399 4.20261,3.73731 5.10684,6.71429 1.95276,6.42903 -0.87731,12.52538 -7.19183,15.49215 -2.22112,1.04357 -2.95596,1.19209 -6.29536,1.27239 -2.26638,0.0545 -4.46218,-0.10682 -5.48205,-0.40276 z"
     id="path1369"
     transform="scale(0.75)" />
  <path
     style="fill:#ffffff;fill-opacity:0.941176;stroke-width:0.378072"
     d="m 414.26285,373.25142 c -0.66587,-1.49452 -0.66587,-41.03856 0,-42.53308 0.37742,-0.84709 0.70765,-1.0397 1.78254,-1.0397 2.11851,0 2.26103,0.59659 2.41604,10.11342 l 0.13701,8.4121 h 10.69346 10.69346 l 0.15925,-8.4121 c 0.17956,-9.48479 0.32802,-10.11342 2.38847,-10.11342 2.3163,0 2.26843,-0.47066 2.26843,22.30624 0,22.80904 0.0516,22.30624 -2.29109,22.30624 -2.00692,0 -2.15778,-0.7464 -2.34979,-11.62571 l -0.16849,-9.54632 h -10.69608 -10.69607 l -0.13886,9.73535 c -0.15614,10.94683 -0.25961,11.43668 -2.41574,11.43668 -1.07489,0 -1.40512,-0.19261 -1.78254,-1.0397 z"
     id="path1408"
     transform="scale(0.75)" />
  <path
     style="fill:#ffffff;fill-opacity:0.941176;stroke-width:0.378072"
     d="m 461.25405,373.73173 c -0.76813,-0.92553 -1.10767,-7.59175 -1.10767,-21.74685 0,-14.15511 0.33954,-20.82132 1.10767,-21.74686 0.72445,-0.87291 2.5314,-0.70309 3.09938,0.29128 0.70841,1.24024 0.70841,41.67092 0,42.91115 -0.56798,0.99438 -2.37493,1.16419 -3.09938,0.29128 z"
     id="path1447"
     transform="scale(0.75)" />
  <path
     style="fill:#ffffff;fill-opacity:0.941176;stroke-width:0.378072"
     d="m 512.47637,374.89522 c -6.04876,-1.91799 -10.45305,-7.04697 -12.53092,-14.59276 -0.95145,-3.45521 -0.94143,-12.71759 0.0178,-16.44613 1.64224,-6.38342 5.02496,-11.00996 9.75082,-13.33617 2.96209,-1.45803 5.06455,-1.95462 8.32565,-1.96649 3.02452,-0.011 5.44222,0.74171 8.1553,2.53907 2.99589,1.98471 6.87599,7.77355 6.26959,9.3538 -0.25865,0.67402 -2.05321,1.70847 -2.96386,1.70847 -0.32643,0 -1.35492,-1.17703 -2.28554,-2.61562 -1.91307,-2.9573 -4.20404,-5.09499 -6.14783,-5.7365 -2.02757,-0.66915 -6.75631,-0.25652 -8.73797,0.76248 -2.36234,1.21477 -5.22086,4.22421 -6.34531,6.68033 -2.07768,4.53825 -2.08374,16.92687 -0.0105,21.45543 2.16441,4.72769 6.80831,7.92047 11.52033,7.92047 4.21275,0 6.69615,-1.57772 9.18974,-5.83831 1.65224,-2.82303 3.38336,-4.48083 4.67901,-4.48083 1.31839,0 1.84298,0.90325 1.6287,2.80435 -0.56602,5.02172 -5.64659,10.23977 -11.4262,11.73541 -2.68422,0.69461 -6.98624,0.7197 -9.08881,0.053 z"
     id="path1486"
     transform="scale(0.75)" />
  <path
     style="fill:#ffffff;fill-opacity:0.941176;stroke-width:0.378072"
     d="m 559.16824,375.37409 c -3.05312,-0.50057 -7.24964,-2.63564 -9.65882,-4.91415 -4.12414,-3.90043 -5.84212,-9.33338 -5.84212,-18.47506 0,-6.12543 0.64981,-10.006 2.25884,-13.48946 2.73557,-5.92235 9.05891,-9.951 15.61902,-9.951 4.90673,0 8.55964,1.5399 11.9655,5.04409 4.98295,5.12683 7.33786,11.05773 7.30441,18.39637 -0.0291,6.3929 -1.71195,11.42108 -5.50496,16.44864 -2.81743,3.73445 -6.15281,5.92072 -10.40887,6.82278 -2.80621,0.59477 -2.82179,0.59508 -5.733,0.11779 z m 7.8555,-5.63754 c 1.26786,-0.63356 2.84978,-1.77216 3.51537,-2.53023 2.62252,-2.98689 5.64236,-11.13354 5.64236,-15.22144 0,-4.17995 -2.85441,-11.64422 -5.68075,-14.85511 -0.7826,-0.88907 -2.33404,-2.12116 -3.44764,-2.73797 -1.77123,-0.98107 -2.4034,-1.12148 -5.0493,-1.12148 -3.8352,0 -6.50713,1.19494 -9.08627,4.06357 -3.37711,3.75616 -4.71335,8.01155 -4.71335,15.0101 0,6.5569 1.33438,10.67859 4.60636,14.22826 2.78698,3.02352 5.52497,4.2737 9.41643,4.29963 2.04121,0.0136 2.90829,-0.19163 4.79679,-1.13533 z"
     id="path1525"
     transform="scale(0.75)" />
  <path
     style="fill:#ffffff;fill-opacity:0.941176;stroke-width:0.378072"
     d="m 544.04537,226.08696 v -88.46881 h 18.52552 18.52552 v 34.59357 34.59357 h 16.8242 16.82419 v -34.59357 -34.59357 h 19.28167 19.28166 v 88.46881 88.46881 H 634.02647 614.7448 v -35.34972 -35.34972 h -16.82419 -16.8242 v 35.34972 35.34972 h -18.52552 -18.52552 z"
     id="path1564"
     transform="scale(0.75)" />
  <path
     style="fill:#ffffff;fill-opacity:0.941176;stroke-width:0.378072"
     d="m 713.74839,314.29763 -5.53327,-0.13965 0.8588,-2.73117 c 0.47235,-1.50213 2.77421,-8.94099 5.11524,-16.53078 2.34104,-7.58979 4.28903,-13.84259 4.32886,-13.8951 0.0398,-0.0525 4.3962,-0.26828 9.6808,-0.47949 9.43289,-0.37699 13.39418,-0.79119 14.07464,-1.47165 0.47479,-0.47479 -15.25718,-47.75157 -17.52972,-52.67928 -0.26371,-0.57183 -0.60254,-1.0397 -0.75295,-1.0397 -0.63009,0 -5.41007,13.69966 -20.03594,57.42401 l -10.38207,31.03745 -14.84616,0.004 -14.84615,0.004 0.10135,-18.99811 0.10136,-18.99811 23.69466,-67.86389 c 13.03207,-37.32514 23.89465,-68.41683 24.13907,-69.09263 l 0.44439,-1.22873 9.3203,0.009 c 9.86985,0.01 11.97039,0.24759 12.95962,1.46861 0.70069,0.86488 0.24187,-0.42116 17.41288,48.80592 18.48964,53.0074 26.29132,75.68159 34.14755,99.24386 7.83383,23.49511 8.40755,25.3908 7.85237,25.94598 -0.21222,0.21222 -1.89598,0.54985 -3.74168,0.75029 -3.29583,0.35791 -65.71824,0.72952 -76.56395,0.4558 z"
     id="path1603"
     transform="scale(0.75)" />
  <path
     style="fill:#ffffff;fill-opacity:0.941176;stroke-width:0.378072"
     d="m 654.88461,353.46158 c 0.13896,-23.73691 0.11225,-23.48259 2.49066,-23.7124 2.12644,-0.20545 2.14447,-0.0413 2.28127,20.76811 l 0.12331,18.75925 9.0171,0.17285 c 7.73167,0.14821 9.1599,0.26642 10.01887,0.82924 1.33597,0.87536 1.23506,2.83955 -0.18055,3.51436 -0.62767,0.2992 -4.82917,0.544 -12.41218,0.72318 l -11.46332,0.27089 z"
     id="path1642"
     transform="scale(0.75)" />
  <path
     style="fill:#ffffff;fill-opacity:0.941176;stroke-width:0.378072"
     d="m 697.12339,373.67452 c -0.64247,-0.77413 -1.01663,-10.30445 -1.06125,-27.0312 l -0.0319,-11.95781 -5.83852,-0.15687 c -5.02525,-0.13501 -5.94686,-0.25491 -6.61626,-0.86071 -1.45373,-1.31561 -0.91524,-3.02964 1.13671,-3.61813 1.7601,-0.50479 26.21519,-0.48214 28.0448,0.026 1.68443,0.46779 2.21435,1.74786 1.30077,3.14215 -0.71531,1.09171 -2.4572,1.37564 -8.43944,1.37564 h -4.29506 l -0.0304,9.73535 c -0.0522,16.71134 -0.48497,28.64946 -1.06384,29.34695 -0.6582,0.79308 -2.44693,0.7923 -3.1056,-0.002 z"
     id="path1681"
     transform="scale(0.75)" />
  <path
     style="fill:#ffffff;fill-opacity:0.941176;stroke-width:0.378072"
     d="m 725.51985,352.13513 v -22.53405 l 9.16824,0.16567 c 7.93467,0.14337 9.48435,0.26986 11.51766,0.9401 6.08834,2.00689 9.00914,5.37109 11.15406,12.84733 1.2205,4.25411 1.2205,12.60728 0,16.86139 -2.14665,7.48229 -5.14774,10.93474 -11.12128,12.79392 -2.48524,0.77349 -10.25857,1.44456 -16.84344,1.45409 l -3.87524,0.006 z m 20.23715,16.35776 c 4.7141,-1.50866 7.4041,-7.50622 7.4041,-16.50801 0,-9.14562 -2.83442,-15.23506 -7.74182,-16.63242 -0.85962,-0.24478 -4.5828,-0.53677 -8.27372,-0.64887 l -6.71078,-0.20382 v 17.48037 17.48036 l 6.71078,-0.17967 c 4.69736,-0.12576 7.28103,-0.36216 8.61144,-0.78794 z"
     id="path1720"
     transform="scale(0.75)" />
  <path
     style="fill:#ffffff;fill-opacity:0.941176;stroke-width:0.189036"
     d="m 595.81686,374.195 c -0.70056,-0.38067 -1.17441,-1.65009 -1.01435,-2.71744 0.25123,-1.67533 1.91949,-2.50227 3.65066,-1.80959 1.00184,0.40086 1.35779,1.04544 1.35779,2.45875 0,0.96253 -0.0635,1.13145 -0.64272,1.71071 -0.58716,0.58716 -0.73832,0.64207 -1.74858,0.63515 -0.60822,-0.004 -1.32948,-0.12907 -1.6028,-0.27758 z"
     id="path1759"
     transform="scale(0.75)" />
  <path
     style="fill:#ffffff;fill-opacity:0.941176;stroke-width:0.189036"
     d="m 614.93926,382.80786 c -0.28908,-0.54015 0.0554,-1.8136 1.07655,-3.97988 1.41514,-3.00205 1.43799,-3.35924 0.25355,-3.9635 -1.71526,-0.87506 -2.00749,-4.03542 -0.46651,-5.04511 0.35148,-0.23031 0.8787,-0.34237 1.61072,-0.34237 1.88424,0 2.43226,0.89615 2.43415,3.98047 0.002,2.94711 -0.98013,5.85701 -2.70532,8.01701 -0.45672,0.57183 -1.09373,1.19087 -1.41557,1.37565 -0.56869,0.32649 -0.59085,0.3253 -0.78757,-0.0423 z"
     id="path1798"
     transform="scale(0.75)" />
  <path
     style="fill:#ffffff;fill-opacity:0.941176;stroke-width:0.189036"
     d="m 771.66269,373.99376 c -1.40035,-1.17831 -1.08655,-3.65754 0.54559,-4.31059 0.96067,-0.38439 1.31464,-0.38439 2.27531,0 1.06738,0.42708 1.39826,1.1374 1.34074,2.87827 -0.0149,0.45104 -0.20587,0.81821 -0.66365,1.27599 -0.58866,0.58866 -0.73849,0.64272 -1.78134,0.64272 -0.94734,0 -1.23571,-0.0817 -1.71665,-0.48639 z"
     id="path1837"
     transform="scale(0.75)" />
</svg>
