<?xml version="1.0" encoding="UTF-8" standalone="no"?>
<svg
   height="300pt"
   preserveAspectRatio="xMidYMid meet"
   viewBox="0 0 600 300"
   width="600pt"
   version="1.1"
   id="svg54"
   sodipodi:docname="alphadenshi.svg"
   inkscape:version="1.1 (c68e22c387, 2021-05-23)"
   xmlns:inkscape="http://www.inkscape.org/namespaces/inkscape"
   xmlns:sodipodi="http://sodipodi.sourceforge.net/DTD/sodipodi-0.dtd"
   xmlns="http://www.w3.org/2000/svg"
   xmlns:svg="http://www.w3.org/2000/svg">
  <defs
     id="defs58" />
  <sodipodi:namedview
     id="namedview56"
     pagecolor="#ffffff"
     bordercolor="#666666"
     borderopacity="1.0"
     inkscape:pageshadow="2"
     inkscape:pageopacity="0.0"
     inkscape:pagecheckerboard="0"
     inkscape:document-units="pt"
     showgrid="false"
     inkscape:zoom="2.5936918"
     inkscape:cx="98.893786"
     inkscape:cy="355.67063"
     inkscape:window-width="1366"
     inkscape:window-height="705"
     inkscape:window-x="-8"
     inkscape:window-y="-8"
     inkscape:window-maximized="1"
     inkscape:current-layer="svg54" />
  <g
     transform="matrix(.1 0 0 -.1 0 300)"
     id="g52">
    <path
       d="m2370 1305v-665h360 360v140 140l-217 2-218 3-3 523-2 522h-140-140z"
       id="path2" />
    <path
       d="m3185 1958c-3-7-4-305-3-663l3-650 143-3 142-3v175 174l123 4c98 3 131 8 169 25 93 42 172 148 214 289 29 94 25 276-8 376-45 137-130 240-225 272-61 21-551 24-558 4zm453-280c87-58 119-204 68-313-13-27-32-58-42-67-33-29-91-48-144-48h-50v231 231l64-4c47-3 74-11 104-30z"
       id="path4" />
    <path
       d="m4080 1305v-665h140 140v265 265h125 125v-265-265h145 145v665 665h-145-145v-260-260h-125-125v260 260h-140-140z"
       id="path6" />
    <path
       d="m5330 1938c-6-18-88-253-181-521l-170-488v-142-142h112 112l111 332c61 183 113 333 116 333s34-87 69-192c35-106 66-198 68-205 4-9-20-13-87-15l-92-3-39-125c-21-69-39-126-39-127 0-2 146-3 325-3 257 0 325 3 325 13 0 13-92 289-213 637-170 488-225 646-232 663-6 14-20 17-90 17h-83z"
       id="path8" />
    <path
       d="m2840 522c-27-13-37-26-45-55-14-61 6-86 94-119 41-15 78-33 82-40 25-39-11-88-65-88-39 0-86 33-86 61 0 12-7 19-20 19-48 0-2-91 55-110 102-34 189 43 152 133-12 28-25 38-63 52-99 34-114 43-114 68 0 32 30 57 66 57 34 0 74-25 74-46 0-8 9-14 20-14 24 0 25 11 5 49-25 49-95 64-155 33z"
       id="path10" />
    <path
       d="m3820 522c-44-22-70-67-77-134-14-140 68-232 177-199 42 12 80 57 80 94 0 29-34 19-50-16-28-60-101-62-144-4-17 22-21 43-21 97s4 75 21 97c41 55 112 56 142 3 19-33 21-34 41-21 11 7 10 15-8 44-34 55-98 71-161 39z"
       id="path12" />
    <path
       d="m4153 524c-55-28-78-77-78-164 0-89 24-138 81-165 156-74 276 165 150 302-39 43-101 54-153 27zm120-48c23-22 47-80 47-116 0-35-23-94-45-116-35-35-88-33-125 4-33 34-45 83-35 149 13 91 99 134 158 79z"
       id="path14" />
    <path
       d="m195 518c-3-7-30-84-60-170-49-143-53-158-36-158 14 0 24 13 36 50l17 51 66-3 66-3 15-48c12-39 19-47 39-47 19 0 23 4 17 18-4 9-32 86-62 170-45 122-60 152-75 152-10 0-21-6-23-12zm49-116 25-72h-50c-27 0-49 3-49 7 0 12 44 143 47 139 2-1 14-35 27-74z"
       id="path16" />
    <path
       d="m430 360v-170h95c88 0 95 1 95 20 0 18-7 20-75 20h-75v150c0 143-1 150-20 150s-20-7-20-170z"
       id="path18" />
    <path
       d="m700 360c0-163 1-170 20-170 18 0 20 7 20 69v69l71 4c63 3 74 7 95 31 43 50 27 137-29 157-16 5-63 10-103 10h-74zm174 114c21-20 20-63-1-86-12-13-31-18-75-18h-58v60 60h59c41 0 65-5 75-16z"
       id="path20" />
    <path
       d="m1010 360c0-163 1-170 20-170 18 0 20 7 20 80v80h80 80v-80c0-73 2-80 20-80 19 0 20 7 20 170s-1 170-20 170c-18 0-20-7-20-70v-70h-80-80v70c0 63-2 70-20 70-19 0-20-7-20-170z"
       id="path22" />
    <path
       d="m1435 518c-3-7-30-84-60-170-49-143-53-158-36-158 14 0 24 13 36 50l17 51 66-3 66-3 15-48c12-39 19-47 39-47 19 0 23 4 17 18-4 9-32 86-62 170-45 122-60 152-75 152-10 0-21-6-23-12zm49-116 25-72h-50c-27 0-49 3-49 7 0 12 44 143 47 139 2-1 14-35 27-74z"
       id="path24" />
    <path
       d="m1790 360v-170h70c39 0 86 6 106 15 99 41 99 269 0 310-20 9-67 15-106 15h-70zm162 119c11-6 26-26 34-44 28-67 10-171-34-194-12-6-43-11-71-11h-51v130 130h51c28 0 59-5 71-11z"
       id="path26" />
    <path
       d="m2140 360v-170h110c103 0 110 1 110 20s-7 20-95 20h-95v60 60h85c78 0 85 2 85 20s-7 20-85 20h-85v50 50h90c83 0 90 1 90 20s-7 20-105 20h-105z"
       id="path28" />
    <path
       d="m2450 360c0-162 1-170 20-170 18 0 20 8 22 130l3 131 75-128c57-96 81-129 98-131l22-3v170c0 163-1 171-20 171-18 0-20-8-22-130l-3-131-75 130c-61 106-79 130-97 131-23 0-23 0-23-170z"
       id="path30" />
    <path
       d="m3100 360c0-163 1-170 20-170 18 0 20 7 20 80v80h80 80v-80c0-73 2-80 20-80 19 0 20 7 20 170s-1 170-20 170c-18 0-20-7-20-70v-70h-80-80v70c0 63-2 70-20 70-19 0-20-7-20-170z"
       id="path32" />
    <path
       d="m3450 360c0-163 1-170 20-170s20 7 20 170-1 170-20 170-20-7-20-170z"
       id="path34" />
    <path
       d="m4910 360v-170h95c88 0 95 1 95 20 0 18-7 20-75 20h-75v150c0 143-1 150-20 150s-20-7-20-170z"
       id="path36" />
    <path
       d="m5120 510c0-17 7-20 50-20h50v-150c0-143 1-150 20-150s20 7 20 150v150h50c43 0 50 3 50 20 0 19-7 20-120 20s-120-1-120-20z"
       id="path38" />
    <path
       d="m5440 360v-170h70c96 0 135 18 160 72 26 56 26 140 0 196-25 54-64 72-160 72h-70zm162 119c62-33 62-205 0-238-12-6-43-11-71-11h-51v130 130h51c28 0 59-5 71-11z"
       id="path40" />
    <path
       d="m4460 210c0-13 7-20 20-20s20 7 20 20-7 20-20 20-20-7-20-20z"
       id="path42" />
    <path
       d="m4610 211c0-11 5-21 11-23 9-3 9-9 0-25-18-35-12-50 9-24 11 13 20 38 20 57 0 27-4 34-20 34-13 0-20-7-20-19z"
       id="path44" />
    <path
       d="m5780 210c0-13 7-20 20-20s20 7 20 20-7 20-20 20-20-7-20-20z"
       id="path46" />
    <path
       d="m1178 1775c-621-618-1128-1126-1128-1129s98-6 217-6h218l762 762 763 763v-628-627h-350-350v40 40h310 310v492 493l-665-665-665-665 852-3c468-1 853-1 855 1s2 510 1 1129l-3 1125z"
       id="path48" />
    <path
       d="m1930 991.93545h-618.0645l618.0645 618.06455z"
       fill="#ff0004"
       opacity=".98"
       id="path50" />
  </g>
  <path
     style="fill:#ffffff;stroke-width:0.769231"
     d="M 16.153846,313.88641 7.6923077,313.46154 21.538462,299.337 C 29.153846,291.5685 96.567308,224.28608 171.34615,149.82052 L 307.30769,14.428573 V 164.13736 313.84615 H 194.03972 80.77175 l 88.07567,-88.07867 88.07566,-88.07867 0.20368,23.6416 0.20368,23.64159 -41.54983,41.55508 -41.54984,41.55509 v 5.5743 5.5743 h 46.92308 46.92307 v -84.42199 -84.422 L 165.96046,212.50108 63.843993,314.61538 44.229688,314.46333 c -10.787866,-0.0836 -23.421996,-0.34325 -28.075842,-0.57692 z"
     id="path986"
     transform="scale(0.75)" />
  <path
     style="fill:#ffffff;stroke-width:0.769231"
     d="m 316.53846,226.15385 v -88.46154 h 17.95269 17.95269 l 0.50885,24.35621 c 0.27987,13.39592 0.50885,44.6679 0.50885,69.49329 v 45.13707 l 15.57692,0.5047 c 8.56731,0.27757 21.72116,0.5056 29.23077,0.5067 l 13.65385,0.002 v 18.46154 18.46153 h -47.69231 -47.69231 z"
     id="path1025"
     transform="scale(0.75)" />
  <path
     style="fill:#ffffff;stroke-width:0.769231"
     d="M 439.42308,314.03952 425,313.81221 v -87.24533 c 0,-68.95153 0.20162,-87.37581 0.96154,-87.86764 1.54429,-0.99948 47.15567,-1.23496 59.99478,-0.30973 10.55908,0.76092 12.21156,1.07853 16.4783,3.1672 9.07344,4.44166 16.7511,13.15819 22.61864,25.6792 5.76816,12.30893 7.74228,25.0329 6.75418,43.53332 -0.72856,13.6409 -4.71552,25.41362 -12.65996,37.38243 -3.64887,5.49726 -11.57727,12.77038 -16.57969,15.20938 -5.71038,2.78418 -10.20613,3.47356 -26.48809,4.06173 l -14.15662,0.51139 v 23.34062 23.3406 l -4.03846,-0.17427 c -2.22116,-0.0958 -10.52885,-0.27656 -18.46154,-0.40159 z m 40.64335,-82.04034 c 6.60927,-2.05206 9.81562,-4.97384 13.34096,-12.15691 5.34129,-10.88315 5.65551,-22.42548 0.88828,-32.62948 -5.18057,-11.08876 -13.42357,-15.64706 -28.33413,-15.66852 l -4.03846,-0.006 v 31.25866 31.25866 l 7.11538,-0.4209 c 3.91346,-0.2315 8.87605,-0.96756 11.02797,-1.6357 z"
     id="path1064"
     transform="scale(0.75)" />
  <path
     style="fill:#ffffff;stroke-width:0.769231"
     d="m 544.23077,226.15385 v -88.46154 h 18.46154 18.46154 v 34.61538 34.61539 H 598.07692 615 v -34.61539 -34.61538 h 18.84615 18.84616 v 88.46154 88.46153 H 633.84615 615 v -35.38461 -35.38462 h -16.92308 -16.92307 v 35.38462 35.38461 h -18.46154 -18.46154 z"
     id="path1103"
     transform="scale(0.75)" />
  <path
     style="fill:#ffffff;stroke-width:0.769231"
     d="m 719.03846,314.04046 c -5.60577,-0.13143 -10.19231,-0.51341 -10.19231,-0.84884 0,-0.33543 0.49942,-2.14268 1.10982,-4.01613 0.6104,-1.87344 2.86009,-8.98352 4.99931,-15.80017 l 3.88949,-12.39392 11.19784,-0.38015 c 6.30254,-0.21397 11.55294,-0.73527 12.01014,-1.19247 0.57026,-0.57025 -0.5064,-4.78639 -3.61315,-14.149 -8.41546,-25.36107 -13.61499,-39.87516 -14.28488,-39.87516 -1.0356,0 -1.85837,2.28356 -16.86453,46.80664 l -14.03946,41.65489 h -14.50998 -14.50998 v -18.68969 -18.68969 l 24.07343,-69.19492 24.07343,-69.19493 9.27808,-0.2151 c 5.10295,-0.1183 10.14476,0.11441 11.20404,0.51715 1.6521,0.62813 2.58792,2.62747 6.58154,14.06125 38.62821,110.5929 55.2644,159.64841 54.4263,160.48802 -1.20819,1.21036 -43.70324,1.84199 -74.82913,1.11222 z"
     id="path1142"
     transform="scale(0.75)" />
  <path
     style="fill:#ffffff;stroke-width:0.385551"
     d="m 771.62552,373.57935 c -1.62637,-1.62637 -0.55098,-4.02889 1.80337,-4.02889 2.15819,0 3.19853,3.18199 1.44248,4.41198 -1.21732,0.85264 -2.11621,0.74655 -3.24585,-0.38309 z"
     id="path1181"
     transform="scale(0.75)" />
  <path
     style="fill:#ffffff;stroke-width:0.385551"
     d="m 725.60665,352.01056 v -22.66439 l 8.38573,0.21103 c 11.70607,0.29459 15.79294,1.4429 19.17376,5.38736 6.86198,8.00598 6.86198,26.1207 0,34.12668 -3.37216,3.93436 -7.44324,5.07761 -19.17376,5.3844 l -8.38573,0.21931 z m 19.59369,16.65634 c 4.78468,-1.30558 7.52534,-6.47734 8.01081,-15.1168 0.38359,-6.82638 -1.36569,-13.16044 -4.47231,-16.19397 -2.06059,-2.01211 -4.30727,-2.54019 -11.85483,-2.78649 l -6.2652,-0.20444 v 17.64664 17.64664 l 6.2652,-0.21595 c 3.57442,-0.1232 7.14612,-0.45632 8.31633,-0.77563 z"
     id="path1220"
     transform="scale(0.75)" />
  <path
     style="fill:#ffffff;stroke-width:0.385551"
     d="m 697.18116,373.51991 c -0.62685,-0.95616 -0.69327,-2.62048 -0.80007,-20.04865 l -0.11647,-19.00592 h -5.35253 c -5.19157,0 -7.19522,-0.32813 -7.79867,-1.27716 -0.60685,-0.95439 -0.28821,-2.18465 0.7404,-2.85862 0.94942,-0.62209 2.27804,-0.68361 14.76427,-0.68361 12.48623,0 13.81485,0.0615 14.76428,0.68361 0.73072,0.47879 1.0433,1.01333 1.0433,1.78415 0,1.91588 -0.71855,2.14655 -7.12925,2.28867 l -5.85585,0.12982 -0.26413,18.41245 c -0.14527,10.12684 -0.43016,18.99136 -0.63309,19.69894 -0.62225,2.16963 -2.23818,2.5908 -3.36219,0.87632 z"
     id="path1259"
     transform="scale(0.75)" />
  <path
     style="fill:#ffffff;stroke-width:0.385551"
     d="m 654.70145,364.67282 c 0.0522,-14.39021 0.5551,-33.37304 0.90506,-34.16271 0.49419,-1.1151 2.08592,-1.28551 3.04576,-0.32607 0.82735,0.827 0.83312,0.94903 0.94862,20.06933 l 0.1162,19.23726 9.36769,0.12631 c 10.36187,0.1397 10.64132,0.20526 10.64132,2.49636 0,2.0667 -0.6709,2.18343 -13.59067,2.36467 l -11.47013,0.16091 z"
     id="path1298"
     transform="scale(0.75)" />
  <path
     style="fill:#ffffff;stroke-width:0.385551"
     d="m 614.95387,382.17725 c 1.6e-4,-0.47712 0.52066,-1.96743 1.15665,-3.3118 0.63599,-1.34437 1.15635,-2.61937 1.15635,-2.83333 0,-0.21396 -0.5205,-0.87523 -1.15665,-1.4695 -2.02149,-1.88834 -1.27852,-5.02185 1.18701,-5.00625 1.42463,0.009 1.91996,0.50084 2.32646,2.31004 0.65384,2.91004 -0.61367,7.19245 -2.95099,9.9702 -1.20176,1.42821 -1.71925,1.53076 -1.71883,0.34064 z"
     id="path1337"
     transform="scale(0.75)" />
  <path
     style="fill:#ffffff;stroke-width:0.385551"
     d="m 557.93975,375.11102 c -3.32481,-0.89425 -7.21258,-3.14942 -9.18222,-5.32633 -1.92962,-2.13268 -3.56051,-5.35998 -4.40472,-8.71634 -0.73004,-2.90242 -0.73004,-15.21848 0,-18.12089 1.95934,-7.78979 7.47679,-13.12147 14.84155,-14.34185 10.13749,-1.67983 19.65893,7.12018 21.50289,19.87363 1.43504,9.92525 -3.63276,21.08127 -11.4357,25.17399 -3.87643,2.03323 -7.46458,2.49523 -11.3218,1.45779 z m 9.13504,-5.33207 c 2.39042,-1.21132 4.33877,-3.39174 6.02788,-6.74586 3.64839,-7.24473 3.81932,-13.61898 0.55809,-20.81146 -1.8471,-4.07369 -3.80951,-6.358 -6.67316,-7.76777 -7.62664,-3.75458 -15.86893,1.24657 -18.19378,11.0394 -0.85391,3.59688 -0.86126,10.38256 -0.0147,13.61525 1.529,5.83897 5.6264,10.23527 10.84795,11.6393 1.89709,0.51011 5.43822,0.0495 7.44777,-0.96886 z"
     id="path1376"
     transform="scale(0.75)" />
  <path
     style="fill:#ffffff;stroke-width:0.385551"
     d="m 595.67602,373.79152 c -1.56539,-1.56539 -0.55895,-4.24106 1.59526,-4.24106 1.26546,0 2.16102,0.72721 2.46885,2.00474 0.19449,0.80715 0.03,1.26166 -0.73247,2.02415 -1.18233,1.18232 -2.29089,1.25292 -3.33164,0.21217 z"
     id="path1452"
     transform="scale(0.75)" />
  <path
     style="fill:#ffffff;stroke-width:0.385551"
     d="m 512.12178,374.77439 c -5.72793,-1.79011 -10.38205,-7.49893 -12.27402,-15.05547 -0.90534,-3.61597 -0.89588,-11.25426 0.0189,-15.22926 1.76687,-7.67781 5.61473,-12.48645 11.8517,-14.81096 7.85448,-2.92736 15.09629,-0.35397 19.37374,6.88449 1.62567,2.75101 1.69097,3.74962 0.31594,4.83123 -1.57988,1.24273 -2.43332,0.8722 -4.19291,-1.82037 -3.23851,-4.95566 -4.99459,-6.06165 -9.61313,-6.0544 -2.47848,0.004 -3.46311,0.18951 -5.01216,0.94489 -2.57138,1.25391 -5.41921,4.16011 -6.59654,6.73173 -1.25892,2.74984 -1.80817,9.09223 -1.31373,15.1699 0.42681,5.24634 1.38482,7.66034 4.12731,10.40006 5.98124,5.97521 14.40157,4.96862 18.01037,-2.153 2.70486,-5.33779 7.34466,-5.78332 6.03643,-0.57965 -0.59732,2.37593 -1.62788,4.09394 -3.84041,6.40218 -2.11431,2.20576 -4.11628,3.43775 -6.95103,4.27757 -2.51509,0.74511 -7.65069,0.77666 -9.94044,0.0611 z"
     id="path1491"
     transform="scale(0.75)" />
  <path
     style="fill:#ffffff;stroke-width:0.385551"
     d="m 461.22406,373.51932 c -0.63275,-0.9657 -0.6836,-2.56592 -0.6836,-21.51142 0,-18.9455 0.0509,-20.54572 0.6836,-21.51141 0.87196,-1.33078 2.0019,-1.33078 2.87386,0 0.63274,0.96569 0.6836,2.56591 0.6836,21.51141 0,18.9455 -0.0509,20.54572 -0.6836,21.51142 -0.37599,0.57382 -1.0226,1.0433 -1.43693,1.0433 -0.41433,0 -1.06095,-0.46948 -1.43693,-1.0433 z"
     id="path1530"
     transform="scale(0.75)" />
  <path
     style="fill:#ffffff;stroke-width:0.385551"
     d="m 414.57241,373.5199 c -0.6259,-0.95471 -0.69394,-2.60629 -0.8061,-19.5667 -0.0674,-10.18819 -0.01,-19.60993 0.12745,-20.9372 0.34166,-3.29856 1.60516,-4.39124 3.4877,-3.01616 0.6972,0.50926 0.75638,1.15564 0.86494,9.446 l 0.11654,8.89933 h 10.96805 10.96805 v -7.8556 c 0,-8.77993 0.15518,-10.11487 1.2435,-10.69732 0.97701,-0.52288 2.44675,-0.14823 2.81615,0.71786 0.90773,2.12824 0.91383,40.85566 0.007,42.97757 -0.34218,0.80049 -1.48836,1.21094 -2.49199,0.8924 -1.33404,-0.42341 -1.57443,-2.25868 -1.57443,-12.01984 v -9.38846 h -10.96486 -10.96486 l -0.11972,10.24868 c -0.11244,9.62467 -0.1653,10.28198 -0.86814,10.79543 -1.12873,0.82458 -2.04993,0.66193 -2.80905,-0.49599 z"
     id="path1569"
     transform="scale(0.75)" />
  <path
     style="fill:#ffffff;stroke-width:0.385551"
     d="m 384.02507,375.2934 c -1.15724,-0.19904 -3.02776,-0.78477 -4.15671,-1.30161 -5.61047,-2.56856 -10.79705,-10.76354 -8.2634,-13.05646 1.66291,-1.50491 4.30709,-0.2937 4.30709,1.97293 0,2.11878 2.26694,4.63604 5.89389,6.54468 1.78126,0.93737 2.42658,1.05791 5.67264,1.05955 3.31036,0.002 3.83766,-0.10098 5.48103,-1.06701 3.33768,-1.962 5.04339,-5.47361 4.1929,-8.63209 -0.69266,-2.57236 -2.26759,-3.58001 -11.08286,-7.09084 -6.44403,-2.56646 -9.21863,-4.05517 -11.16824,-5.99232 -2.06293,-2.04976 -2.61748,-3.77758 -2.34953,-7.32045 0.37369,-4.941 2.17376,-7.76357 6.22224,-9.75663 8.76096,-4.31301 17.25453,-2.06386 20.90696,5.53629 1.92505,4.00573 1.72044,4.83026 -1.19863,4.83026 -1.45047,0 -1.84865,-0.38307 -2.49986,-2.40499 -1.31947,-4.09679 -9.39385,-6.72394 -14.09781,-4.58698 -3.17961,1.44447 -5.3094,5.17751 -4.59178,8.04837 0.5137,2.05507 2.65857,3.49093 8.47724,5.67497 9.16204,3.43898 9.98946,3.78776 11.61353,4.89546 3.47037,2.36699 5.36409,9.15821 3.81856,13.69409 -2.1874,6.41967 -9.56092,10.26274 -17.17726,8.95278 z"
     id="path1608"
     transform="scale(0.75)" />
  <path
     style="fill:#ffffff;stroke-width:0.385551"
     d="m 327.82348,373.5195 c -0.63276,-0.96554 -0.68361,-2.56567 -0.68361,-21.51119 0,-18.94536 0.0509,-20.54568 0.68361,-21.51159 1.52522,-2.3283 3.89258,-0.7813 7.77524,5.0809 1.35041,2.03891 5.60987,9.17229 9.46548,15.85196 3.8556,6.67966 7.15009,12.29103 7.32109,12.46971 0.35927,0.37541 0.66329,-5.79403 0.98498,-19.98796 0.2987,-13.17957 0.66026,-14.905 3.00031,-14.31769 1.843,0.46257 1.90863,1.20989 2.09902,23.90113 l 0.17746,21.14996 -1.68099,-0.27088 c -0.92454,-0.14898 -2.07853,-0.52315 -2.56441,-0.83148 -2.02812,-1.28701 -6.76211,-8.52414 -16.67127,-25.48636 -2.63244,-4.50613 -4.88817,-8.19296 -5.01274,-8.19296 -0.12457,0 -0.4144,7.15679 -0.64408,15.90397 -0.40882,15.57034 -0.61888,17.75628 -1.77702,18.49269 -0.88704,0.56402 -1.79681,0.29172 -2.47307,-0.74021 z"
     id="path1647"
     transform="scale(0.75)" />
  <path
     style="fill:#ffffff;stroke-width:0.385551"
     d="m 285.69316,352.01015 v -22.62818 l 12.62679,0.15489 c 14.21031,0.17432 14.74732,0.26168 14.74732,2.39929 0,2.24605 -0.39355,2.32155 -12.81957,2.45927 l -11.08458,0.12286 v 6.89111 6.8911 l 10.82698,0.11873 c 10.19799,0.11183 10.85875,0.1622 11.37375,0.86713 0.69347,0.94921 0.69347,1.79503 0,2.74425 -0.515,0.70492 -1.17576,0.7553 -11.37375,0.86713 l -10.82698,0.11872 v 8.26701 8.267 l 10.69903,0.004 c 5.88447,0.002 11.36182,0.11376 12.17189,0.24761 2.64604,0.43722 3.3675,3.12257 1.09662,4.08172 -0.66622,0.28139 -5.66842,0.4902 -14.23238,0.59409 l -13.20512,0.16021 z"
     id="path1686"
     transform="scale(0.75)" />
  <path
     style="fill:#ffffff;stroke-width:0.385551"
     d="m 239.04151,352.01042 v -22.66653 l 8.00018,0.23224 c 11.61059,0.33705 15.40032,1.28086 18.80194,4.68247 1.98555,1.98556 4.03577,5.95876 5.0804,9.84551 0.93858,3.49216 0.93858,12.31543 0,15.80758 -1.04463,3.88676 -3.09485,7.85995 -5.0804,9.84551 -3.39167,3.39166 -7.15963,4.32941 -18.80194,4.67931 l -8.00018,0.24043 z m 19.66309,16.57153 c 5.29358,-1.62919 8.4915,-9.00227 7.94114,-18.30903 -0.35105,-5.93649 -1.91157,-10.16357 -4.82923,-13.08122 -1.94715,-1.94716 -3.88197,-2.37509 -11.88319,-2.62826 l -6.2652,-0.19824 v 17.64595 17.64595 l 6.45798,-0.21126 c 4.44952,-0.14556 7.11746,-0.41423 8.5785,-0.86389 z"
     id="path1725"
     transform="scale(0.75)" />
  <path
     style="fill:#ffffff;stroke-width:0.385551"
     d="m 177.78323,374.03768 c -0.80082,-0.96494 1.18607,-7.43305 9.78326,-31.84835 2.05088,-5.82432 3.88176,-10.87534 4.06861,-11.22448 0.18686,-0.34915 0.86584,-0.85273 1.50885,-1.11908 2.99427,-1.24026 4.35551,1.5002 14.35988,28.90927 2.74769,7.52788 5.08775,13.98576 5.20013,14.35085 0.28657,0.93102 -1.38166,1.62247 -3.12526,1.29537 -1.92324,-0.3608 -2.90087,-1.97524 -4.67395,-7.71839 l -1.47537,-4.77886 -3.88117,-0.23717 c -2.13464,-0.13044 -6.20529,-0.27509 -9.04588,-0.32144 l -5.16472,-0.0843 -1.65388,4.92631 c -1.73429,5.16584 -2.83884,7.35909 -4.02616,7.99452 -0.95449,0.51083 -1.35632,0.4799 -1.87434,-0.14427 z m 23.4743,-18.29391 c 0,-0.45164 -6.50574,-19.04502 -6.74881,-19.28809 -0.40252,-0.40252 -0.90408,0.58062 -2.42673,4.7568 -1.52998,4.1963 -4.31874,13.07405 -4.31874,13.74833 0,0.19202 0.39037,0.50603 0.86749,0.69781 1.08148,0.4347 12.62679,0.51256 12.62679,0.0851 z"
     id="path1764"
     transform="scale(0.75)" />
  <path
     style="fill:#ffffff;stroke-width:0.385551"
     d="m 135.81917,373.51932 c -0.63275,-0.9657 -0.68361,-2.56592 -0.68361,-21.51142 0,-18.9455 0.0509,-20.54572 0.68361,-21.51141 0.89205,-1.36144 2.35013,-1.38772 3.22136,-0.0581 0.53751,0.82034 0.67702,2.40145 0.8335,9.446 l 0.18793,8.46074 h 10.74192 10.74191 l 0.002,-7.80741 c 0.001,-4.29407 0.18008,-8.44804 0.39755,-9.23104 0.41604,-1.49796 1.3509,-2.0841 2.66088,-1.66833 1.64196,0.52114 1.7588,2.00722 1.7588,22.36951 0,20.36229 -0.11684,21.84837 -1.7588,22.36951 -1.00566,0.31918 -2.14961,-0.0834 -2.52801,-0.88973 -0.17037,-0.36302 -0.37285,-5.1276 -0.44996,-10.58797 l -0.14021,-9.92793 h -10.76663 -10.76662 l -0.0274,7.22908 c -0.0368,9.70004 -0.36252,13.12952 -1.31295,13.8245 -1.11528,0.81551 -2.03906,0.64828 -2.7954,-0.50604 z"
     id="path1803"
     transform="scale(0.75)" />
  <path
     style="fill:#ffffff;stroke-width:0.385551"
     d="m 94.565227,373.51979 c -0.630246,-0.96145 -0.692315,-2.72185 -0.79524,-22.55473 l -0.111639,-21.51188 h 6.117102 c 6.91941,0 13.60989,0.55029 16.47847,1.35535 2.55977,0.71839 4.89681,2.78043 6.23136,5.4981 0.9686,1.97247 1.08376,2.61669 1.08376,6.0625 0,3.41309 -0.11986,4.09884 -1.04453,5.97604 -1.29895,2.63701 -3.46879,4.91135 -5.58246,5.8513 -1.63624,0.72764 -5.52202,1.19055 -14.07614,1.67686 l -4.509991,0.2564 -0.116617,8.66979 c -0.108455,8.06297 -0.169001,8.70806 -0.865022,9.21646 -1.128821,0.82451 -2.049964,0.6618 -2.809053,-0.49619 z m 19.081423,-23.44838 c 3.47085,-1.03073 5.49382,-4.73099 4.97615,-9.10195 -0.61937,-5.22958 -3.46628,-6.4955 -14.62047,-6.50121 l -5.68687,-0.003 v 8.09657 8.09656 h 6.67716 c 4.85688,0 7.21608,-0.16004 8.65403,-0.58706 z"
     id="path1842"
     transform="scale(0.75)" />
  <path
     style="fill:#ffffff;stroke-width:0.385551"
     d="m 57.538124,353.49226 c 0.180033,-22.71195 0.243365,-23.43247 2.100636,-23.89862 2.530249,-0.63505 2.803038,1.58551 2.812721,22.8962 l 0.0078,17.06062 h 8.388276 c 8.238214,0 10.720477,0.27279 11.338192,1.246 0.624802,0.98437 0.319657,2.20783 -0.720743,2.88979 -0.926807,0.60749 -2.326112,0.69862 -12.568692,0.81853 L 57.37054,374.6397 Z"
     id="path1959"
     transform="scale(0.75)" />
  <path
     style="fill:#ffffff;stroke-width:0.385551"
     d="m 12.59466,374.30559 c -0.667938,-0.66794 -0.04154,-3.49138 2.488349,-11.21612 4.936229,-15.07221 11.137456,-32.27143 11.820926,-32.78555 1.201755,-0.90398 2.381471,-0.98504 3.227098,-0.22172 1.741016,1.57154 4.737961,8.58565 10.521419,24.62456 1.835136,5.08927 4.109192,11.31101 5.053456,13.82608 0.944264,2.51508 1.716843,4.80607 1.716843,5.09108 0,0.76491 -2.502093,1.11376 -3.883713,0.54147 -1.457356,-0.60366 -2.493866,-2.61061 -4.203612,-8.13928 l -1.268756,-4.10268 -3.514914,-0.22865 c -1.933203,-0.12577 -5.96591,-0.3393 -8.96157,-0.47452 l -5.446655,-0.24587 -1.256473,3.8061 c -0.69106,2.09335 -1.730916,4.86487 -2.31079,6.15894 -1.246632,2.78201 -3.0452,4.30257 -3.981608,3.36616 z m 23.261567,-18.61522 c 0,-0.30262 -5.513697,-16.41089 -6.374316,-18.62256 -0.144401,-0.3711 -0.404872,-0.67472 -0.578825,-0.67472 -0.602718,0 -5.950259,15.37856 -6.225171,17.90246 -0.100936,0.92667 0.05095,1.18093 0.840685,1.40739 1.475293,0.42303 12.337627,0.41196 12.337627,-0.0126 z"
     id="path1998"
     transform="scale(0.75)" />
</svg>
