<?xml version="1.0" encoding="UTF-8" standalone="no"?>
<svg
   viewBox="-64 344.8 601.131 131.201"
   xml:space="preserve"
   width="601.131"
   height="131.201"
   version="1.1"
   id="svg17"
   sodipodi:docname="amigademo-w.svg"
   inkscape:version="1.3 (0e150ed6c4, 2023-07-21)"
   inkscape:export-filename="amigademo.svg"
   inkscape:export-xdpi="96"
   inkscape:export-ydpi="96"
   xmlns:inkscape="http://www.inkscape.org/namespaces/inkscape"
   xmlns:sodipodi="http://sodipodi.sourceforge.net/DTD/sodipodi-0.dtd"
   xmlns="http://www.w3.org/2000/svg"
   xmlns:svg="http://www.w3.org/2000/svg"><defs
   id="defs17" /><sodipodi:namedview
   id="namedview17"
   pagecolor="#ffffff"
   bordercolor="#111111"
   borderopacity="1"
   inkscape:showpageshadow="0"
   inkscape:pageopacity="0"
   inkscape:pagecheckerboard="1"
   inkscape:deskcolor="#d1d1d1"
   inkscape:zoom="3.2583344"
   inkscape:cx="344.96152"
   inkscape:cy="18.414316"
   inkscape:window-width="3440"
   inkscape:window-height="1377"
   inkscape:window-x="-8"
   inkscape:window-y="760"
   inkscape:window-maximized="1"
   inkscape:current-layer="svg17" />&#10;    <path
   d="M-11.4 344.8c-29.1 0-52.6 23.6-52.6 52.6 0 29.1 23.6 52.6 52.6 52.6 5.6 0 11-.9 16-2.5v-26.3c-4.4 2.5-9.5 4-14.9 4-16 0-28.9-12.5-28.9-27.8s13-27.8 28.9-27.8c5.5 0 10.6 1.5 14.9 4v-26.3c-5-1.6-10.4-2.5-16-2.5zM26.7 395.7H5.1v-18.3h39.2z"
   style="fill:#025"
   transform="matrix(1.24716 0 0 1.24716 15.818 -85.22)"
   id="path22" />&#10;    <path
   style="fill:red"
   d="M26.7 399.4H5.1v18.3h39.2z"
   transform="matrix(1.24716 0 0 1.24716 15.818 -85.22)"
   id="path21" />&#10;    <path
   d="m 149.7539,402.54428 c 6.2358,0 11.22444,-1.74603 15.21535,-4.98864 3.99091,-3.36734 5.98637,-7.98183 6.11108,-14.09291 -0.12471,-6.11109 -2.12017,-10.85029 -6.11108,-14.21763 -3.99091,-3.36733 -8.97955,-4.98864 -15.21535,-4.98864 -6.2358,0 -11.22444,1.74603 -15.21536,4.98864 -3.99091,3.24262 -5.98636,8.10654 -6.11108,14.21763 0.12472,6.11108 2.12017,10.85029 6.11108,14.09291 3.99092,3.24261 8.97956,4.98864 15.21536,4.98864 z m 0,-8.85484 c -2.86847,-0.12472 -4.98864,-1.12244 -6.36052,-3.1179 -1.37188,-1.99546 -1.99546,-4.36506 -1.87074,-7.23353 0,-2.86847 0.62358,-5.23807 1.87074,-7.23353 1.24716,-1.99545 3.36733,-2.99318 6.36052,-3.1179 2.86846,0.12472 4.98864,1.12245 6.36051,3.1179 1.37188,1.99546 1.99546,4.36506 1.87074,7.23353 0,2.74375 -0.62358,5.23807 -1.87074,7.23353 -1.37187,1.99546 -3.49205,2.99318 -6.36051,3.1179 z m 26.43979,7.98182 h 12.72103 v -15.46478 c 0,-3.8662 0.62358,-6.85938 1.87074,-8.73012 1.24716,-1.87074 2.99318,-2.74375 5.23807,-2.74375 1.74603,0 3.1179,0.74829 3.8662,2.12017 0.74829,1.37188 1.24716,3.1179 1.24716,5.23807 v 19.70513 h 12.72103 V 386.3312 c 0,-3.8662 0.62358,-6.85938 1.87074,-8.73012 1.24716,-1.87074 2.99318,-2.74376 5.23807,-2.74376 1.74603,0 3.1179,0.7483 3.8662,2.12018 0.74829,1.37187 1.24716,3.1179 1.24716,5.23807 v 19.70513 h 12.72103 v -21.57587 c 0.12472,-4.98864 -0.7483,-8.85484 -2.49432,-11.72331 -1.74602,-2.74375 -5.23807,-4.24034 -10.47614,-4.24034 -2.61904,0 -5.11336,0.49886 -7.35825,1.62131 -2.24489,1.12244 -4.11563,2.86847 -5.61222,5.36279 -0.99773,-2.36961 -2.49432,-4.11563 -4.48977,-5.36279 -1.99546,-1.12245 -4.36506,-1.74603 -6.9841,-1.74603 -2.86847,0 -5.61222,0.62358 -7.85711,1.87074 -2.3696,1.24716 -4.11563,3.1179 -5.4875,5.73694 h -0.12472 v -6.73466 H 176.3184 Z m 69.46681,0 h 12.72103 v -15.46478 c 0,-3.8662 0.62358,-6.85938 1.87074,-8.73012 1.24716,-1.87074 2.99319,-2.74375 5.23807,-2.74375 1.74603,0 3.1179,0.74829 3.8662,2.12017 0.7483,1.37188 1.24716,3.1179 1.24716,5.23807 v 19.70513 h 12.72103 V 386.3312 c 0,-3.8662 0.62358,-6.85938 1.87074,-8.73012 1.24716,-1.87074 2.99319,-2.74376 5.23807,-2.74376 1.74603,0 3.1179,0.7483 3.8662,2.12018 0.7483,1.37187 1.24716,3.1179 1.24716,5.23807 v 19.70513 h 12.72103 v -21.57587 c 0.12472,-4.98864 -0.74829,-8.85484 -2.49432,-11.72331 -1.74602,-2.74375 -5.23807,-4.24034 -10.47614,-4.24034 -2.61904,0 -5.11336,0.49886 -7.35825,1.62131 -2.24488,1.12244 -4.11562,2.86847 -5.61222,5.36279 -0.99772,-2.36961 -2.49432,-4.11563 -4.48977,-5.36279 -1.99546,-1.12245 -4.36506,-1.74603 -6.9841,-1.74603 -2.86847,0 -5.61222,0.62358 -7.85711,1.87074 -2.3696,1.24716 -4.11562,3.1179 -5.4875,5.73694 h -0.12472 v -6.73466 h -11.59858 z m 88.92251,0.87302 c 6.2358,0 11.22444,-1.74603 15.21535,-4.98864 3.99091,-3.36734 5.98637,-7.98183 6.11108,-14.09291 -0.12471,-6.11109 -2.12017,-10.85029 -6.11108,-14.21763 -3.99091,-3.36733 -8.97955,-4.98864 -15.21535,-4.98864 -6.2358,0 -11.22444,1.74603 -15.21535,4.98864 -3.99092,3.24262 -5.98637,8.10654 -6.11109,14.21763 0.12472,6.11108 2.12017,10.85029 6.11109,14.09291 3.99091,3.24261 9.10426,4.98864 15.21535,4.98864 z m 0,-8.85484 c -2.86847,-0.12472 -4.98864,-1.12244 -6.36052,-3.1179 -1.37187,-1.99546 -1.99545,-4.36506 -1.87074,-7.23353 0,-2.86847 0.62358,-5.23807 1.87074,-7.23353 1.24716,-1.99545 3.36733,-2.99318 6.36052,-3.1179 2.86847,0.12472 4.98864,1.12245 6.36051,3.1179 1.37188,1.99546 1.99546,4.36506 1.87074,7.23353 0,2.74375 -0.62358,5.23807 -1.87074,7.23353 -1.37187,1.99546 -3.36733,2.99318 -6.36051,3.1179 z m 65.97476,-44.77304 h -12.72103 v 20.82757 h -0.12472 c -1.6213,-2.12017 -3.49204,-3.49205 -5.61222,-4.36506 -2.12017,-0.87301 -4.48977,-1.24716 -6.98409,-1.24716 -5.11336,0.24943 -8.97955,2.12017 -11.59859,5.86165 -2.61904,3.74148 -3.99091,7.98182 -3.99091,12.59632 0,5.61222 1.49659,10.22671 4.24034,13.96819 2.86847,3.74148 6.9841,5.73693 12.4716,5.86165 2.99319,0 5.61222,-0.7483 7.85711,-2.12017 2.24489,-1.37188 3.8662,-3.1179 4.73921,-5.23807 h 0.12471 v 6.60994 h 11.72331 z m -28.18581,34.04746 c 0,-2.49432 0.62358,-4.61449 1.99545,-6.36051 1.37188,-1.74603 3.24262,-2.61904 5.73694,-2.74375 2.3696,0 4.24034,0.99772 5.61222,2.74375 1.37187,1.74602 2.12017,3.99091 2.12017,6.85938 0,2.74375 -0.87301,4.98864 -2.24489,6.73466 -1.37187,1.74603 -3.24261,2.61904 -5.4875,2.61904 -2.36961,0 -4.24035,-0.99773 -5.61222,-2.74375 -1.37188,-1.74603 -2.12017,-4.11563 -2.12017,-7.10882 z m 54.25146,19.58042 c 6.2358,0 11.22444,-1.74603 15.21535,-4.98864 3.99091,-3.36734 5.98637,-7.98183 6.11108,-14.09291 -0.12471,-6.11109 -2.12017,-10.85029 -6.11108,-14.21763 -3.99091,-3.36733 -8.97955,-4.98864 -15.21535,-4.98864 -6.2358,0 -11.22444,1.74603 -15.21536,4.98864 -3.99091,3.36734 -5.98636,8.10654 -6.11108,14.21763 0.12472,6.11108 2.12017,10.85029 6.11108,14.09291 3.99092,3.24261 9.10427,4.98864 15.21536,4.98864 z m 0,-8.85484 c -2.86847,-0.12472 -4.98864,-1.12244 -6.36052,-3.1179 -1.24716,-1.99546 -1.99546,-4.36506 -1.87074,-7.23353 0,-2.86847 0.62358,-5.23807 1.87074,-7.23353 1.24716,-1.99545 3.36733,-2.99318 6.36052,-3.1179 2.86846,0.12472 4.98864,1.12245 6.36051,3.1179 1.24716,1.99546 1.99546,4.36506 1.87074,7.23353 0,2.74375 -0.62358,5.23807 -1.87074,7.23353 -1.24716,1.99546 -3.36733,2.99318 -6.36051,3.1179 z m 53.37844,-29.05883 c -0.62358,-0.12471 -1.37187,-0.24943 -2.12017,-0.24943 -0.74829,-0.12472 -1.49659,-0.12472 -2.24489,-0.12472 -2.74375,0 -4.98864,0.7483 -6.60994,2.12018 -1.74603,1.37187 -3.1179,3.24261 -4.24035,5.4875 h -0.12471 v -6.73466 h -11.59859 v 36.6665 h 12.72103 V 386.3312 c 0,-3.61677 0.7483,-6.48524 2.3696,-8.48069 1.62131,-1.99546 3.8662,-2.99319 6.85938,-2.99319 h 2.12018 c 0.74829,0 1.37187,0.12472 2.12017,0.37415 z m 39.78441,22.44888 v -2.3696 c 0.12471,-5.61222 -1.37188,-10.47615 -4.11563,-14.34234 -2.86847,-3.99091 -7.60768,-5.98637 -14.34234,-6.2358 -5.86165,0 -10.47614,1.74602 -14.09291,4.98864 -3.61676,3.36733 -5.4875,7.98182 -5.4875,14.09291 0.12471,6.11108 2.12017,10.85029 6.11108,14.0929 3.99091,3.36734 8.97955,4.98864 15.21535,5.11336 2.36961,0 4.73921,-0.12472 6.9841,-0.49886 2.24489,-0.37415 4.48978,-0.99773 6.48523,-1.74603 v -8.97955 c -1.87074,0.99773 -3.86619,1.74602 -5.73693,2.12017 -1.87074,0.49887 -3.74148,0.62358 -5.48751,0.62358 -3.1179,0 -5.61222,-0.49886 -7.48296,-1.62131 -1.87074,-1.12244 -2.99318,-2.86846 -3.36733,-5.36278 z m -25.56678,-7.23353 c 0.12471,-2.12017 0.74829,-3.99091 1.87074,-5.36278 1.12244,-1.4966 2.86847,-2.24489 5.11335,-2.24489 2.49432,0 4.36506,0.74829 5.36279,2.24489 1.12245,1.49659 1.62131,3.24261 1.62131,5.36278 z m -392.8554,22.19945 c -5.487506,-1.49659 -9.72785,-3.99091 -13.219898,-7.85711 -3.492048,-3.86619 -5.113356,-7.35824 -6.111084,-13.59404 -1.87074,-12.22217 3.367332,-23.44661 13.469328,-28.31053 5.113354,-2.49432 11.972734,-3.74148 18.832114,-3.74148 4.24035,0 7.98183,0.74829 11.47387,1.37187 l -1.12244,10.97501 c 0,0 -0.87301,-0.24943 -3.36733,-0.87301 -2.36961,-0.62358 -4.73921,-0.87301 -7.10881,-0.87301 -4.73921,0 -9.3537,1.24716 -12.34689,3.61676 -7.10881,5.48751 -7.10881,19.82985 0.24943,25.81621 4.48978,3.74148 12.59632,4.98864 19.82985,3.1179 l 3.36733,-0.87301 0.99773,11.09973 c -2.12017,0.49886 -6.60995,1.37187 -12.09745,1.37187 -7.23353,0 -9.47842,-0.24943 -12.84575,-1.24716 z m -28.43525,6.36052 h 460.20204 v 3.74148 H 72.92884 Z"
   style="fill:#002255;stroke-width:1.24716"
   id="path20" />&#10;    <path
   d="m 107.49889,468.39432 c 0,-0.62358 -0.11811,-1.12244 -0.47246,-1.24716 -0.35436,-0.24943 -0.70871,-0.37414 -1.2993,-0.37414 -1.88987,-0.37415 -2.95294,-1.12245 -3.30729,-2.24489 -0.35435,-1.24716 -0.47247,-2.74375 -0.47247,-4.61449 l -1.88988,-38.41253 c 0,-1.37188 -0.11811,-2.49432 -0.35434,-3.49205 -0.23625,-0.87301 -1.06307,-1.37188 -2.5986,-1.49659 -1.29928,0 -2.24422,0.49886 -2.83481,1.24716 -0.59059,0.74829 -1.18118,1.74602 -1.88988,2.74375 l -23.387255,34.67105 -3.89788,5.86165 c -0.826822,1.24716 -1.653644,2.3696 -2.480467,3.49205 -0.944939,1.12244 -2.126114,1.74602 -3.543524,1.99545 -0.826822,0.12472 -1.535527,0.24944 -2.244231,0.49887 -0.708705,0.24943 -1.063058,0.87301 -1.181175,1.87074 0,0.62358 0.236235,0.99773 0.590587,1.12244 0.354353,0.12472 0.826823,0.24943 1.299292,0.24943 1.299293,0 2.716702,-0.12471 4.134112,-0.24943 1.417409,-0.12471 2.716701,-0.24943 4.134107,-0.24943 1.299296,0 2.480471,0.12472 3.661645,0.24943 1.181175,0.12472 2.480471,0.12472 3.661645,0.24943 0.590588,0 1.063054,-0.12471 1.53552,-0.37414 0.472475,-0.24944 0.708708,-0.7483 0.708708,-1.37188 -0.118121,-0.99773 -0.590587,-1.49659 -1.65364,-1.62131 -1.063063,-0.12471 -2.008005,-0.37415 -3.071058,-0.62358 -1.063054,-0.24943 -1.535529,-0.99773 -1.653641,-2.3696 0.236233,-1.37188 1.063054,-3.36733 2.598582,-5.86165 1.535529,-2.49432 2.598583,-4.36506 3.307291,-5.36279 H 89.42692 c 0.11812,1.62131 0.11812,3.24261 0.23624,4.86392 0.11811,1.62131 0.11811,3.24262 0.11811,4.86393 -0.11811,2.24488 -0.59058,3.61676 -1.65364,3.99091 -1.06306,0.37415 -2.12611,0.62358 -3.07106,0.62358 -1.063049,0 -1.653636,0.74829 -1.653636,1.87074 0,0.49886 0.118112,0.87301 0.472466,1.12244 0.35435,0.24943 0.70871,0.24943 1.18117,0.24943 2.008,0 4.016,-0.12471 6.024,-0.24943 2.00799,-0.12471 4.01599,-0.24943 6.02398,-0.24943 1.2993,0 2.71671,0.12472 4.016,0.12472 1.29929,0.12471 2.71671,0.12471 4.01599,0.12471 0.59059,0 1.18118,-0.12471 1.53553,-0.24943 0.59059,-0.24943 0.82682,-0.62358 0.82682,-1.37188 z M 89.54504,448.81391 H 77.378939 L 88.95445,430.97952 Z m 123.55087,-29.30826 c 0,-0.49886 -0.11812,-0.74829 -0.47247,-0.99773 -0.23624,-0.24943 -0.59059,-0.37414 -1.06306,-0.37414 -0.70871,0 -1.29929,0 -1.88988,0.12471 -0.59059,0 -1.29929,0.12472 -1.88988,0.24943 -1.65365,0.12472 -3.18917,0.24944 -4.84281,0.37415 h -4.96094 c -1.18117,0 -2.36235,-0.12471 -3.66164,-0.12471 -1.18118,-0.12472 -2.36235,-0.12472 -3.66164,-0.12472 -0.59058,0 -1.06306,0.12472 -1.53553,0.49886 -0.47247,0.37415 -0.7087,0.87302 -0.7087,1.4966 0.23623,1.12244 1.06306,1.74602 2.48047,1.6213 1.4174,-0.12471 2.24422,0.62358 2.48046,1.99546 0,0.37415 0,0.7483 -0.11812,1.24716 -0.11812,0.37415 -0.23623,0.7483 -0.35435,1.24716 l -9.21316,33.67332 c -0.35436,1.62131 -0.7087,2.99318 -1.18118,4.11563 -0.47246,1.12244 -1.41741,1.87074 -2.95293,2.24489 -0.7087,0.12471 -1.53553,0.24943 -2.48047,0.49886 -0.94494,0.24943 -1.53552,0.87301 -1.53552,1.74602 0,0.49887 0.23623,0.87302 0.59058,1.12245 0.35436,0.24943 0.82682,0.37415 1.29929,0.37415 1.53553,0 3.18918,-0.12472 4.7247,-0.24944 1.65365,-0.12471 3.18918,-0.24943 4.84282,-0.24943 1.77176,0 3.4254,0.12472 5.19716,0.24943 1.77176,0.12472 3.42541,0.12472 5.19718,0.24944 0.7087,0 1.53553,0 2.48046,-0.12472 0.94494,-0.12472 1.41741,-0.62358 1.53553,-1.62131 -0.11812,-0.99773 -0.59059,-1.49659 -1.41741,-1.62131 -0.82682,-0.12471 -1.77176,-0.24943 -2.59858,-0.49886 -0.82682,-0.24943 -1.2993,-1.12244 -1.41741,-2.61904 0,-0.62358 0.11811,-1.24716 0.23623,-1.87074 0.11811,-0.62358 0.35436,-1.24716 0.47247,-1.87074 l 9.21316,-33.79803 c 0.35436,-1.37188 0.70871,-2.36961 1.18118,-2.99319 0.47246,-0.62358 1.4174,-1.12244 2.7167,-1.37187 0.7087,-0.12472 1.41741,-0.24943 2.24423,-0.62358 0.59059,-0.62358 0.94494,-1.12245 1.06306,-1.99546 z m 47.95569,0.37415 c -0.11812,-0.87301 -0.94495,-1.37188 -2.36235,-1.74602 -1.53553,-0.37415 -3.07105,-0.49887 -4.7247,-0.62358 -1.65364,-0.12472 -2.71671,-0.12472 -3.30729,-0.12472 -6.14211,0 -12.52045,1.37188 -19.13503,3.8662 -6.61457,2.61903 -12.28421,6.36051 -17.00891,11.34915 -4.7247,4.98864 -7.20517,11.09973 -7.32328,18.33325 0.11811,4.6145 1.29928,8.35598 3.77975,11.34916 2.48047,2.99318 5.4334,5.23807 9.21317,6.73466 3.66163,1.4966 7.44139,2.24489 11.45739,2.24489 2.36235,0 4.7247,-0.12471 7.20516,-0.49886 2.36235,-0.24943 4.7247,-0.7483 7.08705,-1.37188 0.82683,-0.12471 1.65365,-0.37415 2.24424,-0.74829 0.59058,-0.24944 1.06305,-0.87302 1.4174,-1.87074 0.59059,-1.87074 1.18118,-3.8662 1.77177,-5.86166 0.59058,-1.99545 1.06305,-3.99091 1.53552,-5.86165 0.82682,-2.74375 1.88988,-4.48977 3.07105,-4.98864 1.18118,-0.49886 2.24424,-0.74829 3.18918,-0.74829 0.94493,0 1.41741,-0.62358 1.41741,-1.87074 0,-0.49887 -0.23623,-0.87302 -0.59059,-1.12245 -0.35435,-0.24943 -0.82682,-0.37415 -1.18117,-0.37415 -1.77176,0 -3.66165,0.12472 -5.43341,0.24944 -1.88987,0.12471 -3.66164,0.24943 -5.55152,0.24943 -1.77176,0 -3.54352,-0.12472 -5.19716,-0.24943 -1.77177,-0.12472 -3.54353,-0.24944 -5.19718,-0.24944 -0.59058,0 -1.18117,0.12472 -1.65364,0.37415 -0.59059,0.24943 -0.82682,0.7483 -0.82682,1.37188 0.11811,0.87301 0.59059,1.37187 1.41741,1.49659 0.94494,0.12472 1.77176,0.24943 2.7167,0.62358 0.94493,0.24943 1.41741,1.12244 1.41741,2.49432 -0.11812,1.49659 -0.47248,3.36733 -1.2993,5.98637 -0.70869,2.49432 -1.4174,4.48977 -1.88987,6.11108 -0.23624,1.12245 -0.70871,1.99546 -1.18117,2.49432 -0.47248,0.49887 -1.2993,0.7483 -2.48047,0.7483 -4.25224,-0.12472 -7.55952,-1.49659 -9.68563,-4.36506 -2.24424,-2.86847 -3.3073,-6.36052 -3.3073,-10.72558 0,-3.99091 0.82682,-7.98182 2.36235,-11.7233 1.53553,-3.74148 3.66165,-7.10881 6.26023,-9.97728 2.59858,-2.74375 5.90587,-5.11336 9.68563,-7.10881 3.89788,-1.99546 7.67764,-2.99319 11.45739,-3.1179 1.77177,0 2.83483,0.37414 3.30729,1.12244 0.35436,0.7483 0.59059,1.99546 0.47247,3.74148 0,0.49886 0,0.87301 -0.11811,1.37188 0,0.49886 -0.11812,0.87301 -0.11812,1.37187 0,0.7483 0.11812,1.49659 0.35435,2.12017 0.23623,0.62358 0.82682,0.99773 1.65364,0.99773 0.94494,-0.12471 1.53553,-0.49886 2.00801,-1.37187 0.47246,-0.87302 0.7087,-1.74603 0.94493,-2.49432 0.23624,-0.62358 0.59059,-1.87074 1.18117,-3.8662 0.47248,-1.99546 0.82683,-3.24262 0.94495,-3.74148 z m 41.81358,48.51452 c 0,-0.62358 -0.11812,-1.12244 -0.47247,-1.24716 -0.35436,-0.24943 -0.7087,-0.37414 -1.29929,-0.37414 -1.88988,-0.37415 -2.95294,-1.12245 -3.30729,-2.24489 -0.35435,-1.24716 -0.47248,-2.74375 -0.47248,-4.61449 l -1.88987,-38.41253 c 0,-1.37188 -0.11812,-2.49432 -0.35435,-3.49205 -0.23624,-0.87301 -1.06306,-1.37188 -2.59859,-1.49659 -1.29929,0 -2.24423,0.49886 -2.83482,1.24716 -0.59059,0.74829 -1.18118,1.74602 -1.88987,2.74375 l -23.38726,34.67105 -3.89788,5.86165 c -0.82682,1.24716 -1.65364,2.3696 -2.48046,3.49205 -0.94494,1.12244 -2.12612,1.74602 -3.54353,1.99545 -0.82683,0.12472 -1.53553,0.24944 -2.24423,0.49887 -0.7087,0.24943 -1.06306,0.87301 -1.18118,1.87074 0,0.62358 0.23623,0.99773 0.59059,1.12244 0.35435,0.12472 0.82682,0.24943 1.29929,0.24943 1.29929,0 2.71671,-0.12471 4.13412,-0.24943 1.4174,-0.12471 2.7167,-0.24943 4.13411,-0.24943 1.29928,0 2.48046,0.12472 3.66163,0.24943 1.2993,0.12472 2.48047,0.12472 3.66165,0.24943 0.59058,0 1.06305,-0.12471 1.53553,-0.37414 0.47246,-0.24944 0.7087,-0.7483 0.7087,-1.37188 -0.11812,-0.99773 -0.59059,-1.49659 -1.65365,-1.62131 -1.06305,-0.12471 -2.00799,-0.37415 -3.07105,-0.62358 -1.06306,-0.24943 -1.53552,-0.99773 -1.65364,-2.3696 0.23623,-1.37188 1.06305,-3.36733 2.59858,-5.86165 1.53553,-2.49432 2.59858,-4.36506 3.30729,-5.36279 h 14.64656 c 0.11812,1.62131 0.11812,3.24261 0.23624,4.86392 0.11812,1.62131 0.11812,3.24262 0.11812,4.86393 -0.11812,2.24488 -0.59059,3.61676 -1.65365,3.99091 -1.06306,0.37415 -2.12611,0.62358 -3.07105,0.62358 -1.06306,0 -1.65364,0.74829 -1.65364,1.87074 0,0.49886 0.11811,0.87301 0.47246,1.12244 0.35436,0.24943 0.70871,0.24943 1.18118,0.24943 2.00799,0 4.016,-0.12471 6.02399,-0.24943 2.008,-0.12471 4.01599,-0.24943 6.02399,-0.24943 1.29929,0 2.7167,0.12472 4.016,0.12472 1.29928,0.12471 2.7167,0.12471 4.01599,0.12471 0.59058,0 1.18117,-0.12471 1.53552,-0.24943 0.47247,-0.24943 0.70871,-0.62358 0.70871,-1.37188 z m -18.07197,-19.58041 h -12.1661 l 11.57551,-17.83439 z M 182.14913,419.75508 c 0,-0.49886 -0.11811,-0.87301 -0.47247,-1.12244 -0.23623,-0.24943 -0.59059,-0.37415 -1.06305,-0.37415 -1.53553,0 -3.07106,0 -4.60659,0.12472 -1.53553,0.12471 -3.07105,0.12471 -4.60658,0.12471 -0.82682,0 -2.00799,-0.12471 -3.66164,-0.12471 -1.65364,0 -2.7167,0.12471 -3.30729,0.62358 -0.11811,0.12471 -0.23623,0.37415 -0.23623,0.49886 -0.11812,0.24943 -0.23624,0.37415 -0.23624,0.49887 l -20.07997,32.05201 -0.82682,-31.55315 c 0,-0.62358 0,-1.12244 -0.11812,-1.49659 -0.11811,-0.49887 -0.47246,-0.62358 -1.06305,-0.7483 -1.65365,0 -3.42541,0 -5.07905,0.12472 h -5.07906 c -0.94494,0 -1.88987,-0.12472 -2.83481,-0.12472 -0.94494,-0.12471 -1.88989,-0.12471 -2.83483,-0.12471 -0.59058,0 -1.18117,0.12471 -1.77176,0.24943 -0.59059,0.24943 -0.82682,0.62358 -0.94493,1.37187 0.23623,1.24716 1.18117,1.87074 2.71669,1.74603 1.65365,0 2.48047,0.62358 2.71671,1.74602 0,0.87301 -0.23624,1.74603 -0.47247,2.61904 -0.35435,0.87301 -0.59059,1.74602 -0.82682,2.49432 -1.77176,5.23807 -3.54352,10.35143 -5.31529,15.5895 -1.77176,5.23807 -3.54352,10.35143 -5.4334,15.5895 -0.70871,2.24489 -1.41741,3.74148 -2.12612,4.61449 -0.7087,0.87301 -2.12612,1.49659 -4.37034,1.87074 -0.59059,0.12472 -1.18118,0.24943 -1.65364,0.62358 -0.47248,0.24943 -0.70871,0.7483 -0.70871,1.49659 0,0.62358 0.23623,0.99773 0.59058,1.24716 0.35436,0.12472 0.82682,0.24943 1.41741,0.24943 1.2993,0 2.59858,0 3.89788,-0.12471 1.2993,-0.12472 2.59858,-0.12472 3.89788,-0.12472 1.18117,0 2.36235,0.12472 3.54352,0.24943 1.18118,0.12472 2.36235,0.12472 3.54353,0.24944 0.59058,0 1.06305,-0.12472 1.53553,-0.37415 0.47246,-0.24943 0.70869,-0.7483 0.82682,-1.37188 -0.11813,-1.12244 -0.59059,-1.62131 -1.65365,-1.74602 -1.06306,-0.12472 -2.12611,-0.24943 -3.18917,-0.49887 -1.06306,-0.24943 -1.65365,-1.24716 -1.65365,-2.99318 0.11812,-2.3696 0.94495,-5.98637 2.48047,-10.85029 1.53552,-4.73921 3.07105,-9.47842 4.84282,-13.96819 1.65364,-4.48978 2.83481,-7.48296 3.4254,-9.10427 l 0.82683,36.6665 c 0,1.12245 0.11811,1.99546 0.35434,2.74375 0.23625,0.62358 0.94494,0.99773 2.12612,0.99773 1.18117,0 2.12612,-0.49886 2.83482,-1.37187 0.7087,-0.87302 1.29929,-1.74603 1.88988,-2.74376 l 23.38726,-36.29235 -7.67764,30.68013 c -0.23623,1.37188 -0.59058,2.61904 -1.06305,3.99092 -0.47248,1.37187 -1.41742,2.12017 -2.7167,2.49432 -0.82682,0 -1.65365,0.24943 -2.59859,0.37414 -0.94494,0.24944 -1.53553,0.87302 -1.65365,1.87074 0,0.62358 0.23624,0.99773 0.59059,1.24716 0.35435,0.24944 0.82682,0.37415 1.2993,0.37415 1.65364,0 3.4254,-0.12471 5.07905,-0.24943 1.65364,-0.12472 3.4254,-0.24943 5.07904,-0.24943 1.77176,0 3.54353,0.12471 5.19718,0.24943 1.77176,0.12472 3.54352,0.24943 5.19716,0.24943 0.70871,0 1.18118,-0.12471 1.77176,-0.37415 0.47248,-0.24943 0.82682,-0.74829 0.82682,-1.49659 -0.11811,-0.87301 -0.47246,-1.49659 -1.29928,-1.62131 -0.82682,-0.12471 -1.65365,-0.37414 -2.48047,-0.62358 -0.82682,-0.24943 -1.29929,-0.99772 -1.29929,-2.3696 0,-0.87301 0.11811,-1.87074 0.35434,-2.86847 0.23625,-0.99773 0.35436,-1.87074 0.59059,-2.74375 l 7.4414,-31.55315 c 0.23624,-1.37187 0.59059,-2.49432 1.06307,-3.24261 0.47246,-0.7483 1.29928,-1.24716 2.71669,-1.4966 0.70871,0 1.41742,-0.24943 2.12612,-0.49886 0.35435,0.12472 0.82682,-0.37415 0.82682,-1.37188 z"
   style="fill:#ff0000;stroke-width:1.21372"
   id="path19" />&#10;    &#10;    &#10;    &#10;    &#10;    &#10;    &#10;    &#10;    &#10;    &#10;    &#10;    &#10;    &#10;    &#10;<text
   xml:space="preserve"
   style="fill:#002255;fill-opacity:1"
   x="363.95319"
   y="442.23965"
   id="text17"><tspan
     sodipodi:role="line"
     id="tspan17"
     x="363.95319"
     y="442.23965" /></text><path
   d="m 325.64505,453.48752 v -50.50691 h 17.89226 q 26.90884,0 26.90884,24.61948 0,11.79903 -7.36118,18.84323 -7.32597,7.0442 -19.54766,7.0442 z m 11.37638,-41.24379 v 32.01589 h 5.63536 q 7.39641,0 11.58771,-4.43785 4.22652,-4.43784 4.22652,-12.0808 0,-7.2203 -4.1913,-11.34116 -4.15608,-4.15608 -11.69337,-4.15608 z m 73.11879,26.38053 h -23.52763 q 0.56354,7.85428 9.8971,7.85428 5.95235,0 10.46064,-2.81768 v 8.03039 q -5.00138,2.67679 -12.99655,2.67679 -8.73481,0 -13.56008,-4.82527 -4.82528,-4.8605 -4.82528,-13.52487 0,-8.98135 5.21271,-14.22928 5.21271,-5.24793 12.82044,-5.24793 7.8895,0 12.18647,4.6844 4.33218,4.68439 4.33218,12.71478 z m -10.31975,-6.83287 q 0,-7.74862 -6.26934,-7.74862 -2.6768,0 -4.64917,2.21892 -1.93716,2.21892 -2.35981,5.5297 z m 74.21064,21.69613 h -11.09462 v -20.56906 q 0,-7.85429 -5.77624,-7.85429 -2.74724,0 -4.47306,2.35981 -1.72583,2.35981 -1.72583,5.88191 v 20.18163 h -11.12984 v -20.78039 q 0,-7.64296 -5.67058,-7.64296 -2.8529,0 -4.57873,2.25415 -1.69061,2.25414 -1.69061,6.12845 v 20.04075 h -11.12983 v -36.0663 h 11.12983 v 5.63536 h 0.14089 q 1.72583,-2.88812 4.82527,-4.68439 3.13467,-1.8315 6.83288,-1.8315 7.64295,0 10.46063,6.72721 4.12086,-6.72721 12.11603,-6.72721 11.76381,0 11.76381,14.51105 z m 25.99309,0.88052 q -9.01657,0 -14.19406,-5.0366 -5.14227,-5.07182 -5.14227,-13.73619 0,-8.94613 5.3536,-13.98273 5.35359,-5.07183 14.47582,-5.07183 8.98136,0 14.0884,5.07183 5.10705,5.0366 5.10705,13.34875 0,8.98136 -5.28315,14.19407 -5.24793,5.2127 -14.40539,5.2127 z m 0.28177,-29.30387 q -3.94475,0 -6.12845,2.71202 -2.18371,2.71202 -2.18371,7.67818 0,10.39019 8.3826,10.39019 7.99517,0 7.99517,-10.67196 0,-10.10843 -8.06561,-10.10843 z m 24.26726,27.47238 v -9.01657 q 2.74724,1.65538 5.45925,2.46547 2.74724,0.81008 5.17749,0.81008 2.95856,0 4.64917,-0.81008 1.72583,-0.81009 1.72583,-2.46547 0,-1.05663 -0.77486,-1.76105 -0.77487,-0.70442 -2.0076,-1.23274 -1.19751,-0.52831 -2.64157,-0.95096 -1.44407,-0.42266 -2.78246,-0.95097 -2.14848,-0.81008 -3.80387,-1.72583 -1.62017,-0.95097 -2.74724,-2.1837 -1.09185,-1.23274 -1.69061,-2.8529 -0.56353,-1.62017 -0.56353,-3.83909 0,-3.02901 1.30317,-5.21271 1.3384,-2.1837 3.5221,-3.55732 2.21893,-1.40884 5.03661,-2.04282 2.8529,-0.6692 5.91712,-0.6692 2.39503,0 4.8605,0.38743 2.46547,0.35221 4.8605,1.05663 v 8.59393 q -2.11326,-1.23274 -4.54351,-1.83149 -2.39503,-0.63398 -4.71961,-0.63398 -1.09185,0 -2.07804,0.21132 -0.95097,0.17611 -1.69061,0.56354 -0.73964,0.35221 -1.16229,0.95097 -0.42265,0.56353 -0.42265,1.30317 0,0.98619 0.63397,1.69061 0.63398,0.70442 1.65539,1.23274 1.02141,0.49309 2.25414,0.91574 1.26796,0.38743 2.50069,0.81009 2.21893,0.77486 4.0152,1.6906 1.79627,0.91575 3.06422,2.14848 1.30318,1.23274 1.97238,2.88813 0.70442,1.65538 0.70442,3.94475 0,3.20511 -1.40884,5.49447 -1.37362,2.25415 -3.6982,3.69821 -2.28937,1.40884 -5.31837,2.04281 -2.99379,0.6692 -6.23412,0.6692 -5.95235,0 -11.02417,-1.83149 z"
   id="path18"
   style="font-weight:bold;font-size:72.1326px;font-family:'Nirmala UI';-inkscape-font-specification:'Nirmala UI, Bold';fill:#002255;stroke-width:0.966061"
   transform="scale(0.96606093,1.0351314)"
   aria-label="Demos" /><path
   style="fill:#3771c8;fill-opacity:1;stroke-width:0.306905"
   d="M 61.687959,130.85525 C 38.917255,129.70788 17.896092,115.92416 7.3398829,95.218833 2.5070235,85.739487 0.28704736,76.43411 0.29425826,65.685996 0.29957186,57.765845 1.151849,52.327659 3.5189316,45.110081 13.725261,13.989518 45.809024,-4.8512191 77.994407,1.3754108 c 1.625837,0.3145368 3.939135,0.8646554 5.140663,1.2224858 l 2.184595,0.6506005 V 19.348028 c 0,8.854742 -0.05391,16.099531 -0.119785,16.099531 -0.06588,0 -1.067162,-0.467279 -2.225063,-1.038399 -4.595922,-2.26687 -10.447915,-3.561804 -16.105993,-3.563947 -9.79145,-0.0037 -19.086574,3.802907 -25.883816,10.600152 -13.281152,13.281151 -13.597525,33.971821 -0.72755,47.581461 5.33754,5.644301 12.641713,9.525655 20.509786,10.89866 2.919464,0.509464 9.281263,0.505634 12.27621,-0.0074 3.065622,-0.525121 7.651462,-2.000835 10.204601,-3.283816 l 2.07161,-1.041007 V 111.8631 c 0,8.94841 -0.05432,16.26984 -0.120712,16.26984 -0.06639,0 -1.708259,0.40094 -3.648594,0.89098 -6.297408,1.59043 -12.780401,2.18816 -19.8624,1.83132 z"
   id="path2"
   transform="translate(-64,344.8)" /><path
   style="fill:#3771c8;fill-opacity:1;stroke-width:0.306905"
   d="M 86.240381,52.020443 V 40.664948 h 24.281649 24.28165 l -5.94406,6.181585 c -3.26923,3.399872 -8.15378,8.497906 -10.85454,11.328965 l -4.91049,5.147379 -13.427103,0.02653 -13.427106,0.02653 z"
   id="path3"
   transform="translate(-64,344.8)" /><path
   style="fill:#3771c8;fill-opacity:1;stroke-width:0.306905"
   d="m 172.0204,58.17743 c -5.03412,-0.351097 -9.81707,-1.797305 -14.11764,-4.268703 -1.0286,-0.591103 -3.14102,-2.36197 -4.78559,-4.011813 -2.50019,-2.508217 -3.16044,-3.392258 -4.37848,-5.862603 -2.06232,-4.182662 -2.76717,-7.562708 -2.75063,-13.190331 0.0105,-3.563377 0.14491,-4.939368 0.67466,-6.905369 3.52933,-13.098134 14.11647,-19.8600081 31.18888,-19.9199493 4.32785,-0.015195 11.30594,0.7754131 11.64191,1.3190115 0.0677,0.1094885 -0.11233,2.4750409 -0.4,5.2567828 -0.4838,4.678499 -0.56819,5.053939 -1.12543,5.007386 -0.33133,-0.02768 -1.98349,-0.351857 -3.67147,-0.720396 -4.34403,-0.948439 -9.95112,-0.765923 -13.50383,0.439562 -5.51866,1.872563 -8.30128,4.810202 -9.68642,10.226059 -1.63269,6.383757 0.0295,13.506257 4.10249,17.579249 4.2117,4.211704 12.94284,5.834359 20.87626,3.879786 2.09378,-0.515849 3.0498,-0.637052 3.12627,-0.39634 0.30836,0.970618 0.81843,10.080116 0.57733,10.310746 -0.94969,0.908434 -11.78002,1.674567 -17.76831,1.256922 z"
   id="path4"
   transform="translate(-64,344.8)" /><path
   style="fill:#3771c8;fill-opacity:1;stroke-width:0.306905"
   d="m 209.25748,57.251189 c -8.4462,-1.545903 -14.44181,-6.642571 -16.06925,-13.659929 -0.26379,-1.13745 -0.47962,-3.351989 -0.47962,-4.921196 0,-7.799206 3.26734,-13.267356 9.84887,-16.48283 3.73577,-1.825149 6.54768,-2.451738 11.04859,-2.461996 5.79391,-0.0132 9.52025,0.991227 13.57191,3.658299 2.45833,1.618238 4.15021,3.510668 5.60338,6.267588 1.61653,3.066853 2.09402,5.55111 1.91046,9.939655 -0.23352,5.582823 -1.44332,8.51678 -4.9406,11.981821 -3.95803,3.921531 -8.38367,5.632221 -15.07098,5.825532 -2.19438,0.06343 -4.63462,-0.0027 -5.42276,-0.146944 z m 8.73778,-9.32203 c 2.80663,-1.644793 4.005,-4.498841 4.01662,-9.566 0.006,-2.793386 -0.1115,-3.676609 -0.68327,-5.118205 -1.41811,-3.575456 -4.49528,-5.429694 -8.42016,-5.073799 -5.04619,0.457573 -7.43428,3.930445 -7.43501,10.812334 -3.4e-4,3.208907 0.0518,3.48837 1.01556,5.446047 1.65854,3.368851 3.82567,4.603963 7.76672,4.42647 1.85799,-0.08368 2.62529,-0.273854 3.73954,-0.926847 z"
   id="path5"
   transform="translate(-64,344.8)" /><path
   style="fill:#3771c8;fill-opacity:1;stroke-width:0.306905"
   d="m 265.10339,45.498706 c -0.0873,-11.001977 -0.11589,-11.486776 -0.76035,-12.881835 -0.90187,-1.952298 -2.15444,-2.692482 -4.54773,-2.687411 -2.46114,0.0052 -3.9846,0.870943 -5.2494,2.98305 -1.46598,2.448063 -1.65597,4.100413 -1.65597,14.402088 v 9.309424 h -6.29156 -6.29155 V 40.403063 c 0,-8.921527 0.0887,-17.069862 0.19717,-18.107411 l 0.19717,-1.886452 h 5.48058 5.48057 v 3.375958 c 0,3.36928 0.24157,4.05179 0.95049,2.685422 0.68257,-1.315591 2.47039,-3.300648 3.79102,-4.209265 6.68325,-4.598199 16.72279,-2.92621 19.74625,3.288549 0.26689,0.548593 0.5694,0.997442 0.67225,0.997442 0.10285,0 0.71127,-0.687466 1.35204,-1.527702 1.35313,-1.774336 4.0913,-3.703026 6.39964,-4.507715 2.44815,-0.853431 8.95873,-0.771466 11.28267,0.142043 2.40722,0.946245 3.82804,2.242904 4.87732,4.451105 1.70611,3.590487 1.8746,5.318892 1.8746,19.229836 v 12.596055 h -6.13811 -6.1381 v -9.872556 c 0,-5.62466 -0.14112,-10.682874 -0.32796,-11.755823 -0.63652,-3.655177 -2.30991,-5.385158 -5.19634,-5.372068 -2.85939,0.01297 -4.90425,1.608854 -6.17827,4.821754 -0.67162,1.693752 -0.70656,2.206285 -0.81623,11.974092 l -0.11456,10.204601 h -6.25247 -6.25247 z"
   id="path6"
   transform="translate(-64,344.8)" /><path
   style="fill:#3771c8;fill-opacity:1;stroke-width:0.306905"
   d="m 334.76209,45.805612 c -0.12616,-12.451078 -0.23492,-13.168561 -2.26662,-14.952411 -0.92733,-0.814205 -1.2882,-0.929937 -2.89975,-0.929937 -2.35184,0 -3.58367,0.526158 -4.93908,2.109648 -2.06103,2.407854 -2.20021,3.274173 -2.33588,14.539963 l -0.12105,10.051147 h -6.31052 -6.31053 l 0.19565,-2.07161 c 0.10761,-1.139386 0.19663,-9.287721 0.19783,-18.107411 l 0.002,-16.035801 h 5.6677 5.6677 l 0.0868,3.414887 0.0868,3.414886 1.19405,-1.735294 c 2.33925,-3.399609 5.40458,-5.065751 10.78783,-5.86365 1.73877,-0.257718 5.18888,0.352917 7.27161,1.287002 1.83507,0.823009 4.06931,2.915214 4.96708,4.651312 0.47527,0.919083 1.09912,1.304785 1.09912,0.679551 0,-0.159176 0.77454,-1.126008 1.7212,-2.148515 2.95733,-3.194269 6.69532,-4.517147 11.9841,-4.241183 5.14313,0.268364 8.0369,1.834954 9.7132,5.258393 1.63674,3.342672 1.73826,4.430784 1.74319,18.684138 l 0.005,13.120201 h -6.1208 -6.12079 l -0.094,-11.278769 -0.094,-11.278769 -0.76726,-1.534083 c -1.00597,-2.011361 -2.37061,-2.916043 -4.39861,-2.916043 -3.13616,0 -5.25157,1.739509 -6.42671,5.284716 -0.58107,1.752989 -0.6505,2.823937 -0.76667,11.825253 l -0.12773,9.897695 h -6.08886 -6.08886 z"
   id="path7"
   transform="translate(-64,344.8)" /><path
   style="fill:#3771c8;fill-opacity:1;stroke-width:0.306905"
   d="m 392.7406,56.95173 c -4.00782,-0.8753 -7.53571,-2.735683 -10.21155,-5.384917 -3.46057,-3.426158 -5.02491,-7.441147 -5.02491,-12.896749 0,-10.578469 6.89485,-17.697184 18.28457,-18.878237 9.6808,-1.003848 18.52509,3.0057 21.89782,9.927345 2.60702,5.350209 2.66272,12.467565 0.13703,17.507339 -2.30466,4.598734 -6.78328,8.009738 -12.55515,9.562249 -2.95759,0.795529 -9.25627,0.877467 -12.52781,0.16297 z m 9.80378,-8.856753 c 2.69279,-1.385381 4.08901,-4.279049 4.33508,-8.984459 0.33556,-6.416399 -2.36312,-10.416132 -7.37706,-10.933617 -5.16835,-0.53342 -8.34518,2.384474 -9.14606,8.400594 -0.76291,5.730863 1.14847,10.246239 5.01136,11.838675 1.79684,0.74073 5.42853,0.578194 7.17668,-0.321193 z"
   id="path8"
   transform="translate(-64,344.8)" /><path
   style="fill:#3771c8;fill-opacity:1;stroke-width:0.306905"
   d="m 437.44641,57.227174 c -7.1392,-1.275903 -11.99249,-6.726915 -13.43673,-15.091591 -0.36339,-2.104627 -0.20961,-7.203779 0.28159,-9.337178 0.65605,-2.849403 2.60593,-6.695933 4.43402,-8.74701 5.18144,-5.813445 15.50474,-6.075423 21.35557,-0.541949 0.87425,0.826833 1.67979,1.503334 1.79008,1.503334 0.11029,0 0.20052,-4.695651 0.20052,-10.43478 V 4.1432212 h 6.13811 6.1381 l 5.4e-4,16.8030638 c 3e-4,9.241685 0.0916,21.049865 0.20298,26.2404 l 0.20244,9.437337 h -5.87034 -5.87034 l -0.0871,-3.274096 -0.0871,-3.274096 -0.9748,1.570081 c -1.22671,1.975826 -4.08063,4.108649 -6.62069,4.947847 -2.28373,0.754509 -5.6081,1.024582 -7.79683,0.633416 z m 10.68721,-10.283766 c 5.46056,-3.826965 4.95439,-14.580923 -0.81393,-17.292351 -2.80815,-1.319985 -6.25189,-0.706911 -8.47768,1.509246 -1.87963,1.871497 -2.56816,3.875717 -2.52719,7.356308 0.0503,4.270066 1.65142,7.450381 4.47096,8.880593 1.07518,0.545383 1.73502,0.648261 3.66498,0.571427 2.04189,-0.08129 2.5298,-0.217114 3.68286,-1.025223 z"
   id="path9"
   transform="translate(-64,344.8)" /><path
   style="fill:#3771c8;fill-opacity:1;stroke-width:0.306905"
   d="m 486.59831,57.345784 c -6.44321,-1.033424 -12.44562,-4.784988 -14.83827,-9.274058 -2.92633,-5.490366 -2.91698,-13.313163 0.0226,-18.854639 3.47985,-6.560064 12.19089,-10.329743 21.76266,-9.417735 11.18657,1.065865 18.13264,8.294674 18.13264,18.870712 0,5.524646 -1.71578,9.788064 -5.29976,13.169014 -2.28902,2.159336 -5.86117,4.119074 -9.03814,4.958462 -1.82503,0.482195 -8.9016,0.843373 -10.74168,0.548244 z m 8.06037,-9.2726 c 2.84392,-1.462737 4.21519,-4.634849 4.19754,-9.710025 -0.014,-4.030672 -0.73223,-6.274822 -2.60872,-8.151311 -2.51808,-2.518078 -7.60791,-2.813886 -10.68737,-0.621122 -1.34571,0.958234 -2.78541,4.098947 -3.18531,6.948764 -0.77413,5.516807 1.36104,10.558991 5.04446,11.91241 1.89158,0.695035 5.5209,0.505174 7.2394,-0.378716 z"
   id="path10"
   transform="translate(-64,344.8)" /><path
   style="fill:#3771c8;fill-opacity:1;stroke-width:0.306905"
   d="M 517.13538,38.670064 V 20.4092 h 5.67775 5.67775 v 3.375958 c 0,1.856777 0.10358,3.373218 0.23017,3.369868 0.1266,-0.0033 0.64451,-0.708605 1.1509,-1.567235 0.50639,-0.858629 1.70841,-2.292784 2.67116,-3.187011 2.3513,-2.183976 4.06028,-2.760317 8.01729,-2.703791 1.6587,0.0237 3.07769,0.10496 3.15332,0.18059 0.0756,0.07563 -0.024,2.401375 -0.22135,5.168323 l -0.35886,5.030814 -2.69104,-0.106266 c -3.90718,-0.15429 -5.82484,0.465241 -7.83717,2.531924 -2.61625,2.686924 -2.68827,3.058644 -2.81552,14.530859 L 529.68,56.930928 h -6.27231 -6.27231 z"
   id="path11"
   transform="translate(-64,344.8)" /><path
   style="fill:#3771c8;fill-opacity:1;stroke-width:0.306905"
   d="m 563.55757,57.226754 c -2.71103,-0.340097 -6.41471,-1.549715 -8.64217,-2.822522 -2.74602,-1.569115 -5.71367,-4.605616 -6.94303,-7.104111 -2.63267,-5.350484 -2.64858,-13.05706 -0.0376,-18.209585 1.98306,-3.913365 5.79977,-7.053814 10.41354,-8.56841 2.19759,-0.721421 3.033,-0.829756 6.51084,-0.84432 8.42129,-0.03527 13.29332,2.670493 16.40607,9.111369 1.53202,3.17005 2.10147,5.583001 2.36179,10.007555 l 0.20607,3.502625 -12.80738,-0.188796 -12.80737,-0.188796 0.21208,0.982846 c 0.91196,4.226159 4.56413,6.353687 10.90691,6.353687 3.45566,0 6.71874,-0.714458 10.48346,-2.295376 0.49659,-0.208533 0.53709,0.09665 0.53709,4.047925 v 4.273462 l -1.61126,0.506148 c -4.39219,1.379742 -10.80557,1.986199 -15.18904,1.436299 z m 8.71063,-23.543901 c -0.10646,-0.80179 -0.57446,-2.209386 -1.03999,-3.127992 -0.67284,-1.327648 -1.14404,-1.823344 -2.2975,-2.41694 -1.65862,-0.853552 -4.53188,-1.031802 -6.42983,-0.39889 -2.04798,0.682945 -3.8439,3.318626 -4.36372,6.40418 l -0.16803,0.997442 h 7.24631 7.24632 z"
   id="path12"
   transform="translate(-64,344.8)" /><path
   style="fill:#3771c8;fill-opacity:1;stroke-width:0.306905"
   d="m 252.04595,63.452666 c 63.25702,-0.04265 166.76849,-0.04265 230.0255,0 63.25702,0.04265 11.50128,0.07754 -115.01275,0.07754 -126.51402,0 -178.26976,-0.03489 -115.01275,-0.07754 z"
   id="path13"
   transform="translate(-64,344.8)" /><path
   style="fill:#3771c8;fill-opacity:1;stroke-width:0.306905"
   d="M 137.18666,65.370823 V 63.682844 H 367.0587 596.93075 v 1.687979 1.687979 H 367.0587 137.18666 Z"
   id="path14"
   transform="translate(-64,344.8)" /><path
   style="fill:#3771c8;fill-opacity:1;stroke-width:0.306905"
   d="M 378.7211,98.540105 V 72.583096 h 10.70149 c 11.54758,0 13.81702,0.209018 18.08916,1.666022 3.32481,1.133921 5.47915,2.479074 7.93815,4.956524 2.60234,2.621853 4.29333,5.801513 5.37339,10.103792 0.60009,2.390427 0.69103,3.52624 0.67569,8.439895 -0.0151,4.834371 -0.11681,6.042451 -0.68481,8.132991 -2.45327,9.02935 -8.63296,15.32207 -17.38719,17.70521 -2.26264,0.61595 -3.32799,0.67785 -13.58056,0.78898 l -11.12532,0.1206 z m 20.09694,16.238235 c 3.03324,-0.64251 5.02173,-1.71698 6.98314,-3.77332 3.19572,-3.35038 4.52209,-7.10337 4.52209,-12.795333 0,-3.979274 -0.54359,-6.589276 -1.90394,-9.141548 -2.74213,-5.14477 -7.14321,-7.277884 -15.01587,-7.277884 h -3.94067 v 16.726337 16.726338 l 3.60614,-0.005 c 1.99018,-0.003 4.56643,-0.20874 5.74911,-0.45926 z"
   id="path15"
   transform="translate(-64,344.8)" /><path
   style="fill:#3771c8;fill-opacity:1;stroke-width:0.306905"
   d="m 439.95143,124.9081 c -7.31204,-1.52203 -11.77731,-6.92169 -12.78422,-15.4594 -0.58305,-4.94378 0.41296,-10.627062 2.50754,-14.308066 2.0116,-3.535176 5.49678,-6.435863 9.28596,-7.728641 2.71269,-0.925506 7.27338,-1.040912 10.19515,-0.257984 3.77576,1.011765 6.94674,3.669858 8.75162,7.336091 1.49062,3.02786 1.86881,4.856573 2.05452,9.93442 l 0.17117,4.6803 h -11.43581 -11.4358 l 0.20649,1.29131 c 0.46882,2.93186 2.00395,5.05233 4.47554,6.18206 1.03199,0.47171 2.2009,0.66235 4.6245,0.75421 3.99334,0.15137 6.28395,-0.37314 10.18368,-2.33191 0.1266,-0.0636 0.23018,1.61943 0.23018,3.74004 v 3.85565 l -1.25246,0.63896 c -3.4962,1.78362 -11.28096,2.60905 -15.77806,1.67296 z m 10.39509,-24.01299 c -0.42707,-3.484585 -1.34055,-5.282489 -3.18075,-6.260375 -1.33757,-0.710786 -3.98559,-0.746962 -5.40411,-0.07383 -2.02192,0.959466 -3.85016,3.727479 -4.29361,6.500695 l -0.20649,1.29131 h 6.63182 6.63181 z"
   id="path16"
   transform="translate(-64,344.8)" /><path
   style="fill:#3771c8;fill-opacity:1;stroke-width:0.306905"
   d="M 466.80292,105.88232 V 87.314549 h 5.21739 5.21739 v 2.9156 c 0,1.603581 0.11477,2.915601 0.25504,2.915601 0.14027,0 0.44765,-0.359893 0.68306,-0.799761 0.23541,-0.439869 1.15648,-1.465533 2.04682,-2.279254 5.9419,-5.430558 14.50988,-4.472992 17.79783,1.989103 l 0.77276,1.518784 0.64933,-0.904973 c 3.33415,-4.64681 7.99657,-6.76371 13.09447,-5.94534 4.84441,0.777678 7.57018,3.669627 8.716,9.247376 0.39864,1.940584 0.48595,4.711255 0.48595,15.421985 v 13.05642 h -5.20445 -5.20445 l -0.0897,-12.50639 c -0.0887,-12.374496 -0.0972,-12.521645 -0.80198,-13.952619 -1.85815,-3.772636 -6.96679,-3.965119 -9.26013,-0.348903 -0.5117,0.806869 -1.06598,1.955179 -1.23173,2.551802 -0.17257,0.6212 -0.30209,6.03572 -0.30307,12.67043 l -0.002,11.58568 h -5.18544 -5.18544 l -0.14978,-12.04603 c -0.10057,-8.08843 -0.27161,-12.462872 -0.5206,-13.314785 -0.54487,-1.864244 -1.94577,-3.408106 -3.46331,-3.816735 -2.8855,-0.776985 -5.48017,0.470963 -6.87184,3.305128 l -0.87422,1.780352 -0.0931,12.04604 -0.0931,12.04603 h -5.20099 -5.20099 z"
   id="path17"
   transform="translate(-64,344.8)" /><path
   style="fill:#3771c8;fill-opacity:1;stroke-width:0.306905"
   d="m 542.99133,125.05149 c -6.97531,-1.25343 -11.94458,-5.89407 -13.78956,-12.87761 -0.73539,-2.78357 -0.72274,-9.52763 0.023,-12.276214 1.80474,-6.651552 6.47224,-11.247868 12.95419,-12.756637 2.52608,-0.587983 7.54841,-0.658458 10.10553,-0.141804 6.26631,1.266079 11.21277,6.078168 12.94314,12.591535 0.72366,2.72398 0.71769,9.16622 -0.0112,12.10293 -0.87203,3.51334 -2.21627,5.89176 -4.79513,8.48421 -2.41837,2.43112 -4.40966,3.62702 -7.41822,4.45511 -2.04715,0.56347 -7.85411,0.80619 -10.01177,0.41848 z m 7.77189,-8.85495 c 2.83042,-1.28555 4.1197,-4.11773 4.34959,-9.55487 0.24372,-5.76385 -0.88969,-8.914404 -3.82735,-10.638973 -1.27693,-0.749633 -1.78246,-0.859987 -3.94398,-0.860954 -2.22604,-9.96e-4 -2.63361,0.09407 -3.98977,0.930628 -1.76378,1.088004 -3.2968,3.396985 -3.7937,5.713949 -0.4727,2.20414 -0.39865,6.90851 0.14139,8.98186 1.04547,4.01383 3.59419,6.01512 7.64446,6.00254 1.44348,-0.004 2.58832,-0.19673 3.41936,-0.57418 z"
   id="path23"
   transform="translate(-64,344.8)" /><path
   style="fill:#3771c8;fill-opacity:1;stroke-width:0.306905"
   d="m 576.16602,124.91675 c -1.20832,-0.21927 -2.90014,-0.63222 -3.75959,-0.91768 l -1.56263,-0.51903 v -4.42932 -4.42932 l 2.14851,1.08197 c 2.84029,1.43035 5.12802,1.9948 8.08497,1.9948 3.02047,0 4.62258,-0.462 5.59032,-1.6121 0.95858,-1.1392 0.95312,-2.395 -0.0154,-3.54603 -0.73225,-0.87023 -2.03004,-1.50534 -6.75468,-3.30561 -4.16786,-1.5881 -6.68364,-3.45481 -7.94598,-5.89591 -0.88689,-1.71506 -1.25162,-4.770255 -0.83767,-7.016827 0.46648,-2.531696 0.94775,-3.477449 2.75011,-5.404323 3.84482,-4.110417 11.48558,-5.43803 19.5863,-3.403194 l 1.94595,0.488807 v 4.2656 4.2656 l -1.25245,-0.638957 c -2.95961,-1.509881 -7.67872,-2.200222 -10.21897,-1.494895 -2.2604,0.627626 -3.32881,2.727735 -2.33367,4.587166 0.42779,0.799328 2.45785,1.938553 5.21175,2.924723 5.22572,1.87132 7.9114,3.68105 9.36948,6.31356 0.8565,1.54638 0.91176,1.85122 0.91047,5.02226 -10e-4,2.96621 -0.0931,3.56221 -0.75747,4.91049 -1.04626,2.12347 -3.20797,4.18866 -5.55149,5.30362 -3.70427,1.76235 -9.64943,2.35435 -14.60785,1.4546 z"
   id="path24"
   transform="translate(-64,344.8)" /></svg>
