<?xml version="1.0" encoding="UTF-8" standalone="no"?>
<svg
   viewBox="0 0 787.828 89.12"
   version="1.1"
   id="svg3"
   sodipodi:docname="amigacd32.svg"
   inkscape:version="1.3 (0e150ed6c4, 2023-07-21)"
   xmlns:inkscape="http://www.inkscape.org/namespaces/inkscape"
   xmlns:sodipodi="http://sodipodi.sourceforge.net/DTD/sodipodi-0.dtd"
   xmlns="http://www.w3.org/2000/svg"
   xmlns:svg="http://www.w3.org/2000/svg">
  <defs
     id="defs3" />
  <sodipodi:namedview
     id="namedview3"
     pagecolor="#ffffff"
     bordercolor="#111111"
     borderopacity="1"
     inkscape:showpageshadow="0"
     inkscape:pageopacity="0"
     inkscape:pagecheckerboard="1"
     inkscape:deskcolor="#d1d1d1"
     inkscape:zoom="3.5159959"
     inkscape:cx="393.914"
     inkscape:cy="44.653067"
     inkscape:window-width="3440"
     inkscape:window-height="1377"
     inkscape:window-x="-8"
     inkscape:window-y="760"
     inkscape:window-maximized="1"
     inkscape:current-layer="svg3" />
  <path
     d="M63.724 63.655H35.06l-5.595 5.708-6.302 6.21c-1.211 1.362-2.088 2.591-2.624 3.691-.42.844-.602 1.688-.563 2.532.045.883.667 1.7 1.87 2.454 1.206.753 3.16 1.185 5.863 1.296l.092 1.891H0l.595-1.89c2.448-.328 4.607-1.029 6.479-2.089 2.487-1.472 6.014-4.495 10.579-9.08l62.864-62.27h3.089l-.007 60.268c.019 3.15.046 5.053.078 5.713.13 2.507.838 4.326 2.134 5.465 1.302 1.145 3.397 1.806 6.302 1.99l-.59 1.89h-40.24l.663-1.89c3.972-.296 6.25-.55 6.832-.766 1.262-.512 2.375-1.586 3.35-3.208.969-1.629 1.474-4.449 1.5-8.477l.09-9.44.006.002zm-.222-4.443.62-24.04-24.55 24.04h23.93m87.084-45.396 9.465 50.71 41.664-50.71h32.684l-.733 1.891c-4.476 0-7.847.76-10.102 2.285-2.25 1.525-4.09 4.535-5.51 9.038l-14.751 47.226c-.948 3.01-1.39 5.25-1.308 6.714.065 1.354.805 2.447 2.219 3.272 1.414.825 4.135 1.275 8.159 1.348l-.524 1.891h-46.38l.727-1.89c4.986 0 8.628-.76 10.93-2.286 2.298-1.524 4.163-4.542 5.583-9.046l14.935-47.829-50.057 61.055h-2.88L133.18 25.232 117.869 74.26c-.628 2.015-.91 3.704-.845 5.065.092 1.832.956 3.304 2.585 4.424 1.637 1.118 4.352 1.736 8.154 1.846l-.59 1.891H96.449l.525-1.89c3.697-.11 6.497-.734 8.41-1.873 3.37-2.054 5.725-5.208 7.074-9.465l17.322-54.52c-2.002-1.67-3.783-2.755-5.34-3.266-1.551-.503-4.136-.76-7.741-.76l.72-1.89h33.179m91.96 1.838.66-1.892h45.426l-.798 1.891c-4.117 0-7.225.734-9.323 2.2-2.101 1.46-3.854 4.515-5.268 9.172l-14.726 47.15c-1.067 3.37-1.571 5.621-1.518 6.753.066 1.321.759 2.343 2.076 3.076 1.694.95 4.828 1.466 9.407 1.538l-.595 1.891h-46.036l.66-1.89c4.62 0 7.965-.708 10.044-2.114 2.074-1.408 3.868-4.496 5.366-9.256l14.726-47.15c.903-2.932 1.315-5.145 1.243-6.649-.071-1.349-.766-2.415-2.081-3.18-1.316-.773-4.411-1.282-9.264-1.539m182.186 47.994h-28.655l-5.595 5.708-6.302 6.21c-1.211 1.362-2.09 2.591-2.63 3.691-.413.844-.603 1.688-.557 2.532.045.883.667 1.7 1.872 2.454 1.203.753 3.153 1.185 5.863 1.296l.092 1.891H361.03l.59-1.89c2.454-.328 4.612-1.029 6.479-2.089 2.486-1.472 6.019-4.495 10.588-9.08l62.864-62.27h3.089l-.013 60.268c.026 3.15.052 5.053.085 5.713.125 2.507.838 4.326 2.133 5.465 1.297 1.145 3.397 1.806 6.296 1.99l-.588 1.89h-40.24l.668-1.89c3.965-.296 6.249-.55 6.832-.766 1.256-.512 2.375-1.586 3.343-3.208.976-1.629 1.473-4.449 1.506-8.477l.085-9.44-.004.002zm-.222-4.443.628-24.04-24.551 24.04h23.923m-50.706-46.401c.668.616.856 2.644.856 2.644l-4.418 20.23h-2.388c-.706-6.82-.955-11.728-4.665-14.727-3.704-2.998-5.621-4.679-12.045-4.679-6.616 0-14.977 2.016-21.41 5.688-6.425 3.671-14.4 9.331-18.68 16.98-4.272 7.648-6.858 15.688-6.44 24.114.367 7.23 2.802 12.757 7.304 16.568 4.5 3.815 9.65 5.72 15.446 5.72 2.448 0 5.393-.525 8.837-1.578l6.065-19.45c1.027-3.266 1.512-5.399 1.466-6.413-.071-1.342-.844-2.474-2.33-3.397-1.491-.922-3.991-1.386-7.511-1.386l.575-2.107h39.938l-.511 2.107c-2.37.118-4.215.478-5.536 1.1-1.315.613-2.337 1.523-3.05 2.721-.426.707-1.04 2.546-1.852 5.497l-6.845 21.912c-9.675 3.175-19.944 4.764-30.808 4.764-8.385 0-15.563-1.178-21.561-3.527-5.993-2.355-11.057-6.079-15.17-11.182-4.121-5.105-6.34-10.914-6.667-17.43-.693-13.897 6.544-25.356 21.71-34.369 11.887-6.989 25.289-10.043 40.668-10.797 1.459 0 5.223-.353 10.47-.353 4.457 0 9.616.143 17.088.674 0 0 .642-.078 1.459.681"
     fill="#dc2b27"
     id="path1" />
  <path
     d="M497.18 31.406v36.755c0 10.144 8.05 18.378 17.968 18.378h39.385c9.918 0 17.967-8.23 17.967-18.378l-.005-9.39H554.67v3.534c0 4.562-3.265 7.9-7.721 7.9h-24.492c-4.451 0-7.715-3.337-7.715-7.9V38.902c0-4.562 3.263-7.899 7.715-7.899h22.892c4.456 0 7.722 3.337 7.722 7.9v1.903h17.825l.006-9.398c0-10.144-8.05-18.378-17.967-18.378H515.14c-9.918 0-17.967 8.232-17.967 18.378m103.816 38.864V29.43h31.545c5.51 0 9.976 4.573 9.976 10.22v20.42c0 5.634-4.47 10.211-9.976 10.211h-31.545v-.008zm-17.565 16.334h57.353c10.638 0 19.567-9.139 19.567-20.01v-33.49c0-10.872-8.93-20.01-19.567-20.01h-57.353v73.51"
     fill="#231f20"
     id="path2" />
  <path
     d="M746.31 21.69c-7.153 0-14.441 3.775-14.441 10.99v6.674l.072.006v9.65h55.887V38.674h-40.273c-5.19-1.322.498-5.55 3.136-5.857h24.182c7.153 0 12.95-5.858 12.95-13.067v-6.682c0-7.212-5.797-13.067-12.95-13.067H746.41c-7.153 0-14.55 4.22-14.55 11.442v6.675h14.072v-1.355c0-3.239 2.355-5.616 5.569-5.616h18.093c3.095 0 5.393 2.206 5.555 5.27-.163 3.055-2.461 5.26-5.555 5.26l-23.295.007m-31.735 2.853c5.41-.406 9.38-2.094 9.38-8.056v-6.68c0-7.213-5.803-9.8-12.95-9.8h-25.28c-7.144 0-14.55 4.22-14.55 11.441v6.675h14.082v-1.355c0-3.239 2.35-5.616 5.563-5.616h14.9c3.097 0 5.395.576 5.559 3.633-.163 3.062-2.462 5.26-5.558 5.26l-12.112.008v9.072h13.712c3.096 0 5.39 2.205 5.554 5.268-.163 3.056-2.458 3.625-5.554 3.625h-16.501c-3.213 0-5.563-2.37-5.563-5.609v-1.36h-14.08v6.681c0 7.212 7.403 11.434 14.55 11.434h26.88c8.159-.144 12.95-4.22 12.95-11.434V32.68c0-6.539-4.763-7.932-10.973-8.134"
     fill="#dc2b27"
     id="path3" />
  <path
     style="fill:#ff0000;fill-opacity:1;stroke-width:0.284414"
     d="M 0.44278778,86.533094 C 0.55097573,86.181131 0.66596102,85.86146 0.69831061,85.822712 0.73066016,85.783966 1.7282954,85.50388 2.9152779,85.200302 5.6194876,84.508683 6.9795901,83.828221 9.663775,81.824027 12.452838,79.741524 14.984037,77.276194 50.304379,42.241022 l 29.96875,-29.726787 1.507035,-0.08461 1.507036,-0.08461 0.105665,33.645511 0.105666,33.645512 0.646832,1.629797 c 0.403155,1.015814 1.022604,1.939541 1.644303,2.452002 1.054987,0.869606 3.361861,1.745767 4.615682,1.753051 1.065812,0.0062 1.465343,0.342378 1.274444,1.072376 l -0.164684,0.629756 h -19.99142 -19.99142 l 0.154457,-0.590649 c 0.20597,-0.787629 0.877822,-0.999262 3.916298,-1.233636 3.953031,-0.304918 5.575195,-1.354737 6.966724,-4.508674 0.854446,-1.936632 1.134586,-4.50318 1.210228,-11.087727 l 0.07107,-6.186315 -14.44849,3.01e-4 -14.448489,3.02e-4 -6.38633,6.4059 c -7.224297,7.246437 -8.407751,8.7741 -8.60083,11.10238 -0.123717,1.491859 -0.08632,1.595721 0.914514,2.539627 1.035455,0.97656 3.241054,1.848151 4.696401,1.855887 1.41171,0.0075 2.010383,0.312662 2.010383,1.024739 V 87.17302 H 13.917142 0.2460824 Z M 63.817012,51.550118 c 0.101621,-4.262662 0.263999,-9.702088 0.360842,-12.087614 0.09975,-2.457263 0.06709,-4.333929 -0.07537,-4.329495 -0.138296,0.0043 -5.754864,5.437457 -12.481266,12.073673 L 39.3914,59.27253 l 12.120424,0.01394 12.120424,0.01394 z"
     id="path4" />
  <path
     style="fill:#ff0000;fill-opacity:1;stroke-width:0.284414"
     d="m 96.835403,86.675884 c 0.107887,-0.429855 0.217751,-0.796173 0.244143,-0.814034 0.02639,-0.01786 1.152167,-0.171468 2.501722,-0.341343 3.196952,-0.402412 5.351992,-1.18113 7.264282,-2.624926 1.6741,-1.263955 3.62829,-3.719202 4.66543,-5.861651 0.35699,-0.737441 4.65309,-13.939661 9.54689,-29.338268 l 8.89782,-27.997464 -0.62908,-0.535524 c -2.59172,-2.206289 -5.36774,-3.207829 -9.78228,-3.529273 l -2.61167,-0.190168 0.31091,-0.682359 0.3109,-0.682359 h 16.44497 16.44496 l 0.15016,0.639932 c 0.26187,1.116024 9.24636,49.44683 9.24636,49.739496 0,0.153953 0.11792,0.207031 0.26205,0.117955 0.14413,-0.08908 9.56482,-11.487428 20.93487,-25.32967 l 20.67282,-25.167713 h 16.18121 c 8.89967,0 16.18122,0.07241 16.18122,0.160905 0,0.0885 -0.1254,0.395215 -0.27867,0.681593 -0.21328,0.398524 -0.7638,0.566454 -2.34642,0.715753 -7.1539,0.674874 -10.06715,2.691978 -12.53726,8.680669 -0.80319,1.947304 -15.09721,47.509905 -16.28397,51.905635 -1.80812,6.697218 -0.25295,8.723321 7.19998,9.380262 1.29053,0.113754 2.34642,0.249167 2.34642,0.300916 0,0.05175 -0.12481,0.422389 -0.27737,0.823641 l -0.27738,0.729552 h -22.9024 c -16.0205,0 -22.9024,-0.09108 -22.9024,-0.303112 0,-1.045175 0.559,-1.324328 3.04603,-1.521103 6.89389,-0.545452 9.96206,-2.361126 12.39109,-7.332764 0.9792,-2.004178 16.53627,-51.209855 16.35854,-51.740657 -0.0459,-0.137078 -11.34626,13.503112 -25.11192,30.311533 l -25.02847,30.560767 -1.31932,0.01267 c -1.26797,0.01218 -1.32583,-0.02331 -1.48668,-0.911679 -0.0921,-0.508391 -2.66603,-14.439232 -5.71994,-30.957423 -3.05392,-16.51819 -5.55258,-30.142353 -5.55258,-30.275916 0,-1.091808 -1.45652,3.334459 -7.9595,24.188358 -8.1253,26.05639 -8.53951,27.484517 -8.53029,29.411286 0.0181,3.788446 3.00739,6.110394 8.6238,6.698654 1.81476,0.190077 1.93517,0.245384 1.78148,0.818311 -0.0907,0.33795 -0.16659,0.710445 -0.16872,0.827766 -0.002,0.117321 -6.86504,0.213311 -15.25089,0.213311 H 96.639244 Z"
     id="path5" />
  <path
     style="fill:#ff0000;fill-opacity:1;stroke-width:0.284414"
     d="m 222.12768,87.012122 c 0,-0.0885 0.12425,-0.393078 0.27612,-0.676844 0.21396,-0.399782 0.77424,-0.560342 2.48863,-0.713166 2.82654,-0.251966 5.48706,-0.854094 6.85308,-1.550986 1.62801,-0.830547 3.38378,-2.928949 4.61705,-5.518039 1.01288,-2.126404 15.64851,-48.3265 17.0702,-53.885248 0.99119,-3.875507 0.64483,-6.116857 -1.13825,-7.365772 -0.92269,-0.646278 -3.18955,-1.182817 -6.3965,-1.513977 -1.55233,-0.160299 -2.88498,-0.354016 -2.96145,-0.430483 -0.0765,-0.07647 0.007,-0.459538 0.18549,-0.851269 l 0.32452,-0.712238 h 22.47483 c 12.36117,0 22.47484,0.05797 22.47484,0.128825 0,0.07085 -0.13735,0.43028 -0.30522,0.798724 -0.27335,0.599938 -0.59266,0.702334 -3.05746,0.980459 -3.43529,0.387635 -5.75712,1.248177 -7.36395,2.729302 -1.30112,1.19933 -2.87387,3.741802 -3.64948,5.89966 -1.59674,4.442362 -16.6955,53.346615 -16.9545,54.914913 -0.67366,4.079143 1.19511,5.541949 7.95891,6.229965 1.66152,0.169011 3.05128,0.337614 3.08834,0.374673 0.037,0.03706 -0.006,0.349762 -0.0967,0.694893 l -0.1641,0.627512 h -22.86219 c -12.57421,0 -22.86219,-0.07241 -22.86219,-0.160904 z"
     id="path6" />
  <path
     style="fill:#ff0000;fill-opacity:1;stroke-width:0.284414"
     d="m 316.83769,88.447547 c -10.46243,-1.297225 -17.99334,-4.590184 -24.21736,-10.589261 -1.41997,-1.368654 -3.30728,-3.451117 -4.19402,-4.627696 -6.41897,-8.517075 -7.699,-20.434976 -3.29892,-30.715102 5.26126,-12.292155 20.1602,-22.944491 38.60406,-27.600851 11.6757,-2.947662 28.32384,-3.981218 45.53652,-2.827016 6.06989,0.407019 5.98604,0.04219 3.07254,13.367472 l -2.20758,10.096712 -1.05032,0.08827 c -0.57768,0.04855 -1.05032,0.04473 -1.05032,-0.0085 0,-0.893101 -0.97589,-7.617902 -1.28011,-8.821158 -0.87406,-3.457087 -2.67815,-5.746831 -6.55595,-8.320768 -2.64764,-1.757405 -4.48633,-2.216706 -8.94439,-2.234291 -7.84633,-0.03095 -15.89302,2.183427 -22.65541,6.234566 -6.76591,4.05325 -11.97636,8.430163 -15.30333,12.855209 -3.48494,4.635169 -6.89607,12.507305 -8.12914,18.760302 -0.8325,4.221677 -0.84498,9.944582 -0.0302,13.869607 1.70849,8.230794 7.73057,14.460011 16.25461,16.813725 2.89134,0.798377 9.02104,0.699441 12.37203,-0.199693 l 2.55973,-0.686824 3.17013,-10.096712 c 5.09522,-16.228049 5.14558,-16.561547 2.82019,-18.678162 -1.04687,-0.952883 -1.6924,-1.275079 -3.27655,-1.635383 -1.08505,-0.24679 -2.63441,-0.44871 -3.44302,-0.44871 -1.38586,0 -1.46037,-0.03671 -1.29871,-0.639932 0.0943,-0.351963 0.17324,-0.799916 0.17538,-0.995451 0.003,-0.280993 4.17845,-0.355518 19.91831,-0.355518 h 19.91443 l -0.18695,0.78214 c -0.27081,1.133022 -0.24153,1.112672 -1.87789,1.305038 -4.55243,0.535177 -6.72311,2.182247 -7.93196,6.018634 -0.39432,1.251423 -2.30838,7.413575 -4.25345,13.693674 l -3.53649,11.418358 -3.12856,0.883263 c -6.41467,1.811009 -11.89508,2.815632 -18.77135,3.441008 -4.25621,0.387088 -14.12685,0.305484 -17.7759,-0.14696 z"
     id="path7" />
  <path
     style="fill:#ff0000;fill-opacity:1;stroke-width:0.284414"
     d="m 361.45636,86.54672 c 0.27494,-0.74324 0.57509,-0.907737 2.45192,-1.343761 2.30177,-0.534751 4.86457,-1.876874 7.49357,-3.924354 1.35351,-1.054122 13.57482,-12.925766 27.15847,-26.381424 13.58364,-13.455659 28.81403,-28.521549 33.84531,-33.479755 l 9.14779,-9.014919 1.48756,-0.01524 1.48756,-0.01524 0.0767,33.916422 0.0767,33.916423 0.80324,1.635761 c 0.96619,1.967585 2.31925,2.877242 5.16553,3.47276 1.05015,0.219721 1.97228,0.462404 2.04917,0.539298 0.0769,0.07689 0.0555,0.405427 -0.0475,0.730072 -0.18726,0.589995 -0.19639,0.590262 -20.07719,0.590262 -15.72459,0 -19.88893,-0.07445 -19.88549,-0.355518 0.0108,-0.882037 0.57071,-1.137646 3.01846,-1.377976 1.3878,-0.13626 2.9837,-0.321866 3.54646,-0.412458 2.09314,-0.336949 4.23919,-2.935615 5.0046,-6.06013 0.24663,-1.006758 0.45844,-4.180275 0.56753,-8.503266 l 0.17406,-6.89705 h -14.49453 -14.49452 l -6.8287,6.89705 c -7.07744,7.148288 -8.3657,8.825943 -8.34205,10.863591 0.0276,2.382525 1.83703,3.557151 6.60255,4.286279 0.58661,0.08975 1.06656,0.274901 1.06656,0.411448 0,0.136544 0.0777,0.450712 0.17263,0.698146 0.15597,0.406431 -1.16177,0.449884 -13.64272,0.449884 h -13.81537 z m 63.27506,-31.299215 c 0.0974,-2.229098 0.26149,-7.699574 0.36454,-12.156612 l 0.18737,-8.103709 -2.5305,2.345882 c -1.39177,1.290235 -7.01002,6.756827 -12.485,12.147982 l -9.9545,9.802102 12.12046,0.0086 12.12047,0.0086 z"
     id="path8" />
  <path
     style="fill:#ff0000;fill-opacity:1;stroke-width:0.284414"
     d="m 682.74239,48.765458 c -4.89603,-0.84473 -8.88661,-3.604791 -10.62545,-7.349024 -0.67614,-1.455932 -0.752,-1.985031 -0.85098,-5.935732 l -0.10866,-4.337321 h 6.99855 6.99854 l 0.006,1.350969 c 0.0126,2.724016 1.64889,4.813211 4.28965,5.476926 1.96952,0.495009 20.33858,0.278738 21.3014,-0.250799 1.99218,-1.095673 2.62484,-2.580859 1.99559,-4.684733 -0.49412,-1.652075 -1.27998,-2.654391 -2.65947,-3.391978 -1.12586,-0.601971 -1.56337,-0.638058 -8.7929,-0.725237 l -7.60809,-0.09174 v -4.387783 -4.387785 h 6.83728 c 6.14809,0 6.94364,-0.05429 7.8925,-0.538564 1.3034,-0.665227 1.90194,-1.311319 2.46645,-2.662373 0.90111,-2.15666 0.34433,-4.332365 -1.34494,-5.255578 -0.81404,-0.444889 -1.96765,-0.513066 -10.0559,-0.594298 -6.03053,-0.06057 -9.53095,0.01449 -10.29709,0.220791 -2.37375,0.639183 -4.0124,2.873796 -4.02448,5.488152 l -0.006,1.350969 h -6.99854 -6.99855 l 0.11122,-4.33732 c 0.10343,-4.0337478 0.16765,-4.460971 0.91757,-6.10399 1.55782,-3.4130743 5.30917,-6.1146282 9.81787,-7.0703956 2.30231,-0.48804905 29.77117,-0.58218251 32.66884,-0.11195335 4.12166,0.66885515 7.05697,2.59170385 8.3297,5.45657105 0.59484,1.3389751 0.67925,2.0247105 0.77967,6.3336099 0.0711,3.048671 -0.009,5.376506 -0.21751,6.307217 -0.69733,3.115971 -2.89298,4.866114 -7.04692,5.617066 -1.21598,0.219825 -2.08288,0.416787 -1.92646,0.437694 0.15643,0.02091 1.18032,0.144368 2.27532,0.274359 4.37349,0.519192 6.59827,1.706148 7.69723,4.106592 1.29365,2.825697 1.22188,10.634111 -0.12574,13.680624 -0.7591,1.71608 -2.71237,3.757132 -4.43151,4.630669 -3.17415,1.61286 -2.99325,1.59784 -20.06264,1.66588 -8.68175,0.0346 -16.42245,-0.04706 -17.20155,-0.181482 z"
     id="path9" />
  <path
     style="fill:#ff0000;fill-opacity:1;stroke-width:0.284414"
     d="m 732.13947,39.462504 0.0855,-9.314573 0.79811,-1.625269 c 1.3258,-2.699864 4.34766,-4.907816 8.32106,-6.079867 1.47176,-0.434134 3.51453,-0.519225 15.9093,-0.662693 15.67684,-0.181459 15.14113,-0.116939 16.73909,-2.016015 1.5518,-1.844208 1.63094,-4.495639 0.19342,-6.480079 -1.55443,-2.145828 -1.74766,-2.180268 -12.8085,-2.28283 -6.71732,-0.06229 -10.29156,0.01328 -11.33175,0.239589 -2.62386,0.570849 -4.31104,2.899479 -4.31104,5.950044 v 0.869506 h -6.84509 -6.84509 l 0.0902,-4.621735 c 0.0874,-4.4735723 0.11726,-4.67507 0.93323,-6.2854743 1.56572,-3.0901129 5.35296,-5.662641 9.6885,-6.58102531 3.00376,-0.63627755 32.82026,-0.62652518 35.27058,0.0115363 3.52633,0.91824921 6.6262,3.49649621 8.31689,6.91738531 l 1.05744,2.1395858 v 6.6984902 6.69849 l -1.02033,2.133108 c -1.50251,3.141136 -3.76099,5.277924 -7.08548,6.70368 -1.19031,0.510484 -2.26493,0.558837 -15.35838,0.691096 l -14.07852,0.142207 -1.5167,0.840146 c -2.69293,1.491694 -3.63448,3.376633 -2.29314,4.59075 0.57534,0.520763 1.39827,0.544782 21.18888,0.618377 l 20.59029,0.07657 v 4.971789 4.971787 h -27.88702 -27.88703 z"
     id="path10" />
</svg>
