<?xml version="1.0" encoding="UTF-8" standalone="no"?>
<svg
   viewBox="-64 344.8 601.131 131.201"
   xml:space="preserve"
   width="601.131"
   height="131.201"
   version="1.1"
   id="svg17"
   sodipodi:docname="amigademo.svg"
   inkscape:version="1.3 (0e150ed6c4, 2023-07-21)"
   inkscape:export-filename="amigademo.svg"
   inkscape:export-xdpi="96"
   inkscape:export-ydpi="96"
   xmlns:inkscape="http://www.inkscape.org/namespaces/inkscape"
   xmlns:sodipodi="http://sodipodi.sourceforge.net/DTD/sodipodi-0.dtd"
   xmlns="http://www.w3.org/2000/svg"
   xmlns:svg="http://www.w3.org/2000/svg"><defs
   id="defs17" /><sodipodi:namedview
   id="namedview17"
   pagecolor="#ffffff"
   bordercolor="#111111"
   borderopacity="1"
   inkscape:showpageshadow="0"
   inkscape:pageopacity="0"
   inkscape:pagecheckerboard="1"
   inkscape:deskcolor="#d1d1d1"
   inkscape:zoom="3.2583344"
   inkscape:cx="344.96152"
   inkscape:cy="18.414316"
   inkscape:window-width="3440"
   inkscape:window-height="1377"
   inkscape:window-x="-8"
   inkscape:window-y="760"
   inkscape:window-maximized="1"
   inkscape:current-layer="svg17" />&#10;    <path
   d="M-11.4 344.8c-29.1 0-52.6 23.6-52.6 52.6 0 29.1 23.6 52.6 52.6 52.6 5.6 0 11-.9 16-2.5v-26.3c-4.4 2.5-9.5 4-14.9 4-16 0-28.9-12.5-28.9-27.8s13-27.8 28.9-27.8c5.5 0 10.6 1.5 14.9 4v-26.3c-5-1.6-10.4-2.5-16-2.5zM26.7 395.7H5.1v-18.3h39.2z"
   style="fill:#025"
   transform="matrix(1.24716 0 0 1.24716 15.818 -85.22)"
   id="path22" />&#10;    <path
   style="fill:red"
   d="M26.7 399.4H5.1v18.3h39.2z"
   transform="matrix(1.24716 0 0 1.24716 15.818 -85.22)"
   id="path21" />&#10;    <path
   d="m 149.7539,402.54428 c 6.2358,0 11.22444,-1.74603 15.21535,-4.98864 3.99091,-3.36734 5.98637,-7.98183 6.11108,-14.09291 -0.12471,-6.11109 -2.12017,-10.85029 -6.11108,-14.21763 -3.99091,-3.36733 -8.97955,-4.98864 -15.21535,-4.98864 -6.2358,0 -11.22444,1.74603 -15.21536,4.98864 -3.99091,3.24262 -5.98636,8.10654 -6.11108,14.21763 0.12472,6.11108 2.12017,10.85029 6.11108,14.09291 3.99092,3.24261 8.97956,4.98864 15.21536,4.98864 z m 0,-8.85484 c -2.86847,-0.12472 -4.98864,-1.12244 -6.36052,-3.1179 -1.37188,-1.99546 -1.99546,-4.36506 -1.87074,-7.23353 0,-2.86847 0.62358,-5.23807 1.87074,-7.23353 1.24716,-1.99545 3.36733,-2.99318 6.36052,-3.1179 2.86846,0.12472 4.98864,1.12245 6.36051,3.1179 1.37188,1.99546 1.99546,4.36506 1.87074,7.23353 0,2.74375 -0.62358,5.23807 -1.87074,7.23353 -1.37187,1.99546 -3.49205,2.99318 -6.36051,3.1179 z m 26.43979,7.98182 h 12.72103 v -15.46478 c 0,-3.8662 0.62358,-6.85938 1.87074,-8.73012 1.24716,-1.87074 2.99318,-2.74375 5.23807,-2.74375 1.74603,0 3.1179,0.74829 3.8662,2.12017 0.74829,1.37188 1.24716,3.1179 1.24716,5.23807 v 19.70513 h 12.72103 V 386.3312 c 0,-3.8662 0.62358,-6.85938 1.87074,-8.73012 1.24716,-1.87074 2.99318,-2.74376 5.23807,-2.74376 1.74603,0 3.1179,0.7483 3.8662,2.12018 0.74829,1.37187 1.24716,3.1179 1.24716,5.23807 v 19.70513 h 12.72103 v -21.57587 c 0.12472,-4.98864 -0.7483,-8.85484 -2.49432,-11.72331 -1.74602,-2.74375 -5.23807,-4.24034 -10.47614,-4.24034 -2.61904,0 -5.11336,0.49886 -7.35825,1.62131 -2.24489,1.12244 -4.11563,2.86847 -5.61222,5.36279 -0.99773,-2.36961 -2.49432,-4.11563 -4.48977,-5.36279 -1.99546,-1.12245 -4.36506,-1.74603 -6.9841,-1.74603 -2.86847,0 -5.61222,0.62358 -7.85711,1.87074 -2.3696,1.24716 -4.11563,3.1179 -5.4875,5.73694 h -0.12472 v -6.73466 H 176.3184 Z m 69.46681,0 h 12.72103 v -15.46478 c 0,-3.8662 0.62358,-6.85938 1.87074,-8.73012 1.24716,-1.87074 2.99319,-2.74375 5.23807,-2.74375 1.74603,0 3.1179,0.74829 3.8662,2.12017 0.7483,1.37188 1.24716,3.1179 1.24716,5.23807 v 19.70513 h 12.72103 V 386.3312 c 0,-3.8662 0.62358,-6.85938 1.87074,-8.73012 1.24716,-1.87074 2.99319,-2.74376 5.23807,-2.74376 1.74603,0 3.1179,0.7483 3.8662,2.12018 0.7483,1.37187 1.24716,3.1179 1.24716,5.23807 v 19.70513 h 12.72103 v -21.57587 c 0.12472,-4.98864 -0.74829,-8.85484 -2.49432,-11.72331 -1.74602,-2.74375 -5.23807,-4.24034 -10.47614,-4.24034 -2.61904,0 -5.11336,0.49886 -7.35825,1.62131 -2.24488,1.12244 -4.11562,2.86847 -5.61222,5.36279 -0.99772,-2.36961 -2.49432,-4.11563 -4.48977,-5.36279 -1.99546,-1.12245 -4.36506,-1.74603 -6.9841,-1.74603 -2.86847,0 -5.61222,0.62358 -7.85711,1.87074 -2.3696,1.24716 -4.11562,3.1179 -5.4875,5.73694 h -0.12472 v -6.73466 h -11.59858 z m 88.92251,0.87302 c 6.2358,0 11.22444,-1.74603 15.21535,-4.98864 3.99091,-3.36734 5.98637,-7.98183 6.11108,-14.09291 -0.12471,-6.11109 -2.12017,-10.85029 -6.11108,-14.21763 -3.99091,-3.36733 -8.97955,-4.98864 -15.21535,-4.98864 -6.2358,0 -11.22444,1.74603 -15.21535,4.98864 -3.99092,3.24262 -5.98637,8.10654 -6.11109,14.21763 0.12472,6.11108 2.12017,10.85029 6.11109,14.09291 3.99091,3.24261 9.10426,4.98864 15.21535,4.98864 z m 0,-8.85484 c -2.86847,-0.12472 -4.98864,-1.12244 -6.36052,-3.1179 -1.37187,-1.99546 -1.99545,-4.36506 -1.87074,-7.23353 0,-2.86847 0.62358,-5.23807 1.87074,-7.23353 1.24716,-1.99545 3.36733,-2.99318 6.36052,-3.1179 2.86847,0.12472 4.98864,1.12245 6.36051,3.1179 1.37188,1.99546 1.99546,4.36506 1.87074,7.23353 0,2.74375 -0.62358,5.23807 -1.87074,7.23353 -1.37187,1.99546 -3.36733,2.99318 -6.36051,3.1179 z m 65.97476,-44.77304 h -12.72103 v 20.82757 h -0.12472 c -1.6213,-2.12017 -3.49204,-3.49205 -5.61222,-4.36506 -2.12017,-0.87301 -4.48977,-1.24716 -6.98409,-1.24716 -5.11336,0.24943 -8.97955,2.12017 -11.59859,5.86165 -2.61904,3.74148 -3.99091,7.98182 -3.99091,12.59632 0,5.61222 1.49659,10.22671 4.24034,13.96819 2.86847,3.74148 6.9841,5.73693 12.4716,5.86165 2.99319,0 5.61222,-0.7483 7.85711,-2.12017 2.24489,-1.37188 3.8662,-3.1179 4.73921,-5.23807 h 0.12471 v 6.60994 h 11.72331 z m -28.18581,34.04746 c 0,-2.49432 0.62358,-4.61449 1.99545,-6.36051 1.37188,-1.74603 3.24262,-2.61904 5.73694,-2.74375 2.3696,0 4.24034,0.99772 5.61222,2.74375 1.37187,1.74602 2.12017,3.99091 2.12017,6.85938 0,2.74375 -0.87301,4.98864 -2.24489,6.73466 -1.37187,1.74603 -3.24261,2.61904 -5.4875,2.61904 -2.36961,0 -4.24035,-0.99773 -5.61222,-2.74375 -1.37188,-1.74603 -2.12017,-4.11563 -2.12017,-7.10882 z m 54.25146,19.58042 c 6.2358,0 11.22444,-1.74603 15.21535,-4.98864 3.99091,-3.36734 5.98637,-7.98183 6.11108,-14.09291 -0.12471,-6.11109 -2.12017,-10.85029 -6.11108,-14.21763 -3.99091,-3.36733 -8.97955,-4.98864 -15.21535,-4.98864 -6.2358,0 -11.22444,1.74603 -15.21536,4.98864 -3.99091,3.36734 -5.98636,8.10654 -6.11108,14.21763 0.12472,6.11108 2.12017,10.85029 6.11108,14.09291 3.99092,3.24261 9.10427,4.98864 15.21536,4.98864 z m 0,-8.85484 c -2.86847,-0.12472 -4.98864,-1.12244 -6.36052,-3.1179 -1.24716,-1.99546 -1.99546,-4.36506 -1.87074,-7.23353 0,-2.86847 0.62358,-5.23807 1.87074,-7.23353 1.24716,-1.99545 3.36733,-2.99318 6.36052,-3.1179 2.86846,0.12472 4.98864,1.12245 6.36051,3.1179 1.24716,1.99546 1.99546,4.36506 1.87074,7.23353 0,2.74375 -0.62358,5.23807 -1.87074,7.23353 -1.24716,1.99546 -3.36733,2.99318 -6.36051,3.1179 z m 53.37844,-29.05883 c -0.62358,-0.12471 -1.37187,-0.24943 -2.12017,-0.24943 -0.74829,-0.12472 -1.49659,-0.12472 -2.24489,-0.12472 -2.74375,0 -4.98864,0.7483 -6.60994,2.12018 -1.74603,1.37187 -3.1179,3.24261 -4.24035,5.4875 h -0.12471 v -6.73466 h -11.59859 v 36.6665 h 12.72103 V 386.3312 c 0,-3.61677 0.7483,-6.48524 2.3696,-8.48069 1.62131,-1.99546 3.8662,-2.99319 6.85938,-2.99319 h 2.12018 c 0.74829,0 1.37187,0.12472 2.12017,0.37415 z m 39.78441,22.44888 v -2.3696 c 0.12471,-5.61222 -1.37188,-10.47615 -4.11563,-14.34234 -2.86847,-3.99091 -7.60768,-5.98637 -14.34234,-6.2358 -5.86165,0 -10.47614,1.74602 -14.09291,4.98864 -3.61676,3.36733 -5.4875,7.98182 -5.4875,14.09291 0.12471,6.11108 2.12017,10.85029 6.11108,14.0929 3.99091,3.36734 8.97955,4.98864 15.21535,5.11336 2.36961,0 4.73921,-0.12472 6.9841,-0.49886 2.24489,-0.37415 4.48978,-0.99773 6.48523,-1.74603 v -8.97955 c -1.87074,0.99773 -3.86619,1.74602 -5.73693,2.12017 -1.87074,0.49887 -3.74148,0.62358 -5.48751,0.62358 -3.1179,0 -5.61222,-0.49886 -7.48296,-1.62131 -1.87074,-1.12244 -2.99318,-2.86846 -3.36733,-5.36278 z m -25.56678,-7.23353 c 0.12471,-2.12017 0.74829,-3.99091 1.87074,-5.36278 1.12244,-1.4966 2.86847,-2.24489 5.11335,-2.24489 2.49432,0 4.36506,0.74829 5.36279,2.24489 1.12245,1.49659 1.62131,3.24261 1.62131,5.36278 z m -392.8554,22.19945 c -5.487506,-1.49659 -9.72785,-3.99091 -13.219898,-7.85711 -3.492048,-3.86619 -5.113356,-7.35824 -6.111084,-13.59404 -1.87074,-12.22217 3.367332,-23.44661 13.469328,-28.31053 5.113354,-2.49432 11.972734,-3.74148 18.832114,-3.74148 4.24035,0 7.98183,0.74829 11.47387,1.37187 l -1.12244,10.97501 c 0,0 -0.87301,-0.24943 -3.36733,-0.87301 -2.36961,-0.62358 -4.73921,-0.87301 -7.10881,-0.87301 -4.73921,0 -9.3537,1.24716 -12.34689,3.61676 -7.10881,5.48751 -7.10881,19.82985 0.24943,25.81621 4.48978,3.74148 12.59632,4.98864 19.82985,3.1179 l 3.36733,-0.87301 0.99773,11.09973 c -2.12017,0.49886 -6.60995,1.37187 -12.09745,1.37187 -7.23353,0 -9.47842,-0.24943 -12.84575,-1.24716 z m -28.43525,6.36052 h 460.20204 v 3.74148 H 72.92884 Z"
   style="fill:#002255;stroke-width:1.24716"
   id="path20" />&#10;    <path
   d="m 107.49889,468.39432 c 0,-0.62358 -0.11811,-1.12244 -0.47246,-1.24716 -0.35436,-0.24943 -0.70871,-0.37414 -1.2993,-0.37414 -1.88987,-0.37415 -2.95294,-1.12245 -3.30729,-2.24489 -0.35435,-1.24716 -0.47247,-2.74375 -0.47247,-4.61449 l -1.88988,-38.41253 c 0,-1.37188 -0.11811,-2.49432 -0.35434,-3.49205 -0.23625,-0.87301 -1.06307,-1.37188 -2.5986,-1.49659 -1.29928,0 -2.24422,0.49886 -2.83481,1.24716 -0.59059,0.74829 -1.18118,1.74602 -1.88988,2.74375 l -23.387255,34.67105 -3.89788,5.86165 c -0.826822,1.24716 -1.653644,2.3696 -2.480467,3.49205 -0.944939,1.12244 -2.126114,1.74602 -3.543524,1.99545 -0.826822,0.12472 -1.535527,0.24944 -2.244231,0.49887 -0.708705,0.24943 -1.063058,0.87301 -1.181175,1.87074 0,0.62358 0.236235,0.99773 0.590587,1.12244 0.354353,0.12472 0.826823,0.24943 1.299292,0.24943 1.299293,0 2.716702,-0.12471 4.134112,-0.24943 1.417409,-0.12471 2.716701,-0.24943 4.134107,-0.24943 1.299296,0 2.480471,0.12472 3.661645,0.24943 1.181175,0.12472 2.480471,0.12472 3.661645,0.24943 0.590588,0 1.063054,-0.12471 1.53552,-0.37414 0.472475,-0.24944 0.708708,-0.7483 0.708708,-1.37188 -0.118121,-0.99773 -0.590587,-1.49659 -1.65364,-1.62131 -1.063063,-0.12471 -2.008005,-0.37415 -3.071058,-0.62358 -1.063054,-0.24943 -1.535529,-0.99773 -1.653641,-2.3696 0.236233,-1.37188 1.063054,-3.36733 2.598582,-5.86165 1.535529,-2.49432 2.598583,-4.36506 3.307291,-5.36279 H 89.42692 c 0.11812,1.62131 0.11812,3.24261 0.23624,4.86392 0.11811,1.62131 0.11811,3.24262 0.11811,4.86393 -0.11811,2.24488 -0.59058,3.61676 -1.65364,3.99091 -1.06306,0.37415 -2.12611,0.62358 -3.07106,0.62358 -1.063049,0 -1.653636,0.74829 -1.653636,1.87074 0,0.49886 0.118112,0.87301 0.472466,1.12244 0.35435,0.24943 0.70871,0.24943 1.18117,0.24943 2.008,0 4.016,-0.12471 6.024,-0.24943 2.00799,-0.12471 4.01599,-0.24943 6.02398,-0.24943 1.2993,0 2.71671,0.12472 4.016,0.12472 1.29929,0.12471 2.71671,0.12471 4.01599,0.12471 0.59059,0 1.18118,-0.12471 1.53553,-0.24943 0.59059,-0.24943 0.82682,-0.62358 0.82682,-1.37188 z M 89.54504,448.81391 H 77.378939 L 88.95445,430.97952 Z m 123.55087,-29.30826 c 0,-0.49886 -0.11812,-0.74829 -0.47247,-0.99773 -0.23624,-0.24943 -0.59059,-0.37414 -1.06306,-0.37414 -0.70871,0 -1.29929,0 -1.88988,0.12471 -0.59059,0 -1.29929,0.12472 -1.88988,0.24943 -1.65365,0.12472 -3.18917,0.24944 -4.84281,0.37415 h -4.96094 c -1.18117,0 -2.36235,-0.12471 -3.66164,-0.12471 -1.18118,-0.12472 -2.36235,-0.12472 -3.66164,-0.12472 -0.59058,0 -1.06306,0.12472 -1.53553,0.49886 -0.47247,0.37415 -0.7087,0.87302 -0.7087,1.4966 0.23623,1.12244 1.06306,1.74602 2.48047,1.6213 1.4174,-0.12471 2.24422,0.62358 2.48046,1.99546 0,0.37415 0,0.7483 -0.11812,1.24716 -0.11812,0.37415 -0.23623,0.7483 -0.35435,1.24716 l -9.21316,33.67332 c -0.35436,1.62131 -0.7087,2.99318 -1.18118,4.11563 -0.47246,1.12244 -1.41741,1.87074 -2.95293,2.24489 -0.7087,0.12471 -1.53553,0.24943 -2.48047,0.49886 -0.94494,0.24943 -1.53552,0.87301 -1.53552,1.74602 0,0.49887 0.23623,0.87302 0.59058,1.12245 0.35436,0.24943 0.82682,0.37415 1.29929,0.37415 1.53553,0 3.18918,-0.12472 4.7247,-0.24944 1.65365,-0.12471 3.18918,-0.24943 4.84282,-0.24943 1.77176,0 3.4254,0.12472 5.19716,0.24943 1.77176,0.12472 3.42541,0.12472 5.19718,0.24944 0.7087,0 1.53553,0 2.48046,-0.12472 0.94494,-0.12472 1.41741,-0.62358 1.53553,-1.62131 -0.11812,-0.99773 -0.59059,-1.49659 -1.41741,-1.62131 -0.82682,-0.12471 -1.77176,-0.24943 -2.59858,-0.49886 -0.82682,-0.24943 -1.2993,-1.12244 -1.41741,-2.61904 0,-0.62358 0.11811,-1.24716 0.23623,-1.87074 0.11811,-0.62358 0.35436,-1.24716 0.47247,-1.87074 l 9.21316,-33.79803 c 0.35436,-1.37188 0.70871,-2.36961 1.18118,-2.99319 0.47246,-0.62358 1.4174,-1.12244 2.7167,-1.37187 0.7087,-0.12472 1.41741,-0.24943 2.24423,-0.62358 0.59059,-0.62358 0.94494,-1.12245 1.06306,-1.99546 z m 47.95569,0.37415 c -0.11812,-0.87301 -0.94495,-1.37188 -2.36235,-1.74602 -1.53553,-0.37415 -3.07105,-0.49887 -4.7247,-0.62358 -1.65364,-0.12472 -2.71671,-0.12472 -3.30729,-0.12472 -6.14211,0 -12.52045,1.37188 -19.13503,3.8662 -6.61457,2.61903 -12.28421,6.36051 -17.00891,11.34915 -4.7247,4.98864 -7.20517,11.09973 -7.32328,18.33325 0.11811,4.6145 1.29928,8.35598 3.77975,11.34916 2.48047,2.99318 5.4334,5.23807 9.21317,6.73466 3.66163,1.4966 7.44139,2.24489 11.45739,2.24489 2.36235,0 4.7247,-0.12471 7.20516,-0.49886 2.36235,-0.24943 4.7247,-0.7483 7.08705,-1.37188 0.82683,-0.12471 1.65365,-0.37415 2.24424,-0.74829 0.59058,-0.24944 1.06305,-0.87302 1.4174,-1.87074 0.59059,-1.87074 1.18118,-3.8662 1.77177,-5.86166 0.59058,-1.99545 1.06305,-3.99091 1.53552,-5.86165 0.82682,-2.74375 1.88988,-4.48977 3.07105,-4.98864 1.18118,-0.49886 2.24424,-0.74829 3.18918,-0.74829 0.94493,0 1.41741,-0.62358 1.41741,-1.87074 0,-0.49887 -0.23623,-0.87302 -0.59059,-1.12245 -0.35435,-0.24943 -0.82682,-0.37415 -1.18117,-0.37415 -1.77176,0 -3.66165,0.12472 -5.43341,0.24944 -1.88987,0.12471 -3.66164,0.24943 -5.55152,0.24943 -1.77176,0 -3.54352,-0.12472 -5.19716,-0.24943 -1.77177,-0.12472 -3.54353,-0.24944 -5.19718,-0.24944 -0.59058,0 -1.18117,0.12472 -1.65364,0.37415 -0.59059,0.24943 -0.82682,0.7483 -0.82682,1.37188 0.11811,0.87301 0.59059,1.37187 1.41741,1.49659 0.94494,0.12472 1.77176,0.24943 2.7167,0.62358 0.94493,0.24943 1.41741,1.12244 1.41741,2.49432 -0.11812,1.49659 -0.47248,3.36733 -1.2993,5.98637 -0.70869,2.49432 -1.4174,4.48977 -1.88987,6.11108 -0.23624,1.12245 -0.70871,1.99546 -1.18117,2.49432 -0.47248,0.49887 -1.2993,0.7483 -2.48047,0.7483 -4.25224,-0.12472 -7.55952,-1.49659 -9.68563,-4.36506 -2.24424,-2.86847 -3.3073,-6.36052 -3.3073,-10.72558 0,-3.99091 0.82682,-7.98182 2.36235,-11.7233 1.53553,-3.74148 3.66165,-7.10881 6.26023,-9.97728 2.59858,-2.74375 5.90587,-5.11336 9.68563,-7.10881 3.89788,-1.99546 7.67764,-2.99319 11.45739,-3.1179 1.77177,0 2.83483,0.37414 3.30729,1.12244 0.35436,0.7483 0.59059,1.99546 0.47247,3.74148 0,0.49886 0,0.87301 -0.11811,1.37188 0,0.49886 -0.11812,0.87301 -0.11812,1.37187 0,0.7483 0.11812,1.49659 0.35435,2.12017 0.23623,0.62358 0.82682,0.99773 1.65364,0.99773 0.94494,-0.12471 1.53553,-0.49886 2.00801,-1.37187 0.47246,-0.87302 0.7087,-1.74603 0.94493,-2.49432 0.23624,-0.62358 0.59059,-1.87074 1.18117,-3.8662 0.47248,-1.99546 0.82683,-3.24262 0.94495,-3.74148 z m 41.81358,48.51452 c 0,-0.62358 -0.11812,-1.12244 -0.47247,-1.24716 -0.35436,-0.24943 -0.7087,-0.37414 -1.29929,-0.37414 -1.88988,-0.37415 -2.95294,-1.12245 -3.30729,-2.24489 -0.35435,-1.24716 -0.47248,-2.74375 -0.47248,-4.61449 l -1.88987,-38.41253 c 0,-1.37188 -0.11812,-2.49432 -0.35435,-3.49205 -0.23624,-0.87301 -1.06306,-1.37188 -2.59859,-1.49659 -1.29929,0 -2.24423,0.49886 -2.83482,1.24716 -0.59059,0.74829 -1.18118,1.74602 -1.88987,2.74375 l -23.38726,34.67105 -3.89788,5.86165 c -0.82682,1.24716 -1.65364,2.3696 -2.48046,3.49205 -0.94494,1.12244 -2.12612,1.74602 -3.54353,1.99545 -0.82683,0.12472 -1.53553,0.24944 -2.24423,0.49887 -0.7087,0.24943 -1.06306,0.87301 -1.18118,1.87074 0,0.62358 0.23623,0.99773 0.59059,1.12244 0.35435,0.12472 0.82682,0.24943 1.29929,0.24943 1.29929,0 2.71671,-0.12471 4.13412,-0.24943 1.4174,-0.12471 2.7167,-0.24943 4.13411,-0.24943 1.29928,0 2.48046,0.12472 3.66163,0.24943 1.2993,0.12472 2.48047,0.12472 3.66165,0.24943 0.59058,0 1.06305,-0.12471 1.53553,-0.37414 0.47246,-0.24944 0.7087,-0.7483 0.7087,-1.37188 -0.11812,-0.99773 -0.59059,-1.49659 -1.65365,-1.62131 -1.06305,-0.12471 -2.00799,-0.37415 -3.07105,-0.62358 -1.06306,-0.24943 -1.53552,-0.99773 -1.65364,-2.3696 0.23623,-1.37188 1.06305,-3.36733 2.59858,-5.86165 1.53553,-2.49432 2.59858,-4.36506 3.30729,-5.36279 h 14.64656 c 0.11812,1.62131 0.11812,3.24261 0.23624,4.86392 0.11812,1.62131 0.11812,3.24262 0.11812,4.86393 -0.11812,2.24488 -0.59059,3.61676 -1.65365,3.99091 -1.06306,0.37415 -2.12611,0.62358 -3.07105,0.62358 -1.06306,0 -1.65364,0.74829 -1.65364,1.87074 0,0.49886 0.11811,0.87301 0.47246,1.12244 0.35436,0.24943 0.70871,0.24943 1.18118,0.24943 2.00799,0 4.016,-0.12471 6.02399,-0.24943 2.008,-0.12471 4.01599,-0.24943 6.02399,-0.24943 1.29929,0 2.7167,0.12472 4.016,0.12472 1.29928,0.12471 2.7167,0.12471 4.01599,0.12471 0.59058,0 1.18117,-0.12471 1.53552,-0.24943 0.47247,-0.24943 0.70871,-0.62358 0.70871,-1.37188 z m -18.07197,-19.58041 h -12.1661 l 11.57551,-17.83439 z M 182.14913,419.75508 c 0,-0.49886 -0.11811,-0.87301 -0.47247,-1.12244 -0.23623,-0.24943 -0.59059,-0.37415 -1.06305,-0.37415 -1.53553,0 -3.07106,0 -4.60659,0.12472 -1.53553,0.12471 -3.07105,0.12471 -4.60658,0.12471 -0.82682,0 -2.00799,-0.12471 -3.66164,-0.12471 -1.65364,0 -2.7167,0.12471 -3.30729,0.62358 -0.11811,0.12471 -0.23623,0.37415 -0.23623,0.49886 -0.11812,0.24943 -0.23624,0.37415 -0.23624,0.49887 l -20.07997,32.05201 -0.82682,-31.55315 c 0,-0.62358 0,-1.12244 -0.11812,-1.49659 -0.11811,-0.49887 -0.47246,-0.62358 -1.06305,-0.7483 -1.65365,0 -3.42541,0 -5.07905,0.12472 h -5.07906 c -0.94494,0 -1.88987,-0.12472 -2.83481,-0.12472 -0.94494,-0.12471 -1.88989,-0.12471 -2.83483,-0.12471 -0.59058,0 -1.18117,0.12471 -1.77176,0.24943 -0.59059,0.24943 -0.82682,0.62358 -0.94493,1.37187 0.23623,1.24716 1.18117,1.87074 2.71669,1.74603 1.65365,0 2.48047,0.62358 2.71671,1.74602 0,0.87301 -0.23624,1.74603 -0.47247,2.61904 -0.35435,0.87301 -0.59059,1.74602 -0.82682,2.49432 -1.77176,5.23807 -3.54352,10.35143 -5.31529,15.5895 -1.77176,5.23807 -3.54352,10.35143 -5.4334,15.5895 -0.70871,2.24489 -1.41741,3.74148 -2.12612,4.61449 -0.7087,0.87301 -2.12612,1.49659 -4.37034,1.87074 -0.59059,0.12472 -1.18118,0.24943 -1.65364,0.62358 -0.47248,0.24943 -0.70871,0.7483 -0.70871,1.49659 0,0.62358 0.23623,0.99773 0.59058,1.24716 0.35436,0.12472 0.82682,0.24943 1.41741,0.24943 1.2993,0 2.59858,0 3.89788,-0.12471 1.2993,-0.12472 2.59858,-0.12472 3.89788,-0.12472 1.18117,0 2.36235,0.12472 3.54352,0.24943 1.18118,0.12472 2.36235,0.12472 3.54353,0.24944 0.59058,0 1.06305,-0.12472 1.53553,-0.37415 0.47246,-0.24943 0.70869,-0.7483 0.82682,-1.37188 -0.11813,-1.12244 -0.59059,-1.62131 -1.65365,-1.74602 -1.06306,-0.12472 -2.12611,-0.24943 -3.18917,-0.49887 -1.06306,-0.24943 -1.65365,-1.24716 -1.65365,-2.99318 0.11812,-2.3696 0.94495,-5.98637 2.48047,-10.85029 1.53552,-4.73921 3.07105,-9.47842 4.84282,-13.96819 1.65364,-4.48978 2.83481,-7.48296 3.4254,-9.10427 l 0.82683,36.6665 c 0,1.12245 0.11811,1.99546 0.35434,2.74375 0.23625,0.62358 0.94494,0.99773 2.12612,0.99773 1.18117,0 2.12612,-0.49886 2.83482,-1.37187 0.7087,-0.87302 1.29929,-1.74603 1.88988,-2.74376 l 23.38726,-36.29235 -7.67764,30.68013 c -0.23623,1.37188 -0.59058,2.61904 -1.06305,3.99092 -0.47248,1.37187 -1.41742,2.12017 -2.7167,2.49432 -0.82682,0 -1.65365,0.24943 -2.59859,0.37414 -0.94494,0.24944 -1.53553,0.87302 -1.65365,1.87074 0,0.62358 0.23624,0.99773 0.59059,1.24716 0.35435,0.24944 0.82682,0.37415 1.2993,0.37415 1.65364,0 3.4254,-0.12471 5.07905,-0.24943 1.65364,-0.12472 3.4254,-0.24943 5.07904,-0.24943 1.77176,0 3.54353,0.12471 5.19718,0.24943 1.77176,0.12472 3.54352,0.24943 5.19716,0.24943 0.70871,0 1.18118,-0.12471 1.77176,-0.37415 0.47248,-0.24943 0.82682,-0.74829 0.82682,-1.49659 -0.11811,-0.87301 -0.47246,-1.49659 -1.29928,-1.62131 -0.82682,-0.12471 -1.65365,-0.37414 -2.48047,-0.62358 -0.82682,-0.24943 -1.29929,-0.99772 -1.29929,-2.3696 0,-0.87301 0.11811,-1.87074 0.35434,-2.86847 0.23625,-0.99773 0.35436,-1.87074 0.59059,-2.74375 l 7.4414,-31.55315 c 0.23624,-1.37187 0.59059,-2.49432 1.06307,-3.24261 0.47246,-0.7483 1.29928,-1.24716 2.71669,-1.4966 0.70871,0 1.41742,-0.24943 2.12612,-0.49886 0.35435,0.12472 0.82682,-0.37415 0.82682,-1.37188 z"
   style="fill:#ff0000;stroke-width:1.21372"
   id="path19" />&#10;    &#10;    &#10;    &#10;    &#10;    &#10;    &#10;    &#10;    &#10;    &#10;    &#10;    &#10;    &#10;    &#10;<text
   xml:space="preserve"
   style="fill:#002255;fill-opacity:1"
   x="363.95319"
   y="442.23965"
   id="text17"><tspan
     sodipodi:role="line"
     id="tspan17"
     x="363.95319"
     y="442.23965" /></text><path
   d="m 325.64505,453.48752 v -50.50691 h 17.89226 q 26.90884,0 26.90884,24.61948 0,11.79903 -7.36118,18.84323 -7.32597,7.0442 -19.54766,7.0442 z m 11.37638,-41.24379 v 32.01589 h 5.63536 q 7.39641,0 11.58771,-4.43785 4.22652,-4.43784 4.22652,-12.0808 0,-7.2203 -4.1913,-11.34116 -4.15608,-4.15608 -11.69337,-4.15608 z m 73.11879,26.38053 h -23.52763 q 0.56354,7.85428 9.8971,7.85428 5.95235,0 10.46064,-2.81768 v 8.03039 q -5.00138,2.67679 -12.99655,2.67679 -8.73481,0 -13.56008,-4.82527 -4.82528,-4.8605 -4.82528,-13.52487 0,-8.98135 5.21271,-14.22928 5.21271,-5.24793 12.82044,-5.24793 7.8895,0 12.18647,4.6844 4.33218,4.68439 4.33218,12.71478 z m -10.31975,-6.83287 q 0,-7.74862 -6.26934,-7.74862 -2.6768,0 -4.64917,2.21892 -1.93716,2.21892 -2.35981,5.5297 z m 74.21064,21.69613 h -11.09462 v -20.56906 q 0,-7.85429 -5.77624,-7.85429 -2.74724,0 -4.47306,2.35981 -1.72583,2.35981 -1.72583,5.88191 v 20.18163 h -11.12984 v -20.78039 q 0,-7.64296 -5.67058,-7.64296 -2.8529,0 -4.57873,2.25415 -1.69061,2.25414 -1.69061,6.12845 v 20.04075 h -11.12983 v -36.0663 h 11.12983 v 5.63536 h 0.14089 q 1.72583,-2.88812 4.82527,-4.68439 3.13467,-1.8315 6.83288,-1.8315 7.64295,0 10.46063,6.72721 4.12086,-6.72721 12.11603,-6.72721 11.76381,0 11.76381,14.51105 z m 25.99309,0.88052 q -9.01657,0 -14.19406,-5.0366 -5.14227,-5.07182 -5.14227,-13.73619 0,-8.94613 5.3536,-13.98273 5.35359,-5.07183 14.47582,-5.07183 8.98136,0 14.0884,5.07183 5.10705,5.0366 5.10705,13.34875 0,8.98136 -5.28315,14.19407 -5.24793,5.2127 -14.40539,5.2127 z m 0.28177,-29.30387 q -3.94475,0 -6.12845,2.71202 -2.18371,2.71202 -2.18371,7.67818 0,10.39019 8.3826,10.39019 7.99517,0 7.99517,-10.67196 0,-10.10843 -8.06561,-10.10843 z m 24.26726,27.47238 v -9.01657 q 2.74724,1.65538 5.45925,2.46547 2.74724,0.81008 5.17749,0.81008 2.95856,0 4.64917,-0.81008 1.72583,-0.81009 1.72583,-2.46547 0,-1.05663 -0.77486,-1.76105 -0.77487,-0.70442 -2.0076,-1.23274 -1.19751,-0.52831 -2.64157,-0.95096 -1.44407,-0.42266 -2.78246,-0.95097 -2.14848,-0.81008 -3.80387,-1.72583 -1.62017,-0.95097 -2.74724,-2.1837 -1.09185,-1.23274 -1.69061,-2.8529 -0.56353,-1.62017 -0.56353,-3.83909 0,-3.02901 1.30317,-5.21271 1.3384,-2.1837 3.5221,-3.55732 2.21893,-1.40884 5.03661,-2.04282 2.8529,-0.6692 5.91712,-0.6692 2.39503,0 4.8605,0.38743 2.46547,0.35221 4.8605,1.05663 v 8.59393 q -2.11326,-1.23274 -4.54351,-1.83149 -2.39503,-0.63398 -4.71961,-0.63398 -1.09185,0 -2.07804,0.21132 -0.95097,0.17611 -1.69061,0.56354 -0.73964,0.35221 -1.16229,0.95097 -0.42265,0.56353 -0.42265,1.30317 0,0.98619 0.63397,1.69061 0.63398,0.70442 1.65539,1.23274 1.02141,0.49309 2.25414,0.91574 1.26796,0.38743 2.50069,0.81009 2.21893,0.77486 4.0152,1.6906 1.79627,0.91575 3.06422,2.14848 1.30318,1.23274 1.97238,2.88813 0.70442,1.65538 0.70442,3.94475 0,3.20511 -1.40884,5.49447 -1.37362,2.25415 -3.6982,3.69821 -2.28937,1.40884 -5.31837,2.04281 -2.99379,0.6692 -6.23412,0.6692 -5.95235,0 -11.02417,-1.83149 z"
   id="path18"
   style="font-weight:bold;font-size:72.1326px;font-family:'Nirmala UI';-inkscape-font-specification:'Nirmala UI, Bold';fill:#002255;stroke-width:0.966061"
   transform="scale(0.96606093,1.0351314)"
   aria-label="Demos" /></svg>
