<?xml version="1.0" encoding="UTF-8" standalone="no"?>
<svg
   viewBox="0 0 1000 114"
   version="1.1"
   id="svg31"
   sodipodi:docname="amigademo.svg"
   inkscape:version="1.1 (c68e22c387, 2021-05-23)"
   xmlns:inkscape="http://www.inkscape.org/namespaces/inkscape"
   xmlns:sodipodi="http://sodipodi.sourceforge.net/DTD/sodipodi-0.dtd"
   xmlns="http://www.w3.org/2000/svg"
   xmlns:svg="http://www.w3.org/2000/svg">
  <defs
     id="defs35" />
  <sodipodi:namedview
     id="namedview33"
     pagecolor="#ffffff"
     bordercolor="#666666"
     borderopacity="1.0"
     inkscape:pageshadow="2"
     inkscape:pageopacity="0.0"
     inkscape:pagecheckerboard="0"
     showgrid="false"
     inkscape:zoom="5.364"
     inkscape:cx="451.06264"
     inkscape:cy="25.633855"
     inkscape:window-width="1920"
     inkscape:window-height="1017"
     inkscape:window-x="-8"
     inkscape:window-y="712"
     inkscape:window-maximized="1"
     inkscape:current-layer="svg31" />
  <g
     id="Layer_2"
     data-name="Layer 2">
    <rect
       x="457.94"
       y="22.13"
       width="83.4"
       height="70.47"
       fill="#fff"
       stroke="#333"
       stroke-miterlimit="10"
       id="rect23" />
  </g>
  <g
     id="Layer_1"
     data-name="Layer 1">
    <path
       d="M500,110.5a74,74,0,0,1-10-.55,52.5,52.5,0,0,1-23.93-11,93.12,93.12,0,0,1-8.46-8.51A53.51,53.51,0,0,1,447.05,67c-.73-3.92-.73-16.08,0-20a52.45,52.45,0,0,1,11-23.93,90.85,90.85,0,0,1,8.52-8.47A53.22,53.22,0,0,1,490.08,4.08l3.06-.49A47.45,47.45,0,0,1,498,3.5h2.75c7.43.07,9.49.33,14.76,1.84a52.27,52.27,0,0,1,18.44,9.7,90.65,90.65,0,0,1,8.46,8.51A53.47,53.47,0,0,1,553,47c.73,3.92.73,16.08,0,20a53.45,53.45,0,0,1-10.53,23.41A91.29,91.29,0,0,1,533.93,99,52.52,52.52,0,0,1,510,110,75.28,75.28,0,0,1,500,110.5Zm6.61-12.64,1.2-.45A45.45,45.45,0,0,0,518.17,92L517,91.55c-1.77-.65-3.24-1.18-4.32-1.56l-.56.66a71.12,71.12,0,0,1-6.59,6.84ZM477.79,87.42c1.13.39,3.25,1.16,5.2,1.88l1.16.43c.43-1.13,1-2.59,1.6-4.32s1.23-3.33,1.7-4.64l-4.23-1.52-6.84-2.49a63,63,0,0,0,.55,6.71C477.08,84.4,477.44,86,477.79,87.42Zm19.1-11c1.89.73,4.53,1.7,6.23,2.32L510,81.24c1.35-2.1,3.43-5.69,4.87-8.52,1-1.9,2-4.1,2.71-5.81l-9.53-3.47-5.78-2.11C500.81,65.42,498.26,72.52,496.89,76.4Zm-30-10.85,2.81,1a89.75,89.75,0,0,1,3.58-15.79l-4.49-1.64-4.88-1.77c0,.08,0,.15-.07.22a52.07,52.07,0,0,0-1.68,16.27h0Zm60.16-3c1.88.67,4.41,1.59,5.75,2.08l3.56,1.3a51.8,51.8,0,0,0,1.74-16.46l-.31-.11c-1.37-.48-4.23-1.49-6.63-2.37l-.64-.24A101.92,101.92,0,0,1,527,62.54ZM482.65,46.39c4.14,1.52,11.29,4.1,15.34,5.54,1.47-4,4-11.1,5.33-15.09l-4.16-1.53-8.91-3.23v0a79.56,79.56,0,0,0-5.46,9.54C484.1,43.08,483.3,44.89,482.65,46.39Zm30.14-13.88c1.47.52,3.52,1.26,6.42,2.32l4.69,1.7a55.93,55.93,0,0,0-1.43-10.67c-1.21-.39-3.72-1.32-5.22-1.88l-1.16-.43c-.43,1.12-1,2.57-1.61,4.3S513.26,31.2,512.79,32.51ZM482.06,21.32l5.52,2a61.23,61.23,0,0,1,7.18-7.48c-.37-.15-.71-.28-1-.42-.2.09-.42.16-.64.24A43.38,43.38,0,0,0,482.06,21.32Z"
       fill="#333"
       id="path26" />
    <path
       d="M498,7h2.73c7.16.07,8.87.29,13.81,1.71a48.81,48.81,0,0,1,17.18,9,91.48,91.48,0,0,1,8,8,50.44,50.44,0,0,1,9.82,21.86c.65,3.51.65,15.23,0,18.74a50.33,50.33,0,0,1-9.82,21.86,90.22,90.22,0,0,1-8,8,49.19,49.19,0,0,1-22.34,10.25,89.83,89.83,0,0,1-18.74,0,49.19,49.19,0,0,1-22.34-10.25,90.22,90.22,0,0,1-8-8,50.33,50.33,0,0,1-9.82-21.86c-.65-3.51-.65-15.23,0-18.74a49.1,49.1,0,0,1,10.26-22.34,87.4,87.4,0,0,1,8-8,49.37,49.37,0,0,1,21.86-9.78l3-.48c.25,0,2-.06,4.36-.06m-3.22,4.21a.35.35,0,0,0,.23-.07c.09-.06,0-.12-.21-.12h-.1c-.26,0-.34.07-.14.15a.57.57,0,0,0,.22,0m-6.13,16.12a6.21,6.21,0,0,0,1.51-1.63c2.57-3.44,8.24-8.82,11.12-10.55l.8-.48-2.84-1c-4.56-1.59-5.12-1.83-5.12-2.14a.34.34,0,0,0-.36-.31.34.34,0,0,0-.36.31c0,.17-.62.5-1.37.74a49.46,49.46,0,0,0-15.63,9c-1,.82-1.21,1.13-.94,1.27.6.36,12.9,4.78,13.19,4.78m25.13-8.69.86-2.29a19.56,19.56,0,0,0,.87-2.59c0-.14-.46-.43-1-.6a17.07,17.07,0,0,0-4.65-1,9,9,0,0,0-2.75.52A21.61,21.61,0,0,0,503,14.58a84.84,84.84,0,0,0,8.44,3.24l2.33.82m19.72,7.18-1.13-1.44A28.87,28.87,0,0,0,526.07,19c-1-.68-2.34-1.52-3-1.88L522,16.45l1.1,1.59a15.79,15.79,0,0,1,2.28,4.56c0,.17.68.53,1.52.82s2.64.93,4.06,1.46l2.57.94m-6.34,15.61.19-1.58a55.22,55.22,0,0,0-1.54-15.06l-.5-1.71-1.37-.43c-.75-.22-3.2-1.11-5.46-1.95s-4.2-1.53-4.32-1.53a76.66,76.66,0,0,0-3,7.49c-1.51,4.13-2.78,7.66-2.83,7.81a.21.21,0,0,0,.19.31c.19,0,4.45,1.51,9.47,3.34l9.13,3.31m-65.68,1,.21-.5a50.68,50.68,0,0,1,4.5-9.13,49.4,49.4,0,0,1,6.24-8.1l2-2.11L472.71,22a15.08,15.08,0,0,0-1.95-.62c-.43,0-6.05,5.81-7.49,7.73a55.33,55.33,0,0,0-5.36,9.18,14.92,14.92,0,0,0-1,2.45c.05.05,1.08.46,2.31.91l2.21.82m83.71,5.47a.08.08,0,0,0,.06,0c.24-.21-1.66-6.15-2.81-8.86A50.89,50.89,0,0,0,535,26.9a2.21,2.21,0,0,0-.55-.5c-.1,0,.14.44.72,1.34,2.88,4.54,5.22,11.08,6.42,18.11.14.82.24.92,1.87,1.52a9.91,9.91,0,0,0,1.77.52M500,56.33h0c.34-.31,7.79-21.41,7.62-21.55s-3.39-1.35-7.28-2.76-8.07-2.93-9.3-3.37l-2.21-.81-1.53,2.33a86.24,86.24,0,0,0-9.21,18.26c.17.14,21.64,7.9,21.91,7.9m38.65,14c.09,0,.13,0,.13-.07s.36-1.42.81-3a54.9,54.9,0,0,0,2-18l-.19-2.3-2.18-.75c-1.23-.43-4.3-1.51-6.85-2.45S527.7,42,527.65,42a6.31,6.31,0,0,0-.26,1.49A91.67,91.67,0,0,1,523,63.58l-.44,1.13,1.23.39c.67.21,4.2,1.49,7.83,2.81,5,1.83,6.64,2.4,7.08,2.4m-66,.94h0s.17-1.2.33-2.6a84.26,84.26,0,0,1,3.66-16.89,21.67,21.67,0,0,0,.88-3.14s-3.43-1.3-7.54-2.79-7.64-2.76-7.85-2.83L462,43c-.37,0-.57.55-1.49,3.58a55.63,55.63,0,0,0-1.82,17.54l.19,2.28,6.84,2.48c3.74,1.33,6.83,2.4,6.94,2.4m38.66,14.17.43-.5A88.35,88.35,0,0,0,518,74.3c1.87-3.7,4.27-9.25,4.11-9.42s-.92-.38-2-.77l-10.89-4c-4.92-1.8-9-3.27-9-3.27s-7.62,20.88-7.64,21.29,1.71,1,9.32,3.84l9.37,3.41M466,86.91l-.89-1.37c-3-4.61-5.14-10.79-6.42-18.14-.14-.74-.28-.91-1.05-1.17-.48-.15-1.4-.48-2-.72l-1.13-.44.14.77c.08.41.48,2,.92,3.53a49.91,49.91,0,0,0,8.36,16.39,3.41,3.41,0,0,0,1.2.79l.89.36M530,92a.44.44,0,0,0,.19,0,57.56,57.56,0,0,0,6.56-7A54.3,54.3,0,0,0,542,75.86c1.59-3.56,1.63-3.2-.65-4L539,71a.23.23,0,0,0-.11,0c-.22,0-.42.36-.71,1.25a51.66,51.66,0,0,1-4.71,9.21,43,43,0,0,1-5.72,7.23l-2,2.09,2,.72A8.76,8.76,0,0,0,530,92m-43.87,2.13a76.7,76.7,0,0,0,3-7.52c1.51-4.11,2.78-7.64,2.85-7.81a.2.2,0,0,0-.19-.29c-.17,0-3.46-1.15-7.3-2.54l-9.18-3.34-2.18-.8-.15,2A62.37,62.37,0,0,0,473.48,84c.21,1.34.82,4,1.3,5.67.12.36.55.62,1.51.91.74.24,3.22,1.13,5.48,2s4.2,1.54,4.32,1.54m13.9,9.1a37.32,37.32,0,0,0,7.34-.6l.6-.14-.67-.24c-.37-.15-.63-.36-.61-.48A9.39,9.39,0,0,1,509,100.7a49.89,49.89,0,0,0,14.32-8.24c1.37-1.13,1.75-1.59,1.51-1.73s-3.2-1.22-6.68-2.47S511.75,86,511.65,86a19.39,19.39,0,0,0-2.23,2.45,60.72,60.72,0,0,1-9,8.77,10.19,10.19,0,0,0-1.73,1.37c-.05.19,2.81,1.32,6.66,2.59.65.24,1.1.92.6.92-.12,0-1,.16-2,.38a44.1,44.1,0,0,1-4.81.55l-3,.19,3.41,0H500M479.8,98.45c.2,0-.22-.47-1.06-1.38a16.29,16.29,0,0,1-3.63-5.69c-.26-.94-.43-1.08-1.39-1.42-.6-.19-2.14-.74-3.39-1.2s-2.55-.91-2.86-1l-.57-.17.57.8a39.31,39.31,0,0,0,9.44,8.5,17.48,17.48,0,0,0,2.89,1.57m8.24,3a16,16,0,0,0,2.4-.31,34.16,34.16,0,0,0,4.27-1.08c1.64-.63,2.72-1.25,2.5-1.42a25.64,25.64,0,0,0-2.74-1.08c-1.44-.55-3.84-1.42-5.33-1.92l-2.69-.94-1,2.67a26.47,26.47,0,0,0-1,2.93,3.9,3.9,0,0,0,1.68.77,6.1,6.1,0,0,0,1.85.38M498,0a39.4,39.4,0,0,0-5.35.13c-.35,0-1.76.27-3.14.5a56.08,56.08,0,0,0-25.11,11.22l-.05,0a96.49,96.49,0,0,0-9,9A56,56,0,0,0,443.6,46.38c-.8,4.36-.8,16.89,0,21.26a57.12,57.12,0,0,0,11.25,25l0,.06a95.29,95.29,0,0,0,9,9,56,56,0,0,0,25.52,11.73,94.55,94.55,0,0,0,21.27,0,56,56,0,0,0,25.52-11.74,95.08,95.08,0,0,0,9-9l0-.06a57.12,57.12,0,0,0,11.25-25c.8-4.37.8-16.9,0-21.28a57.12,57.12,0,0,0-11.25-25l0,0a95.29,95.29,0,0,0-9-9A55.94,55.94,0,0,0,516.47,2c-5.6-1.61-8-1.9-15.68-2Zm19.29,30.4c.16-.43.32-.88.49-1.33l.37-1,1.35.49c.17.86.32,1.83.45,2.84l-2.66-1Zm-29.91,14,.57-1.23a72.06,72.06,0,0,1,3.75-6.83L498,38.59l.94.35c-.93,2.68-2,5.83-3,8.52l-8.52-3.08Zm44,16c.74-2.75,1.42-5.81,2-8.88l1.39.49a49.16,49.16,0,0,1-.86,9.3l-2.5-.91Zm-65.77,1A53.16,53.16,0,0,1,466.4,52l1.17.43,1.4.5c-.86,3-1.55,6-2.09,8.92l-1.32-.48Zm35.78,13c.94-2.66,2.07-5.81,3.05-8.52l2.48.9,4.82,1.76,1.17.42c-.36.76-.73,1.53-1.09,2.24-1,2-2.19,4.09-3.23,5.83l-4.22-1.54-3-1.09ZM480.76,84.76c-.17-.75-.3-1.42-.37-1.84s-.09-.65-.14-1l1.77.65.94.33-.48,1.31c-.14.37-.26.72-.39,1.06l-1.33-.48Z"
       fill="#fff"
       id="path28" />
  </g>
  <path
     style="fill:#ff0000;stroke-width:0.186428"
     d="m 495.24609,106.69722 c -5.60445,-0.31195 -9.81608,-1.31602 -15.39152,-3.6694 -3.51942,-1.48553 -7.80569,-4.037908 -10.80162,-6.432123 -1.67854,-1.341413 -5.85888,-5.40585 -7.84679,-7.629237 -2.12941,-2.381654 -4.28062,-5.695518 -6.13769,-9.454901 -2.26722,-4.589676 -3.66163,-8.689657 -4.47002,-13.143177 -0.41839,-2.304972 -0.60987,-12.366564 -0.30466,-16.008855 0.69061,-8.241548 4.54901,-17.540114 10.22114,-24.632458 1.88231,-2.353606 7.24539,-7.611039 9.42543,-9.239746 5.70051,-4.258851 12.16921,-7.128215 19.8061,-8.7855112 2.06443,-0.4480058 2.67394,-0.4918605 7.89523,-0.5680626 8.60045,-0.1255195 11.67927,0.188042 16.99632,1.73099 5.91758,1.7172108 12.37038,5.1118278 16.86833,8.8738968 2.15166,1.799644 6.71631,6.368689 8.16698,8.174861 2.2155,2.758416 4.68873,6.851872 6.20206,10.265081 1.52281,3.434571 3.02163,8.274597 3.63351,11.733428 0.3128,1.768184 0.44714,12.823747 0.19292,15.876247 -0.68143,8.182079 -5.19472,18.695064 -10.73349,25.001937 -2.33395,2.657614 -7.1978,7.261387 -9.23305,8.739331 -5.86316,4.257689 -12.43866,7.184469 -19.1847,8.539179 -2.99257,0.60095 -10.36234,0.90361 -15.30448,0.62852 z m 10.17882,-3.70206 c 1.19983,-0.15728 2.265,-0.33757 2.36705,-0.40064 0.10204,-0.0631 -0.0945,-0.25946 -0.43671,-0.43643 l -0.62224,-0.32177 0.6048,-0.31276 c 0.33264,-0.17201 1.33449,-0.59136 2.22633,-0.93188 4.77209,-1.822079 9.35792,-4.469327 13.46484,-7.772819 1.15009,-0.925093 1.85916,-1.627468 1.85916,-1.841592 0,-0.259655 -0.361,-0.484996 -1.44481,-0.901876 -1.58707,-0.610449 -9.23755,-3.328851 -10.84419,-3.853202 l -1.01011,-0.329665 -0.94739,1.007813 c -0.52106,0.554298 -1.67697,1.850209 -2.56869,2.879805 -2.41746,2.79123 -5.31412,5.475604 -8.79359,8.149131 -0.37266,0.286344 -0.67757,0.593113 -0.67757,0.681708 0,0.19906 2.04695,1.057034 4.72009,1.978407 1.10928,0.38235 2.19612,0.84032 2.41519,1.01771 0.39377,0.31886 0.38779,0.32488 -0.52546,0.52872 -1.0962,0.24467 -4.65308,0.69946 -7.26232,0.92857 -1.79094,0.15726 -1.72348,0.16475 1.71491,0.19022 2.29583,0.017 4.36141,-0.076 5.76071,-0.25945 z m -16.05131,-1.58375 c 3.13832,-0.44365 7.92319,-2.006339 7.92319,-2.587631 0,-0.106575 -0.2307,-0.310261 -0.51267,-0.452638 -0.97295,-0.491271 -9.81509,-3.665697 -10.21054,-3.665697 -0.22539,0 -1.84831,4.086204 -2.07694,5.229303 -0.0881,0.440433 -0.0163,0.564743 0.47195,0.817223 0.5939,0.30712 2.32619,0.82019 2.82037,0.83535 0.15381,0.005 0.86689,-0.0744 1.58464,-0.17591 z m -9.41461,-2.97369 c 0,-0.100492 -0.51697,-0.75066 -1.14881,-1.444817 -1.49422,-1.641568 -2.78807,-3.629914 -3.43494,-5.278658 -0.28482,-0.725969 -0.67482,-1.40395 -0.86667,-1.506624 -0.90003,-0.481679 -7.5139,-2.723835 -7.57048,-2.56645 -0.15046,0.418564 3.57768,4.437647 5.93663,6.399922 1.85152,1.540173 4.16744,3.142035 5.6901,3.935701 1.36599,0.712002 1.39417,0.721318 1.39417,0.460926 z m 7.18064,-6.369396 c 0.87951,-2.083661 4.93718,-13.077953 4.93718,-13.377319 0,-0.08772 -0.90185,-0.470237 -2.0041,-0.850045 -1.10226,-0.37981 -5.34647,-1.90642 -9.43158,-3.392472 -4.08511,-1.486051 -7.48276,-2.646653 -7.55034,-2.579114 -0.23,0.229892 -0.257,6.099219 -0.0406,8.832938 0.21854,2.760999 0.83463,6.281555 1.45486,8.313553 0.39643,1.298753 -0.32622,0.919974 6.57253,3.445022 2.51212,0.919473 4.70644,1.674807 4.87626,1.67852 0.21867,0.0048 0.56471,-0.599601 1.18582,-2.071083 z m 44.17864,-0.95162 c 2.01176,-1.793026 4.95599,-5.237696 6.6526,-7.783371 1.86163,-2.79327 4.9755,-8.868292 5.12786,-10.004228 0.066,-0.492317 0.0157,-0.794711 -0.15434,-0.926506 -0.38086,-0.295265 -4.08511,-1.575173 -4.25497,-1.470196 -0.0814,0.05032 -0.42193,0.784773 -0.75671,1.632116 -1.00249,2.537399 -3.30362,6.906918 -4.92077,9.343809 -1.80428,2.718887 -3.15865,4.404633 -5.61066,6.983432 -0.99944,1.051109 -1.78499,1.938846 -1.74568,1.972746 0.0907,0.07825 2.92974,0.993024 3.42717,1.104292 0.88549,0.19807 1.18556,0.08369 2.2355,-0.852094 z m -65.27106,-4.287845 c -0.076,-0.128169 -0.55715,-0.904176 -1.06931,-1.724459 -2.56261,-4.104337 -4.60988,-9.744234 -5.90983,-16.280606 -0.32916,-1.655086 -0.50451,-2.166905 -0.81043,-2.365492 -0.55627,-0.361108 -3.65264,-1.457288 -3.77389,-1.336037 -0.15835,0.158347 0.83338,3.885052 1.74552,6.559316 1.46383,4.29173 4.90338,10.757317 7.26713,13.6606 0.75547,0.927901 2.99227,2.231568 2.55081,1.486678 z m 46.3166,-2.609992 c 3.45453,-5.131777 7.40348,-12.710416 9.46875,-18.171988 0.40961,-1.08321 0.41733,-1.171894 0.11595,-1.33272 -0.2871,-0.153204 -14.70509,-5.462343 -19.82711,-7.300934 l -1.98001,-0.710742 -2.84796,7.862405 c -1.56638,4.324323 -3.30239,9.161812 -3.8578,10.749976 -0.98914,2.828372 -1.0024,2.893596 -0.64692,3.181447 0.39937,0.323393 4.44565,1.884647 12.99056,5.012399 3.07606,1.125953 5.61126,2.050466 5.63377,2.054472 0.0225,0.004 0.45036,-0.600934 0.95077,-1.344315 z m -39.14699,-16.21924 c 0.7048,-5.609284 1.67419,-10.053768 3.46642,-15.89299 0.4406,-1.435496 0.85174,-2.823216 0.91365,-3.08382 0.11037,-0.464605 0.0374,-0.501613 -3.74962,-1.90115 -8.14282,-3.00929 -11.80137,-4.276973 -12.05856,-4.178278 -0.34083,0.130787 -1.45422,3.638369 -2.04435,6.440438 -0.98482,4.676071 -1.40835,10.151458 -1.14111,14.751997 l 0.13564,2.334931 2.26739,0.823947 c 5.18542,1.884325 11.41527,4.085477 11.5927,4.095975 0.10842,0.0064 0.37433,-1.453067 0.61784,-3.39105 z m 66.26887,0 c 1.61679,-5.926191 2.00365,-8.516711 2.12837,-14.252134 0.054,-2.481199 0.0413,-5.039924 -0.0281,-5.686056 l -0.12625,-1.174785 -3.8581,-1.368087 c -2.12195,-0.752448 -5.22512,-1.874231 -6.89594,-2.492851 -1.67082,-0.618622 -3.08066,-1.08195 -3.133,-1.029618 -0.0523,0.05233 -0.25838,1.383848 -0.45789,2.958923 -0.74096,5.849554 -2.01285,11.706327 -3.63885,16.755984 -0.46957,1.458289 -0.89819,2.7672 -0.95248,2.908693 -0.0543,0.141493 -0.004,0.257262 0.11277,0.257262 0.11631,0 2.45331,0.806754 5.19332,1.792787 5.72709,2.060973 10.70056,3.800054 10.86751,3.800054 0.0631,0 0.41803,-1.111577 0.78868,-2.470172 z m -37.15676,-17.5498 c 4.01623,-11.12863 5.4933,-15.605854 5.20823,-15.786881 -0.47513,-0.301714 -18.35397,-6.885168 -18.69821,-6.885168 -0.153,0 -2.48805,3.592971 -4.10102,6.310289 -2.30587,3.884621 -6.21311,12.186048 -6.56593,13.950151 -0.0985,0.49249 -0.0474,0.567429 0.51253,0.75098 0.34208,0.112144 3.30652,1.186002 6.58766,2.386348 3.28113,1.200349 7.93717,2.879816 10.34675,3.732152 l 4.38106,1.5497 0.25238,-0.476484 c 0.13882,-0.262068 1.07326,-2.751056 2.07655,-5.531087 z m 42.78145,-3.610468 c -0.264,-1.124687 -1.82027,-5.792086 -2.48224,-7.444456 -1.26752,-3.163915 -3.8064,-7.612798 -6.07741,-10.64945 -2.23587,-2.98967 -2.8884,-3.26646 -1.24356,-0.527496 2.60583,4.339202 4.50068,9.474696 5.80133,15.723048 0.28936,1.390078 0.64022,2.641523 0.77968,2.780988 0.29255,0.292548 3.16621,1.376559 3.35053,1.263898 0.0677,-0.04139 0.01,-0.55733 -0.12833,-1.146532 z m -82.97019,-5.778583 c 0.82859,-2.235584 3.12197,-6.641469 4.73715,-9.100668 1.81986,-2.770844 3.43735,-4.820623 5.8374,-7.397491 1.77548,-1.906293 1.8449,-2.011243 1.43241,-2.165667 -2.30769,-0.863919 -3.35296,-1.141311 -3.66713,-0.973172 -0.57074,0.305451 -6.29182,6.282622 -7.24529,7.569604 -2.29454,3.097157 -6.1721,10.146128 -6.26194,11.383497 -0.036,0.495809 0.0534,0.554018 2.01304,1.311318 1.12789,0.435862 2.17854,0.798084 2.33479,0.804937 0.18815,0.0083 0.4649,-0.475412 0.81957,-1.432358 z m 65.23939,-0.352269 c 0.50236,-3.665099 -0.32905,-11.99132 -1.67468,-16.771128 -0.2485,-0.882721 -0.324,-0.967307 -1.05488,-1.181918 -0.43298,-0.127134 -2.75871,-0.948072 -5.16829,-1.824306 -2.40958,-0.876234 -4.60534,-1.657981 -4.87946,-1.737215 -0.48866,-0.141248 -0.5165,-0.101601 -1.42524,2.029358 -1.01542,2.381162 -4.88098,12.938132 -4.88098,13.330138 0,0.14546 0.92332,0.560253 2.28374,1.025947 1.25606,0.429968 5.47166,1.947051 9.36801,3.371296 3.89635,1.424245 7.13578,2.597015 7.19875,2.606155 0.063,0.0091 0.16783,-0.372608 0.23303,-0.848327 z M 489.39462,26.612603 c 0.30812,-0.333241 1.05114,-1.226315 1.65115,-1.984609 2.29384,-2.898974 8.14599,-8.309116 10.34861,-9.566982 0.41067,-0.234526 0.74697,-0.468357 0.74733,-0.519625 3.7e-4,-0.05127 -1.06863,-0.463276 -2.37552,-0.915575 -4.05457,-1.403227 -5.28048,-1.909388 -5.5084,-2.274339 -0.27962,-0.447748 -0.70977,-0.449571 -1.09074,-0.0046 -0.16369,0.191178 -0.9164,0.579451 -1.67268,0.86283 -3.75337,1.406391 -7.15406,3.121493 -10.3236,5.20661 -2.72285,1.791255 -5.87248,4.344872 -5.87248,4.761217 0,0.377135 0.15632,0.442742 6.52498,2.738366 2.40958,0.868551 4.80052,1.737585 5.3132,1.931187 1.30017,0.490986 1.61788,0.458 2.25815,-0.234457 z m 43.86528,-1.304997 c -0.96774,-1.410337 -4.41282,-4.556132 -6.60069,-6.027275 -2.65972,-1.788421 -4.56,-2.944297 -4.66607,-2.838225 -0.0422,0.04219 0.39343,0.778947 0.96805,1.637227 0.57463,0.85828 1.28977,2.112182 1.58921,2.786449 0.29945,0.674268 0.64733,1.435672 0.77308,1.692011 0.18991,0.387135 0.89071,0.709405 4.13789,1.902839 2.15008,0.790223 3.97788,1.440392 4.06176,1.444817 0.0839,0.0044 -0.0346,-0.264603 -0.26323,-0.597843 z m -18.56637,-9.090935 c 0.48027,-1.334373 0.87321,-2.513587 0.87321,-2.620475 0,-0.318752 -1.61188,-0.934502 -3.42684,-1.309073 -2.07064,-0.427337 -2.87605,-0.440488 -4.31736,-0.0705 -1.183,0.303682 -4.39548,1.808623 -4.73565,2.218495 -0.16128,0.19434 0.23235,0.425439 1.89693,1.113673 2.41711,0.999373 8.11185,3.049512 8.54453,3.076082 0.21019,0.01291 0.53655,-0.661625 1.16518,-2.408205 z m -19.63387,-5.217417 c 0,-0.102535 -0.16779,-0.186428 -0.37286,-0.186428 -0.20507,0 -0.37285,0.08389 -0.37285,0.186428 0,0.102536 0.16778,0.186428 0.37285,0.186428 0.20507,0 0.37286,-0.08389 0.37286,-0.186428 z"
     id="path230" />
</svg>
