<?xml version="1.0" encoding="UTF-8" standalone="no"?>
<!-- Generator: Adobe Illustrator 13.0.0, SVG Export Plug-In . SVG Version: 6.00 Build 14948)  -->

<svg
   version="1.1"
   id="Ebene_1"
   x="0px"
   y="0px"
   width="566.929px"
   height="79.219px"
   viewBox="0 0 566.929 79.219"
   enable-background="new 0 0 566.929 79.219"
   xml:space="preserve"
   sodipodi:docname="atari800.svg"
   inkscape:version="1.1 (c68e22c387, 2021-05-23)"
   xmlns:inkscape="http://www.inkscape.org/namespaces/inkscape"
   xmlns:sodipodi="http://sodipodi.sourceforge.net/DTD/sodipodi-0.dtd"
   xmlns="http://www.w3.org/2000/svg"
   xmlns:svg="http://www.w3.org/2000/svg"
   xmlns:ns="&amp;ns_sfw;"><defs
   id="defs40" /><sodipodi:namedview
   id="namedview38"
   pagecolor="#ffffff"
   bordercolor="#666666"
   borderopacity="1.0"
   inkscape:pageshadow="2"
   inkscape:pageopacity="0.0"
   inkscape:pagecheckerboard="0"
   showgrid="false"
   inkscape:zoom="4.579096"
   inkscape:cx="557.20606"
   inkscape:cy="39.418261"
   inkscape:window-width="1366"
   inkscape:window-height="705"
   inkscape:window-x="-8"
   inkscape:window-y="-8"
   inkscape:window-maximized="1"
   inkscape:current-layer="Ebene_1" />
<metadata
   id="metadata2">
	<ns:sfw>
		<ns:slices />
		<ns:sliceSourceBounds
   x="677.036"
   y="499.891"
   width="566.929"
   height="79.219"
   bottomLeftOrigin="true" />
	</ns:sfw>
</metadata>
<g
   id="g17">
	<g
   id="g15">
		<g
   id="_x23_ffffffff">
			<path
   fill="#6B553F"
   d="M123.437,3.436c3.074-3.934,9.436-4.604,13.207-1.307c1.542,1.299,2.622,3.091,3.175,5.02     c6.981,24.021,13.994,48.033,20.966,72.058c-4.12,0.004-8.242-0.006-12.362,0.004c-1.943-6.623-3.841-13.258-5.759-19.889     c-7.967-0.018-15.932-0.004-23.898-0.008c-1.951,6.627-3.876,13.258-5.792,19.896c-4.098-0.014-8.195-0.004-12.294-0.008     c6.633-22.914,13.273-45.832,19.938-68.739C121.41,8.071,121.708,5.392,123.437,3.436 M130.71,18.154     c-2.921,9.952-5.783,19.924-8.688,29.881c5.791,0.027,11.579,0.01,17.367,0.01C136.491,38.082,133.608,28.119,130.71,18.154z"
   id="path4" />
			<path
   fill="#6B553F"
   d="M210.231,3.953c2.147-3.114,6.298-4.627,9.953-3.666c3.345,0.771,5.905,3.654,6.788,6.899     c6.975,24.005,13.973,48.001,20.947,72.005c-4.125,0.033-8.25,0-12.375,0.018c-1.918-6.629-3.816-13.266-5.748-19.895     c-7.954,0.004-15.907-0.016-23.86,0.006c-1.901,6.635-3.86,13.252-5.763,19.885c-4.094,0.004-8.186-0.002-12.28,0.004     c6.629-23.041,13.336-46.063,20.019-69.087C208.613,8.041,208.883,5.749,210.231,3.953 M209.228,48.045     c5.766,0.008,11.53,0.004,17.296,0.004c-2.868-9.984-5.782-19.956-8.644-29.939C215.001,28.09,212.094,38.061,209.228,48.045z"
   id="path6" />
			<path
   fill="#6B553F"
   d="M151.56,0.167c14.906,0,29.811,0,44.712,0c0,4.021,0,8.038,0,12.059     c-5.487,0.004-10.974-0.006-16.459,0.004c0,22.325,0.004,44.653-0.003,66.977c-3.929,0-7.862,0-11.792,0     c0-22.324-0.003-44.651,0.004-66.977c-5.489-0.01-10.974,0-16.462-0.004C151.56,8.206,151.557,4.189,151.56,0.167z"
   id="path8" />
			<path
   fill="#6B553F"
   d="M261.023,0.657c1.133-0.391,2.342-0.524,3.537-0.495c4.699,0.017,9.398,0.003,14.098,0.006     c7.914,0.145,15.468,5.056,18.894,12.179c2.371,4.626,2.615,10.005,2.018,15.079c-0.41,5.313-2.64,10.625-6.723,14.145     c-2.158,1.926-4.846,3.09-7.153,4.801c-1.269,0.967-1.329,2.842-0.676,4.186c6.237,9.629,12.724,19.104,19.09,28.652     c-4.657,0.008-9.313-0.014-13.972,0.008c-6.098-9.156-12.13-18.359-18.202-27.529c-1.785-2.609-2.27-6.066-1.201-9.045     c0.834-2.285,2.831-3.958,5.055-4.82c4.246-1.619,8.431-4.166,10.782-8.172c1.788-3.01,1.697-6.725,0.893-10.021     c-0.942-4.277-5.11-7.644-9.513-7.495c-3.047,0.021-6.091-0.016-9.132,0.014c-1.377-0.032-2.672,1.165-2.655,2.561     c-0.014,21.501,0.008,43.004-0.006,64.504c-3.96-0.006-7.917,0-11.878-0.004c-0.007-23.146,0.007-46.297-0.007-69.443     C254.291,5.707,257.176,1.89,261.023,0.657z"
   id="path10" />
			<path
   fill="#6B553F"
   d="M310.335,0.167c4.164,0,8.328,0,12.498,0c-0.004,26.349,0.006,52.692-0.008,79.042     c-4.162-0.01-8.326,0-12.49-0.004C310.335,52.857,310.335,26.512,310.335,0.167z"
   id="path12" />
		</g>
	</g>
</g>
<g
   id="g21">
	<path
   fill="#6B553F"
   d="M527.328,79.205c-21.836,0-39.604-17.766-39.604-39.603C487.724,17.764,505.492,0,527.328,0   c21.838,0,39.602,17.765,39.602,39.603C566.929,61.439,549.166,79.205,527.328,79.205z M527.328,2.908   c-20.234,0-36.695,16.461-36.695,36.694c0,20.234,16.461,36.695,36.695,36.695c20.232,0,36.693-16.461,36.693-36.695   C564.021,19.37,547.56,2.908,527.328,2.908z M527.328,66.582c-14.873,0-26.977-12.102-26.977-26.976   c0-14.875,12.104-26.976,26.977-26.976s26.975,12.101,26.975,26.976C554.302,54.48,542.201,66.582,527.328,66.582z M527.328,15.54   c-13.271,0-24.068,10.797-24.068,24.066c0,13.271,10.797,24.068,24.068,24.068c13.27,0,24.066-10.797,24.066-24.068   C551.394,26.336,540.597,15.54,527.328,15.54z"
   id="path19" />
</g>
<g
   id="g25">
	<path
   fill="#6B553F"
   d="M446.257,79.205c-21.836,0-39.604-17.766-39.604-39.603C406.654,17.764,424.421,0,446.257,0   c21.838,0,39.602,17.765,39.602,39.603C485.859,61.439,468.095,79.205,446.257,79.205z M446.257,2.908   c-20.232,0-36.695,16.461-36.695,36.694c0,20.234,16.463,36.695,36.695,36.695s36.693-16.461,36.693-36.695   C482.951,19.37,466.49,2.908,446.257,2.908z M446.257,66.582c-14.875,0-26.977-12.102-26.977-26.976   c0-14.875,12.102-26.976,26.977-26.976c14.873,0,26.975,12.101,26.975,26.976C473.232,54.48,461.13,66.582,446.257,66.582z    M446.257,15.54c-13.271,0-24.068,10.797-24.068,24.066c0,13.271,10.797,24.068,24.068,24.068s24.066-10.797,24.066-24.068   C470.324,26.336,459.527,15.54,446.257,15.54z"
   id="path23" />
</g>
<g
   id="g29">
	<path
   fill="#6B553F"
   d="M378.4,79.205c-15.295,0-27.736-12.441-27.736-27.738c0-9.178,4.637-17.842,12.197-22.976   c-1.932-2.98-2.943-6.41-2.943-10.009C359.917,8.292,368.208,0,378.4,0s18.484,8.292,18.484,18.481   c0,3.599-1.016,7.027-2.947,10.009c7.563,5.134,12.199,13.796,12.199,22.976C406.138,66.764,393.695,79.205,378.4,79.205z    M378.4,2.908c-8.588,0-15.576,6.986-15.576,15.574c0,3.479,1.127,6.773,3.256,9.524l1.006,1.297l-1.41,0.841   c-7.467,4.467-12.104,12.637-12.104,21.323c0,13.689,11.139,24.83,24.828,24.83c13.691,0,24.83-11.141,24.83-24.83   c0-8.688-4.639-16.857-12.105-21.323l-1.406-0.841l1.002-1.297c2.131-2.751,3.256-6.045,3.256-9.524   C393.976,9.895,386.988,2.908,378.4,2.908z M378.4,67.693c-8.945,0-16.225-7.275-16.225-16.227c0-8.943,7.277-16.225,16.225-16.225   c8.945,0,16.225,7.277,16.225,16.225C394.625,60.418,387.347,67.693,378.4,67.693z M378.4,38.151   c-7.344,0-13.316,5.976-13.316,13.318c0,7.344,5.975,13.318,13.316,13.318c7.344,0,13.316-5.975,13.316-13.318   C391.716,44.127,385.744,38.151,378.4,38.151z M378.4,26.639c-4.496,0-8.152-3.658-8.152-8.154c0-4.495,3.656-8.151,8.152-8.151   s8.152,3.656,8.152,8.151C386.554,22.981,382.896,26.639,378.4,26.639z M378.4,13.24c-2.893,0-5.244,2.354-5.244,5.244   c0,2.894,2.352,5.246,5.244,5.246c2.895,0,5.246-2.354,5.246-5.246C383.646,15.593,381.294,13.24,378.4,13.24z"
   id="path27" />
</g>
<g
   id="g35">
	<g
   id="g33">
		<path
   fill="#6B553F"
   d="M70.453,0.003H8.761C3.942,0.003,0,3.946,0,8.765v61.692c0,4.818,3.942,8.762,8.761,8.762h61.692    c4.819,0,8.762-3.943,8.762-8.762V8.765C79.215,3.947,75.273,0.003,70.453,0.003z M34.269,31.85    c-0.175,3.69-0.406,7.389-1.017,11.037c-0.42,2.516-1.291,4.943-2.369,7.246c-1.761,3.711-4.528,6.852-7.639,9.492    c-2.782,2.449-6.104,4.232-9.597,5.438c-1.976,0.684-4.01,1.205-6.08,1.498c0.002-2.57,0.002-5.143,0-7.713    c2.492-0.375,4.889-1.26,7.114-2.43c2.641-1.396,5.018-3.273,7.019-5.488c2.067-2.285,3.713-4.932,4.963-7.742    c1.472-3.229,2.26-6.721,2.795-10.213c0.672-4.442,0.951-8.938,1.055-13.425c0.017-1.52,0.004-3.042,0.008-4.564    c1.303-0.004,2.606,0,3.911-0.002c0.005,3.064,0,6.131,0.002,9.195C34.447,26.736,34.375,29.293,34.269,31.85z M43.205,14.983    c0.001,17.192,0.001,34.386,0,51.576c-2.395,0.006-4.789-0.01-7.183,0.012c-0.031-5.481-0.005-10.967-0.013-16.446    c-0.003-11.71,0.005-23.422-0.004-35.134C38.405,14.974,40.805,14.987,43.205,14.983C43.205,14.982,43.205,14.982,43.205,14.983z     M71.648,66.555c-2.056-0.279-4.072-0.811-6.034-1.477c-2.336-0.813-4.596-1.865-6.672-3.217    c-1.515-0.973-2.892-2.139-4.216-3.355c-2.182-2.014-4.134-4.299-5.601-6.889c-1.147-2.018-1.985-4.195-2.64-6.416    c-0.601-2.232-0.857-4.543-1.09-6.837c-0.451-4.962-0.62-9.947-0.588-14.928c0-2.817-0.001-5.634,0-8.453    c1.297-0.001,2.593-0.004,3.888,0.001c-0.042,5.241,0.137,10.495,0.761,15.701c0.512,4.045,1.233,8.121,2.844,11.889    c1.527,3.646,3.729,7.035,6.598,9.768c2.74,2.613,6.06,4.621,9.667,5.777c1.007,0.32,2.036,0.572,3.083,0.727    C71.647,61.416,71.646,63.984,71.648,66.555z"
   id="path31" />
	</g>
</g>
<path
   style="fill:#ffffff;stroke-width:0.53585"
   d="M 5.8946219,78.442083 C 4.142448,77.735222 2.2592346,75.949369 1.1547487,73.947263 0.36358449,72.513115 0.25123984,68.992737 0.11324434,41.31119 0.01001476,20.603598 0.15081866,9.3565809 0.53655277,7.4985097 1.2213304,4.1999535 3.4521722,1.6244353 6.3564156,0.77944873 7.6608228,0.39993279 19.061852,0.26583041 40.819596,0.37408232 72.843032,0.53340936 73.356339,0.55276018 74.846054,1.6568193 75.677945,2.2733526 76.901135,3.574957 77.564249,4.5492736 L 78.769911,6.320758 V 39.65288 72.985 l -1.205662,1.771487 c -0.663114,0.974314 -1.886309,2.27592 -2.718211,2.892453 -1.49247,1.106095 -1.951136,1.12238 -34.562305,1.227219 C 19.058684,78.944394 6.7547722,78.789089 5.8946219,78.442083 Z M 12.669987,65.590252 C 22.845498,62.479404 30.987345,54.09485 33.17351,44.475528 34.012825,40.782467 34.803479,29.769233 34.818074,21.567952 l 0.01216,-6.832084 H 32.494916 30.159597 L 29.86396,23.175501 C 29.504435,33.438889 28.537831,38.272459 25.679136,44.101999 22.301813,50.989141 17.13248,55.611921 10.315107,57.841592 l -2.8132108,0.920081 v 3.975812 c 0,4.591064 -0.1845696,4.489177 5.1680908,2.852767 z M 43.403828,40.72458 V 14.735868 H 39.65288 35.901932 V 40.72458 66.713292 h 3.750948 3.750948 z M 71.803864,62.74429 V 58.775289 L 68.764465,57.819285 C 60.070657,55.084747 53.614241,47.563835 50.921197,37.034127 50.017678,33.501404 48.770938,21.617959 48.764505,16.477379 48.76241,14.803212 48.67944,14.735868 46.618927,14.735868 h -2.143399 l 0.0046,7.903783 c 0.006,10.364063 0.815291,19.376724 2.134907,23.775672 2.66701,8.890483 11.127315,16.856211 20.692029,19.482395 4.597291,1.262279 4.496819,1.332738 4.496819,-3.153428 z"
   id="path930" /><path
   style="fill:#ffffff;stroke-width:0.53585"
   d="m 101.52245,77.564249 c 0.99077,-4.021638 20.79949,-71.7493572 21.20845,-72.5134877 0.91782,-1.7149757 4.26453,-4.1982456 6.1295,-4.54811646 3.99263,-0.74902048 7.86756,1.12800056 9.71872,4.70775756 0.63976,1.2371645 19.87293,66.3241646 21.4188,72.4834196 l 0.33733,1.344013 h -5.83727 -5.83727 l -2.86641,-9.91322 -2.86641,-9.91322 h -12.20036 -12.20035 l -1.09237,3.616986 c -0.60079,1.989342 -1.89023,6.449921 -2.8654,9.912406 l -1.77304,6.295414 -5.81848,8.2e-4 -5.81847,8.14e-4 z m 38.17846,-29.73966 c -0.13484,-0.368397 -2.14428,-7.239118 -4.46541,-15.268268 -2.32113,-8.029151 -4.35055,-14.600008 -4.50981,-14.601905 -0.15926,-0.0019 -2.18247,6.567407 -4.49603,14.598455 -2.31356,8.031048 -4.31896,14.903321 -4.45645,15.271718 -0.19391,0.519567 1.81621,0.669812 8.96145,0.669812 7.14267,0 9.15637,-0.150431 8.96625,-0.669812 z"
   id="path969" /><path
   style="fill:#ffffff;stroke-width:0.53585"
   d="M 168.25682,45.547227 V 12.056619 h -8.30568 -8.30567 V 6.1622719 0.26792487 H 173.88324 196.121 V 6.1622719 12.056619 h -8.30567 -8.30567 v 33.490608 33.490608 h -5.62642 -5.62642 z"
   id="path1008" /><path
   style="fill:#ffffff;stroke-width:0.53585"
   d="m 188.62896,77.581594 c 0.27612,-0.820011 5.10516,-17.391217 10.7312,-36.824896 6.1088,-21.101303 10.67893,-35.9656195 11.34577,-36.9021104 1.31792,-1.8508546 4.79139,-3.55833263 7.2723,-3.5748944 2.34967,-0.0156858 5.64486,1.7255972 7.08027,3.7414456 0.724,1.0167601 5.07768,15.0840242 11.52446,37.2369172 5.6985,19.581562 10.51636,36.092651 10.70637,36.691308 0.33297,1.049113 0.13194,1.088471 -5.55968,1.088471 h -5.90513 l -0.99897,-3.34906 c -0.54943,-1.841984 -1.82677,-6.307091 -2.83853,-9.922458 l -1.83956,-6.573392 -12.283,0.143195 -12.283,0.1432 -2.78371,9.645295 -2.78371,9.645296 -5.94356,0.151307 -5.94357,0.151308 z m 38.03548,-29.615869 c 0,-0.445812 -7.5862,-27.193017 -8.34474,-29.421642 -0.13975,-0.410579 -0.37875,-0.621845 -0.53111,-0.46948 -0.22808,0.228079 -7.57962,25.156009 -8.61559,29.214136 l -0.30779,1.205662 h 8.89962 c 5.49533,0 8.89961,-0.202229 8.89961,-0.528676 z"
   id="path1047" /><path
   style="fill:#ffffff;stroke-width:0.53585"
   d="m 254.65158,42.962356 0.14497,-36.0754786 1.33962,-1.9789986 c 0.77742,-1.1484635 2.45197,-2.5373661 3.99012,-3.3094762 2.47575,-1.24275603 3.18944,-1.33047773 10.82459,-1.33047773 4.49574,0 9.45189,0.26734454 11.01367,0.59409895 6.7582,1.41395318 13.69405,7.13896128 15.97424,13.18550218 2.37832,6.306771 1.91815,15.672371 -1.05753,21.523283 -1.79313,3.525724 -4.02301,5.79466 -8.69109,8.843334 -5.46605,3.569814 -5.54635,3.28691 5.69677,20.070442 5.1722,7.720984 9.40401,14.154048 9.40401,14.2957 0,0.141651 -2.90436,0.25755 -6.45414,0.25755 h -6.45414 l -9.36973,-14.208018 c -5.15336,-7.814409 -9.60353,-14.822948 -9.88928,-15.574527 -0.28575,-0.751578 -0.51955,-2.400245 -0.51955,-3.663703 0,-3.61139 1.66262,-5.561078 6.97482,-8.17909 5.37413,-2.648531 9.26255,-6.443435 10.21701,-9.971289 0.67211,-2.484201 0.32073,-7.77897 -0.64032,-9.648904 -0.89432,-1.740073 -3.21915,-4.117219 -4.87016,-4.979749 -2.17077,-1.134059 -14.50961,-1.066217 -15.66194,0.08611 -0.74708,0.747072 -0.84205,4.524566 -0.84205,33.490608 v 32.648558 h -5.63743 -5.63742 z"
   id="path1086" /><path
   style="fill:#ffffff;stroke-width:0.53585"
   d="M 310.79284,39.65288 V 0.26792487 h 5.89435 5.89435 V 39.65288 79.037835 h -5.89435 -5.89435 z"
   id="path1125" /><path
   style="fill:#ffffff;stroke-width:0.218384"
   d="m 376.03688,26.13373 c -2.32058,-0.769535 -4.00391,-2.305878 -5.06522,-4.622934 -0.34239,-0.747528 -0.45414,-1.453124 -0.4669,-2.94818 -0.0148,-1.728407 0.0596,-2.130913 0.61673,-3.337346 1.49079,-3.228322 5.20781,-5.2678734 8.49356,-4.660469 6.59544,1.219234 9.07372,9.192705 4.25746,13.697746 -2.14029,2.001995 -5.22196,2.737911 -7.83563,1.871183 z m 4.65593,-2.812155 c 1.0413,-0.416644 2.41294,-1.952021 2.75056,-3.078899 1.09162,-3.643508 -1.33401,-7.022056 -5.046,-7.028328 -2.10103,-0.0035 -3.80793,1.031739 -4.76605,2.890753 -1.55709,3.021201 0.20803,6.761317 3.58986,7.60655 0.86442,0.216048 2.38331,0.04538 3.47163,-0.390076 z"
   id="path1164" /><path
   style="fill:#ffffff;stroke-width:0.218384"
   d="m 375.53456,78.932074 c -12.1881,-1.414227 -21.95367,-10.426181 -24.29469,-22.419854 -0.50609,-2.592821 -0.51046,-7.395023 -0.009,-9.92709 1.08475,-5.477653 3.48337,-10.16992 7.19744,-14.079869 1.19659,-1.259698 3.33212,-3.125416 4.4943,-3.926485 0.0429,-0.02958 -0.22166,-0.5776 -0.58795,-1.217816 -0.3663,-0.640216 -0.98856,-2.095569 -1.38282,-3.234117 -0.69263,-2.000207 -0.71702,-2.188039 -0.72235,-5.564227 -0.005,-3.065428 0.0573,-3.694154 0.50638,-5.124321 1.56245,-4.9757993 5.06835,-9.1645036 9.5758,-11.4407834 3.35912,-1.69637107 7.93053,-2.27378811 11.73999,-1.48288587 6.71637,1.39442347 11.95867,6.27194767 14.01084,13.03594127 0.52003,1.714031 0.59279,2.317636 0.59103,4.902857 -0.002,3.533639 -0.43103,5.394578 -1.88955,8.204071 l -0.95932,1.847911 1.4447,1.124001 c 4.34547,3.38086 7.85015,8.412761 9.47966,13.610569 2.00688,6.401543 1.53696,13.797953 -1.25049,19.682317 -4.28036,9.035926 -12.44965,14.915154 -22.24213,16.007081 -2.33609,0.260491 -3.47547,0.26103 -5.70181,0.0027 z m 7.78925,-3.056038 c 10.32599,-2.104302 18.1434,-10.303449 19.70564,-20.667872 0.4054,-2.689597 0.40802,-4.632301 0.01,-7.273846 -0.82731,-5.487944 -3.29345,-10.362895 -7.21155,-14.255441 -1.50794,-1.498114 -5.31032,-4.306267 -5.83089,-4.306267 -0.098,0 0.25036,-0.565068 0.77412,-1.255706 2.17237,-2.864505 3.21619,-5.937705 3.22684,-9.500371 0.008,-2.644446 -0.40093,-4.597174 -1.42037,-6.784297 -2.3562,-5.0550159 -7.13125,-8.377118 -12.92831,-8.9944887 -2.71783,-0.2894415 -6.68053,0.6181846 -9.2342,2.1150238 -1.87231,1.0974607 -4.80121,4.1359795 -5.75117,5.9664149 -2.91596,5.618623 -2.43309,12.04365 1.28772,17.134157 l 0.87137,1.192146 -1.98913,1.308284 c -5.72665,3.766497 -9.59227,9.579946 -10.95895,16.481 -0.54141,2.733874 -0.34438,7.911518 0.40993,10.772666 0.64138,2.432755 1.84598,5.126721 3.29173,7.361628 1.2126,1.874485 4.08428,4.91072 6.00511,6.349216 2.80831,2.10312 6.82711,3.841669 10.36357,4.483324 2.51262,0.455889 6.80765,0.398382 9.37873,-0.125571 z"
   id="path1203" /><path
   style="fill:#ffffff;stroke-width:0.218384"
   d="m 442.61319,78.921148 c -8.70702,-0.839812 -17.09679,-4.680361 -23.43572,-10.72807 -6.15202,-5.869387 -9.9767,-12.776506 -11.70108,-21.131387 -0.45575,-2.208196 -0.51833,-3.104663 -0.51833,-7.425046 0,-4.260741 0.0666,-5.242511 0.50146,-7.388749 2.47054,-12.194153 10.24049,-22.448487 21.11853,-27.871005 9.57838,-4.77466327 20.14504,-5.5516303 30.11774,-2.2145581 16.04651,5.3694981 26.9896,20.4935581 26.9896,37.3013801 0,4.718082 -0.54697,8.163227 -1.98266,12.488166 -5.77547,17.398159 -23.01395,28.7127 -41.08954,26.969269 z m 10.8606,-3.225449 c 11.44242,-2.458258 20.89659,-9.765452 25.84933,-19.979118 4.90783,-10.121057 4.9534,-21.806615 0.1248,-31.9999 C 476.0837,16.614747 469.43648,9.9030753 462.46045,6.5644868 452.63988,1.8645665 441.73561,1.5810853 431.85398,5.7688024 c -9.6239,4.0784944 -17.15692,12.2121196 -20.42232,22.0506016 -3.18453,9.594828 -2.50458,19.310764 1.98088,28.305211 4.99998,10.026191 14.69096,17.422876 25.59046,19.532041 3.30606,0.639758 3.19805,0.632014 7.91928,0.567706 3.47777,-0.04737 4.81263,-0.155087 6.55151,-0.528663 z"
   id="path1242" /><path
   style="fill:#ffffff;stroke-width:0.218384"
   d="m 443.64652,66.367958 c -2.62949,-0.384095 -3.77003,-0.642574 -5.75947,-1.305255 -16.45265,-5.480348 -23.48544,-24.599777 -14.50995,-39.446918 2.14478,-3.547874 5.74355,-7.061261 9.45909,-9.234662 6.35932,-3.719876 14.36413,-4.609582 21.436,-2.382536 8.90047,2.802903 15.80944,10.190309 18.11729,19.371873 0.64733,2.575341 0.81011,8.07098 0.3182,10.743051 -0.92315,5.014651 -3.10522,9.568138 -6.29383,13.133776 -4.01685,4.491821 -8.77188,7.301921 -14.57794,8.615189 -1.79506,0.406026 -6.76864,0.713015 -8.18939,0.505482 z m 5.52282,-2.808427 c 3.16855,-0.263371 7.40609,-1.794555 10.33081,-3.732914 2.14574,-1.422089 5.13698,-4.327059 6.52901,-6.340708 1.52006,-2.198847 2.96081,-5.30952 3.65545,-7.892335 0.51686,-1.921825 0.57425,-2.51715 0.57425,-5.956929 0,-3.429939 -0.0583,-4.038188 -0.56828,-5.933385 -1.19878,-4.454524 -3.30887,-8.151483 -6.39812,-11.209737 -6.15531,-6.093544 -14.89703,-8.422801 -23.35846,-6.22393 -2.55646,0.664347 -6.64367,2.746406 -8.79718,4.481357 -4.1059,3.307876 -6.87777,7.661452 -8.40492,13.200992 -0.37825,1.37207 -0.45538,2.29601 -0.46546,5.575511 -0.0133,4.329077 0.23981,5.769071 1.6198,9.215432 2.19686,5.486402 6.81823,10.313132 12.29877,12.8453 3.04548,1.407097 7.82931,2.365035 10.73727,2.150084 0.48044,-0.03551 1.49162,-0.115947 2.24706,-0.178738 z"
   id="path1281" /><path
   style="fill:#ffffff;stroke-width:0.218384"
   d="m 375.78671,67.378592 c -3.25692,-0.593689 -6.2473,-2.151992 -8.59528,-4.479045 -2.48367,-2.461523 -3.87687,-4.986535 -4.54642,-8.239815 -1.07295,-5.213446 0.50487,-10.553809 4.23964,-14.349615 2.63144,-2.674453 5.89983,-4.317288 9.59167,-4.821193 4.48574,-0.612265 9.38786,0.995213 12.8168,4.202821 3.42692,3.205717 5.15035,7.179834 5.13752,11.846812 -0.0199,7.226604 -4.93052,13.605625 -11.93156,15.49928 -1.55076,0.419456 -5.25034,0.607264 -6.71237,0.340755 z m 6.9404,-3.257802 c 4.26409,-1.449832 7.59604,-5.084975 8.72242,-9.516147 0.46275,-1.820455 0.41965,-4.505322 -0.10528,-6.557785 -1.17889,-4.609405 -5.03568,-8.426254 -9.70999,-9.609436 -1.65909,-0.419955 -4.63151,-0.417304 -6.42613,0.0057 -4.16713,0.982295 -7.9965,4.419822 -9.41289,8.44971 -2.41138,6.860822 0.81941,14.175972 7.48682,16.951622 3.01581,1.255486 6.28399,1.351092 9.44505,0.276304 z"
   id="path1320" /><path
   style="fill:#ffffff;stroke-width:0.218384"
   d="M 523.77184,78.92656 C 499.9905,76.802433 483.38463,53.68962 488.9319,30.43475 491.77481,18.516927 500.41386,8.2637078 511.73239,3.3740985 c 13.8215,-5.9708956 29.45285,-3.61460088 41.14987,6.2029963 12.10542,10.1603732 16.90303,27.1119742 11.95412,42.2379542 -2.76906,8.463415 -8.56423,15.994799 -16.04907,20.857342 -5.36699,3.486672 -11.69627,5.674144 -18.11488,6.260709 -2.79143,0.255094 -3.98403,0.253965 -6.90059,-0.0066 z m 10.87018,-3.238644 c 7.5898,-1.641966 13.93987,-5.177839 19.24892,-10.718253 4.89302,-5.106266 8.01641,-11.093509 9.56997,-18.344739 0.41829,-1.952373 0.49278,-2.974341 0.50141,-6.879087 0.009,-3.930224 -0.0609,-4.937567 -0.4863,-7.044055 C 560.31651,17.0581 548.09286,5.431927 532.40406,3.1485802 529.50714,2.7269619 524.0269,2.8266141 521.03939,3.3552343 511.44979,5.052054 502.88997,10.478464 497.2092,18.46213 c -2.64032,3.710675 -4.90129,8.873484 -5.84448,13.345605 -3.25757,15.445701 3.53216,31.187486 16.94661,39.290194 4.30256,2.598873 9.02474,4.219964 14.82687,5.089957 0.36033,0.05403 2.6206,0.06651 5.02282,0.02773 3.41175,-0.05507 4.83021,-0.170569 6.481,-0.5277 z"
   id="path1359" /><path
   style="fill:#ffffff;stroke-width:0.218384"
   d=""
   id="path1398" /><path
   style="fill:#ffffff;stroke-width:0.218384"
   d="m 524.55769,66.36178 c -6.10684,-0.777856 -11.36109,-3.241862 -15.64912,-7.338723 -5.47052,-5.226635 -8.37309,-11.947016 -8.37309,-19.386412 0,-5.520069 1.44825,-10.312845 4.50416,-14.905906 3.29448,-4.95162 8.24437,-8.708754 14.025,-10.645443 7.03352,-2.356445 15.48768,-1.434311 21.83724,2.381886 5.78506,3.476926 9.99043,8.766976 11.99531,15.089265 0.9478,2.988822 1.23658,4.958492 1.2167,8.298581 -0.0193,3.235246 -0.35065,5.209138 -1.40861,8.390388 -2.96071,8.902764 -10.67788,15.677038 -20.17658,17.711376 -1.54226,0.330305 -6.55702,0.585094 -7.97101,0.404988 z m 6.7699,-2.953107 c 7.74117,-1.113331 14.95565,-6.756108 18.16982,-14.211456 1.49841,-3.475594 1.81244,-5.164333 1.79811,-9.669764 -0.0112,-3.532833 -0.0704,-4.145554 -0.58469,-6.050498 -1.13358,-4.199155 -3.21249,-7.803634 -6.27846,-10.885822 -7.26318,-7.301584 -18.18411,-9.204829 -27.47773,-4.788682 -5.00417,2.377884 -8.81367,6.165742 -11.30684,11.242583 -4.43626,9.033565 -2.80384,19.822184 4.09925,27.091796 5.70402,6.006884 13.08431,8.493768 21.58054,7.271843 z"
   id="path1476" /></svg>
