<?xml version="1.0" encoding="UTF-8" standalone="no"?>
<svg
   width="566.929"
   height="79.219"
   xml:space="preserve"
   version="1.1"
   id="svg8"
   sodipodi:docname="atari8bit-w.svg"
   inkscape:version="1.1 (c68e22c387, 2021-05-23)"
   xmlns:inkscape="http://www.inkscape.org/namespaces/inkscape"
   xmlns:sodipodi="http://sodipodi.sourceforge.net/DTD/sodipodi-0.dtd"
   xmlns="http://www.w3.org/2000/svg"
   xmlns:svg="http://www.w3.org/2000/svg"><defs
   id="defs12" /><sodipodi:namedview
   id="namedview10"
   pagecolor="#ffffff"
   bordercolor="#666666"
   borderopacity="1.0"
   inkscape:pageshadow="2"
   inkscape:pageopacity="0.0"
   inkscape:pagecheckerboard="0"
   showgrid="false"
   inkscape:zoom="7.4647793"
   inkscape:cx="327.87305"
   inkscape:cy="42.39911"
   inkscape:window-width="1920"
   inkscape:window-height="1017"
   inkscape:window-x="-8"
   inkscape:window-y="712"
   inkscape:window-maximized="1"
   inkscape:current-layer="svg8" />
    <g
   fill="#6B553F"
   id="g4">
        <path
   d="M123.437 3.436c3.074-3.934 9.436-4.604 13.207-1.307 1.542 1.299 2.622 3.091 3.175 5.02 6.981 24.021 13.994 48.033 20.966 72.058-4.12.004-8.242-.006-12.362.004-1.943-6.623-3.841-13.258-5.759-19.889-7.967-.018-15.932-.004-23.898-.008a3902.249 3902.249 0 0 0-5.792 19.896c-4.098-.014-8.195-.004-12.294-.008a52244.575 52244.575 0 0 1 19.938-68.739c.792-2.392 1.09-5.071 2.819-7.027m7.273 14.718c-2.921 9.952-5.783 19.924-8.688 29.881 5.791.027 11.579.01 17.367.01-2.898-9.963-5.781-19.926-8.679-29.891zM210.231 3.953c2.147-3.114 6.298-4.627 9.953-3.666 3.345.771 5.905 3.654 6.788 6.899 6.975 24.005 13.973 48.001 20.947 72.005-4.125.033-8.25 0-12.375.018-1.918-6.629-3.816-13.266-5.748-19.895-7.954.004-15.907-.016-23.86.006-1.901 6.635-3.86 13.252-5.763 19.885-4.094.004-8.186-.002-12.28.004 6.629-23.041 13.336-46.063 20.019-69.087.701-2.081.971-4.373 2.319-6.169m-1.003 44.092c5.766.008 11.53.004 17.296.004-2.868-9.984-5.782-19.956-8.644-29.939-2.879 9.98-5.786 19.951-8.652 29.935zM151.56.167h44.712v12.059c-5.487.004-10.974-.006-16.459.004 0 22.325.004 44.653-.003 66.977h-11.792c0-22.324-.003-44.651.004-66.977-5.489-.01-10.974 0-16.462-.004 0-4.02-.003-8.037 0-12.059zM261.023.657c1.133-.391 2.342-.524 3.537-.495 4.699.017 9.398.003 14.098.006 7.914.145 15.468 5.056 18.894 12.179 2.371 4.626 2.615 10.005 2.018 15.079-.41 5.313-2.64 10.625-6.723 14.145-2.158 1.926-4.846 3.09-7.153 4.801-1.269.967-1.329 2.842-.676 4.186 6.237 9.629 12.724 19.104 19.09 28.652-4.657.008-9.313-.014-13.972.008-6.098-9.156-12.13-18.359-18.202-27.529-1.785-2.609-2.27-6.066-1.201-9.045.834-2.285 2.831-3.958 5.055-4.82 4.246-1.619 8.431-4.166 10.782-8.172 1.788-3.01 1.697-6.725.893-10.021-.942-4.277-5.11-7.644-9.513-7.495-3.047.021-6.091-.016-9.132.014-1.377-.032-2.672 1.165-2.655 2.561-.014 21.501.008 43.004-.006 64.504-3.96-.006-7.917 0-11.878-.004-.007-23.146.007-46.297-.007-69.443.019-4.061 2.904-7.878 6.751-9.111zM310.335.167h12.498c-.004 26.349.006 52.692-.008 79.042-4.162-.01-8.326 0-12.49-.004V.167z"
   id="path2" />
    </g>
    <path
   fill="#6B553F"
   d="M527.328 79.205c-21.836 0-39.604-17.766-39.604-39.603C487.724 17.764 505.492 0 527.328 0c21.838 0 39.602 17.765 39.602 39.603-.001 21.836-17.764 39.602-39.602 39.602zm0-76.297c-20.234 0-36.695 16.461-36.695 36.694 0 20.234 16.461 36.695 36.695 36.695 20.232 0 36.693-16.461 36.693-36.695 0-20.232-16.461-36.694-36.693-36.694zm0 63.674c-14.873 0-26.977-12.102-26.977-26.976 0-14.875 12.104-26.976 26.977-26.976s26.975 12.101 26.975 26.976c-.001 14.874-12.102 26.976-26.975 26.976zm0-51.042c-13.271 0-24.068 10.797-24.068 24.066 0 13.271 10.797 24.068 24.068 24.068 13.27 0 24.066-10.797 24.066-24.068 0-13.27-10.797-24.066-24.066-24.066zM446.257 79.205c-21.836 0-39.604-17.766-39.604-39.603C406.654 17.764 424.421 0 446.257 0c21.838 0 39.602 17.765 39.602 39.603 0 21.836-17.764 39.602-39.602 39.602zm0-76.297c-20.232 0-36.695 16.461-36.695 36.694 0 20.234 16.463 36.695 36.695 36.695s36.693-16.461 36.693-36.695c.001-20.232-16.46-36.694-36.693-36.694zm0 63.674c-14.875 0-26.977-12.102-26.977-26.976 0-14.875 12.102-26.976 26.977-26.976 14.873 0 26.975 12.101 26.975 26.976 0 14.874-12.102 26.976-26.975 26.976zm0-51.042c-13.271 0-24.068 10.797-24.068 24.066 0 13.271 10.797 24.068 24.068 24.068s24.066-10.797 24.066-24.068c.001-13.27-10.796-24.066-24.066-24.066zM378.4 79.205c-15.295 0-27.736-12.441-27.736-27.738 0-9.178 4.637-17.842 12.197-22.976-1.932-2.98-2.943-6.41-2.943-10.009C359.917 8.292 368.208 0 378.4 0s18.484 8.292 18.484 18.481c0 3.599-1.016 7.027-2.947 10.009 7.563 5.134 12.199 13.796 12.199 22.976.002 15.298-12.441 27.739-27.736 27.739zm0-76.297c-8.588 0-15.576 6.986-15.576 15.574a15.43 15.43 0 0 0 3.256 9.524l1.006 1.297-1.41.841c-7.467 4.467-12.104 12.637-12.104 21.323 0 13.689 11.139 24.83 24.828 24.83 13.691 0 24.83-11.141 24.83-24.83 0-8.688-4.639-16.857-12.105-21.323l-1.406-.841 1.002-1.297a15.418 15.418 0 0 0 3.256-9.524c-.001-8.587-6.989-15.574-15.577-15.574zm0 64.785c-8.945 0-16.225-7.275-16.225-16.227 0-8.943 7.277-16.225 16.225-16.225 8.945 0 16.225 7.277 16.225 16.225 0 8.952-7.278 16.227-16.225 16.227zm0-29.542c-7.344 0-13.316 5.976-13.316 13.318 0 7.344 5.975 13.318 13.316 13.318 7.344 0 13.316-5.975 13.316-13.318 0-7.342-5.972-13.318-13.316-13.318zm0-11.512c-4.496 0-8.152-3.658-8.152-8.154 0-4.495 3.656-8.151 8.152-8.151s8.152 3.656 8.152 8.151c.002 4.496-3.656 8.154-8.152 8.154zm0-13.399a5.25 5.25 0 0 0-5.244 5.244 5.25 5.25 0 0 0 5.244 5.246 5.25 5.25 0 0 0 5.246-5.246 5.25 5.25 0 0 0-5.246-5.244zM70.453.003H8.761C3.942.003 0 3.946 0 8.765v61.692c0 4.818 3.942 8.762 8.761 8.762h61.692c4.819 0 8.762-3.943 8.762-8.762V8.765c0-4.818-3.942-8.762-8.762-8.762zM34.269 31.85c-.175 3.69-.406 7.389-1.017 11.037-.42 2.516-1.291 4.943-2.369 7.246-1.761 3.711-4.528 6.852-7.639 9.492-2.782 2.449-6.104 4.232-9.597 5.438-1.976.684-4.01 1.205-6.08 1.498.002-2.57.002-5.143 0-7.713 2.492-.375 4.889-1.26 7.114-2.43A25.653 25.653 0 0 0 21.7 50.93c2.067-2.285 3.713-4.932 4.963-7.742 1.472-3.229 2.26-6.721 2.795-10.213.672-4.442.951-8.938 1.055-13.425.017-1.52.004-3.042.008-4.564 1.303-.004 2.606 0 3.911-.002.005 3.064 0 6.131.002 9.195.013 2.557-.059 5.114-.165 7.671zm8.936-16.867v51.576c-2.395.006-4.789-.01-7.183.012-.031-5.481-.005-10.967-.013-16.446-.003-11.71.005-23.422-.004-35.134 2.4-.017 4.8-.004 7.2-.008 0-.001 0-.001 0 0zm28.443 51.572c-2.056-.279-4.072-.811-6.034-1.477-2.336-.813-4.596-1.865-6.672-3.217-1.515-.973-2.892-2.139-4.216-3.355-2.182-2.014-4.134-4.299-5.601-6.889-1.147-2.018-1.985-4.195-2.64-6.416-.601-2.232-.857-4.543-1.09-6.837-.451-4.962-.62-9.947-.588-14.928 0-2.817-.001-5.634 0-8.453 1.297-.001 2.593-.004 3.888.001-.042 5.241.137 10.495.761 15.701.512 4.045 1.233 8.121 2.844 11.889 1.527 3.646 3.729 7.035 6.598 9.768 2.74 2.613 6.06 4.621 9.667 5.777 1.007.32 2.036.572 3.083.727-.001 2.57-.002 5.138 0 7.709z"
   id="path6" />
<path
   style="fill:#cccccc;stroke-width:0.53585"
   d="M 3.9222351,77.224841 C 0.14244852,74.486778 0.26792487,75.786069 0.26792487,39.384955 0.26792487,7.3766773 0.29077403,6.6592259 1.3685957,4.8244684 2.8842838,2.2443382 5.4332039,0.66835857 8.7345987,0.27011922 10.266992,0.08527025 25.265315,0.00915649 42.064204,0.10097751 75.957707,0.28623598 74.588268,0.13929666 77.254077,3.8768253 l 1.247909,1.7495969 V 39.65288 73.679338 l -1.195111,1.675447 c -2.509133,3.517607 -1.36713,3.415126 -38.056467,3.415126 H 6.0551432 Z M 14.073415,65.096145 c 4.856114,-1.645015 8.255374,-3.914548 12.234937,-8.168713 6.35129,-6.789551 7.765101,-11.977916 8.330724,-30.57186 l 0.363751,-11.957683 -2.363659,0.168989 -2.363658,0.16899 -0.354467,8.30567 C 29.407767,35.068341 27.946048,41.162033 24.176694,46.9889 20.670444,52.409047 14.25891,57.190181 9.1178744,58.218385 l -1.6159782,0.323198 v 4.230025 4.230024 L 8.975483,66.662766 c 0.8104727,-0.186374 3.104542,-0.891354 5.097932,-1.566621 z m 29.330413,-24.4444 V 14.322273 l -2.486113,0.34076 c -1.367362,0.187418 -3.055288,0.340759 -3.750948,0.340759 h -1.264835 v 25.988712 25.988712 h 3.750948 3.750948 z M 71.803864,62.795721 V 58.610226 L 69.135322,57.926299 C 63.457635,56.471151 56.654996,50.557208 53.523731,44.354205 c -0.863806,-1.711184 -2.040807,-5.096656 -2.615562,-7.52327 -0.91688,-3.871057 -2.140821,-15.640234 -2.144542,-20.621481 -0.0013,-1.674313 -0.08401,-1.741511 -2.1447,-1.741511 h -2.143399 l 0.0046,7.903783 c 0.0056,9.68224 0.800083,19.241154 1.926183,23.175501 2.761959,9.649684 11.426405,17.889569 21.646624,20.585922 1.620945,0.427645 3.128023,0.793405 3.349061,0.812803 0.221038,0.0194 0.401887,-1.84821 0.401887,-4.150231 z"
   id="path866" /><path
   style="fill:#cccccc;stroke-width:0.53585"
   d="m 101.2756,78.482234 c 0,-1.276956 21.07278,-72.5199766 21.83808,-73.8303541 3.21157,-5.49896278 11.74118,-5.61454809 15.06223,-0.2041093 0.7841,1.277406 22.04316,72.7203354 22.04316,74.0779694 0,0.134295 -2.61518,0.244171 -5.81151,0.244171 h -5.81151 l -2.85931,-9.91322 -2.85931,-9.913221 H 130.7221 118.56677 l -2.8664,9.913221 -2.86641,9.91322 h -5.77918 c -3.17855,0 -5.77918,-0.129456 -5.77918,-0.287677 z m 34.1146,-45.259551 c -2.38526,-8.252086 -4.48943,-15.003792 -4.67594,-15.003792 -0.18651,0 -2.19181,6.38953 -4.45623,14.198957 -2.26441,7.809427 -4.25609,14.561133 -4.42596,15.003793 -0.26724,0.696413 0.9173,0.804835 8.79306,0.804835 h 9.1019 z"
   id="path905" /><path
   style="fill:#cccccc;stroke-width:0.53585"
   d="M 168.25682,45.279302 V 11.788694 h -8.30568 -8.30567 V 6.1622719 0.53584973 H 173.88324 196.121 V 6.1622719 11.788694 h -8.30567 -8.30567 v 33.490608 33.490609 h -5.62642 -5.62642 z"
   id="path944" /><path
   style="fill:#cccccc;stroke-width:0.53585"
   d="m 188.61911,78.261711 c 0,-1.65852 21.0664,-72.8561955 21.88814,-73.9749131 3.74587,-5.09960226 10.89056,-5.06212434 14.69649,0.077091 0.78556,1.0607469 15.09773,48.8016701 21.78914,72.6817001 l 0.4928,1.758702 -5.93625,-0.151153 -5.93625,-0.151152 -2.75049,-9.645295 -2.75049,-9.645296 -12.15267,-0.143972 -12.15268,-0.143972 -1.33005,4.43077 c -0.73152,2.436927 -2.01766,6.842094 -2.85807,9.789267 l -1.52803,5.358498 -5.7358,0.15209 c -3.62689,0.09617 -5.73579,-0.04809 -5.73579,-0.392365 z m 38.04533,-30.441409 c 0,-0.223395 -1.57053,-5.829723 -3.49007,-12.458507 -1.91954,-6.628782 -3.86287,-13.344195 -4.31851,-14.923139 -0.45564,-1.578944 -0.91967,-2.77958 -1.03117,-2.668081 -0.1115,0.1115 -2.04065,6.587709 -4.28701,14.391577 -2.24635,7.803867 -4.20673,14.610831 -4.35639,15.126587 -0.25138,0.866298 0.4042,0.937737 8.60552,0.937737 4.88269,0 8.87763,-0.182778 8.87763,-0.406174 z"
   id="path983" /><path
   style="fill:#cccccc;stroke-width:0.53585"
   d="m 254.52862,43.654542 c 0,-30.38842 0.11095,-35.3809053 0.82421,-37.0879822 1.07124,-2.5638396 2.1919,-3.7630518 4.72442,-5.0555763 1.88679,-0.96296173 2.97957,-1.03920539 12.62311,-0.88071747 l 10.55751,0.17350857 4.0464,2.0012487 c 4.87394,2.4105321 7.91308,5.5156111 10.2721,10.4949767 1.63092,3.442511 1.69441,3.835186 1.6618,10.277388 -0.0284,5.602299 -0.22871,7.193656 -1.22462,9.727033 -1.73005,4.400849 -4.33041,7.483289 -8.76365,10.388315 -2.15045,1.409159 -4.08707,2.824876 -4.3036,3.146037 -1.26781,1.880482 -0.25084,3.907561 8.59423,17.130502 4.95237,7.403557 9.18642,13.762427 9.40899,14.130823 0.31518,0.521677 -1.05403,0.667744 -6.19111,0.660446 l -6.59578,-0.0094 -7.8682,-11.913296 C 271.08244,49.861763 270.60411,49.013493 270.60411,46.10624 c 0,-4.049637 1.36944,-5.872061 6.28608,-8.365407 5.81509,-2.948975 8.37326,-5.09099 10.01523,-8.385981 3.05107,-6.122711 0.7932,-14.038128 -4.71833,-16.541015 -1.72889,-0.785121 -3.50855,-1.00415 -8.23391,-1.013375 -5.32307,-0.01039 -6.15369,0.113609 -7.10001,1.059932 -1.04808,1.04808 -1.0717,1.786165 -1.0717,33.490608 v 32.418909 h -5.62643 -5.62642 z"
   id="path1022" /><path
   style="fill:#cccccc;stroke-width:0.53585"
   d="M 310.79284,39.65288 V 0.53584973 h 5.89435 5.89435 V 39.65288 78.769911 h -5.89435 -5.89435 z"
   id="path1061" /><path
   style="fill:#cccccc;stroke-width:0.0334906"
   d="m 377.42241,67.649213 c -5.21294,-0.340802 -9.8708,-3.092002 -12.69784,-7.50008 -1.31373,-2.048445 -2.15254,-4.43619 -2.44128,-6.949302 -0.0733,-0.637916 -0.10146,-2.206477 -0.0514,-2.863447 0.16477,-2.163167 0.72999,-4.234829 1.65797,-6.07686 l 0.20331,-0.403572 1.68719,-0.0087 1.6872,-0.0087 -0.0534,0.07567 c -0.19593,0.277656 -0.62924,0.998938 -0.82489,1.373118 -0.60124,1.149867 -1.0017,2.28389 -1.2567,3.558686 -0.20096,1.004631 -0.23447,1.377792 -0.23458,2.612268 -1.1e-4,1.156638 0.019,1.414373 0.16983,2.294106 0.88525,5.162419 4.78835,9.366476 9.88315,10.645204 1.93786,0.486379 3.94415,0.532087 5.9181,0.13483 3.93595,-0.792106 7.34988,-3.387984 9.19036,-6.988147 1.38898,-2.71697 1.80357,-5.711999 1.20639,-8.715006 -0.32395,-1.62903 -1.00562,-3.290935 -1.91289,-4.663567 l -0.21582,-0.326534 h 1.6811 1.68109 l 0.30465,0.627949 c 1.90856,3.933982 2.12136,8.509971 0.58754,12.634332 -1.15385,3.102643 -3.24663,5.787534 -6.01385,7.715359 -2.19262,1.527515 -4.927,2.525066 -7.62667,2.782348 -0.69325,0.06607 -1.91375,0.09021 -2.52854,0.05002 z"
   id="path1100" /><path
   style="fill:#cccccc;stroke-width:0.0334906"
   d="m 377.53963,79.167947 c -6.04969,-0.169416 -11.92211,-2.369396 -16.66158,-6.241913 -1.0364,-0.84682 -2.42933,-2.191611 -3.29574,-3.181842 -3.57397,-4.084724 -5.85214,-9.017714 -6.61625,-14.326331 -0.0914,-0.635319 -0.16091,-1.275228 -0.22441,-2.067322 -0.0548,-0.683232 -0.0551,-3.074656 -4.6e-4,-3.750948 0.1554,-1.924478 0.41596,-3.472553 0.88074,-5.232908 l 0.13927,-0.527477 h 1.50599 c 1.42057,0 1.50471,0.0033 1.48337,0.05861 -0.0659,0.170827 -0.27739,0.905438 -0.42174,1.465214 -0.76781,2.977516 -0.96496,6.213696 -0.56617,9.293644 0.86057,6.646345 4.36682,12.644536 9.7579,16.692985 5.17728,3.887887 11.60774,5.578523 18.08819,4.755572 6.97177,-0.885345 13.32471,-4.799287 17.33747,-10.681327 3.4076,-4.994973 4.8649,-11.085791 4.09466,-17.113701 -0.16228,-1.269945 -0.47176,-2.714399 -0.85002,-3.967314 -0.0749,-0.247941 -0.1361,-0.462699 -0.1361,-0.477241 0,-0.01454 0.65571,-0.02644 1.45712,-0.02644 h 1.45712 l -0.009,7.82843 -0.009,7.82843 -0.2059,0.602831 c -1.14053,3.33919 -2.65337,6.110278 -4.78123,8.757794 -1.37681,1.713054 -3.11068,3.391866 -4.89136,4.736042 -3.33315,2.516075 -7.17013,4.242334 -11.23734,5.05568 -1.48923,0.297812 -3.0406,0.47683 -4.40401,0.508187 -0.40524,0.0093 -0.81215,0.02086 -0.90425,0.02564 -0.0921,0.0048 -0.53669,-0.0016 -0.98797,-0.01429 z"
   id="path1139" /><path
   style="fill:#cccccc;stroke-width:0.0334906"
   d="m 445.19066,79.169521 c -4.17021,-0.104092 -8.35493,-0.88793 -12.27431,-2.299094 -9.02672,-3.250051 -16.57523,-9.668014 -21.28182,-18.094409 -0.48112,-0.86138 -1.35656,-2.644654 -1.75097,-3.56675 -1.28208,-2.997397 -2.16628,-6.013632 -2.68514,-9.159682 -0.12456,-0.755225 -0.28753,-1.954499 -0.28753,-2.115846 v -0.09453 h 1.43695 1.43696 l 0.0221,0.175826 c 0.53312,4.240396 1.67743,8.07017 3.53491,11.830557 2.44731,4.954492 6.01506,9.321329 10.41486,12.74751 3.70848,2.887848 8.01511,5.068812 12.52494,6.342885 5.3759,1.518749 11.1358,1.783422 16.66212,0.765642 4.27795,-0.787868 8.556,-2.411289 12.20889,-4.632999 0.24369,-0.148214 0.44867,-0.269481 0.4555,-0.269481 0.007,0 0.009,0.749771 0.004,1.666158 l -0.009,1.666157 -0.38514,0.210759 c -1.1659,0.638009 -2.90625,1.463216 -4.13987,1.962968 -4.2885,1.73731 -9.09777,2.754537 -13.47619,2.850397 -0.43287,0.0095 -0.93774,0.02185 -1.12194,0.0275 -0.18419,0.0056 -0.76442,-4.69e-4 -1.28938,-0.01356 z"
   id="path1178" /><path
   style="fill:#cccccc;stroke-width:0.0334906"
   d="m 445.27438,66.543638 c -5.79139,-0.196364 -11.42013,-2.310799 -15.97502,-6.001011 -1.01174,-0.819678 -2.31995,-2.066404 -3.13642,-2.989017 -3.17114,-3.583366 -5.28242,-7.727646 -6.27016,-12.307798 -0.0774,-0.359151 -0.25546,-1.320852 -0.25546,-1.38014 0,-0.01456 0.65312,-0.02647 1.45138,-0.02647 h 1.45137 l 0.11026,0.544223 c 1.06894,5.276238 3.9081,10.079593 8.02202,13.571851 5.01398,4.256322 11.50332,6.275016 18.0288,5.608374 3.93482,-0.40198 7.64812,-1.739763 10.9319,-3.938409 2.0703,-1.386167 4.05026,-3.219985 5.54403,-5.134833 0.1945,-0.249324 0.37371,-0.475383 0.39824,-0.502355 0.0372,-0.04089 0.0446,0.31729 0.0446,2.155455 v 2.204496 l -0.44375,0.434676 c -2.07595,2.033489 -4.33059,3.650963 -6.85721,4.919331 -3.07868,1.545508 -6.29112,2.456879 -9.72902,2.760129 -0.53547,0.04723 -2.21426,0.122317 -2.4783,0.110843 -0.0553,-0.0024 -0.43203,-0.01561 -0.83727,-0.02935 z"
   id="path1217" /><path
   style="fill:#cccccc;stroke-width:0.0334906"
   d="m 465.62103,72.451016 10e-4,-1.668615 0.54278,-0.351652 c 2.17369,-1.408263 3.95815,-2.84308 5.83051,-4.688086 2.96586,-2.922539 5.27255,-6.092743 7.11597,-9.779857 1.77594,-3.552134 2.96047,-7.356648 3.4879,-11.202608 0.0581,-0.423656 0.11238,-0.804193 0.12063,-0.845638 l 0.015,-0.07535 h 1.44187 1.44187 l -0.0222,0.192571 c -0.83874,7.268867 -3.55649,13.956508 -8.03158,19.763572 -1.46315,1.898638 -3.42236,3.977127 -5.28433,5.60605 -1.93567,1.693399 -4.29566,3.375042 -6.46801,4.608859 l -0.19257,0.109374 z"
   id="path1256" /><path
   style="fill:#cccccc;stroke-width:0.0334906"
   d="m 465.61345,56.133663 -0.0103,-2.190231 0.32408,-0.455527 c 1.88965,-2.656076 3.25971,-5.807849 3.91036,-8.995632 0.0564,-0.276297 0.11037,-0.536268 0.11995,-0.577713 l 0.0174,-0.07535 h 1.45684 1.45685 l -0.0164,0.07535 c -0.009,0.04144 -0.0553,0.29388 -0.10282,0.560968 -0.66893,3.759994 -2.26704,7.533608 -4.5386,10.716994 -0.72231,1.012255 -1.55998,2.037848 -2.27038,2.779721 l -0.33673,0.351651 z"
   id="path1295" /><path
   style="fill:#cccccc;stroke-width:0.0334906"
   d="m 511.56904,75.910071 c -4.44051,-1.943569 -8.46883,-4.662959 -11.92842,-8.052505 -1.49707,-1.466757 -2.70621,-2.848818 -4.0027,-4.575118 -2.30303,-3.066542 -4.15092,-6.462908 -5.48572,-10.082617 -0.98836,-2.680215 -1.72685,-5.694623 -2.0758,-8.473124 -0.0463,-0.368396 -0.0908,-0.718792 -0.0991,-0.778656 l -0.0149,-0.108845 h 1.44956 1.44955 l 0.0405,0.343279 c 0.19555,1.657779 0.63093,3.788472 1.12956,5.527844 1.7462,6.091285 5.0839,11.674121 9.64118,16.126405 2.86994,2.803817 6.05469,5.04676 9.63775,6.78765 l 0.75823,0.368397 0.001,1.565686 c 7.4e-4,0.861127 -0.002,1.565341 -0.007,1.564919 -0.005,-4.22e-4 -0.2269,-0.09641 -0.49399,-0.213315 z"
   id="path1334" /><path
   style="fill:#cccccc;stroke-width:0.0334906"
   d="m 526.27142,79.169165 c -4.74067,-0.117967 -9.42207,-1.098378 -13.86511,-2.903729 l -0.31816,-0.129279 -0.009,-1.563315 c -0.005,-0.859824 -10e-4,-1.563316 0.007,-1.563316 0.009,0 0.22323,0.09166 0.47646,0.203697 6.21602,2.750109 13.18326,3.698582 20.00441,2.723266 6.67801,-0.954848 12.99987,-3.767823 18.19845,-8.097581 1.65078,-1.374885 3.38021,-3.100227 4.73856,-4.727341 1.83214,-2.194662 3.37703,-4.552271 4.65189,-7.099132 0.8104,-1.618961 1.3223,-2.837825 1.9197,-4.570861 l 0.29438,-0.85401 0.002,3.693295 0.002,3.693294 -0.10488,0.208361 c -0.46977,0.933239 -1.60342,2.785606 -2.42844,3.968016 -6.1701,8.843001 -15.55666,14.782696 -26.10207,16.51705 -1.65962,0.27295 -3.52001,0.452441 -5.05619,0.487823 -0.41444,0.0095 -0.91178,0.02189 -1.10519,0.02743 -0.19341,0.0055 -0.78117,-6.09e-4 -1.30613,-0.01367 z"
   id="path1373" /><path
   style="fill:#cccccc;stroke-width:0.0334906"
   d="m 526.35515,66.545116 c -0.79168,-0.02817 -1.33902,-0.07075 -2.19364,-0.170649 -6.38565,-0.746405 -12.34103,-3.806278 -16.71161,-8.586422 -3.0416,-3.326629 -5.19545,-7.325709 -6.27754,-11.655592 -0.15299,-0.612179 -0.3996,-1.797729 -0.44044,-2.117421 l -0.0225,-0.175826 h 1.4539 1.45391 l 0.0935,0.487669 c 0.57496,2.999218 1.90653,6.181585 3.66357,8.755739 3.38604,4.960696 8.38062,8.458837 14.12468,9.892733 3.38331,0.84458 7.03137,0.938794 10.43676,0.269537 4.20173,-0.825759 7.99157,-2.687372 11.2564,-5.529267 0.85685,-0.745855 2.12705,-2.06803 2.85825,-2.975218 2.46314,-3.055997 4.17196,-6.691856 4.89164,-10.407969 l 0.0955,-0.493224 h 1.44854 c 1.40959,0 1.44854,0.0017 1.44854,0.06475 0,0.03561 -0.0382,0.272978 -0.0848,0.527477 -1.15916,6.325196 -4.56009,12.051943 -9.56646,16.108716 -5.08529,4.120733 -11.40402,6.237154 -17.92825,6.004965 z"
   id="path1412" /><path
   style="fill:#cccccc;stroke-width:0.133962"
   d="m 562.38355,54.254785 c -0.003,-3.393722 0.011,-3.599994 0.32954,-4.68553 0.3987,-1.358826 0.91675,-3.983452 1.15084,-5.830521 0.21611,-1.705249 0.21571,-6.557865 -6.7e-4,-8.30567 -1.06443,-8.597322 -4.8401,-16.244313 -10.95057,-22.178501 -5.87654,-5.7070137 -13.11564,-9.1504423 -21.41674,-10.1873206 -1.73578,-0.2168144 -6.58887,-0.2191875 -8.30567,-0.00406 -11.04647,1.3841999 -20.4176,7.1468546 -26.54753,16.3250716 -1.87683,2.810131 -3.65097,6.612832 -4.57943,9.815557 -0.44971,1.551256 -0.9843,4.0998 -1.25047,5.961329 -0.18699,1.307729 -0.24019,7.643644 -0.0695,8.27218 l 0.10007,0.368397 h -1.39425 -1.39425 l -0.0746,-0.435378 c -0.32639,-1.905603 -0.19648,-6.712077 0.2616,-9.678786 2.00419,-12.979904 10.32764,-24.1602311 22.18569,-29.8005337 5.36513,-2.5519294 10.77415,-3.76180792 16.84846,-3.76862697 4.74008,-0.005321 8.65541,0.63514574 12.89119,2.10873437 5.59301,1.945756 10.37523,4.9024138 14.66322,9.0656833 6.73468,6.538787 10.78257,14.863187 11.83441,24.337198 0.30901,2.783315 0.16156,7.256956 -0.34351,10.422114 -0.56206,3.522273 -2.01472,8.041596 -3.51807,10.944894 l -0.4162,0.803775 -0.004,-3.550005 z"
   id="path1451" /><path
   style="fill:#cccccc;stroke-width:0.133962"
   d="m 500.68747,43.5043 c -0.0525,-0.165778 -0.12604,-1.56736 -0.16354,-3.114626 -0.0531,-2.189327 -0.0189,-3.166566 0.15402,-4.406549 1.85889,-13.32963 13.24316,-23.256694 26.6706,-23.256694 8.96011,0 17.28556,4.46758 22.32234,11.978548 2.43961,3.63801 3.89338,7.640245 4.40781,12.13469 0.15533,1.357088 0.0955,5.497549 -0.0944,6.530669 l -0.08,0.435378 h -1.40317 -1.40318 l 0.0973,-0.569341 c 0.1794,-1.049561 0.26197,-3.570613 0.17117,-5.225641 -0.59098,-10.771082 -8.62536,-19.910828 -19.42382,-22.096158 -1.3212,-0.267375 -1.91831,-0.30731 -4.59944,-0.307609 -3.46362,-3.86e-4 -4.80957,0.191712 -7.54661,1.077078 -1.84679,0.597386 -4.83705,2.101013 -6.45247,3.244562 -1.6467,1.165695 -4.51164,4.030463 -5.62821,5.627878 -3.34543,4.786112 -4.9027,10.338628 -4.43704,15.820472 0.0853,1.00426 0.19158,1.961565 0.23617,2.127343 0.0803,0.298589 0.0679,0.301416 -1.32553,0.301416 -1.34114,0 -1.41104,-0.01403 -1.50196,-0.301416 z"
   id="path1490" /><path
   style="fill:#cccccc;stroke-width:0.133962"
   d="m 406.92393,43.590435 c -0.0454,-0.118404 -0.12012,-1.278853 -0.16596,-2.578777 -0.38612,-10.950058 3.76411,-21.485233 11.53467,-29.28028 6.96808,-6.9900338 16.18689,-11.10742623 25.92679,-11.57967081 8.60339,-0.41714027 16.69496,1.78683991 23.77833,6.47673381 9.80103,6.489256 16.20493,16.931065 17.54247,28.603679 0.21062,1.838101 0.27617,6.01844 0.12025,7.669349 l -0.0854,0.904247 h -1.39867 -1.39866 l 0.10517,-1.038209 c 0.17037,-1.681741 0.0966,-5.720429 -0.13853,-7.580073 -0.85607,-6.771932 -3.58959,-13.282861 -7.79888,-18.576092 -1.16175,-1.460913 -4.20804,-4.50802 -5.67511,-5.676635 -4.0441,-3.2213844 -8.68461,-5.5652289 -13.54562,-6.8416658 -11.42593,-3.0002982 -23.33344,-0.4756118 -32.53745,6.8987438 -0.77364,0.619844 -2.13001,1.85576 -3.01416,2.746479 -5.60078,5.642391 -9.13039,12.72426 -10.32506,20.716398 -0.25355,1.696237 -0.39101,6.588021 -0.22982,8.178882 l 0.11877,1.172172 h -1.36526 c -1.1304,0 -1.37947,-0.03704 -1.44787,-0.215281 z"
   id="path1529" /><path
   style="fill:#cccccc;stroke-width:0.133962"
   d="m 419.64998,43.571281 c -0.0398,-0.128938 -0.13724,-1.057219 -0.21652,-2.062846 -0.49568,-6.287502 1.45065,-12.872273 5.33501,-18.049295 0.98732,-1.315881 3.29678,-3.707243 4.57908,-4.741464 2.43716,-1.965658 5.36426,-3.57304 8.3244,-4.571247 3.24882,-1.095554 5.99927,-1.495649 9.49465,-1.381141 3.39571,0.111242 6.00832,0.656745 9.08337,1.896571 9.33666,3.76444 15.69524,12.243693 16.78178,22.378754 0.1514,1.412212 0.10132,4.651 -0.0948,6.128781 l -0.0844,0.636322 h -1.40385 -1.40383 l 0.0825,-0.50236 c 0.0454,-0.276297 0.1195,-1.617596 0.16473,-2.980664 0.088,-2.650767 -0.082,-4.434081 -0.62791,-6.588275 -2.18628,-8.627181 -8.99943,-15.427607 -17.55478,-17.522005 -2.34877,-0.574993 -3.79618,-0.714044 -6.64795,-0.638659 -2.89798,0.07661 -4.39374,0.333527 -6.92741,1.1899 -9.80905,3.315417 -16.42776,12.562532 -16.4173,22.936911 10e-4,1.043669 0.18871,3.167735 0.33606,3.803736 0.069,0.297808 0.0531,0.301416 -1.3303,0.301416 -1.21658,0 -1.40962,-0.03073 -1.47251,-0.234435 z"
   id="path1568" /><path
   style="fill:#cccccc;stroke-width:0.133962"
   d="m 351.97064,43.381631 c 0.0466,-0.233246 0.39792,-1.208102 0.78061,-2.166344 0.76252,-1.909356 1.97358,-4.107066 3.31771,-6.020675 1.05214,-1.497912 4.49214,-4.976551 5.85824,-5.92404 0.53098,-0.368276 0.96804,-0.704515 0.97123,-0.747198 0.003,-0.04268 -0.25523,-0.535656 -0.57427,-1.095496 -2.95048,-5.177425 -3.08559,-11.815487 -0.35123,-17.25619 2.53178,-5.037619 7.72169,-8.8533467 13.37613,-9.83440909 1.44476,-0.25066901 4.34664,-0.28618422 5.71055,-0.0698895 4.17896,0.66271596 7.66008,2.47702489 10.58286,5.51562209 2.48487,2.5833425 4.0734,5.6075135 4.84346,9.2207815 0.34071,1.598644 0.34071,5.367401 0,6.966046 -0.44331,2.080091 -1.38055,4.486936 -2.38009,6.112091 l -0.25751,0.418687 1.03458,0.778687 c 4.26604,3.210878 7.61869,7.698858 9.4506,12.650938 0.78146,2.112456 0.88204,1.875703 -0.79614,1.874021 l -1.44913,-0.0014 -0.38372,-1.036758 c -1.34911,-3.645022 -4.00603,-7.509796 -6.88718,-10.018133 -1.002,-0.872341 -3.03944,-2.317818 -4.54539,-3.22475 l -0.42948,-0.25865 0.48162,-0.599696 c 1.55022,-1.930274 2.62603,-4.026175 3.21856,-6.270388 0.50321,-1.905945 0.58193,-5.012733 0.17706,-6.988758 -0.66468,-3.244116 -2.1502,-5.9169404 -4.58327,-8.2464906 -2.17274,-2.0802997 -4.61372,-3.3579522 -7.67841,-4.0190276 -1.30297,-0.2810598 -4.54393,-0.321119 -5.82145,-0.071954 -5.67699,1.1072307 -10.26556,5.0770131 -12.06028,10.4339142 -1.64871,4.921055 -0.7691,10.204833 2.41321,14.496024 0.82302,1.109814 0.9151,1.289782 0.71965,1.406605 -5.63688,3.369193 -9.42454,7.675392 -11.518,13.094828 l -0.50454,1.306134 h -1.4004 -1.4004 z"
   id="path1607" /><path
   style="fill:#cccccc;stroke-width:0.133962"
   d="m 404.9974,51.508556 v -7.501897 l 0.32064,1.272643 c 0.95712,3.798954 0.95389,8.639839 -0.008,12.483657 l -0.31229,1.247493 z"
   id="path1646" /><path
   style="fill:#cccccc;stroke-width:0.133962"
   d="m 364.24386,43.72017 c 0,-0.298593 1.70204,-2.551963 2.66626,-3.529915 2.46891,-2.504076 5.77865,-4.211247 9.10459,-4.696157 1.7354,-0.253015 4.73059,-0.101493 6.35345,0.321412 2.85873,0.744959 5.25497,2.131582 7.41234,4.28925 1.16779,1.167957 2.72943,3.218643 2.72943,3.584181 0,0.06423 -0.70833,0.116363 -1.57406,0.115859 l -1.57406,-9.11e-4 -0.31491,-0.462446 c -0.54221,-0.796247 -2.45373,-2.529379 -3.52667,-3.197566 -1.28041,-0.797386 -2.93059,-1.473186 -4.33013,-1.773322 -1.28622,-0.275836 -4.0527,-0.314008 -5.22453,-0.07209 -3.09759,0.639482 -5.94881,2.314644 -7.8367,4.604248 l -0.7369,0.893705 -1.57406,0.0046 c -0.86573,0.0026 -1.57405,-0.03385 -1.57405,-0.0809 z"
   id="path1685" /><path
   style="fill:#cccccc;stroke-width:0.133962"
   d="m 376.43444,26.314284 c -2.75581,-0.720545 -5.01667,-2.947795 -5.83785,-5.751051 -0.31914,-1.089455 -0.32095,-3.087019 -0.004,-4.152835 0.84716,-2.846572 3.1072,-5.051483 5.90323,-5.759226 1.03758,-0.262637 2.83159,-0.257885 3.87092,0.01025 2.01079,0.518764 4.21394,2.243404 5.1512,4.032385 0.93122,1.777464 1.18218,3.832588 0.69879,5.722599 -0.38104,1.489861 -0.98793,2.537033 -2.14665,3.704021 -1.11036,1.118275 -2.32211,1.835432 -3.70334,2.191777 -1.01434,0.26169 -2.93575,0.262706 -3.93255,0.0021 z m 2.8087,-2.611539 c 1.69643,-0.275235 3.25927,-1.464513 3.99926,-3.043318 0.31796,-0.678395 0.35903,-0.926885 0.35903,-2.172611 0,-1.245727 -0.0411,-1.494217 -0.35903,-2.172612 -1.00741,-2.149374 -3.35331,-3.424482 -5.62667,-3.058367 -1.82939,0.294613 -3.23139,1.357898 -4.03945,3.063519 -0.38388,0.8103 -0.42392,1.015675 -0.42392,2.174407 0,1.209975 0.0275,1.335221 0.50535,2.302102 0.89027,1.801345 2.386,2.790623 4.58522,3.03268 0.0737,0.0081 0.52378,-0.0485 1.00021,-0.1258 z"
   id="path1724" /></svg>
