<?xml version="1.0" encoding="UTF-8" standalone="no"?>
<svg
   width="573.99"
   height="138.843"
   viewBox="217.274 0.152 573.99 138.843"
   xml:space="preserve"
   version="1.1"
   id="svg12"
   sodipodi:docname="atari7800-w.svg"
   inkscape:version="1.1 (c68e22c387, 2021-05-23)"
   xmlns:inkscape="http://www.inkscape.org/namespaces/inkscape"
   xmlns:sodipodi="http://sodipodi.sourceforge.net/DTD/sodipodi-0.dtd"
   xmlns="http://www.w3.org/2000/svg"
   xmlns:svg="http://www.w3.org/2000/svg"><defs
   id="defs16" /><sodipodi:namedview
   id="namedview14"
   pagecolor="#ffffff"
   bordercolor="#666666"
   borderopacity="1.0"
   inkscape:pageshadow="2"
   inkscape:pageopacity="0.0"
   inkscape:pagecheckerboard="0"
   showgrid="false"
   inkscape:zoom="1.8432377"
   inkscape:cx="286.72373"
   inkscape:cy="69.171762"
   inkscape:window-width="1920"
   inkscape:window-height="1017"
   inkscape:window-x="-8"
   inkscape:window-y="712"
   inkscape:window-maximized="1"
   inkscape:current-layer="svg12" />
    <g
   style="fill:#f2f2f2"
   id="g4">
        <path
   d="M227.98 36.615c1.446-1.85 4.439-2.166 6.213-.614.726.612 1.234 1.455 1.494 2.361 3.284 11.302 6.583 22.598 9.863 33.899-1.938.002-3.878-.003-5.815.002-.914-3.115-1.807-6.237-2.709-9.356-3.749-.01-7.495-.003-11.243-.005-.917 3.118-1.823 6.239-2.725 9.361-1.928-.007-3.856-.002-5.784-.004a26461.48 26461.48 0 0 1 9.38-32.338c.372-1.126.513-2.384 1.326-3.306m3.422 6.926c-1.375 4.682-2.721 9.372-4.087 14.057 2.724.013 5.447.004 8.17.004-1.363-4.687-2.719-9.375-4.083-14.061zM268.813 36.858c1.01-1.465 2.963-2.176 4.683-1.724 1.573.363 2.778 1.719 3.193 3.246 3.281 11.293 6.574 22.583 9.855 33.876-1.941.013-3.881 0-5.822.008-.902-3.119-1.795-6.241-2.705-9.359-3.742.002-7.483-.007-11.225.003-.894 3.121-1.816 6.235-2.711 9.355-1.926.003-3.852-.002-5.777.003 3.119-10.84 6.274-21.672 9.417-32.504.33-.98.458-2.058 1.092-2.904m-.472 20.744c2.713.004 5.424.001 8.137.001-1.349-4.695-2.721-9.387-4.066-14.084-1.355 4.695-2.723 9.386-4.071 14.083zM241.211 35.078h21.035v5.673c-2.582.002-5.163-.003-7.744.002 0 10.502.001 21.007-.001 31.509h-5.547c0-10.502-.002-21.006.001-31.509-2.582-.005-5.162 0-7.745-.002.001-1.892-.001-3.782.001-5.673zM292.708 35.309a4.74 4.74 0 0 1 1.664-.233c2.211.008 4.423.001 6.632.003 3.724.068 7.278 2.378 8.889 5.73 1.115 2.176 1.231 4.706.949 7.093-.193 2.5-1.241 4.998-3.163 6.655-1.016.904-2.279 1.452-3.364 2.257-.597.455-.626 1.337-.318 1.968 2.934 4.529 5.984 8.989 8.98 13.48-2.19.004-4.382-.005-6.573.004-2.868-4.308-5.706-8.638-8.562-12.952-.84-1.228-1.068-2.854-.566-4.255.393-1.074 1.332-1.861 2.378-2.268 1.997-.762 3.966-1.959 5.072-3.843.842-1.417.798-3.165.419-4.715-.443-2.013-2.404-3.596-4.477-3.526-1.432.01-2.865-.008-4.295.007-.648-.015-1.258.548-1.25 1.204-.006 10.115.004 20.23-.002 30.347-1.863-.004-3.725 0-5.588-.002-.004-10.89.002-21.78-.004-32.671.012-1.909 1.369-3.704 3.179-4.283zM315.906 35.078h5.88c-.001 12.396.004 24.789-.003 37.186-1.958-.005-3.917 0-5.877-.002V35.078z"
   style="fill:#f2f2f2"
   transform="matrix(1.5 0 0 1.5 -93.637 14.924)"
   id="path2" />
    </g>
    <path
   d="M569.174 66.656c7.921-4.668 12.863-12.572 12.863-21.345 0-20.72-21.886-30.156-42.22-30.156-20.337 0-42.219 9.437-42.219 30.156 0 8.777 4.94 16.677 12.86 21.345-11.267 5.218-17.57 14.104-17.57 25.176 0 20.87 23.604 31.788 46.923 31.788 23.32 0 46.925-10.918 46.925-31.788.008-11.071-6.297-19.962-17.562-25.176zm-29.355-13.134c-5.187 0-9.406-3.345-9.406-7.461s4.219-7.463 9.406-7.463c5.183 0 9.406 3.347 9.406 7.463-.003 4.116-4.22 7.461-9.406 7.461zm0 26.587c5.774 0 10.469 3.851 10.469 8.594 0 4.596-4.697 8.341-10.469 8.341-5.775 0-10.469-3.737-10.469-8.341 0-4.743 4.695-8.594 10.469-8.594z"
   style="fill:#ad0e0e;stroke-width:1.5"
   id="path6" />
    <path
   d="M668.712 32.806c-8.66-11.547-21.385-17.654-36.793-17.654-15.408 0-28.133 6.104-36.794 17.654-7.28 9.714-11.292 22.771-11.292 36.769 0 27.087 14.868 54.42 48.092 54.42s48.094-27.334 48.094-54.42c-.009-14-4.021-27.057-11.307-36.77zM631.92 91.769c-11.582 0-12.849-15.056-12.849-22.322 0-7.196 1.273-22.07 12.849-22.07 11.582 0 12.848 14.874 12.848 22.07.002 7.267-1.267 22.322-12.848 22.322zM764.957 32.806c-8.658-11.547-21.385-17.654-36.79-17.654-15.408 0-28.133 6.104-36.794 17.654-7.281 9.714-11.293 22.771-11.293 36.769 0 27.087 14.869 54.42 48.093 54.42 33.219 0 48.091-27.334 48.091-54.42-.007-14-4.02-27.057-11.307-36.77zm-36.79 58.963c-11.585 0-12.851-15.056-12.851-22.322 0-7.196 1.274-22.07 12.85-22.07 11.577 0 12.846 14.874 12.846 22.07.006 7.267-1.265 22.322-12.845 22.322z"
   style="fill:#ad0e0e;stroke-width:1.5"
   id="path8" />
    <path
   transform="matrix(1.5 0 0 1.5 -93.637 14.924)"
   style="fill:#ad0e0e"
   d="M336.516 1.165v22.016h30.147l-22.491 49.205h25.464l30.24-71.221z"
   id="path10" />
<path
   style="fill:#ff0000;stroke-width:0.542524"
   d="m 206.31128,122.20345 c 0.15336,-0.52218 7.62797,-17.00508 16.61024,-36.628671 8.98227,-19.62359 16.3314,-35.797576 16.3314,-35.942191 0,-0.144616 -10.13163,-0.262939 -22.51473,-0.262939 H 194.22346 V 33.093941 16.818232 h 46.92829 c 25.81056,0 46.9296,0.183102 46.93119,0.406893 0.002,0.223791 -10.06899,24.147443 -22.37909,53.163672 l -22.38201,52.756783 -18.64471,0.004 c -17.50237,0.003 -18.62762,-0.0545 -18.36585,-0.94577 z"
   id="path870"
   transform="translate(217.274,0.152)" /><path
   style="fill:#ff0000;stroke-width:0.542524"
   d="m 407.4681,123.10569 c -17.29624,-2.23831 -31.05643,-14.1077 -37.17363,-32.065572 l -1.35066,-3.965077 -0.0139,4.66215 c -0.0228,7.679877 -2.68719,13.601029 -8.51789,18.929959 -20.53386,18.76681 -66.85244,15.58539 -80.49943,-5.52914 -2.87931,-4.45487 -3.95386,-8.90785 -3.67701,-15.237799 0.20033,-4.580359 0.44107,-5.579394 2.20411,-9.146655 2.36903,-4.793403 6.61377,-9.223357 11.67246,-12.181796 3.5251,-2.061554 3.53079,-2.068833 2.24291,-2.869485 -0.71013,-0.441478 -2.77129,-2.284704 -4.58036,-4.096058 -6.87669,-6.885396 -8.91122,-16.126333 -5.54719,-25.195544 4.16924,-11.239994 16.92192,-18.954549 34.33335,-20.76948 10.7587,-1.121465 22.32296,0.849317 31.64844,5.393533 5.29995,2.582616 11.72767,8.725917 13.82324,13.211586 3.12374,6.686504 3.1424,14.343192 0.0509,20.878088 -1.45614,3.07804 -6.54234,8.815032 -9.37794,10.577875 -1.2863,0.79967 -1.27735,0.81076 2.38171,2.949873 4.57781,2.676232 8.7456,6.79455 11.05026,10.919113 l 1.7677,3.163591 -0.31271,-2.170094 c -3.37004,-23.386722 4.57467,-45.927186 20.09847,-57.022618 9.61933,-6.875297 22.40361,-9.642451 34.97749,-7.570874 20.57877,3.390398 34.58868,18.467011 38.74754,41.697714 1.41968,7.93004 0.9338,21.418535 -1.03971,28.863537 -2.93731,11.080948 -9.25961,21.398783 -16.88211,27.551193 -9.23468,7.45364 -22.49139,10.77351 -36.02604,9.02198 z M 328.50908,95.690446 c 2.94888,-1.522142 4.60042,-4.085268 4.60042,-7.139659 0,-3.361211 -1.5794,-5.695788 -5.00983,-7.405242 -3.84628,-1.916687 -7.49279,-1.885199 -11.27734,0.09737 -9.20117,4.820105 -4.62124,16.332956 6.26151,15.739967 1.91747,-0.10448 4.15771,-0.638165 5.42524,-1.292433 z m 91.97614,-5.535303 c 5.15547,-3.27323 7.2578,-10.175904 6.88656,-22.610952 -0.25778,-8.634679 -1.04762,-11.948775 -3.83266,-16.081484 -2.48815,-3.692172 -8.65406,-5.411363 -13.22031,-3.686114 -6.50727,2.458614 -10.12499,14.510759 -8.35142,27.82205 1.49455,11.217175 5.34698,16.047382 12.82133,16.075496 2.68526,0.01009 3.72464,-0.267058 5.6965,-1.518996 z M 326.34732,52.99041 c 3.73625,-1.444831 5.67714,-3.915325 5.67714,-7.226254 0,-4.342969 -3.90752,-7.38061 -9.49417,-7.38061 -3.79032,0 -5.98055,0.925908 -8.07323,3.412912 -5.08006,6.037307 3.74366,14.344295 11.89026,11.193952 z"
   id="path909"
   transform="translate(217.274,0.152)" /><path
   style="fill:#ff0000;stroke-width:0.542524"
   d="m 503.90351,123.14814 c -15.51228,-2.46457 -26.85758,-10.46825 -33.74683,-23.807106 -4.84213,-9.375253 -6.83701,-18.129214 -6.83977,-30.014404 -0.005,-23.294076 10.70639,-42.469319 27.99595,-50.115581 6.32997,-2.799415 11.26011,-3.716093 19.74439,-3.671145 8.75487,0.04638 13.63047,1.023491 20.01557,4.011283 21.87731,10.237086 32.80522,39.587997 25.2502,67.818651 -3.79705,14.188332 -12.53853,25.659602 -23.76381,31.184782 -2.72524,1.34139 -6.8919,2.92623 -9.25924,3.52186 -4.95734,1.24731 -14.85056,1.79391 -19.39646,1.07166 z m 11.83765,-32.346179 c 4.32006,-2.050001 6.93776,-7.417014 7.92455,-16.247502 1.42199,-12.725167 -2.03755,-24.086061 -8.10674,-26.621931 -2.43448,-1.017191 -7.46175,-0.923919 -9.7916,0.181668 -2.29294,1.088069 -4.90044,4.595436 -6.30551,8.481589 -1.47875,4.089926 -1.8667,17.656081 -0.65291,22.831702 1.94014,8.272818 5.79841,12.259005 11.86563,12.259005 1.8367,0 3.99755,-0.377244 5.06658,-0.884531 z"
   id="path948"
   transform="translate(217.274,0.152)" /></svg>
