<?xml version="1.0" encoding="UTF-8" standalone="no"?>
<!-- Generator: Adobe Illustrator 13.0.0, SVG Export Plug-In . SVG Version: 6.00 Build 14948)  -->

<svg
   version="1.1"
   id="Ebene_1"
   x="0px"
   y="0px"
   width="566.929px"
   height="79.219px"
   viewBox="0 0 566.929 79.219"
   enable-background="new 0 0 566.929 79.219"
   xml:space="preserve"
   sodipodi:docname="atari800.svg"
   inkscape:version="1.1 (c68e22c387, 2021-05-23)"
   xmlns:inkscape="http://www.inkscape.org/namespaces/inkscape"
   xmlns:sodipodi="http://sodipodi.sourceforge.net/DTD/sodipodi-0.dtd"
   xmlns="http://www.w3.org/2000/svg"
   xmlns:svg="http://www.w3.org/2000/svg"
   xmlns:ns="&amp;ns_sfw;"><defs
   id="defs21401" /><sodipodi:namedview
   id="namedview21399"
   pagecolor="#ffffff"
   bordercolor="#666666"
   borderopacity="1.0"
   inkscape:pageshadow="2"
   inkscape:pageopacity="0.0"
   inkscape:pagecheckerboard="0"
   showgrid="false"
   inkscape:zoom="7.4647793"
   inkscape:cx="433.83734"
   inkscape:cy="48.695344"
   inkscape:window-width="1920"
   inkscape:window-height="1027"
   inkscape:window-x="-8"
   inkscape:window-y="712"
   inkscape:window-maximized="1"
   inkscape:current-layer="Ebene_1" />
<metadata
   id="metadata21363">
	<ns:sfw>
		<ns:slices />
		<ns:sliceSourceBounds
   x="677.036"
   y="499.891"
   width="566.929"
   height="79.219"
   bottomLeftOrigin="true" />
	</ns:sfw>
</metadata>
<g
   id="g21378">
	<g
   id="g21376">
		<g
   id="_x23_ffffffff">
			<path
   fill="#6B553F"
   d="M123.437,3.436c3.074-3.934,9.436-4.604,13.207-1.307c1.542,1.299,2.622,3.091,3.175,5.02     c6.981,24.021,13.994,48.033,20.966,72.058c-4.12,0.004-8.242-0.006-12.362,0.004c-1.943-6.623-3.841-13.258-5.759-19.889     c-7.967-0.018-15.932-0.004-23.898-0.008c-1.951,6.627-3.876,13.258-5.792,19.896c-4.098-0.014-8.195-0.004-12.294-0.008     c6.633-22.914,13.273-45.832,19.938-68.739C121.41,8.071,121.708,5.392,123.437,3.436 M130.71,18.154     c-2.921,9.952-5.783,19.924-8.688,29.881c5.791,0.027,11.579,0.01,17.367,0.01C136.491,38.082,133.608,28.119,130.71,18.154z"
   id="path21365" />
			<path
   fill="#6B553F"
   d="M210.231,3.953c2.147-3.114,6.298-4.627,9.953-3.666c3.345,0.771,5.905,3.654,6.788,6.899     c6.975,24.005,13.973,48.001,20.947,72.005c-4.125,0.033-8.25,0-12.375,0.018c-1.918-6.629-3.816-13.266-5.748-19.895     c-7.954,0.004-15.907-0.016-23.86,0.006c-1.901,6.635-3.86,13.252-5.763,19.885c-4.094,0.004-8.186-0.002-12.28,0.004     c6.629-23.041,13.336-46.063,20.019-69.087C208.613,8.041,208.883,5.749,210.231,3.953 M209.228,48.045     c5.766,0.008,11.53,0.004,17.296,0.004c-2.868-9.984-5.782-19.956-8.644-29.939C215.001,28.09,212.094,38.061,209.228,48.045z"
   id="path21367" />
			<path
   fill="#6B553F"
   d="M151.56,0.167c14.906,0,29.811,0,44.712,0c0,4.021,0,8.038,0,12.059     c-5.487,0.004-10.974-0.006-16.459,0.004c0,22.325,0.004,44.653-0.003,66.977c-3.929,0-7.862,0-11.792,0     c0-22.324-0.003-44.651,0.004-66.977c-5.489-0.01-10.974,0-16.462-0.004C151.56,8.206,151.557,4.189,151.56,0.167z"
   id="path21369" />
			<path
   fill="#6B553F"
   d="M261.023,0.657c1.133-0.391,2.342-0.524,3.537-0.495c4.699,0.017,9.398,0.003,14.098,0.006     c7.914,0.145,15.468,5.056,18.894,12.179c2.371,4.626,2.615,10.005,2.018,15.079c-0.41,5.313-2.64,10.625-6.723,14.145     c-2.158,1.926-4.846,3.09-7.153,4.801c-1.269,0.967-1.329,2.842-0.676,4.186c6.237,9.629,12.724,19.104,19.09,28.652     c-4.657,0.008-9.313-0.014-13.972,0.008c-6.098-9.156-12.13-18.359-18.202-27.529c-1.785-2.609-2.27-6.066-1.201-9.045     c0.834-2.285,2.831-3.958,5.055-4.82c4.246-1.619,8.431-4.166,10.782-8.172c1.788-3.01,1.697-6.725,0.893-10.021     c-0.942-4.277-5.11-7.644-9.513-7.495c-3.047,0.021-6.091-0.016-9.132,0.014c-1.377-0.032-2.672,1.165-2.655,2.561     c-0.014,21.501,0.008,43.004-0.006,64.504c-3.96-0.006-7.917,0-11.878-0.004c-0.007-23.146,0.007-46.297-0.007-69.443     C254.291,5.707,257.176,1.89,261.023,0.657z"
   id="path21371" />
			<path
   fill="#6B553F"
   d="M310.335,0.167c4.164,0,8.328,0,12.498,0c-0.004,26.349,0.006,52.692-0.008,79.042     c-4.162-0.01-8.326,0-12.49-0.004C310.335,52.857,310.335,26.512,310.335,0.167z"
   id="path21373" />
		</g>
	</g>
</g>
<g
   id="g21382">
	<path
   fill="#6B553F"
   d="M527.328,79.205c-21.836,0-39.604-17.766-39.604-39.603C487.724,17.764,505.492,0,527.328,0   c21.838,0,39.602,17.765,39.602,39.603C566.929,61.439,549.166,79.205,527.328,79.205z M527.328,2.908   c-20.234,0-36.695,16.461-36.695,36.694c0,20.234,16.461,36.695,36.695,36.695c20.232,0,36.693-16.461,36.693-36.695   C564.021,19.37,547.56,2.908,527.328,2.908z M527.328,66.582c-14.873,0-26.977-12.102-26.977-26.976   c0-14.875,12.104-26.976,26.977-26.976s26.975,12.101,26.975,26.976C554.302,54.48,542.201,66.582,527.328,66.582z M527.328,15.54   c-13.271,0-24.068,10.797-24.068,24.066c0,13.271,10.797,24.068,24.068,24.068c13.27,0,24.066-10.797,24.066-24.068   C551.394,26.336,540.597,15.54,527.328,15.54z"
   id="path21380" />
</g>
<g
   id="g21386">
	<path
   fill="#6B553F"
   d="M446.257,79.205c-21.836,0-39.604-17.766-39.604-39.603C406.654,17.764,424.421,0,446.257,0   c21.838,0,39.602,17.765,39.602,39.603C485.859,61.439,468.095,79.205,446.257,79.205z M446.257,2.908   c-20.232,0-36.695,16.461-36.695,36.694c0,20.234,16.463,36.695,36.695,36.695s36.693-16.461,36.693-36.695   C482.951,19.37,466.49,2.908,446.257,2.908z M446.257,66.582c-14.875,0-26.977-12.102-26.977-26.976   c0-14.875,12.102-26.976,26.977-26.976c14.873,0,26.975,12.101,26.975,26.976C473.232,54.48,461.13,66.582,446.257,66.582z    M446.257,15.54c-13.271,0-24.068,10.797-24.068,24.066c0,13.271,10.797,24.068,24.068,24.068s24.066-10.797,24.066-24.068   C470.324,26.336,459.527,15.54,446.257,15.54z"
   id="path21384" />
</g>
<g
   id="g21390">
	<path
   fill="#6B553F"
   d="M378.4,79.205c-15.295,0-27.736-12.441-27.736-27.738c0-9.178,4.637-17.842,12.197-22.976   c-1.932-2.98-2.943-6.41-2.943-10.009C359.917,8.292,368.208,0,378.4,0s18.484,8.292,18.484,18.481   c0,3.599-1.016,7.027-2.947,10.009c7.563,5.134,12.199,13.796,12.199,22.976C406.138,66.764,393.695,79.205,378.4,79.205z    M378.4,2.908c-8.588,0-15.576,6.986-15.576,15.574c0,3.479,1.127,6.773,3.256,9.524l1.006,1.297l-1.41,0.841   c-7.467,4.467-12.104,12.637-12.104,21.323c0,13.689,11.139,24.83,24.828,24.83c13.691,0,24.83-11.141,24.83-24.83   c0-8.688-4.639-16.857-12.105-21.323l-1.406-0.841l1.002-1.297c2.131-2.751,3.256-6.045,3.256-9.524   C393.976,9.895,386.988,2.908,378.4,2.908z M378.4,67.693c-8.945,0-16.225-7.275-16.225-16.227c0-8.943,7.277-16.225,16.225-16.225   c8.945,0,16.225,7.277,16.225,16.225C394.625,60.418,387.347,67.693,378.4,67.693z M378.4,38.151   c-7.344,0-13.316,5.976-13.316,13.318c0,7.344,5.975,13.318,13.316,13.318c7.344,0,13.316-5.975,13.316-13.318   C391.716,44.127,385.744,38.151,378.4,38.151z M378.4,26.639c-4.496,0-8.152-3.658-8.152-8.154c0-4.495,3.656-8.151,8.152-8.151   s8.152,3.656,8.152,8.151C386.554,22.981,382.896,26.639,378.4,26.639z M378.4,13.24c-2.893,0-5.244,2.354-5.244,5.244   c0,2.894,2.352,5.246,5.244,5.246c2.895,0,5.246-2.354,5.246-5.246C383.646,15.593,381.294,13.24,378.4,13.24z"
   id="path21388" />
</g>
<g
   id="g21396">
	<g
   id="g21394">
		<path
   fill="#6B553F"
   d="M70.453,0.003H8.761C3.942,0.003,0,3.946,0,8.765v61.692c0,4.818,3.942,8.762,8.761,8.762h61.692    c4.819,0,8.762-3.943,8.762-8.762V8.765C79.215,3.947,75.273,0.003,70.453,0.003z M34.269,31.85    c-0.175,3.69-0.406,7.389-1.017,11.037c-0.42,2.516-1.291,4.943-2.369,7.246c-1.761,3.711-4.528,6.852-7.639,9.492    c-2.782,2.449-6.104,4.232-9.597,5.438c-1.976,0.684-4.01,1.205-6.08,1.498c0.002-2.57,0.002-5.143,0-7.713    c2.492-0.375,4.889-1.26,7.114-2.43c2.641-1.396,5.018-3.273,7.019-5.488c2.067-2.285,3.713-4.932,4.963-7.742    c1.472-3.229,2.26-6.721,2.795-10.213c0.672-4.442,0.951-8.938,1.055-13.425c0.017-1.52,0.004-3.042,0.008-4.564    c1.303-0.004,2.606,0,3.911-0.002c0.005,3.064,0,6.131,0.002,9.195C34.447,26.736,34.375,29.293,34.269,31.85z M43.205,14.983    c0.001,17.192,0.001,34.386,0,51.576c-2.395,0.006-4.789-0.01-7.183,0.012c-0.031-5.481-0.005-10.967-0.013-16.446    c-0.003-11.71,0.005-23.422-0.004-35.134C38.405,14.974,40.805,14.987,43.205,14.983C43.205,14.982,43.205,14.982,43.205,14.983z     M71.648,66.555c-2.056-0.279-4.072-0.811-6.034-1.477c-2.336-0.813-4.596-1.865-6.672-3.217    c-1.515-0.973-2.892-2.139-4.216-3.355c-2.182-2.014-4.134-4.299-5.601-6.889c-1.147-2.018-1.985-4.195-2.64-6.416    c-0.601-2.232-0.857-4.543-1.09-6.837c-0.451-4.962-0.62-9.947-0.588-14.928c0-2.817-0.001-5.634,0-8.453    c1.297-0.001,2.593-0.004,3.888,0.001c-0.042,5.241,0.137,10.495,0.761,15.701c0.512,4.045,1.233,8.121,2.844,11.889    c1.527,3.646,3.729,7.035,6.598,9.768c2.74,2.613,6.06,4.621,9.667,5.777c1.007,0.32,2.036,0.572,3.083,0.727    C71.647,61.416,71.646,63.984,71.648,66.555z"
   id="path21392" />
	</g>
</g>
<path
   style="fill:#000000;stroke-width:0.53585"
   d="M 68.320841,65.597298 C 62.817393,64.145347 58.664228,61.703871 54.345987,57.382049 47.010235,50.040216 45.79965,46.054822 45.42047,27.998148 L 45.147596,15.003792 h 1.591504 1.591504 l 0.322292,7.635859 c 0.685556,16.242477 4.216654,25.554961 11.95307,31.523563 2.839058,2.190316 8.189381,4.743086 9.992236,4.767538 0.802563,0.01089 0.937737,0.553413 0.937737,3.763667 0,2.063021 -0.06028,3.735079 -0.133962,3.715683 -0.07368,-0.0194 -1.460191,-0.385158 -3.081136,-0.812804 z"
   id="path21514" /><path
   style="fill:#000000;stroke-width:0.53585"
   d="M 36.169857,40.72458 V 15.003792 h 3.483023 3.483023 V 40.72458 66.445367 H 39.65288 36.169857 Z"
   id="path21553" /><path
   style="fill:#000000;stroke-width:0.53585"
   d="m 7.7698211,62.744852 v -3.598777 l 2.6685419,-0.683927 c 1.467699,-0.37616 4.059872,-1.589179 5.760385,-2.695598 9.46889,-6.160822 13.582465,-15.615473 14.41301,-33.126899 l 0.362159,-7.635859 h 1.597487 1.597486 l -0.298216,12.726432 c -0.425831,18.172332 -1.682781,22.33021 -8.952705,29.614719 -4.319722,4.328389 -8.497961,6.764882 -14.067012,8.20302 l -3.0811359,0.795665 z"
   id="path21592" /><path
   style="fill:#000000;stroke-width:0.53585"
   d="m 372.95141,75.315078 c -5.2387,-1.338274 -8.53248,-3.271202 -12.44733,-7.304617 -7.20824,-7.426562 -8.61414,-19.442642 -3.35108,-28.641501 1.48893,-2.60239 5.4507,-6.719235 8.75091,-9.09345 l 1.48968,-1.0717 -1.39709,-1.875474 c -0.76841,-1.03151 -1.77719,-3.181691 -2.24174,-4.778179 -2.87456,-9.878724 5.36427,-19.9867533 15.64261,-19.1915545 5.67031,0.4386918 9.95614,3.3551522 12.54561,8.5371475 2.65024,5.303583 2.11745,10.780824 -1.54961,15.930738 l -1.0624,1.492004 2.9695,2.045169 c 3.76598,2.593735 6.13843,5.492486 8.34405,10.195101 1.50066,3.199574 1.77369,4.433344 1.94983,8.811113 0.24071,5.982644 -0.88773,10.12898 -4.05545,14.901349 -5.41625,8.159919 -16.27579,12.422615 -25.58749,10.043854 z m 12.26133,-8.842185 c 3.62164,-1.758257 6.05234,-4.135211 7.79507,-7.622725 1.40813,-2.817921 1.64552,-3.886697 1.64552,-7.408594 0,-3.51815 -0.23789,-4.591674 -1.63865,-7.39484 -2.85319,-5.709736 -8.15012,-8.911771 -14.70477,-8.889145 -5.07969,0.01753 -8.56427,1.579898 -12.06385,5.408996 -9.94654,10.883097 -1.40561,28.316539 13.34025,27.229659 1.8809,-0.138635 4.41279,-0.734146 5.62643,-1.323351 z M 382.3181,25.853917 c 2.75568,-1.3845 4.2979,-4.009888 4.29548,-7.312382 -0.004,-4.91313 -3.31555,-8.354473 -8.0441,-8.358387 -6.67231,-0.0055 -10.69716,6.915995 -7.29242,12.540739 2.28019,3.766954 7.07042,5.124938 11.04104,3.13003 z"
   id="path21631" /><path
   style="fill:#000000;stroke-width:0.53585"
   d="m 438.86093,75.268293 c -2.06302,-0.444916 -5.92114,-1.870094 -8.5736,-3.16707 C 414.43973,64.352225 406.31021,46.02833 411.37558,29.474238 414.8858,18.002516 423.75252,8.8263266 434.895,5.1339506 c 16.97984,-5.62675097 35.64511,2.0739353 43.67482,18.0188134 10.14243,20.140173 0.002,44.265695 -21.47822,51.101348 -5.47754,1.743092 -12.92876,2.157604 -18.23067,1.014181 z m 16.02386,-9.876862 c 11.13102,-3.829633 18.53845,-14.114007 18.53845,-25.738551 0,-18.634435 -18.51718,-31.8282625 -36.1266,-25.740868 -10.89466,3.766168 -18.03209,13.837642 -18.05212,25.472943 -0.019,11.009811 5.59903,20.066758 15.32961,24.713395 2.06302,0.985155 5.07718,2.022495 6.69812,2.305204 3.93078,0.685561 9.98691,0.235276 13.61254,-1.012123 z"
   id="path21670" /><path
   style="fill:#ffffff;stroke-width:0.53585"
   d="m 521.15067,75.507459 c -14.56184,-2.856433 -25.62442,-13.358096 -29.28803,-27.803013 -1.23648,-4.875204 -0.8347,-14.501642 0.80572,-19.30441 3.12401,-9.146409 9.90709,-16.962635 18.32887,-21.1205784 6.46412,-3.1914204 11.42469,-4.2554573 18.20428,-3.9048008 12.91107,0.6677908 24.68958,8.3349352 30.43187,19.8094262 2.90991,5.814717 3.96176,10.19767 3.95228,16.468797 -0.0126,8.316231 -2.74123,16.14523 -7.88912,22.635263 -7.93358,10.001999 -22.51077,15.580104 -34.54587,13.219316 z m 10.68019,-9.077471 c 4.25291,-0.663189 10.2083,-3.484786 13.53418,-6.412342 9.87397,-8.691418 11.9682,-24.147382 4.76126,-35.139284 -9.63084,-14.688779 -29.95456,-16.7598345 -42.14075,-4.294284 -12.9568,13.253824 -9.17933,35.443874 7.39042,43.413602 5.62983,2.707842 10.27997,3.395208 16.45489,2.432308 z"
   id="path21709" /><path
   style="fill:#ffffff;stroke-width:0.53585"
   d="M 4.5492736,77.564249 C 3.574957,76.901135 2.2733526,75.677945 1.6568193,74.846054 0.55276018,73.356339 0.53340936,72.843032 0.37408232,40.819596 0.26583039,19.061852 0.39993279,7.6608228 0.77944873,6.3564156 1.60286,3.5263271 4.1915882,1.2383833 7.3324772,0.56478315 10.619864,-0.1402351 68.744398,-0.18689409 71.762395,0.51306256 c 2.399203,0.55644284 4.30702,1.84285144 5.902706,3.98010124 1.088434,1.457836 1.10481,1.979034 1.10481,35.1597162 0,33.334028 -0.01152,33.695485 -1.120971,35.192826 -0.616533,0.832084 -1.918139,2.055429 -2.892453,2.718543 L 72.985,78.769911 H 39.65288 6.320758 Z M 12.860394,65.528544 c 7.74761,-2.376167 14.829588,-8.323231 18.122403,-15.218232 2.663799,-5.57787 3.125196,-8.680614 3.437486,-23.115938 L 34.695604,14.467943 H 32.485557 30.27551 v 4.307918 c 0,5.30177 -0.873855,13.566291 -1.918463,18.143945 -2.30377,10.095528 -9.400118,18.311544 -17.998205,20.837974 l -3.1233852,0.917766 -7.502e-4,4.163043 -7.502e-4,4.163043 1.4735867,-0.325684 C 9.5180159,66.496819 11.386792,65.980485 12.860379,65.528544 Z M 43.671753,41.024129 c 0,-14.276399 -0.208376,-26.085871 -0.463057,-26.243273 -0.254681,-0.157402 -2.063174,-0.136764 -4.018873,0.04586 l -3.555816,0.332047 v 25.911225 25.911225 h 4.018873 4.018873 z M 72.071789,62.754053 V 58.52689 L 70.062352,58.154132 C 66.759986,57.541521 61.818846,54.613403 58.587093,51.35389 52.144698,44.856159 49.048024,34.505434 49.034647,19.424553 l -0.0044,-4.95661 h -2.208469 -2.20847 l 0.281805,13.262281 c 0.310229,14.599949 0.77941,17.58395 3.665862,23.314965 2.140804,4.250538 7.640523,9.705263 12.246381,12.146187 2.802682,1.485306 8.921272,3.60187 10.862543,3.757598 0.221038,0.01774 0.401887,-1.869981 0.401887,-4.194921 z"
   id="path21785" /><path
   style="fill:#ffffff;stroke-width:0.53585"
   d="m 101.28073,78.100098 c 0.13168,-0.368396 4.94607,-16.899977 10.69864,-36.736842 5.75258,-19.836866 10.8819,-36.6395289 11.3985,-37.3392506 2.55534,-3.46116744 8.52079,-4.60253438 11.92964,-2.2824938 0.97431,0.6631141 2.22035,1.8120289 2.76896,2.5531441 0.54862,0.7411152 5.6949,17.4998153 11.43619,37.2415563 5.74128,19.741741 10.55466,36.203345 10.69639,36.581339 0.20208,0.538915 -1.03255,0.654583 -5.71961,0.53585 l -5.97731,-0.151415 -2.78401,-9.645295 -2.78401,-9.645296 h -12.24064 -12.24063 l -1.69236,5.894347 c -0.93081,3.241891 -2.21597,7.642557 -2.85593,9.779258 l -1.16356,3.884911 h -5.85484 c -4.45433,0 -5.79757,-0.160225 -5.61542,-0.669813 z m 38.30813,-30.172489 c 0,-0.661033 -8.17655,-28.425763 -8.59124,-29.172868 -0.39657,-0.714467 -0.47838,-0.714467 -0.73628,0 -0.5833,1.615873 -8.35553,28.635091 -8.35553,29.046975 0,0.233618 3.97869,0.42476 8.84152,0.42476 4.86284,0 8.84153,-0.13449 8.84153,-0.298867 z"
   id="path21824" /><path
   style="fill:#ffffff;stroke-width:0.53585"
   d="M 168.52474,45.279302 V 11.788694 h -8.30567 -8.30567 V 6.1622719 0.53584973 h 21.96984 21.96984 V 6.1622719 11.788694 h -8.03775 -8.03775 v 33.490608 33.490609 h -5.62642 -5.62642 z"
   id="path21863" /><path
   style="fill:#ffffff;stroke-width:0.53585"
   d="m 188.48652,78.100098 c 0.1375,-0.368396 4.88251,-16.705115 10.54447,-36.303819 6.45903,-22.35775 10.76158,-36.3514665 11.54821,-37.559697 1.57312,-2.416258 4.22701,-3.70073227 7.64619,-3.70073227 3.31044,0 6.43731,2.06958557 7.76885,5.14197437 0.78863,1.8196819 21.30041,71.8879999 21.30041,72.7622759 0,0.181396 -2.60285,0.329811 -5.78412,0.329811 h -5.78412 l -2.87091,-9.91322 -2.87091,-9.913221 H 217.85665 205.7287 l -2.8664,9.913221 -2.86641,9.91322 h -5.87968 c -4.47985,0 -5.82017,-0.159469 -5.62969,-0.669813 z m 37.26394,-33.758533 c -4.738,-16.743748 -7.87151,-26.801026 -8.13895,-26.122674 -0.65526,1.662052 -8.35982,28.696524 -8.36098,29.337773 -9.2e-4,0.508709 2.11542,0.669812 8.79902,0.669812 h 8.80023 z"
   id="path21902" /><path
   style="fill:#ffffff;stroke-width:0.53585"
   d="m 254.79655,43.109293 c 0,-30.091502 0.12125,-35.8950902 0.7764,-37.1620126 1.14406,-2.2123648 4.30222,-4.774515 6.36133,-5.16080566 0.99118,-0.18594693 6.24097,-0.25812366 11.66619,-0.16039274 9.40528,0.16942851 10.0074,0.24487712 12.94659,1.6222827 9.08255,4.2563945 13.96906,13.6365043 12.73599,24.4479253 -0.94461,8.282205 -3.86147,13.032624 -10.73091,17.476442 -3.75143,2.426791 -4.63511,3.710426 -3.97852,5.779185 0.20766,0.654275 4.44373,7.281941 9.41348,14.728141 4.96976,7.446205 9.03592,13.662593 9.03592,13.814201 0,0.151608 -2.87058,0.275652 -6.37907,0.275652 h -6.37908 l -9.35958,-14.117144 c -5.14777,-7.76443 -9.65208,-15.003401 -10.00957,-16.086603 -0.80526,-2.43997 -0.30659,-5.729847 1.14901,-7.580341 0.5961,-0.757819 2.99258,-2.337558 5.32551,-3.510532 7.75032,-3.896787 10.65124,-7.568483 10.646,-13.474668 -0.004,-4.695312 -0.73412,-6.852872 -3.07152,-9.07852 -2.73364,-2.602952 -4.6695,-3.133409 -11.43512,-3.133409 -4.53654,0 -5.95681,0.180706 -6.61816,0.84205 -0.74707,0.747072 -0.84205,4.524567 -0.84205,33.490608 v 32.648559 h -5.62642 -5.62642 z"
   id="path21941" /><path
   style="fill:#ffffff;stroke-width:0.53585"
   d="M 310.52492,39.65288 V 0.53584973 h 5.89435 5.89434 V 39.65288 78.769911 h -5.89434 -5.89435 z"
   id="path21980" /><path
   style="fill:#ffffff;stroke-width:0.133962"
   d="m 444.55433,66.426056 c -10.81301,-0.605671 -20.43885,-8.053129 -23.8425,-18.44681 -5.24225,-16.008184 5.41598,-32.879242 22.14134,-35.047835 11.831,-1.533993 23.36378,5.08376 28.12359,16.137911 4.28877,9.960192 2.07329,21.663685 -5.55375,29.338299 -5.67137,5.706741 -12.85586,8.467257 -20.86868,8.018435 z m 5.76039,-3.050678 c 8.27947,-1.427627 15.14446,-6.955752 18.30754,-14.742396 1.20571,-2.968124 1.7197,-5.735991 1.70491,-9.181045 -0.0145,-3.369253 -0.51836,-5.956947 -1.74778,-8.975483 -3.0312,-7.44233 -9.63237,-12.884943 -17.66184,-14.562045 -1.29525,-0.270537 -1.85457,-0.307786 -4.6217,-0.307786 -2.78802,0 -3.32434,0.03628 -4.68869,0.317188 -10.31661,2.124085 -17.94783,10.31045 -19.3003,20.704331 -0.23595,1.813288 -0.0948,5.826112 0.26846,7.630175 1.55423,7.719541 6.75267,14.219918 13.92941,17.417991 2.15192,0.95893 4.94758,1.698984 7.37979,1.953544 1.6425,0.171906 4.64699,0.053 6.4302,-0.254474 z"
   id="path22019" /><path
   style="fill:#ffffff;stroke-width:0.133962"
   d="m 443.21471,79.027519 c -12.5444,-1.029665 -23.65625,-7.786665 -30.49465,-18.54348 -3.03091,-4.767616 -5.05682,-10.566251 -5.73343,-16.410399 -0.26609,-2.298361 -0.27291,-6.628329 -0.0139,-8.842341 0.87985,-7.521489 3.70966,-14.354016 8.37757,-20.227506 1.45016,-1.824694 4.513,-4.889837 6.29647,-6.301215 6.00538,-4.7524553 12.88106,-7.5652402 20.63021,-8.43966348 1.86647,-0.21061431 6.46694,-0.17303249 8.49806,0.0694217 4.6079,0.55004542 8.65596,1.75239368 12.86895,3.82231908 17.94163,8.8150627 26.49098,29.5578527 19.94174,48.3834337 -4.17472,12.000102 -13.84927,21.254139 -26.08626,24.952401 -4.31046,1.30271 -9.86202,1.900053 -14.28475,1.537029 z m 8.39467,-3.0568 c 7.93121,-1.197423 14.95893,-4.74122 20.61101,-10.393297 5.64849,-5.648492 9.15436,-12.587313 10.40086,-20.585391 0.39942,-2.562846 0.43356,-7.875886 0.0666,-10.362742 -1.20508,-8.166375 -4.79501,-15.36874 -10.48631,-21.038327 -5.81306,-5.7908979 -13.00495,-9.3145233 -21.35096,-10.4607934 -2.02622,-0.2782874 -6.77729,-0.3135693 -8.77454,-0.065161 -5.48749,0.6825075 -10.66357,2.4905914 -15.20474,5.3112514 -4.58893,2.850328 -9.01443,7.276461 -11.85036,11.852068 -5.33461,8.607067 -6.87353,18.928267 -4.28952,28.769016 1.60759,6.122273 4.70204,11.574632 9.17056,16.158395 3.07604,3.155363 6.03131,5.333541 9.84952,7.259579 4.1016,2.068992 8.46567,3.338242 13.06133,3.798766 1.98757,0.19917 6.73543,0.06782 8.79656,-0.243364 z"
   id="path22058" /><path
   style="fill:#ffffff;stroke-width:0.133962"
   d="m 524.37947,79.024387 c -6.66204,-0.513311 -13.23802,-2.769417 -18.71295,-6.420099 -2.6806,-1.787418 -3.90863,-2.793942 -6.19777,-5.07982 -3.28782,-3.283141 -5.44464,-6.261753 -7.47456,-10.322509 -2.75135,-5.503942 -3.98315,-10.461882 -4.12707,-16.611342 -0.1106,-4.725571 0.43684,-8.706485 1.76386,-12.826619 4.8301,-14.996417 17.71716,-25.6351803 33.2244,-27.4280082 2.17063,-0.25095167 6.4392,-0.28580692 8.43963,-0.0689143 13.07438,1.4175648 24.37563,8.9357665 30.73547,20.4468885 4.73991,8.57909 6.05835,19.02114 3.60913,28.584211 -2.38298,9.304433 -8.08637,17.450664 -16.05873,22.936909 -7.29205,5.018087 -16.3875,7.468415 -25.20141,6.789303 z m 8.37157,-3.065354 c 11.9624,-1.811689 22.26727,-9.355052 27.5453,-20.16368 2.77766,-5.688235 3.89203,-10.890314 3.71274,-17.3317 -0.1116,-4.009496 -0.59906,-6.802156 -1.83127,-10.491302 -4.09322,-12.254827 -14.30143,-21.4543668 -26.93091,-24.26989 -10.33563,-2.3041489 -21.45382,0.099873 -29.93164,6.471948 -8.23273,6.187859 -13.38167,15.247148 -14.54636,25.593561 -0.20573,1.827516 -0.17195,6.206184 0.0632,8.18723 0.93404,7.87065 4.43391,15.289054 9.9001,20.984511 6.35787,6.624524 14.40757,10.458487 23.79776,11.334546 1.54985,0.144594 6.41732,-0.04204 8.22113,-0.315224 z"
   id="path22097" /><path
   style="fill:#ffffff;stroke-width:0.133962"
   d="m 525.60161,66.429164 c -13.01086,-0.771599 -23.7208,-11.125363 -25.0446,-24.2117 -1.16505,-11.517013 5.43717,-22.664267 16.17533,-27.310597 3.07722,-1.331494 6.18756,-2.024213 9.61971,-2.142451 4.63091,-0.159535 8.88414,0.752786 12.89,2.764915 11.64775,5.850617 17.4707,18.93349 13.96479,31.375715 -2.87405,10.199751 -11.70443,17.89316 -22.17976,19.323945 -1.87558,0.256179 -3.48181,0.315441 -5.42547,0.200173 z m 3.96211,-2.80557 c 8.52153,-0.829952 15.86523,-5.970168 19.54015,-13.677107 3.22468,-6.762731 3.12944,-14.436734 -0.26326,-21.211545 -3.28269,-6.55512 -9.383,-11.206312 -16.80881,-12.815908 -1.2486,-0.270642 -1.77528,-0.304891 -4.68868,-0.304891 -2.91289,0 -3.43849,0.03417 -4.67256,0.303731 -2.72918,0.596151 -5.3762,1.592892 -7.43533,2.799791 -6.63069,3.886377 -10.9321,10.464908 -11.87946,18.168318 -0.20245,1.646221 -0.0944,5.333248 0.20373,6.954799 2.27216,12.356696 13.61926,20.989043 26.00422,19.782812 z"
   id="path22136" /><path
   style="fill:#ffffff;stroke-width:0.133962"
   d="m 375.89859,79.031348 c -8.41998,-0.864914 -15.83822,-5.302181 -20.50392,-12.264545 -2.33903,-3.490406 -3.94631,-7.839967 -4.47372,-12.106616 -0.20069,-1.62356 -0.16881,-5.194009 0.0608,-6.809287 0.69133,-4.863467 2.49551,-9.204117 5.46768,-13.15463 1.23367,-1.63974 3.70517,-4.113031 5.27877,-5.282593 l 1.23529,-0.91811 -0.34246,-0.550125 c -0.93414,-1.500587 -1.82482,-3.757249 -2.26605,-5.741404 -0.3342,-1.502837 -0.4101,-4.843515 -0.14769,-6.500316 1.09242,-6.8972702 5.94653,-12.5675712 12.62606,-14.74906161 3.48587,-1.13846024 7.76672,-1.12040223 11.2569,0.0474852 5.42425,1.8150675 9.59372,5.8349023 11.60492,11.1884354 0.85805,2.28402 1.27069,5.36518 1.04357,7.792393 -0.27498,2.938799 -1.07384,5.400314 -2.63581,8.121709 -0.24574,0.428159 -0.24594,0.445699 -0.006,0.582973 0.67321,0.385912 2.97748,2.374345 4.11157,3.548016 4.16837,4.313861 6.75612,9.657611 7.64633,15.78986 0.24551,1.691166 0.20739,5.549063 -0.0728,7.367934 -1.69957,11.032916 -9.5701,19.905116 -20.20788,22.779714 -2.89486,0.782262 -6.92986,1.140163 -9.67509,0.858168 z m 5.04289,-2.81278 c 3.0551,-0.308345 5.69752,-1.088706 8.62128,-2.546043 4.86186,-2.423378 8.62171,-6.183225 11.04508,-11.045088 1.08534,-2.17745 1.59097,-3.57388 2.06531,-5.703936 1.56364,-7.021687 0.0787,-14.193312 -4.16626,-20.121915 -1.74481,-2.436806 -4.67505,-5.105439 -7.43926,-6.775099 -0.64348,-0.388684 -1.16997,-0.739316 -1.16997,-0.779183 0,-0.03987 0.29365,-0.442731 0.65256,-0.895255 3.35063,-4.224598 4.34188,-9.608354 2.70637,-14.699115 -0.79173,-2.464371 -1.99243,-4.4040225 -3.89061,-6.2850002 -4.74821,-4.7051911 -11.90076,-5.856638 -17.88815,-2.87971 -5.40989,2.6897912 -8.66964,7.9480092 -8.6782,13.9985922 -0.005,3.534888 1.01237,6.582308 3.16163,9.470225 l 0.99022,1.330536 -1.22981,0.753049 c -4.32925,2.650911 -7.48901,6.080116 -9.64215,10.46435 -3.46368,7.052757 -3.41011,15.120525 0.14727,22.181424 1.31387,2.607849 2.42512,4.13083 4.59989,6.304253 2.55261,2.55101 4.77771,4.075792 7.83278,5.367505 3.90486,1.651015 8.08424,2.284084 12.28202,1.86041 z"
   id="path22175" /><path
   style="fill:#ffffff;stroke-width:0.133962"
   d="m 376.43444,67.499066 c -6.17246,-0.777175 -11.48925,-5.166215 -13.36626,-11.0339 -0.64394,-2.01303 -0.70016,-2.426486 -0.69212,-5.090573 0.007,-2.31986 0.0391,-2.661716 0.36283,-3.859883 0.76457,-2.830096 2.0027,-5.021335 4.04462,-7.158209 2.15886,-2.25924 4.69373,-3.761309 7.66909,-4.544405 1.80405,-0.474816 4.8032,-0.584116 6.70174,-0.244237 6.74258,1.207062 11.87002,6.339176 13.18247,13.194467 0.25244,1.318592 0.21141,4.397456 -0.0768,5.760384 -0.71787,3.395003 -2.15987,6.029341 -4.61973,8.439634 -1.54734,1.516168 -3.01073,2.519561 -4.79403,3.287103 -2.74055,1.17955 -5.59754,1.603968 -8.41183,1.249619 z m 4.23576,-2.857874 c 5.25163,-0.919726 9.27967,-4.6589 10.73056,-9.961018 0.41533,-1.517779 0.41628,-4.710089 0.002,-6.356484 -1.14416,-4.545824 -4.51929,-8.19034 -8.87292,-9.581123 -1.52085,-0.485841 -2.43106,-0.613684 -4.2868,-0.6021 -1.47888,0.0092 -2.04547,0.07316 -3.10871,0.350745 -4.87074,1.271646 -8.57942,5.052578 -9.77167,9.962065 -0.21403,0.88135 -0.28847,1.620355 -0.29427,2.921316 -0.0105,2.360966 0.36966,4.051742 1.35546,6.02831 2.65856,5.33048 8.42139,8.258439 14.24646,7.238289 z"
   id="path22214" /><path
   style="fill:#ffffff;stroke-width:0.133962"
   d="m 376.40523,26.326534 c -2.22633,-0.62481 -4.25957,-2.318131 -5.23126,-4.356695 -0.62634,-1.314028 -0.83482,-2.183855 -0.83482,-3.483023 0,-1.275485 0.2071,-2.152565 0.81997,-3.472539 0.43352,-0.933693 0.71401,-1.314767 1.62693,-2.21038 1.81384,-1.779443 3.51725,-2.438521 5.99106,-2.318026 1.72665,0.0841 2.7239,0.40797 4.10917,1.334498 1.20125,0.803446 2.15516,1.91145 2.77137,3.21906 0.59922,1.271545 0.77613,2.057345 0.77613,3.447387 0,1.384256 -0.17755,2.178646 -0.7635,3.416042 -0.90224,1.905345 -2.68532,3.531042 -4.62277,4.214734 -1.11669,0.39406 -3.58656,0.505226 -4.64228,0.208942 z m 3.77444,-2.838719 c 2.49695,-0.876371 4.01769,-3.6601 3.3734,-6.175034 -0.29696,-1.159135 -0.67058,-1.835025 -1.43934,-2.603777 -1.24317,-1.243177 -3.02727,-1.760141 -4.7993,-1.390661 -1.63273,0.340433 -2.86173,1.28593 -3.67093,2.82413 -0.39997,0.760283 -0.42288,0.883511 -0.4235,2.277362 -5.9e-4,1.33391 0.0349,1.549774 0.37437,2.277361 1.14117,2.445805 4.05256,3.679547 6.5853,2.790619 z"
   id="path22253" /></svg>
