<?xml version="1.0" encoding="UTF-8" standalone="no"?>
<svg
   version="1.2"
   width="566.924"
   height="121.752"
   xml:space="preserve"
   id="svg8"
   sodipodi:docname="atari2600.svg"
   inkscape:version="1.1 (c68e22c387, 2021-05-23)"
   xmlns:inkscape="http://www.inkscape.org/namespaces/inkscape"
   xmlns:sodipodi="http://sodipodi.sourceforge.net/DTD/sodipodi-0.dtd"
   xmlns="http://www.w3.org/2000/svg"
   xmlns:svg="http://www.w3.org/2000/svg"><defs
   id="defs12" /><sodipodi:namedview
   id="namedview10"
   pagecolor="#ffffff"
   bordercolor="#666666"
   borderopacity="1.0"
   inkscape:pageshadow="2"
   inkscape:pageopacity="0.0"
   inkscape:pagecheckerboard="0"
   showgrid="false"
   inkscape:zoom="2.6392213"
   inkscape:cx="186.98697"
   inkscape:cy="-15.345436"
   inkscape:window-width="1920"
   inkscape:window-height="1017"
   inkscape:window-x="-8"
   inkscape:window-y="712"
   inkscape:window-maximized="1"
   inkscape:current-layer="svg8" />
    <g
   fill="#C60000"
   id="g6">
        <path
   d="M207.014 5.277c4.724-6.043 14.501-7.076 20.297-2.006 2.37 1.996 4.031 4.75 4.88 7.715 10.73 36.92 21.508 73.822 32.223 110.746-6.332.006-12.667-.012-18.999.006-2.987-10.18-5.903-20.377-8.852-30.565-12.246-.024-24.485-.006-36.73-.012a5818.517 5818.517 0 0 0-8.901 30.582c-6.298-.021-12.596-.005-18.895-.011 10.194-35.221 20.4-70.438 30.643-105.647 1.218-3.681 1.678-7.798 4.334-10.808m11.179 22.625c-4.49 15.295-8.889 30.619-13.354 45.922 8.9.043 17.796.016 26.692.016-4.453-15.313-8.884-30.625-13.338-45.938zM340.411 6.072c3.301-4.787 9.681-7.109 15.296-5.631 5.142 1.184 9.075 5.615 10.434 10.604 10.72 36.893 21.477 73.772 32.194 110.666-6.342.049-12.679 0-19.021.024-2.948-10.188-5.864-20.387-8.834-30.575-12.226.006-24.447-.021-36.672.01-2.922 10.195-5.935 20.367-8.855 30.563-6.293.006-12.581-.006-18.874.006 10.188-35.414 20.497-70.797 30.768-106.187 1.076-3.195 1.492-6.718 3.564-9.48m-1.543 67.768c8.863.013 17.722.007 26.584.007-4.409-15.347-8.89-30.671-13.284-46.015-4.426 15.338-8.894 30.662-13.3 46.008zM250.237.256h68.719v18.533c-8.437.006-16.865-.01-25.296.006 0 34.313.006 68.627-.005 102.938h-18.122c0-34.312-.005-68.625.005-102.938-8.436-.016-16.866 0-25.301-.006 0-6.178-.005-12.351 0-18.533zM418.475 1.01c1.74-.602 3.599-.807 5.437-.764 7.223.025 14.446.006 21.667.01 12.164.225 23.773 7.771 29.037 18.719 3.646 7.109 4.021 15.377 3.102 23.176-.634 8.164-4.058 16.328-10.334 21.741-3.313 2.952-7.443 4.743-10.992 7.375-1.947 1.481-2.047 4.364-1.039 6.428 9.586 14.799 19.552 29.367 29.34 44.039-7.158.012-14.316-.017-21.476.012-9.37-14.074-18.643-28.219-27.976-42.313-2.743-4.013-3.489-9.324-1.846-13.902 1.281-3.512 4.351-6.08 7.769-7.406 6.524-2.49 12.958-6.4 16.572-12.559 2.749-4.627 2.605-10.336 1.37-15.4-1.45-6.574-7.855-11.746-14.625-11.52-4.682.031-9.359-.021-14.033.021-2.116-.049-4.107 1.791-4.08 3.934-.022 33.047.011 66.096-.01 99.141-6.088-.012-12.168 0-18.256-.006-.012-35.576.012-71.154-.012-106.73.038-6.236 4.473-12.104 10.385-13.996zM494.262.256h19.21c-.006 40.496.013 80.986-.012 121.481-6.396-.018-12.796 0-19.198-.006V.256zM54.173.008c3.076-.01 6.153 0 9.229-.008.013 7.234 0 14.469.005 21.701.032 6.039-.139 12.076-.389 18.107-.412 8.711-.957 17.439-2.4 26.05-.991 5.937-3.044 11.662-5.592 17.099-4.156 8.76-10.686 16.172-18.027 22.405-6.567 5.779-14.405 9.986-22.649 12.835-4.664 1.604-9.463 2.844-14.35 3.532.005-6.065.005-12.137 0-18.203 5.883-.883 11.538-2.971 16.791-5.729 6.233-3.295 11.844-7.729 16.566-12.953 4.877-5.395 8.764-11.641 11.714-18.272 3.474-7.625 5.333-15.861 6.597-24.109 1.584-10.482 2.244-21.088 2.489-31.684.035-3.591.005-7.183.016-10.771zM67.116.02C72.778-.017 78.444.014 84.108.004c.002 40.574.002 81.149 0 121.728-5.65.012-11.303-.027-16.953.021-.072-12.938-.01-25.879-.03-38.815-.007-27.643.011-55.28-.009-82.918zM87.888.004c3.06-.002 6.118-.008 9.176.002-.099 12.371.322 24.766 1.797 37.057 1.207 9.547 2.909 19.164 6.711 28.059 3.604 8.605 8.801 16.604 15.572 23.051 6.466 6.166 14.302 10.906 22.815 13.635 2.375.76 4.805 1.355 7.274 1.715-.003 6.064-.006 12.129 0 18.191-4.852-.658-9.61-1.908-14.24-3.482-5.514-1.918-10.847-4.401-15.745-7.588-3.576-2.301-6.828-5.053-9.952-7.924-5.149-4.748-9.758-10.146-13.219-16.256-2.708-4.758-4.683-9.9-6.23-15.145-1.418-5.271-2.023-10.717-2.573-16.135-1.064-11.709-1.462-23.477-1.386-35.23 0-6.649-.002-13.302 0-19.95z"
   id="path2" />
        <path
   d="M54.173.008c-.01 3.588.02 7.18-.016 10.77-.245 10.596-.904 21.201-2.489 31.684-1.264 8.248-3.124 16.484-6.597 24.109-2.95 6.635-6.837 12.879-11.714 18.272-4.722 5.228-10.333 9.658-16.566 12.953-5.253 2.764-10.908 4.85-16.791 5.73.005 6.066.005 12.138 0 18.203 4.887-.688 9.686-1.928 14.35-3.532 8.244-2.849 16.082-7.056 22.649-12.834 7.341-6.234 13.871-13.646 18.027-22.406 2.547-5.437 4.601-11.162 5.592-17.099 1.443-8.61 1.989-17.339 2.4-26.05.25-6.031.421-12.068.389-18.107-.005-7.232.008-14.467-.005-21.701-3.077.008-6.153-.002-9.229.008M67.116.02c.02 27.641.002 55.275.01 82.917.02 12.938-.042 25.879.03 38.815 5.65-.051 11.302-.012 16.953-.021.002-40.574.002-81.15 0-121.728-5.665.011-11.331-.021-16.993.017M87.888.004c-.002 6.648 0 13.301 0 19.949-.076 11.754.322 23.521 1.386 35.23.55 5.418 1.155 10.863 2.573 16.134 1.547 5.244 3.522 10.388 6.23 15.146 3.46 6.109 8.07 11.509 13.219 16.256 3.124 2.871 6.376 5.623 9.952 7.923 4.898 3.188 10.231 5.672 15.745 7.59 4.63 1.574 9.388 2.824 14.24 3.481-.006-6.063-.003-12.127 0-18.19-2.47-.359-4.899-.955-7.274-1.715-8.513-2.729-16.35-7.47-22.815-13.636-6.771-6.446-11.967-14.444-15.572-23.051-3.802-8.895-5.504-18.512-6.711-28.061-1.475-12.289-1.896-24.684-1.797-37.055-3.057-.009-6.116-.003-9.176-.001M562.213 99.303h3.963v22.449l-18.669-15.213c-1.751-1.431-3.919-3.09-6.225-3.09-3.642 0-6.638 3.229-6.638 6.821 0 3.552 2.856 6.455 6.358 6.687v4.334c-6.177-.69-10.324-4.703-10.324-11.021 0-5.897 4.38-10.971 10.418-10.971 2.582 0 5.164.969 7.146 2.58l13.969 11.434.002-14.01zM532.8 79.433l12.538 9.266.095-.092a7.59 7.59 0 0 1-.829-3.412c0-5.715 5.302-10.049 10.879-10.049 6.36 0 11.434 5.164 11.434 11.479 0 5.992-4.979 11.572-11.108 11.572-3.506 0-6.454-1.752-9.176-3.779l-15.949-11.85 2.116-3.135zm23.143-.14c-4.334 0-7.47 3.688-7.47 7.375 0 3.781 3.458 7.377 7.236 7.377 4.013 0 7.332-3.41 7.332-7.377.003-3.873-3.227-7.375-7.098-7.375zM530.68 56.256c0 9.955 8.162 18.054 18.195 18.054 9.953 0 18.049-8.099 18.049-18.054 0-10.242-7.96-18.268-18.121-18.268-10.162 0-18.123 8.026-18.123 18.268zm18.196-14c7.854 0 14.003 6.248 14.003 14.223 0 7.479-6.281 13.563-14.003 13.563-7.801 0-14.147-6.084-14.147-13.563 0-8.11 6.082-14.223 14.147-14.223zM530.68 18.299c0 9.953 8.162 18.051 18.195 18.051 9.953 0 18.049-8.098 18.049-18.051 0-10.244-7.96-18.27-18.121-18.27-10.162 0-18.123 8.026-18.123 18.27zm18.196-14.002c7.854 0 14.003 6.246 14.003 14.223 0 7.479-6.281 13.563-14.003 13.563-7.801 0-14.147-6.084-14.147-13.563 0-8.108 6.082-14.223 14.147-14.223z"
   id="path4" />
    </g>
<path
   style="fill:#ff0000;stroke-width:0.535845"
   d="m 0,112.78877 c 0,-6.64229 0.16813632,-8.91331 0.66980625,-9.04709 C 14.987141,99.923776 22.542178,95.85025 31.084378,87.342735 46.780912,71.70994 53.132804,51.430951 53.95261,14.333854 L 54.269374,0 h 4.557544 4.557544 L 63.070886,22.103606 C 62.647429,51.952475 61.490781,64.180326 58.13399,74.295617 54.480588,85.304697 49.501841,93.078934 40.672759,101.56108 29.254654,112.53051 19.228681,117.57051 1.2056513,121.401 L 0,121.65723 Z"
   id="path866" /><path
   style="fill:#ff0000;stroke-width:0.535845"
   d="M 67.51647,60.818408 V 0 h 8.305598 8.305597 V 60.818408 121.63682 H 75.822068 67.51647 Z"
   id="path905" /><path
   style="fill:#ff0000;stroke-width:0.535845"
   d="m 149.50076,121.26838 c -6.53261,-1.08496 -14.88708,-3.87556 -21.4338,-7.1594 C 111.4437,105.77073 98.437745,90.951882 93.053077,74.214533 89.840127,64.227614 88.55418,50.475133 88.055101,20.763994 L 87.706313,0 h 4.562953 4.562954 l 0.308651,12.994241 c 0.616049,25.935736 3.860059,43.885443 10.210279,56.495285 6.14995,12.212176 16.00118,22.566218 27.09363,28.476524 4.35066,2.31813 13.18682,5.45204 15.37222,5.45204 h 1.29129 v 9.10936 c 0,5.01015 -0.0603,9.07653 -0.13396,9.03639 -0.0737,-0.0401 -0.73679,-0.17309 -1.47357,-0.29546 z"
   id="path944" /><path
   style="fill:#ff0000;stroke-width:0.535845"
   d="m 172.54209,121.32845 c 0,-0.50213 32.0686,-110.861686 32.68763,-112.4898544 1.0088,-2.6533641 3.70728,-5.506461 6.54594,-6.9210245 6.49725,-3.2377167 14.771,-0.8896005 18.32444,5.2005328 0.79272,1.3586205 7.74508,24.3668051 17.44093,57.7191411 8.86751,30.502977 16.22944,55.761375 16.35984,56.129765 0.18375,0.51913 -1.84323,0.66981 -9.01052,0.66981 h -9.24761 l -3.38681,-11.81124 c -1.86275,-6.49618 -3.85397,-13.368395 -4.42494,-15.271582 L 236.79286,91.09365 H 218.16883 199.5448 l -3.93315,13.51858 c -2.16323,7.43521 -4.15096,14.30742 -4.41717,15.27158 l -0.48403,1.75301 h -9.08418 c -4.9963,0 -9.08418,-0.13877 -9.08418,-0.30837 z m 58.9334,-48.855414 c -0.2693,-0.810465 -3.28264,-11.11044 -6.6963,-22.888834 -3.41366,-11.778394 -6.31547,-21.524075 -6.44847,-21.657069 -0.13299,-0.132994 -0.31819,-0.141337 -0.41154,-0.01854 -0.14015,0.18435 -12.31474,42.080201 -13.10577,45.100287 -0.22919,0.875025 0.67037,0.937729 13.45306,0.937729 h 13.69867 z"
   id="path983" /><path
   style="fill:#ff0000;stroke-width:0.535845"
   d="M 275.96018,70.195695 V 18.754575 H 263.0999 250.23962 V 9.64521 0.535845 h 34.29408 34.29408 v 9.109365 9.109365 h -12.59236 -12.59236 v 51.44112 51.441125 h -8.84144 -8.84144 z"
   id="path1022" /><path
   style="fill:#ff0000;stroke-width:0.535845"
   d="m 306.70515,120.69909 c 0.15071,-0.51575 6.93503,-23.965671 15.07626,-52.11093 8.14122,-28.145259 15.29887,-52.861109 15.90588,-54.924112 2.15661,-7.3294743 4.72308,-10.6157402 9.66569,-12.3765099 6.71108,-2.3907723 14.05347,0.5691183 17.43201,7.0272454 0.311,0.594482 7.70977,25.6720285 16.44171,55.7278785 8.73194,30.055852 16.09543,55.310118 16.36332,56.120578 l 0.48707,1.47358 h -9.25631 -9.25632 l -3.65079,-12.72632 c -2.00794,-6.99948 -3.98821,-13.871691 -4.40062,-15.271586 L 370.76322,91.09365 H 352.13536 333.5075 l -3.66447,12.72632 c -2.01546,6.99947 -4.00152,13.87169 -4.41347,15.27158 l -0.74901,2.54527 h -9.12471 c -8.43737,0 -9.10408,-0.0706 -8.85069,-0.93773 z m 58.74114,-47.328251 c 0,-0.809286 -12.79769,-45.087077 -13.12669,-45.416079 -0.14819,-0.148189 -0.34605,-0.168964 -0.43969,-0.04617 -0.12522,0.164222 -11.01638,37.6928 -13.08854,45.100289 -0.24482,0.875148 0.63586,0.937729 13.1963,0.937729 9.23738,0 13.45862,-0.18059 13.45862,-0.575771 z"
   id="path1061" /><path
   style="fill:#ff0000;stroke-width:0.535845"
   d="m 408.43805,66.578741 0.14376,-55.058073 1.45215,-2.7530928 c 0.79868,-1.514201 2.48012,-3.6329972 3.73653,-4.7084363 3.88011,-3.32123109 5.9094,-3.62749295 22.54236,-3.40210553 13.2576,0.17964911 14.92112,0.30510098 18.08371,1.36375613 10.33253,3.4587422 18.17623,11.2752655 21.71079,21.6355725 1.41137,4.136928 1.52453,5.063284 1.49585,12.245253 -0.0351,8.807028 -0.99293,13.499425 -3.95179,19.360884 -2.23877,4.434991 -7.50035,9.599325 -13.41923,13.171225 -4.97878,3.004569 -6.23805,4.706364 -5.65176,7.637828 0.17409,0.870469 6.83503,11.355975 14.80208,23.301118 7.96704,11.94515 14.48554,21.84123 14.48554,21.99129 0,0.15007 -4.58117,0.27286 -10.18037,0.27286 h -10.18036 l -14.2303,-21.51787 c -7.82666,-11.834832 -14.61499,-22.261791 -15.08517,-23.171024 -1.31997,-2.55253 -1.55713,-8.417857 -0.45688,-11.298838 1.15528,-3.025043 4.5313,-6.043635 8.66992,-7.752011 7.52385,-3.105757 13.53973,-8.038329 16.01166,-13.128357 3.80774,-7.84062 1.3048,-19.186948 -5.21703,-23.649931 -3.42038,-2.340615 -6.5103,-2.900059 -16.01758,-2.900059 h -8.05252 l -1.56632,1.566316 -1.56631,1.566316 v 50.142728 50.14273 h -8.85125 -8.85125 z"
   id="path1100" /><path
   style="fill:#ff0000;stroke-width:0.535845"
   d="M 494.58494,61.08633 V 0.535845 h 9.37728 9.37729 v 60.550485 60.55049 h -9.37729 -9.37728 z"
   id="path1139" /><path
   style="fill:#ff0000;stroke-width:0.0669806"
   d="m 557.21182,114.39637 c -10.76297,-8.77657 -10.6219,-8.66277 -11.50914,-9.28501 -0.87158,-0.61125 -2.2573,-1.30098 -3.02565,-1.50598 -0.76126,-0.2031 -2.06928,-0.21522 -2.81319,-0.0261 -1.99934,0.50838 -3.59544,1.81053 -4.52161,3.68887 -0.56253,1.14087 -0.67018,1.63403 -0.66555,3.04891 0.004,1.07724 0.0185,1.21983 0.18465,1.76081 0.58705,1.91122 1.90009,3.43324 3.68237,4.26844 0.63368,0.29695 1.40156,0.5224 2.00667,0.58914 l 0.41865,0.0462 0.0177,2.13447 0.0177,2.13448 -0.38609,-0.0465 c -1.85083,-0.2229 -3.92284,-0.97912 -5.44312,-1.98659 -0.84775,-0.56179 -2.1115,-1.82259 -2.67023,-2.66399 -2.13543,-3.21583 -2.3806,-7.74537 -0.61492,-11.36046 1.44578,-2.9601 4.02729,-4.98201 7.237,-5.668224 1.02462,-0.219058 2.86208,-0.220974 3.94073,-0.0041 1.49112,0.299793 2.99767,0.909224 4.19365,1.696414 0.29265,0.19261 3.76722,2.99708 7.72127,6.23214 3.95406,3.23506 7.20348,5.88193 7.22093,5.88193 0.0175,0 0.0317,-3.14977 0.0317,-6.99948 v -6.999473 h 1.94244 1.94243 v 11.152273 c 0,6.13375 -0.008,11.1515 -0.0167,11.15055 -0.009,-9.5e-4 -4.01047,-3.25837 -8.89168,-7.23872 z"
   id="path1178" /><path
   style="fill:#ff0000;stroke-width:0.0669806"
   d="m 554.88849,98.120304 c -0.79124,-0.07056 -2.02259,-0.347457 -2.8331,-0.637095 -1.04529,-0.373536 -2.57751,-1.175512 -3.7899,-1.983667 -0.89063,-0.593679 -17.08592,-12.55667 -17.42709,-12.872885 -0.0655,-0.06068 0.13291,-0.400772 0.91801,-1.573734 0.55085,-0.822976 1.01524,-1.510021 1.03198,-1.526766 0.0168,-0.01675 2.84383,2.049001 6.28241,4.590549 4.23863,3.132889 6.27633,4.600805 6.32765,4.558299 0.0546,-0.04526 0.0127,-0.208343 -0.15074,-0.5864 -1.08462,-2.508725 -0.68598,-5.548569 1.06843,-8.147229 0.58581,-0.867707 1.89634,-2.155939 2.81946,-2.771483 2.67585,-1.784276 5.77514,-2.385216 8.80774,-1.707787 3.90755,0.872878 7.07173,3.730758 8.33822,7.531068 0.44811,1.34462 0.53621,1.929401 0.53926,3.579284 0.002,1.295009 -0.0161,1.561623 -0.15281,2.200176 -0.33762,1.577203 -1.09139,3.304574 -2.00659,4.598358 -0.56219,0.794736 -1.94151,2.189575 -2.69397,2.724276 -1.70243,1.209742 -3.50772,1.882726 -5.44739,2.030697 -0.48526,0.03702 -0.91242,0.06323 -0.94926,0.05826 -0.0368,-0.005 -0.34388,-0.03374 -0.68231,-0.06392 z m 2.18082,-4.188553 c 2.18512,-0.386873 4.16633,-1.911078 5.22242,-4.017767 0.53147,-1.060191 0.75677,-2.049632 0.75454,-3.313653 -0.004,-2.30512 -1.11857,-4.502288 -2.99999,-5.914315 -1.29702,-0.97343 -2.60194,-1.411816 -4.17407,-1.402272 -2.37732,0.01443 -4.47036,1.08273 -5.92891,3.026128 -1.68686,2.247615 -1.95342,5.008977 -0.72182,7.477656 0.41211,0.826056 0.80659,1.365821 1.52184,2.082349 1.79427,1.79746 3.91511,2.48872 6.32599,2.061874 z"
   id="path1217" /><path
   style="fill:#ff0000;stroke-width:0.0669806"
   d="m 547.63359,74.241888 c -0.12894,-0.01527 -0.53584,-0.06004 -0.90424,-0.09949 -3.06737,-0.328433 -6.22761,-1.60317 -8.85562,-3.572066 -0.82864,-0.620808 -2.2489,-1.973211 -2.93517,-2.794927 -2.24916,-2.69305 -3.64866,-5.88721 -4.09001,-9.334814 -0.20207,-1.57854 -0.14444,-3.705659 0.14791,-5.458921 0.74511,-4.468513 3.28311,-8.6382 6.92494,-11.377006 l 0.36839,-0.277047 10.51183,-2.88e-4 10.51182,-2.88e-4 0.64045,0.485609 c 0.73129,0.554483 2.26428,2.052545 2.86165,2.796441 2.18315,2.71864 3.52881,5.940649 3.94437,9.444269 0.13145,1.108199 0.12956,3.278817 -0.004,4.344297 -0.42043,3.359777 -1.72176,6.451644 -3.83801,9.118808 -0.6168,0.777364 -1.98911,2.153882 -2.75916,2.767612 -2.5704,2.048608 -5.45987,3.309724 -8.70748,3.800405 -0.86288,0.130371 -3.2242,0.227722 -3.8179,0.157401 z m 2.94715,-4.277393 c 6.56141,-0.792711 11.57538,-5.778508 12.26259,-12.193706 0.0959,-0.895541 0.0448,-2.600056 -0.10753,-3.582187 -1.03229,-6.657047 -6.30271,-11.506485 -12.95883,-11.923724 -5.30658,-0.332644 -10.17072,2.080392 -12.89401,6.396546 -2.1182,3.357154 -2.74895,7.89523 -1.61525,11.621139 0.61942,2.035696 1.67051,3.80895 3.18954,5.380897 0.42365,0.438413 0.99633,0.979776 1.27263,1.20303 2.05021,1.656623 4.69411,2.77105 7.33424,3.091447 0.97795,0.118681 2.56407,0.121639 3.51662,0.0066 z"
   id="path1256" /><path
   style="fill:#ff0000;stroke-width:0.0669806"
   d="m 538.9596,40.887657 c 2.12087,-1.380894 4.63151,-2.299023 7.43485,-2.718885 0.81753,-0.122443 4.00508,-0.122443 4.82261,0 2.80584,0.420237 5.29983,1.334117 7.44976,2.729841 l 0.65489,0.425154 h -10.51596 -10.51596 z"
   id="path1295" /><path
   style="fill:#ff0000;stroke-width:0.0669806"
   d="m 547.06426,36.230842 c -6.25179,-0.639811 -11.7418,-4.454298 -14.50033,-10.074908 -0.61865,-1.260515 -0.92379,-2.065236 -1.2405,-3.271377 -0.65574,-2.4973 -0.77826,-5.048461 -0.36531,-7.606469 1.16767,-7.2330458 6.40022,-12.9539807 13.42691,-14.68010511 1.58066,-0.38829256 2.49611,-0.48970081 4.42072,-0.48970081 1.46918,0 1.89186,0.0233544 2.70304,0.14935178 8.00465,1.24331994 13.95321,7.23475924 15.18436,15.29381014 0.23945,1.567418 0.22495,3.984146 -0.0335,5.580943 -0.61409,3.794362 -2.33107,7.127398 -5.09032,9.88147 -1.56537,1.562429 -2.9062,2.527207 -4.7929,3.448675 -2.0176,0.985399 -3.95793,1.540543 -6.19571,1.772647 -0.74333,0.0771 -2.74487,0.07463 -3.51648,-0.0043 z m 4.21978,-4.309818 c 3.46291,-0.63902 6.36044,-2.3018 8.52879,-4.894342 3.41066,-4.077902 4.05457,-9.87788 1.65249,-14.884764 -1.98305,-4.1334606 -5.69042,-6.9067602 -10.28175,-7.6912611 -0.87147,-0.1489042 -2.95342,-0.2022731 -3.90085,-0.099995 -6.50665,0.7024243 -11.41557,5.3686014 -12.40643,11.7929441 -0.15145,0.981932 -0.20491,2.814717 -0.10839,3.716148 0.67484,6.302946 5.7022,11.271229 12.29636,12.151863 0.74563,0.09958 3.51094,0.04021 4.21978,-0.09059 z"
   id="path1334" /><path
   style="fill:#d40000;stroke-width:0.0669806"
   d="m 546.89682,36.192747 c -1.20551,-0.183786 -1.62891,-0.262348 -2.32702,-0.43178 -4.89643,-1.188368 -9.21295,-4.497276 -11.59449,-8.887964 -1.10267,-2.032921 -1.70224,-3.825896 -2.06526,-6.175989 -0.16826,-1.08926 -0.16826,-3.867307 0,-4.956567 0.4085,-2.644561 1.34408,-5.23754 2.62216,-7.2673977 2.32719,-3.6960697 5.93241,-6.4196041 10.11507,-7.64134201 1.76779,-0.51636448 3.1271,-0.69587371 5.27834,-0.69705497 1.40451,-7.7122e-4 2.17665,0.0677698 3.36787,0.29895775 2.95729,0.57394203 5.91785,1.97786503 8.16788,3.87328293 4.85005,4.0856517 7.20946,10.659248 6.12262,17.058347 -0.49231,2.89863 -1.79717,5.783675 -3.66632,8.106236 -0.67372,0.83715 -2.16221,2.324553 -2.95963,2.957462 -2.42145,1.921911 -5.43178,3.211886 -8.57352,3.673885 -0.73554,0.108163 -1.22288,0.131337 -2.61224,0.124212 -0.9394,-0.0048 -1.78336,-0.02025 -1.87546,-0.03429 z m 3.68394,-4.178033 c 2.2335,-0.196768 4.8917,-1.238161 6.80007,-2.664038 3.10145,-2.317322 4.99482,-5.575578 5.45575,-9.388692 0.0883,-0.730037 0.0882,-2.422178 -7e-5,-3.151603 -0.23219,-1.918329 -0.87625,-3.907258 -1.78528,-5.513134 -2.07017,-3.6571178 -5.47989,-6.0545059 -9.74388,-6.8509608 -0.8942,-0.1670241 -3.51611,-0.2038601 -4.47751,-0.062906 -3.20151,0.4693819 -5.92001,1.8007823 -8.07305,3.9538225 -2.05556,2.0555563 -3.37718,4.6646203 -3.88583,7.6711673 -0.16721,0.988365 -0.20728,3.340377 -0.0725,4.25327 0.35272,2.388277 1.21042,4.433232 2.65569,6.33182 2.13931,2.810319 5.58043,4.818021 9.2336,5.387305 0.69819,0.1088 2.83211,0.127409 3.89297,0.03395 z"
   id="path891" /><path
   style="fill:#d40000;stroke-width:0.0669806"
   d="m 531.12494,59.897426 c -0.44752,-2.246524 -0.48105,-4.558053 -0.0996,-6.868889 0.82547,-5.001301 3.87337,-9.572105 8.16876,-12.250323 2.15764,-1.34531 5.01119,-2.341658 7.43872,-2.597311 0.81729,-0.08607 3.52991,-0.08594 4.34798,2.06e-4 3.01317,0.31731 6.2939,1.636718 8.80949,3.542897 0.8221,0.622945 2.67732,2.456218 3.23653,3.198248 1.5065,1.999024 2.59733,4.235643 3.22834,6.619339 0.69671,2.631916 0.76555,5.917849 0.17891,8.54003 l -0.0824,0.368393 -2.03217,0.01774 c -1.85117,0.01616 -2.02846,0.0081 -1.99048,-0.0909 0.11954,-0.311521 0.38106,-1.493588 0.48023,-2.17069 0.13728,-0.937205 0.10055,-3.14661 -0.069,-4.152799 -0.78023,-4.629456 -3.62906,-8.491278 -7.7052,-10.44503 -3.54266,-1.698045 -7.73718,-1.854105 -11.48718,-0.427388 -4.14724,1.577849 -7.23252,5.046174 -8.36085,9.398844 -0.37228,1.436107 -0.44726,2.084202 -0.44557,3.851386 0.002,1.689918 0.0892,2.427197 0.42784,3.600209 l 0.13051,0.452119 h -2.02902 -2.02901 z"
   id="path930" /><path
   style="fill:#d40000;stroke-width:0.0669806"
   d="M 494.58495,30.509676 V 0.53584502 h 9.37729 9.37729 V 30.509676 60.483506 h -9.37729 -9.37729 z"
   id="path969" /><path
   style="fill:#d40000;stroke-width:0.535845"
   d="M 494.58495,91.093653 V 60.550487 h 9.37729 9.37729 v 30.543166 30.543167 h -9.37729 -9.37729 z"
   id="path1008" /><path
   style="fill:#d40000;stroke-width:0.3789"
   d="m 545.99439,73.87253 c -5.81853,-1.03417 -10.83908,-4.814734 -13.31701,-10.02794 -1.46032,-3.072311 -1.42636,-3.220647 0.7372,-3.220647 1.7363,0 1.84016,0.06023 2.30083,1.334178 0.79436,2.196752 4.25142,5.602935 6.95147,6.849155 2.12351,0.980112 2.78897,1.098677 6.16926,1.099163 3.31861,4.78e-4 4.05796,-0.125521 5.95557,-1.014927 2.81283,-1.318376 5.60575,-3.95661 6.73028,-6.357527 0.89316,-1.906931 0.8976,-1.910042 2.72435,-1.910042 1.08516,0 1.82973,0.170689 1.82973,0.419455 0,1.033157 -2.42858,5.354681 -3.97707,7.076972 -3.97405,4.420097 -10.49496,6.749203 -16.10461,5.75216 z"
   id="path1047" /><path
   style="fill:#d40000;stroke-width:0.3789"
   d="m 553.19348,97.626693 c -0.93777,-0.267288 -2.32871,-0.816403 -3.09096,-1.220255 -2.05621,-1.089407 -18.86751,-13.554942 -18.87501,-13.995765 -0.004,-0.208395 0.39048,-0.874949 0.8756,-1.481232 l 0.88205,-1.102332 5.74194,4.238274 c 6.60447,4.874932 7.07622,5.140504 6.51655,3.668468 -0.6008,-1.580238 -0.44078,-4.407995 0.34774,-6.144656 1.0246,-2.256643 3.50305,-4.500845 6.02047,-5.451451 5.57488,-2.105138 11.86889,0.660067 14.27809,6.272929 0.94928,2.21159 0.89368,6.346474 -0.11577,8.608485 -2.23823,5.015546 -7.84133,7.958364 -12.5807,6.607535 z m 4.35735,-3.698903 c 3.64715,-0.996242 5.67019,-3.885418 5.42432,-7.74669 -0.17135,-2.691051 -1.13314,-4.41856 -3.27844,-5.888543 -1.0838,-0.742627 -1.8091,-0.913081 -3.88525,-0.913081 -2.22613,0 -2.75857,0.14542 -4.16192,1.136699 -5.83123,4.118989 -3.22471,13.089041 4.00679,13.788939 0.20839,0.02017 1.06092,-0.149626 1.8945,-0.377324 z"
   id="path1086" /><path
   style="fill:#d40000;stroke-width:0.3789"
   d="m 555.84578,113.06654 c -5.52246,-4.4965 -10.67344,-8.50204 -11.44662,-8.9012 -3.1086,-1.60483 -7.10985,-0.46513 -8.86167,2.52413 -1.06291,1.81373 -1.23163,4.88067 -0.3611,6.56409 0.7721,1.49308 2.9697,3.32795 4.34856,3.6308 1.10804,0.24337 1.16484,0.34676 1.16484,2.12023 0,1.70216 -0.0772,1.8644 -0.88673,1.8644 -1.41414,0 -5.48168,-2.22628 -6.46237,-3.53704 -1.86619,-2.49429 -2.27509,-3.72265 -2.29112,-6.8827 -0.0118,-2.32159 0.17479,-3.44422 0.79697,-4.79548 1.03978,-2.25822 3.49967,-4.6442 5.62481,-5.45579 2.0671,-0.789437 6.20967,-0.616137 8.18817,0.34254 0.7536,0.36515 4.71426,3.38339 8.80148,6.7072 4.08722,3.3238 7.52013,6.04327 7.62869,6.04327 0.10856,0 0.19738,-3.06908 0.19738,-6.82019 v -6.820193 h 1.8945 1.8945 v 10.798643 c 0,5.93925 -0.0426,10.79731 -0.0947,10.79569 -0.0521,-0.002 -4.6131,-3.6819 -10.13556,-8.1784 z"
   id="path1125" /><path
   style="fill:#d40000;stroke-width:0.3789"
   d="m 408.5726,66.468436 0.24379,-55.158351 1.05014,-1.93591 c 1.48233,-2.7326489 4.44861,-5.8494205 6.60877,-6.9440559 3.0111,-1.52584066 6.69796,-1.80029469 20.96434,-1.56061057 13.87408,0.23309307 14.79847,0.34917007 19.92123,2.50152337 7.63881,3.2094861 14.81613,10.6017261 17.79606,18.3289331 2.19696,5.696917 2.36789,6.909034 2.14919,15.241113 -0.22409,8.537239 -0.82831,11.80604 -3.0852,16.690784 -2.50909,5.43059 -6.42137,9.524635 -13.94603,14.593952 -4.54198,3.059907 -5.97422,4.64556 -5.97422,6.614182 0,1.757515 4.67476,9.22729 23.23358,37.124854 l 6.04951,9.09359 -3.36928,0.24405 c -1.8531,0.13423 -6.35311,0.25983 -10.00002,0.27912 l -6.63074,0.035 -3.63674,-5.58371 c -2.00021,-3.07103 -8.30014,-12.65965 -13.99984,-21.308039 -5.6997,-8.648384 -10.875,-16.716003 -11.50066,-17.928038 -1.04599,-2.026295 -1.13742,-2.514336 -1.13571,-6.062394 0.002,-3.256613 0.13851,-4.140161 0.87763,-5.662629 1.28314,-2.643087 4.04544,-4.894929 9.06335,-7.388517 9.40605,-4.674212 13.99184,-8.916963 16.02631,-14.827453 2.93064,-8.514043 -0.65576,-19.21637 -7.63219,-22.775476 -2.87475,-1.466593 -6.0711,-1.879603 -14.60096,-1.886642 l -7.97273,-0.0066 -1.59449,1.624666 -1.59449,1.624665 v 50.095135 50.095142 h -8.77719 -8.7772 z"
   id="path1164" /><path
   style="fill:#d40000;stroke-width:0.3789"
   d="m 308.51904,121.34935 c -0.88568,-0.0798 -1.61033,-0.2995 -1.61033,-0.48828 0,-1.0935 31.72826,-109.730232 32.63242,-111.7325353 1.61432,-3.5749984 3.34134,-5.473906 6.3036,-6.9309973 2.36241,-1.1620311 2.80971,-1.25028829 6.33666,-1.25028829 3.41476,0 4.00354,0.10681129 5.87877,1.06648429 2.35637,1.2058971 5.18203,3.8007537 6.15215,5.649643 0.8275,1.5770614 2.19667,6.1724126 19.22273,64.5170056 7.72331,26.466141 14.1365,48.418638 14.25152,48.783328 0.1952,0.61889 -0.39682,0.66308 -8.88446,0.66308 -8.33453,0 -9.10968,-0.0554 -9.28635,-0.66308 -0.10602,-0.36469 -2.00131,-6.97175 -4.21176,-14.68236 -2.21046,-7.710607 -4.10801,-14.319254 -4.21678,-14.685885 -0.1858,-0.626294 -1.33296,-0.660653 -18.97509,-0.568349 l -18.77733,0.09825 -4.38807,15.250714 -4.38807,15.25071 -7.21465,-0.0662 c -3.96805,-0.0364 -7.93929,-0.13146 -8.82496,-0.21124 z m 56.85468,-47.819327 c 0.16715,-0.159668 -1.99583,-8.286622 -4.80662,-18.059907 -6.70488,-23.313284 -7.99574,-27.556095 -8.42763,-27.700058 -0.19808,-0.06603 -1.16981,2.652827 -2.15939,6.041902 -6.10195,20.89767 -11.2438,38.938227 -11.2438,39.449688 0,0.483029 0.62064,0.622449 3.31537,0.744758 4.96098,0.225172 22.97279,-0.142747 23.32207,-0.476383 z"
   id="path1203" /><path
   style="fill:#d40000;stroke-width:0.3789"
   d="M 276.21784,70.096434 V 18.566083 H 263.33525 250.45267 V 9.6619409 0.75779929 h 34.10096 34.10097 V 9.6619409 18.566083 h -12.50369 -12.50369 v 51.530351 51.530356 h -8.71469 -8.71469 z"
   id="path1242" /><path
   style="fill:#d40000;stroke-width:0.3789"
   d="m 175.69435,121.34478 c -2.57667,-0.11285 -2.93228,-0.21266 -2.76592,-0.77627 0.10501,-0.35572 1.23505,-4.31263 2.51121,-8.79311 4.12395,-14.478889 21.09151,-72.885682 28.23367,-97.187764 0.97993,-3.334317 2.10979,-6.6064249 2.51081,-7.2713514 1.25705,-2.0843121 4.71025,-4.9311416 7.04292,-5.8062105 3.34484,-1.25476845 7.784,-0.98342162 11.16589,0.6825225 3.92674,1.9343448 5.29105,3.7535005 7.13776,9.5173924 4.76275,14.865308 32.33647,109.132291 32.01574,109.453021 -0.11208,0.11207 -4.15695,0.21965 -8.9886,0.23905 l -8.78483,0.0353 -4.39237,-15.15599 -4.39236,-15.155985 -18.7818,-0.09823 -18.7818,-0.09823 -4.09225,14.117515 c -2.25074,7.76463 -4.24734,14.67165 -4.43689,15.34893 l -0.34463,1.23143 -5.94986,-0.0763 c -3.27242,-0.0419 -7.28043,-0.13453 -8.90669,-0.20576 z m 56.07547,-48.122424 c -0.22554,-1.111187 -11.9878,-41.303832 -12.8348,-43.857634 -0.57599,-1.736633 -1.08468,-1.933284 -1.4702,-0.568349 -0.14714,0.520987 -3.1136,10.729767 -6.59213,22.686181 -3.47852,11.956413 -6.18277,21.880749 -6.00943,22.054085 0.4046,0.4046 4.3204,0.555027 16.93512,0.650566 l 10.18293,0.07712 z"
   id="path1281" /><path
   style="fill:#d40000;stroke-width:0.3789"
   d="M 146.36968,120.48235 C 119.24293,114.35483 98.243236,94.70458 91.916238,69.528085 89.701916,60.716819 88.640986,45.396228 88.06577,13.924562 L 87.811267,0 h 4.364179 4.364179 l 0.220429,5.9676694 c 0.838463,22.6996056 1.312181,28.9276076 2.931997,38.5471776 2.532039,15.036981 6.664089,25.53227 13.904219,35.316353 3.24906,4.390681 10.40664,11.44707 14.66673,14.459379 5.7399,4.058685 17.5455,9.149021 21.21857,9.149021 h 1.32049 v 8.90414 c 0,8.23971 -0.0495,8.90176 -0.66308,8.8722 -0.36469,-0.0176 -2.06088,-0.34768 -3.7693,-0.73359 z"
   id="path1320" /><path
   style="fill:#d40000;stroke-width:0.3789"
   d="M 67.823036,60.813393 V 0 h 8.146343 8.146342 v 60.813393 60.813397 h -8.146342 -8.146343 z"
   id="path1359" /><path
   style="fill:#d40000;stroke-width:0.3789"
   d="m 0.00227105,115.9941 c 0.00125037,-3.04967 0.11298568,-6.96724 0.24830358,-8.70571 0.21278387,-2.73371 0.35328868,-3.20281 1.03970297,-3.47127 0.4365187,-0.17073 3.0102334,-1.01228 5.7193658,-1.87011 C 18.136498,98.423741 26.410808,93.04049 34.12596,84.305171 47.6568,68.985163 53.267857,49.255461 54.007249,14.398187 54.119972,9.084119 54.304375,3.6705903 54.417033,2.3681228 L 54.621866,0 h 4.327185 4.32719 l -0.0092,1.7997733 C 63.218947,11.240556 62.446439,42.071842 62.122344,47.486595 61.10341,64.510158 59.006189,73.86236 53.9623,83.87498 c -3.040666,6.036007 -5.954635,9.859355 -12.456587,16.34398 -11.53895,11.50819 -20.582567,16.41422 -37.6219916,20.4094 L 0,121.53896 0.00226961,115.9941 Z"
   id="path1398" /></svg>
