<?xml version="1.0" encoding="UTF-8" standalone="no"?>
<svg
   height="211.098"
   viewBox="0 0 598.41 221.653"
   width="569.915"
   version="1.1"
   id="svg20"
   sodipodi:docname="centurye-w.svg"
   inkscape:version="1.1 (c68e22c387, 2021-05-23)"
   xmlns:inkscape="http://www.inkscape.org/namespaces/inkscape"
   xmlns:sodipodi="http://sodipodi.sourceforge.net/DTD/sodipodi-0.dtd"
   xmlns="http://www.w3.org/2000/svg"
   xmlns:svg="http://www.w3.org/2000/svg">
  <defs
     id="defs24" />
  <sodipodi:namedview
     id="namedview22"
     pagecolor="#ffffff"
     bordercolor="#666666"
     borderopacity="1.0"
     inkscape:pageshadow="2"
     inkscape:pageopacity="0.0"
     inkscape:pagecheckerboard="0"
     showgrid="false"
     inkscape:zoom="1.3126853"
     inkscape:cx="452.12666"
     inkscape:cy="148.16956"
     inkscape:window-width="1920"
     inkscape:window-height="1017"
     inkscape:window-x="-8"
     inkscape:window-y="712"
     inkscape:window-maximized="1"
     inkscape:current-layer="svg20" />
  <path
     d="M135.047 1.834c-10 2.8-16.1 5.4-22.6 9.7-17.9 11.9-31.2 31-35 50.2-.8 4.2-1.7 8.7-1.9 9.9-.4 1.6-3.9 3.9-13.7 9-28.6 14.9-56.1 34.2-60.4 42.4-3.3 6.4-.8 13.6 5.9 17 3.9 2.1 5.1 2.1 18.7 1.5 18.1-.7 36.9-3.5 52.5-7.7 18.1-4.8 16.7-4.8 22.6.5 9.9 8.9 24.5 15.7 37.3 17.5 7.8 1.1 8.6.9 8.6-2.2 0-1.9-1-2.4-7.9-4-9.8-2.2-21.5-7.8-30.5-14.6-6.3-4.8-7.1-5.1-9.9-4.2-1.6.6-3.1 1.1-3.3 1.1-.1 0-1.8-2.3-3.8-5-2.8-3.8-3.3-5.2-2.2-5.6.8-.3 11.9-4.1 24.7-8.4 12.9-4.3 26-8.8 29.1-9.9 11.4-4.2 42.8-18.4 62.5-28.3 11.1-5.7 20.5-9.9 20.9-9.5.4.3.9 2.9 1.2 5.6.4 4.9.4 4.9-3.8 7.6-8.8 5.5-52.4 26.5-67.2 32.3-8.4 3.3-23.3 8.6-33 11.8-9.8 3.3-17.8 6.4-17.8 6.9 0 .7 4.2 1 12 .8 11.6-.2 12.3-.4 19.2-3.8 8.3-4.2 13.1-4.4 13.6-.7.2 1.3-.4 3.2-1.2 4.1-1.5 1.6-1.5 1.9-.1 3.1 2 1.6 9.8-1.6 17.2-7.1 3.6-2.7 6.2-3.9 8.6-3.9 2.3 0 4.1-.8 5.7-2.5 2.7-2.8 4-3.2 4-1 0 1 1 1.5 3 1.5 1.7 0 3 .5 3 1 0 1.7-2.7 2.2-4.9 1-1.8-.9-2.2-.8-2.8.7-1.3 3.8-3.6 5.3-7.9 5.3-2.4 0-4.6-.5-4.9-1-.4-.7-1.3-.7-2.6 0-2.4 1.3-2.5 3.2-.1 2.8 3.7-.6 5.7 2.6 2.2 3.7-5.4 1.7-.3 2.4 17.1 2.2l19.1-.2 5.2-5.6c9.9-10.6 16.2-26.3 17.4-43.4l.7-9.9 6-3.4c32.3-18.6 54.7-34.1 58.2-40.4 2.3-4.2 1.6-8.7-1.9-12.2-2.7-2.7-4.3-3.4-9.3-4-10-1.1-34.8 3.3-58 10.3l-13 3.9-5.1-4.8c-6.8-6.4-17.8-13.5-25.7-16.5-14.9-5.6-33.3-7-45.7-3.6zm138 25.6c1 1.2 1 1.8 0 2.9-2.9 3.6-41.7 26.6-44.7 26.6-.5 0-1.5-1.9-2.2-4.3-.7-2.3-2.3-6.3-3.6-8.9-1.8-3.5-2.1-4.9-1.2-5.6 1.8-1.4 23.6-8.2 32.9-10.2 10.6-2.3 17.2-2.5 18.8-.5zm-155 2.4c0 1.2-2 2.5-2.7 1.8s.6-2.7 1.8-2.7c.5 0 .9.4.9.9zm1.5 7.2c.7 1-3.1 5.9-4.6 5.9-1.9 0-5-3.6-4.4-5.3.8-1.9 7.9-2.5 9-.6zm63.5-.1c0 .6 1.1 1.5 2.5 2 2.8 1.1 3.3 2.8 1 3.6-1.5.6-6.7-4.5-5.8-5.8.6-1.2 2.3-1 2.3.2zm-90.4 11.2c-.3 1.3-.9 4.2-1.2 6.4-.6 3.7-.4 4.3 1.7 5.5 1.3.6 3.4 2.3 4.7 3.7 2 2.1 2.9 2.3 6.7 1.8 5.1-.8 5.9 0 3.9 3.8-2.9 5.7-1.2 6.1 5.7 1.1 5.7-4.1 5.9-4.1 5.9-1.5 0 1.1.3 2 .8 2 1.1 0 5.5-3.2 8.4-6.2 2.3-2.4 3.3-2.7 7.8-2.5 2.8.2 5.6.9 6.2 1.5.9.9 1.8.6 3.8-1.3 2.4-2.3 2.8-2.4 4-1 1.9 2.3 3.8 1.8 6.7-1.5 1.3-1.7 2.9-3 3.4-3s.8 2.5.6 5.6c-.4 5.1-.2 5.6 1.9 6.5 1.3.4 2.4 1.5 2.4 2.2 0 2.1-3.7 5-5.5 4.3-.8-.3-2.6 0-4 .6-2.1.9-2.8.8-4.6-.8-2-1.8-2.1-1.8-4.5 1.4-1.7 2.1-3.4 3.2-5.1 3.2-1.4 0-3.8 1.1-5.5 2.5-1.6 1.4-4.1 2.5-5.4 2.5-3.4 0-19.4 11.1-19.4 13.4 0 1.1-8.2 8.6-9.4 8.6-.3 0-.6-.6-.6-1.4 0-2.7-2.1-2.8-6.1-.2-2.2 1.5-4.3 2.5-4.8 2.2-.4-.3-1.9-4-3.2-8.3-2.1-6.7-2.4-9.8-2.4-21.8 0-12.7.3-14.8 2.9-22.8 1.5-4.8 3.3-8.7 3.8-8.7.6 0 .8 1 .4 2.2zm60.9 9.8c-.3.5-1 1-1.6 1-.5 0-.9-.5-.9-1 0-.6.7-1 1.6-1 .8 0 1.2.4.9 1zm-75.1 40.2c1 3.5 2.9 8.9 4.3 12.1 1.4 3.1 2.3 6 2 6.4-2.6 2.6-41.4 10.3-59.3 11.9-8.2.6-10 .1-8.9-2.8.6-1.6 10.4-8.1 23.5-15.6 9-5.2 34.8-18.2 36.1-18.2.3 0 1.4 2.8 2.3 6.2zm120.1 10.8c1.2 1.9-2.4 6-5 6-3.3 0-3.2-2.3.3-4.9 3.1-2.3 3.8-2.5 4.7-1.1zm5.5 8.4c0 1.5-1.8 3.1-2.6 2.3-.7-.7.7-3.7 1.7-3.7.5 0 .9.6.9 1.4z"
     id="path2" />
  <path
     d="m 144.38947,67.434 c -1.03586,2.8 -1.22419,5.5 -0.47085,5.5 0.28251,0 1.97754,-1 3.76674,-2.3 3.86091,-2.6 3.95508,-5.1 0.18834,-5.5 -1.97754,-0.3 -2.73089,0.2 -3.48423,2.3 z m 17.13866,-0.5 c -1.69503,2.9 -0.47084,4.6 1.7892,2.4 0.94168,-0.9 1.7892,-2.3 1.7892,-3.1 0,-2 -2.26004,-1.6 -3.5784,0.7 z"
     id="path4"
     style="stroke-width:0.970404" />
  <g
     font-family="Harry"
     stroke-width="0.75"
     id="g18"
     transform="matrix(0.94168473,0,0,1,16.276087,0)">
    <text
       font-size="41.298px"
       transform="matrix(1.03245,0,0,0.96857,0.047,-0.066)"
       x="146.382"
       y="227.964"
       id="text8"><tspan
         font-family="FreeSans"
         x="146.382"
         y="227.964"
         id="tspan6">AHEAD OF THE GAME</tspan></text>
    <text
       font-size="64.968px"
       letter-spacing="0"
       transform="matrix(0.95752,0,0,1.04437,0.047,-0.066)"
       x="240.603"
       y="120.181"
       id="text12"><tspan
         font-family="'Crossharbour DB'"
         x="240.603"
         y="120.181"
         id="tspan10">CENTURY</tspan></text>
    <text
       font-size="65.125px"
       letter-spacing="0"
       transform="matrix(0.95763,0,0,1.04425,0.047,-0.066)"
       x="153.147"
       y="173.94099"
       id="text16"><tspan
         font-family="'Crossharbour DB'"
         x="153.147"
         y="173.94099"
         id="tspan14">ELECTRONICS</tspan></text>
  </g>
  <path
     style="fill:#ffffff;fill-opacity:0.941176;stroke-width:0.538672"
     d="m 133.32132,144.55182 c -13.2585,-1.75419 -25.9965,-7.74029 -37.827034,-17.77645 -4.348123,-3.68862 -4.941039,-3.69567 -18.550183,-0.22045 -21.477036,5.48436 -40.896423,8.13241 -59.410272,8.10125 -7.6678965,-0.0129 -9.6284805,-0.5323 -13.1134076,-3.47401 -3.8433283,-3.24424 -5.00905565,-8.92813 -2.7768199,-13.53931 3.598656,-7.43384 27.8278665,-24.703949 55.4556285,-39.527701 9.032727,-4.84654 13.372829,-7.468036 14.37025,-8.679892 0.348763,-0.423741 1.260681,-3.864939 2.026484,-7.647106 1.766306,-8.723489 2.914652,-12.14913 6.537588,-19.502399 6.860386,-13.924143 19.505501,-27.212679 32.401296,-34.0499742 4.97492,-2.6376813 13.54096,-5.6869599 19.37934,-6.8985232 5.01388,-1.04046351 16.39264,-1.17835428 22.56728,-0.273476 6.44275,0.9441697 14.55987,3.0916996 19.07091,5.045557 8.04022,3.4824342 17.03661,9.5247774 24.09459,16.1829234 l 3.74158,3.52962 10.9955,-3.255681 c 24.78309,-7.338079 48.14318,-11.529727 57.11527,-10.248552 4.17235,0.595794 6.03241,1.467578 8.38773,3.931223 4.38808,4.589901 3.63192,10.109262 -2.08975,15.253539 -8.35078,7.508068 -29.10448,21.151902 -53.52514,35.188337 l -3.80075,2.184584 -0.64756,7.982759 c -1.56906,19.342596 -6.95407,32.476702 -18.26211,44.541482 l -3.34826,3.57233 -16.5826,-0.007 c -9.12043,-0.004 -17.1542,-0.16036 -17.85281,-0.34738 -1.2423,-0.33255 -1.23342,-0.35551 0.404,-1.04398 2.87471,-1.20871 1.92384,-3.98798 -1.36442,-3.98798 -2.30018,0 -2.71606,-0.8114 -0.99415,-1.93963 1.18562,-0.77685 1.58095,-0.80652 2.7082,-0.20323 1.8813,1.00684 7.15965,0.88756 9.27301,-0.20955 0.9966,-0.51737 2.16794,-1.77582 2.71324,-2.91503 0.70823,-1.47957 1.23653,-1.95328 2.01702,-1.80856 0.5816,0.10783 2.02706,0.22903 3.21214,0.26933 1.82184,0.062 2.18018,-0.1055 2.31965,-1.08402 0.14423,-1.01182 -0.17146,-1.20357 -2.51134,-1.52539 -2.23382,-0.30723 -2.73037,-0.58346 -3.00326,-1.67073 -0.43408,-1.72952 -0.99663,-1.64603 -3.40223,0.50497 -2.62768,2.34957 -4.00091,3.04044 -6.0435,3.04044 -2.36705,0 -4.40294,0.98075 -10.41497,5.01723 -7.18887,4.8266 -12.59773,6.78639 -14.22865,5.15546 -0.44188,-0.44187 -0.32845,-1.04729 0.42892,-2.28935 1.34207,-2.20094 1.32764,-4.75699 -0.0338,-5.98907 -1.48963,-1.3481 -4.95698,-0.79331 -10.47006,1.67527 -8.37902,3.75186 -9.31774,3.96424 -19.03848,4.3074 -5.27917,0.18636 -9.5646,0.10507 -10.33904,-0.19612 -1.20749,-0.46961 -0.94463,-0.66021 3.01791,-2.18833 2.38734,-0.92066 8.95687,-3.25028 14.59896,-5.17695 28.96984,-9.89266 43.08499,-15.871766 74.47205,-31.545996 15.81689,-7.898725 21.24319,-11.037653 22.01707,-12.736145 0.39667,-0.870591 0.41904,-2.502336 0.071,-5.18168 -0.27939,-2.151003 -0.51545,-4.123017 -0.5246,-4.382253 -0.0405,-1.145577 -4.7198,0.822719 -23.42487,9.853243 -43.77969,21.136175 -47.9464,22.813416 -101.429022,40.828721 -6.055072,2.03962 -7.137404,2.57168 -7.137404,3.50868 0,0.82024 5.655469,9.57465 6.185355,9.57465 0.04773,0 1.241031,-0.39329 2.651764,-0.87397 3.103764,-1.05756 3.573276,-0.88675 9.706827,3.53136 8.98414,6.47144 17.53614,10.70608 26.77203,13.25654 2.77742,0.76697 6.09354,1.76734 7.36917,2.22304 2.13438,0.76248 2.30618,0.96366 2.15469,2.52323 -0.15325,1.57754 -0.31358,1.69926 -2.31932,1.76079 -1.18507,0.0364 -2.88189,-0.0301 -3.7707,-0.14771 z M 35.821688,121.21993 c 15.337596,-2.28867 33.367693,-5.94896 40.939072,-8.31105 3.043686,-0.94955 3.804059,-1.40726 3.943688,-2.37389 0.09514,-0.65865 -0.785287,-3.67924 -1.956505,-6.71244 -1.171213,-3.0332 -2.904444,-7.875877 -3.851618,-10.7615 -0.947174,-2.885622 -1.973032,-5.401652 -2.279676,-5.591173 -0.68253,-0.421823 -24.818564,11.576821 -35.178945,17.488363 -10.377206,5.92113 -20.850183,12.99128 -21.790163,14.71021 -0.680259,1.24398 -0.681231,1.55132 -0.0075,2.36315 0.679672,0.81895 1.500752,0.89527 6.707346,0.62342 3.263079,-0.17037 9.326503,-0.81616 13.474277,-1.43509 z m 157.992502,-7.66787 c 1.03672,-1.03672 0.80655,-3.1243 -0.34447,-3.1243 -0.89388,0 -2.24116,1.95819 -2.24116,3.25738 0,0.72998 1.81603,0.63651 2.58563,-0.13308 z m -7.12141,-4.67862 c 1.78564,-1.08889 3.2384,-3.84109 2.72868,-5.16941 -0.50579,-1.31807 -2.64145,-0.94464 -4.80721,0.84056 -2.72744,2.24818 -3.31067,3.42265 -2.23423,4.49908 1.11096,1.11097 2.28793,1.06451 4.31276,-0.17023 z m -95.302518,-8.15267 c 4.24869,-2.251032 5.570698,-2.24034 5.570698,0.0451 0,0.53878 0.212119,1.1107 0.471376,1.27092 0.721907,0.44616 4.357304,-2.424785 7.175984,-5.667014 1.39149,-1.600578 3.45191,-3.840242 4.57871,-4.977034 3.17437,-3.202491 11.90945,-8.759964 15.71473,-9.998097 1.88717,-0.614037 4.54869,-1.856608 5.91447,-2.761265 1.36579,-0.904662 3.09417,-1.776384 3.84085,-1.937161 2.91503,-0.627677 4.46701,-1.527841 6.06714,-3.518988 0.91602,-1.139868 1.87715,-2.072487 2.13583,-2.072487 0.25868,0 1.19238,0.533835 2.07488,1.186301 1.467,1.084595 1.81214,1.130775 4.02596,0.538672 1.33177,-0.356196 3.28498,-0.647629 4.34046,-0.647629 1.40284,0 2.34262,-0.423558 3.49364,-1.574581 2.19235,-2.192352 2.03127,-3.510326 -0.63473,-5.193299 l -2.2093,-1.39467 0.14723,-3.594801 c 0.3027,-7.391154 -0.041,-7.862159 -3.2648,-4.473305 -1.09045,1.146305 -2.59137,2.483046 -3.33536,2.970528 -1.27443,0.835039 -1.43255,0.823533 -2.73229,-0.19884 -1.76688,-1.389822 -3.20318,-1.37636 -4.48683,0.04207 -1.7213,1.902018 -2.65978,2.157527 -4.73687,1.289661 -1.13097,-0.47256 -3.61086,-0.800892 -6.04905,-0.800892 h -4.13227 l -3.29177,2.857661 c -3.31727,2.879794 -6.44688,5.222419 -6.97683,5.222419 -0.1577,0 -0.36268,-0.769137 -0.45552,-1.709201 -0.0928,-0.940058 -0.42806,-1.794084 -0.74493,-1.897838 -0.31687,-0.103748 -2.73576,1.271395 -5.37531,3.055881 -4.57517,3.093081 -6.16868,3.810619 -6.16868,2.777678 0,-0.256758 0.5138,-1.703189 1.14179,-3.214283 1.7142,-4.124816 1.29258,-4.626217 -3.54612,-4.217198 l -3.994339,0.337645 -2.860725,-2.458214 c -1.573397,-1.352018 -3.527332,-2.808323 -4.342074,-3.236233 -1.747592,-0.917849 -1.881392,-2.550364 -0.701679,-8.561093 0.708176,-3.608213 0.475793,-5.085295 -0.686985,-4.366659 -0.620943,0.383764 -2.820529,5.968162 -4.494065,11.409709 -0.987827,3.211951 -1.180807,5.451614 -1.388556,16.115294 -0.157454,8.081788 -0.02058,13.753218 0.394011,16.323093 0.862484,5.346486 4.209695,15.19377 5.164551,15.19377 0.148167,0 2.108712,-0.97451 4.356773,-2.16558 z M 145.87238,55.914154 c 0.98127,-0.981272 0.77347,-2.046954 -0.39915,-2.046954 -1.2396,0 -1.8608,0.822665 -1.44311,1.911149 0.36507,0.95136 0.98128,0.99678 1.84226,0.135805 z m 81.53532,-6.239992 c 14.69981,-8.068043 32.28361,-19.207548 33.29123,-21.090321 0.67079,-1.253369 0.23304,-2.574766 -1.08699,-3.281221 -2.54319,-1.361078 -14.24465,-0.114838 -23.6736,2.521309 -7.93844,2.219428 -19.47636,5.828211 -22.48956,7.034196 -2.56748,1.027589 -3.3667,1.604696 -3.3667,2.431047 0,0.595971 0.96961,3.236952 2.15469,5.868847 1.18508,2.631895 2.15469,4.89704 2.15469,5.033655 0,0.136616 0.51155,1.615649 1.13679,3.28674 1.07007,2.860027 1.22541,3.020622 2.6468,2.736343 0.83051,-0.1661 4.9852,-2.209368 9.23265,-4.540595 z M 112.0694,39.295629 c 2.09774,-2.245642 2.51268,-3.74656 1.28411,-4.644908 -1.18678,-0.867799 -4.31285,-0.925924 -6.61607,-0.123017 -2.14381,0.747335 -2.25111,2.437436 -0.30184,4.754023 1.81477,2.156722 3.62793,2.161196 5.6338,0.0139 z m 66.76401,0.842295 c 0.97139,-1.170455 0.33549,-2.240741 -2.05631,-3.460945 -1.16298,-0.593305 -2.25799,-1.452665 -2.43336,-1.909689 -0.41436,-1.079785 -1.91033,-1.071173 -2.32652,0.01339 -0.47449,1.236516 0.8803,3.415186 3.0336,4.878393 2.19319,1.490305 2.87185,1.57622 3.78259,0.478848 z m -67.29289,-9.991245 c 1.36428,-0.730139 1.38648,-2.674407 0.0305,-2.674407 -1.2924,0 -2.43401,1.360356 -2.02848,2.417164 0.37001,0.964225 0.61741,0.996078 1.99794,0.257243 z"
     id="path878"
     transform="matrix(1.0500004,0,0,1.0500004,-4.8824444e-4,0)" />
  <path
     style="fill:#ffffff;fill-opacity:0.941176;stroke-width:0.194053"
     d="m 143.69902,72.656441 c -0.45,-0.477868 0.26735,-4.202253 1.14174,-5.927708 0.60215,-1.188238 1.12075,-1.530839 2.32352,-1.53496 1.8964,-0.0065 3.37669,0.831374 3.37669,1.911276 0,1.087089 -2.02022,3.004275 -5.20003,4.934812 -1.28711,0.781438 -1.43453,0.836801 -1.64192,0.61658 z"
     id="path917" />
  <path
     style="fill:#ffffff;fill-opacity:0.941176;stroke-width:0.194053"
     d="m 160.9627,69.880633 c -0.61604,-1.704765 2.05443,-5.386476 3.42573,-4.722979 0.66788,0.323149 0.76852,1.071947 0.27969,2.080955 -0.99213,2.047901 -3.32026,3.707895 -3.70542,2.642024 z"
     id="path956" />
  <path
     style="fill:#ffffff;fill-opacity:0.941176;stroke-width:0.194053"
     d="m 154.49549,184.99661 c 0,-0.55038 0.0555,-0.58839 1.19109,-0.81593 1.4766,-0.29587 2.54194,-0.91332 2.99397,-1.73522 0.86296,-1.56908 0.89278,-2.27965 0.89278,-21.26814 0,-18.9885 -0.0299,-19.69907 -0.89278,-21.26815 -0.45203,-0.82191 -1.51737,-1.43935 -2.99397,-1.73522 -1.13561,-0.22754 -1.19109,-0.26554 -1.19109,-0.81593 v -0.57727 h 13.25693 13.25691 l 0.11385,2.54964 c 0.0626,1.4023 0.16098,3.60699 0.21862,4.89931 l 0.10477,2.34967 h -0.45635 c -0.42307,0 -0.48011,-0.12704 -0.78216,-1.74214 -0.63846,-3.41394 -1.37281,-4.69832 -3.0758,-5.37958 -0.76787,-0.30718 -1.72563,-0.36493 -7.13551,-0.43027 -4.096,-0.0495 -6.37449,-0.004 -6.61404,0.13221 -0.70164,0.39876 -0.78987,1.60609 -0.78987,10.80786 v 8.8102 l 4.28406,-0.002 c 8.62183,-0.003 9.43282,-0.40906 10.18408,-5.09852 0.28003,-1.74788 0.33831,-1.89889 0.73292,-1.89889 h 0.42871 v 8.19884 8.19884 h -0.4382 c -0.40374,0 -0.45671,-0.12843 -0.67372,-1.63379 -0.2849,-1.97637 -0.81513,-3.5517 -1.38769,-4.12291 -1.05123,-1.04874 -1.52472,-1.12444 -7.52793,-1.2038 l -5.60223,-0.074 9.9e-4,9.56644 c 9.9e-4,9.72703 0.0648,10.74325 0.72383,11.54376 0.70443,0.85564 1.4283,0.98854 5.88527,1.0805 4.98602,0.1029 6.37396,-0.08 8.27624,-1.09062 1.90897,-1.01416 3.27288,-2.95664 4.62697,-6.58969 0.5795,-1.55484 0.76869,-1.8766 1.10341,-1.8766 0.39859,0 0.39002,0.0787 -0.64207,5.89917 l -1.04606,5.89917 h -13.51294 -13.51299 z"
     id="path995" />
  <path
     style="fill:#ffffff;fill-opacity:0.941176;stroke-width:0.194053"
     d="m 183.87192,185.01826 c 0,-0.51887 0.0849,-0.57888 1.28425,-0.90695 1.72426,-0.47168 2.51866,-1.07729 3.01262,-2.29663 0.76734,-1.89417 0.80391,-2.96275 0.74405,-21.73722 -0.0527,-16.54137 -0.0841,-18.08163 -0.38823,-19.03783 -0.59859,-1.88232 -1.50208,-2.5772 -3.85237,-2.96288 -0.73003,-0.11979 -0.80032,-0.18248 -0.80032,-0.71366 v -0.58234 h 6.77917 6.77918 v 0.571 c 0,0.55817 -0.0281,0.57378 -1.24887,0.69484 -1.85318,0.18377 -2.774,0.73229 -3.3537,1.99775 -0.26097,0.56969 -0.5592,1.66572 -0.66274,2.43561 -0.28112,2.09054 -0.23081,37.93284 0.0549,39.07576 0.13935,0.55752 0.41535,1.03491 0.75151,1.29981 0.49181,0.38759 0.82044,0.42346 4.42529,0.483 6.56791,0.10848 9.11714,-0.54697 11.10342,-2.85486 0.97858,-1.13704 2.34349,-3.7526 3.05705,-5.85824 0.36438,-1.0752 0.48865,-1.24983 0.88951,-1.24983 0.38816,0 0.44878,0.0752 0.36309,0.44995 -0.0566,0.24746 -0.53583,2.83459 -1.06498,5.74918 -0.52915,2.91459 -1.00619,5.45674 -1.06009,5.64921 -0.0922,0.32902 -0.89693,0.34995 -13.45534,0.34995 h -13.35735 z"
     id="path1034" />
  <path
     style="fill:#ffffff;fill-opacity:0.941176;stroke-width:0.194053"
     d="m 213.24835,184.99793 c 0,-0.552 0.0548,-0.58956 1.1911,-0.81725 2.43266,-0.48744 3.32081,-1.52196 3.69678,-4.30599 0.25289,-1.87257 0.25417,-35.51644 9.9e-4,-37.37316 -0.41361,-3.03852 -1.20313,-3.87107 -4.18315,-4.41111 -0.62949,-0.11407 -0.70617,-0.19211 -0.70617,-0.71882 v -0.59085 h 13.25606 13.25606 l 0.1141,3.14956 c 0.0628,1.73225 0.15549,3.93694 0.20608,4.8993 0.0916,1.74262 0.0902,1.74976 -0.36178,1.74976 -0.36228,0 -0.47743,-0.13101 -0.57124,-0.6499 -0.60659,-3.35541 -1.19887,-4.94881 -2.15813,-5.80595 -1.06163,-0.94863 -2.57003,-1.14308 -8.8671,-1.14308 -3.46493,0 -5.81011,0.0788 -6.0276,0.20232 -0.67262,0.38227 -0.74697,1.44034 -0.74805,10.64615 l -9.9e-4,8.94874 4.28406,-0.002 c 8.06544,-0.003 9.14548,-0.4033 9.89861,-3.66999 0.15568,-0.67522 0.34107,-1.70016 0.41197,-2.27757 0.11514,-0.93768 0.17732,-1.04985 0.58202,-1.04985 h 0.4531 v 8.19884 8.19884 h -0.44788 c -0.41159,0 -0.46451,-0.11748 -0.65303,-1.44979 -0.44811,-3.16686 -1.06586,-4.40769 -2.52336,-5.06847 -0.69914,-0.31697 -1.51434,-0.3729 -6.40991,-0.4398 l -5.60889,-0.0767 0.0537,10.10199 c 0.0524,9.84525 0.0636,10.11631 0.44251,10.66634 0.21382,0.3104 0.72226,0.74435 1.12986,0.96432 0.68469,0.36951 1.11366,0.39995 5.63716,0.39995 5.18232,0 5.88785,-0.0938 7.63517,-1.01419 1.7771,-0.93616 3.30833,-3.13543 4.61941,-6.63474 0.52902,-1.41198 0.77645,-1.84975 1.04549,-1.84975 0.213,0 0.34945,0.13846 0.34487,0.34996 -0.004,0.19247 -0.45108,2.82461 -0.99315,5.84917 l -0.9856,5.49923 -13.50674,0.0514 -13.50675,0.0513 z"
     id="path1073" />
  <path
     style="fill:#ffffff;fill-opacity:0.941176;stroke-width:0.194053"
     d="m 246.43157,129.78978 c -4.77001,-1.36807 -8.90458,-6.10893 -10.92963,-12.53231 -1.67506,-5.31324 -2.138,-12.89007 -1.15915,-18.971304 0.97922,-6.083517 3.07055,-10.631737 6.57443,-14.297987 2.70688,-2.832328 4.99021,-3.981147 8.25058,-4.151155 2.39369,-0.124816 3.62094,0.120106 6.41531,1.280301 2.70617,1.123578 2.99532,1.100756 3.61298,-0.285182 0.40211,-0.902246 0.53945,-1.048095 0.94156,-0.99986 l 0.47077,0.05647 0.54152,7.557136 c 0.29784,4.156424 0.50445,7.596499 0.45914,7.644612 -0.0453,0.04811 -0.27784,0.111914 -0.51675,0.141781 -0.40411,0.05053 -0.46432,-0.085 -0.86438,-1.945414 -0.91213,-4.241829 -2.25792,-7.182148 -4.17676,-9.125477 -1.90145,-1.92573 -4.02265,-2.740661 -6.49783,-2.49637 -3.70305,0.365475 -6.57287,2.596267 -8.57797,6.667909 -2.4453,4.965495 -3.35898,10.113283 -3.19848,18.02043 0.0938,4.62034 0.304,6.39897 1.09384,9.25528 1.6646,6.01975 5.26786,10.56844 9.39044,11.85434 1.32464,0.41318 3.96912,0.4141 5.29849,0.002 2.39206,-0.7418 4.88509,-2.78565 6.76628,-5.54718 0.56964,-0.83621 1.10108,-1.52358 1.18097,-1.52749 0.0799,-0.004 0.23645,0.20538 0.34788,0.4651 0.26123,0.60883 -0.0279,1.21531 -1.50707,3.16194 -1.87272,2.46443 -4.68098,4.6851 -7.04891,5.57401 -1.70177,0.63883 -4.99971,0.73419 -6.86726,0.19856 z"
     id="path1112" />
  <path
     style="fill:#ffffff;fill-opacity:0.941176;stroke-width:0.194053"
     d="m 262.58568,128.80763 c 0,-0.54234 0.0548,-0.58155 0.98863,-0.70777 0.54375,-0.0735 1.42757,-0.35856 1.96403,-0.63351 1.11396,-0.5709 1.6199,-1.43388 1.949,-3.32434 0.12678,-0.7283 0.17496,-7.54599 0.13911,-19.68416 -0.05,-16.921408 -0.0836,-18.659417 -0.37781,-19.577874 -0.52832,-1.648828 -1.61869,-2.452139 -3.79986,-2.799482 -0.79602,-0.126763 -0.8631,-0.182305 -0.8631,-0.714655 v -0.57721 h 13.25607 13.25605 l 0.1141,3.149557 c 0.0628,1.732256 0.15549,3.936946 0.20608,4.89931 0.092,1.749004 0.0918,1.749754 -0.3682,1.749754 -0.38471,0 -0.48005,-0.123 -0.58128,-0.749894 -0.77421,-4.794683 -1.59102,-6.054541 -4.32127,-6.665125 -1.27152,-0.284359 -11.50458,-0.390367 -12.38807,-0.128334 -0.94729,0.280953 -0.97257,0.534566 -1.03715,10.406222 l -0.0599,9.161981 5.70688,-0.0633 c 5.68899,-0.0631 5.70979,-0.0649 6.63753,-0.5718 1.20598,-0.65898 1.67195,-1.58912 2.1014,-4.194765 0.30583,-1.855539 0.35971,-1.995755 0.76693,-1.995755 h 0.43799 v 8.19885 8.19884 h -0.437 c -0.39998,0 -0.45622,-0.13114 -0.66352,-1.54712 -0.31336,-2.14039 -0.77953,-3.60639 -1.35476,-4.26031 -0.91259,-1.03742 -1.92711,-1.19158 -7.84181,-1.19158 h -5.33267 v 9.28885 c 0,5.75374 0.0755,9.66279 0.19845,10.27144 0.42901,2.12435 1.44445,2.47201 7.33396,2.51102 4.26787,0.0282 5.37197,-0.13808 7.28404,-1.09744 1.8933,-0.94995 3.4067,-3.1371 4.77902,-6.90659 0.45915,-1.26118 0.69308,-1.66903 0.95732,-1.66903 0.19231,0 0.35341,0.0675 0.35798,0.14998 0.005,0.0825 -0.44031,2.73701 -0.98863,5.89894 l -0.99694,5.74896 -13.51127,2.3e-4 -13.51128,2.3e-4 z"
     id="path1151" />
  <path
     style="fill:#ffffff;fill-opacity:0.941176;stroke-width:0.194053"
     d="m 307.59188,109.20794 c -7.78246,-15.481006 -10.34512,-20.415799 -10.60301,-20.417799 -0.32583,-0.0025 -0.33713,0.716271 -0.26954,17.144949 0.0771,18.75636 0.0745,18.70934 1.19435,20.51228 0.46897,0.75498 2.0181,1.72825 2.75778,1.73264 0.24022,10e-4 0.32955,0.16457 0.32955,0.60187 v 0.59991 h -4.51945 -4.51945 v -0.55974 c 0,-0.45813 0.11959,-0.60567 0.6587,-0.81268 0.75641,-0.29047 1.44738,-1.16571 1.92688,-2.44078 0.30941,-0.82277 0.33698,-2.27122 0.38571,-20.25291 l 0.0525,-19.366766 -0.48367,-1.121909 c -0.64421,-1.494273 -1.26431,-2.325892 -1.9637,-2.63353 -0.456,-0.200575 -0.5764,-0.374931 -0.5764,-0.834681 v -0.581146 l 2.68018,0.05548 2.68018,0.05548 9.42305,18.435295 c 5.18269,10.139417 9.48944,18.505787 9.57057,18.591937 0.2461,0.26135 0.0303,-31.073552 -0.22181,-32.213762 -0.49069,-2.218887 -1.22425,-3.041951 -3.11067,-3.490259 -0.99309,-0.236006 -1.06059,-0.28932 -1.06059,-0.837623 v -0.585574 h 4.53138 4.53138 l -0.059,0.63108 c -0.0501,0.536215 -0.17223,0.672446 -0.81224,0.906253 -1.07318,0.39205 -1.43236,0.86295 -1.75345,2.298837 -0.23823,1.065389 -0.29997,4.686195 -0.39437,23.130708 l -0.11192,21.86761 z"
     id="path1190" />
  <path
     style="fill:#ffffff;fill-opacity:0.941176;stroke-width:0.194053"
     d="m 256.18312,186.06281 c -1.57611,-0.35948 -3.93134,-1.60273 -5.36684,-2.83298 -2.33036,-1.99719 -4.73987,-5.85725 -6.00752,-9.62413 -2.21797,-6.59077 -2.27751,-17.19655 -0.13467,-23.9886 1.81593,-5.7558 5.22787,-10.39395 9.15516,-12.44539 1.95348,-1.02043 3.37757,-1.39082 5.3473,-1.39082 1.90215,0 3.33193,0.35466 6.09535,1.51196 1.66978,0.69929 2.13798,0.8228 2.48418,0.65528 0.42505,-0.20565 1.04385,-1.31663 1.04385,-1.87406 0,-0.19244 0.19412,-0.29318 0.56493,-0.29318 0.41077,0 0.56616,0.0954 0.56943,0.34995 0.003,0.19248 0.25135,3.6327 0.55302,7.64494 0.56964,7.57607 0.56919,7.59226 -0.21463,7.59985 -0.23587,0.002 -0.36917,-0.28902 -0.52472,-1.14677 -0.38038,-2.09736 -1.35097,-5.12592 -2.21312,-6.90558 -2.06584,-4.26438 -5.64848,-6.32203 -9.54008,-5.47928 -3.01305,0.6525 -5.11591,2.13654 -6.77149,4.77882 -2.72197,4.34419 -4.03593,9.7027 -4.21724,17.19842 -0.11598,4.79525 0.11193,7.58766 0.88596,10.85474 0.99213,4.18768 2.51035,7.17413 4.98762,9.81097 1.68326,1.79169 3.44451,2.88218 5.32549,3.2973 1.43572,0.31686 3.81766,0.13986 5.22798,-0.38849 2.23002,-0.83543 4.97672,-3.29954 6.63583,-5.95311 l 0.68581,-1.09684 0.33743,0.46462 c 0.39808,0.54812 0.37152,0.6509 -0.55014,2.12864 -1.39025,2.22906 -4.31338,4.98083 -6.60631,6.21904 -2.07829,1.12229 -5.20083,1.48669 -7.75258,0.9047 z"
     id="path1229" />
  <path
     style="fill:#ffffff;fill-opacity:0.941176;stroke-width:0.194053"
     d="m 279.72193,185.01568 c 0,-0.52558 0.0757,-0.57707 1.29543,-0.88105 2.3917,-0.59606 3.40085,-1.73629 3.79422,-4.28705 0.10689,-0.69304 0.18131,-9.25969 0.18196,-20.94343 l 9.9e-4,-19.7707 -3.06005,0.10038 c -4.61202,0.15137 -5.97086,0.7524 -7.10762,3.14376 -0.57948,1.21905 -1.22955,3.58737 -1.43408,5.22462 -0.11522,0.92238 -0.1534,0.97683 -0.68497,0.97683 h -0.56294 l 0.11197,-1.64978 c 0.0616,-0.90736 0.15808,-2.90958 0.21442,-4.44936 0.0564,-1.53978 0.15035,-3.4526 0.20894,-4.2507 l 0.10651,-1.45108 13.87171,0.0512 13.87172,0.0512 0.12158,3.29955 c 0.0668,1.81474 0.17312,4.44686 0.23613,5.84917 l 0.11455,2.54964 h -0.54398 c -0.52089,0 -0.5497,-0.0487 -0.67902,-1.14781 -0.18863,-1.60323 -0.97442,-4.3938 -1.51322,-5.37384 -1.18556,-2.1565 -2.46328,-2.67832 -6.91618,-2.82458 l -3.15419,-0.10363 9.8e-4,19.67281 c 9e-4,12.58082 0.0716,20.13208 0.19609,20.94679 0.4187,2.74021 1.75313,4.12424 4.36901,4.53139 0.83023,0.12921 0.89448,0.18067 0.89448,0.71642 v 0.57721 h -6.96749 -6.96748 v -0.5582 z"
     id="path1268" />
  <path
     style="fill:#ffffff;fill-opacity:0.941176;stroke-width:0.388108"
     d="m 328.87096,128.82935 c 0,-0.19385 0.72696,-0.54685 1.61547,-0.78444 2.40012,-0.64178 3.28218,-1.87102 3.67698,-5.12426 0.18272,-1.50566 0.33776,-11.0614 0.34454,-21.23496 l 0.0124,-18.497399 -3.48374,6.22e-4 c -5.43677,9.7e-4 -7.1127,1.40003 -8.20106,6.846209 -0.25849,1.293532 -0.61632,2.351874 -0.79515,2.351874 -0.38006,0 -0.425,-5.016328 -0.0797,-8.898747 l 0.24009,-2.69962 h 13.63694 13.63694 l 0.24357,3.05992 c 0.35338,4.439341 0.29861,8.538447 -0.11409,8.538447 -0.19672,0 -0.55332,-1.056026 -0.79243,-2.346724 -1.00121,-5.404192 -2.72602,-6.850388 -8.17127,-6.851359 l -3.48374,-6.22e-4 0.008,18.697369 c 0.004,10.28355 0.16372,19.84439 0.35457,21.2463 0.41483,3.04717 1.34408,4.29057 3.6717,4.91295 0.8885,0.23759 1.61547,0.59059 1.61547,0.78444 0,0.19386 -3.13537,0.35247 -6.96749,0.35247 -3.83212,0 -6.96749,-0.15861 -6.96749,-0.35247 z"
     id="path1307" />
  <path
     style="fill:#ffffff;fill-opacity:0.941176;stroke-width:0.388108"
     d="m 360.6922,129.23581 c -1.7428,-0.84075 -3.79254,-3.1609 -4.61534,-5.22417 -1.64606,-4.12768 -1.7077,-4.84745 -1.93792,-22.62591 -0.16173,-12.489664 -0.34939,-17.432407 -0.68552,-18.055385 -0.25455,-0.471794 -0.97484,-1.047348 -1.60063,-1.279012 -2.4517,-0.90759 -1.17409,-1.262704 4.54288,-1.262704 4.32958,0 5.64395,0.117067 5.5262,0.492199 -0.0849,0.270709 -0.78545,0.650654 -1.55661,0.844322 -2.72967,0.685529 -2.68281,0.349399 -2.68281,19.24336 0,18.51121 0.17461,20.25459 2.36126,23.5762 1.73025,2.62833 2.80185,3.23725 5.69706,3.23725 3.4599,0 5.16808,-1.17925 6.79656,-4.69199 1.67806,-3.61971 1.95985,-7.35653 1.82845,-24.24681 -0.10798,-13.88049 -0.14029,-14.438357 -0.89912,-15.526297 -0.43291,-0.620668 -1.23794,-1.363276 -1.78895,-1.65024 -2.33283,-1.214932 -1.04887,-1.341833 12.08574,-1.194488 12.54936,0.140779 13.17598,0.184121 15.23722,1.05392 2.705,1.141455 5.23518,3.989832 5.98734,6.740325 0.8424,3.080436 0.66753,7.951355 -0.36673,10.215197 -1.39625,3.056193 -4.07307,5.178713 -8.21496,6.513863 -0.46063,0.14848 8.11224,20.16941 9.19407,21.47165 0.31292,0.37666 1.14161,0.88555 1.84156,1.13086 2.23075,0.7818 1.43084,1.22059 -2.0043,1.09945 l -3.27694,-0.11555 -2.01869,-4.79933 c -1.11028,-2.63963 -3.28024,-7.7689 -4.82213,-11.3984 l -2.80346,-6.59906 -2.47675,0.13553 -2.47675,0.13555 0.12536,9.06316 c 0.14804,10.70252 0.27989,11.1916 3.32715,12.34091 1.03459,0.39021 1.88107,0.8472 1.88107,1.01554 0,0.16833 -2.89527,0.30607 -6.43394,0.30607 -4.84884,0 -6.3967,-0.11864 -6.28279,-0.48156 0.0832,-0.26485 0.66185,-0.62208 1.28604,-0.79384 3.03289,-0.83457 3.20612,-2.21272 3.06874,-24.41399 -0.12329,-19.924806 -0.10089,-19.732925 -2.44079,-20.912038 -2.77336,-1.397543 -5.08033,-0.465512 -5.81984,2.351248 -0.27335,1.04118 -0.53202,7.745193 -0.69659,18.05387 -0.24266,15.20046 -0.32018,16.58762 -1.06171,18.99914 -1.68102,5.46674 -4.74896,8.0045 -9.65717,7.98827 -1.75046,-0.006 -3.17148,-0.25719 -4.16626,-0.73711 z m 33.1911,-25.28816 c 3.40383,-0.62946 6.07088,-2.44391 7.2805,-4.953087 0.83182,-1.7255 0.95928,-2.499389 0.9551,-5.799184 -0.004,-3.181229 -0.14516,-4.088597 -0.85762,-5.513082 -1.68693,-3.372851 -5.51318,-5.180198 -10.20396,-4.819886 -1.27317,0.0978 -2.52418,0.399786 -2.78002,0.671088 -0.33857,0.359017 -0.49573,3.263891 -0.57744,10.672543 l -0.11228,10.179268 h 1.96453 c 1.08049,0 3.02953,-0.19695 4.33119,-0.43766 z"
     id="path1346" />
  <path
     style="fill:#ffffff;fill-opacity:0.941176;stroke-width:0.388108"
     d="m 417.37687,128.86953 c 0,-0.17176 0.70493,-0.5767 1.56652,-0.89987 2.98695,-1.12038 3.12517,-1.61746 3.25739,-11.71448 l 0.11615,-8.8703 -3.96168,-9.713089 c -5.28376,-12.954471 -6.05646,-14.457579 -7.84096,-15.252664 -0.77848,-0.346852 -1.41715,-0.855607 -1.41925,-1.130568 -0.003,-0.377905 1.37507,-0.49993 5.64548,-0.49993 4.57493,0 5.64932,0.105846 5.64932,0.556559 0,0.306107 -0.46608,0.678244 -1.03572,0.826972 -1.86451,0.486808 -2.7305,1.336596 -2.7305,2.679423 0,1.154771 7.42814,19.533727 7.89486,19.533727 0.11161,0 1.85951,-4.09443 3.88424,-9.098721 4.29381,-10.612594 4.56311,-12.100581 2.34419,-12.952641 -0.725,-0.278397 -1.31818,-0.739982 -1.31818,-1.025747 0,-0.396013 1.02998,-0.519572 4.33115,-0.519572 3.46452,0 4.33113,0.112208 4.33113,0.560791 0,0.308435 -0.48753,0.741269 -1.08339,0.961854 -1.8129,0.671113 -2.94393,2.798285 -7.41984,13.954713 l -4.30042,10.718953 -1.4e-4,8.79876 c -1.8e-4,10.50475 0.18108,11.21707 3.10383,12.19829 0.98283,0.32995 1.78786,0.73489 1.78895,0.89987 9.9e-4,0.16497 -2.87918,0.29996 -6.40058,0.29996 -3.52141,0 -6.40255,-0.14053 -6.40255,-0.31229 z"
     id="path1385" />
  <path
     style="fill:#ffffff;fill-opacity:0.941176;stroke-width:0.388108"
     d="m 432.3417,185.96201 c -5.63787,-1.50356 -10.12268,-7.28236 -12.02558,-15.4953 -1.04526,-4.51137 -1.13502,-13.16778 -0.18342,-17.68822 1.37637,-6.53821 5.38329,-12.88009 9.72245,-15.38801 3.08046,-1.78042 6.68638,-1.87212 10.78531,-0.27427 3.26495,1.27276 3.21739,1.27854 4.40009,-0.5348 0.28671,-0.4396 0.6208,-0.69359 0.74242,-0.56445 0.15526,0.16488 1.34695,13.48235 1.34695,15.05265 0,0.0601 -0.22032,0.10911 -0.48958,0.10911 -0.29553,0 -0.67493,-0.95289 -0.95721,-2.40421 -0.68624,-3.52824 -2.92951,-7.89045 -4.86039,-9.45148 -2.7763,-2.24449 -6.60716,-2.28663 -10.19256,-0.11211 -5.04921,3.06231 -8.00174,12.67681 -7.48258,24.36606 0.33692,7.5857 1.97093,12.52162 5.46543,16.50961 2.29695,2.62133 4.8214,3.8797 7.78319,3.8797 3.22396,0 5.49683,-1.23782 8.35503,-4.5502 2.41846,-2.80277 3.52194,-3.06237 1.66311,-0.39126 -3.86199,5.54957 -9.27334,8.21712 -14.07266,6.93718 z"
     id="path1424" />
  <path
     style="fill:#ffffff;fill-opacity:0.941176;stroke-width:0.388108"
     d="m 452.39889,186.07382 c -0.002,-0.16499 -0.33933,-3.17956 -0.74952,-6.69907 -0.4102,-3.5195 -0.74748,-6.72905 -0.74953,-7.13233 -0.007,-1.34785 0.87359,-0.44274 1.5139,1.55637 2.35008,7.33716 5.7422,10.73351 10.70488,10.71822 4.99455,-0.0153 8.49658,-3.82307 8.48798,-9.22883 -0.008,-4.70134 -1.97171,-7.31383 -11.32495,-15.06261 -6.86862,-5.69038 -7.69369,-7.02664 -7.6849,-12.44637 0.005,-2.90797 0.17571,-4.00112 0.89006,-5.69002 1.04296,-2.46581 3.48516,-4.9999 5.49868,-5.70557 1.99119,-0.69785 5.53982,-0.29041 8.38031,0.9622 2.99224,1.31952 3.46236,1.30003 3.98313,-0.16512 0.86078,-2.42165 1.27642,-1.34137 1.73117,4.49937 0.24406,3.13456 0.53652,6.3741 0.64992,7.19898 0.15582,1.13344 0.0751,1.49979 -0.3301,1.49979 -0.33548,0 -0.77515,-0.91232 -1.17419,-2.43645 -1.78444,-6.81576 -5.21307,-10.46016 -9.85148,-10.47142 -5.48187,-0.0133 -8.60323,6.14094 -6.05831,11.94488 1.08272,2.46925 3.09893,4.57833 9.24941,9.67546 5.3256,4.41352 7.48377,6.98682 8.67816,10.34738 1.63958,4.61323 0.34615,10.72838 -2.91166,13.76591 -3.38963,3.16043 -8.08229,3.86058 -12.42118,1.85326 -3.40144,-1.57363 -5.3782,-1.35456 -5.3782,0.59602 0,0.39594 -0.25422,0.7199 -0.56493,0.7199 -0.31072,0 -0.5666,-0.13498 -0.56865,-0.29995 z"
     id="path1463" />
  <path
     style="fill:#ffffff;fill-opacity:0.941176;stroke-width:0.388108"
     d="m 395.90947,185.02992 c 0,-0.36612 0.68678,-0.61923 2.10059,-0.77419 2.91441,-0.31942 3.76929,-1.01776 4.26783,-3.48632 0.55785,-2.76228 0.55904,-36.41606 9.9e-4,-39.17737 -0.47474,-2.35059 -1.31321,-3.00219 -4.42781,-3.44095 -4.10575,-0.57837 -1.61907,-0.9704 6.15534,-0.9704 7.77443,0 10.26111,0.39203 6.15536,0.9704 -2.56784,0.36174 -4.00871,1.19977 -4.36095,2.53638 -0.15835,0.60092 -0.28792,9.82135 -0.28792,20.48985 0,20.95926 0.042,21.43329 1.98514,22.37344 0.54595,0.26416 1.8056,0.58254 2.79919,0.7075 1.16772,0.14686 1.80654,0.41964 1.80654,0.77141 0,0.44211 -1.51918,0.54421 -8.09736,0.54421 -6.57637,0 -8.09734,-0.10217 -8.09734,-0.54396 z"
     id="path1502" />
  <path
     style="fill:#ffffff;fill-opacity:0.941176;stroke-width:0.388108"
     d="m 360.1305,185.03817 c 0,-0.29465 0.43249,-0.745 0.96111,-1.00076 1.99895,-0.96718 2.05184,-1.55681 2.05184,-22.86712 0,-21.25996 0.0267,-20.9657 -2.06388,-22.71203 -0.52199,-0.43602 -0.94907,-0.90974 -0.94907,-1.05269 0,-0.14296 1.22596,-0.20705 2.72436,-0.14241 l 2.72438,0.11751 9.23605,18.067 c 5.07983,9.93684 9.36194,18.20068 9.5158,18.36407 0.40852,0.43383 0.32518,-30.54133 -0.0873,-32.43164 -0.38655,-1.77162 -1.48332,-2.93262 -3.09342,-3.27459 -2.37131,-0.50363 -0.79533,-0.92482 3.46044,-0.92482 2.4857,0 4.51945,0.15814 4.51945,0.35143 0,0.19327 -0.49626,0.56971 -1.1028,0.8365 -0.60654,0.2668 -1.24066,0.78357 -1.40917,1.14837 -0.16849,0.3648 -0.39253,10.80883 -0.49783,23.20893 l -0.19148,22.54566 -10.16876,-20.24053 c -5.59283,-11.13229 -10.38061,-20.24299 -10.63954,-20.24598 -0.36894,-0.004 -0.46913,3.43358 -0.4632,15.89231 0.004,8.74378 0.16549,17.05809 0.35851,18.47624 0.40551,2.97953 1.29131,4.46449 2.96767,4.97503 0.65213,0.19862 1.18569,0.60504 1.18569,0.90318 0,0.42599 -0.96763,0.54205 -4.51945,0.54205 -3.5255,0 -4.51944,-0.11782 -4.51944,-0.53571 z"
     id="path1541" />
  <path
     style="fill:#ffffff;fill-opacity:0.941176;stroke-width:0.388108"
     d="m 342.36173,185.83785 c -4.89471,-1.46068 -9.11065,-7.66424 -10.64375,-15.6618 -2.3077,-12.03838 0.0544,-24.5386 5.78703,-30.62534 3.22493,-3.42411 7.26278,-4.44673 11.50177,-2.91291 3.83518,1.3877 7.86563,7.2279 9.41061,13.63616 1.48631,6.16484 1.4857,15.4032 -9.8e-4,21.54971 -1.40535,5.80859 -5.09292,11.52722 -8.59056,13.32216 -2.05744,1.05583 -5.25199,1.35203 -7.46369,0.69202 z m 5.93184,-1.82087 c 2.78693,-1.34418 5.3621,-5.67367 6.80527,-11.44127 0.5862,-2.34276 0.69671,-4.23542 0.67725,-11.59836 -0.0206,-7.78631 -0.11873,-9.16694 -0.85293,-11.99832 -2.01056,-7.75363 -5.31588,-11.78077 -9.66919,-11.78077 -4.35252,0 -7.65427,4.02193 -9.67131,11.78077 -0.73951,2.84465 -0.83289,4.17553 -0.84185,11.99832 -0.0111,9.655 0.30805,11.92529 2.3475,16.70176 2.56924,6.01724 6.84999,8.43849 11.20526,6.33787 z"
     id="path1580" />
  <path
     style="fill:#ffffff;fill-opacity:0.941176;stroke-width:0.388108"
     d="m 301.37763,184.97396 c 0,-0.32995 0.29659,-0.60058 0.65909,-0.60141 1.33656,-0.003 3.05577,-1.52248 3.48374,-3.07893 0.28804,-1.04756 0.38206,-7.64232 0.30298,-21.25101 l -0.11467,-19.73209 -1.07733,-0.98384 c -0.59253,-0.54111 -1.56704,-1.08784 -2.16557,-1.21496 -0.61305,-0.1302 -1.08824,-0.4902 -1.08824,-0.82444 0,-0.51229 1.14448,-0.5678 8.37981,-0.4064 9.49512,0.21179 11.1756,0.56962 13.77611,2.9334 1.97311,1.79351 2.90555,3.68111 3.49417,7.07349 0.49962,2.87942 0.13325,5.93941 -1.02013,8.52049 -0.89677,2.00685 -3.67916,4.43462 -6.20178,5.41138 -1.96701,0.76161 -2.15188,0.93024 -1.86527,1.70139 1.31517,3.53861 8.78047,19.72586 9.44224,20.47391 0.45624,0.51572 1.31669,1.05129 1.91209,1.19017 0.59542,0.13887 1.08257,0.51517 1.08257,0.83621 0,0.47554 -0.60328,0.56229 -3.25557,0.46815 l -3.25558,-0.11556 -4.81334,-11.3984 -4.81334,-11.39839 -2.47647,-0.11827 -2.47647,-0.11825 v 8.82988 c 0,6.78001 0.12589,9.14984 0.54227,10.20808 0.58836,1.49535 2.52892,2.99161 3.88303,2.99399 0.50153,8e-4 0.84739,0.24635 0.84739,0.60141 0,0.51041 -0.9834,0.59992 -6.59086,0.59992 -5.60747,0 -6.59087,-0.0896 -6.59087,-0.59992 z m 16.65171,-25.59226 c 4.06255,-1.53165 6.2222,-5.59909 5.8563,-11.02963 -0.43769,-6.49618 -4.3572,-9.89223 -10.95971,-9.49606 -2.00106,0.12007 -2.71087,0.32885 -3.11539,0.91631 -0.41426,0.60162 -0.52387,2.84811 -0.52387,10.73745 v 9.97665 l 3.48374,-0.21772 c 1.91606,-0.11975 4.28258,-0.5189 5.25893,-0.887 z"
     id="path1619" />
  <path
     style="fill:#ffffff;fill-opacity:0.941176;stroke-width:0.388107"
     d="m 159.91346,219.46911 c 0.12482,-0.49493 2.4073,-6.83904 5.07219,-14.09802 l 4.84524,-13.19814 h 2.54201 2.542 l 5.0396,13.79806 c 2.77176,7.58893 5.04131,13.9429 5.04343,14.11993 0.002,0.17703 -0.78803,0.26702 -1.75589,0.19997 l -1.75973,-0.1219 -1.34739,-3.90464 -1.34739,-3.90465 -6.54292,0.10518 -6.54291,0.10518 -1.35368,3.89945 -1.35367,3.89945 h -1.65392 c -1.53132,0 -1.63709,-0.0667 -1.42697,-0.89987 z m 17.56178,-10.19856 c 0.0166,-0.84788 -5.08422,-14.46293 -5.32107,-14.20288 -0.24707,0.27125 -5.2302,13.93305 -5.2302,14.33915 0,0.3031 10.54533,0.16691 10.55127,-0.13627 z"
     id="path1658" />
  <path
     style="fill:#ffffff;fill-opacity:0.941176;stroke-width:0.388107"
     d="m 190.27447,206.17098 v -14.198 h 1.69479 1.6948 v 5.59921 5.59921 h 7.53242 7.53242 v -5.59921 -5.59921 h 1.69479 1.69479 v 14.198 14.198 h -1.69479 -1.69479 v -6.99901 -6.99902 h -7.53242 -7.53242 v 6.99902 6.99901 h -1.6948 -1.69479 z"
     id="path1697" />
  <path
     style="fill:#ffffff;fill-opacity:0.941176;stroke-width:0.388107"
     d="m 220.40415,206.17098 v -14.198 h 9.41551 9.41553 v 1.39981 1.3998 h -7.72073 -7.72073 v 4.19941 4.1994 h 7.72073 7.72073 v 1.59978 1.59977 h -7.72073 -7.72073 v 5.59921 5.59922 h 7.72073 7.72073 v 1.3998 1.3998 h -9.41553 -9.41551 z"
     id="path1736" />
  <path
     style="fill:#ffffff;fill-opacity:0.941176;stroke-width:0.388107"
     d="m 242.78378,219.69312 c 0.14133,-0.39816 2.47589,-6.79808 5.18792,-14.22204 l 4.93097,-13.4981 2.48763,0.003 2.48762,0.003 4.6816,12.89464 c 2.5749,7.09204 4.90752,13.47955 5.1836,14.19445 l 0.50198,1.29981 h -1.84089 -1.84089 l -1.41271,-3.99943 -1.4127,-3.99944 h -6.46189 -6.46189 l -1.35201,3.89945 -1.352,3.89945 -1.79166,0.12403 c -1.59609,0.11049 -1.7636,0.045 -1.53468,-0.59992 z m 16.8134,-13.22218 c -0.59754,-1.70475 -1.69928,-4.80932 -2.44828,-6.89903 -0.74902,-2.0897 -1.44621,-4.05019 -1.5493,-4.35663 -0.1031,-0.30646 -0.27437,-0.46487 -0.38061,-0.35206 -0.31226,0.3316 -5.05984,13.65947 -5.06087,14.20736 -7e-4,0.37614 1.3023,0.49992 5.26229,0.49992 h 5.26322 z"
     id="path1775" />
  <path
     style="fill:#ffffff;fill-opacity:0.941176;stroke-width:0.388107"
     d="m 273.13107,206.13283 v -14.23614 l 6.87332,0.15992 c 5.92707,0.13791 7.15217,0.2782 8.89863,1.01897 2.78646,1.18189 4.61956,2.60857 6.02843,4.69187 1.77232,2.62074 2.39498,4.77979 2.42632,8.41314 0.024,2.78542 -0.12464,3.55115 -1.12595,5.79918 -1.28737,2.89027 -3.32283,5.25424 -5.58789,6.48968 -2.78851,1.52096 -5.00639,1.88983 -11.39277,1.89478 l -6.12009,0.005 z m 12.90066,10.88254 c 5.79995,-1.44935 8.71015,-6.68337 7.51396,-13.51388 -0.6181,-3.52949 -1.95611,-5.40369 -5.05821,-7.08527 -2.33328,-1.2648 -2.80681,-1.36929 -7.0458,-1.55468 l -4.5444,-0.19875 v 11.4533 11.45329 l 3.48374,-0.006 c 1.91606,-0.003 4.45888,-0.24993 5.65071,-0.54776 z"
     id="path1814" />
  <path
     style="fill:#ffffff;fill-opacity:0.941176;stroke-width:0.388107"
     d="m 325.88863,220.53357 c -5.1221,-1.4624 -8.15779,-5.3475 -9.07304,-11.61171 -1.10453,-7.55978 2.18801,-14.49934 7.94455,-16.74439 3.12863,-1.22017 8.14537,-1.09733 10.9352,0.26775 2.96726,1.45191 4.9319,3.48372 6.20977,6.42207 1.00957,2.32143 1.08913,2.85495 1.08913,7.30369 0,4.42242 -0.0831,4.98778 -1.057,7.19899 -0.58135,1.31981 -1.51349,2.91499 -2.07142,3.54485 -3.24772,3.66637 -8.78716,5.10055 -13.97719,3.61875 z m 7.81655,-3.04308 c 1.64513,-0.5313 3.6911,-2.4675 4.59455,-4.34807 1.17666,-2.44929 1.66287,-6.60852 1.14305,-9.77833 -0.54037,-3.29518 -1.47268,-5.32969 -3.11704,-6.80205 -1.87024,-1.67462 -3.38537,-2.19029 -6.40698,-2.18061 -3.38097,0.0108 -5.29098,0.85381 -7.14437,3.15318 -1.69942,2.10833 -2.3774,4.57122 -2.3774,8.63637 0,1.75976 0.23188,4.0469 0.5153,5.08254 0.58611,2.14173 2.58809,4.83491 4.28786,5.76833 2.23084,1.22506 5.58971,1.41013 8.50503,0.46864 z"
     id="path1853" />
  <path
     style="fill:#ffffff;fill-opacity:0.941176;stroke-width:0.388107"
     d="m 349.96172,206.17098 v -14.198 h 9.03891 9.0389 v 1.39981 1.3998 h -7.34411 -7.34411 v 4.39938 4.39938 h 6.40257 6.40254 v 1.39981 1.39979 h -6.40254 -6.40257 v 6.99902 6.99901 h -1.69478 -1.69481 z"
     id="path1892" />
  <path
     style="fill:#ffffff;fill-opacity:0.941176;stroke-width:0.388107"
     d="m 393.64974,207.57079 v -12.7982 h -5.27269 -5.27269 v -1.3998 -1.39981 h 12.24019 12.24017 v 1.39981 1.3998 h -5.27269 -5.27269 v 12.7982 12.79819 h -1.69479 -1.69481 z"
     id="path1931" />
  <path
     style="fill:#ffffff;fill-opacity:0.941176;stroke-width:0.388107"
     d="m 411.72756,206.17098 v -14.198 h 1.69478 1.69479 v 5.59921 5.59921 h 7.53243 7.53242 v -5.59921 -5.59921 h 1.69479 1.69479 v 14.198 14.198 h -1.69479 -1.69479 v -6.99901 -6.99902 h -7.53242 -7.53243 v 6.99902 6.99901 h -1.69479 -1.69478 z"
     id="path1970" />
  <path
     style="fill:#ffffff;fill-opacity:0.941176;stroke-width:0.388107"
     d="m 441.85723,206.17098 v -14.198 h 9.41551 9.41553 v 1.39981 1.3998 h -7.53242 -7.53242 v 4.19941 4.1994 h 7.53242 7.53242 v 1.59978 1.59977 h -7.53242 -7.53242 v 5.59921 5.59922 h 7.53242 7.53242 v 1.3998 1.3998 h -9.41553 -9.41551 z"
     id="path2009" />
  <path
     style="fill:#ffffff;fill-opacity:0.941176;stroke-width:0.388107"
     d="m 491.13344,220.78588 c -7.48645,-1.45198 -11.56119,-7.12567 -11.1628,-15.54312 0.24528,-5.18284 1.79469,-8.35473 5.42978,-11.11564 4.28288,-3.25292 12.44274,-3.59532 18.77061,-0.78763 1.27923,0.5676 1.33511,0.67696 1.33511,2.61252 0,1.11107 -0.0788,2.02013 -0.17523,2.02013 -0.0964,0 -0.94987,-0.5217 -1.89668,-1.15933 -4.09837,-2.76006 -11.45762,-3.30607 -14.98369,-1.11169 -3.32625,2.07003 -4.81744,5.27881 -4.82816,10.38937 -0.004,1.71547 0.19982,3.78519 0.45206,4.59935 1.01245,3.26793 3.26379,5.69093 6.32892,6.81146 1.82542,0.66733 7.44744,0.58245 9.76175,-0.14738 l 1.95146,-0.61542 v -3.78397 -3.78397 h -3.95452 -3.95452 v -1.3998 -1.39981 h 5.64931 5.6493 v 6.00906 6.00905 l -1.0357,0.43292 c -4.39587,1.83745 -9.8489,2.64042 -13.337,1.9639 z"
     id="path2048" />
  <path
     style="fill:#ffffff;fill-opacity:0.941176;stroke-width:0.388107"
     d="m 514.52352,206.27097 5.15456,-14.09802 h 2.5442 2.5442 l 5.05087,13.79806 c 2.77798,7.58893 5.0541,13.9429 5.05806,14.11993 0.004,0.17703 -0.79205,0.26702 -1.7689,0.19997 l -1.77607,-0.1219 -1.34589,-3.79946 -1.3459,-3.79947 h -6.52772 -6.52773 l -1.35402,3.89945 -1.35403,3.89945 h -1.7531 -1.7531 z m 12.82664,3.01244 c 0,-0.84054 -5.11451,-14.43842 -5.33982,-14.1969 -0.25043,0.26845 -5.20556,13.87105 -5.20556,14.29005 0,0.10667 2.3727,0.19394 5.27269,0.19394 2.89998,0 5.27269,-0.12919 5.27269,-0.28709 z"
     id="path2087" />
  <path
     style="fill:#ffffff;fill-opacity:0.941176;stroke-width:0.388107"
     d="m 540.15527,206.17098 v -14.198 h 2.42318 2.42317 l 3.88523,7.99349 c 2.13687,4.39642 3.98254,7.99592 4.1015,7.99888 0.11895,0.003 1.87329,-3.59411 3.89851,-7.9935 l 3.68225,-7.99887 h 2.59819 2.59819 v 14.198 14.198 h -1.8831 -1.8831 l -0.006,-12.49824 -0.006,-12.49824 -4.09265,8.39882 c -5.55159,11.39283 -4.96365,11.38029 -10.19921,0.21742 -2.17103,-4.62894 -4.07768,-8.41626 -4.23698,-8.41626 -0.1593,0 -0.28963,5.5792 -0.28963,12.39825 v 12.39825 h -1.50649 -1.50648 z"
     id="path2126" />
  <path
     style="fill:#ffffff;fill-opacity:0.941176;stroke-width:0.388107"
     d="m 574.05115,206.17098 v -14.198 h 9.41553 9.41552 v 1.39981 1.3998 h -7.72073 -7.72073 v 4.19941 4.1994 h 7.72073 7.72073 v 1.59978 1.59977 h -7.72073 -7.72073 v 5.59921 5.59922 h 7.72073 7.72073 v 1.3998 1.3998 h -9.41552 -9.41553 z"
     id="path2165" />
</svg>
