<?xml version="1.0" encoding="UTF-8" standalone="no"?>
<svg
   height="158.32361pt"
   preserveAspectRatio="xMidYMid meet"
   viewBox="0 0 598.41032 221.65306"
   width="427.43594pt"
   version="1.1"
   id="svg24"
   sodipodi:docname="centurye.svg"
   inkscape:version="1.1 (c68e22c387, 2021-05-23)"
   xmlns:inkscape="http://www.inkscape.org/namespaces/inkscape"
   xmlns:sodipodi="http://sodipodi.sourceforge.net/DTD/sodipodi-0.dtd"
   xmlns="http://www.w3.org/2000/svg"
   xmlns:svg="http://www.w3.org/2000/svg">
  <defs
     id="defs28" />
  <sodipodi:namedview
     id="namedview26"
     pagecolor="#ffffff"
     bordercolor="#666666"
     borderopacity="1.0"
     inkscape:pageshadow="2"
     inkscape:pageopacity="0.0"
     inkscape:pagecheckerboard="0"
     inkscape:document-units="pt"
     showgrid="false"
     inkscape:zoom="3.9762795"
     inkscape:cx="267.20958"
     inkscape:cy="175.16374"
     inkscape:window-width="1366"
     inkscape:window-height="705"
     inkscape:window-x="-8"
     inkscape:window-y="-8"
     inkscape:window-maximized="1"
     inkscape:current-layer="svg24" />
  <g
     transform="matrix(.1 0 0 -.1 .047383 222.93383)"
     id="g8">
    <path
       d="m1350 2211c-100-28-161-54-226-97-179-119-312-310-350-502-8-42-17-87-19-99-4-16-39-39-137-90-286-149-561-342-604-424-33-64-8-136 59-170 39-21 51-21 187-15 181 7 369 35 525 77 181 48 167 48 226-5 99-89 245-157 373-175 78-11 86-9 86 22 0 19-10 24-79 40-98 22-215 78-305 146-63 48-71 51-99 42-16-6-31-11-33-11-1 0-18 23-38 50-28 38-33 52-22 56 8 3 119 41 247 84 129 43 260 88 291 99 114 42 428 184 625 283 111 57 205 99 209 95 4-3 9-29 12-56 4-49 4-49-38-76-88-55-524-265-672-323-84-33-233-86-330-118-98-33-178-64-178-69 0-7 42-10 120-8 116 2 123 4 192 38 83 42 131 44 136 7 2-13-4-32-12-41-15-16-15-19-1-31 20-16 98 16 172 71 36 27 62 39 86 39 23 0 41 8 57 25 27 28 40 32 40 10 0-10 10-15 30-15 17 0 30-5 30-10 0-17-27-22-49-10-18 9-22 8-28-7-13-38-36-53-79-53-24 0-46 5-49 10-4 7-13 7-26 0-24-13-25-32-1-28 37 6 57-26 22-37-54-17-3-24 171-22l191 2 52 56c99 106 162 263 174 434l7 99 60 34c323 186 547 341 582 404 23 42 16 87-19 122-27 27-43 34-93 40-100 11-348-33-580-103l-130-39-51 48c-68 64-178 135-257 165-149 56-333 70-457 36zm1380-256c10-12 10-18 0-29-29-36-417-266-447-266-5 0-15 19-22 43-7 23-23 63-36 89-18 35-21 49-12 56 18 14 236 82 329 102 106 23 172 25 188 5zm-1550-24c0-12-20-25-27-18s6 27 18 27c5 0 9-4 9-9zm15-72c7-10-31-59-46-59-19 0-50 36-44 53 8 19 79 25 90 6zm635 1c0-6 11-15 25-20 28-11 33-28 10-36-15-6-67 45-58 58 6 12 23 10 23-2zm-904-112c-3-13-9-42-12-64-6-37-4-43 17-55 13-6 34-23 47-37 20-21 29-23 67-18 51 8 59 0 39-38-29-57-12-61 57-11 57 41 59 41 59 15 0-11 3-20 8-20 11 0 55 32 84 62 23 24 33 27 78 25 28-2 56-9 62-15 9-9 18-6 38 13 24 23 28 24 40 10 19-23 38-18 67 15 13 17 29 30 34 30s8-25 6-56c-4-51-2-56 19-65 13-4 24-15 24-22 0-21-37-50-55-43-8 3-26 0-40-6-21-9-28-8-46 8-20 18-21 18-45-14-17-21-34-32-51-32-14 0-38-11-55-25-16-14-41-25-54-25-34 0-194-111-194-134 0-11-82-86-94-86-3 0-6 6-6 14 0 27-21 28-61 2-22-15-43-25-48-22-4 3-19 40-32 83-21 67-24 98-24 218 0 127 3 148 29 228 15 48 33 87 38 87 6 0 8-10 4-22zm609-98c-3-5-10-10-16-10-5 0-9 5-9 10 0 6 7 10 16 10 8 0 12-4 9-10zm-751-402c10-35 29-89 43-121 14-31 23-60 20-64-26-26-414-103-593-119-82-6-100-1-89 28 6 16 104 81 235 156 90 52 348 182 361 182 3 0 14-28 23-62zm1201-108c12-19-24-60-50-60-33 0-32 23 3 49 31 23 38 25 47 11zm55-84c0-15-18-31-26-23-7 7 7 37 17 37 5 0 9-6 9-14z"
       id="path2" />
    <path
       d="m1360 1555c-11-28-13-55-5-55 3 0 21 10 40 23 41 26 42 51 2 55-21 3-29-2-37-23z"
       id="path4" />
    <path
       d="m1542 1560c-18-29-5-46 19-24 10 9 19 23 19 31 0 20-24 16-38-7z"
       id="path6" />
  </g>
  <g
     font-family="Harry"
     stroke-width=".75"
     id="g22">
    <text
       font-size="41.298"
       transform="matrix(1.0324501 0 0 .96856982 .047383 -.066169)"
       x="146.38165"
       y="227.96417"
       id="text12"><tspan
         font-family="FreeSans"
         font-size="41.298"
         stroke-width=".75"
         x="146.38165"
         y="227.96417"
         id="tspan10">AHEAD OF THE GAME</tspan></text>
    <text
       font-size="64.9675"
       letter-spacing="0"
       transform="matrix(.95751612 0 0 1.0443688 .047383 -.066169)"
       x="240.60318"
       y="120.1809"
       id="text16"><tspan
         font-family="Crossharbour DB"
         font-size="64.9675"
         stroke-width=".75"
         x="240.60318"
         y="120.1809"
         id="tspan14">CENTURY</tspan></text>
    <text
       font-size="65.1246"
       letter-spacing="0"
       transform="matrix(.95762643 0 0 1.0442485 .047383 -.066169)"
       x="153.14742"
       y="173.94124"
       id="text20"><tspan
         font-family="Crossharbour DB"
         font-size="65.1246"
         stroke-width=".75"
         x="153.14742"
         y="173.94124"
         id="tspan18">ELECTRONICS</tspan></text>
  </g>
  <path
     style="fill:#ffffff;stroke-width:0.538672"
     d="m 135.47592,144.75128 c -3.78494,-0.26593 -10.63332,-1.81053 -15.35215,-3.46256 -8.86549,-3.10373 -15.27658,-6.96524 -26.195952,-15.77823 -2.729972,-2.20335 -4.722303,-2.08834 -16.628438,0.95987 -21.60174,5.53047 -38.892144,7.93231 -58.413818,8.11436 -8.262217,0.077 -9.0844014,-0.005 -11.1472493,-1.10802 -2.8319465,-1.51471 -5.5304412,-4.20598 -6.4685863,-6.45128 -1.10433918,-2.64306 -0.91746219,-6.8471 0.4214824,-9.4818 3.859713,-7.59491 28.0983582,-24.790968 55.9466562,-39.69124 4.592176,-2.457048 9.682623,-5.344048 11.312104,-6.415552 l 2.962694,-1.948187 1.69492,-8.14325 C 76.999453,45.04916 83.336973,33.288504 95.068035,21.520844 106.69741,9.8551818 120.54186,2.774287 135.68856,0.74502769 c 12.1697,-1.63042023 30.43958,1.46505931 41.44942,7.02280641 5.20372,2.6268319 14.0213,8.7846789 19.36184,13.5215459 l 5.00206,4.436641 2.80868,-0.822881 c 24.96117,-7.313055 34.915,-9.692742 49.13148,-11.745982 9.98739,-1.442448 17.67967,-1.281842 21.01116,0.438688 4.9623,2.56276 7.36462,7.766514 5.65784,12.255673 -1.96752,5.174981 -18.19769,17.179908 -44.4026,32.843166 -6.53971,3.908925 -13.11392,7.788605 -14.60936,8.62151 l -2.719,1.514373 -0.62968,7.884218 c -1.0076,12.615976 -2.99351,20.283191 -7.68566,29.672864 -2.80436,5.61192 -5.70891,9.73573 -10.61587,15.07218 l -3.2098,3.49073 -14.7601,0.17416 c -8.11805,0.0958 -16.21451,-0.0295 -17.99213,-0.27837 l -3.23203,-0.45254 1.60943,-0.79244 c 3.15445,-1.55317 1.98635,-4.2856 -1.83209,-4.2856 h -1.9021 l 1.17055,-1.17055 c 1.06046,-1.06046 1.36889,-1.11112 3.27956,-0.53867 5.34425,1.60117 10.04764,0.24266 11.78684,-3.40448 0.98063,-2.0564 1.33101,-2.17681 3.81475,-1.31097 1.84946,0.64472 3.88926,-0.0619 3.88926,-1.34739 0,-0.89076 -1.17438,-1.38536 -3.28942,-1.38536 -1.19533,0 -1.71123,-0.33127 -2.09729,-1.34668 -0.70034,-1.84203 -1.76942,-1.69195 -4.31229,0.60538 -1.66986,1.50862 -2.98567,2.12457 -5.79227,2.71142 -2.89645,0.60564 -4.77649,1.51328 -9.28762,4.48386 -8.181,5.38719 -12.81816,7.19175 -14.78497,5.75359 -1.00542,-0.73518 -1.00224,-0.78418 0.14515,-2.24286 1.38465,-1.76029 1.58089,-5.18492 0.3554,-6.20199 -1.53321,-1.27245 -6.59371,-0.31722 -12.40138,2.34091 -2.95084,1.35058 -6.45597,2.70547 -7.78919,3.01086 -1.33321,0.3054 -6.66606,0.55348 -11.85077,0.5513 -7.58533,-0.003 -9.25635,-0.1337 -8.55438,-0.66815 0.87718,-0.66785 10.85884,-4.32135 29.83191,-10.9191 13.17386,-4.58113 20.81416,-7.62528 33.1283,-13.199436 14.8174,-6.707286 47.93278,-23.356527 50.09646,-25.186734 1.82693,-1.545352 1.88115,-1.700861 1.74961,-5.018464 -0.20116,-5.073495 -0.77208,-6.687609 -2.30275,-6.510359 -0.6904,0.07995 -10.48387,4.599744 -21.76326,10.04398 -37.68301,18.188512 -48.62628,22.852282 -73.48198,31.316376 -35.141243,11.966617 -34.817012,11.847417 -35.015873,12.873417 -0.176307,0.90963 3.999443,7.60876 5.539376,8.88679 0.525479,0.43611 1.356176,0.42494 3.100906,-0.0417 3.231055,-0.86417 4.244603,-0.50037 9.860941,3.53949 9.42789,6.78154 18.46046,11.16792 28.32885,13.757 7.21828,1.8938 8.03148,2.32677 8.03148,4.2762 0,1.72409 -0.66155,2.01521 -4.04003,1.77783 z M 34.474985,121.39429 c 13.807509,-1.88603 36.550659,-6.49281 43.76707,-8.8653 3.228873,-1.06154 3.260967,-1.66067 0.465423,-8.6892 -1.151292,-2.89459 -2.85852,-7.747503 -3.793832,-10.784265 -1.397626,-4.537791 -1.888001,-5.521384 -2.752725,-5.521384 -1.309565,0 -25.384905,12.06708 -34.395362,17.239699 -9.144669,5.24966 -18.81627,11.44664 -20.969085,13.43574 -2.119489,1.9583 -2.16051,3.81478 -0.09765,4.41948 1.77801,0.5212 8.172809,0.077 17.776164,-1.23477 z m 159.339065,-7.57297 c 0.35553,-0.35553 0.64641,-1.34291 0.64641,-2.19419 0,-2.00141 -1.57114,-1.82474 -2.58503,0.29068 -1.04638,2.18319 0.31865,3.52349 1.93862,1.90351 z m -5.99375,-6.07249 c 2.01219,-2.01219 2.23309,-3.76865 0.60249,-4.79066 -1.93778,-1.21454 -7.67623,4.25763 -6.25747,5.96713 1.11015,1.33765 3.6743,0.8042 5.65498,-1.17647 z m -96.282488,-7.11097 c 3.951604,-2.161057 5.423083,-2.140211 5.423083,0.0768 0,0.82906 0.304721,1.36359 0.777351,1.36359 1.191466,0 7.591134,-5.656833 9.302744,-8.222946 2.65945,-3.98714 15.59317,-12.785253 18.79503,-12.785253 0.52601,0 2.54657,-0.951364 4.49014,-2.114146 1.94356,-1.162776 4.50782,-2.369013 5.69835,-2.680527 1.37808,-0.360587 3.01922,-1.437176 4.51658,-2.962877 l 2.35198,-2.396485 2.00065,1.323968 c 1.70475,1.128156 2.22686,1.237965 3.53013,0.742462 0.84121,-0.319831 2.71701,-0.666256 4.16845,-0.769832 1.99585,-0.14243 3.02136,-0.554675 4.20806,-1.691612 0.86301,-0.826807 1.5691,-1.863055 1.5691,-2.302767 0,-1.023158 -1.56924,-2.769661 -2.48855,-2.769661 -1.23537,0 -1.96596,-2.20418 -1.68085,-5.071076 0.32915,-3.309648 -0.0571,-6.241029 -0.8224,-6.241029 -0.30809,0 -1.84168,1.212012 -3.40799,2.693359 -1.5663,1.481347 -3.19325,2.693358 -3.61543,2.693358 -0.42218,0 -1.38394,-0.484805 -2.13723,-1.077343 -1.75536,-1.380767 -1.73525,-1.383649 -4.25233,0.609911 l -2.13033,1.687248 -2.72242,-0.879241 c -3.34261,-1.079546 -8.08149,-1.137373 -10.03219,-0.122419 -0.80003,0.416254 -2.06061,1.407894 -2.80128,2.203647 -1.72045,1.848387 -6.15497,5.1196 -6.94023,5.1196 -0.33065,0 -0.60117,-0.727207 -0.60117,-1.616015 0,-2.329216 -1.13276,-2.098132 -6.18069,1.260885 -6.56083,4.365739 -7.43631,4.334421 -5.13142,-0.183542 2.12851,-4.172206 1.3746,-4.920803 -4.482239,-4.450672 -3.439952,0.276123 -3.495004,0.25867 -5.824657,-1.846674 -1.293534,-1.168993 -3.139691,-2.670836 -4.102566,-3.337443 -2.0582,-1.424899 -2.197646,-2.714134 -0.940128,-8.692149 0.775127,-3.684839 0.720355,-4.835942 -0.230109,-4.835942 -0.653824,0 -3.022411,5.588779 -4.680055,11.042768 -1.388205,4.567473 -1.486545,5.588207 -1.69924,17.637446 -0.183331,10.38596 -0.06002,13.607319 0.656156,17.141813 1.230499,6.072752 3.960077,13.431856 4.982034,13.431856 0.448137,0 2.443286,-0.89059 4.433666,-1.97909 z M 146.41801,55.079175 c 0.13344,-0.700117 -0.177,-0.942676 -1.20651,-0.942676 -1.04259,0 -1.38617,0.276323 -1.38617,1.114808 0,0.846711 0.29015,1.073411 1.2065,0.942676 0.66359,-0.09467 1.28736,-0.596337 1.38618,-1.114808 z M 223.11893,51.9527 c 9.41347,-4.782902 27.82323,-15.832463 34.21514,-20.535974 3.62502,-2.667481 4.21432,-3.733055 2.93694,-5.310554 -2.0162,-2.489893 -9.40966,-1.975842 -23.52483,1.635627 -9.54385,2.441866 -24.34638,7.178554 -25.83483,8.266938 -1.22595,0.896442 -1.15237,1.198847 2.37933,9.778352 3.11205,7.560039 3.72815,8.888082 4.12329,8.888082 0.1907,0 2.75793,-1.225112 5.70496,-2.722471 z M 112.27106,38.956733 c 1.95615,-2.285319 2.41459,-3.847687 1.32636,-4.520251 -0.94437,-0.58365 -6.18513,-0.384679 -7.43107,0.282128 -0.65905,0.352716 -1.12538,1.135291 -1.12538,1.888578 0,1.523324 2.8823,4.601192 4.30883,4.601192 0.54666,0 1.86123,-1.013241 2.92126,-2.251647 z m 66.94437,0.820083 c 0.23078,-0.601387 -0.17043,-1.295056 -1.22892,-2.124735 -0.86435,-0.677512 -2.1255,-1.730124 -2.80256,-2.339137 -0.67706,-0.609012 -1.70727,-1.107295 -2.28936,-1.107295 -1.75032,0 -1.2587,2.081067 1.03297,4.372746 2.25747,2.257467 4.67153,2.804579 5.28787,1.198421 z M 112.03801,29.6338 c 0.70421,-0.84853 0.39333,-2.430882 -0.4776,-2.430882 -0.78225,0 -2.21007,1.590896 -2.21007,2.462499 0,1.011304 1.84008,0.989658 2.68767,-0.03162 z"
     id="path919"
     transform="scale(1.05)" />
  <path
     style="fill:#ffffff;stroke-width:0.409225"
     d="m 128.90816,68.264452 c 0.007,-3.499698 1.97289,-6.481069 3.97902,-6.034181 2.21021,0.492347 2.49341,0.624013 2.74339,1.275469 0.30831,0.803439 -2.48919,3.57739 -5.00546,4.963325 l -1.71924,0.94694 0.002,-1.151553 z"
     id="path958"
     transform="scale(1.05)" />
  <path
     style="fill:#ffffff;stroke-width:0.409225"
     d="m 146.76097,66.621072 c -0.6129,-0.612894 -0.16823,-2.178126 0.96272,-3.388813 1.2644,-1.353544 2.16083,-1.459493 2.38913,-0.282371 0.24707,1.273954 -2.61468,4.408354 -3.35185,3.671184 z"
     id="path997"
     transform="scale(1.05)" />
  <path
     style="fill:#ffffff;stroke-width:0.251491"
     d="m 139.8292,176.1745 c 0,-0.33806 0.2223,-0.54826 0.6916,-0.65395 2.12532,-0.47865 2.59543,-0.68241 3.18155,-1.37896 0.35226,-0.41864 0.75946,-1.20305 0.90489,-1.74313 0.17664,-0.656 0.24145,-7.10144 0.19523,-19.41628 -0.0661,-17.62274 -0.0905,-18.47731 -0.55406,-19.41133 -0.51523,-1.03821 -1.66413,-1.71542 -3.47611,-2.04898 -0.69563,-0.12805 -0.9431,-0.29824 -0.9431,-0.6486 0,-0.45974 0.43194,-0.47499 13.45479,-0.47499 h 13.45479 v 2.35053 c 0,1.29279 0.0735,3.38646 0.1634,4.65259 0.15564,2.19257 0.13936,2.30206 -0.3422,2.30206 -0.41471,0 -0.53228,-0.21478 -0.65393,-1.19459 -0.26071,-2.09971 -0.93579,-3.89362 -1.78473,-4.74256 -1.28436,-1.28436 -2.3265,-1.45132 -9.15929,-1.46743 -5.77491,-0.0136 -6.13827,0.013 -6.47591,0.47376 -0.29358,0.40067 -0.3577,2.10794 -0.3577,9.52422 v 9.03604 l 5.46994,-0.10858 c 7.4335,-0.14755 8.1775,-0.48503 8.87663,-4.02643 0.14473,-0.73309 0.31666,-1.58753 0.38207,-1.89875 0.0654,-0.31122 0.28653,-0.56586 0.49138,-0.56586 0.32079,0 0.37244,1.0638 0.37244,7.67049 0,6.6067 -0.0516,7.67049 -0.37244,7.67049 -0.20485,0 -0.42072,-0.25464 -0.47971,-0.56586 -0.71676,-3.78101 -1.0832,-4.65995 -2.23268,-5.35524 -0.73365,-0.44377 -1.38578,-0.49972 -6.66046,-0.57153 l -5.84717,-0.0796 v 9.68511 9.68512 l 0.57318,0.66636 c 0.36735,0.42708 0.97695,0.74427 1.69757,0.88329 1.60167,0.30902 9.0377,0.28932 10.51661,-0.0279 2.99818,-0.64299 5.19657,-2.8947 6.73428,-6.89758 0.47994,-1.24935 0.85851,-1.88421 1.1248,-1.88629 0.35063,-0.003 0.29428,0.56135 -0.44559,4.46084 -0.46584,2.45519 -0.91648,4.94495 -1.00143,5.53281 l -0.15445,1.06884 H 153.5013 c -13.4606,0 -13.6721,-0.008 -13.6721,-0.49819 z"
     id="path1075"
     transform="scale(1.05)" />
  <path
     style="fill:#ffffff;stroke-width:0.251491"
     d="m 169.50518,176.1745 c 0,-0.3387 0.22142,-0.54722 0.69161,-0.65132 2.54062,-0.5625 3.37363,-1.22646 3.94262,-3.14246 0.58509,-1.97021 0.5965,-36.18482 0.0127,-38.15061 -0.47428,-1.59705 -1.22727,-2.22018 -3.167,-2.62082 -1.14424,-0.23634 -1.47996,-0.40837 -1.47996,-0.75835 0,-0.42471 0.41926,-0.45266 6.79027,-0.45266 6.45237,0 6.79027,0.0233 6.79027,0.46779 0,0.38397 -0.25649,0.49428 -1.43128,0.61552 -1.68536,0.17395 -2.53165,0.71949 -3.22131,2.07656 -0.48812,0.96049 -0.50502,1.55946 -0.57187,20.27068 l -0.0689,19.28095 0.6126,0.71261 0.6126,0.71262 3.95877,0.0862 c 6.62043,0.14411 9.65841,-0.59251 11.56862,-2.80504 1.01994,-1.18136 2.39905,-3.7626 2.89469,-5.41791 0.30572,-1.02104 0.81334,-1.55169 1.15629,-1.20874 0.0811,0.0811 -0.34122,2.69807 -0.93859,5.81537 l -1.08615,5.66782 h -13.53301 c -13.32196,0 -13.53301,-0.008 -13.53301,-0.49819 z"
     id="path1114"
     transform="scale(1.05)" />
  <path
     style="fill:#ffffff;stroke-width:0.251491"
     d="m 199.18117,176.19054 c 0,-0.37558 0.28067,-0.54233 1.27002,-0.75451 2.77593,-0.59533 3.37942,-1.40515 3.79041,-5.0863 0.3834,-3.43404 0.156,-34.74343 -0.26171,-36.03352 -0.49589,-1.53156 -1.4538,-2.31934 -3.24994,-2.6727 -1.23657,-0.24328 -1.54878,-0.39951 -1.54878,-0.77497 0,-0.4535 0.47971,-0.47026 13.45479,-0.47026 h 13.45478 v 1.59521 c 0,0.87736 0.074,2.97103 0.1644,4.65259 0.14673,2.72897 0.12023,3.05738 -0.2467,3.05738 -0.2261,0 -0.46335,-0.25464 -0.52723,-0.56586 -0.84886,-4.13621 -1.4364,-5.40463 -2.80599,-6.05774 -1.39312,-0.66433 -4.88628,-0.97145 -9.98527,-0.8779 -4.10719,0.0754 -4.52727,0.12476 -4.85299,0.57068 -0.2921,0.39991 -0.35658,2.12196 -0.35658,9.52382 v 9.03563 l 5.59569,-0.11213 c 5.85577,-0.11735 6.83157,-0.28797 7.77368,-1.35927 0.4189,-0.47633 1.03895,-2.42164 1.33371,-4.18431 0.0979,-0.58531 0.29649,-0.9431 0.52355,-0.9431 0.31213,0 0.36584,1.12613 0.36584,7.67049 0,6.54436 -0.0537,7.67049 -0.36584,7.67049 -0.22836,0 -0.42236,-0.35443 -0.51623,-0.94309 -0.5075,-3.18266 -1.0357,-4.38765 -2.20296,-5.02557 -0.69756,-0.38123 -1.6439,-0.45568 -6.66026,-0.52397 l -5.84718,-0.0796 v 9.43128 c 0,5.38512 0.10308,9.70239 0.24027,10.06322 0.13214,0.34757 0.55144,0.83592 0.93176,1.08521 0.6134,0.40207 1.31766,0.45326 6.23564,0.45326 h 5.54414 l 1.58773,-0.73308 c 0.97367,-0.44956 1.92872,-1.13043 2.46938,-1.76044 0.76981,-0.89704 2.22464,-3.61417 3.07486,-5.74282 0.30519,-0.76408 1.16243,-0.99157 0.94769,-0.25149 -0.0702,0.24206 -0.55107,2.73182 -1.06851,5.53281 l -0.94081,5.0927 h -13.66068 c -13.2962,0 -13.66068,-0.0129 -13.66068,-0.48215 z"
     id="path1153"
     transform="scale(1.05)" />
  <path
     style="fill:#ffffff;stroke-width:0.251491"
     d="m 234.03309,123.84469 c -7.30138,-1.22257 -12.58973,-8.63622 -13.74617,-19.27054 -0.60252,-5.540572 0.13025,-12.364627 1.78879,-16.658433 2.13046,-5.515574 6.31298,-10.027133 10.53566,-11.364502 2.69291,-0.852875 5.15485,-0.733971 8.34484,0.403028 1.43725,0.512277 2.98396,0.989684 3.43713,1.060905 0.77052,0.121098 0.85205,0.06209 1.25745,-0.910159 0.32705,-0.784313 0.55705,-1.022884 0.9365,-0.971378 0.47105,0.06394 0.52936,0.41957 0.91847,5.601085 0.22852,3.043046 0.48469,6.304788 0.56928,7.248317 0.14948,1.667448 0.13813,1.713243 -0.40517,1.634694 -0.46432,-0.06713 -0.61074,-0.336306 -0.8648,-1.589761 -0.75106,-3.705605 -2.52864,-7.36257 -4.40104,-9.05417 -2.91945,-2.63755 -7.20104,-2.938668 -10.90663,-0.767048 -3.77374,2.211557 -6.66849,8.64214 -7.43408,16.514568 -0.77597,7.979064 0.52891,15.350274 3.52475,19.911214 4.61233,7.02191 11.78636,8.1808 17.26095,2.78831 0.86021,-0.84731 1.8729,-2.00731 2.25042,-2.57779 0.72958,-1.10247 1.04974,-1.26808 1.2819,-0.66308 0.24656,0.64253 -1.03613,2.45041 -3.23914,4.56539 -2.46023,2.36191 -4.90815,3.70545 -7.48285,4.10694 -1.82091,0.28395 -1.88595,0.28381 -3.62626,-0.008 z"
     id="path1192"
     transform="scale(1.05)" />
  <path
     style="fill:#ffffff;stroke-width:0.251491"
     d="m 249.22795,122.65236 c 0,-0.34982 0.3352,-0.5219 1.47538,-0.7574 1.84381,-0.38083 2.64444,-1.09822 3.15885,-2.83041 0.34338,-1.1563 0.3956,-3.66035 0.3956,-18.97098 0,-15.310637 -0.0522,-17.814686 -0.3956,-18.970983 -0.51441,-1.732194 -1.31504,-2.449583 -3.15885,-2.830416 -1.14018,-0.235501 -1.47538,-0.407578 -1.47538,-0.7574 0,-0.430183 0.66017,-0.452665 13.29214,-0.452665 h 13.29214 l 0.16265,1.924129 c 0.29255,3.460911 0.20417,7.12956 -0.17176,7.12956 -0.21301,0 -0.48819,-0.707558 -0.75803,-1.949058 -0.50329,-2.315605 -1.26954,-3.770465 -2.30284,-4.372355 -1.20986,-0.704739 -3.67581,-0.967907 -9.08856,-0.969937 -4.61268,-0.0017 -5.11784,0.041 -5.65855,0.478604 l -0.59372,0.480503 -0.0749,8.950423 -0.0749,8.950423 h 5.61725 c 5.32687,0 5.67497,-0.02925 6.73363,-0.565855 1.40834,-0.713845 1.93379,-1.631911 2.31873,-4.051276 0.24785,-1.557745 0.39026,-1.921645 0.75203,-1.921645 0.41779,0 0.44629,0.497807 0.44629,7.796233 0,7.298425 -0.0285,7.796235 -0.44629,7.796235 -0.36086,0 -0.50347,-0.35942 -0.74504,-1.87772 -0.41155,-2.58663 -1.04127,-3.73901 -2.32356,-4.25208 -0.83775,-0.3352 -2.04198,-0.40898 -6.6756,-0.40898 h -5.65347 l 0.0142,9.11656 c 0.01,6.36967 0.10464,9.38178 0.31436,9.99679 0.47429,1.3908 1.43448,1.7112 5.70724,1.90443 6.15141,0.27819 9.34632,-0.50594 11.15956,-2.7389 0.90744,-1.11749 2.40112,-3.9499 2.90872,-5.51569 0.2794,-0.86188 1.0212,-1.33752 1.0212,-0.6548 0,0.25922 -1.59146,8.82723 -1.89673,10.21147 l -0.12478,0.56586 h -13.57575 c -12.90506,0 -13.57574,-0.0224 -13.57574,-0.45267 z"
     id="path1231"
     transform="scale(1.05)" />
  <path
     style="fill:#ffffff;stroke-width:0.251491"
     d="m 294.62214,103.93925 c -7.63186,-14.293918 -10.4255,-19.312067 -10.75125,-19.31221 -0.4138,-1.82e-4 -0.43938,0.800404 -0.42777,13.391722 0.0125,13.558228 0.21947,19.363018 0.75537,21.185208 0.36786,1.25081 1.7353,2.57139 2.88618,2.7873 0.63034,0.11825 0.87295,0.29578 0.87295,0.63876 0,0.44807 -0.25657,0.475 -4.52684,0.475 -4.20519,0 -4.52685,-0.0324 -4.52685,-0.45641 0,-0.27074 0.34516,-0.621 0.84849,-0.86102 0.57815,-0.2757 1.03889,-0.79134 1.44608,-1.6184 l 0.59758,-1.21378 0.0706,-18.53933 0.0706,-18.539336 -0.77562,-1.536498 c -0.47662,-0.944178 -1.06069,-1.698683 -1.51509,-1.957214 -0.40671,-0.231394 -0.74019,-0.622595 -0.74107,-0.869335 -0.001,-0.407063 0.24756,-0.442006 2.68813,-0.377237 l 2.68971,0.07138 9.44772,17.397793 c 5.19624,9.568787 9.53126,17.481337 9.63336,17.583437 0.29734,0.29734 0.21916,-28.211672 -0.0825,-30.077148 -0.39786,-2.460564 -0.83542,-3.05146 -2.69329,-3.637118 -1.15183,-0.363092 -1.56544,-0.61227 -1.56544,-0.943092 0,-0.415176 0.34676,-0.449617 4.52685,-0.449617 4.32303,0 4.52684,0.02212 4.52684,0.491214 0,0.338618 -0.34337,0.643105 -1.10534,0.980157 -1.79481,0.793932 -1.74827,0.208427 -1.90297,23.939514 l -0.13533,20.75828 z"
     id="path1270"
     transform="scale(1.05)" />
  <path
     style="fill:#ffffff;stroke-width:0.251491"
     d="m 316.12466,122.60204 c 0,-0.36175 0.16766,-0.50298 0.5971,-0.50298 0.82804,0 2.67362,-0.67959 3.26216,-1.2012 0.26901,-0.23842 0.72732,-0.94276 1.01846,-1.5652 0.52182,-1.11563 0.53038,-1.41007 0.60241,-20.721722 l 0.0731,-19.590006 -3.21672,0.147213 c -1.76919,0.08097 -3.6442,0.273347 -4.16668,0.427509 -2.02953,0.598828 -3.3635,2.468486 -4.09012,5.732582 -0.20664,0.928278 -0.43249,1.942414 -0.50188,2.253634 -0.0806,0.361581 -0.31214,0.565856 -0.64131,0.565856 -0.37048,0 -0.4801,-0.123589 -0.39037,-0.44011 0.0686,-0.24206 0.20256,-2.731825 0.29762,-5.53281 l 0.17285,-5.0927 h 14.02707 14.02707 l 0.15855,4.715463 c 0.0872,2.593505 0.20553,5.083269 0.26294,5.53281 0.0861,0.674334 0.02,0.817347 -0.37798,0.817347 -0.29818,0 -0.52673,-0.21608 -0.59851,-0.565856 -1.04404,-5.087249 -1.78625,-6.63565 -3.64031,-7.59442 -1.00595,-0.5202 -3.54561,-0.889289 -6.13438,-0.891514 l -2.21075,-0.0019 0.0831,19.427708 c 0.0653,15.260546 0.15448,19.642856 0.41581,20.430736 0.50524,1.52327 1.77076,2.56902 3.55488,2.93752 1.16148,0.2399 1.4994,0.41172 1.4994,0.76236 0,0.42512 -0.42858,0.45267 -7.04176,0.45267 -6.87409,0 -7.04175,-0.012 -7.04175,-0.50299 z"
     id="path1309"
     transform="scale(1.05)" />
  <path
     style="fill:#ffffff;stroke-width:0.251491"
     d="m 350.65574,123.8676 c -3.98068,-0.61326 -6.7745,-3.65714 -8.09462,-8.81913 -0.86012,-3.36325 -1.03584,-6.89025 -1.03584,-20.790961 0,-14.171184 -0.0223,-14.467776 -1.15987,-15.446041 -0.26115,-0.224573 -0.89921,-0.54457 -1.41791,-0.711105 -0.65775,-0.211178 -0.9431,-0.449073 -0.9431,-0.78627 0,-0.463006 0.24568,-0.483479 5.8018,-0.483479 h 5.80179 l -0.0804,0.555614 c -0.0606,0.418943 -0.31896,0.604936 -1.05033,0.756126 -1.38803,0.286939 -2.35434,0.930331 -2.72888,1.816957 -0.25412,0.601577 -0.32502,4.225654 -0.32502,16.613376 0,17.721503 0.0193,17.953663 1.78852,21.490083 1.41103,2.82049 3.37212,4.08272 6.3502,4.08724 2.64104,0.004 4.39956,-0.93475 5.93954,-3.17073 2.39644,-3.47953 2.72082,-6.58593 2.60238,-24.921507 -0.0722,-11.175917 -0.13527,-12.939305 -0.49023,-13.70628 -0.51142,-1.105025 -1.44917,-1.980761 -2.38839,-2.230438 -0.47774,-0.127002 -0.75211,-0.381586 -0.80562,-0.747549 l -0.0812,-0.554959 12.65573,0.150696 c 7.0604,0.08407 13.26708,0.267138 14.03852,0.41407 5.44181,1.036469 8.41927,4.670705 8.73651,10.663616 0.32893,6.213656 -2.32199,10.11758 -8.17025,12.032071 -0.72618,0.23773 -1.32033,0.52605 -1.32033,0.64073 0,0.11467 1.99161,4.49096 4.42581,9.72508 4.79585,10.31224 5.16421,10.89306 7.26481,11.45489 0.81934,0.21914 1.13544,0.43116 1.13544,0.7616 0,0.4239 -0.25433,0.45272 -3.42294,0.38795 l -3.42293,-0.07 -4.85718,-10.81413 -4.85718,-10.81413 -0.83645,-0.0845 c -0.46005,-0.0465 -1.54377,-0.009 -2.40827,0.0829 l -1.57182,0.16735 v 7.98206 c 0,9.08011 0.13106,9.9888 1.63053,11.30536 0.82235,0.72202 2.23302,1.29032 3.21068,1.29344 0.27198,7.5e-4 0.44011,0.19355 0.44011,0.50438 0,0.49033 -0.16766,0.50299 -6.66452,0.50299 -6.26495,0 -6.66452,-0.0273 -6.66452,-0.45544 0,-0.33412 0.32545,-0.53885 1.22178,-0.76857 1.57359,-0.4033 2.66368,-1.52058 3.09977,-3.17709 0.48669,-1.84873 0.48196,-35.966189 -0.005,-37.580382 -0.4427,-1.466857 -1.44559,-2.361181 -3.21097,-2.863388 -1.36596,-0.388581 -1.49657,-0.385317 -2.5094,0.06271 -1.13136,0.500452 -1.70404,1.178531 -2.16513,2.563621 -0.18727,0.562527 -0.34326,5.88802 -0.46316,15.811941 -0.16548,13.696848 -0.22376,15.155368 -0.68836,17.227158 -0.96641,4.3095 -2.22455,6.61344 -4.52305,8.28269 -1.97509,1.43439 -5.02254,2.08427 -7.78092,1.65932 z m 31.93049,-25.025747 c 2.0931,-0.441101 4.46775,-1.67482 5.51126,-2.863306 0.43068,-0.490521 1.07743,-1.519462 1.43722,-2.286535 0.60337,-1.286402 0.65415,-1.658259 0.65415,-4.789812 0,-3.213456 -0.0389,-3.479402 -0.72727,-4.969922 -0.85105,-1.84278 -2.16782,-3.128194 -4.1201,-4.021979 -2.83799,-1.299276 -7.79942,-1.395632 -9.01987,-0.175176 l -0.59351,0.593508 v 9.605143 9.605144 l 2.57779,-0.169135 c 1.41778,-0.09302 3.34393,-0.330593 4.28033,-0.52793 z"
     id="path1348"
     transform="scale(1.05)" />
  <path
     style="fill:#ffffff;stroke-width:0.251491"
     d="m 241.68321,176.85481 c -4.11367,-1.40762 -7.01939,-4.154 -9.37252,-8.85857 -3.7834,-7.5641 -3.88629,-20.32751 -0.22681,-28.13664 1.21663,-2.59621 2.22324,-4.09654 4.05325,-6.04124 4.21416,-4.47828 9.13533,-5.5357 15.10275,-3.24515 2.95302,1.1335 3.3279,1.10283 3.92278,-0.32092 0.22531,-0.53923 0.53271,-0.85998 0.8242,-0.85998 0.53422,0 0.51709,-0.12633 1.18852,8.76489 0.36214,4.79544 0.37298,5.65386 0.0738,5.84332 -0.1929,0.12214 -0.41284,0.22381 -0.48876,0.22593 -0.0759,0.002 -0.3902,-1.09957 -0.6984,-2.44819 -1.14348,-5.00368 -3.53143,-8.60727 -6.62305,-9.99471 -1.38564,-0.62184 -1.75105,-0.67881 -3.74292,-0.58358 -1.9237,0.092 -2.45096,0.22593 -4.10288,1.04234 -2.31801,1.14563 -3.77947,2.71826 -5.18084,5.57496 -1.81941,3.70889 -2.63015,7.04125 -3.04077,12.49844 -0.47798,6.35237 0.41262,12.5561 2.39391,16.67537 1.73661,3.61055 4.66853,6.56504 7.61772,7.67636 2.02546,0.76324 5.36016,0.62964 7.35373,-0.29461 1.88129,-0.8722 3.89897,-2.58494 5.39948,-4.5834 1.07655,-1.43383 1.29912,-1.6154 1.60508,-1.30945 0.30596,0.30596 0.27403,0.48885 -0.23025,1.31894 -0.90836,1.49522 -3.97355,4.57756 -5.62446,5.65592 -3.04463,1.98873 -6.92646,2.52133 -10.20354,1.39997 z"
     id="path1387"
     transform="scale(1.05)" />
  <path
     style="fill:#ffffff;stroke-width:0.251491"
     d="m 266.32936,176.19054 c 0,-0.37713 0.2835,-0.54293 1.30171,-0.7613 1.87293,-0.40167 2.94645,-1.15503 3.57145,-2.5063 0.52777,-1.14105 0.53475,-1.38116 0.60693,-20.87286 l 0.073,-19.71852 -3.09092,0.15824 c -1.7,0.087 -3.66134,0.3284 -4.35853,0.53639 -2.04649,0.61052 -3.29663,2.35277 -4.02044,5.60307 -0.20858,0.93661 -0.43601,1.95756 -0.5054,2.26878 -0.0809,0.3629 -0.31203,0.56586 -0.64435,0.56586 -0.42977,0 -0.49554,-0.11799 -0.38553,-0.6916 0.0729,-0.38039 0.2082,-2.87015 0.30054,-5.53281 l 0.1679,-4.84121 h 14.02869 14.02868 l 0.15368,3.458 c 0.0845,1.90191 0.21519,4.39167 0.29037,5.53281 0.12825,1.9466 0.10591,2.07481 -0.36157,2.07481 -0.40596,0 -0.55096,-0.26791 -0.78265,-1.44608 -0.41498,-2.11026 -1.17703,-4.30986 -1.82507,-5.26801 -1.04888,-1.55077 -3.72048,-2.31287 -8.17449,-2.33184 l -1.82331,-0.008 0.005,18.29599 c 0.003,10.62192 0.10861,19.01268 0.25204,20.00466 0.45494,3.14639 1.59005,4.37628 4.45844,4.83073 0.82576,0.13083 1.06884,0.27871 1.06884,0.65022 0,0.46226 -0.27749,0.48088 -7.1675,0.48088 -6.89658,0 -7.16751,-0.0182 -7.16751,-0.48215 z"
     id="path1426"
     transform="scale(1.05)" />
  <path
     style="fill:#ffffff;stroke-width:0.251491"
     d="m 288.20911,176.18969 c 0,-0.34176 0.23901,-0.53361 0.81735,-0.65607 1.52171,-0.32222 2.67303,-1.15515 3.26936,-2.36523 l 0.56588,-1.14829 0.0725,-17.83257 c 0.0519,-12.75651 -0.0101,-18.23049 -0.2177,-19.23046 -0.37583,-1.81033 -1.37292,-2.84593 -3.18705,-3.31009 -0.98236,-0.25135 -1.32033,-0.45441 -1.32033,-0.79327 0,-0.43011 0.44391,-0.45519 7.98485,-0.45107 8.92106,0.005 10.35758,0.17568 12.90715,1.53459 4.00302,2.13358 6.05842,6.83657 5.34604,12.23233 -0.603,4.56728 -3.20637,7.641 -7.75342,9.15422 -0.96824,0.32222 -1.79316,0.60041 -1.83315,0.6182 -0.04,0.0178 1.97523,4.43215 4.47827,9.8097 4.94641,10.62692 5.24197,11.09026 7.42492,11.63993 0.86276,0.21725 1.12132,0.39914 1.12132,0.78881 0,0.48637 -0.13662,0.50369 -3.44342,0.43649 l -3.44342,-0.07 -4.90058,-10.93987 c -2.69533,-6.01693 -4.91648,-10.96649 -4.93589,-10.99901 -0.0194,-0.0325 -1.14009,0.0134 -2.4904,0.10214 l -2.4551,0.16127 0.0919,8.32282 c 0.0812,7.35847 0.14486,8.4463 0.54929,9.38846 0.61575,1.43448 1.83905,2.45244 3.396,2.82594 0.98646,0.23665 1.28473,0.41915 1.28473,0.7861 0,0.45752 -0.28427,0.4779 -6.66453,0.4779 -6.40495,0 -6.66452,-0.0188 -6.66452,-0.483 z m 15.46672,-24.0389 c 3.38196,-0.89047 5.65348,-2.70198 6.69577,-5.3398 0.7714,-1.95223 0.84592,-6.7721 0.1362,-8.808 -1.38594,-3.97567 -6.34287,-6.40689 -11.50169,-5.64121 -1.85595,0.27547 -2.13896,0.46333 -2.53559,1.68312 -0.09,0.27664 -0.17483,4.62271 -0.18861,9.65794 l -0.0251,9.15496 2.95502,-0.15485 c 1.62526,-0.0852 3.63405,-0.33364 4.46397,-0.55216 z"
     id="path1465"
     transform="scale(1.05)" />
  <path
     style="fill:#ffffff;stroke-width:0.251491"
     d="m 329.42969,176.9499 c -5.00222,-1.6004 -8.87114,-7.12054 -10.53876,-15.03663 -0.68158,-3.23542 -0.93968,-10.02895 -0.51825,-13.64105 1.0191,-8.73475 4.67243,-15.43474 9.77795,-17.93221 1.60112,-0.78322 1.8166,-0.82195 4.57246,-0.82195 2.77923,0 2.95771,0.0329 4.57153,0.84292 2.82877,1.41982 5.71323,4.73039 7.35393,8.4403 3.64266,8.2367 3.49265,21.74268 -0.32985,29.69794 -2.2948,4.77586 -4.68087,7.19693 -8.29169,8.41332 -1.91463,0.645 -4.64966,0.66048 -6.59732,0.0374 z m 5.59081,-1.45973 c 1.89045,-0.59975 4.30824,-3.03859 5.55934,-5.60775 2.07275,-4.25643 2.96826,-9.18462 2.96964,-16.34263 10e-4,-7.67174 -0.80481,-12.27071 -2.89389,-16.50631 -1.3382,-2.71321 -2.85246,-4.4889 -4.70126,-5.5129 -1.16011,-0.64255 -1.60441,-0.74412 -3.23124,-0.73869 -1.54767,0.005 -2.11673,0.12679 -3.17071,0.67765 -3.60081,1.88197 -6.48931,7.72838 -7.36573,14.90844 -0.35603,2.91682 -0.35603,11.16669 0,14.08352 1.33196,10.91211 6.5538,17.03105 12.83385,15.03867 z"
     id="path1504"
     transform="scale(1.05)" />
  <path
     style="fill:#ffffff;stroke-width:0.251491"
     d="m 363.65652,157.50902 c -5.74029,-10.75632 -10.58285,-19.55898 -10.76125,-19.56147 -0.49026,-0.007 -0.32389,33.43415 0.17264,34.70128 0.49341,1.25915 1.65886,2.39708 2.80753,2.74123 0.71541,0.21434 0.99082,0.43386 0.99082,0.78974 0,0.47127 -0.19857,0.49289 -4.52685,0.49289 -4.28079,0 -4.52684,-0.026 -4.52684,-0.47814 0,-0.2813 0.36816,-0.69537 0.89428,-1.00578 0.5812,-0.34292 1.08745,-0.94592 1.44607,-1.72241 0.55013,-1.19115 0.55201,-1.25105 0.62244,-19.75536 l 0.0706,-18.56059 -0.80232,-1.5053 c -0.44127,-0.82792 -1.12379,-1.69521 -1.51671,-1.92731 -0.39291,-0.2321 -0.71439,-0.62778 -0.71439,-0.87927 0,-0.41792 0.23092,-0.45113 2.68356,-0.38589 l 2.68355,0.0714 9.02526,16.59843 c 4.96389,9.12914 9.29914,17.1077 9.63389,17.73014 l 0.60863,1.13172 -0.0572,-15.59247 c -0.0561,-15.28333 -0.0678,-15.61526 -0.58916,-16.74229 -0.51838,-1.12056 -1.69744,-1.99382 -2.69204,-1.99382 -0.71746,0 -1.17714,-0.30513 -1.17714,-0.78138 0,-0.45001 0.25564,-0.47607 4.67008,-0.47607 4.65725,0 4.66986,0.001 4.58972,0.54892 -0.0521,0.35596 -0.32914,0.61505 -0.78805,0.73703 -0.89654,0.23829 -1.40576,0.66111 -1.77056,1.47012 -0.2061,0.45707 -0.32397,6.80046 -0.41391,22.27534 l -0.12574,21.63627 z"
     id="path1543"
     transform="scale(1.05)" />
  <path
     style="fill:#ffffff;stroke-width:0.251491"
     d="m 384.02733,176.20028 c 0,-0.39655 0.31224,-0.51885 1.94449,-0.76162 2.83232,-0.42126 3.6189,-0.87885 4.14714,-2.4126 0.39672,-1.15187 0.42839,-2.83069 0.37724,-19.99356 -0.0524,-17.569 -0.0843,-18.78826 -0.51266,-19.57327 -0.51502,-0.94383 -1.47465,-1.42718 -3.31555,-1.67 -2.39282,-0.31561 -2.64066,-0.40083 -2.64066,-0.90795 0,-0.46643 0.28037,-0.483 8.17347,-0.483 8.0058,0 8.17346,0.0103 8.17346,0.50298 0,0.27664 -0.0849,0.50522 -0.18861,0.50796 -0.96437,0.0255 -3.76427,0.57431 -4.56564,0.89495 -0.8278,0.33122 -1.08553,0.60956 -1.45791,1.57452 -0.42064,1.09 -0.45236,2.45925 -0.45236,19.53105 0,17.23562 0.0284,18.43237 0.46352,19.56028 0.57346,1.48637 1.59245,2.07241 4.30491,2.47584 1.58745,0.2361 1.89609,0.35891 1.89609,0.75442 0,0.45253 -0.34397,0.47241 -8.17346,0.47241 -7.8295,0 -8.17347,-0.0199 -8.17347,-0.47241 z"
     id="path1582"
     transform="scale(1.05)" />
  <path
     style="fill:#ffffff;stroke-width:0.251491"
     d="m 420.2684,177.02917 c -2.23153,-0.60009 -3.80635,-1.60362 -6.07054,-3.86839 -2.40845,-2.40905 -3.95829,-5.05357 -5.10523,-8.71115 -1.90388,-6.07141 -1.91606,-15.48927 -0.0278,-21.47783 1.56152,-4.95232 4.44674,-9.14165 7.85552,-11.40625 2.29496,-1.52463 4.32114,-2.17399 6.7718,-2.17025 2.17173,0.003 3.50818,0.30578 6.47446,1.46535 1.80813,0.70682 2.05628,0.74762 2.55593,0.42024 0.30436,-0.19942 0.62879,-0.70594 0.72096,-1.12558 0.20493,-0.93306 1.05952,-1.06855 1.24341,-0.19714 0.0657,0.31122 0.29624,3.05562 0.51236,6.09866 0.21612,3.04305 0.45596,6.05495 0.53299,6.69313 0.12371,1.02493 0.079,1.17626 -0.38287,1.29706 -0.41265,0.10791 -0.55319,-0.004 -0.6665,-0.53159 -1.31238,-6.10881 -3.5232,-9.96819 -6.67257,-11.64817 -0.95588,-0.5099 -1.45745,-0.58876 -3.74438,-0.58876 -2.46876,0 -2.7494,0.0532 -4.31101,0.8172 -3.93719,1.92624 -6.84445,7.08518 -8.04296,14.27228 -0.52282,3.13514 -0.45844,12.04597 0.10596,14.66757 1.37798,6.40065 4.55482,11.2744 8.66431,13.29238 1.32049,0.64842 1.68618,0.71007 4.21242,0.71007 2.57273,0 2.87145,-0.0528 4.2667,-0.75448 1.75355,-0.88183 4.23895,-3.11622 5.44661,-4.89652 0.46713,-0.68862 0.92658,-1.25497 1.021,-1.25853 0.0944,-0.004 0.24704,0.23097 0.33916,0.5212 0.38719,1.21994 -3.71524,5.67212 -6.6851,7.25504 -0.85567,0.45607 -2.13651,0.98385 -2.84632,1.17285 -1.65288,0.44011 -4.43287,0.4183 -6.16832,-0.0484 z"
     id="path1621"
     transform="scale(1.05)" />
  <path
     style="fill:#ffffff;stroke-width:0.251491"
     d="m 405.40409,122.60204 c 0,-0.37971 0.1695,-0.50433 0.6916,-0.5085 0.91484,-0.007 2.5673,-0.78585 3.25406,-1.53312 0.92316,-1.00452 1.07157,-2.4773 1.07802,-10.69816 l 0.006,-7.8357 -3.66884,-8.511236 c -5.6237,-13.046263 -6.84079,-15.175762 -8.67353,-15.175762 -0.61653,0 -0.73518,-0.101469 -0.73518,-0.628728 v -0.628728 h 5.65855 5.65856 v 0.628728 c 0,0.505109 -0.12521,0.628728 -0.63681,0.628728 -1.92932,0 -3.30175,1.374681 -3.03539,3.040388 0.20252,1.266482 7.71991,18.168494 7.96191,17.901481 0.4446,-0.490539 7.32595,-16.837092 7.51593,-17.853977 0.37409,-2.00242 -0.32226,-3.087892 -1.98094,-3.087892 -0.65475,0 -0.77101,-0.09481 -0.77101,-0.628728 v -0.628728 h 4.52684 4.52685 v 0.596585 c 0,0.499582 -0.1604,0.622235 -0.98648,0.75433 -2.07756,0.332217 -2.67695,1.381777 -8.16595,14.299201 l -3.92512,9.237088 v 8.0073 c 0,8.63942 0.16085,9.98824 1.31578,11.03354 0.67345,0.60952 1.99292,1.08891 2.9971,1.08891 0.54928,0 0.71695,0.11763 0.71695,0.50298 0,0.49033 -0.16767,0.50299 -6.66453,0.50299 -6.49686,0 -6.66452,-0.0126 -6.66452,-0.50299 z"
     id="path1660"
     transform="scale(1.05)" />
  <path
     style="fill:#ffffff;stroke-width:0.251491"
     d="m 441.00163,176.86131 c -0.0681,-0.31122 -0.41615,-3.05562 -0.77345,-6.09867 -0.3573,-3.04304 -0.7143,-5.9572 -0.79334,-6.4759 -0.13191,-0.86573 -0.0947,-0.94307 0.4543,-0.94274 0.51731,2.5e-4 0.6593,0.21237 1.05232,1.57182 1.30072,4.49915 4.12253,8.55269 6.89968,9.91143 1.98214,0.96976 5.10291,1.12173 7.1541,0.34836 1.68748,-0.63624 3.57941,-2.33536 4.63372,-4.16148 0.67459,-1.16841 0.726,-1.44472 0.726,-3.90203 0,-2.49712 -0.0475,-2.74115 -0.85187,-4.37635 -1.17565,-2.38996 -3.84825,-4.98824 -9.58502,-9.31848 -5.37259,-4.05535 -6.75302,-5.39508 -7.84551,-7.61424 -0.68776,-1.39704 -0.80373,-1.93228 -0.90318,-4.1684 -0.1993,-4.48124 0.81862,-7.36051 3.47001,-9.81524 2.07528,-1.92134 3.70709,-2.51145 6.53613,-2.36365 1.76663,0.0923 2.586,0.29292 4.72052,1.15584 3.54767,1.4342 4.06755,1.38559 4.45303,-0.41638 0.14266,-0.66683 0.28558,-0.81647 0.72065,-0.75447 0.52094,0.0742 0.56457,0.3193 1.08849,6.11312 0.7111,7.86394 0.71178,7.92198 0.0926,7.92198 -0.50043,0 -0.51877,-0.044 -1.28553,-3.08077 -0.47554,-1.88342 -2.16977,-5.04971 -3.49057,-6.52343 -1.8745,-2.09153 -3.54484,-2.84525 -6.29922,-2.84245 -1.56133,0.002 -2.35712,0.12151 -2.95163,0.44481 -1.37221,0.74623 -2.58108,1.96103 -3.28661,3.30275 -0.58473,1.11197 -0.67344,1.57806 -0.67545,3.5488 -0.002,2.06084 0.0737,2.42317 0.82756,3.95444 1.20704,2.45185 2.68879,3.91822 8.79394,8.70268 5.55493,4.35326 6.74853,5.51414 8.27457,8.04771 4.28084,7.10717 0.76232,16.33158 -6.91992,18.14177 -2.27298,0.53559 -4.84558,0.23569 -7.45759,-0.86937 -1.24488,-0.52667 -2.68932,-1.01044 -3.20986,-1.07504 -1.19501,-0.14831 -2.0954,0.40891 -2.32108,1.43644 -0.20486,0.93273 -1.05739,1.06742 -1.24782,0.19714 z"
     id="path1699"
     transform="scale(1.05)" />
  <path
     style="fill:#ffffff;stroke-width:0.251491"
     d="m 480.3789,210.34053 c -0.74406,-0.12359 -2.11366,-0.4893 -3.04356,-0.81268 -5.51699,-1.91862 -8.56229,-6.58019 -8.5517,-13.09044 0.007,-4.21352 1.08936,-7.19546 3.57781,-9.85562 2.68924,-2.87481 6.6186,-4.36305 11.54304,-4.37192 2.91307,-0.005 5.82015,0.51229 8.67002,1.54349 l 2.10902,0.76313 v 2.12873 c 0,1.63622 -0.0727,2.08497 -0.31436,1.93958 -0.17291,-0.10404 -0.88022,-0.54254 -1.57183,-0.97445 -2.83567,-1.7709 -5.48341,-2.47853 -9.30518,-2.48688 -5.29732,-0.0116 -8.76384,2.29911 -10.33675,6.89019 -0.71522,2.08762 -0.66842,6.60597 0.0912,8.8022 1.54277,4.46066 5.19997,6.79027 10.65991,6.79027 2.38564,0 5.86261,-0.52935 6.81107,-1.03695 0.39317,-0.21042 0.44509,-0.64785 0.44509,-3.75024 v -3.51203 h -3.89812 -3.89811 v -1.50895 -1.50894 h 5.66311 5.6631 l -0.0674,5.97037 -0.0674,5.97038 -2.45255,0.83211 c -4.35548,1.47773 -8.08157,1.88403 -11.72633,1.27865 z"
     id="path1738"
     transform="scale(1.05)" />
  <path
     style="fill:#ffffff;stroke-width:0.251491"
     d="m 430.55323,196.41476 v -13.70628 h 9.55667 9.55667 v 1.50895 1.50895 h -7.79623 -7.79623 v 3.89811 3.89812 h 7.79623 7.79623 v 1.50895 1.50895 h -7.79623 -7.79623 v 5.28132 5.28132 h 7.79623 7.79623 v 1.50894 1.50895 h -9.55667 -9.55667 z"
     id="path1777"
     transform="scale(1.05)" />
  <path
     style="fill:#ffffff;stroke-width:0.251491"
     d="m 399.87128,196.41476 v -13.70628 h 1.88619 1.88618 v 5.40707 5.40706 h 7.419 7.41899 v -5.40706 -5.40707 h 1.88619 1.88618 v 13.70628 13.70628 h -1.88618 -1.88619 v -6.79027 -6.79026 h -7.41899 -7.419 v 6.79026 6.79027 h -1.88618 -1.88619 z"
     id="path1816"
     transform="scale(1.05)" />
  <path
     style="fill:#ffffff;stroke-width:0.251491"
     d="m 381.51241,197.92371 v -12.19733 h -5.28132 -5.28132 v -1.50895 -1.50895 h 12.44883 12.44882 v 1.50895 1.50895 h -5.28132 -5.28132 v 12.19733 12.19733 h -1.88618 -1.88619 z"
     id="path1855"
     transform="scale(1.05)" />
  <path
     style="fill:#ffffff;stroke-width:0.251491"
     d="m 337.24993,196.41476 v -13.70628 h 9.30518 9.30518 v 1.50895 1.50895 h -7.41899 -7.419 v 4.02386 4.02386 h 6.41303 6.41303 v 1.50895 1.50895 h -6.41303 -6.41303 v 6.66452 6.66452 h -1.88618 -1.88619 z"
     id="path1894"
     transform="scale(1.05)" />
  <path
     style="fill:#ffffff;stroke-width:0.251491"
     d="m 313.19402,210.14119 c -2.19379,-0.59515 -3.42256,-1.20447 -4.88307,-2.42142 -2.51148,-2.09265 -4.14018,-5.41828 -4.47675,-9.14105 -0.91698,-10.14257 4.20624,-16.39937 13.42217,-16.39197 4.20133,0.003 7.25844,1.12918 9.71574,3.57793 2.5501,2.54121 3.72892,5.89719 3.73533,10.63401 0.006,4.54385 -1.10631,7.75458 -3.60058,10.3919 -2.441,2.58099 -4.90538,3.57897 -9.22177,3.73444 -2.31705,0.0835 -3.24986,0.007 -4.69107,-0.38384 z m 8.33577,-3.26277 c 2.58519,-1.14356 4.56835,-3.90908 5.18899,-7.23606 0.42936,-2.30165 0.15238,-6.70363 -0.5354,-8.50892 -1.05621,-2.77234 -2.8358,-4.63441 -5.33102,-5.57811 -1.70869,-0.64624 -5.72536,-0.56793 -7.55989,0.14737 -2.66789,1.04024 -4.74513,3.71975 -5.43821,7.01494 -0.39824,1.89338 -0.34781,5.97295 0.0948,7.67237 0.79955,3.06969 2.63516,5.42735 5.06105,6.50044 2.25124,0.99583 6.25399,0.99018 8.51965,-0.012 z"
     id="path1933"
     transform="scale(1.05)" />
  <path
     style="fill:#ffffff;stroke-width:0.251491"
     d="m 563.84366,196.41476 v -13.70628 h 9.68241 9.68242 v 1.50895 1.50895 h -7.79623 -7.79623 v 3.89811 3.89812 h 7.79623 7.79623 v 1.50895 1.50895 h -7.79623 -7.79623 v 5.28132 5.28132 h 7.79623 7.79623 v 1.50894 1.50895 h -9.68242 -9.68241 z"
     id="path1972"
     transform="scale(1.05)" />
  <path
     style="fill:#ffffff;stroke-width:0.251491"
     d="m 529.64083,196.41476 v -13.70628 h 2.58495 2.58495 l 3.89095,7.66459 c 2.14003,4.21552 3.9484,7.66724 4.01862,7.67048 0.0702,0.003 1.85242,-3.44581 3.96045,-7.66458 l 3.83279,-7.67049 h 2.6412 2.64119 v 13.70628 13.70628 h -1.88374 -1.88375 l -0.0653,-12.00871 -0.0653,-12.00871 -4.14961,8.17347 -4.14961,8.17346 -1.06104,0.077 -1.06104,0.0769 -4.14377,-8.25042 -4.14377,-8.25042 -0.0136,12.00871 -0.0136,12.00871 h -1.76044 -1.76044 z"
     id="path2011"
     transform="scale(1.05)" />
  <path
     style="fill:#ffffff;stroke-width:0.251491"
     d="m 503.8345,196.41588 5.30978,-13.70517 2.53879,-0.001 2.53879,-0.001 4.85062,12.5117 c 2.66784,6.88143 5.06033,13.04926 5.31665,13.70628 l 0.46603,1.19458 -1.94539,-0.002 -1.94539,-0.002 -1.4162,-3.83315 -1.4162,-3.83316 -6.51025,-0.0669 -6.51025,-0.0669 -0.72285,1.95312 c -0.39757,1.07421 -1.05619,2.83019 -1.46362,3.90217 l -0.74077,1.94906 h -1.82976 -1.82976 z m 12.98027,2.89163 c 0,-0.31163 -4.95142,-13.33506 -5.14257,-13.52622 -0.0763,-0.0763 -0.17548,-0.0916 -0.22037,-0.034 -0.1149,0.1475 -5.1997,13.52923 -5.1997,13.68409 0,0.0698 2.3766,0.12697 5.28132,0.12697 3.34489,0 5.28132,-0.092 5.28132,-0.25089 z"
     id="path2050"
     transform="scale(1.05)" />
  <path
     style="fill:#ffffff;stroke-width:0.251491"
     d="m 144.8544,209.93242 c -0.003,-0.10374 2.34575,-6.26977 5.21845,-13.7023 l 5.22307,-13.51368 2.55972,-0.004 2.55972,-0.004 0.49704,1.32033 c 0.27338,0.72618 2.49997,6.46962 4.94799,12.76319 2.44802,6.29357 4.60405,11.86725 4.79119,12.38595 l 0.34024,0.94309 -1.9379,-0.002 -1.9379,-0.002 -1.4162,-3.83315 -1.4162,-3.83316 -6.51025,-0.0669 -6.51025,-0.0669 -0.72285,1.95312 c -0.39757,1.07421 -1.05619,2.83019 -1.46362,3.90217 l -0.74077,1.94906 h -1.73842 c -0.95614,0 -1.74051,-0.0849 -1.74306,-0.18862 z m 18.11201,-10.63196 c 0,-0.22537 -3.47013,-9.54408 -4.66286,-12.52166 -0.2391,-0.5969 -0.52625,-0.993 -0.63811,-0.88022 -0.17603,0.17746 -5.26167,13.28112 -5.26167,13.55722 0,0.0564 2.3766,0.1026 5.28132,0.1026 3.4413,0 5.28132,-0.0899 5.28132,-0.25794 z"
     id="path2089"
     transform="scale(1.05)" />
  <path
     style="fill:#ffffff;stroke-width:0.251491"
     d="m 175.79247,196.41476 v -13.70628 h 1.88618 1.88619 v 5.40707 5.40706 h 7.419 7.41899 v -5.40706 -5.40707 h 1.88619 1.88618 v 13.70628 13.70628 h -1.88618 -1.88619 v -6.79027 -6.79026 h -7.41899 -7.419 v 6.79026 6.79027 h -1.88619 -1.88618 z"
     id="path2128"
     transform="scale(1.05)" />
  <path
     style="fill:#ffffff;stroke-width:0.251491"
     d="m 206.22293,196.41476 v -13.70628 h 9.68241 9.68242 v 1.50895 1.50895 h -7.79623 -7.79623 v 3.89811 3.89812 h 7.79623 7.79623 v 1.50895 1.50895 h -7.79623 -7.79623 v 5.28132 5.28132 h 7.79623 7.79623 v 1.50894 1.50895 h -9.68242 -9.68241 z"
     id="path2167"
     transform="scale(1.05)" />
  <path
     style="fill:#ffffff;stroke-width:0.251491"
     d="m 229.84086,207.04027 c 0.65586,-1.69442 3.04669,-7.86225 5.31295,-13.70628 l 4.12047,-10.62551 h 2.53543 2.53543 l 4.99699,12.88893 c 2.74835,7.08892 5.14996,13.25674 5.33693,13.70628 l 0.33994,0.81735 h -1.95841 -1.95842 l -0.72134,-1.94906 c -0.39673,-1.07198 -1.05468,-2.82613 -1.4621,-3.89811 l -0.74077,-1.94906 h -6.47622 -6.47621 l -1.45226,3.89812 -1.45225,3.89811 h -1.83632 -1.83631 z m 17.0587,-7.95462 c -0.2859,-1.09328 -5.05194,-13.35919 -5.19052,-13.35835 -0.14118,8.6e-4 -5.30715,13.30342 -5.30715,13.66609 0,0.0908 2.38979,0.16501 5.31065,0.16501 5.07363,0 5.30513,-0.0211 5.18702,-0.47275 z"
     id="path2206"
     transform="scale(1.05)" />
  <path
     style="fill:#ffffff;stroke-width:0.251491"
     d="m 259.79059,196.4202 v -13.76192 l 6.35015,0.11223 c 5.42427,0.0959 6.63083,0.18881 8.27511,0.63738 2.60784,0.71144 4.16861,1.54609 5.9126,3.16188 2.97865,2.75969 4.29472,6.20352 4.03913,10.56943 -0.3615,6.1752 -4.04685,10.62249 -10.16303,12.26423 -1.66072,0.44578 -2.92937,0.54695 -8.18955,0.65309 l -6.22441,0.1256 z m 12.60753,10.32073 c 3.2375,-0.68622 5.94427,-2.5895 7.13034,-5.01375 0.92582,-1.89232 1.3087,-4.90678 0.93144,-7.33341 -0.38893,-2.50172 -0.99231,-3.82836 -2.44995,-5.3867 -2.18717,-2.33826 -4.86993,-3.21061 -10.61175,-3.45062 l -3.83524,-0.16031 v 10.8535 10.85351 l 3.58375,-0.004 c 2.10238,-0.003 4.27309,-0.15048 5.25141,-0.35785 z"
     id="path2245"
     transform="scale(1.05)" />
</svg>
