<?xml version="1.0" encoding="UTF-8" standalone="no"?>
<!-- Generator: Adobe Illustrator 19.0.0, SVG Export Plug-In . SVG Version: 6.00 Build 0)  -->

<svg
   version="1.1"
   id="Capa_1"
   x="0px"
   y="0px"
   viewBox="0 0 2524.8 531"
   style="enable-background:new 0 0 2524.8 531;"
   xml:space="preserve"
   sodipodi:docname="chihiro-w.svg"
   inkscape:version="1.3 (0e150ed6c4, 2023-07-21)"
   xmlns:inkscape="http://www.inkscape.org/namespaces/inkscape"
   xmlns:sodipodi="http://sodipodi.sourceforge.net/DTD/sodipodi-0.dtd"
   xmlns="http://www.w3.org/2000/svg"
   xmlns:svg="http://www.w3.org/2000/svg"><defs
   id="defs1" /><sodipodi:namedview
   id="namedview1"
   pagecolor="#ffffff"
   bordercolor="#111111"
   borderopacity="1"
   inkscape:showpageshadow="0"
   inkscape:pageopacity="0"
   inkscape:pagecheckerboard="1"
   inkscape:deskcolor="#d1d1d1"
   inkscape:zoom="0.2606147"
   inkscape:cx="552.53983"
   inkscape:cy="74.823102"
   inkscape:window-width="1920"
   inkscape:window-height="1027"
   inkscape:window-x="-8"
   inkscape:window-y="760"
   inkscape:window-maximized="1"
   inkscape:current-layer="Capa_1" />&#10;<g
   id="g1">&#10;	<path
   d="M1236.5,0h10.8c4.6,0.9,9.5,2.3,12.6,6.1c3.3,4.2,3.6,10.1,2.3,15.1c-2.2,7.8-7.1,14.6-12.4,20.6   c-11.4,12.7-26.2,21.9-42.1,27.7c-9.9,3.5-20.9,5.8-31.3,3c-5.8-1.4-10.6-6.5-11.1-12.5c-0.4-6.3,1.9-12.4,5.1-17.6   c5.2-8.5,12.4-15.6,20.1-21.8C1203.8,10,1219.7,2.6,1236.5,0 M1780.8,0h11.4c5.4,1.1,11.6,3.5,13.9,9c3.1,7.5,0,15.7-3.9,22.2   c-12.3,19.5-32.7,32.9-54.4,39.7c-8.1,2.4-16.7,3.7-25.1,2.1c-5.4-1.1-10.8-4.6-12.3-10.1c-2.1-7.7,1.3-15.6,5.5-22   C1730.6,18.9,1755,4.6,1780.8,0 M845.7,17.7c18.5-6.1,37.2-12.1,56.3-16c-5.4,19.6-13.5,38.2-21.7,56.7   c-6.8,15.1-13.3,30.3-19.2,45.8c-11.5,29.6-24.6,58.7-39,87c19.4-8.9,39.4-16.9,60.4-21.5c18.5-4.1,37.8-5.3,56.5-2.1   c14.1,1.8,26.9,10.1,35.2,21.5c10.9,14.8,14.9,34,12,52c-2,11-5.4,21.6-8.9,32.2c-10.5,30.7-24.9,59.8-36,90.2   c-3.2,8.4-0.8,17.5-0.1,26.1c-27.5,0.9-55.1,2.5-82.7,1.7c21.3-27,31.6-60.4,45.1-91.5c8.6-20.3,17-41.4,17.7-63.7   c1.1-19.9-14.4-40.9-35.2-41.7c-16-0.7-32.4-0.8-47.9,3.9c-7.2,2.2-14.1,5.4-20.1,10c-1.5,1.1-2.8,2.7-3.5,4.4   c-19.1,47.5-39.4,94.5-59.1,141.8c-1.9,4.5-4.3,8.9-5.3,13.8c-1.7,8.2-0.7,16.7,0.2,25c-27.5,0.1-55,1.2-82.5,1.7   C696.8,353,709.3,303,733,258.5c-28.9,17.7-51,45.2-82.5,58.8c15.2-25.3,34.7-47.9,46.9-74.9c3-6.2,3.6-13.1,6-19.5   c1.6,5.1,1.9,10.5,3.1,15.8c1.1,4.5,4.4,8.8,9.3,9.6c10.4,2,20.9-5.1,24.9-14.6c15.1-33.4,29.4-67.1,43.1-101.1   c5-12.6,9.9-25.1,15.4-37.5c6.9-15,13.4-30.6,15.3-47.1c0.5-2.2-1.7-3.4-3.4-4.1c-7.2-3.1-14.5-5.7-21.6-8.7   C808.3,29.6,827.1,24.1,845.7,17.7 M1390.2,17.2c18.2-6,36.6-11.4,55.2-15.8c-21.7,62.9-50.5,123-75.9,184.5   c31.2-14.7,66-24,100.7-19.6c17.9,1.6,34.4,12.5,44,27.6c7.4,12.5,9.9,27.6,9.3,42c-1.2,21.6-9.6,41.8-18,61.5   c-15.4,33.6-27.4,68.7-42.7,102.3c112.4,0.4,224.8,5.1,337.2,5.6c11-0.1,22,0.8,33,1.3c42.6,2.1,85.3,3,128,3.6   c20.7,0.3,41.4,0.8,62,2.6c50.6,3.2,101.5,1.8,152,6.5c46.1,1.9,92.1,4.1,138.1,7.7c37.7,2.9,75.4,6.2,113,10.9   c30.4,4,61.5,7.3,90.3,18.6c2.3,0.9,4.8,1.7,6.4,3.7c2.9,3.6,2.7,9.5-0.9,12.6c-5.5,4.9-13.1,5.9-20,7.7   c-13.4,3.5-27.1,5.1-40.7,7.1c-94.2,13.4-189.3,17.5-284.1,22.5c-16.3,1-32.6,2.3-49,2.8c-30.6,1.2-61.3,1.6-91.9,2.7   c-22.7,0.5-45.3,2.8-68.1,3.3c-50.7,1.5-101.4,1.7-152.1,3.2c-24.3,0.4-48.6,2.2-73,2.9c-106.7,1.3-213.3,2.1-320,4   c-23.2,0.5-46.4,0.5-69.5,2h-20.1c10.3-11,18.7-23.6,25.4-37.1c12.1-24.1,20.1-50,32.5-73.9c-78.7-3.8-157.6-2.2-236.4-1.6   c-22.7,0.4-45.3,0-68,0.4c-110,4.6-220.2,1.3-330.1,8.2c-65.7-0.3-131.3,5.8-197,7c-97.1,6.2-194.4,10.4-291,22.1   c-32,4.2-64.3,7.4-95.4,16.3c-4.3,1.2-8.4,3.3-11.5,6.6c5.8,7.4,14.4,11.8,22.1,17c-57.4-0.4-115.2-5.8-170.6-21.4   c-4.9-1.3-10.3-2.5-13.6-6.7v-4.7c3.1-4.6,8.8-6,13.8-7.5C73.5,438,136,435.5,197.5,428.7C351.8,417.6,506.3,410.1,661,408   c23.4,0.2,46.7-2.2,70-2.4c28.7-0.5,57.3-0.6,86-0.8c103.7-0.2,207.3-2.7,311-2.5c90.5-4.3,181.1-2.3,271.7-2.7   c12.1-30.6,24.6-61.1,37.8-91.3c6.6-14.8,13.5-29.6,17-45.5c2.5-11.4,4.6-23.2,3-34.9c-1.4-9.8-5.7-19.5-13.6-25.9   c-6.6-5.6-15.4-7.1-23.7-8.3c-19.2-2.1-38.4,2.6-56.5,8.6c-22.8,51-43.1,103-65,154.4c-4,9.8-1.3,20.5,0,30.6   c-29-0.7-58-0.2-87-0.8c8.6-10.9,17.3-21.8,23.6-34.3c3.3-6.3,5.4-13.2,8.1-19.7c10.9-27.7,23.1-54.9,35.8-81.9   c-39.1,30.2-79.2,61.1-106.7,102.9c-4.3,7.2-9.9,14.1-11.2,22.6c3.6,1.9,7.7,0.9,11.5,0.2c16-3.2,30.4-11.1,45.4-17   c-16.2,25.6-47.5,39.2-77.3,37.7c-3.3,0.1-7.1-2.4-6.4-6.1c2.5-14.8,11.3-27.5,20.3-39.2c10.8-13.2,22.6-25.4,34.6-37.4   c23.4-23,46.8-46.3,73.7-65.3c8.7-6.5,18.9-11.7,25-21c3.1-5.2,4.9-11.1,7.4-16.6c12.8-30.9,25-62,38.4-92.6   c5.7-13.2,11.9-26.3,17.4-39.6c3.8-9.6,6.8-19.9,6-30.4c-0.1-2.3-2.5-3.3-4.2-4.1c-6.9-2.8-13.9-5.5-20.8-8.3   C1352.1,31.5,1370.9,23.5,1390.2,17.2 M1453.3,420.7c-11.8,30.9-26,60.9-35.8,92.6c44.1,0.2,88.3-0.4,132.4-1.2   c76.3-4.9,152.8-1.4,229-6.9c91.2-3.4,182.5-7.6,273.2-18.5c17-2,34-4.2,50.7-7.4c9.3-1.9,18.6-4.1,27.2-8.1   c2.4-1.3,5.8-4.8,3.2-7.4c-2.8-3.5-7.4-4.3-11.5-5.5c-40.9-11.6-83.5-15.1-125.8-18.1c-24.4-1.5-48.7-4.1-73.1-5.7   C1766.6,425.3,1609.9,420.3,1453.3,420.7 M402.2,44.2C448.9,24.2,499,10.7,550,9.3c21.8-0.4,43.7,0.8,65,5.7   c18.8,4.9,36,14.2,54.8,19c8.5,2.1,17.3-0.4,25-4.2c11-5.5,20.6-13.5,31.8-18.8c-17.5,45.1-33.1,91.2-57.1,133.4   c-1.4-19.6-2.8-39.6-9.9-58.1c-6.7-18.2-20.8-33.1-37.7-42.3c-14.3-7.8-30.6-11-46.8-12c-14.8-0.7-29.6,0.2-44.3,2.3   c-52.4,10-101.6,34.8-142,69.5c-27,23-49.8,50.8-67.6,81.4c-15.2,26.2-28,54.5-32.2,84.7c-1.8,12.5-2.1,25.3-0.4,37.9   c1.8,13,5.2,26,12.5,37c13.9,21.6,37.2,35.2,61.2,42.6c18.9,5.9,39,7,58.6,4.6c21-2.5,41.5-8.5,61.4-15.4   c31.4-11,61.1-26.7,88.4-45.8c32-22.4,61-48.9,87.5-77.4c9.9-9.4,19.4-19.2,29.3-28.6c-3.4,11.8-9.8,22.4-15.8,33   c-33.4,56.5-83.4,102.6-140.9,133.9c-22.1,11.4-47.7,11.1-71.9,11c-23.7,0.6-47.5,1.1-71.1,2.9c-30.3,2.1-60.6,5-91,4.1   c-5.3-0.1-9.9-3.1-14.6-5.2c-27.2-13-51.4-33.6-65.5-60.5c-11.4-21.8-14.6-47-13.2-71.2c2.1-35.5,15.4-69.7,35.6-98.7   c20.9-30.7,47.4-57.5,77-79.9C342.7,74.2,371.4,56.8,402.2,44.2 M2113,189.2c32.6-16.5,68.2-28.3,105-29.5   c19.1-0.3,38.5-0.5,57.1,4.6c18.2,4.7,35.7,13.3,49.4,26.4c10.4,9.8,19.3,21.6,23.6,35.3c5,16.6,4.3,34.5-0.3,51.1   c-3,11.2-8.2,21.6-14,31.6c-15.1,25.6-36.4,47.3-60.8,64.2c-20,13.7-41.7,24.9-64.2,33.8c-9.8,3.6-20.5,2.5-30.7,1.8   c-45.9-3.8-92-5.9-138.1-5.1c-19.6-14.2-35.6-35-40-59.2c-3.4-18,1.8-36.2,8.6-52.7c14.1-33.4,39.5-61.2,69.1-81.7   C2089,202.1,2100.9,195.4,2113,189.2 M2214.2,189.2c-20.4,2.3-39.5,10.9-57.4,20.6c-30.1,17-56.3,41.7-72.6,72.4   c-8.6,16.1-14.2,34.3-13.2,52.7c0.6,8.7,2.2,17.7,6.7,25.3c5.2,8.9,13.5,15.9,22.9,20.2c16,7.6,34.6,8.7,51.8,4.8   c60.3-12.6,112.3-58.6,132.3-116.9c3.4-11.1,4.4-23,2.2-34.4c-2.5-13.9-10.6-26.7-22.3-34.6   C2250.2,188.9,2231.4,187.1,2214.2,189.2 M1994.9,170.5c7.9-2,15.9-3.4,24-4.1c4.5-0.3,9.7,0.1,12.9,3.7c2.7,3.1,2.7,7.7,1.6,11.5   c-4.9,19.5-18.9,36-36.4,45.6c-15.7,8.6-34.9,11.6-52,5.7c-3.4-1.1-7.7-2.3-8.6-6.2c-1.4-8.6,3.4-16.6,8.1-23.4   c-17,9.4-34.5,17.9-51,28.2c-2.8,1.6-3.1,5.1-4.3,7.7c-15.7,43.2-36.9,84.2-51.8,127.8c-3.1,9,0.3,18.3,1,27.4   c-29.4-1.1-58.9-1.1-88.3-2.4c11.3-10.5,23-22.1,27.3-37.4c16.8-46.8,42.2-90.4,54.3-138.9c-4.9-2.4-9.8-4.9-14.7-7.2   c0-3.4,0.3-6.7,0.5-10.1c33.8-7.4,65.2-22.8,99-30c-4.7,16.2-10.7,32-17.5,47.4C1929.8,198.3,1960.4,179.3,1994.9,170.5    M1095.9,199.4c34.3-9,66.8-23.6,101.5-31.1c-22.1,59.8-47.2,118.4-72.2,177c-2.2,5.4-5.1,10.7-6,16.5c-1.6,8.6-0.4,17.4,0.5,26   c-29,0-58,0.6-86.9,0c11.9-10.4,20-24.3,26.5-38.5c8.5-19.1,15.5-38.8,24.2-57.8c10.7-24.1,22.1-48.5,25.8-74.8   C1104.8,211,1100.2,205.3,1095.9,199.4 M1635,199.6c35.6-8.3,69.2-23.5,104.9-31.2c-23,64.9-53.4,126.8-79,190.6   c-1.7,4.5-4.2,9-4.1,14c0.2,6.3,2.1,12.3,3.2,18.5c-27.7,0.1-55.5,0.6-83.1-2.1c2.9-4.8,6.8-9,9.7-13.8   c11.5-17.7,19.5-37.3,27-56.9c7.1-18.6,14.7-37.1,22.6-55.4c6.4-14.6,12.3-29.4,16.4-44.8C1646.2,212.7,1640.2,206.4,1635,199.6    M2371.7,364.4c9.7-0.1,19.4,0,29.2-0.1c0,2.8,0,5.5,0,8.3c-3.2,0-6.3,0-9.5,0c-0.1,12.8,0,25.6,0,38.4c-3.3,0-6.6,0-9.8,0   c-0.1-12.8,0-25.6,0-38.4c-3.2,0-6.4,0-9.6,0C2371.7,369.9,2371.7,367.2,2371.7,364.4 M2406.4,364.3c2.8,0,5.6,0,8.5,0.1   c4,10.8,7.9,21.5,12,32.3c4.4-10.7,8-21.6,12.2-32.4c2.7,0,5.5,0,8.3,0c-0.3,15.6-0.1,31.2-0.1,46.7c-2,0-4,0-6,0   c-0.1-9.7,0.1-19.5-0.1-29.2c-4.1,9.6-7.3,19.5-11,29.2c-2.1,0-4.1,0-6.1,0.1c-3.9-10-7.5-20.1-11.2-30.2   c-0.3,10.1,0.1,20.1-0.2,30.1c-2,0-4-0.1-6-0.1C2406.5,395.4,2406.6,379.8,2406.4,364.3L2406.4,364.3z"
   id="path1" />&#10;</g>&#10;<path
   style="fill:#ffffff;stroke-width:1.91854"
   d="m 292.57751,407.61957 c -10.1322,-3.20134 -31.39906,-16.04382 -42.85679,-25.88005 -31.5744,-27.10601 -44.99819,-56.64249 -44.88222,-98.75471 0.1024,-37.18116 10.54217,-70.07753 33.0377,-104.1038 44.97929,-68.03474 114.19785,-118.298408 204.20345,-148.284132 38.3426,-12.773992 67.26987,-18.12597 104.70456,-19.371919 41.18975,-1.3709302 61.51232,1.622046 94.04298,13.85004 36.46071,13.705258 42.54244,13.497887 67.95615,-2.317131 7.32171,-4.556322 13.63708,-7.959349 14.03415,-7.562282 1.90877,1.908769 -32.90625,87.514464 -45.83752,112.708664 l -6.23578,12.14925 -2.44942,-19.00813 C 663.64385,84.953002 651.98372,62.479692 630.51461,48.229316 609.88161,34.533897 602.07052,32.735034 563.0918,32.702093 c -31.86435,-0.02693 -35.9577,0.375071 -52.95555,5.200673 -30.52819,8.666799 -52.80874,18.232522 -78.46451,33.687228 -54.21163,32.656386 -95.6974,78.609756 -123.88168,137.222496 -23.07932,47.99638 -27.2579,94.69796 -11.54408,129.02149 10.22554,22.33552 38.41797,43.18968 70.19536,51.92407 18.77652,5.16093 54.9796,4.63298 78.66019,-1.1471 54.93804,-13.40959 105.72777,-39.02077 153.30733,-77.30663 8.01076,-6.44601 30.41379,-27.32588 49.78451,-46.39971 37.64408,-37.06711 39.89353,-37.85266 22.30698,-7.78993 -27.72012,47.38517 -77.18078,96.43532 -126.43898,125.38955 -28.93731,17.00954 -37.73012,18.69818 -105.67474,20.29475 -24.26954,0.57031 -54.05489,1.8328 -66.18966,2.80556 -37.51338,3.0072 -73.58955,3.92023 -79.61946,2.01503 z"
   id="path2" /><path
   style="fill:#ffffff;stroke-width:1.91854"
   d="m 677.3136,381.90751 c 8.98812,-14.79475 16.45868,-30.73317 32.77298,-69.92106 6.31851,-15.17744 14.08075,-32.73115 17.24943,-39.00827 3.16868,-6.2771 5.49427,-12.2138 5.16799,-13.19266 -0.78539,-2.35618 -11.60359,5.10509 -35.81223,24.69953 -18.13551,14.67887 -38.74686,29.19642 -41.45175,29.19642 -0.59694,0 6.59255,-11.47179 15.97665,-25.49285 18.07462,-27.00584 26.21516,-41.59884 30.19393,-54.12661 1.45878,-4.5932 2.48881,-6.05607 2.56563,-3.64373 0.27472,8.6271 4.2399,15.83456 9.77242,17.76321 7.06514,2.46293 17.10018,-0.19479 22.51441,-5.96276 4.35748,-4.64218 21.11001,-42.28624 48.88124,-109.8394 25.78334,-62.717624 27.85353,-68.239923 29.33393,-78.249211 l 1.358,-9.181737 -9.82084,-4.149184 c -5.40147,-2.282053 -9.82085,-4.633373 -9.82085,-5.225157 0,-2.238974 101.58564,-33.2580124 103.3954,-31.5716472 1.17392,1.0938737 -6.67773,21.9175912 -20.91605,55.4723792 -7.16404,16.883162 -17.99923,42.783467 -24.07823,57.556237 -6.07899,14.77276 -16.09437,37.55495 -22.25639,50.62708 -6.16203,13.07214 -11.20369,24.00636 -11.20369,24.29827 0,0.2919 8.40702,-2.90307 18.68226,-7.09995 49.087,-20.04939 90.79215,-23.59462 116.02219,-9.86272 16.79994,9.14368 27.57371,26.91532 29.62337,48.86458 1.54611,16.55707 -3.56954,35.82651 -20.79027,78.31195 -25.88026,63.84939 -26.89847,66.91729 -25.52464,76.90629 l 1.24201,9.03046 -21.73627,1.29716 c -11.95496,0.71343 -29.63677,1.01873 -39.29296,0.67844 l -17.55667,-0.61873 8.78093,-14.38906 c 9.54208,-15.63632 37.67894,-81.11106 45.64572,-106.21799 3.35864,-10.58456 5.06167,-20.55015 5.2904,-30.9577 0.301,-13.69527 -0.24231,-16.33446 -5.04471,-24.50435 -2.96012,-5.03583 -8.9424,-11.5109 -13.29394,-14.38906 -7.48069,-4.94782 -9.12176,-5.23113 -30.11096,-5.19808 -37.06551,0.0584 -55.81958,7.60349 -62.41762,25.11183 -1.94562,5.16283 -16.85807,41.22258 -33.13878,80.13278 -28.3784,67.82317 -29.57494,71.21164 -28.96332,82.02114 l 0.63797,11.27528 -16.48602,-0.003 c -9.06731,-0.002 -27.0096,0.56236 -39.87175,1.25394 l -23.38573,1.25745 z"
   id="path3" /><path
   style="fill:#ffffff;stroke-width:1.91854"
   d="m 1041.2199,380.35077 c 8.3457,-8.73055 17.4779,-26.21772 32.3116,-61.87295 7.024,-16.88316 16.5536,-39.79868 21.177,-50.92336 4.6234,-11.12469 10.1314,-26.97206 12.2399,-35.21638 l 3.8337,-14.98966 -6.052,-8.42726 c -3.3286,-4.63498 -5.6908,-8.68219 -5.2494,-8.99378 0.8859,-0.62532 84.5565,-27.36736 91.4537,-29.22957 2.3742,-0.64102 4.3167,-0.83443 4.3167,-0.4298 0,2.52563 -32.1759,82.44809 -52.7162,130.94294 -23.7525,56.07878 -24.3773,57.91328 -24.3394,71.46565 l 0.039,13.90943 h -41.4875 -41.4874 z"
   id="path4" /><path
   style="fill:#ffffff;stroke-width:1.91854"
   d="m 1171.749,68.152377 c -7.0063,-5.523948 -6.9604,-13.905816 0.1373,-25.089224 21.587,-34.013249 79.2276,-55.126456 88.6166,-32.45942 3.459,8.350751 -0.5408,17.497547 -13.8933,31.771427 -15.4804,16.548597 -38.1006,28.172768 -56.8698,29.22449 -10.7988,0.605107 -13.5099,0.08563 -17.9908,-3.447273 z"
   id="path5" /><path
   style="fill:#ffffff;stroke-width:1.91854"
   d="m 1337.2231,528.83727 c 0,-1.08421 0.9473,-2.55674 2.1051,-3.27228 5.8136,-3.59301 21.4164,-32.52514 36.2657,-67.24715 l 16.5805,-38.76984 -23.6276,-1.36278 c -48.9025,-2.8206 -484.28823,2.02746 -596.2238,6.639 -27.49576,1.13276 -84.9577,3.40117 -127.6932,5.04089 -251.95601,9.66732 -459.54745,29.50445 -480.68316,45.9334 -3.62551,2.81813 -3.47293,3.16483 4.65208,10.56976 l 8.40054,7.65606 -17.99324,-0.007 C 108.94875,493.99954 11.787733,477.97372 2.1291787,468.14236 -0.71302214,465.24932 -0.62431283,464.72379 3.2417719,461.55114 16.691142,450.51406 111.71162,436.02217 223.51003,427.95729 452.80501,411.41646 562.54276,408.57567 1292.0283,400.29644 l 109.2478,-1.2399 6.4743,-16.3076 c 3.5609,-8.96918 14.6849,-35.6419 24.72,-59.27273 20.6717,-48.67812 25.6392,-65.45028 25.5787,-86.36364 -0.066,-22.97591 -9.1318,-37.50109 -26.3974,-42.29622 -11.6185,-3.22678 -34.4132,-2.32537 -52.3335,2.06951 l -16.6057,4.07251 -6.1975,14.63327 c -60.464,142.76561 -60.2831,142.2928 -60.1082,157.08496 l 0.1644,13.90943 h -41.1627 c -32.7066,0 -40.8475,-0.49825 -39.6284,-2.4254 0.8438,-1.33399 5.6439,-8.49517 10.6669,-15.91377 5.1231,-7.56649 14.4736,-26.50639 21.2979,-43.13993 6.691,-16.30838 16.6313,-39.48743 22.0896,-51.50901 5.4584,-12.02156 9.5107,-22.27102 9.0051,-22.77653 -0.5055,-0.50554 -6.7854,3.6896 -13.9553,9.32251 -43.5813,34.23881 -73.809,64.07765 -91.1625,89.98985 -12.0323,17.96669 -14.9764,25.69233 -10.4525,27.42832 3.8511,1.47782 20.6998,-2.73093 35.6622,-8.9083 6.7726,-2.79612 12.7439,-4.65375 13.2696,-4.12803 1.6329,1.63289 -14.5012,15.40621 -24.2838,20.7306 -17.065,9.28791 -49.0426,14.31078 -51.434,8.07898 -1.7281,-4.50343 4.0155,-18.85103 12.825,-32.03707 13.2649,-19.85486 83.0568,-87.94036 112.448,-109.69874 28.7135,-21.25671 25.1368,-15.90887 47.6581,-71.25665 8.1579,-20.04875 21.1535,-50.85055 28.8791,-68.44844 15.2568,-34.752974 20.0336,-48.696802 20.0336,-58.479259 0,-6.893619 -3.2941,-9.889989 -15.5824,-14.17416 l -6.9489,-2.422663 36.6863,-12.328831 c 43.5912,-14.6493031 70.2608,-22.0403829 70.2608,-19.4717602 0,3.4361995 -28.1906,73.1261692 -51.5019,127.3177232 -12.6991,29.52141 -22.8463,53.9182 -22.5494,54.2151 0.2969,0.2969 6.6415,-1.97631 14.0991,-5.05158 41.2983,-17.03005 86.783,-19.87173 109.1649,-6.82014 32.3583,18.86916 38.8619,57.17444 18.2688,107.60001 -8.1366,19.92378 -45.9535,111.41607 -47.564,115.07383 -1.1398,2.5887 35.2387,3.76607 200.7147,6.49598 64.8947,1.07059 142.1639,2.79494 171.7094,3.83187 29.5456,1.03693 74.0078,2.33943 98.8049,2.89442 24.7971,0.55502 64.9426,1.88888 89.2122,2.96415 24.2695,1.07527 65.2783,2.78967 91.1307,3.80976 52.2497,2.06172 148.5202,6.85313 170.7501,8.49828 117.988,8.73187 188.4884,17.73745 220.6322,28.18313 15.0099,4.87776 17.2669,6.49405 17.2669,12.36588 0,8.83834 -13.8336,13.32174 -62.0654,20.11499 -79.012,11.12855 -230.2011,21.89631 -374.4027,26.66515 -30.6007,1.01199 -78.948,2.75682 -107.4383,3.87741 -83.2469,3.27429 -186.6475,5.51005 -391.3824,8.46257 -105.5197,1.52171 -205.0201,3.335 -221.1118,4.02951 -19.5674,0.84452 -29.2578,0.60984 -29.2578,-0.70852 z m 191.8541,-16.59926 c 261.7709,-3.54951 441.0174,-12.70569 547.7435,-27.97958 41.6452,-5.95994 57.5562,-10.95059 57.5562,-18.05295 0,-5.11844 -6.537,-7.94291 -31.178,-13.47119 -28.139,-6.31307 -55.8376,-9.57655 -129.0201,-15.20133 -126.6433,-9.73372 -354.5472,-18.1409 -496.1616,-18.30294 l -25.1597,-0.0288 -12.0037,29.25776 c -10.4718,25.52365 -24.9705,63.62728 -24.9705,65.62413 0,0.37565 8.4176,0.3454 18.7058,-0.0672 10.2882,-0.41266 52.8078,-1.21267 94.4881,-1.77786 z"
   id="path6" /><path
   style="fill:#ffffff;stroke-width:1.91854"
   d="m 1585.396,389.05028 -6.0338,-0.75879 6.718,-9.9658 c 9.1685,-13.60102 15.7026,-26.95464 26.468,-54.09225 5.0231,-12.66237 14.3182,-35.54097 20.6558,-50.84134 6.3376,-15.30036 13.5524,-33.77431 16.033,-41.0532 l 4.5101,-13.23436 -7.7401,-8.3971 c -4.2571,-4.61841 -7.261,-9.17248 -6.6753,-10.12016 0.5857,-0.94769 3.8609,-2.33052 7.2782,-3.07295 3.4173,-0.74244 23.0484,-6.72679 43.6248,-13.29855 20.5763,-6.57176 39.7685,-12.51793 42.6492,-13.21371 l 5.2377,-1.26505 -5.5192,14.89563 c -9.1844,24.78776 -16.0419,41.37169 -39.4791,95.47435 -36.2569,83.69572 -37.9669,88.39223 -36.4897,100.21589 l 1.262,10.10022 -33.2329,-0.30705 c -18.2781,-0.16887 -35.9481,-0.64848 -39.2667,-1.06578 z"
   id="path7" /><path
   style="fill:#ffffff;stroke-width:1.91854"
   d="m 1718.0535,69.760005 c -5.278,-3.140514 -6.6513,-5.564491 -6.6855,-11.800568 -0.1197,-21.804479 40.5431,-54.0061763 71.3155,-56.4762925 11.0781,-0.88924235 12.8671,-0.51512734 17.7912,3.7203617 4.0265,3.4634553 5.4281,6.3416008 5.2991,10.8811848 -0.6348,22.324396 -41.4051,54.029394 -71.219,55.383333 -7.408,0.33642 -14.2567,-0.372483 -16.5013,-1.708019 z"
   id="path8" /><path
   style="fill:#ffffff;stroke-width:1.91854"
   d="m 1792.8766,392.29541 c -21.1039,-0.6594 -38.4869,-1.35044 -38.6288,-1.53562 -0.1419,-0.18517 3.1507,-4.00589 7.3168,-8.49048 8.4629,-9.10975 13.3551,-17.71575 19.8311,-34.885 2.4146,-6.40179 11.8267,-28.7776 20.9158,-49.724 15.2605,-35.16895 29.8952,-74.59518 29.8952,-80.5385 0,-1.37159 -3.0217,-3.93476 -6.7149,-5.69592 -4.9382,-2.35485 -6.7149,-4.42877 -6.7149,-7.83814 0,-4.00812 1.3643,-4.96192 10.0724,-7.04208 5.5398,-1.32332 24.7492,-7.32628 42.6875,-13.3399 17.9384,-6.01361 35.0583,-11.52582 38.0443,-12.24934 6.4423,-1.561 6.5519,-2.20378 -4.4636,26.17366 -3.9937,10.28818 -6.5247,18.70578 -5.6245,18.70578 0.9001,0 12.2451,-5.92726 25.211,-13.17168 38.3995,-21.45485 65.9292,-32.0019 89.3044,-34.21386 20.3787,-1.92841 23.621,5.01418 12.5765,26.9291 -6.6307,13.15673 -19.8023,25.50908 -34.7542,32.59237 -10.8861,5.15718 -15.06,6.09021 -27.2446,6.09021 -7.914,0 -17.195,-1.18392 -20.6244,-2.63093 -5.1485,-2.17241 -6.234,-3.67709 -6.228,-8.63344 0,-3.30137 1.7771,-8.90573 3.9404,-12.45413 2.1633,-3.5484 3.5349,-6.85001 3.048,-7.33692 -0.9467,-0.94667 -41.1046,20.50893 -49.3337,26.35805 -3.0543,2.17098 -6.9967,8.8324 -10.3743,17.52931 -2.9962,7.7152 -13.8192,33.88454 -24.051,58.15408 -23.9034,56.69853 -25.3972,61.36001 -24.6022,76.77096 0.5261,10.2 0.1222,12.37933 -2.2356,12.06229 -1.5828,-0.21283 -20.1447,-0.92648 -41.2487,-1.58587 z"
   id="path9" /><path
   style="fill:#ffffff;stroke-width:1.91854"
   d="m 2149.7253,405.7623 c -9.4968,-0.83575 -38.4188,-2.14017 -64.2712,-2.89868 l -47.0042,-1.37914 -11.6523,-11.80193 c -12.9243,-13.0903 -22.7471,-30.91579 -25.6687,-46.58096 -5.5958,-30.00453 15.2513,-75.44285 50.0964,-109.18957 54.7071,-52.98273 142.9706,-82.7306 210.7346,-71.02492 36.3547,6.27998 67.6129,27.27985 80.9591,54.38993 10.8423,22.02375 9.6574,49.99954 -3.2591,76.95188 -20.6025,42.99007 -55.5812,75.30343 -110.1009,101.71121 l -22.2775,10.79059 -20.1447,0.27558 c -11.0796,0.15154 -27.9148,-0.40823 -37.4115,-1.24399 z m 8.4291,-21.14499 c 39.7509,-9.52933 77.784,-35.20656 103.1775,-69.65813 26.3397,-35.73536 34.0889,-71.09751 21.149,-96.50997 -23.3526,-45.86185 -95.6079,-39.61592 -159.0259,13.74659 -56.352,47.4169 -71.0698,121.419 -29.0463,146.04643 17.8745,10.47514 38.174,12.50526 63.7457,6.37508 z"
   id="path10" /><path
   style="fill:#ffffff;stroke-width:0.959271"
   d="m 2381.8687,390.90274 v -19.18541 h -4.7963 -4.7964 v -3.35744 -3.35745 h 13.9095 13.9094 v 3.30489 c 0,3.26212 -0.059,3.30867 -4.5566,3.59726 l -4.5565,0.29238 -0.2601,18.94559 -0.2601,18.94559 h -4.2964 -4.2965 z"
   id="path11" /><path
   style="fill:#ffffff;stroke-width:0.959271"
   d="m 2418.8007,395.45301 -5.7557,-15.58188 -0.2641,15.10851 -0.2642,15.10851 h -2.8535 -2.8534 v -22.59801 -22.59801 l 3.9534,0.29497 3.9534,0.29497 5.7904,15.58815 c 3.1846,8.57348 6.1105,15.58815 6.5018,15.58815 0.3913,0 3.2945,-7.01467 6.4516,-15.58815 l 5.7401,-15.58815 3.9493,-0.29497 3.9493,-0.29497 v 22.59801 22.59801 h -2.8528 -2.8528 l -0.2648,-14.62887 -0.2648,-14.62888 -5.195,13.90943 c -2.8572,7.65018 -5.608,14.44901 -6.1129,15.10851 -0.5048,0.65949 -1.8363,1.19627 -2.9588,1.19282 -1.7604,-0.005 -2.8321,-2.14818 -7.7965,-15.58815 z"
   id="path12" /></svg>
