<?xml version="1.0" encoding="UTF-8" standalone="no"?>
<svg
   xml:space="preserve"
   height="70.468"
   width="343.64"
   version="1.1"
   id="svg5"
   sodipodi:docname="coco-w.svg"
   inkscape:version="1.3 (0e150ed6c4, 2023-07-21)"
   xmlns:inkscape="http://www.inkscape.org/namespaces/inkscape"
   xmlns:sodipodi="http://sodipodi.sourceforge.net/DTD/sodipodi-0.dtd"
   xmlns="http://www.w3.org/2000/svg"
   xmlns:svg="http://www.w3.org/2000/svg"><defs
   id="defs5" /><sodipodi:namedview
   id="namedview5"
   pagecolor="#ffffff"
   bordercolor="#111111"
   borderopacity="1"
   inkscape:showpageshadow="0"
   inkscape:pageopacity="0"
   inkscape:pagecheckerboard="1"
   inkscape:deskcolor="#d1d1d1"
   inkscape:zoom="8.0607609"
   inkscape:cx="171.82001"
   inkscape:cy="35.232406"
   inkscape:window-width="3440"
   inkscape:window-height="1377"
   inkscape:window-x="-8"
   inkscape:window-y="760"
   inkscape:window-maximized="1"
   inkscape:current-layer="svg5" />&#10;    <path
   d="M273.133 70.468h28.176L343.64 0h-28.166l-42.342 70.468"
   fill="#498cc1"
   id="path1" />&#10;    <path
   d="M110.587 19.225v38.398h23.039c7.167-1.175 11.266-5.19 12.825-11.519.014-5.124.002-10.235 0-15.36-1.56-6.328-5.658-10.343-12.825-11.518h-23.04zm9.01 7.705h10.215c3.208.57 6.252 1.575 7.705 6.4l-.025 10.24c-1.466 4.817-4.498 5.83-7.706 6.4h-10.214l.026-23.04zM11.993 57.631V28.202H.466l-.003-8.957h35.862l-3.844 8.957-8.965.004V57.63H11.993M40.164 19.25l-14.08 38.373H37.63l4.454-14.053 4.48 6.4h7.68l2.56 7.653h11.622L54.244 19.251h-14.08zm6.989 10.214 4.53 11.546h-8.96l4.43-11.546zM69.594 57.631V19.245h14.11l14.085 28.163V19.245h8.965l-.007 38.386H92.664L78.577 29.492l-.004 28.14h-8.979"
   stroke="#000"
   stroke-width=".9092676000000001"
   fill="#666"
   id="path2" />&#10;    <path
   d="m156.681 39.74-15.356-20.495h11.517l8.351 12.777 8.311-12.777h12.783l-15.404 20.431.028 17.955h-10.22l-.01-17.891"
   stroke="#000"
   stroke-width=".9092676000000001"
   fill="#666"
   id="path3" />&#10;    <path
   d="M236.148 70.468h28.176L306.65 0h-28.17l-42.335 70.468"
   fill="#197123"
   id="path4" />&#10;    <path
   d="M199.155 70.468h28.176L269.657 0H241.49l-42.343 70.468"
   fill="#ae1f19"
   id="path5" />&#10;    <text
   style="letter-spacing:0;word-spacing:0"
   xml:space="preserve"
   font-size="40"
   y="32.582"
   x="295.303"
   font-family="Open Sans Light"
   id="text5" />&#10;<path
   style="fill:#f9f9f9;stroke-width:0.124058"
   d="M 12.529834,42.427756 V 27.726911 H 6.7611483 0.99246214 V 23.757062 19.787214 H 18.236492 c 9.484216,0 17.244029,0.02306 17.244029,0.05125 0,0.02819 -0.749564,1.800665 -1.665697,3.938834 l -1.665698,3.88758 -4.599219,0.03252 -4.59922,0.03252 v 14.699335 14.699336 h -5.210426 -5.210427 z"
   id="path6" /><path
   style="fill:#f9f9f9;stroke-width:0.124058"
   d="m 27.09922,56.354583 c 0.160818,-0.427187 3.242877,-8.82848 6.849019,-18.669541 l 6.556622,-17.89284 6.699119,2.22e-4 6.69912,2.22e-4 6.855917,18.574934 c 3.770754,10.216214 6.855141,18.61741 6.854192,18.669324 -9.49e-4,0.05192 -2.355728,0.07983 -5.232843,0.06203 L 57.149251,57.066574 55.888041,53.282812 54.62683,49.49905 50.725695,49.46633 46.82456,49.43361 44.409057,45.965543 c -1.328527,-1.907436 -2.443416,-3.469258 -2.477532,-3.470715 -0.03412,-0.0015 -1.098586,3.27659 -2.36549,7.284548 l -2.303462,7.287197 -5.227875,0.03236 -5.227874,0.03236 z M 52.324488,41.280222 c -0.139297,-0.532169 -5.105909,-13.05708 -5.177636,-13.05708 -0.07696,0 -5.095693,12.989656 -5.092715,13.181138 7.95e-4,0.05117 2.324735,0.09304 5.164312,0.09304 4.855959,0 5.159488,-0.01291 5.106039,-0.217101 z"
   id="path7" /><path
   style="fill:#f9f9f9;stroke-width:0.124058"
   d="M 70.092638,38.457908 V 19.787214 h 6.637164 6.637164 l 6.97554,13.95174 c 6.774736,13.550114 6.984544,13.949793 7.28832,13.884108 0.17203,-0.0372 0.382564,-0.08913 0.467853,-0.115406 0.122846,-0.03784 0.155072,-2.923225 0.155072,-13.884108 V 19.787214 h 3.969849 3.96985 V 38.457908 57.128602 H 99.587116 92.980783 L 85.999246,43.164868 C 80.277038,31.71991 78.979188,29.211852 78.804152,29.260554 c -0.117456,0.03268 -0.339165,0.09553 -0.492687,0.139653 l -0.27913,0.08023 v 13.824081 13.824081 h -3.969848 -3.969849 z"
   id="path8" /><path
   style="fill:#f9f9f9;stroke-width:0.124058"
   d="M 111.15576,38.461577 V 19.787214 h 11.42185 11.42184 l 1.24097,0.314569 c 5.27419,1.336938 8.61579,4.376799 10.28366,9.355064 l 0.36785,1.097962 v 7.82195 7.821951 l -0.32314,1.029881 c -0.76601,2.441333 -1.92488,4.33184 -3.68019,6.003589 -1.76888,1.684676 -3.53118,2.63859 -6.45576,3.494431 l -1.14031,0.333698 -11.56838,0.03782 -11.56839,0.03782 z m 20.23652,11.671426 c 3.22003,-0.820555 5.136,-2.491125 6.24491,-5.445034 0.31411,-0.836704 0.31625,-0.869105 0.39719,-6.018429 0.0923,-5.869641 0.12737,-5.581058 -0.93127,-7.655098 -1.16435,-2.281145 -3.11987,-3.688275 -6.03608,-4.343369 -1.32907,-0.29856 -1.49639,-0.306579 -6.41999,-0.307674 -4.97302,-0.0011 -5.05535,0.0029 -5.05535,0.246992 0,0.16541 -0.0827,0.248116 -0.24812,0.248116 -0.24637,0 -0.24811,0.08271 -0.24811,11.785487 v 11.785488 h 5.56669 c 5.46212,0 5.58854,-0.0056 6.73013,-0.296479 z"
   id="path9" /><path
   style="fill:#f9f9f9;stroke-width:0.124058"
   d="m 157.15259,48.27916 -0.0334,-8.84944 -7.06075,-9.418065 c -3.88341,-5.179936 -7.19772,-9.5995 -7.36514,-9.821253 l -0.3044,-0.403188 h 5.08785 5.08786 l 4.18953,6.419989 c 2.30424,3.530994 4.25287,6.490497 4.33029,6.576672 0.10861,0.120904 1.1167,-1.344816 4.4147,-6.418777 l 4.27395,-6.575459 5.67565,-0.0012 c 3.1216,-6.67e-4 5.67564,0.02754 5.67564,0.06268 0,0.03514 -3.32165,4.469199 -7.38144,9.853466 l -7.38143,9.789576 v 8.817228 8.817229 h -4.58773 -4.58772 z"
   id="path10" /></svg>
