<?xml version="1.0" encoding="UTF-8" standalone="no"?>
<!-- Generator: Adobe Illustrator 16.0.3, SVG Export Plug-In . SVG Version: 6.00 Build 0)  -->

<svg
   id="Ebene_1"
   enable-background="new 0 0 566.929 87.964"
   xml:space="preserve"
   height="70.468"
   viewBox="0 0 343.64012 70.467654"
   width="343.64"
   version="1.1"
   y="0px"
   x="0px"
   sodipodi:docname="coco.svg"
   inkscape:version="1.1 (c68e22c387, 2021-05-23)"
   xmlns:inkscape="http://www.inkscape.org/namespaces/inkscape"
   xmlns:sodipodi="http://sodipodi.sourceforge.net/DTD/sodipodi-0.dtd"
   xmlns="http://www.w3.org/2000/svg"
   xmlns:svg="http://www.w3.org/2000/svg"
   xmlns:rdf="http://www.w3.org/1999/02/22-rdf-syntax-ns#"
   xmlns:cc="http://creativecommons.org/ns#"
   xmlns:dc="http://purl.org/dc/elements/1.1/"><defs
   id="defs21" /><sodipodi:namedview
   id="namedview19"
   pagecolor="#ffffff"
   bordercolor="#666666"
   borderopacity="1.0"
   inkscape:pageshadow="2"
   inkscape:pageopacity="0.0"
   inkscape:pagecheckerboard="0"
   showgrid="false"
   inkscape:zoom="3.0788033"
   inkscape:cx="171.65761"
   inkscape:cy="35.240966"
   inkscape:window-width="1920"
   inkscape:window-height="1017"
   inkscape:window-x="-8"
   inkscape:window-y="712"
   inkscape:window-maximized="1"
   inkscape:current-layer="Ebene_1" /><metadata
   id="metadata61"><rdf:RDF><cc:Work
       rdf:about=""><dc:format>image/svg+xml</dc:format><dc:type
         rdf:resource="http://purl.org/dc/dcmitype/StillImage" /><dc:title /></cc:Work></rdf:RDF></metadata>
<g
   id="g4569"
   transform="matrix(0.81916268,0,0,0.81916268,-1.6623689e-5,0)"><path
     id="path3999-4"
     d="m333.43,86.024,34.396,0,51.675-86.024-34.384,0l-51.69,86.024"
     fill="#498cc1" /><path
     id="path3912-8"
     stroke-linejoin="miter"
     d="m135,23.469,0,46.875,28.125,0c8.7494-1.435,13.753-6.3365,15.656-14.062,0.0175-6.2553,0.003-12.495,0-18.75-1.9033-7.726-6.9069-12.627-15.656-14.062h-28.125zm11,9.4062,12.469,0c3.9161,0.69463,7.6321,1.9226,9.4062,7.8125l-0.0312,12.5c-1.7896,5.8814-5.4902,7.1179-9.4063,7.8125h-12.469l0.0312-28.125z"
     stroke="#000"
     stroke-linecap="butt"
     stroke-width="1.11043465000000000px"
     fill="#666" /><path
     id="path3896"
     stroke-linejoin="miter"
     d="m14.64,70.354,0-35.926-14.071,0-0.004331-10.935,43.78,0-4.6933,10.935-10.944,0.0043,0,35.921-14.067,0.000037"
     stroke="#000"
     stroke-linecap="butt"
     stroke-width="1.11043465000000000px"
     fill="#666" /><path
     id="path3900"
     stroke-linejoin="miter"
     d="m49.031,23.5-17.188,46.844,14.094,0,5.4375-17.156,5.4688,7.8125,9.375,0,3.125,9.3438,14.188,0-17.312-46.844-17.188,0zm8.5312,12.469,5.5312,14.094-10.938,0,5.4062-14.094z"
     stroke="#000"
     stroke-linecap="butt"
     stroke-width="1.11043465000000000px"
     fill="#666" /><path
     id="path3908"
     stroke-linejoin="miter"
     d="m84.957,70.354,0-46.861,17.225,0,17.195,34.381,0-34.381,10.944,0-0.009,46.861-17.192,0-17.197-34.351-0.0044,34.351-10.961,0"
     stroke="#000"
     stroke-linecap="butt"
     stroke-width="1.11043465000000000px"
     fill="#666" /><path
     id="path3991"
     stroke-linejoin="miter"
     d="m191.27,48.513-18.746-25.02,14.059,0,10.195,15.598,10.146-15.598,15.604,0-18.804,24.942,0.0346,21.919-12.477,0-0.0122-21.841"
     stroke="#000"
     stroke-linecap="butt"
     stroke-width="1.11043465000000000px"
     fill="#666" /><path
     id="path3999-4-5"
     d="m288.28,86.024,34.396,0l51.67-86.024h-34.39l-51.68,86.024"
     fill="#197123" /><path
     id="path3999-4-5-7"
     d="m243.12,86.024,34.396,0l51.67-86.024h-34.384l-51.69,86.024"
     fill="#ae1f19" /></g><flowRoot
   id="flowRoot4066"
   style="letter-spacing:0px;word-spacing:0px;"
   line-height="125%"
   font-weight="normal"
   xml:space="preserve"
   font-size="40px"
   transform="translate(-94.313277,-12.248728)"
   font-style="normal"
   font-family="Open Sans Light"
   fill="#000000"><flowRegion
     id="flowRegion4068"><rect
       id="rect4070"
       y="24.964"
       width="185.5"
       x="377"
       height="41" /></flowRegion><flowPara
     id="flowPara4072">Cooccc</flowPara></flowRoot><text
   id="text4074"
   style="letter-spacing:0px;word-spacing:0px;"
   font-weight="normal"
   xml:space="preserve"
   font-size="40px"
   font-style="normal"
   y="32.581753"
   x="295.30255"
   font-family="Open Sans Light"
   line-height="125%"
   fill="#000000"><tspan
     id="tspan4076"
     font-weight="normal"
     font-style="normal"
     font-stretch="normal"
     font-variant="normal"
     y="32.581753"
     x="295.30255"
     font-family="Ebrima" /></text>
<path
   style="fill:#ffffff;fill-opacity:0.941176;stroke-width:0.324802"
   d="M 12.66726,42.386599 V 27.60813 H 6.820832 0.97440458 V 23.710511 19.812893 H 18.176566 35.378727 l -1.153325,2.679613 c -0.634331,1.473787 -1.37546,3.227715 -1.646956,3.897618 l -0.493628,1.218006 h -4.511955 -4.511955 v 14.778469 14.77847 H 17.864084 12.66726 Z"
   id="path912"
   transform="translate(0,-1.8496154e-4)" /><path
   style="fill:#ffffff;fill-opacity:0.941176;stroke-width:0.324802"
   d="m 27.108124,56.605108 c 0.124066,-0.317267 3.126122,-8.469522 6.671235,-18.116127 3.545112,-9.646605 6.545711,-17.795064 6.667995,-18.107685 0.201532,-0.515214 0.835699,-0.568403 6.777027,-0.568403 h 6.55469 l 6.808623,18.396869 c 3.744744,10.118278 6.857343,18.522518 6.916889,18.676088 0.05955,0.153569 -2.212756,0.279219 -5.049563,0.279219 H 57.297186 L 56.028263,53.26745 54.75934,49.369832 H 50.827147 46.894953 L 44.543538,45.959416 C 43.250259,44.083687 42.088672,42.549 41.962232,42.549 c -0.126439,0 -1.253912,3.252075 -2.505494,7.226834 l -2.275605,7.226834 -5.149292,0.08964 c -4.82066,0.08392 -5.134896,0.05283 -4.923717,-0.487202 z M 52.186969,40.51899 c -0.241778,-0.580582 -1.365542,-3.436503 -2.497255,-6.34649 -1.547424,-3.978911 -2.183675,-5.266617 -2.565851,-5.193017 -0.331257,0.06379 -1.329217,2.24143 -2.866329,6.254581 -1.296976,3.386192 -2.358137,6.198072 -2.358137,6.248622 0,0.05055 2.413613,0.09191 5.363584,0.09191 h 5.363584 z"
   id="path951"
   transform="translate(0,-1.8496154e-4)" /><path
   style="fill:#ffffff;fill-opacity:0.941176;stroke-width:0.324802"
   d="M 70.15713,38.488981 V 19.812893 h 6.580252 6.580251 l 6.980212,13.974278 c 4.98177,9.973427 7.119699,13.947537 7.467414,13.880876 0.422425,-0.08098 0.498463,-1.938977 0.57189,-13.974278 l 0.08469,-13.880876 h 3.894131 3.89413 V 38.488981 57.165069 H 99.740324 93.270549 L 86.182074,43.198603 c -5.286288,-10.415606 -7.23355,-13.966466 -7.659092,-13.966466 -0.53544,0 -0.570616,0.860964 -0.570616,13.966466 V 57.165069 H 74.054748 70.15713 Z"
   id="path990"
   transform="translate(0,-1.8496154e-4)" /><path
   style="fill:#ffffff;fill-opacity:0.941176;stroke-width:0.324802"
   d="M 111.08212,38.47086 V 19.776651 l 12.09886,0.09939 12.09886,0.09939 2.22552,0.940932 c 3.00306,1.269673 5.71013,3.796425 7.10677,6.633402 l 1.06135,2.155919 v 8.630915 8.630916 l -1.22526,2.47915 c -1.43892,2.911468 -3.35634,4.784849 -6.24517,6.101747 -3.24403,1.478821 -4.63006,1.616661 -16.25606,1.616661 h -10.86487 z m 20.3001,11.757716 c 3.08494,-0.822047 4.66762,-2.057393 5.97309,-4.662223 0.61937,-1.235834 0.68534,-1.91686 0.68534,-7.074865 0,-6.524699 -0.19059,-7.290543 -2.36765,-9.514198 -2.13777,-2.183523 -4.16298,-2.668366 -11.14583,-2.668366 h -5.64981 v 12.180057 12.180057 l 5.44042,-0.0039 c 3.49063,-0.0025 6.02246,-0.158949 7.06444,-0.436607 z"
   id="path1029"
   transform="translate(0,-1.8496154e-4)" /><path
   style="fill:#ffffff;fill-opacity:0.941176;stroke-width:0.324802"
   d="m 157.20394,48.274825 v -8.890243 l -7.29826,-9.785844 -7.29826,-9.785845 4.94345,0.0073 4.94345,0.0073 4.35156,6.677279 4.35156,6.677278 3.97859,-6.116185 c 2.18822,-3.363902 4.17635,-6.3777 4.41808,-6.697328 0.39684,-0.52475 0.96813,-0.572026 5.88733,-0.487202 l 5.44784,0.09394 -7.31545,9.70244 -7.31545,9.70244 v 8.892448 8.892447 h -4.54722 -4.54722 z"
   id="path1068"
   transform="translate(0,-1.8496154e-4)" /></svg>
