<?xml version="1.0" encoding="UTF-8" standalone="no"?>
<svg
   width="451.24899"
   height="81.18"
   xml:space="preserve"
   version="1.1"
   id="svg10"
   sodipodi:docname="dragon64.svg"
   inkscape:version="1.4.3 (0d15f75, 2025-12-25)"
   xmlns:inkscape="http://www.inkscape.org/namespaces/inkscape"
   xmlns:sodipodi="http://sodipodi.sourceforge.net/DTD/sodipodi-0.dtd"
   xmlns="http://www.w3.org/2000/svg"
   xmlns:svg="http://www.w3.org/2000/svg"><defs
   id="defs10" /><sodipodi:namedview
   id="namedview10"
   pagecolor="#ffffff"
   bordercolor="#111111"
   borderopacity="1"
   inkscape:showpageshadow="0"
   inkscape:pageopacity="0"
   inkscape:pagecheckerboard="1"
   inkscape:deskcolor="#d1d1d1"
   inkscape:zoom="1.4707223"
   inkscape:cx="296.45298"
   inkscape:cy="-71.053523"
   inkscape:window-width="3440"
   inkscape:window-height="1377"
   inkscape:window-x="-8"
   inkscape:window-y="760"
   inkscape:window-maximized="1"
   inkscape:current-layer="svg10" />
    <path
   d="m 451.66189,75.466 c 0,3.154 -1.73638,5.714 -3.87819,5.714 H 3.877394 C 1.7363876,81.18 0,78.62 0,75.466 V 5.716 C 0,2.56 1.7363876,0 3.877394,0 H 447.7837 c 2.14181,0 3.87819,2.56 3.87819,5.715 v 69.75 z"
   id="path1"
   style="stroke-width:0.898678" />
    <linearGradient
   x1="895.85498"
   y1="-429.67801"
   x2="1304.746"
   y2="-429.67801"
   id="a"
   gradientUnits="userSpaceOnUse"
   gradientTransform="matrix(0.67196,0,0,-0.67196,-442.04,-248.75)">
        <stop
   style="stop-color:#f50019;stop-opacity:1"
   offset="0"
   id="stop1" />
        <stop
   style="stop-color:#f66d19;stop-opacity:1"
   offset=".276"
   id="stop2" />
        <stop
   style="stop-color:#fbfa35;stop-opacity:1"
   offset=".479"
   id="stop3" />
        <stop
   style="stop-color:#74b719;stop-opacity:1"
   offset=".681"
   id="stop4" />
        <stop
   style="stop-color:#17710a;stop-opacity:1"
   offset=".791"
   id="stop5" />
        <stop
   style="stop-color:#226887;stop-opacity:1"
   offset=".883"
   id="stop6" />
        <stop
   style="stop-color:#3262d9;stop-opacity:1"
   offset="1"
   id="stop7" />
    </linearGradient>
    <path
   d="m 159.942,18.077 h 22.145 c 14.6,0 19.754,10.797 19.754,21.84 0,13.434 -7.117,21.962 -22.392,21.962 h -19.507 z m 13.495,32.575 h 5.277 c 8.404,0 9.63,-6.81 9.63,-10.92 0,-2.76 -0.858,-10.429 -10.612,-10.429 h -4.295 z M 206.44,18.077 h 25.705 c 7.668,0 14.293,4.234 14.293,12.515 0,4.54 -2.086,9.325 -6.564,10.981 3.681,1.412 5.95,5.46 6.441,10.92 0.184,2.146 0.245,7.36 1.472,9.385 H 234.29 c -0.675,-2.208 -0.92,-4.477 -1.105,-6.747 -0.368,-4.172 -0.737,-8.527 -6.074,-8.527 h -7.178 V 61.88 H 206.437 V 18.077 Z m 13.496,19.14 h 7.055 c 2.515,0 5.95,-0.43 5.95,-4.355 0,-2.76 -1.533,-4.355 -6.687,-4.355 h -6.318 z m 46.56,-19.14 h 13.19 l 15.95,43.801 H 281.65 l -1.84,-6.257 h -13.927 l -1.963,6.257 h -13.558 l 16.135,-43.8 z m 10.613,28.157 -3.926,-13.495 h -0.123 l -4.233,13.495 z M 329.497,57.4 c -3.007,3.864 -7.668,5.52 -12.452,5.52 -12.946,0 -20.92,-10.06 -20.92,-22.513 0,-16.685 11.718,-23.372 21.594,-23.372 11.165,0 18.22,6.073 20.183,16.38 h -12.945 c -0.49,-3.19 -3.19,-5.46 -6.379,-5.46 -9.263,0 -8.957,9.754 -8.957,12.76 0,4.108 1.657,11.287 9.876,11.287 3.129,0 6.319,-1.595 6.993,-4.846 h -5.95 v -9.387 h 17.914 v 24.11 h -8.527 z m 37.787,-40.366 c 13.313,0 22.207,9.57 22.207,22.944 0,13.374 -8.895,22.943 -22.207,22.943 -13.312,0 -22.208,-9.57 -22.208,-22.943 0,-13.374 8.896,-22.944 22.208,-22.944 z m 0,34.967 c 3.435,0 8.711,-2.27 8.711,-12.025 0,-9.754 -5.276,-12.024 -8.711,-12.024 -3.435,0 -8.711,2.27 -8.711,12.024 0,9.755 5.277,12.025 8.711,12.025 z m 27.972,-33.924 h 13.803 l 12.76,23.434 h 0.123 V 18.077 h 12.76 V 61.878 H 421.573 L 408.14,37.954 h -0.123 v 23.924 h -12.76 v -43.8 z"
   style="fill:url(#a)"
   id="path7" />
    
    <path
   d="m 373.437,67.356 h 3.887 c 2.561,0 3.466,1.894 3.466,3.832 0,2.36 -1.249,3.855 -3.93,3.855 h -3.424 v -7.687 z m 2.37,5.717 h 0.925 c 1.475,0 1.691,-1.194 1.691,-1.917 0,-0.485 -0.151,-1.83 -1.862,-1.83 h -0.753 v 3.747 z m 8.141,-5.717 h 2.314 l 2.8,7.687 h -2.455 l -0.322,-1.1 h -2.444 l -0.345,1.1 h -2.38 z m 1.862,4.942 -0.689,-2.369 H 385.1 l -0.742,2.369 z m 4.848,-2.972 h -2.153 v -1.97 h 6.675 v 1.97 h -2.154 v 5.718 h -2.367 v -5.718 z m 6.731,-1.97 h 2.315 l 2.799,7.687 h -2.455 l -0.322,-1.1 h -2.444 l -0.345,1.1 h -2.38 z m 1.862,4.942 -0.688,-2.369 h -0.022 l -0.742,2.369 z m 13.41,-4.942 h 2.368 v 5.717 h 3.402 v 1.971 h -5.771 v -7.688 z m 7.193,1.97 H 417.7 v -1.97 h 6.676 v 1.97 h -2.154 v 5.718 h -2.367 v -5.718 z m 5.396,-1.97 h 3.887 c 2.561,0 3.467,1.894 3.467,3.832 0,2.36 -1.249,3.855 -3.93,3.855 h -3.425 v -7.687 z m 2.369,5.717 h 0.925 c 1.475,0 1.69,-1.194 1.69,-1.917 0,-0.485 -0.15,-1.83 -1.861,-1.83 h -0.753 z m 6.075,-0.16 h 2.24 v 2.13 h -2.24 z"
   style="fill:#dedede"
   id="path9" />
    <path
   d="M 76.055,41.738 H 69.412 L 85.224,14.353 a 17.183,17.183 0 0 1 14.864,-8.61 h 32.674 l -3.32,5.752 h -29.354 a 11.416,11.416 0 0 0 -9.88,5.727 L 76.056,41.738 Z M 93.848,19.317 a 7.21,7.21 0 0 1 6.24,-3.625 h 26.93 l 1.436,-2.487 H 100.09 a 9.703,9.703 0 0 0 -8.398,4.872 l -13.66,23.661 h 2.871 L 93.849,19.317 Z m 2.516,10.565 h 22.462 l 3.884,-6.727 1.182,-2.049 2.14,-3.704 h -25.943 a 5.497,5.497 0 0 0 -4.757,2.764 L 82.877,41.738 h 6.642 z m -51.039,0 c -0.004,0.047 -0.007,0.068 -0.005,0.068 -0.052,0.177 -0.294,0.688 -1.14,2.108 -1.79,3.004 -3.62,6.757 -3.621,11.82 0,9.449 7.688,17.138 17.138,17.138 h 65.256 l -6.774,11.733 h 6.643 l 5.32,-9.216 c 0.5,-0.84 0.763,-1.806 0.763,-2.79 a 5.484,5.484 0 0 0 -5.479,-5.479 H 57.698 c -6.28,0 -11.387,-5.108 -11.387,-11.386 0,-3.453 1.124,-6.045 2.811,-8.874 1.569,-2.634 1.964,-3.543 1.963,-5.395 A 5.484,5.484 0 0 0 45.608,24.132 H 26.333 l 3.32,5.752 h 15.672 z m 78.1,21.185 H 57.697 c -3.964,0 -7.189,-3.226 -7.189,-7.19 0,-2.19 0.602,-4.013 2.218,-6.725 1.738,-2.915 2.556,-4.61 2.556,-7.544 0,-5.334 -4.34,-9.675 -9.675,-9.675 H 19.1 l -0.936,-1.62 -6.287,2.842 9.728,3.118 -1.07,-1.853 h 25.072 c 3.964,0 7.188,3.225 7.188,7.188 0,2.232 -0.496,3.402 -2.205,6.27 -1.849,3.1 -2.568,5.344 -2.568,7.999 0,5.335 4.34,9.676 9.675,9.676 h 65.73 c 3.963,0 7.188,3.225 7.188,7.188 a 7.201,7.201 0 0 1 -1.01,3.677 l -4.809,8.33 h 2.872 l 4.084,-7.074 a 9.676,9.676 0 0 0 1.35,-4.933 c 0,-5.334 -4.34,-9.674 -9.677,-9.674 z M 63.848,62.882 h -6.642 l -5.697,9.867 h 6.642 z m -0.85,9.866 5.697,-9.867 h -2.872 l -5.697,9.867 z M 77.311,62.882 H 70.67 l -5.697,9.867 h 6.642 l 5.697,-9.867 z M 123.425,43.604 H 57.98 c 0.035,-0.42 0.216,-1.053 1.157,-2.632 2.045,-3.43 3.608,-6.446 3.608,-11.364 0,-9.45 -7.687,-17.138 -17.138,-17.138 h -0.45 l -3.79,3.79 -3.79,-3.79 H 19.599 l 3.322,5.752 h 22.684 c 6.28,0 11.386,5.109 11.386,11.386 0,3.475 -1.056,5.498 -2.797,8.42 -1.46,2.448 -1.977,3.978 -1.977,5.85 a 5.485,5.485 0 0 0 5.479,5.478 h 65.729 c 6.279,0 11.386,5.107 11.386,11.385 0,2.04 -0.546,4.041 -1.58,5.79 l -3.59,6.216 h 6.642 l 1.916,-3.318 a 17.137,17.137 0 0 0 2.364,-8.688 c 0,-9.449 -7.687,-17.137 -17.138,-17.137 z M 47.048,11.74 41.366,6.058 35.684,11.74 h 2.639 l 3.043,-3.043 3.044,3.043 z"
   style="fill:#f50019"
   id="path10" />
</svg>
