<?xml version="1.0" encoding="UTF-8" standalone="no"?>
<svg
   height="190.47619"
   viewBox="0 0 400 190.47619048"
   width="400"
   version="1.1"
   id="svg34"
   sodipodi:docname="fm7.svg"
   inkscape:version="1.1 (c68e22c387, 2021-05-23)"
   xmlns:inkscape="http://www.inkscape.org/namespaces/inkscape"
   xmlns:sodipodi="http://sodipodi.sourceforge.net/DTD/sodipodi-0.dtd"
   xmlns="http://www.w3.org/2000/svg"
   xmlns:svg="http://www.w3.org/2000/svg">
  <defs
     id="defs38" />
  <sodipodi:namedview
     id="namedview36"
     pagecolor="#ffffff"
     bordercolor="#666666"
     borderopacity="1.0"
     inkscape:pageshadow="2"
     inkscape:pageopacity="0.0"
     inkscape:pagecheckerboard="0"
     showgrid="false"
     inkscape:zoom="2.645"
     inkscape:cx="-52.741021"
     inkscape:cy="95.085066"
     inkscape:window-width="1366"
     inkscape:window-height="705"
     inkscape:window-x="-8"
     inkscape:window-y="-8"
     inkscape:window-maximized="1"
     inkscape:current-layer="svg34" />
  <g
     fill="#e60012"
     stroke-width="2.16361"
     transform="matrix(.45645455 0 0 .46798775 -104.36852 -327.63464)"
     id="g18">
    <path
       d="m0 0h5.93c1.124 0 2.174-.821 2.231-1.909h.054v4.471h-8.215l-.004 7.848h7.926c1.129 0 2.18-.818 2.239-1.903h.052l-.008 4.474-16.633-.007v-.049c1.12-.061 1.96-1.247 1.96-2.355v-20.559c0-1.104-.84-2.295-1.96-2.358v-.048h8.392v.048c-1.121.063-1.968 1.254-1.968 2.358z"
       transform="matrix(4.2524486 0 0 -4.2524486 426.90617 839.40721)"
       id="path2" />
    <path
       d="m0 0c0-2.638 2.2-4.919 4.915-4.919 2.712 0 4.92 2.311 4.92 4.95v16.112c0 1.108-.843 2.294-1.966 2.355v.048l8.398.008v-.056c-1.121-.061-1.97-1.247-1.97-2.355v-15.656c0-5.039-4.178-7.975-9.36-7.975-5.191 0-9.414 2.936-9.414 7.975l.011 15.656c0 1.108-.847 2.294-1.962 2.355v.056h8.386v-.056c-1.118-.067-1.962-1.254-1.962-2.355z"
       transform="matrix(4.2524486 0 0 -4.2524486 499.9284 863.10481)"
       id="path4" />
    <path
       d="m0 0c-1.407 2.267-4.618 1.994-4.618 1.994-5.252 0-5.004-3.995-5.004-3.995s-.361-2.004 2.278-3.371l5.251-2.782c5.069-2.712 4.468-6.566 4.468-6.566s.229-7.2-10.372-7.2c0 0-3.08-.094-4.824.558l-1.492 4.663h.052c1.615-2.322 6.307-2.657 6.307-2.657 5.957.261 5.998 4.297 5.998 4.297s.268 1.738-2.064 2.997l-5.226 2.781c-5.456 2.907-4.831 6.822-4.831 6.822s-.129 7.083 9.25 7.083c0 0 4.21-.108 4.881-.763l0-3.861z"
       transform="matrix(4.2524486 0 0 -4.2524486 791.71951 801.67904)"
       id="path6" />
    <path
       d="m0 0c.93-.91 2.228-1.469 3.645-1.469 2.855 0 5.166 2.246 5.166 5.022 0 2.768-2.311 5.018-5.166 5.018 0 0-3.977.367-5.767-4.581l.006 3.714c1.332 1.695 3.394 2.927 5.761 2.927 4.028 0 7.287-3.166 7.287-7.078 0-3.906-3.259-7.084-7.287-7.084-2.012 0-3.832.789-5.147 2.076l-2.506 2.739c-.687.667-1.632 1.073-2.668 1.073-2.087 0-3.779-1.64-3.779-3.666 0-2.034 1.692-3.678 3.779-3.678 0 0 2.791-.364 4.554 2.999l.006-2.974c-1.08-1.274-2.729-2.087-4.56-2.087-3.258 0-5.904 2.57-5.904 5.74 0 3.164 2.646 5.728 5.904 5.728 1.623 0 3.097-.634 4.167-1.68z"
       transform="matrix(4.2524486 0 0 -4.2524486 617.71354 746.68978)"
       id="path8" />
    <path
       d="m0 0c0 1.109-.844 2.245-1.963 2.302v.048h8.379v-.048c-1.112-.062-1.96-1.199-1.96-2.302v-20.603c0-1.106.848-2.296 1.96-2.362v-.047h-8.379v.047c1.119.066 1.963 1.256 1.963 2.362z"
       transform="matrix(4.2524486 0 0 -4.2524486 623.42376 794.2313)"
       id="path10" />
    <path
       d="m0 0c0 1.108.842 2.294 1.962 2.355v.049h-8.392v-.049c1.123-.061 1.961-1.247 1.961-2.355l.007-25.757s-.094-4.548-3.758-7.165l.009-.05c.723.118 8.217 1.501 8.217 8.74z"
       transform="matrix(4.2524486 0 0 -4.2524486 601.04863 794.45924)"
       id="path12" />
    <path
       d="m0 0h.05c1.136 1.977 2.888 2 2.888 2h4.543l.003-20.399c0-1.104-.845-2.286-1.964-2.352v-.047h8.403v.047c-1.128.066-1.976 1.256-1.976 2.352l.006 20.399 3.797.009c1.153 0 2.066-.894 2.099-2.009h.046l1.395 4.572h-17.891z"
       transform="matrix(4.2524486 0 0 -4.2524486 650.57479 803.64538)"
       id="path14" />
    <path
       d="m0 0c0-2.638 2.2-4.919 4.916-4.919 2.709 0 4.919 2.311 4.919 4.95v16.112c0 1.108-.844 2.294-1.962 2.355v.048l8.392.008v-.056c-1.113-.061-1.961-1.247-1.961-2.355v-15.656c0-5.039-4.18-7.975-9.37-7.975-5.181 0-9.405 2.936-9.405 7.975l.006 15.656c0 1.108-.845 2.294-1.966 2.355v.056h8.394v-.056c-1.124-.067-1.969-1.254-1.969-2.355z"
       transform="matrix(4.2524486 0 0 -4.2524486 828.40535 863.10481)"
       id="path16" />
  </g>
  <g
     fill="#545454"
     transform="translate(4.797311 57.234099)"
     id="g32">
    <g
       fill="#545454"
       stroke-width=".778237"
       transform="matrix(1.2757325 0 0 1.2942447 -16.632235 37.208728)"
       id="g28">
      <path
         d="m46.5 58v10h-35v-10h8v-39h-7v-12h72v25h-15v-13h-31v15h22v12h-22v12z"
         id="path20" />
      <path
         d="m97.5 57v-39h-7v-11h26.66l16.97 34.9 17.71-34.9h28.66v11h-7l-.01 38.99 6.01.02v10.99h-32v-11l6-.01-.04-23.44-17.3 34.45h-8.32l-18.29-35.3c-.12 7.76-.02 16.53-.05 24.29 2 .01 4 .01 6 .02v10.99h-25v-11z"
         id="path22" />
      <path
         d="m187.5 32h31v11h-31z"
         id="path24" />
      <path
         d="m258.63 22.05c-3.81.56-5.51 4.47-5.28 7.96l-11.85-.01v-22h69v13.67c-6.54 1.89-11.25 6.33-15.21 12.13-6.39 10.15-8.97 22.33-8.79 34.19-7.72 0-15.44.04-23.15-.02 1.32-8.64 3.25-17.28 6.85-25.28 2.8-5.19 7.76-11.52 13.26-15.71 2.37-1.83 4.415-3.48 7.46-4.91z"
         id="path26" />
    </g>
    <path
       d="m279.40067 42.33271h112.54645v87.666069h-112.54645z"
       fill="none"
       opacity=".98"
       stroke="#545454"
       stroke-width="3"
       id="path30" />
  </g>
  <path
     style="fill:#ffffff;stroke-width:0.378072"
     d="m 3.0245747,175.99244 v -6.42722 H 8.1285444 13.232514 V 144.2344 118.90359 H 8.6956522 4.1587902 v -7.56143 -7.56144 H 49.905482 95.652174 v 15.87902 15.87901 h -9.26276 -9.26276 v -8.31758 -8.31758 H 57.088847 37.05104 v 9.82987 9.82987 h 13.988658 13.988657 v 7.56143 7.56144 H 51.039698 37.05104 v 7.93951 7.93951 h 5.103969 5.10397 v 6.42722 6.42722 H 25.141777 3.0245747 Z"
     id="path929" />
  <path
     style="fill:#ffffff;stroke-width:0.378072"
     d="M 103.96975,175.42533 V 168.431 h 4.34783 4.34783 V 142.91115 117.3913 h -4.34783 -4.34783 v -6.80529 -6.80529 h 16.77015 16.77014 l 10.71077,22.32762 c 5.89093,12.2802 10.8454,22.41083 11.00994,22.51252 0.16454,0.10169 5.36362,-9.94574 11.55352,-22.32762 l 11.25436,-22.51252 h 18.05441 18.05441 v 6.80529 6.80529 h -4.34783 -4.34782 v 25.51985 25.51985 h 3.78071 3.78072 v 6.99433 6.99433 h -20.22684 -20.22684 v -6.99433 -6.99433 h 3.78071 3.78072 v -15.33422 c 0,-8.43382 -0.13351,-15.25171 -0.29669,-15.15086 -0.16318,0.10086 -5.21322,10.1487 -11.22231,22.32856 l -10.92561,22.14518 -5.1293,-0.0101 -5.1293,-0.0101 -11.48379,-22.57972 c -6.31609,-12.41885 -11.63272,-22.74135 -11.81475,-22.93889 -0.18967,-0.20584 -0.33095,6.45186 -0.33095,15.59546 V 168.431 h 3.78072 3.78072 v 6.99433 6.99433 h -15.68998 -15.68999 z"
     id="path968" />
  <path
     style="fill:#ffffff;stroke-width:0.378072"
     d="M 103.96975,175.42533 V 168.431 h 4.34783 4.34783 V 142.91115 117.3913 h -4.34783 -4.34783 v -6.80922 -6.80923 l 16.69585,0.0984 16.69584,0.0984 3.89995,8.12855 c 13.47073,28.07657 17.72032,36.67313 18.07434,36.56285 0.21979,-0.0685 5.46918,-10.19456 11.66531,-22.50245 l 11.26568,-22.37798 h 17.94037 17.94036 v 6.80529 6.80529 h -4.34783 -4.34782 v 25.51985 25.51985 h 3.78071 3.78072 v 6.99433 6.99433 h -20.22684 -20.22684 v -6.99433 -6.99433 h 3.78071 3.78072 v -15.31191 c 0,-8.42155 -0.14222,-15.31191 -0.31606,-15.31191 -0.17383,0 -5.29346,10.06243 -11.37695,22.36094 l -11.06089,22.36095 -4.96133,-0.26192 c -2.72873,-0.14406 -4.98075,-0.29628 -5.00448,-0.33826 -0.0237,-0.042 -5.21875,-10.24174 -11.54448,-22.66613 -6.32573,-12.42439 -11.62895,-22.58979 -11.78492,-22.58979 -0.15598,0 -0.28359,7.14556 -0.28359,15.87901 V 168.431 h 3.78072 3.78072 v 6.99433 6.99433 h -15.68998 -15.68999 z"
     id="path1007" />
  <path
     style="fill:#ffffff;stroke-width:0.378072"
     d="m 227.59924,142.91115 v -6.99433 h 19.4707 19.4707 v 6.99433 6.99433 h -19.4707 -19.4707 z"
     id="path1046" />
  <path
     style="fill:#ffffff;stroke-width:0.378072"
     d="m 324.38563,182.06676 c 0,-0.1941 0.43068,-2.70355 0.95707,-5.57656 2.8787,-15.71186 6.55482,-25.91258 12.16794,-33.76433 4.69699,-6.57024 13.23245,-14.50798 19.81958,-18.43165 l 2.38539,-1.42087 -20.78408,-0.10338 c -23.3044,-0.11592 -22.81267,-0.16573 -25.27557,2.5604 -1.38767,1.53598 -2.50284,4.51472 -2.50284,6.68532 v 1.25463 h -7.3724 -7.3724 v -14.17769 -14.1777 h 43.8633 43.8633 l -0.10149,8.72388 -0.10148,8.72388 -2.68432,1.04416 c -9.61464,3.73998 -18.24393,14.46908 -23.13701,28.76706 -2.76938,8.09237 -4.07185,15.25517 -4.4858,24.66919 l -0.24521,5.57656 h -14.49699 c -8.72333,0 -14.49699,-0.14055 -14.49699,-0.3529 z"
     id="path1085" />
  <path
     style="fill:#ffffff;stroke-width:0.378072"
     d="M 282.79773,143.28922 V 98.109641 h 57.65596 57.65595 v 45.179579 45.17959 h -57.65595 -57.65596 z m 112.66541,0 v -42.53308 h -55.00945 -55.00946 v 42.53308 42.53309 h 55.00946 55.00945 z"
     id="path1163" />
</svg>
