<?xml version="1.0" encoding="UTF-8" standalone="no"?>
<svg
   height="160.71"
   viewBox="0 0 427.861 192.851"
   width="356.551"
   version="1.1"
   id="svg36"
   sodipodi:docname="gamepock-w.svg"
   inkscape:version="1.1 (c68e22c387, 2021-05-23)"
   xmlns:inkscape="http://www.inkscape.org/namespaces/inkscape"
   xmlns:sodipodi="http://sodipodi.sourceforge.net/DTD/sodipodi-0.dtd"
   xmlns="http://www.w3.org/2000/svg"
   xmlns:svg="http://www.w3.org/2000/svg">
  <defs
     id="defs40" />
  <sodipodi:namedview
     id="namedview38"
     pagecolor="#ffffff"
     bordercolor="#666666"
     borderopacity="1.0"
     inkscape:pageshadow="2"
     inkscape:pageopacity="0.0"
     inkscape:pagecheckerboard="0"
     showgrid="false"
     inkscape:zoom="5.934635"
     inkscape:cx="105.06122"
     inkscape:cy="40.69332"
     inkscape:window-width="1920"
     inkscape:window-height="1017"
     inkscape:window-x="-8"
     inkscape:window-y="712"
     inkscape:window-maximized="1"
     inkscape:current-layer="svg36" />
  <g
     transform="translate(-.619 -10.658)"
     id="g34">
    <text
       fill="#ef00eb"
       font-family="TrasksHand"
       font-size="2.4"
       stroke="#0105ff"
       stroke-width="3"
       x="311.897"
       y="76.231"
       id="text4"><tspan
         fill="#fafafa"
         fill-opacity=".4"
         stroke="none"
         x="311.897"
         y="76.231"
         id="tspan2">John Loreth 2022</tspan></text>
    <g
       fill="#666"
       id="g10">
      <path
         d="M24.059 194.897c0-3.494-1.92-4.907-5.52-4.907h-7.814v3.44h6.827c.773 0 1.28.24 1.28 1.493 0 1.094-.4 1.494-1.253 1.494H9.525c-2.533 0-3.226-.56-3.226-4.614 0-3.866.666-4.613 3.226-4.613h13.707v-4.107H5.925c-3.413 0-5.306 2-5.306 5.307v6.827c0 3.306 1.893 5.306 5.306 5.306H18.54c3.6 0 5.52-1.76 5.52-5.626zM49.38 195.217v-6.827c0-3.307-1.92-5.307-5.307-5.307H26.767v4.107h13.68c2.586 0 3.226.747 3.226 4.613 0 4.054-.693 4.614-3.226 4.614h-8.054c-.853 0-1.253-.4-1.253-1.494 0-1.253.507-1.493 1.28-1.493h10.16v-3.44H31.433c-3.6 0-5.493 1.413-5.493 4.907 0 3.866 1.893 5.626 5.493 5.626h12.64c3.387 0 5.307-2 5.307-5.306zM82.997 200.523V188.39c0-3.307-1.894-5.307-5.307-5.307H50.917v17.44h5.813v-11.84c0-1.333.16-1.493 1.253-1.493h4.827c1.067 0 1.253.16 1.253 1.493v11.84h5.787v-11.84c0-1.333.187-1.493 1.253-1.493h4.827c1.093 0 1.253.16 1.253 1.493v11.84zM108.357 188.71c0-3.867-1.92-5.627-5.52-5.627H90.223c-3.413 0-5.306 2-5.306 5.307v6.827c0 3.306 1.893 5.306 5.306 5.306h17.307v-4.106H93.823c-2.56 0-3.226-.747-3.226-4.587 0-4.053.693-4.64 3.226-4.64h8.054c.853 0 1.253.4 1.253 1.493 0 1.254-.507 1.494-1.28 1.494H91.717v3.44h11.12c3.6 0 5.52-1.414 5.52-4.907zM161.489 195.217v-6.827c0-3.307-1.893-5.307-5.28-5.307h-12.88c-3.413 0-5.307 2-5.307 5.307v6.827c0 3.306 1.894 5.306 5.307 5.306h12.88c3.387 0 5.28-2 5.28-5.306zm-5.68-3.414c0 4.107-.747 4.614-3.227 4.614h-5.653c-2.533 0-3.227-.56-3.227-4.614 0-3.866.667-4.613 3.227-4.613h5.653c2.48 0 3.227.587 3.227 4.613zM182.879 200.523v-4.106h-10.386c-2.498 0-3.182-.56-3.182-4.614 0-3.866.657-4.613 3.182-4.613h10.386v-4.107h-13.936c-3.366 0-5.233 2-5.233 5.307v6.827c0 3.306 1.867 5.306 5.233 5.306zM208.543 183.049l-6.785.034-3.526 7.334c-.406.844-.297 1.253-1.298 1.253h-4.743v4.347h4.925c.974 0 1.11.106 1.407 1.146l2.35 3.36h6.696l-4.188-4.94c-.873-1.536-.964-1.562.227-3.56zm-17.596 17.474v-20.426h-5.895v20.426z"
         id="path6" />
      <path
         d="M231.558 188.71c0-3.867-1.92-5.627-5.52-5.627h-12.613c-3.414 0-5.307 2-5.307 5.307v6.827c0 3.306 1.893 5.306 5.307 5.306h17.307v-4.106h-13.707c-2.56 0-3.227-.747-3.227-4.587 0-4.053.693-4.64 3.227-4.64h8.053c.854 0 1.254.4 1.254 1.493 0 1.254-.507 1.494-1.28 1.494h-10.134v3.44h11.12c3.6 0 5.52-1.414 5.52-4.907zM243.597 200.523v-4.106h-2.106c-2.267 0-2.694-.534-2.694-2.96v-6.267h4.8v-4.107h-4.8v-2.986h-5.813v15.12c0 3.306 1.893 5.306 5.307 5.306zM270.258 200.523v-4.106h-10.386c-2.498 0-3.182-.56-3.182-4.614 0-3.866.658-4.613 3.182-4.613h10.386v-4.107h-13.936c-3.365 0-5.232 2-5.232 5.307v6.827c0 3.306 1.867 5.306 5.232 5.306zM295.89 195.217v-6.827c0-3.307-1.893-5.307-5.28-5.307h-12.88c-3.413 0-5.306 2-5.306 5.307v6.827c0 3.306 1.893 5.306 5.306 5.306h12.88c3.387 0 5.28-2 5.28-5.306zm-5.68-3.414c0 4.107-.746 4.614-3.226 4.614h-5.654c-2.533 0-3.226-.56-3.226-4.614 0-3.866.666-4.613 3.226-4.613h5.654c2.48 0 3.226.587 3.226 4.613zM329.713 200.523V188.08c0-3.392-1.894-5.443-5.307-5.443h-26.773v17.887h5.813V188.38c0-1.367.16-1.531 1.253-1.531h4.827c1.067 0 1.253.164 1.253 1.531v12.144h5.787V188.38c0-1.367.187-1.531 1.253-1.531h4.827c1.093 0 1.253.164 1.253 1.531v12.144zM355.324 194.947v-7.049c0-3.414-1.937-5.48-5.4-5.48h-13.172c-3.49 0-5.427 2.066-5.427 5.48v15.612h5.945v-13.795c0-2.505.436-3.056 2.754-3.056h6.191c2.536 0 3.3.606 3.3 4.763 0 4.24-.764 4.764-3.3 4.764h-7.99v4.24h11.699c3.463 0 5.4-2.065 5.4-5.48zM379.844 194.947v-12.528H373.9v10.71c0 2.506-.436 3.057-2.755 3.057h-5.7c-2.317 0-2.754-.55-2.754-3.056v-10.711h-5.945v12.528c0 3.414 1.936 5.48 5.427 5.48h12.245c3.49 0 5.427-2.066 5.427-5.48zM391.597 200.523v-4.287h-2.106c-2.267 0-2.694-.557-2.694-3.09v-6.542h4.8v-4.287h-4.8v-3.118h-5.813v15.784c0 3.452 1.893 5.54 5.307 5.54zM416.443 188.189c0-4.038-1.92-5.875-5.52-5.875H398.31c-3.414 0-5.307 2.088-5.307 5.54v7.128c0 3.453 1.893 5.541 5.307 5.541h17.306v-4.288H401.91c-2.56 0-3.227-.78-3.227-4.789 0-4.232.693-4.844 3.227-4.844h8.053c.853 0 1.253.417 1.253 1.559 0 1.308-.506 1.559-1.28 1.559h-10.133v3.592h11.12c3.6 0 5.52-1.476 5.52-5.123zM428.48 186.602v-4.288h-5.307c-3.413 0-5.307 2.088-5.307 5.54v12.67h5.814v-10.832c0-2.534.426-3.09 2.693-3.09zM136.129 189.345c0-4.718-3.032-6.61-5.983-6.61h-10.503c-3.465 0-5.387 2.057-5.387 5.458v12.562h5.901v-12.26c0-1.372.163-1.536 1.273-1.536h6.497c1.543 0 2.463.685 2.463 2.304 0 1.618-.92 2.358-2.463 2.358h-6.633v4.307h8.852c2.951 0 5.983-1.865 5.983-6.583z"
         id="path8" />
    </g>
    <path
       d="M34.559 12.28a1 1 0 0 0-1 1v3.315l-.828.971h-4.924a1 1 0 1 0 0 2h4.637l1.115 1.017v13.013a1 1 0 1 0 2 0V20.56l1.082-.995h5.603a1 1 0 1 0 0-2h-5.692l-.993-1.03V13.28a1 1 0 0 0-1-1z"
       fill="#666"
       id="path12" />
    <circle
       cx="40.689"
       cy="13.376"
       fill="#666"
       r="1.5"
       id="circle14" />
    <g
       stroke-linecap="round"
       stroke-linejoin="round"
       id="g30">
      <path
         d="M40.687 13.202v5.272"
         fill="none"
         stroke="#666"
         stroke-width="1.5"
         id="path16" />
      <path
         d="M56.823 31.207c6.898-1.83 6.92-6.992 7.55-11.896m-5.615-.631c.006.934-.005 1.832.325 3.45m-5.868-2.346c.349.373.694.616 1.124 3.52M80.375 16.97l9.275-.423C88.537 24.19 85.446 29.645 78.926 32.2m-2.635-9.51c1.813-2.072 3.623-3.776 5.191-9.16"
         fill="none"
         stroke="#666"
         stroke-width="2"
         id="path18" />
      <path
         d="M101.822 11.518a1 1 0 0 0-1.004.994l-.015 3.113c-.809.17-1.599.462-2.307 1.021a1 1 0 1 0 1.24 1.57c.335-.264.703-.29 1.055-.423l-.027 5.297c-.689.837-1.314 1.575-2.653 2.982a1 1 0 0 0 .446 1.65c.773.226 1.502.16 2.183-.02l-.029 5.821a1 1 0 0 0 2 .012l.037-7.213c.254-.267.512-.247.7-.545.347.282.684.325 1.099.573a1 1 0 1 0 1.023-1.72c-.132-.078-.738-.571-1.216-.937-.24-.182-.385-.337-.791-.486-.05-.018-.157-.022-.229-.037.026-.04.086-.085.111-.125.126-1.184.844-2.396 1.49-3.996.231-.574.35-1.054.41-1.89a1 1 0 0 0-.572-1.085c-.63-.286-1.305-.288-1.97-.379l.015-3.174a1 1 0 0 0-.996-1.003z"
         fill="#666"
         id="path20" />
      <path
         d="m107.219 18.937 6.855.031m-7.649 13.135 8.145-.039m-4.11-18.922-.19 18.79M131.324 14.913c-.796 5.74-1.109 11.643-4.846 15.762-2.879 2.656-6.535-14.225 3.762-16.56 12.517.71 7.378 17.296 2.384 17.799M148.14 18.976l12.225-.128-.2 9.756c-.573 2.896-2.029 2.354-3.195 2.69m-8.65.074c3.904-3.147 6.04-5.552 5.703-18.181M170.635 18.498h13.885c-.34 2.388-1.661 4.526-4.074 6.385m-5.789-12.039V28.53c.058 1.1-.105 2.511 2.607 2.408l7.313-.127M200.308 30.961c6.898-1.83 6.921-6.992 7.55-11.896m-5.615-.63c.006.933-.005 1.831.325 3.45m-5.868-2.347c.35.373.694.617 1.125 3.52M221.658 19.838c2.166.46 5.409 2.336 10.811 7.047m-10.796 6.753V12.176M243.363 30.938l6.52-1.558m-2.991-7.26.068 7.343m-3.377-7.24 5.847-.147m2.922-10.418c1.226 12.964 1.647 19.646 3.546 20.44 1.43-1.105 2.159-2.04 2.692-3.842l-.379-1.034m-15.459-10.627 14.804-.045c.277-1.194.201-2.388-.411-3.582M276.643 18.517l-.73 6.192c-1.876 4.603-3.669 4.84-5.491 6.66m-.31-13.61 10.887.368m-14.708 4.564c1.813-2.073 3.623-3.777 5.191-9.161M289.896 21.704h15.53M324.486 21.203l4.93 10.629m-1.69-3.082c-4.66.576-9.057 1.532-14.069 1.582m6.56-17.054c-1.095 6.14-3.142 11.243-4.713 16.865M339.918 30.847c6.476-.574 11.856-7.03 12.023-12.529m-11.606-3.776c.747.56 1.455 1.112 2.943 1.829m-4.867 4.143c.51.045.928-.004 3.186 1.87M369.19 23.536l6.456 7.37M363.04 14.816l9.51-.255c-.921 5.892-4.398 11.192-10.023 15.965M393.643 21.354c.512 5.087-1.694 9.991-4.651 10.23m-3.546-10.914h14.867m-12.932-6.2h10.734M415.467 13.277l-4.707 16.846c1.57-5.614 3.612-10.712 4.707-16.846zm-4.707 16.846-1.854.209c5.012-.05 9.41-1.005 14.07-1.582zm8.976-8.92 4.93 10.629z"
         fill="none"
         stroke="#666"
         stroke-width="2"
         id="path22" />
      <path
         d="M27.48 31.438c1.303-2.432 2.532-4.91 3.424-7.602m7.87-.061c.73 2.986 1.742 5.262 2.801 7.419"
         fill="#f06"
         fill-opacity=".437"
         stroke="#666"
         stroke-width="2"
         id="path24" />
      <path
         d="M4.285 16.74h13.123zm6.426.147v13.002zM2.813 30.03H18.69z"
         fill="#f0f"
         stroke="#666"
         stroke-width="2"
         id="path26" />
      <path
         d="m277.73 13.452 3.364.424.247-1.23m-3.042 1.283.104 3.608"
         fill="none"
         stroke="#666"
         stroke-width="1.5"
         id="path28" />
    </g>
    <path
       d="m36.921 157.542-.397.004 1.024-.71 1.705-1.709-2.39-1.55 1.226-2.467-1.306-1.295.035.72-3.612 3.11-4.444 1.351-1.058.942.168-.559-1.662-2.313.025-2.039.718 2.317.91-1.492 3.766-2.743 3.098-2.102.157-1.697.355-.018-.163-2.138 1.487-5.261.195 1.302 2.905.376-.57-5.289 1.712-3.019 1.645.435-1.072 1.096 1.942-.705-1.254.057.904-2.645 1.941-2.418 2.907-5.526 1.28-6.399-2.545-1.41-1.42-1.433-.162.876.836-.024-.119-.197.811-3.28-1.485-3.8.156-3.593-1.698-.916-1.504.175-.38 2.056-1.8 2.143 2.325-.175-1.865 1.54-1.52 5.131-3.152 4.258-3 .834-1.601-.353-1.773-1.96-.016.077-1.2-.402-3.017 2.495-.538-.813 1.067 1.962-3.13.656-1.238-1.708.362-1.587-1.675-.423.093-1.216.988-.705 2.758-3.423.389-4.13 1.2-2.15.518 2.465.088-7.555 1.454-4.276-1.589-2.37 1.715-2.834.492-.66.352-4.677.291-.324 2.091-3.863-2.01 2.173-.432-.695-1.75-3.905L28 75.987l-.074-.621.821-.255 1.87-.985 1.436-1.975-3.73-1.228-.926-2.305-.166.52 1.457-3.328 1.406-1.15 4.358-2.616 1.58-.434 1.52-2.017 3.232 1.032 2.15.584 1.466 2.856 2.628-.61-.492 3.528-.435.65.898.164.298-1.196 1.845 2.98 3.88 2.728-.198.29-.849-.37-2.99 3.125-3.923 2.65 2.59 1.181 1.381.425-.492 1.82 2.402-2.639 10.183.063 10.176-.071 2.139-.461 2.302-.53-.338 1.604-.375.113 1.32 3.75 1.017 1.468.227 3.059.445 1.381.066-.27.112 5.302-6.515-1.945-5.366.292 1.417 3.053-2.755-1.958 1.558-1.134 1.41 2.254-1.002 2.317 1.413 1.08-3.018-.376-.545-.291-.499 1.346.613 2.14-1.323 9.491 1.152 9.659-.72 4.198.036 4.646-1.925 2.587-.02 3.762-2.548 2.465-2.835 5.643-4.114 4.181-4.348 5.9-4.032 2.923-4.138 1.391-.774-3.408-1.53 1.188.958 2.119-.162 1.86zm316.32-2.577-1.526.047-1.649-1.819-5.001-4.117.529-3.44-.601-2.684.855-3.842.57-3.64 1.512.589-4.011-.651 2.492-3.15 1.74-5.932-1.529 1.756 1.319-1.459 5.3-3.875 1.56-1.118 6.9-1.015 6.366 1.699-1.297-.682 1.717-3.292 2.109.994 4.671-2.239.639-2.494 4.444-3.693 2.36 1.212 1.767-2.373 2.353-2.672 2.482-2.289 4.02-.446 2.541-.132.383-.522-1.989-2.234 6.102-3.058 3.893-3.06 2.083 1.598.068.576-1.973 2.577-2.219 1.001.004-.324.081 2.149 3.342-.576-.515-.432 1.412 1.374 1.749.136-2.684 1.967-1.836 5.455-.294 1.323-1.971.969-1.458-.778-4.128 1.233-.019.338.633.78-.464 3.463-.091 2.519-3.129 1.861-3.003-2.141 2.319.826-1.182 2.851-1.808.152 1.23 3.4-2.201-.241-3.538-.086-3.449 4.399-4.687 6.15-2.552.981-.009.302-1.734.806-2.324 2.09.916.764.01-.307-1.58.898-1.382.808-3.594 5.451-2.106 2.462-1.838.564-4.731 2.467-1.354-1.107zm-158.876-1.595-1.533.88.184-2.46-1.138.065.918-6.477-.249-4.565.01-3.034 1.272-2.981-.457-1.073-.733-.808-.265-9.132.924-7.176-.933-2.505-1.443-.188-1.112 2.523-1.277 1.843-.531 3.118-1.011 3.724-.331 4.122-1.089.596-2.298.569-.752.188-1.585-.243.199 3.602-.296.376-.126 1.471 1.855.352-.985 1.024 1.449-3.714-1.306-.629 2.381-.489.296 1.915-2.823 2.325-1.633 5.527.574 1.167-.759 2.627-.074 2.968-1.498 1.93-1.792.96-2.305-1.915.935-1.985-1.28-.842-.857-.952.729-1.93-.446-1.453-2.285-.051-.925-5.129-.126-2.663-.126-.01.474 1.148 1.407-4.358-.503-2.852 2.039-.565 1.626-2.442-.312-.789 2.139-3.905-1.475-1.288-2.682-3.447 1.304-1.86.835-5.148 2.148-1.657 2.524-2.063.206-2.052-1.253-1.722-3.717-.907-1.206 1.276-3.985-1.945-2.874-4.152 1.945-4.738-1.611-6.75 3.541-.749 1.375-2.111-.323.053.232-.789-.243.795 3.746-.903.02-1.313-1.465-1.706 9.168 1.36 9.906-1.198-1.281-2.842-1.249-3.624-.437.394-3.104-1.406.617-2.982.001-2.537 2.002-2.507 2.442-.863 3.6-1.843 3.76-3.369-.204-.01 2.125-2.43.724 1.343 1.179 1.61-1.116.754-.402-.252 4.351 2.547 1.46 1.817 1.515 1.703 2.424 5.013-.352 3.85-3.201 2.828 1.942.835 1.377 1.026.825.464 3.165-2.48 2.439-.869 1.82.883 3.86-.25 5.981 3.968 2.382 2.3-1.755-1.51 1.779 3.068 1.981 2.925-.951 1.11.442.656-1.587-1.145.859 1.429-3.976 3.301-.379 4.531-.06-1.791-1.145 1.013.663.36.016 2.29-3.277-2.522-3.098.563 2.659 2.033-2.808.93-5.643.033-4.709-.196-1.09.13-1.397 1.465 1.876 3.288-1.029 3.772-1.569 11.818 1.129 7.291-.983 4.757-1.401 3.627.631 2.244.387 6.289-1.289 3.204-.208 6.501-1.722-1.001-2.625-1.189-1.377.456-1.408-.154-.766-5.429-1.449-3.239.61-1.757-.312 2.093-1.2 2.716-.377.955-.137 3.021-.269 4.534zm-3.836-47.333 1.059-.201 2.295-2.219-1.122-2.413-.685-.591-2.759-2.459-4.782 2.303-3.86.027.029.046.126.02.869.804.539 1.955 1.824-.338 3.35.698.809 1.883 2.449.221-.636.644zm54.949 46.557-1.978 1.472-1.067-3.924.107-2.43 3.866-4.592 3.207-9.74 1.118 1.454-3.932-1.038 5.449-2.861 1.293-2.471 1.662-2.489-.476-.169.592-2.424.788-.863 1.476-10.292 1.48-10.372-1.31-1.829.986-1.914-3.796.303-1.823.323-1.449.329-2.768 2.523.179 1.016.218.622-1.766 2.958-.408 1.011-3.447 3.245 1.158 3.771-2.526-.243-1.771.25-.405-1.146.725-1.339-1.417-1.564.722-3.469.979-1.947 2.065-2.497-1.354-.732-.443-1.523-2.037 3.264-2.729 3.117-1.721-1.989-2.123 1.29 2.584-5.893 3.32-3.843 1.239-3.583-3.102-2.79 1.608.902 2.93-1.757-1.37-4.029.416-5.521 1.453.34-.407.358 1.092-4.521-.449-5.59 4.408-1.11.468-1.798 3.559-2.134 5.153-.064 2.127-.386 1.937 1.088-1.556.488 4.399-1.631.631 2.752.64 1.194.764 5.394.105 2.472-1.428 1.379-2.66 1.51 1.897 2.43-1.424 1.214 1.589-2.017 1.548.692 1.152.034-3.585 1.563 3.341-2.886 2.672-.345 8.695-.996 10.513.08-1.229 2.571-.207-1.758-1.94 2.775-1.099-.819-.401 2.198 1.873 3.834-1.991-.109-2.941 2.732 2.385 2.166 5.186-.394-.241 1.596.935 1.951-.855-.622.79 1.935-6.31-.47-4.738 2.396-.933-.873-.466 1.53-.847 2.904 2.342 3.515-.531-.546-2.364-.854-1.434 5.943.835 3.344-2.073 5.617-.006 2.007-.22 1.241 2.636 1.922-1.048 1.12.446 1.258-4.575 2.143-2.016 2.236.612 1.037.686 1.473-1.165.029-.114 2.123-.659 1.156 1.701-1.309-3.512 2.402-1.779 4.305-1.37 1.316 2.041 1.798-3.159-.208.252 1.113-3.191 1.913-1.281.048-1.987.894 2.04 2.727-4.143 1.499-1.326-.508-1.881-1.442 1.427-3.084-2.574 2.152-1.149.462.981 1.424-1.004.594-1.045-.327zm58.583-1.587-2.306.019-.565.875-2.171-.513-2.595-4.254-3.715-2.035 1.243-4.509.967-.122-4.561-1.18.92.546 1.825-3.722 1.304-1.584-.189-.28.239-1.633-.973 2.351-4.349.646 2.132-2.764 1.128-2.877 1.433-2.534.108 1.237 2.683-1.717 2.455-.747 9.424-1.069 11.906 1.845.498-1.348 3.251.376-3.644-3.55-.195-1.267 2.376-8.094-.864-8.166 1.304-.561.046-1.864-1.037-1.955-3.881-3.07-.972.273-2.716.19-.244 2.598-2.991.325-1.13-2.242-1.172-.236-1.019 1.35 3.031.39-4.74.964-2.563.776-2.755 1.726-2.033-.9-3.87-2.092-1.582 2.438-.33-2.803 1.493-3.32-1.45.657-1.138-2.924 1.498-1.159-.501.018-.423-2.1-3.299.975 1.676-4.396.75-4.203 5.234-3.455 1.546-3.019 3.583-1.433h1.631l3.134 1.518 2.841 1.534 8.065-1.007 10.519 1.382-1.87-1.742.917-.48 7.327.06 3.489-.426.861 4.018.889 2.775 1.848 3.587 1.583.79-.714 4.882.141 1.84-2.212 2.499-2.211 4.086-.47 7.782.931 5.444-2.079 1.013-.108 1.294-.29 2.244-1.065.872 2.252 4.054-.668 1.5 2.21 3.571 2.185 1.397-.162 1.063.142 1.775-.364 5.222-2.043 6.991-1.824.609-1.812 2.144-5.143-2.028-6.12-.222-2.671 1.458-3.158-1.298-3.94 1.342-6.386.612-1.42.234-1.361 4.445-.143-2.63zm24.789-26.259 3.161 2.035-2.184-1.239.698-3.02-1.358 2.11-1.478-1.629 2.032.89-.57 1.223zm3.248-4.178-.729-.544.406-3.314-.302-3.103-.615-.755-1.163-.554.543.918.188 3.705c-.768.802 1.777 1.776-2.304 2.406l2.673.828zM226.95 148.74l-1.171.053.914-4.103-.611-.909-.988-.203-1.848 1.025-1.179-2.466-2.994-1.79 1.598-1.748 1.416-.72-1.062-1.842-1.756.439-.704-1.222.105-3.837-2.942-2.255-.717-2.433 1.068-.116 1.072.581-2.418-3.627-.988-3.595-1.33 1.194.56-.759-1.677-6.917 1.692-5.379 2.621-2.583 2.083-2.839 1.977 2.021 1.42 2.481 3.774-2.042 1.491.262 1.151 1.093 1.725 1 2.037 4.625-1.786 3.795 1.792 9.518.034 6.862 2.638 2.934-.183 2.994-3.821 3.236-2.76 2.893 2.414 2.946-1.355-1.426-.092 1.155zm-110.542-3.739-4.858-.433.136-.859-2.278-.823-1.361-1.513 1.059-2.138-2.004.906-.735-1.321-.732-.745-1.179-.474.408-2.569 1.431-2.629 1.435-1.575 1.978-3.134-.699 1.484-3.024-2.36 3.647-1.257.245-.93 3.29-2.245 1.279.584.952-4.29 3.297-2.365.278-1.709.509-2.382.082-.889 2.263-1.89-1.144-4.508 1.077-4.644 1.187-7.223 1.224-9.12.012-2.852 1.383-.62.582-.94-1.474-3.656 1.778-5.439 4.051-4.88 1.477-.691 3.671.795 1.365-.947 4.071-.84.124 2.974-1.586 1.125.44 2.42-1.149 1.538.608.91.355.693 2.809-2.863 2.116-1.021 1.023 3.458 2.454.51.9 1.346-1.067 1.774.75 2.192-.202.875-1.416 5.147-1.299 1.883-.592-2.516 2.163-.622-1.99 1.533-2.742 2.563-.795 4.37-.65 2.556.468-1.184-3.071 1.149-.345 1.64.437-.657 1.737 1.079.768 1.591-1.147.621.239 2.44-1.841.846-1.953 3.217-.422 1.916-.806.534-1.351 4.421-1.746 3.807.869 1.223-.168 1.157-1.792 1.289-.589-.273-1.342 1.73 1.141 3.052 3.178-2.309 2.951 1.687 2.55-.759 1.495-.885 2.583-1.757-2.282-.355 2.317-1.875.269-1.68-1.285-1.713-2.553-1.311 1.476-2.234 2.355-4.062 2.896-2.315 1.474-.981 3.946.075 3.821-1.57 2.841 5.102 2.209 4.227 1.501 4.257-1.922 4.249 1.482 3.289 1.647.262.306 3.195 1.443 4.008-.246.992 1.944 1.518-2.022 3.898.583 4.209-3.808-.166-.667-.142-1.097 3.022-.449-.171-3.37.136-3.862.691-2.633-1.811-.977.317-.667-2.408 1.588-1.077-.734 1.229-2.093-1.093-1.002-2.972 2.233-1.277-4.608-.316-.216.246.113 1.575-.451.292.214.161-2.258-1.581-5.547 1.847-6.09 2.454-1.452 1.175-2.866 2.722-2.284-1.453-1.679 1.289-4.188.046zm-35.897-27.268-2.96 1.347-2.321-3.691-2.73-2.653 3.424-2.185-3.223-2.881-.3-.151 1.675-1.229-3.25.869-.317.828.506-4.828 2.32-2.862.326-.259-1.434-1.161 2.067-.574 3.355-.722-1.799.702 2.358-2.456 3.736 1.742 2.074-2.536L90.05 97l4.827-1.357 7.911 1.334 9.96-.821.278.384.716 1.623-2.28 3.224.351-.268.32.576 1.613 1.599-3.731.868-1.14 2.862-.806.249 1.023.136 1.884.484 3.886-3.572-1.073 3.972 1.389 1.303-2.349.142-2.772.045-1.356 3.044-2.264.391-7.142 1.123-4.363.268-5.597-.974-6.246 2.365-.656-.004.791 1.645-4.316-.242zm35.741-11.7-.423 1.007-.072-2.519-.325 3.588-.859-1.146 3.403-.644-1.986.532.726 1.685zm252.39-4.654-4.949-.59-2.996-.975-2.635-3.135-.536-.305-2.967 1.508-1.707-1.86-1.204-1.968-2.181-4.683-3.562-1.78.053-5.553 2.955-4.768.615-2.857 1.598-3.176 4.413-1.59 5.403-4.057 2.732 1.77 2.642.365 2.553.265.326-1.829 2.281 1.89 4.839 2.686.717 2.556-.785 2 1.936 1.517.95.15-1.179.894.309 2.512-2.348 6.952 1.66 4.573-1.761 1.598-1.742-.897.107 4.458 1.09 1.684-2.892-.67-2.209 2.053zm-297.38-2.764L69.22 97.05l.39-1.754-.577-.687.587.161 2.74-.21-1.068 2.596 1.12.179zm9.004-17.036L78.3 80.72l-.319-1.276-1.627-1.24 1.696-.901 2.68-.835-.427 2.267 1.716-.373.554-.634-2.046 2.322zm-9.823-10.812-6.58 1.875-1.554-3.677-.67-3.25.62-1.58 2.106.1-1.661-.592-.257-2.148 3.576-.224 3.407-3.827-2.677.37 2.265.218.527-.468 2.526.046 2.184 2.61 2.986-.084.4 5.205 2.64 4.827-1.69.98-.806 1.077zm159.009.617-4.222 1.506-.545-2.139-1.719.225-1.013-2.118-1.715-.03-2.906-.6.49-2.115.223-2.024-1.516-3.873.171-1.944-1.06-3.442 5.429-1.687 5.393-3.933 1.183-.858 5.042-1.055.497 1.458 2.709 3.25-.145 2.435-.113-1.425 3.099 1.87.291.67.313 3.4-.976 2.967-1.828 1.896-.966.588.654.534.244 3.547-2.546.455-1.425 2.064zm-.44-9.672-.079.577.054-.823.499-4.511-2.155 1.144.012-.746-3.972 1.61 1.045 2.317-2.655.121 1.263-.01 3.221.791 2.181.398-.765 1.268zM86.464 68.404l-1.846 1.817-2.174-2.433-.273-1.606.205.005-.085-2.07-1.146 1.272.672-1.001-1.796-1.932 1.049-1.577 2.227-2.653 1.082-2.426 2.261.861 2.23-.549.412 1.992 2.736-1.466-1.525 5.136.674.871 1.11-.356 1.94 1.075.483 1.675-1.128-.861-1.648 3.03-3.956 2.84z"
       fill="#d09607"
       id="path32" />
  </g>
  <path
     style="fill:#ffffff;fill-opacity:0.941176;stroke-width:0.168502"
     d="m 3.6192475,158.06527 c -0.941252,-0.14724 -2.0355947,-0.64931 -2.4754206,-1.13567 -0.15864378,-0.17543 -0.46147871,-0.69533 -0.67296655,-1.15532 -0.36406886,-0.79187 -0.38457882,-1.03804 -0.38556626,-4.62766 -0.0011743,-4.26884 0.11970834,-4.98035 1.02604671,-6.0392 1.1097176,-1.29645 1.0211862,-1.28434 9.7991872,-1.34062 l 7.793234,-0.05 v 1.69286 1.69286 l -6.276713,6.3e-4 c -5.9195254,5.9e-4 -6.3072884,0.0193 -6.814005,0.32824 -0.7148192,0.43586 -0.8930984,1.14384 -0.8930984,3.54669 0,2.40284 0.1782792,3.11082 0.8930984,3.54668 0.4943372,0.30142 0.8748666,0.32766 4.759771,0.32824 4.861178,7.2e-4 4.848565,0.004 4.848565,-1.24731 0,-1.32237 -0.08654,-1.35563 -3.684572,-1.41639 l -3.11169,-0.0525 v -1.35512 -1.35512 l 4.001931,0.0754 c 4.225037,0.0796 4.704847,0.15752 5.749105,0.93353 0.927195,0.68901 1.251947,1.65899 1.171472,3.499 -0.05962,1.36304 -0.130547,1.66047 -0.566633,2.37603 -0.38874,0.63786 -0.721073,0.92923 -1.509501,1.32345 l -1.011014,0.50551 -5.897583,0.0291 c -3.2436703,0.016 -6.2783117,-0.0305 -6.7436475,-0.10327 z"
     id="path894"
     transform="matrix(1.1999995,0,0,1.1999995,0,-4.6034136e-4)" />
  <path
     style="fill:#ffffff;fill-opacity:0.941176;stroke-width:0.168502"
     d="m 24.723835,158.06229 c -2.177153,-0.29516 -3.357813,-1.67539 -3.466616,-4.0526 -0.07765,-1.69646 0.190981,-2.63111 0.969199,-3.37218 1.051116,-1.00095 1.383027,-1.05241 7.303621,-1.13229 l 5.34995,-0.0722 v 1.35444 1.35444 l -4.459575,0.05 c -5.116823,0.0573 -5.039071,0.0353 -5.018103,1.42235 0.0085,0.5633 0.101085,0.86622 0.311788,1.02029 0.227123,0.16608 1.321954,0.21898 4.522155,0.2185 3.889663,-5.7e-4 4.264968,-0.0265 4.761547,-0.32932 0.758915,-0.46274 0.937244,-1.27884 0.866784,-3.96673 -0.06305,-2.40536 -0.251388,-2.97513 -1.08863,-3.29345 -0.241343,-0.0918 -3.099595,-0.16098 -6.64703,-0.16098 h -6.223618 v -1.69286 -1.69286 l 7.793234,0.05 c 7.485775,0.048 7.823149,0.0638 8.551495,0.40099 0.901164,0.41718 1.730367,1.31035 2.046316,2.20418 0.331834,0.93877 0.324495,8.32755 -0.0091,9.15571 -0.420253,1.04331 -1.04105,1.71009 -2.019201,2.16876 l -0.944779,0.44303 -5.813332,0.0273 c -3.197332,0.0151 -6.25108,-0.032 -6.786106,-0.10452 z"
     id="path933"
     transform="matrix(1.1999995,0,0,1.1999995,0,-4.6034136e-4)" />
  <path
     style="fill:#ffffff;fill-opacity:0.941176;stroke-width:0.168502"
     d="m 41.957088,150.97266 v -7.25107 l 11.753039,0.0476 c 10.903138,0.0441 11.801779,0.0695 12.42705,0.3514 0.852409,0.38424 1.530646,1.02555 1.995334,1.88672 0.349105,0.64696 0.365793,0.90557 0.415892,6.44521 l 0.05219,5.77121 h -2.369101 -2.369101 v -5.29405 c 0,-2.91172 -0.04603,-5.41398 -0.10228,-5.56057 -0.08781,-0.22883 -0.514422,-0.26654 -3.015014,-0.26654 -2.500592,0 -2.927208,0.0377 -3.015015,0.26654 -0.05625,0.14659 -0.102279,2.64885 -0.102279,5.56057 v 5.29405 H 55.26877 52.909737 v -5.29405 c 0,-2.91172 -0.04603,-5.41398 -0.102279,-5.56057 -0.08761,-0.22832 -0.505616,-0.26654 -2.915091,-0.26654 -1.963072,0 -2.873896,0.0611 -3.015014,0.2022 -0.148791,0.14879 -0.202203,1.61763 -0.202203,5.56058 v 5.35838 h -2.359033 -2.359033 z"
     id="path972"
     transform="matrix(1.1999995,0,0,1.1999995,0,-4.6034136e-4)" />
  <path
     style="fill:#ffffff;fill-opacity:0.941176;stroke-width:0.168502"
     d="m 73.884732,158.0573 c -1.863937,-0.27402 -2.913391,-1.21486 -3.377996,-3.02839 -0.394485,-1.53982 -0.284197,-7.85385 0.154638,-8.85311 0.39854,-0.90751 1.049668,-1.57146 1.963143,-2.00181 0.721014,-0.33968 1.053862,-0.35977 6.775989,-0.40904 3.743694,-0.0322 6.386215,0.0156 6.992848,0.12665 2.02584,0.37077 3.086485,1.66207 3.216997,3.91657 0.09561,1.65167 -0.181779,2.69939 -0.906582,3.42419 -1.015828,1.01583 -1.545416,1.09377 -7.431397,1.09377 h -5.277807 v -1.34801 -1.34802 h 4.515863 c 3.287668,0 4.570857,-0.055 4.718066,-0.20221 0.111212,-0.11121 0.202203,-0.58891 0.202203,-1.06156 0,-0.47265 -0.09099,-0.95035 -0.202203,-1.06157 -0.146965,-0.14696 -1.406626,-0.2022 -4.611091,-0.2022 -4.192134,0 -4.430516,0.017 -4.848812,0.34605 -0.667752,0.52525 -0.826998,1.33911 -0.758667,3.87731 0.068,2.52597 0.242334,3.01649 1.189406,3.34664 0.333606,0.11629 2.711576,0.18111 6.644725,0.18111 h 6.125191 v 1.68502 1.68503 l -7.119224,-0.021 c -3.915574,-0.0116 -7.499954,-0.077 -7.96529,-0.14539 z"
     id="path1011"
     transform="matrix(1.1999995,0,0,1.1999995,0,-4.6034136e-4)" />
  <path
     style="fill:#ffffff;fill-opacity:0.941176;stroke-width:0.168502"
     d="m 94.728116,152.53676 c 0.05875,-5.5009 0.08375,-5.90137 0.412872,-6.61372 0.443814,-0.96057 1.119817,-1.63789 2.084874,-2.08891 0.72206,-0.33745 1.019708,-0.35429 6.234588,-0.3528 4.83024,10e-4 5.56442,0.0366 6.22302,0.29819 1.69406,0.67294 2.71026,2.01478 3.04965,4.02692 0.45306,2.68607 -0.6427,5.10989 -2.73686,6.05388 -0.84994,0.38314 -1.08695,0.40421 -5.14567,0.45751 l -4.25468,0.0559 v -1.78205 -1.78205 h 3.29876 3.29875 l 0.49255,-0.49254 c 0.42545,-0.42545 0.49255,-0.61929 0.49255,-1.42288 0,-1.13975 -0.43333,-1.73423 -1.43227,-1.96493 -0.89968,-0.20778 -6.18227,-0.20729 -6.72913,6.3e-4 l -0.432225,0.16433 v 5.649 5.649 h -2.459657 -2.459656 z"
     id="path1050"
     transform="matrix(1.1999995,0,0,1.1999995,0,-4.6034136e-4)" />
  <path
     style="fill:#ffffff;fill-opacity:0.941176;stroke-width:0.168502"
     d="m 118.12015,158.06679 c -1.49198,-0.20481 -2.4248,-0.85897 -3.14018,-2.20211 -0.2749,-0.51613 -0.32083,-1.07246 -0.36794,-4.45617 -0.0347,-2.49035 0.0139,-4.13953 0.13659,-4.63381 0.29159,-1.17521 0.92482,-1.96325 2.00307,-2.49277 l 0.94721,-0.46517 h 6.65584 6.65585 l 0.86984,0.45873 c 0.99126,0.52275 1.51173,1.16443 1.84636,2.2763 0.29246,0.97179 0.32626,7.61215 0.0444,8.73137 -0.23957,0.95144 -1.26989,2.13311 -2.21025,2.53495 -0.64408,0.27522 -1.3326,0.31077 -6.61647,0.34155 -3.24367,0.0189 -6.31463,-0.0229 -6.82435,-0.0929 z m 10.51093,-3.69905 c 0.5865,-0.55146 0.83721,-1.89252 0.74357,-3.97749 -0.0847,-1.88622 -0.39774,-2.78673 -1.07615,-3.09584 -0.27399,-0.12484 -1.71221,-0.19185 -4.11753,-0.19185 h -3.69647 l -0.50897,0.46338 c -0.58584,0.53337 -0.84436,1.57807 -0.84436,3.41218 0,2.19194 0.3944,3.35316 1.26377,3.72085 0.18535,0.0784 2.01819,0.12632 4.07297,0.10649 3.68124,-0.0355 3.74222,-0.0419 4.16317,-0.43772 z"
     id="path1089"
     transform="matrix(1.1999995,0,0,1.1999995,0,-4.6034136e-4)" />
  <path
     style="fill:#ffffff;fill-opacity:0.941176;stroke-width:0.168502"
     d="m 139.42919,158.05693 c -1.41757,-0.20826 -2.35033,-0.87891 -3.04908,-2.19225 -0.27409,-0.51518 -0.32092,-1.0775 -0.3703,-4.44678 -0.0611,-4.1675 0.0412,-4.99132 0.74706,-6.01952 0.22993,-0.3349 0.81298,-0.82777 1.29569,-1.09526 l 0.87764,-0.48636 6.44521,-0.0513 6.44522,-0.0513 v 1.69422 1.69422 h -4.89494 c -5.42557,0 -5.65161,0.0389 -6.07611,1.04519 -0.32461,0.76953 -0.32461,4.8912 0,5.66073 0.4245,1.00631 0.65054,1.04519 6.07611,1.04519 h 4.89494 v 1.68502 1.68503 l -5.77121,-0.021 c -3.17416,-0.0116 -6.15327,-0.0771 -6.62023,-0.14576 z"
     id="path1128"
     transform="matrix(1.1999995,0,0,1.1999995,0,-4.6034136e-4)" />
  <path
     style="fill:#ffffff;fill-opacity:0.941176;stroke-width:0.168502"
     d="m 153.84266,149.71435 v -8.50937 h 2.35903 2.35903 v 8.50937 8.50937 h -2.35903 -2.35903 z"
     id="path1167"
     transform="matrix(1.1999995,0,0,1.1999995,0,-4.6034136e-4)" />
  <path
     style="fill:#ffffff;fill-opacity:0.941176;stroke-width:0.168502"
     d="m 166.09311,156.91782 c -0.50377,-0.71824 -1.03697,-1.54314 -1.18489,-1.8331 -0.14792,-0.28997 -0.39169,-0.57432 -0.54172,-0.63189 -0.15002,-0.0576 -1.2523,-0.10467 -2.44951,-0.10467 h -2.17675 v -1.68502 -1.68502 h 2.07407 c 1.40098,0 2.16288,-0.0684 2.34772,-0.21063 0.1505,-0.11585 1.01093,-1.74611 1.91206,-3.6228 l 1.63843,-3.41218 h 2.68374 c 1.47606,0 2.65847,0.0639 2.62758,0.14188 -0.0309,0.078 -1.10747,2.05344 -2.39239,4.38981 -1.9875,3.61387 -2.32096,4.3242 -2.23403,4.75887 0.12726,0.63632 0.4918,1.15968 2.21397,3.17862 0.75101,0.88042 1.42228,1.69555 1.4917,1.8114 0.0988,0.16487 -0.44083,0.21063 -2.48391,0.21063 h -2.61013 z"
     id="path1206"
     transform="matrix(1.1999995,0,0,1.1999995,0,-4.6034136e-4)" />
  <path
     style="fill:#ffffff;fill-opacity:0.941176;stroke-width:0.168502"
     d="m 176.46925,158.05323 c -1.24058,-0.18119 -2.29954,-0.85159 -2.86521,-1.81389 l -0.46786,-0.79591 -0.0527,-4.25863 c -0.0523,-4.22699 -0.0496,-4.2654 0.36446,-5.16977 0.51185,-1.11803 1.45621,-1.85139 2.7226,-2.11429 0.5964,-0.12382 2.9832,-0.16996 7.02265,-0.13577 5.46165,0.0462 6.19162,0.0844 6.7932,0.35521 1.56865,0.70616 2.33642,2.0969 2.34498,4.24767 0.008,1.98976 -0.89789,3.32042 -2.57791,3.78708 -0.34817,0.0967 -2.86772,0.16973 -5.87528,0.17026 l -5.2657,9.4e-4 v -1.34801 -1.34802 h 4.52893 c 4.99085,0 4.84115,0.0321 5.02113,-1.07697 0.0668,-0.41148 0.01,-0.73566 -0.18054,-1.02605 l -0.27816,-0.42452 h -4.28196 c -2.35507,0 -4.47282,0.0726 -4.70611,0.16126 -0.83746,0.31841 -1.03005,1.01845 -1.03005,3.74406 0,2.24734 0.0322,2.51648 0.35325,2.9488 0.65931,0.88792 0.69186,0.89183 7.43998,0.89451 l 6.27672,0.002 v 1.68502 1.68503 l -7.20348,-0.021 c -3.96191,-0.0116 -7.59924,-0.0788 -8.08296,-0.14946 z"
     id="path1245"
     transform="matrix(1.1999995,0,0,1.1999995,0,-4.6034136e-4)" />
  <path
     style="fill:#ffffff;fill-opacity:0.941176;stroke-width:0.168502"
     d="m 197.19504,158.05323 c -1.24058,-0.18119 -2.29954,-0.85159 -2.86521,-1.81389 l -0.46786,-0.79591 -0.049,-7.11923 -0.049,-7.11922 h 2.28167 2.28167 v 1.26377 1.26376 h 2.02203 2.02203 v 1.68503 1.68502 h -2.02203 -2.02203 l 0.01,2.73816 c 0.0113,3.09122 0.14913,4.23319 0.56043,4.64489 0.21585,0.21607 0.66423,0.29775 1.87856,0.3422 l 1.59503,0.0584 v 1.66876 1.66876 l -2.14841,-0.021 c -1.18162,-0.0115 -2.54417,-0.0788 -3.02789,-0.14946 z"
     id="path1284"
     transform="matrix(1.1999995,0,0,1.1999995,0,-4.6034136e-4)" />
  <path
     style="fill:#ffffff;fill-opacity:0.941176;stroke-width:0.168502"
     d="m 212.22221,158.05693 c -1.47212,-0.21628 -2.47001,-0.95972 -3.05568,-2.2765 -0.43885,-0.98671 -0.54897,-7.71501 -0.1488,-9.09158 0.31463,-1.08228 1.03693,-1.97923 2.01552,-2.50288 0.67014,-0.35859 0.87521,-0.37068 7.13518,-0.42053 l 6.44522,-0.0513 v 1.69422 1.69422 h -4.89494 c -5.42557,0 -5.65161,0.0389 -6.07611,1.04519 -0.32827,0.7782 -0.32443,4.89154 0.005,5.67351 0.41044,0.97338 0.7625,1.03241 6.15802,1.03241 h 4.80773 v 1.68502 1.68503 l -5.77121,-0.021 c -3.17416,-0.0116 -6.15327,-0.0771 -6.62023,-0.14576 z"
     id="path1323"
     transform="matrix(1.1999995,0,0,1.1999995,0,-4.6034136e-4)" />
  <path
     style="fill:#ffffff;fill-opacity:0.941176;stroke-width:0.168502"
     d="m 230.06516,158.06196 c -1.74319,-0.26977 -3.1173,-1.54105 -3.34978,-3.09911 -0.0574,-0.38442 -0.0798,-2.44294 -0.0499,-4.57449 0.0513,-3.65443 0.0763,-3.91655 0.43812,-4.59395 0.4967,-0.92993 1.51596,-1.65811 2.65068,-1.89367 0.5964,-0.12382 2.9832,-0.16996 7.02265,-0.13577 5.7857,0.049 6.16052,0.0709 6.87745,0.40282 0.41705,0.19306 0.99667,0.62256 1.28806,0.95444 0.90919,1.03552 0.98673,1.49567 0.98673,5.85589 0,3.43265 -0.041,4.06611 -0.30814,4.7584 -0.35068,0.90887 -1.29665,1.80836 -2.25732,2.14639 -0.73629,0.25908 -11.81737,0.40828 -13.29858,0.17905 z m 10.21921,-3.42273 c 0.79932,-0.39748 1.08014,-1.3266 1.08108,-3.57686 9.3e-4,-2.25132 -0.20133,-3.0995 -0.86325,-3.62017 -0.40307,-0.31705 -0.67738,-0.33964 -4.12448,-0.33964 -4.11418,0 -4.46468,0.0752 -4.87387,1.04519 -0.32813,0.77788 -0.32444,4.89153 0.005,5.67304 0.39065,0.92643 0.82683,1.01917 4.81561,1.0238 2.48961,0.003 3.66342,-0.058 3.95981,-0.20536 z"
     id="path1362"
     transform="matrix(1.1999995,0,0,1.1999995,0,-4.6034136e-4)" />
  <path
     style="fill:#ffffff;fill-opacity:0.941176;stroke-width:0.168502"
     d="m 247.52997,150.80961 v -7.4141 h 11.51183 c 13.01559,0 12.74505,-0.0234 13.94048,1.20835 1.10576,1.13942 1.17106,1.58581 1.17106,8.00561 v 5.61425 h -2.35903 -2.35904 v -5.52688 c 0,-4.07401 -0.0532,-5.58003 -0.2022,-5.72908 -0.14069,-0.14069 -1.03591,-0.2022 -2.94286,-0.2022 -2.53716,0 -2.75361,0.0242 -2.91509,0.32592 -0.10984,0.20524 -0.17443,2.32679 -0.17443,5.72908 v 5.40316 h -2.35904 -2.35903 v -5.52688 c 0,-4.07401 -0.0532,-5.58003 -0.2022,-5.72908 -0.14069,-0.14069 -1.03591,-0.2022 -2.94286,-0.2022 -2.53716,0 -2.75362,0.0242 -2.9151,0.32592 -0.10983,0.20524 -0.17443,2.32679 -0.17443,5.72908 v 5.40316 h -2.35903 -2.35903 z"
     id="path1401"
     transform="matrix(1.1999995,0,0,1.1999995,0,-4.6034136e-4)" />
  <path
     style="fill:#ffffff;fill-opacity:0.941176;stroke-width:0.168502"
     d="m 275.70361,153.37927 c 0.0491,-7.00988 0.0603,-7.22159 0.4142,-7.87748 0.42557,-0.78867 1.08565,-1.43677 1.91109,-1.87642 0.54817,-0.29196 1.08285,-0.31411 7.5826,-0.31411 6.87387,0 7.00459,0.006 7.68281,0.3692 0.86325,0.46193 1.64846,1.34393 1.94611,2.18601 0.35759,1.01162 0.32437,8.86146 -0.0409,9.66121 -0.39707,0.86941 -1.11397,1.65093 -1.90026,2.07154 -0.67039,0.35861 -0.89288,0.37353 -6.29764,0.4223 l -5.60271,0.0506 v -1.69346 -1.69345 h 3.79672 c 5.52724,0 5.55388,-0.0194 5.55388,-4.04406 0,-3.99228 -0.0676,-4.04406 -5.27598,-4.04406 -2.02253,0 -3.73459,0.0752 -4.02625,0.17689 -0.93829,0.3271 -0.96233,0.50155 -1.02605,7.44785 l -0.0584,6.36096 h -2.3549 -2.35491 z"
     id="path1440"
     transform="matrix(1.1999995,0,0,1.1999995,0,-4.6034136e-4)" />
  <path
     style="fill:#ffffff;fill-opacity:0.941176;stroke-width:0.168502"
     d="m 299.54787,157.78739 c -1.03352,-0.3226 -2.00858,-1.28944 -2.36993,-2.34995 -0.23524,-0.69039 -0.27678,-1.66768 -0.27678,-6.51137 v -5.69906 h 2.35903 2.35904 l 9.4e-4,4.84444 c 0.001,5.51755 0.0739,6.01588 0.93205,6.37442 0.69952,0.29228 6.80916,0.34237 7.61226,0.0624 0.90649,-0.31601 0.95566,-0.61262 1.02529,-6.18408 l 0.0637,-5.09719 h 2.35407 2.35407 l -0.052,5.9397 c -0.05,5.71268 -0.0659,5.96547 -0.41566,6.61372 -0.42557,0.78867 -1.08565,1.43678 -1.91109,1.87642 -0.54163,0.28848 -1.10542,0.31691 -6.90859,0.34837 -5.20816,0.0282 -6.46079,-0.0101 -7.12643,-0.21783 z"
     id="path1479"
     transform="matrix(1.1999995,0,0,1.1999995,0,-4.6034136e-4)" />
  <path
     style="fill:#ffffff;fill-opacity:0.941176;stroke-width:0.168502"
     d="m 320.56923,158.05693 c -0.46697,-0.0686 -1.08492,-0.24672 -1.37324,-0.39581 -0.7202,-0.37243 -1.64338,-1.49169 -1.87899,-2.27809 -0.13499,-0.45054 -0.19556,-2.85174 -0.19556,-7.75239 v -7.09967 h 2.27478 2.27479 v 1.26377 1.26376 h 2.02202 2.02203 v 1.76928 1.76927 h -2.02203 -2.02202 l 0.007,2.99092 c 0.004,1.645 0.071,3.3206 0.1489,3.72355 0.22055,1.14149 0.45718,1.28059 2.29279,1.34779 l 1.59503,0.0584 v 1.75301 1.75301 l -2.1484,-0.021 c -1.18162,-0.0115 -2.53047,-0.0771 -2.99743,-0.14576 z"
     id="path1518"
     transform="matrix(1.1999995,0,0,1.1999995,0,-4.6034136e-4)" />
  <path
     style="fill:#ffffff;fill-opacity:0.941176;stroke-width:0.168502"
     d="m 330.67352,158.05622 c -1.16281,-0.17064 -2.00798,-0.60093 -2.61011,-1.32887 -0.86972,-1.05144 -1.00033,-1.84607 -1.00033,-6.08624 0,-4.53244 0.13107,-5.19501 1.2488,-6.31274 1.17687,-1.17687 1.23852,-1.18561 8.35584,-1.18561 6.90031,0 7.31265,0.0466 8.33163,0.94125 0.99805,0.87631 1.35449,1.84799 1.35597,3.69651 10e-4,1.39214 -0.0558,1.71576 -0.42974,2.44283 -0.35553,0.69131 -0.6042,0.92672 -1.41977,1.34407 l -0.98876,0.50596 -5.36244,0.0528 -5.36245,0.0528 v -1.44297 -1.44297 h 4.45576 c 4.41344,0 4.45825,-0.004 4.71807,-0.3745 0.34276,-0.48936 0.34129,-1.71298 -0.002,-2.05675 -0.39466,-0.39466 -8.74012,-0.39628 -9.30331,-0.002 -0.78416,0.54925 -0.94891,1.17156 -0.95635,3.61257 -0.008,2.64381 0.18301,3.4024 0.97932,3.88796 0.49768,0.30347 0.91591,0.32338 6.80697,0.32397 l 6.27671,6.3e-4 v 1.76927 1.76928 l -7.11922,-0.021 c -3.91557,-0.0116 -7.50392,-0.0775 -7.9741,-0.14647 z"
     id="path1557"
     transform="matrix(1.1999995,0,0,1.1999995,0,-4.6034136e-4)" />
  <path
     style="fill:#ffffff;fill-opacity:0.941176;stroke-width:0.168502"
     d="m 347.78887,152.52522 c 0,-6.37916 0.0663,-6.87095 1.08762,-8.0641 0.93732,-1.09505 1.58906,-1.27852 4.85209,-1.36591 l 2.82242,-0.0756 v 1.78871 1.78872 h -1.42435 c -1.66597,0 -2.20017,0.19482 -2.44282,0.89089 -0.10849,0.3112 -0.17689,2.48507 -0.17689,5.6216 v 5.11418 h -2.35903 -2.35904 z"
     id="path1596"
     transform="matrix(1.1999995,0,0,1.1999995,0,-4.6034136e-4)" />
  <path
     style="fill:#ffffff;fill-opacity:0.941176;stroke-width:0.168502"
     d="m 352.67926,17.83028 c -0.188,-0.307333 -0.46695,-0.88452 -0.61991,-1.282636 -0.24708,-0.643125 -0.32689,-0.714016 -0.71564,-0.635675 -1.17141,0.236064 -6.87422,0.966273 -8.81535,1.128752 -2.46129,0.206017 -2.9961,0.101148 -2.9961,-0.587496 0,-0.504046 0.24945,-0.70763 1.04189,-0.850311 0.51026,-0.09187 0.65089,-0.208165 0.79072,-0.653856 0.0935,-0.298158 0.94056,-3.309757 1.88228,-6.6924423 0.94172,-3.3826849 1.78282,-6.2830318 1.86913,-6.4452153 0.19255,-0.3618436 0.87085,-0.3858004 1.15711,-0.040868 0.16674,0.2009038 0.16893,0.4739316 0.0105,1.3058933 -0.34563,1.8149445 -1.15817,4.7977216 -2.31782,8.5085223 -0.61551,1.969598 -1.08003,3.620164 -1.03227,3.667925 0.0843,0.08434 7.91068,-0.753116 8.03394,-0.859672 0.0339,-0.02928 -0.52023,-1.3051 -1.23131,-2.835166 -1.08111,-2.3262497 -1.26273,-2.8382827 -1.10879,-3.1259287 0.20589,-0.3846971 0.8757,-0.4618223 1.14917,-0.132319 0.0966,0.1164205 1.12495,2.2585067 2.28519,4.7601917 1.87393,4.040549 2.08498,4.586154 1.8898,4.885522 -0.36747,0.563639 -0.88601,0.516689 -1.27254,-0.115221 z"
     id="path1635"
     transform="matrix(1.1999995,0,0,1.1999995,0,-4.6034136e-4)" />
  <path
     style="fill:#ffffff;fill-opacity:0.941176;stroke-width:0.168502"
     d="m 323.10649,17.864799 c -0.24433,-0.269984 -0.28277,-0.428891 -0.15337,-0.634035 0.18172,-0.288085 0.28065,-0.348057 1.27271,-0.771536 0.74377,-0.317494 1.54425,-1.419699 2.01262,-2.771263 0.40006,-1.154438 0.71457,-3.433676 0.5667,-4.1069102 L 326.6993,9.0991275 h -3.15446 c -2.22879,0 -3.21379,-0.059335 -3.35665,-0.2022029 -0.25992,-0.259915 -0.25992,-0.8522005 0,-1.1121155 0.26502,-0.2650244 12.79681,-0.2912137 13.28906,-0.027772 0.42412,0.2269807 0.42412,0.9406788 0,1.1676595 -0.18188,0.097338 -1.41067,0.1744309 -2.78029,0.1744309 h -2.45436 v 1.4053155 c 0,3.167937 -1.45606,6.392995 -3.2763,7.256757 -1.00492,0.476864 -1.4972,0.504286 -1.85981,0.103599 z"
     id="path1674"
     transform="matrix(1.1999995,0,0,1.1999995,0,-4.6034136e-4)" />
  <path
     style="fill:#ffffff;fill-opacity:0.941176;stroke-width:0.168502"
     d="m 321.67754,3.5507563 c -0.21057,-0.3934456 -0.0742,-0.8066439 0.33922,-1.0279019 0.17655,-0.094488 2.23118,-0.1638214 4.85471,-0.1638214 3.91042,0 4.58575,0.037151 4.81339,0.2647895 0.31536,0.3153555 0.34245,0.769668 0.0626,1.049529 -0.1479,0.1478961 -1.50397,0.2022028 -5.04914,0.2022028 -4.61377,0 -4.85531,-0.015625 -5.02077,-0.324798 z"
     id="path1713"
     transform="matrix(1.1999995,0,0,1.1999995,0,-4.6034136e-4)" />
  <path
     style="fill:#ffffff;fill-opacity:0.941176;stroke-width:0.168502"
     d="m 311.61916,16.917513 c -0.4237,-0.454045 -1.61401,-1.794844 -2.64514,-2.979551 -1.6776,-1.927456 -1.89735,-2.123163 -2.08926,-1.860703 -1.11371,1.523085 -4.16924,4.651481 -5.05142,5.171875 -0.11393,0.06721 -0.35145,0.04497 -0.52781,-0.04942 -0.74826,-0.400458 -0.5973,-0.668208 1.70602,-3.025883 3.05998,-3.132182 4.61863,-5.5284683 5.58073,-8.5798259 0.24258,-0.7693636 0.44105,-1.4425012 0.44105,-1.4958614 0,-0.05336 -1.58321,-0.041888 -3.51824,0.025494 -3.70504,0.1290169 -4.23287,0.05682 -4.23287,-0.5789809 0,-0.7440777 0.28563,-0.8040402 4.44991,-0.9341622 4.12769,-0.1289785 4.71514,-0.087828 4.88002,0.3418432 0.25742,0.6708349 -0.68905,3.7707009 -1.85773,6.0844033 l -0.77706,1.5383859 2.64047,3.011131 c 1.73674,1.980533 2.62393,3.119881 2.59214,3.328872 -0.0266,0.174758 -0.22206,0.432532 -0.43439,0.572832 -0.36939,0.244074 -0.41932,0.21944 -1.15642,-0.570449 z"
     id="path1752"
     transform="matrix(1.1999995,0,0,1.1999995,0,-4.6034136e-4)" />
  <path
     style="fill:#ffffff;fill-opacity:0.941176;stroke-width:0.168502"
     d="m 282.27515,17.322043 c -0.11121,-0.111212 -0.2022,-0.378229 -0.2022,-0.593371 0,-0.453849 0.38335,-0.651474 1.56364,-0.806092 1.33292,-0.174612 3.64861,-1.450564 4.97878,-2.743316 1.87556,-1.822809 2.90247,-3.690586 3.30056,-6.0032046 0.24528,-1.4248855 0.64354,-1.8262614 1.29147,-1.3015969 0.39176,0.3172305 0.39505,0.3441637 0.18869,1.5475123 -0.42954,2.5049232 -1.51833,4.5049762 -3.57203,6.5616472 -1.627,1.629356 -3.03553,2.520472 -4.93739,3.123679 -1.4392,0.456467 -2.29908,0.527173 -2.61152,0.214742 z"
     id="path1791"
     transform="matrix(1.1999995,0,0,1.1999995,0,-4.6034136e-4)" />
  <path
     style="fill:#ffffff;fill-opacity:0.941176;stroke-width:0.168502"
     d="m 282.77828,9.6766634 c -0.58517,-0.4103211 -1.21236,-0.7460383 -1.39375,-0.7460383 -0.18975,0 -0.41271,-0.1819313 -0.52501,-0.4283991 -0.16602,-0.3643714 -0.14394,-0.4796515 0.14773,-0.7713213 0.30406,-0.304054 0.42066,-0.3219901 1.02877,-0.1582444 0.73663,0.1983563 2.63223,1.5263998 2.79898,1.9609573 0.1538,0.4007872 -0.19972,0.9150564 -0.61957,0.9013064 -0.20526,-0.0067 -0.85198,-0.347939 -1.43715,-0.7582606 z"
     id="path1830"
     transform="matrix(1.1999995,0,0,1.1999995,0,-4.6034136e-4)" />
  <path
     style="fill:#ffffff;fill-opacity:0.941176;stroke-width:0.168502"
     d="m 285.12265,5.3774029 c -0.22253,-0.088998 -0.92813,-0.5098531 -1.56799,-0.9352345 -0.98822,-0.6569662 -1.15564,-0.83775 -1.11192,-1.2006547 0.071,-0.5895913 0.5058,-0.837367 1.00727,-0.5740385 1.29178,0.678334 2.75934,1.697321 2.80814,1.9498081 0.0531,0.2748917 -0.40768,0.9563653 -0.63064,0.9326139 -0.0551,-0.00587 -0.28233,-0.083497 -0.50486,-0.1724943 z"
     id="path1869"
     transform="matrix(1.1999995,0,0,1.1999995,0,-4.6034136e-4)" />
  <path
     style="fill:#ffffff;fill-opacity:0.941176;stroke-width:0.168502"
     d="m 273.30865,17.819125 c -0.18383,-0.301198 -0.46707,-0.871212 -0.62941,-1.266697 -0.25668,-0.625288 -0.35011,-0.708189 -0.71643,-0.635674 -1.13868,0.225408 -6.74816,0.941275 -8.73495,1.114731 -2.50697,0.218871 -3.06022,0.116692 -3.06022,-0.565192 0,-0.55209 0.30888,-0.795573 1.00925,-0.795573 h 0.60484 l 0.90468,-2.906666 c 1.50757,-4.8436924 2.17435,-7.201572 2.56122,-9.0570021 0.4096,-1.9645172 0.52004,-2.1905307 1.07035,-2.1905307 0.93772,0 0.92418,0.6059243 -0.10169,4.5495638 -0.38625,1.4848317 -2.21017,7.562033 -2.77545,9.247631 -0.0634,0.189136 0.11991,0.211819 0.97829,0.121038 1.48864,-0.157438 7.11129,-0.961456 7.17658,-1.026225 0.0298,-0.02955 -0.52413,-1.309256 -1.23093,-2.843795 -1.07245,-2.3284267 -1.25468,-2.8468696 -1.10136,-3.133346 0.20516,-0.3833565 0.87689,-0.4611768 1.14498,-0.1326467 0.32515,0.3984661 4.25045,9.0302177 4.25045,9.3467697 0,0.839318 -0.87522,0.951857 -1.3502,0.173614 z"
     id="path1908"
     transform="matrix(1.1999995,0,0,1.1999995,0,-4.6034136e-4)" />
  <path
     style="fill:#ffffff;fill-opacity:0.941176;stroke-width:0.168502"
     d="m 240.54916,9.6768498 c -0.34717,-0.3471613 -0.33452,-0.6308911 0.0434,-0.9728625 0.27579,-0.2495874 1.00732,-0.2788693 6.96674,-0.2788693 6.23673,0 6.67625,0.019523 6.93745,0.3081472 0.34816,0.3847099 0.35146,0.6062018 0.0141,0.9435846 -0.23186,0.2318598 -1.10001,0.2647895 -6.98081,0.2647895 -5.88081,0 -6.74895,-0.03293 -6.98081,-0.2647895 z"
     id="path1947"
     transform="matrix(1.1999995,0,0,1.1999995,0,-4.6034136e-4)" />
  <path
     style="fill:#ffffff;fill-opacity:0.941176;stroke-width:0.168502"
     d="m 224.37293,17.764963 c -0.4889,-0.488899 -0.29546,-0.868015 0.97083,-1.902744 2.53471,-2.071185 3.18321,-3.214676 3.56303,-6.282615 0.39407,-3.1830439 0.62518,-2.8395096 -1.91025,-2.8395096 h -2.16668 l -0.59224,0.8919808 c -0.32573,0.4905895 -1.0272,1.4046884 -1.55882,2.0313308 -1.03431,1.21918 -1.43426,1.362095 -1.88829,0.674737 -0.22093,-0.334476 -0.1816,-0.4297777 0.52155,-1.2637675 1.3837,-1.6411537 2.27872,-3.1111931 2.9723,-4.8818972 0.37684,-0.9620567 0.75512,-1.9198027 0.84062,-2.1283244 0.1839,-0.4485107 0.8528,-0.5130243 1.18382,-0.114176 0.1837,0.2213487 0.14306,0.5008559 -0.24691,1.6983245 -0.25674,0.7883536 -0.44119,1.455109 -0.40989,1.4816788 0.0313,0.02657 1.21326,0.1002158 2.62657,0.1636581 l 2.56966,0.1153495 V 4.1921581 c 0,-0.8537191 -0.0766,-1.3015126 -0.25681,-1.5006095 -0.15079,-0.166618 -0.20958,-0.4068834 -0.1424,-0.5819547 0.10171,-0.2650359 0.26848,-0.2856761 1.50052,-0.1857087 l 1.3861,0.1124673 0.11027,-0.439357 c 0.0836,-0.3330182 0.20059,-0.4265136 0.48345,-0.3862924 0.44151,0.062783 0.58066,0.8022438 0.29323,1.5582598 -0.17792,0.4679659 -0.19606,0.4734817 -1.18776,0.3612832 L 232.02775,3.016308 v 1.1878839 1.1878836 h 0.80502 c 0.88227,0 1.55401,0.3537478 1.55401,0.8183661 0,0.5744493 -0.35994,0.6981552 -2.03143,0.6981552 h -1.62703 l -0.28314,2.4854098 c -0.2464,2.1628634 -0.35789,2.6384824 -0.85905,3.6649264 -0.31674,0.648734 -0.87581,1.53961 -1.24236,1.979725 -0.71347,0.85665 -3.23048,2.991095 -3.5272,2.991095 -0.0984,0 -0.29801,-0.119155 -0.44364,-0.26479 z"
     id="path2025"
     transform="matrix(1.1999995,0,0,1.1999995,0,-4.6034136e-4)" />
  <path
     style="fill:#ffffff;fill-opacity:0.941176;stroke-width:0.168502"
     d="m 211.79271,18.013957 c -0.27434,-0.293686 -0.63392,-0.997091 -0.82354,-1.610993 -0.36226,-1.172867 -0.8793,-4.517869 -1.18105,-7.6408412 -0.10298,-1.0657775 -0.22497,-2.1842119 -0.2711,-2.4854099 l -0.0839,-0.5476326 h -3.94013 c -3.35727,0 -3.97931,-0.03917 -4.20492,-0.2647895 -0.14564,-0.1456341 -0.26479,-0.3676961 -0.26479,-0.4934712 0,-0.125775 0.11915,-0.347837 0.26479,-0.4934711 0.22531,-0.2253193 0.84067,-0.2647895 4.1282,-0.2647895 h 3.86342 l -0.042,-1.9799027 -0.042,-1.97990276 0.48391,-0.0552987 c 0.26615,-0.0304143 0.55709,0.0178785 0.64652,0.1073172 0.0894,0.0894388 0.2444,1.00527936 0.34436,2.03520136 l 0.18173,1.8725856 h 1.32015 1.32014 V 3.7016398 c 0,-0.2810055 -0.11497,-0.7860874 -0.25549,-1.1224045 -0.14053,-0.3363169 -0.2113,-0.7507486 -0.15728,-0.9209593 0.12068,-0.3802171 0.8403,-0.5847375 1.15079,-0.3270585 0.42346,0.351447 0.82899,2.0078571 0.72013,2.9414542 -0.14876,1.2757651 -0.44761,1.4564086 -2.40938,1.4564086 h -1.58791 l 0.0936,0.8003862 c 0.0515,0.4402124 0.24651,2.1928142 0.43339,3.8946705 0.35443,3.227527 0.66988,5.018617 1.04645,5.941474 l 0.22236,0.544944 0.38596,-0.40929 c 0.6737,-0.71441 0.94137,-1.3797 0.94431,-2.347067 0.003,-0.919415 0.007,-0.927178 0.54393,-0.979078 0.48335,-0.04673 0.5688,0.01393 0.80039,0.568211 0.1426,0.341289 0.25853,0.781874 0.25763,0.979078 -0.003,0.666858 -0.82125,2.124256 -1.66784,2.970846 -1.01532,1.015323 -1.50579,1.086151 -2.22083,0.320702 z"
     id="path2064"
     transform="matrix(1.1999995,0,0,1.1999995,0,-4.6034136e-4)" />
  <path
     style="fill:#ffffff;fill-opacity:0.941176;stroke-width:0.168502"
     d="m 201.78959,17.364603 c -0.25122,-0.277601 -0.2787,-0.425219 -0.13705,-0.73612 0.14247,-0.312695 0.44564,-0.450198 1.54739,-0.701832 l 1.3702,-0.312946 -0.0463,-2.625405 -0.0463,-2.625405 -1.02205,0.05218 c -0.8134,0.04153 -1.10456,-0.01463 -1.42621,-0.275085 -0.34948,-0.2829895 -0.37859,-0.3833736 -0.2152,-0.7419763 0.17479,-0.3836374 0.30569,-0.4229961 1.74697,-0.5253015 2.66659,-0.1892796 3.97835,-0.1419594 4.27451,0.154198 0.62473,0.6247387 0.0876,1.2517318 -1.07229,1.2517318 h -0.80749 l 0.0827,2.401159 c 0.0455,1.320637 0.10804,2.429848 0.13906,2.464913 0.031,0.03506 0.40252,-0.0234 0.82557,-0.129924 0.54593,-0.137466 0.86568,-0.142023 1.10172,-0.0157 0.3731,0.199678 0.44578,0.876772 0.12192,1.135902 -0.11584,0.09269 -1.38593,0.446664 -2.82241,0.786602 -1.43649,0.339938 -2.76676,0.656808 -2.95617,0.704155 -0.2165,0.05412 -0.46105,-0.04284 -0.65862,-0.261147 z"
     id="path2103"
     transform="matrix(1.1999995,0,0,1.1999995,0,-4.6034136e-4)" />
  <path
     style="fill:#ffffff;fill-opacity:0.941176;stroke-width:0.168502"
     d="m 183.70127,19.681076 c -0.15239,-0.152396 -0.2022,-2.498382 -0.2022,-9.523996 V 0.83528683 l 0.44105,-0.20095597 c 0.38927,-0.17736161 0.4783,-0.15496176 0.75826,0.19078221 0.2833,0.34985823 0.31721,0.70344863 0.31721,3.30742873 v 2.9156905 l 1.39848,0.6768998 c 1.57799,0.763792 3.27839,1.9405611 5.805,4.0173639 1.78362,1.466093 1.9815,1.792284 1.40416,2.314766 -0.40471,0.366253 -0.53534,0.299663 -2.2888,-1.166704 -2.18085,-1.823781 -5.65811,-4.1284352 -6.22899,-4.1284352 -0.0494,0 -0.0898,2.3767692 -0.0898,5.2817082 0,4.902837 -0.0221,5.301713 -0.30815,5.560578 -0.36387,0.329301 -0.72594,0.35689 -1.00617,0.07667 z"
     id="path2142"
     transform="matrix(1.1999995,0,0,1.1999995,0,-4.6034136e-4)" />
  <path
     style="fill:#ffffff;fill-opacity:0.941176;stroke-width:0.168502"
     d="m 165.9015,17.367819 c -0.48768,-0.538884 -0.20288,-0.939664 0.9627,-1.354721 2.20453,-0.785024 3.4941,-2.013868 4.1894,-3.992133 0.31581,-0.898525 0.8158,-3.7294077 0.81781,-4.6303194 5.4e-4,-0.2445927 0.14374,-0.6209963 0.31821,-0.8364523 0.27996,-0.3457439 0.36899,-0.3681438 0.75826,-0.1907822 0.53229,0.2425274 0.55662,0.6245383 0.19313,3.0317046 -0.46327,3.0679533 -1.11455,4.6270093 -2.51999,6.0324473 -0.93159,0.931593 -1.77303,1.432441 -3.27432,1.948961 -1.1271,0.387776 -1.08616,0.388023 -1.4452,-0.0087 z"
     id="path2181"
     transform="matrix(1.1999995,0,0,1.1999995,0,-4.6034136e-4)" />
  <path
     style="fill:#ffffff;fill-opacity:0.941176;stroke-width:0.168502"
     d="m 167.7576,9.7880554 c -0.38526,-0.4257085 -0.59712,-3.4075519 -0.2701,-3.8015848 0.30873,-0.3720028 0.8019,-0.3161674 1.07526,0.12174 0.313,0.5014029 0.51384,3.4633304 0.25591,3.7741187 -0.26771,0.3225677 -0.72022,0.2823627 -1.06107,-0.094274 z"
     id="path2220"
     transform="matrix(1.1999995,0,0,1.1999995,0,-4.6034136e-4)" />
  <path
     style="fill:#ffffff;fill-opacity:0.941176;stroke-width:0.168502"
     d="m 163.90493,10.880711 c -0.13225,-0.132245 -0.33391,-0.719897 -0.44814,-1.3058933 -0.11423,-0.5859966 -0.35357,-1.3033342 -0.53186,-1.5940834 -0.56871,-0.9274455 0.11704,-1.6922163 0.93819,-1.0462999 0.52943,0.4164469 0.70668,0.8256716 1.03814,2.3967562 0.22399,1.0616814 0.22055,1.1852804 -0.0411,1.4743954 -0.34163,0.377496 -0.63017,0.400188 -0.95523,0.07512 z"
     id="path2259"
     transform="matrix(1.1999995,0,0,1.1999995,0,-4.6034136e-4)" />
  <path
     style="fill:#ffffff;fill-opacity:0.941176;stroke-width:0.168502"
     d="m 147.49044,7.2883795 c 0.90841,-0.030356 2.34911,-0.030223 3.20155,2.949e-4 0.85244,0.030518 0.1092,0.055354 -1.65165,0.055192 -1.76085,-1.62e-4 -2.4583,-0.025131 -1.5499,-0.055487 z"
     id="path2298"
     transform="matrix(1.1999995,0,0,1.1999995,0,-4.6034136e-4)" />
  <path
     style="fill:#ffffff;fill-opacity:0.941176;stroke-width:0.168502"
     d="m 145.8589,17.527337 c -0.69073,-0.219465 -1.25743,-0.807799 -1.45169,-1.5071 -0.092,-0.331249 -0.16773,-2.441053 -0.16825,-4.688453 l -9.4e-4,-4.0861825 h -1.42023 c -1.06646,0 -1.4862,-0.065959 -1.68503,-0.2647895 -0.34685,-0.3468559 -0.3341,-0.50841 0.0722,-0.914727 0.28084,-0.2808373 0.56167,-0.3370047 1.68502,-0.3370047 H 144.238 V 3.7802256 c 0,-1.0718701 0.0737,-2.0866012 0.16382,-2.2549578 0.24575,-0.4591842 0.68541,-0.56040456 1.04007,-0.239447 0.27235,0.2464744 0.31263,0.5509747 0.31263,2.3630958 v 2.0801637 h 3.77264 c 3.40033,0 3.81009,0.030333 4.15222,0.3073714 0.36259,0.2936054 0.37006,0.3483176 0.16674,1.2216421 -0.40694,1.7479134 -1.92564,4.0115912 -3.3918,5.0555892 -0.58818,0.41882 -1.1177,0.303414 -1.26294,-0.275249 -0.0855,-0.340859 0.0768,-0.582477 0.98299,-1.463165 1.03282,-1.0037276 1.81425,-2.1222391 2.06135,-2.9505372 l 0.1131,-0.3791303 h -3.29715 -3.29715 v 4.2005235 c 0,3.737153 0.0318,4.232284 0.28792,4.488443 0.26108,0.261078 0.61347,0.276785 3.77985,0.168478 2.44361,-0.08358 3.59654,-0.06346 3.84039,0.06705 0.38817,0.207745 0.46888,0.878702 0.13783,1.145856 -0.2784,0.224666 -7.31072,0.411847 -7.94163,0.211386 z"
     id="path2337"
     transform="matrix(1.1999995,0,0,1.1999995,0,-4.6034136e-4)" />
  <path
     style="fill:#ffffff;fill-opacity:0.941176;stroke-width:0.168502"
     d="m 122.5975,17.764963 c -0.44094,-0.440945 -0.31487,-0.694865 0.93426,-1.881731 1.37899,-1.310237 2.02246,-2.182215 2.49495,-3.380937 0.33185,-0.841916 0.75933,-2.8134602 0.91565,-4.2230471 l 0.0816,-0.7356286 -2.05587,0.1185785 c -1.89497,0.1092974 -2.08797,0.09259 -2.46593,-0.2134659 -0.364,-0.29475 -0.38749,-0.3815811 -0.2091,-0.7730942 0.18786,-0.4123229 0.27527,-0.4411284 1.34195,-0.4422482 0.62756,-6.589e-4 1.65283,-0.049537 2.2784,-0.1086175 L 127.0508,6.0173524 V 3.961555 c 0,-1.84319 0.0349,-2.0874027 0.33769,-2.3614021 0.27902,-0.2525135 0.41075,-0.2723145 0.75826,-0.1139794 0.41708,0.1900361 0.42057,0.2098194 0.42057,2.3857683 V 6.066085 h 2.42265 c 1.89207,0 2.46633,0.052626 2.62208,0.2402924 0.14548,0.1752934 0.18525,1.4415409 0.14701,4.6811416 -0.0517,4.377665 -0.0585,4.452689 -0.48102,5.273007 -0.51271,0.995443 -1.17153,1.421724 -2.39197,1.547684 -0.69155,0.07137 -0.94688,0.03206 -1.11612,-0.171866 -0.49355,-0.594694 0.0792,-1.177378 1.35055,-1.374021 1.02105,-0.157925 1.15387,-0.741038 1.15387,-5.065845 V 7.571569 l -1.89565,0.047644 -1.89565,0.047644 -0.11476,1.1611867 c -0.37079,3.7519673 -1.58702,6.2665873 -4.03025,8.3327543 -1.10577,0.935119 -1.3313,1.013403 -1.74054,0.604165 z"
     id="path2376"
     transform="matrix(1.1999995,0,0,1.1999995,0,-4.6034136e-4)" />
  <path
     style="fill:#ffffff;fill-opacity:0.941176;stroke-width:0.168502"
     d="m 109.73434,18.407941 c -0.11642,-0.0388 -0.28929,-0.215598 -0.38417,-0.392874 -0.24415,-0.456209 0.054,-0.92974 0.66208,-1.051346 1.10062,-0.220124 2.39778,-1.862062 3.16497,-4.006205 0.38329,-1.071216 0.4481,-1.531084 0.46061,-3.2686303 0.0127,-1.7679197 -0.0342,-2.1299995 -0.37313,-2.8811917 -0.21324,-0.4725399 -0.70556,-1.1703033 -1.09404,-1.5505851 -0.74485,-0.7291131 -2.26071,-1.5118823 -2.4613,-1.27098 -0.0651,0.078198 -0.29252,1.3914529 -0.50534,2.9183433 -0.65913,4.7289928 -1.48436,7.2255068 -3.08925,9.3456988 -1.03389,1.36584 -1.5817,1.64328 -2.38729,1.209034 -1.17999,-0.636072 -1.93303,-2.572862 -2.0742,-5.334759 -0.22009,-4.3062118 1.35619,-7.6399855 4.39057,-9.2858787 0.9435,-0.5117698 1.16377,-0.5624425 2.38742,-0.5492298 2.95792,0.031939 5.35865,1.6929701 6.36586,4.4044552 0.29032,0.7815726 0.36262,1.3544054 0.36737,2.9108419 0.007,2.2102914 -0.33999,3.6199084 -1.37871,5.6049894 -0.97694,1.867017 -3.07547,3.523645 -4.05145,3.198317 z m -3.83741,-4.674999 c 0.88919,-1.807226 1.3217,-3.433311 1.77765,-6.6831867 0.18642,-1.3287672 0.37417,-2.6244621 0.41723,-2.8793219 0.096,-0.5682013 -0.18625,-0.5998109 -1.20913,-0.1354177 -1.64986,0.7490464 -2.98678,2.5672377 -3.50554,4.7675025 -0.50329,2.1345968 -0.20251,5.5264558 0.60828,6.8596948 l 0.34571,0.568474 0.40982,-0.490611 c 0.22541,-0.269837 0.7456,-1.173047 1.15598,-2.007134 z"
     id="path2415"
     transform="matrix(1.1999995,0,0,1.1999995,0,-4.6034136e-4)" />
  <path
     style="fill:#ffffff;fill-opacity:0.941176;stroke-width:0.168502"
     d="m 87.78683,18.413161 c -0.376002,-0.263362 -0.434927,-0.720692 -0.131902,-1.023717 0.124786,-0.124787 0.737666,-0.202203 1.600772,-0.202203 h 1.39857 V 12.384924 7.5826062 h -1.061565 c -1.096081,0 -1.46597,-0.177587 -1.46597,-0.7038254 0,-0.5130944 0.726627,-0.8446171 1.717398,-0.7835611 l 0.894388,0.055116 0.04739,-2.1796123 c 0.02728,-1.2545854 0.125426,-2.2736363 0.23126,-2.4011585 0.253537,-0.3054926 0.736719,-0.2773687 1.076761,0.062673 0.243661,0.2436616 0.275436,0.5863088 0.222664,2.4011587 l -0.06156,2.1169387 1.432271,0.084251 1.43227,0.084251 0.05658,0.4971976 c 0.08232,0.7234195 -0.319176,0.9350725 -1.773811,0.9350725 h -1.231562 v 4.6338156 4.633814 h 1.394778 c 0.989666,0 1.503549,0.07619 1.769274,0.262309 0.413094,0.289342 0.490481,0.782846 0.16387,1.045012 -0.118809,0.09537 -1.77281,0.20221 -3.794203,0.245093 -2.879167,0.06108 -3.64925,0.03003 -3.91768,-0.157991 z"
     id="path2454"
     transform="matrix(1.1999995,0,0,1.1999995,0,-4.6034136e-4)" />
  <path
     style="fill:#ffffff;fill-opacity:0.941176;stroke-width:0.168502"
     d="m 83.435274,8.7621228 c 0,-0.2316908 0.03825,-0.3264734 0.08499,-0.210628 0.04675,0.1158454 0.04675,0.3054105 0,0.4212559 -0.04674,0.1158454 -0.08499,0.021063 -0.08499,-0.2106279 z"
     id="path2493"
     transform="matrix(1.1999995,0,0,1.1999995,0,-4.6034136e-4)" />
  <path
     style="fill:#ffffff;fill-opacity:0.941176;stroke-width:0.168502"
     d="m 83.84693,19.663796 c -0.267682,-0.195733 -0.29784,-0.508181 -0.278718,-2.8876 l 0.02144,-2.668118 -0.589183,0.09561 c -0.743996,0.120734 -1.716514,-0.140428 -1.853643,-0.497781 -0.131378,-0.342365 0.157041,-0.784245 1.425408,-2.183838 l 1.004934,-1.108905 V 8.1553739 c 0,-1.5282891 -0.05983,-2.2577913 -0.185162,-2.2577913 -0.10184,0 -0.45204,0.1266415 -0.778223,0.2814256 -0.731877,0.347298 -1.142895,0.1485874 -1.142895,-0.5525435 0,-0.4310826 0.12094,-0.5453163 1.050922,-0.9926498 l 1.050922,-0.5055071 0.0022,-1.4406951 c 0.0024,-1.5305572 0.13605,-1.8451009 0.784235,-1.8451009 0.546666,0 0.640622,0.2478739 0.734505,1.9377772 l 0.08425,1.5165212 0.701552,0.093642 c 1.504057,0.2007585 1.603167,0.9675012 0.477965,3.6976615 -0.417044,1.0119025 -0.758261,1.9420203 -0.758261,2.0669283 0,0.124909 0.49287,0.588997 1.095266,1.031307 1.164463,0.855008 1.316115,1.19923 0.752896,1.708936 -0.332825,0.301203 -0.362391,0.300113 -1.060595,-0.0391 -1.201592,-0.583778 -1.238293,-0.494209 -1.382599,3.374244 -0.110308,2.957057 -0.157975,3.346267 -0.427492,3.490509 -0.381998,0.204438 -0.370817,0.205315 -0.729745,-0.05714 z"
     id="path2532"
     transform="matrix(1.1999995,0,0,1.1999995,0,-4.6034136e-4)" />
  <path
     style="fill:#ffffff;fill-opacity:0.941176;stroke-width:0.168502"
     d=""
     id="path2571"
     transform="matrix(1.1999995,0,0,1.1999995,0,-4.6034136e-4)" />
  <path
     style="fill:#ffffff;fill-opacity:0.941176;stroke-width:0.168502"
     d="m 64.738607,18.501559 c -0.111212,-0.111211 -0.202203,-0.373033 -0.202203,-0.581825 0,-0.30662 0.283531,-0.526733 1.474396,-1.144613 2.799559,-1.452553 4.340353,-3.048475 5.702681,-5.906719 0.597654,-1.2539121 1.585046,-4.3721372 1.585046,-5.0056397 0,-0.1615614 -4.837786,-0.056102 -5.981834,0.1303984 -0.417728,0.068097 -0.636328,0.3021374 -1.258888,1.347803 -0.41436,0.695968 -1.217886,1.7728577 -1.785614,2.3930883 -0.986216,1.077421 -1.052161,1.118612 -1.479275,0.924006 -0.690052,-0.314409 -0.553414,-0.7783506 0.648075,-2.200482 1.195727,-1.415312 2.157643,-3.1270503 2.855648,-5.0816555 0.507906,-1.4222732 0.683341,-1.6908969 1.104305,-1.6908969 0.591877,0 0.753479,0.4431442 0.510713,1.4004767 -0.121941,0.4808678 -0.26048,0.9783239 -0.307865,1.1054579 -0.0722,0.1937093 0.488624,0.2110933 3.462172,0.1073188 4.32327,-0.1508785 4.103103,-0.2907377 3.580363,2.2743884 -1.146561,5.6262706 -3.732657,9.4041436 -7.841432,11.4550796 -1.447836,0.722701 -1.748465,0.791638 -2.066288,0.473814 z"
     id="path2610"
     transform="matrix(1.1999995,0,0,1.1999995,0,-4.6034136e-4)" />
  <path
     style="fill:#ffffff;fill-opacity:0.941176;stroke-width:0.168502"
     d="m 46.37185,17.659047 c -0.111212,-0.111211 -0.202203,-0.380472 -0.202203,-0.598356 0,-0.301175 0.151496,-0.455854 0.631884,-0.64516 1.754452,-0.691378 2.647907,-1.21477 3.343973,-1.958921 1.172236,-1.253215 1.597214,-2.426789 2.008778,-5.547228 0.279532,-2.1193762 0.580837,-2.7017843 1.220613,-2.3593865 0.18574,0.099405 0.379721,0.2902174 0.431069,0.4240269 0.117673,0.3066502 -0.325168,3.5631506 -0.667068,4.9053936 -0.700309,2.7493 -2.516666,4.721636 -5.197692,5.644044 -1.14458,0.393794 -1.297902,0.40704 -1.569354,0.135587 z"
     id="path2649"
     transform="matrix(1.1999995,0,0,1.1999995,0,-4.6034136e-4)" />
  <path
     style="fill:#ffffff;fill-opacity:0.941176;stroke-width:0.168502"
     d="M 48.206352,10.043574 C 47.979688,9.7704619 47.688558,8.1453655 47.687144,7.1453405 47.6862,6.4781286 48.052165,5.8975826 48.473706,5.8975826 c 0.402092,0 0.729213,0.6421996 0.736322,1.4455381 0.004,0.456084 0.06934,1.1496524 0.145124,1.541263 0.101429,0.5241419 0.07474,0.8020291 -0.101144,1.0531397 -0.276792,0.3951756 -0.766559,0.4447536 -1.047656,0.1060506 z"
     id="path2688"
     transform="matrix(1.1999995,0,0,1.1999995,0,-4.6034136e-4)" />
  <path
     style="fill:#ffffff;fill-opacity:0.941176;stroke-width:0.168502"
     d="M 44.289321,10.994779 C 44.153177,10.832596 43.945513,10.20703 43.827844,9.6046346 43.710176,9.0022386 43.50651,8.3896595 43.375253,8.2433477 c -0.544571,-0.607033 -0.09329,-1.4616759 0.670585,-1.2699561 0.533385,0.1338713 1.076274,1.2559602 1.320375,2.729066 0.170744,1.0304034 0.159738,1.1483004 -0.126758,1.3577904 -0.41761,0.305365 -0.652423,0.289185 -0.950134,-0.06547 z"
     id="path2727"
     transform="matrix(1.1999995,0,0,1.1999995,0,-4.6034136e-4)" />
  <path
     style="fill:#ffffff;fill-opacity:0.941176;stroke-width:0.168502"
     d="M 27.728193,19.50878 C 27.503805,19.188422 27.465885,18.340093 27.465885,13.640571 V 8.146858 L 27.075894,7.7804809 c -0.355545,-0.3340175 -0.568031,-0.366377 -2.405791,-0.366377 -2.128512,0 -2.764796,-0.188337 -2.764796,-0.8183661 0,-0.6071501 0.341013,-0.6981552 2.616115,-0.6981552 2.094005,0 2.231207,-0.020755 2.578086,-0.3899904 0.318548,-0.3390792 0.366377,-0.5824942 0.366377,-1.8646037 0,-1.6421514 0.166373,-2.1264673 0.730489,-2.1264673 0.659698,0 0.786032,0.3086097 0.786032,1.9201318 0,1.4153297 0.02999,1.5470296 0.452781,1.9883278 0.429019,0.4477988 0.530717,0.4726018 1.937777,0.4726018 H 32.85796 V 4.6269918 c 0,-1.0271791 -0.06791,-1.3624392 -0.354466,-1.7500329 -0.377426,-0.5104954 -0.336649,-0.9822554 0.124787,-1.4436913 0.608478,-0.60847802 1.914703,-0.049893 1.914703,0.8187903 0,0.2191925 -0.151652,0.5913263 -0.337005,0.826964 -0.265054,0.3369619 -0.337005,0.6835777 -0.337005,1.6234963 v 1.1950644 h 0.556058 c 0.654186,0 0.960464,0.2538748 0.960464,0.7961317 0,0.5870853 -0.580131,0.7203896 -3.135086,0.7203896 -2.071412,0 -2.31439,0.032349 -2.76932,0.3686929 l -0.498684,0.3686931 v 5.6636911 c 0,4.180425 -0.05296,5.716647 -0.202203,5.865895 -0.313431,0.313431 -0.763413,0.239735 -1.05201,-0.172296 z"
     id="path2766"
     transform="matrix(1.1999995,0,0,1.1999995,0,-4.6034136e-4)" />
  <path
     style="fill:#ffffff;fill-opacity:0.941176;stroke-width:0.168502"
     d="m 33.651016,17.61922 c -0.772061,-0.772061 -2.778577,-6.442087 -2.478292,-7.003174 0.487036,-0.9100354 1.186088,-0.349714 1.681282,1.347622 0.202786,0.695072 0.74159,2.1226 1.197342,3.172285 0.455752,1.049685 0.828641,1.973138 0.828641,2.052118 0,0.224877 -0.504963,0.673179 -0.758261,0.673179 -0.125775,0 -0.337595,-0.108913 -0.470712,-0.24203 z"
     id="path2805"
     transform="matrix(1.1999995,0,0,1.1999995,0,-4.6034136e-4)" />
  <path
     style="fill:#ffffff;fill-opacity:0.941176;stroke-width:0.168502"
     d="m 21.843476,17.717522 c -0.284727,-0.314619 -0.265633,-0.387038 0.501763,-1.903069 0.438765,-0.866802 1.154072,-2.448003 1.589572,-3.513781 0.741342,-1.814248 0.821565,-1.937777 1.258444,-1.937777 1.073468,0 0.973718,0.685371 -0.603866,4.149065 -1.52316,3.344205 -2.056734,3.967096 -2.745913,3.205562 z"
     id="path2844"
     transform="matrix(1.1999995,0,0,1.1999995,0,-4.6034136e-4)" />
  <path
     style="fill:#ffffff;fill-opacity:0.941176;stroke-width:0.168502"
     d="M 1.2758036,16.585447 C 0.92894768,16.238591 0.94170196,16.077037 1.3480189,15.67072 1.659347,15.359391 1.9096934,15.333715 4.6338149,15.333715 H 7.5826062 V 10.615649 5.8975826 l -2.1484051,-0.0023 C 2.9019017,5.8925698 2.5574865,5.822833 2.4226248,5.2855015 2.197814,4.3897837 2.2563881,4.3810614 8.496301,4.3810614 c 6.101361,0 6.163404,0.00801 6.163404,0.7961316 0,0.5900952 -0.581036,0.7203896 -3.212514,0.7203896 H 9.0991275 v 4.7180664 4.718066 h 3.0143755 c 2.700612,0 3.05515,0.03302 3.406113,0.31721 0.345744,0.279967 0.368144,0.368994 0.190782,0.758261 l -0.200956,0.44105 H 8.5250175 c -6.124807,0 -7.0170138,-0.03259 -7.2492139,-0.264789 z"
     id="path2883"
     transform="matrix(1.1999995,0,0,1.1999995,0,-4.6034136e-4)" />
</svg>
