<?xml version="1.0" encoding="UTF-8" standalone="no"?>
<!-- Generator: Adobe Illustrator 25.0.0, SVG Export Plug-In . SVG Version: 6.00 Build 0)  -->

<svg
   version="1.1"
   id="Layer_1"
   x="0px"
   y="0px"
   viewBox="0 0 3840 1078.5"
   style="enable-background:new 0 0 3840 1078.5;"
   xml:space="preserve"
   sodipodi:docname="gamecom-w.svg"
   inkscape:version="1.3 (0e150ed6c4, 2023-07-21)"
   xmlns:inkscape="http://www.inkscape.org/namespaces/inkscape"
   xmlns:sodipodi="http://sodipodi.sourceforge.net/DTD/sodipodi-0.dtd"
   xmlns="http://www.w3.org/2000/svg"
   xmlns:svg="http://www.w3.org/2000/svg"><defs
   id="defs24" /><sodipodi:namedview
   id="namedview24"
   pagecolor="#ffffff"
   bordercolor="#111111"
   borderopacity="1"
   inkscape:showpageshadow="0"
   inkscape:pageopacity="0"
   inkscape:pagecheckerboard="1"
   inkscape:deskcolor="#d1d1d1"
   inkscape:zoom="0.72135417"
   inkscape:cx="1920"
   inkscape:cy="539.26354"
   inkscape:window-width="3440"
   inkscape:window-height="1377"
   inkscape:window-x="-8"
   inkscape:window-y="760"
   inkscape:window-maximized="1"
   inkscape:current-layer="Layer_1" />&#10;<style
   type="text/css"
   id="style1">&#10;	.st0{fill:#CDD4D6;}&#10;	.st1{fill:#FF0000;}&#10;	.st2{fill:#A8A8A8;}&#10;</style>&#10;<g
   id="g24">&#10;	<g
   id="g17">&#10;		<path
   class="st2"
   d="M3669.2,889.1V596.8c0-17.3-14-31.3-31.3-31.3h-33.1v323.5c0,13.5-10.9,24.4-24.4,24.4h-122    c-13.5,0-24.4-10.9-24.4-24.4V565.6h-64.4v323.5c0,13.5-10.9,24.4-24.4,24.4h-122c-13.5,0-24.4-10.9-24.4-24.4V437.5    c0-13.5,10.9-24.4,24.4-24.4H3661c98.8,0,179,80.1,179,179v297c0,13.5-10.9,24.4-24.4,24.4h-122    C3680.1,913.5,3669.2,902.6,3669.2,889.1z"
   id="path1" />&#10;		<path
   class="st2"
   d="M2199.8,941.4c13.9-8.5,25.7-20.2,34.2-34.1c0.1-0.2,0.2-0.4,0.3-0.6c2.1-3.4,4-7,5.7-10.7    c42.5-41.8,94.2-108.8,70.1-150.7c-10-17.3-28.6-27.3-50.9-27.3c-28.3,0-63.4,15.9-94.1,33.8c-5.5-1-11.1-1.6-16.8-1.7    c-0.7,0-1.4-0.1-2.1-0.1c-3.5,0-6.9,0.2-10.3,0.5c-1.1,0.1-2.1,0.3-3.1,0.5c-2.3,0.3-4.6,0.6-6.9,1.1c-1.3,0.3-2.6,0.6-3.9,1    c-1.9,0.5-3.8,0.9-5.7,1.5c-1.5,0.4-2.9,1-4.3,1.5c-1.7,0.6-3.3,1.1-4.9,1.8c-1.5,0.6-3,1.3-4.5,2c-1.4,0.7-2.9,1.3-4.3,2.1    c-1.6,0.8-3.1,1.7-4.6,2.6c-1.2,0.7-2.5,1.5-3.7,2.3c-1.6,1-3.1,2.1-4.6,3.2c-1.1,0.8-2.1,1.5-3.1,2.4c-1.6,1.2-3.1,2.5-4.5,3.9    c-0.9,0.8-1.7,1.5-2.6,2.4c-1.5,1.5-3,3-4.4,4.5c-0.7,0.8-1.4,1.5-2.1,2.3c-1.5,1.7-2.9,3.4-4.3,5.2c-0.5,0.7-1.1,1.4-1.6,2.1    c-1.4,1.9-2.7,3.9-4,5.9c-0.4,0.6-0.8,1.3-1.2,1.9c-1.3,2.2-2.5,4.3-3.6,6.6c-0.3,0.5-0.5,1.1-0.8,1.7c-1.1,2.4-2.2,4.8-3.2,7.3    c-0.2,0.5-0.3,0.9-0.5,1.4c-1,2.6-1.9,5.3-2.6,8c-0.1,0.3-0.2,0.7-0.3,1c-0.8,2.9-1.4,5.7-2,8.7c0,0.2-0.1,0.4-0.1,0.5    c-0.5,3.1-1,6.2-1.2,9.4c-31.6,31-56.6,64.3-57.7,93.2c-0.6,16.8,5.7,31.9,17.9,42.7c8.9,7.8,24.5,17.2,48.6,17.2c0,0,0,0,0,0    c7.2,0,14.9-0.9,23.1-2.6c4.5,1.1,9.2,1.7,14.1,1.7c21.5,0,40.4-11.2,51.3-28.1c7.6-4.2,15.5-9.1,23.6-14.2c0,0,0,0,0,0    c12.5-2.2,24.3-6.7,34.8-13.1C2199.3,941.7,2199.6,941.6,2199.8,941.4z"
   id="path2" />&#10;		<path
   class="st2"
   d="M1454.9,889.1V596.8c0-17.3-14-31.3-31.3-31.3h-33.1v323.5c0,13.5-10.9,24.4-24.4,24.4h-122    c-13.5,0-24.4-10.9-24.4-24.4V565.6h-64.4v323.5c0,13.5-10.9,24.4-24.4,24.4h-122c-13.5,0-24.4-10.9-24.4-24.4V437.5    c0-13.5,10.9-24.4,24.4-24.4h437.8c98.8,0,179,80.1,179,179v297c0,13.5-10.9,24.4-24.4,24.4h-122    C1465.9,913.5,1454.9,902.6,1454.9,889.1z"
   id="path3" />&#10;		<path
   class="st2"
   d="M656.1,913.5c-89.1,0-161.7-71.7-163.2-160.4c-1.5-91.3,76.2-166,167.5-166l127.8,0    c-4.1-12.5-15.9-21.5-29.7-21.5H539.1c-13.5,0-24.4-10.9-24.4-24.4V437.5c0-13.5,10.9-24.4,24.4-24.4h242.5    c98.8,0,179,80.1,179,179v297c0,13.5-10.9,24.4-24.4,24.4H656.1z M673.9,739.5c-5.6,0-10.1,4.5-10.1,10.1v1.3    c0,5.6,4.5,10.1,10.1,10.1h115.9v-21.5H673.9z"
   id="path4" />&#10;		<path
   class="st2"
   d="M38.9,1054.2V950.5c0-13.5,10.9-24.4,24.4-24.4h219.5c10.2,0,19.3-5,25-12.6h-96.2C87,913.5,0,810.6,0,663.3    s87-250.2,211.7-250.2h248.8c13.5,0,24.4,10.9,24.4,24.4v462.1c0,98.8-80.1,179-179,179H63.3C49.9,1078.5,38.9,1067.6,38.9,1054.2    z M243.8,565.6c-14.5,0-62,7-62,97.7s47.4,97.7,62,97.7H314V565.6H243.8z"
   id="path5" />&#10;		<path
   class="st2"
   d="M1844.9,913.5c-124.6,0-211.7-102.9-211.7-250.2s87.1-250.2,211.7-250.2h184.7c13.5,0,24.4,10.9,24.4,24.4    v103.6c0,13.5-10.9,24.4-24.4,24.4H1877c-7.7,0-27.2,2.1-42.2,21.5h194.8c13.5,0,24.4,10.9,24.4,24.4v103.6    c0,13.5-10.9,24.4-24.4,24.4h-194.8c15.1,19.4,34.5,21.5,42.2,21.5h152.6c13.5,0,24.4,10.9,24.4,24.4v103.6    c0,13.5-10.9,24.4-24.4,24.4H1844.9z"
   id="path6" />&#10;		<path
   class="st2"
   d="M2463.7,913.5c-124.6,0-211.7-102.9-211.7-250.2s87-250.2,211.7-250.2h184.7c13.5,0,24.4,10.9,24.4,24.4    v103.6c0,13.5-10.9,24.4-24.4,24.4h-152.6c-14.5,0-62,7-62,97.7s47.4,97.7,62,97.7h152.6c13.5,0,24.4,10.9,24.4,24.4v103.6    c0,13.5-10.9,24.4-24.4,24.4H2463.7z"
   id="path7" />&#10;		<path
   class="st2"
   d="M2931.2,931.5c-160.9,0-260.9-100-260.9-260.9s100-260.9,260.9-260.9c160.9,0,260.9,100,260.9,260.9    S3092.1,931.5,2931.2,931.5z M2931.2,558.6c-23.1,0-84.3,0-84.3,112c0,112,61.2,112,84.3,112c23.1,0,84.3,0,84.3-112    C3015.4,558.6,2954.2,558.6,2931.2,558.6z"
   id="path8" />&#10;		<path
   d="M1446.8,453.8h-36.5h-60.4h-89.4h-39.9h-105.8l0,0h-89.4v419h89.4V524.9h105.8h39.9v347.9h89.4V524.9h60.4h13.4    c39.6,0,71.9,32.4,71.9,71.9v276h89.4V592.1C1585.1,515.7,1523.2,453.8,1446.8,453.8z"
   id="path9" />&#10;		<path
   d="M757.2,627.8h-101c-67.7,0-122.5,54.9-122.5,122.5c0,67.7,54.9,122.5,122.5,122.5h174.4l0,0h89.4l0,0l0,0v-71.1l0,0V698.8    l0,0v-71.1l0,0v-35.7c0-76.4-61.9-138.3-138.3-138.3H555.4v71.1h203.2c39.6,0,71.9,32.4,71.9,71.9v30.9H757.2 M830.5,801.7H673.9    c-28.1,0-50.8-22.8-50.8-50.8v-1.3c0-28.1,22.7-50.8,50.8-50.8h156.6V801.7z"
   id="path10" />&#10;		<path
   d="M3661,453.8h-421.5v419h89.4V524.9h145.7v347.9h89.4V524.9h73.8c39.6,0,71.9,32.4,71.9,71.9v276h89.4V592.1    C3799.3,515.7,3737.4,453.8,3661,453.8z"
   id="path11" />&#10;		<path
   d="M211.7,453.8c-111.7,0-171,100.1-171,209.5s59.3,209.5,171,209.5h143v22c0,39.6-32.4,71.9-71.9,71.9H79.6v71.1h226.3    c76.4,0,138.3-61.9,138.3-138.3v-26.8v-71.1V524.9v-71.1h-89.4H211.7z M354.7,801.7c-41.7,0-87.2,0-110.9,0    c-17.2,0-102.7-8.5-102.7-138.4s85.4-138.4,102.7-138.4c23.7,0,69.2,0,110.9,0V801.7z"
   id="path12" />&#10;		<path
   d="M1877.1,524.9c50.5,0,136.3,0,136.3,0v-71.1h-168.4c-111.7,0-171,100.1-171,209.5s59.3,209.5,171,209.5h168.4v-71.1    c0,0-85.8,0-136.3,0c-15.5,0-86.2-7-100.2-102.9h236.5v-71.1h-236.5C1790.9,531.8,1861.6,524.9,1877.1,524.9z"
   id="path13" />&#10;		<path
   d="M2393.1,663.3c0-129.9,85.4-138.4,102.7-138.4c50.5,0,136.3,0,136.3,0v-71.1h-168.4c-111.7,0-171,100.1-171,209.5    s59.3,209.5,171,209.5h168.4v-71.1c0,0-85.8,0-136.3,0C2478.6,801.7,2393.1,793.2,2393.1,663.3z"
   id="path14" />&#10;		<path
   d="M2931.2,450.5c-134.6,0-220.2,78.7-220.2,220.2c0,141.5,85.6,220.2,220.2,220.2c134.6,0,220.2-78.7,220.2-220.2    C3151.4,529.2,3065.8,450.5,2931.2,450.5z M2931.2,823.4c-84.2,0-125-56.9-125-152.7c0-95.8,40.8-152.7,125-152.7    c84.2,0,125,56.9,125,152.7C3056.1,766.5,3015.4,823.4,2931.2,823.4z"
   id="path15" />&#10;		<circle
   cx="2146.2"
   cy="853.4"
   r="62.5"
   id="circle15" />&#10;		<path
   d="M2192.4,811.2c10.1,11.1,16.3,25.9,16.3,42.1c0,34.5-28,62.5-62.5,62.5c-23.2,0-43.5-12.6-54.3-31.4"
   id="path16" />&#10;		<path
   d="M2274.9,765.7c-11.9-20.6-76.1,6.6-144.4,58.5c-68.3,51.9-119.5,108.9-99.9,126.2c24.3,21.4,87-8.8,152-57.8    C2238.9,850.1,2283.8,781.1,2274.9,765.7z M2171.1,881.8c-56.3,42.6-115.1,67.6-129.2,56.9c-17.6-13.4,31.3-62.7,90.5-107.8    c59.2-45,114.6-73,123.2-57.5C2262,785.1,2220,844.9,2171.1,881.8z"
   id="path17" />&#10;		<circle
   cx="2089.3"
   cy="936.2"
   r="20.3"
   id="circle17" />&#10;	</g>&#10;	<g
   id="g23">&#10;		<g
   id="g22">&#10;			<rect
   x="1529.7"
   y="0"
   class="st1"
   width="82.8"
   height="287.8"
   id="rect17" />&#10;			<polygon
   class="st1"
   points="1302.3,70.6 1362.8,70.6 1362.8,71.5 1362.8,286.1 1362.8,287.8 1445.6,287.8 1445.6,286.1      1445.6,71.5 1445.6,70.6 1506.1,70.6 1506.1,0 1302.3,0    "
   id="polygon17" />&#10;			<path
   class="st1"
   d="M1758,0c-82.5,0-126.4,72-126.4,143.9s43.9,143.9,126.4,143.9c0-11.8,0,0,0,0h148.8v-1.8v-68.8v-38.1v-70.6     v0h-146v70.6h63.2v38.1h-42.2c0,0,0,0,0,0c-97.8,0-97.8-146.7,0-146.7l0,0h125V0H1758C1758,0,1758,11.8,1758,0z"
   id="path18" />&#10;			<path
   class="st1"
   d="M2818,120.9c-22.9-12.2-50.6,5.2-50.6,31.2c0,1.8,0,3.6,0,5.4c0,10.3,5.1,19.4,12.8,26.2     c11.4,10.1,7.1,33.6-12.8,33.6v0h-375.8v-27.5c0-11.4-6.5-21.2-16-26.1c20.9-17,34-45.5,34-74c0-44.8-32-89.6-76.4-89.6v0h-132.1     l0,0h-41.4v195h82.8V70.6h62c10.3,0,19.5,7.7,20.1,18c0.6,11-8.2,20.1-19,20.1h-40.3v70.6h23.3c11.1,0,20.2,9,20.2,20.2v88.5     h82.8l0,0h375.8l0,0c59.7,0,99.8-44.8,99.8-89.6C2867.2,167.8,2848.7,137.3,2818,120.9z"
   id="path19" />&#10;			<path
   class="st1"
   d="M1478.9,76.1c-15,0-27.2,12.2-27.2,27.2c0,15,12.2,27.2,27.2,27.2c15,0,27.2-12.2,27.2-27.2     C1506.1,88.3,1493.9,76.1,1478.9,76.1z"
   id="path20" />&#10;			<path
   class="st1"
   d="M1329.5,76.1c-15,0-27.2,12.2-27.2,27.2c0,15,12.2,27.2,27.2,27.2c15,0,27.2-12.2,27.2-27.2     C1356.7,88.3,1344.5,76.1,1329.5,76.1z"
   id="path21" />&#10;			<path
   class="st1"
   d="M2020.1,198.2c0-10.5,8.5-19,19-19h105.4v-70.6h-105.4c-10.5,0-19-8.5-19-19s8.5-19,19-19h105.4V0h-132.1     l0,0h-13.6c-41,0-74.3,33.3-74.3,74.3v10.6c0,32.6,25.6,59.1,33.6,59.1c-8,0-33.6,26.4-33.6,59.1v10.6c0,41,33.3,74.3,74.3,74.3     h13.6l0,0h230.1v-70.6h-203.5C2028.6,217.3,2020.1,208.8,2020.1,198.2z"
   id="path22" />&#10;		</g>&#10;	</g>&#10;</g>&#10;<path
   style="fill:#ffffff;stroke-width:1.38628"
   d="M 80.404332,1002.2816 V 966.93141 H 186.85676 c 117.00266,0 114.47759,0.16454 130.774,-8.52136 10.26885,-5.47325 23.26272,-18.46712 28.73596,-28.73597 6.41602,-12.03768 8.52137,-22.05479 8.52137,-40.54415 v -16.22259 l -82.13719,-0.61507 c -76.32326,-0.57154 -83.03312,-0.8154 -94.79479,-3.44515 C 97.504002,850.85913 45.65416,776.42834 41.990018,673.66689 39.495313,603.70248 60.70395,540.74343 100.29572,500.58309 c 22.36721,-22.68843 46.99741,-36.04109 79.96048,-43.34863 9.11627,-2.02097 25.52079,-2.36075 136.8869,-2.83529 l 126.5294,-0.53915 -0.41049,233.31548 -0.41047,233.31547 -3.12087,11.7834 c -4.3232,16.32298 -16.28661,39.99877 -27.0135,53.46023 -22.00195,27.6108 -55.61518,45.9576 -92.44976,50.461 -7.22978,0.8839 -55.60729,1.4362 -125.80506,1.4362 H 80.404332 Z M 354.88809,663.33574 V 524.70758 h -61.46778 c -56.60196,0 -62.31241,0.21602 -72.13755,2.72887 -23.39899,5.98445 -43.40031,20.31481 -56.78467,40.68457 -16.86514,25.66716 -23.55604,52.65888 -23.6025,95.21472 -0.0713,65.27418 20.32037,108.1399 61.11736,128.47628 19.12932,9.53554 22.7715,9.93544 91.53218,10.04982 l 61.34296,0.10206 z"
   id="path24" /><path
   style="fill:#ffffff;stroke-width:1.38628"
   d="m 641.15523,871.10044 c -30.0252,-3.75348 -59.76502,-20.32041 -79.37992,-44.21953 -9.69719,-11.81522 -20.29369,-33.49439 -23.95471,-49.00848 -7.00939,-29.70319 -1.82133,-63.73051 13.61328,-89.28646 18.07734,-29.93168 48.55427,-51.38247 82.02408,-57.73158 9.71039,-1.84204 25.82724,-2.17569 105.09523,-2.17569 h 93.62596 l -0.74561,-22.57255 c -0.63263,-19.1522 -1.26203,-24.0575 -4.15369,-32.37251 -8.19824,-23.57405 -25.09379,-39.55103 -49.48092,-46.79077 -6.6427,-1.972 -20.15458,-2.23529 -114.7148,-2.23529 H 555.89892 V 489.3574 454.00722 l 114.7148,0.004 c 72.98667,0.002 119.25321,0.54504 127.19133,1.49154 14.33985,1.70981 37.89439,9.09753 49.13278,15.41017 30.91492,17.36501 53.81042,44.43111 64.72546,76.51575 7.53534,22.15007 7.4414,19.89753 7.4414,178.44296 V 872.66426 L 784.98195,872.4889 c -73.76751,-0.0964 -138.48953,-0.72126 -143.82672,-1.38846 z M 831.76895,749.97834 V 697.99278 H 750.2696 c -90.63288,0 -91.70082,0.0921 -105.29593,9.07703 -24.93762,16.48121 -29.9336,54.71524 -10.10108,77.30323 5.95463,6.78194 11.23319,10.4373 20.68952,14.32727 l 7.77363,3.19778 84.21661,0.0329 84.2166,0.0329 z"
   id="path25" /><path
   style="fill:#ffffff;stroke-width:1.38628"
   d="M 1025.8484,663.29498 V 453.9257 l 220.0722,0.39884 220.0722,0.39885 13.8302,3.80057 c 18.3483,5.04212 39.0075,15.39266 53.0559,26.58177 26.2222,20.88503 45.4444,54.86127 50.1407,88.62576 0.9974,7.17108 1.5003,59.08008 1.5003,154.8598 v 144.07297 h -44.3611 -44.361 V 729.47537 c 0,-157.45588 0.3337,-150.89672 -8.5213,-167.51046 -5.4733,-10.26886 -18.4671,-23.26272 -28.736,-28.73597 -14.7458,-7.85944 -19.9506,-8.52136 -67.005,-8.52136 h -42.6835 v 173.97834 173.97834 h -43.6679 -43.6679 V 698.68592 524.70758 h -73.4729 -73.4729 v 173.97834 173.97834 h -44.361 -44.361 z"
   id="path26" /><path
   style="fill:#ffffff;stroke-width:1.38628"
   d="m 1834.7437,871.73937 c -40.6663,-3.36478 -72.7526,-17.51719 -99.5262,-43.89836 -73.149,-72.07659 -81.1766,-222.83432 -16.5105,-310.06484 23.0963,-31.15543 53.9623,-51.18091 92.4699,-59.99327 11.7949,-2.69924 17.6455,-2.88551 107.0902,-3.40965 l 94.6138,-0.55443 v 35.44438 35.44438 h -73.731 c -81.4413,0 -82.3947,0.0841 -101.6337,8.96432 -32.4637,14.98451 -53.0746,45.6437 -60.8402,90.50139 l -0.78,4.50541 h 118.4924 118.4925 v 34.65704 34.65704 H 1894.3884 1775.896 l 0.7913,4.50541 c 9.2412,52.61488 36.2723,85.80438 78.7258,96.66141 10.3275,2.64115 15.2271,2.8043 84.2166,2.8043 h 73.2512 v 35.35018 35.35018 l -86.2961,-0.23303 c -47.4628,-0.12818 -88.7913,-0.43951 -91.8411,-0.69186 z"
   id="path27" /><path
   style="fill:#ffffff;stroke-width:1.38628"
   d="m 2044.6338,955.96203 c -6.7808,-1.36174 -14.0442,-5.80023 -16.2021,-9.90073 -5.7501,-10.92642 7.8427,-33.86094 39.375,-66.43561 l 16.803,-17.35854 0.6102,-12.47654 c 0.7896,-16.14424 6.1841,-28.14484 17.9337,-39.89494 11.6289,-11.62942 23.082,-16.67419 39.4909,-17.39468 9.0353,-0.39673 14.8622,0.0968 20.5024,1.73642 l 7.8797,2.29067 16.1811,-9.29073 c 40.8658,-23.46398 72.2675,-32.76178 83.0728,-24.59727 3.4975,2.64273 3.8989,3.76263 3.7687,10.51442 -0.3218,16.6805 -23.4572,52.58328 -54.7436,84.9538 -9.0858,9.4007 -14.8334,16.72338 -17.8563,22.74995 -8.6272,17.19893 -25.7268,29.93262 -44.9735,33.49057 -5.446,1.00674 -11.5617,3.6489 -18.6635,8.06324 -5.8098,3.61119 -14.692,8.85174 -19.7383,11.64565 -6.4876,3.59194 -9.6872,6.3162 -10.9235,9.30087 -3.969,9.58213 -15.2591,14.53015 -24.7055,10.82752 -4.1723,-1.6354 -6.2795,-1.69872 -11.5632,-0.34757 -9.2874,2.37499 -20.4849,3.28087 -26.248,2.1235 z m 18.085,-15.48484 c 6.1112,-1.31065 6.9996,-1.93517 6.9996,-4.92083 0,-8.99993 8.1677,-17.27097 17.9868,-18.21446 5.9014,-0.56706 7.8491,-0.10087 12.5353,3.00031 6.1718,4.08435 5.786,4.16589 20.4043,-4.31119 l 5.8723,-3.40529 -8.1393,-4.06727 c -11.9409,-5.96696 -21.7606,-16.32231 -27.9358,-29.45993 l -5.1666,-10.99172 -15.2673,15.35631 c -22.2244,22.35401 -32.1742,37.15416 -32.1742,47.85872 0,9.35197 8.8264,12.59926 24.8849,9.15535 z m 160.2145,-107.32196 c 18.7606,-21.97576 33.9331,-47.20875 33.9331,-56.43313 0,-8.31324 -10.4877,-10.34307 -26.4569,-5.12057 -9.3665,3.06317 -36.0806,16.29153 -47.5558,23.54877 l -6.778,4.28664 3.4346,2.30319 c 15.8729,10.64415 23.7225,22.84894 28.1456,43.76142 1.0023,4.73883 0,5.5477 15.2774,-12.34632 z"
   id="path28" /><path
   style="fill:#ffffff;stroke-width:1.38628"
   d="m 2446.787,871.14093 c -74.4356,-7.25583 -129.9133,-64.24183 -147.6464,-151.66079 -7.4364,-36.65928 -7.4263,-75.60339 0.029,-112.49651 15.5338,-76.86788 61.0858,-131.25828 123.3878,-147.32861 18.8996,-4.875 34.735,-5.59901 123.002,-5.62378 l 85.6029,-0.024 v 35.35018 35.35018 h -73.2512 c -68.7536,0 -73.9245,0.17073 -84.2166,2.78066 -38.2526,9.70023 -63.9637,37.88108 -75.2476,82.47566 -8.4205,33.27819 -7.625,80.85035 1.8996,113.58964 6.1078,20.99476 14.5794,35.59066 29.0469,50.04555 14.1915,14.17917 25.6703,20.79536 44.3815,25.58089 10.2255,2.61525 15.3232,2.78392 84.1362,2.78392 h 73.2512 v 35.35018 35.35018 l -86.2961,-0.18736 c -47.4628,-0.10304 -91.5985,-0.70423 -98.0794,-1.33597 z"
   id="path29" /><path
   style="fill:#ffffff;stroke-width:1.38628"
   d="m 2904.9531,889.2119 c -56.9086,-5.28204 -101.8921,-24.59516 -135.1961,-58.04475 -35.9472,-36.10437 -54.9874,-85.09549 -57.6842,-148.42347 -2.3902,-56.12863 10.2707,-107.44069 36.3348,-147.25752 8.7006,-13.29146 34.4901,-38.87304 48.4155,-48.02527 49.8566,-32.76728 123.4991,-44.43764 192.6931,-30.53668 62.7827,12.61292 110.2158,47.37238 136.8341,100.27342 21.4933,42.71564 29.1632,99.60659 21.1725,157.04604 -6.6283,47.64618 -25.4768,87.65564 -55.3841,117.56291 -24.0354,24.03539 -53.3802,40.28106 -89.8999,49.76965 -26.8991,6.98898 -68.8114,10.27855 -97.2857,7.63567 z m 50.7203,-67.08734 c 53.9252,-8.12893 86.2288,-43.41944 97.7635,-106.80326 3.5919,-19.73718 3.5859,-70.42861 -0.011,-90.1083 -10.2738,-56.21742 -36.3207,-88.79007 -82.2252,-102.82551 -11.3258,-3.4629 -14.0365,-3.73182 -38.5224,-3.8216 -31.4477,-0.11531 -39.8284,1.51371 -61.6108,11.97571 -12.6382,6.07012 -15.9839,8.47439 -26.3393,18.9279 -14.0471,14.18015 -21.4304,26.49343 -28.3771,47.32472 -8.2377,24.70308 -9.7917,36.48574 -9.7814,74.16607 0.01,29.049 0.4086,35.25874 3.1576,48.93764 8.6082,42.83274 27.3086,72.49035 55.902,88.65681 23.6361,13.36361 57.5285,18.4713 90.0437,13.56982 z"
   id="path30" /><path
   style="fill:#ffffff;stroke-width:1.38628"
   d="M 3239.7401,663.29498 V 453.9257 l 220.0722,0.46981 c 198.3825,0.42351 220.9603,0.69388 229.083,2.74321 29.1222,7.3474 49.359,18.46468 68.6853,37.73297 18.1242,18.06986 29.6649,38.06737 37.0788,64.24973 2.9974,10.58517 3.0151,11.42523 3.4292,162.09158 l 0.4161,151.45126 h -44.4076 -44.4076 V 728.74258 c 0,-127.6839 -0.2495,-144.77118 -2.2116,-151.45126 -7.3397,-24.98795 -26.7176,-44.07957 -51.2178,-50.46108 -6.4639,-1.68361 -16.978,-2.12266 -50.8329,-2.12266 h -42.6835 v 173.97834 173.97834 h -43.6679 -43.6679 V 698.68592 524.70758 h -73.4729 -73.4729 v 173.97834 173.97834 h -44.361 -44.361 z"
   id="path31" /></svg>
