<?xml version="1.0" encoding="UTF-8" standalone="no"?>
<!-- Generator: Adobe Illustrator 25.0.0, SVG Export Plug-In . SVG Version: 6.00 Build 0)  -->

<svg
   version="1.1"
   id="Layer_1"
   x="0px"
   y="0px"
   viewBox="0 0 3840 1078.5"
   style="enable-background:new 0 0 3840 1078.5;"
   xml:space="preserve"
   sodipodi:docname="gamecom-w.svg"
   inkscape:version="1.3 (0e150ed6c4, 2023-07-21)"
   xmlns:inkscape="http://www.inkscape.org/namespaces/inkscape"
   xmlns:sodipodi="http://sodipodi.sourceforge.net/DTD/sodipodi-0.dtd"
   xmlns="http://www.w3.org/2000/svg"
   xmlns:svg="http://www.w3.org/2000/svg"><defs
   id="defs24" /><sodipodi:namedview
   id="namedview24"
   pagecolor="#ffffff"
   bordercolor="#111111"
   borderopacity="1"
   inkscape:showpageshadow="0"
   inkscape:pageopacity="0"
   inkscape:pagecheckerboard="1"
   inkscape:deskcolor="#d1d1d1"
   inkscape:zoom="0.72135417"
   inkscape:cx="1146.4549"
   inkscape:cy="428.36101"
   inkscape:window-width="3440"
   inkscape:window-height="1377"
   inkscape:window-x="-8"
   inkscape:window-y="760"
   inkscape:window-maximized="1"
   inkscape:current-layer="Layer_1" />&#10;<style
   type="text/css"
   id="style1">&#10;	.st0{fill:#CDD4D6;}&#10;	.st1{fill:#FF0000;}&#10;	.st2{fill:#A8A8A8;}&#10;</style>&#10;&#10;<path
   style="fill:#ffffff;stroke-width:1.38628"
   d="M 80.404332,1002.2816 V 966.93141 H 186.85676 c 117.00266,0 114.47759,0.16454 130.774,-8.52136 10.26885,-5.47325 23.26272,-18.46712 28.73596,-28.73597 6.41602,-12.03768 8.52137,-22.05479 8.52137,-40.54415 v -16.22259 l -82.13719,-0.61507 c -76.32326,-0.57154 -83.03312,-0.8154 -94.79479,-3.44515 C 97.504002,850.85913 45.65416,776.42834 41.990018,673.66689 39.495313,603.70248 60.70395,540.74343 100.29572,500.58309 c 22.36721,-22.68843 46.99741,-36.04109 79.96048,-43.34863 9.11627,-2.02097 25.52079,-2.36075 136.8869,-2.83529 l 126.5294,-0.53915 -0.41049,233.31548 -0.41047,233.31547 -3.12087,11.7834 c -4.3232,16.32298 -16.28661,39.99877 -27.0135,53.46023 -22.00195,27.6108 -55.61518,45.9576 -92.44976,50.461 -7.22978,0.8839 -55.60729,1.4362 -125.80506,1.4362 H 80.404332 Z M 354.88809,663.33574 V 524.70758 h -61.46778 c -56.60196,0 -62.31241,0.21602 -72.13755,2.72887 -23.39899,5.98445 -43.40031,20.31481 -56.78467,40.68457 -16.86514,25.66716 -23.55604,52.65888 -23.6025,95.21472 -0.0713,65.27418 20.32037,108.1399 61.11736,128.47628 19.12932,9.53554 22.7715,9.93544 91.53218,10.04982 l 61.34296,0.10206 z"
   id="path24" /><path
   style="fill:#ffffff;stroke-width:1.38628"
   d="m 641.15523,871.10044 c -30.0252,-3.75348 -59.76502,-20.32041 -79.37992,-44.21953 -9.69719,-11.81522 -20.29369,-33.49439 -23.95471,-49.00848 -7.00939,-29.70319 -1.82133,-63.73051 13.61328,-89.28646 18.07734,-29.93168 48.55427,-51.38247 82.02408,-57.73158 9.71039,-1.84204 25.82724,-2.17569 105.09523,-2.17569 h 93.62596 l -0.74561,-22.57255 c -0.63263,-19.1522 -1.26203,-24.0575 -4.15369,-32.37251 -8.19824,-23.57405 -25.09379,-39.55103 -49.48092,-46.79077 -6.6427,-1.972 -20.15458,-2.23529 -114.7148,-2.23529 H 555.89892 V 489.3574 454.00722 l 114.7148,0.004 c 72.98667,0.002 119.25321,0.54504 127.19133,1.49154 14.33985,1.70981 37.89439,9.09753 49.13278,15.41017 30.91492,17.36501 53.81042,44.43111 64.72546,76.51575 7.53534,22.15007 7.4414,19.89753 7.4414,178.44296 V 872.66426 L 784.98195,872.4889 c -73.76751,-0.0964 -138.48953,-0.72126 -143.82672,-1.38846 z M 831.76895,749.97834 V 697.99278 H 750.2696 c -90.63288,0 -91.70082,0.0921 -105.29593,9.07703 -24.93762,16.48121 -29.9336,54.71524 -10.10108,77.30323 5.95463,6.78194 11.23319,10.4373 20.68952,14.32727 l 7.77363,3.19778 84.21661,0.0329 84.2166,0.0329 z"
   id="path25" /><path
   style="fill:#ffffff;stroke-width:1.38628"
   d="M 1025.8484,663.29498 V 453.9257 l 220.0722,0.39884 220.0722,0.39885 13.8302,3.80057 c 18.3483,5.04212 39.0075,15.39266 53.0559,26.58177 26.2222,20.88503 45.4444,54.86127 50.1407,88.62576 0.9974,7.17108 1.5003,59.08008 1.5003,154.8598 v 144.07297 h -44.3611 -44.361 V 729.47537 c 0,-157.45588 0.3337,-150.89672 -8.5213,-167.51046 -5.4733,-10.26886 -18.4671,-23.26272 -28.736,-28.73597 -14.7458,-7.85944 -19.9506,-8.52136 -67.005,-8.52136 h -42.6835 v 173.97834 173.97834 h -43.6679 -43.6679 V 698.68592 524.70758 h -73.4729 -73.4729 v 173.97834 173.97834 h -44.361 -44.361 z"
   id="path26" /><path
   style="fill:#ffffff;stroke-width:1.38628"
   d="m 1834.7437,871.73937 c -40.6663,-3.36478 -72.7526,-17.51719 -99.5262,-43.89836 -73.149,-72.07659 -81.1766,-222.83432 -16.5105,-310.06484 23.0963,-31.15543 53.9623,-51.18091 92.4699,-59.99327 11.7949,-2.69924 17.6455,-2.88551 107.0902,-3.40965 l 94.6138,-0.55443 v 35.44438 35.44438 h -73.731 c -81.4413,0 -82.3947,0.0841 -101.6337,8.96432 -32.4637,14.98451 -53.0746,45.6437 -60.8402,90.50139 l -0.78,4.50541 h 118.4924 118.4925 v 34.65704 34.65704 H 1894.3884 1775.896 l 0.7913,4.50541 c 9.2412,52.61488 36.2723,85.80438 78.7258,96.66141 10.3275,2.64115 15.2271,2.8043 84.2166,2.8043 h 73.2512 v 35.35018 35.35018 l -86.2961,-0.23303 c -47.4628,-0.12818 -88.7913,-0.43951 -91.8411,-0.69186 z"
   id="path27" /><path
   style="fill:#ffffff;stroke-width:1.38628"
   d="m 2044.6338,955.96203 c -6.7808,-1.36174 -14.0442,-5.80023 -16.2021,-9.90073 -5.7501,-10.92642 7.8427,-33.86094 39.375,-66.43561 l 16.803,-17.35854 0.6102,-12.47654 c 0.7896,-16.14424 6.1841,-28.14484 17.9337,-39.89494 11.6289,-11.62942 23.082,-16.67419 39.4909,-17.39468 9.0353,-0.39673 14.8622,0.0968 20.5024,1.73642 l 7.8797,2.29067 16.1811,-9.29073 c 40.8658,-23.46398 72.2675,-32.76178 83.0728,-24.59727 3.4975,2.64273 3.8989,3.76263 3.7687,10.51442 -0.3218,16.6805 -23.4572,52.58328 -54.7436,84.9538 -9.0858,9.4007 -14.8334,16.72338 -17.8563,22.74995 -8.6272,17.19893 -25.7268,29.93262 -44.9735,33.49057 -5.446,1.00674 -11.5617,3.6489 -18.6635,8.06324 -5.8098,3.61119 -14.692,8.85174 -19.7383,11.64565 -6.4876,3.59194 -9.6872,6.3162 -10.9235,9.30087 -3.969,9.58213 -15.2591,14.53015 -24.7055,10.82752 -4.1723,-1.6354 -6.2795,-1.69872 -11.5632,-0.34757 -9.2874,2.37499 -20.4849,3.28087 -26.248,2.1235 z m 18.085,-15.48484 c 6.1112,-1.31065 6.9996,-1.93517 6.9996,-4.92083 0,-8.99993 8.1677,-17.27097 17.9868,-18.21446 5.9014,-0.56706 7.8491,-0.10087 12.5353,3.00031 6.1718,4.08435 5.786,4.16589 20.4043,-4.31119 l 5.8723,-3.40529 -8.1393,-4.06727 c -11.9409,-5.96696 -21.7606,-16.32231 -27.9358,-29.45993 l -5.1666,-10.99172 -15.2673,15.35631 c -22.2244,22.35401 -32.1742,37.15416 -32.1742,47.85872 0,9.35197 8.8264,12.59926 24.8849,9.15535 z m 160.2145,-107.32196 c 18.7606,-21.97576 33.9331,-47.20875 33.9331,-56.43313 0,-8.31324 -10.4877,-10.34307 -26.4569,-5.12057 -9.3665,3.06317 -36.0806,16.29153 -47.5558,23.54877 l -6.778,4.28664 3.4346,2.30319 c 15.8729,10.64415 23.7225,22.84894 28.1456,43.76142 1.0023,4.73883 0,5.5477 15.2774,-12.34632 z"
   id="path28" /><path
   style="fill:#ffffff;stroke-width:1.38628"
   d="m 2446.787,871.14093 c -74.4356,-7.25583 -129.9133,-64.24183 -147.6464,-151.66079 -7.4364,-36.65928 -7.4263,-75.60339 0.029,-112.49651 15.5338,-76.86788 61.0858,-131.25828 123.3878,-147.32861 18.8996,-4.875 34.735,-5.59901 123.002,-5.62378 l 85.6029,-0.024 v 35.35018 35.35018 h -73.2512 c -68.7536,0 -73.9245,0.17073 -84.2166,2.78066 -38.2526,9.70023 -63.9637,37.88108 -75.2476,82.47566 -8.4205,33.27819 -7.625,80.85035 1.8996,113.58964 6.1078,20.99476 14.5794,35.59066 29.0469,50.04555 14.1915,14.17917 25.6703,20.79536 44.3815,25.58089 10.2255,2.61525 15.3232,2.78392 84.1362,2.78392 h 73.2512 v 35.35018 35.35018 l -86.2961,-0.18736 c -47.4628,-0.10304 -91.5985,-0.70423 -98.0794,-1.33597 z"
   id="path29" /><path
   style="fill:#ffffff;stroke-width:1.38628"
   d="m 2904.9531,889.2119 c -56.9086,-5.28204 -101.8921,-24.59516 -135.1961,-58.04475 -35.9472,-36.10437 -54.9874,-85.09549 -57.6842,-148.42347 -2.3902,-56.12863 10.2707,-107.44069 36.3348,-147.25752 8.7006,-13.29146 34.4901,-38.87304 48.4155,-48.02527 49.8566,-32.76728 123.4991,-44.43764 192.6931,-30.53668 62.7827,12.61292 110.2158,47.37238 136.8341,100.27342 21.4933,42.71564 29.1632,99.60659 21.1725,157.04604 -6.6283,47.64618 -25.4768,87.65564 -55.3841,117.56291 -24.0354,24.03539 -53.3802,40.28106 -89.8999,49.76965 -26.8991,6.98898 -68.8114,10.27855 -97.2857,7.63567 z m 50.7203,-67.08734 c 53.9252,-8.12893 86.2288,-43.41944 97.7635,-106.80326 3.5919,-19.73718 3.5859,-70.42861 -0.011,-90.1083 -10.2738,-56.21742 -36.3207,-88.79007 -82.2252,-102.82551 -11.3258,-3.4629 -14.0365,-3.73182 -38.5224,-3.8216 -31.4477,-0.11531 -39.8284,1.51371 -61.6108,11.97571 -12.6382,6.07012 -15.9839,8.47439 -26.3393,18.9279 -14.0471,14.18015 -21.4304,26.49343 -28.3771,47.32472 -8.2377,24.70308 -9.7917,36.48574 -9.7814,74.16607 0.01,29.049 0.4086,35.25874 3.1576,48.93764 8.6082,42.83274 27.3086,72.49035 55.902,88.65681 23.6361,13.36361 57.5285,18.4713 90.0437,13.56982 z"
   id="path30" /><path
   style="fill:#ffffff;stroke-width:1.38628"
   d="M 3239.7401,663.29498 V 453.9257 l 220.0722,0.46981 c 198.3825,0.42351 220.9603,0.69388 229.083,2.74321 29.1222,7.3474 49.359,18.46468 68.6853,37.73297 18.1242,18.06986 29.6649,38.06737 37.0788,64.24973 2.9974,10.58517 3.0151,11.42523 3.4292,162.09158 l 0.4161,151.45126 h -44.4076 -44.4076 V 728.74258 c 0,-127.6839 -0.2495,-144.77118 -2.2116,-151.45126 -7.3397,-24.98795 -26.7176,-44.07957 -51.2178,-50.46108 -6.4639,-1.68361 -16.978,-2.12266 -50.8329,-2.12266 h -42.6835 v 173.97834 173.97834 h -43.6679 -43.6679 V 698.68592 524.70758 h -73.4729 -73.4729 v 173.97834 173.97834 h -44.361 -44.361 z"
   id="path31" /><path
   style="fill:#ff0000;fill-opacity:1;stroke-width:1.38628"
   d="M 1364.1011,178.83032 V 70.00722 h -30.4982 -30.4982 V 35.35018 0.69314079 h 101.1985 101.1986 V 35.35018 70.00722 h -30.4982 -30.4982 v 108.8231 108.82311 h -40.2022 -40.2021 z"
   id="path23" /><path
   style="fill:#ff0000;fill-opacity:1;stroke-width:1.38628"
   d="m 1468.7653,127.68664 c -2.2873,-1.00218 -6.1722,-3.88906 -8.633,-6.41528 -14.7354,-15.12688 -5.4653,-41.619809 15.3854,-43.969984 20.322,-2.290591 35.7461,18.211976 27.364,36.373714 -6.0138,13.03015 -21.6755,19.4624 -34.1164,14.01155 z"
   id="path32" /><path
   style="fill:#ff0000;fill-opacity:1;stroke-width:1.38628"
   d="m 1319.0469,127.39281 c -6.5216,-3.56193 -10.5487,-7.70871 -13.3221,-13.71772 -8.1706,-17.703321 6.2574,-38.068015 25.8211,-36.445645 8.0776,0.669859 13.8746,4.144159 19.7352,11.827895 3.2625,4.277245 3.8091,6.302712 3.8091,14.11273 0,10.24779 -2.5524,15.17714 -11.3224,21.86636 -6.1684,4.70486 -18.3032,5.86154 -24.7209,2.35638 z"
   id="path33" /><path
   style="fill:#ff0000;fill-opacity:1;stroke-width:1.38628"
   d="M 1530.4549,144.17328 V 0.69314079 h 40.8953 40.8953 V 144.17328 287.65343 h -40.8953 -40.8953 z"
   id="path34" /><path
   style="fill:#ff0000;fill-opacity:1;stroke-width:1.38628"
   d="m 1741.8628,286.08961 c -26.8502,-3.35658 -53.4579,-16.98797 -70.8106,-36.27694 -51.5498,-57.30205 -51.2373,-157.054861 0.6644,-212.073329 15.3774,-16.300868 30.5208,-25.69172 52.3915,-32.4893783 l 12.2096,-3.7948977 84.9097,-0.4499048 84.9098,-0.44990481 V 35.281238 70.00722 l -67.5813,0.02049 c -74.3512,0.02254 -77.378,0.296475 -93.5653,8.467775 -10.1248,5.110984 -22.2831,17.004776 -27.7646,27.160555 -2.1134,3.91561 -5.0766,11.94427 -6.5848,17.84146 -10.4477,40.84995 10.8904,80.72256 49.0608,91.6756 4.7343,1.35848 16.736,2.28708 35.8792,2.77602 l 28.7654,0.73471 V 198.4105 178.13718 h -31.1914 -31.1913 V 143.48014 108.8231 h 72.0866 72.0867 v 89.41517 89.41516 l -77.2852,-0.17537 c -42.5069,-0.0964 -81.652,-0.72125 -86.9892,-1.38845 z"
   id="path35" /><path
   style="fill:#ff0000;fill-opacity:1;stroke-width:1.38628"
   d="m 1983.7689,285.48168 c -26.9996,-5.84686 -49.1162,-27.21317 -56.1595,-54.25433 -2.3848,-9.15602 -2.7109,-34.04743 -0.5679,-43.34764 3.4909,-15.14965 16.1222,-34.59061 26.4924,-40.77466 4.816,-2.87189 5.2194,-3.45791 2.8898,-4.19733 -8.6139,-2.73391 -23.8236,-24.4463 -28.6656,-40.92106 -2.8933,-9.844298 -2.9423,-34.101801 -0.091,-45.204429 6.8064,-26.506839 28.3668,-47.7130546 54.8588,-53.9577653 7.3309,-1.7280408 22.0228,-2.09389489 84.7668,-2.11083414 l 75.8989,-0.0204908 V 35.35018 70.00722 h -54.202 c -60.119,0 -60.9008,0.1057 -66.3826,8.975474 -3.6163,5.851241 -3.651,15.248923 -0.078,21.108846 5.3258,8.73463 5.3027,8.73156 65.8357,8.73156 h 54.8269 v 34.65704 34.65704 l -52.3321,0.008 c -30.1905,0.004 -54.4183,0.58728 -57.2629,1.37751 -7.892,2.19239 -12.7514,8.31982 -13.4443,16.95231 -0.4814,5.99625 5e-4,8.17992 2.6836,12.16064 6.8735,10.19804 0.9192,9.69941 115.8503,9.70182 l 102.9314,0.002 v 34.65704 34.65704 l -124.4188,-0.11021 c -101.4568,-0.0899 -126.0817,-0.47034 -133.4296,-2.06154 z"
   id="path36" /><path
   style="fill:#ff0000;fill-opacity:1;stroke-width:1.38628"
   d="m 2309.2504,239.95306 c -0.3816,-45.74081 -0.5189,-47.91552 -3.2566,-51.58025 -6.0842,-8.14427 -9.2967,-9.43488 -24.9251,-10.01341 l -14.4983,-0.53668 V 143.32291 108.8231 h 22.2493 c 17.3759,0 23.1587,-0.47021 26.4007,-2.14672 9.7922,-5.06373 12.8664,-20.066851 5.8263,-28.433606 -6.4972,-7.721454 -9.3758,-8.235554 -46.1141,-8.235554 h -33.3153 v 62.38267 62.38267 h -40.8953 -40.8953 V 97.732852 0.69314079 h 89.3469 c 59.6941,0 91.7851,0.50688031 96.6932,1.52727971 21.1982,4.407115 40.4982,20.4882095 51.5198,42.9272885 8.4665,17.237042 11.0508,27.774975 11.0262,44.960594 -0.035,24.265127 -8.7487,46.969107 -24.5592,63.988827 l -8.5781,9.23409 6.4017,6.40166 c 7.9255,7.92551 9.6585,14.02444 9.6585,33.99039 v 14.65437 l 191.6535,-0.36572 c 185.6249,-0.35421 191.7755,-0.4485 195.5365,-2.99757 5.2791,-3.57799 7.9003,-9.1514 7.9003,-16.79838 0,-7.58479 -1.3057,-10.33795 -8.9621,-18.8979 -6.7411,-7.5366 -9.0596,-14.18844 -9.0596,-25.99275 0,-14.00645 6.1582,-24.79045 17.6691,-30.94169 13.9389,-7.44868 24.879,-5.94596 41.4537,5.694 28.9419,20.32506 43.7875,53.98114 37.3684,84.71659 -7.0025,33.52876 -33.8168,60.85598 -69.7544,71.08884 l -10.7945,3.07364 -237.3489,0.37528 -237.3488,0.37529 z"
   id="path37" /><path
   style="fill:#ff0000;fill-opacity:1;stroke-width:1.38628"
   d="m 2309.2664,239.9564 c -0.3968,-45.73156 -0.5357,-47.92045 -3.2726,-51.58387 -5.9769,-8.00009 -9.093,-9.24984 -24.8059,-9.94866 l -14.6175,-0.65011 V 143.29843 108.8231 l 22.5271,-0.005 c 25.2342,-0.006 29.2062,-1.16861 33.7043,-9.867055 3.2152,-6.217498 2.0811,-16.776027 -2.3138,-21.542998 -6.3277,-6.863211 -9.636,-7.400647 -45.5554,-7.400647 h -33.3153 v 62.38267 62.38267 h -40.8953 -40.8953 V 97.732852 0.69314079 h 89.3469 c 59.6941,0 91.7851,0.50688031 96.6932,1.52727971 21.1982,4.407115 40.4982,20.4882095 51.5198,42.9272885 8.4665,17.237042 11.0508,27.774975 11.0262,44.960594 -0.035,24.265127 -8.7487,46.969107 -24.5592,63.988827 l -8.5781,9.23409 6.4017,6.40166 c 7.9273,7.92737 9.6585,14.02387 9.6585,34.01332 v 14.6773 l 190.9603,-0.38865 c 179.5223,-0.36537 191.2288,-0.53535 195.4423,-2.8381 5.7366,-3.13515 8.6877,-8.9033 8.6877,-16.98078 0,-7.58479 -1.3057,-10.33795 -8.9621,-18.8979 -6.7411,-7.5366 -9.0596,-14.18844 -9.0596,-25.99275 0,-14.00645 6.1582,-24.79045 17.6691,-30.94169 13.9389,-7.44868 24.879,-5.94596 41.4537,5.694 18.974,13.32491 32.7866,33.70045 37.2247,54.91154 2.5529,12.2012 2.5529,18.29699 0,30.49819 -6.795,32.47569 -32.9535,59.23924 -68.6598,70.24767 l -10.3592,3.1938 -238.026,0.39283 -238.0261,0.39285 z"
   id="path38" /></svg>
