<?xml version="1.0" encoding="UTF-8" standalone="no"?>
<svg
   height="160.70958"
   viewBox="0 0 427.86112 192.8515"
   width="356.55093"
   version="1.1"
   id="svg96"
   sodipodi:docname="gamepock.svg"
   inkscape:version="1.1 (c68e22c387, 2021-05-23)"
   xmlns:inkscape="http://www.inkscape.org/namespaces/inkscape"
   xmlns:sodipodi="http://sodipodi.sourceforge.net/DTD/sodipodi-0.dtd"
   xmlns="http://www.w3.org/2000/svg"
   xmlns:svg="http://www.w3.org/2000/svg">
  <defs
     id="defs100" />
  <sodipodi:namedview
     id="namedview98"
     pagecolor="#ffffff"
     bordercolor="#666666"
     borderopacity="1.0"
     inkscape:pageshadow="2"
     inkscape:pageopacity="0.0"
     inkscape:pagecheckerboard="0"
     showgrid="false"
     inkscape:zoom="8.3928427"
     inkscape:cx="318.18778"
     inkscape:cy="7.0893739"
     inkscape:window-width="1920"
     inkscape:window-height="1017"
     inkscape:window-x="-8"
     inkscape:window-y="712"
     inkscape:window-maximized="1"
     inkscape:current-layer="svg96" />
  <g
     transform="translate(-.618713 -10.658497)"
     id="g94">
    <text
       fill="#ef00eb"
       font-family="TrasksHand"
       font-size="2.4"
       stroke="#0105ff"
       stroke-width="3"
       x="311.89667"
       y="76.231308"
       id="text4"><tspan
         fill="#fafafa"
         fill-opacity=".4"
         font-size="2.4"
         stroke="none"
         stroke-width="3"
         x="311.89667"
         y="76.231308"
         id="tspan2">John Loreth 2022</tspan></text>
    <g
       fill="#666"
       id="g42">
      <path
         d="m24.058743 194.89666c0-3.49334-1.920003-4.90668-5.520007-4.90668h-7.813343v3.44001h6.826675c.773334 0 1.280002.24 1.280002 1.49333 0 1.09334-.400001 1.49334-1.253335 1.49334h-8.0533439c-2.5333366 0-3.2266708-.56-3.2266708-4.61334 0-3.86667.6666675-4.61334 3.2266708-4.61334h13.7066839v-4.10667h-17.3066885c-3.4133376 0-5.30667334 2-5.30667334 5.30667v6.82668c0 3.30667 1.89333574 5.30667 5.30667334 5.30667h12.6133495c3.600004 0 5.520007-1.76 5.520007-5.62667z"
         id="path6" />
      <path
         d="m49.379997 195.21666v-6.82668c0-3.30667-1.920002-5.30667-5.306673-5.30667h-17.306689v4.10667h13.680018c2.586669 0 3.22667.74667 3.22667 4.61334 0 4.05334-.693334 4.61334-3.22667 4.61334h-8.053344c-.853334 0-1.253335-.4-1.253335-1.49334 0-1.25333.506667-1.49333 1.280002-1.49333h10.160013v-3.44001h-11.146681c-3.600005 0-5.49334 1.41334-5.49334 4.90668 0 3.86667 1.893335 5.62667 5.49334 5.62667h12.640016c3.386671 0 5.306673-2 5.306673-5.30667z"
         id="path8" />
      <path
         d="m82.996696 200.52333v-12.13335c0-3.30667-1.893335-5.30667-5.306673-5.30667h-26.773367v17.44002h5.813341v-11.84001c0-1.33334.16-1.49334 1.253335-1.49334h4.826672c1.066668 0 1.253335.16 1.253335 1.49334v11.84001h5.786674v-11.84001c0-1.33334.186667-1.49334 1.253335-1.49334h4.826673c1.093335 0 1.253335.16 1.253335 1.49334v11.84001z"
         id="path10" />
      <path
         d="m108.35668 188.70998c0-3.86667-1.92-5.62667-5.52001-5.62667h-12.613345c-3.413337 0-5.306673 2-5.306673 5.30667v6.82668c0 3.30667 1.893336 5.30667 5.306673 5.30667h17.306685v-4.10667h-13.70668c-2.560003 0-3.226671-.74667-3.226671-4.58667 0-4.05334.693334-4.64001 3.226671-4.64001h8.05334c.85334 0 1.25334.4 1.25334 1.49334 0 1.25333-.50667 1.49333-1.28 1.49333h-10.133349v3.44001h11.120009c3.60001 0 5.52001-1.41334 5.52001-4.90668z"
         id="path12" />
      <path
         d="m161.489 195.21666v-6.82668c0-3.30667-1.89334-5.30667-5.28001-5.30667h-12.88001c-3.41334 0-5.30668 2-5.30668 5.30667v6.82668c0 3.30667 1.89334 5.30667 5.30668 5.30667h12.88001c3.38667 0 5.28001-2 5.28001-5.30667zm-5.68001-3.41334c0 4.10667-.74666 4.61334-3.22667 4.61334h-5.65334c-2.53333 0-3.22667-.56-3.22667-4.61334 0-3.86667.66667-4.61334 3.22667-4.61334h5.65334c2.48001 0 3.22667.58667 3.22667 4.61334z"
         id="path14" />
      <path
         d="m182.87874 200.52335v-4.10667h-10.38622c-2.49795 0-3.18161-.56001-3.18161-4.61334 0-3.86667.65736-4.61333 3.18161-4.61333h10.38622v-4.10667h-13.93594c-3.36567 0-5.23255 1.99999-5.23255 5.30667v6.82667c0 3.30666 1.86688 5.30667 5.23255 5.30667z"
         id="path16" />
      <path
         d="m208.54256 183.04871-6.78453.0346-3.52585 7.33333c-.40595.84432-.2975 1.25333-1.29817 1.25333h-4.74256v4.34667h4.92475c.97363 0 1.10886.10667 1.40635 1.14667l2.35043 3.36001h6.69607l-4.18791-4.94099c-.87291-1.53497-.96407-1.56151.22645-3.55925zm-17.59519 17.47464v-20.42668h-5.89586v20.42668z"
         id="path18" />
      <path
         d="m231.55819 188.70998c0-3.86667-1.92-5.62667-5.52001-5.62667h-12.61335c-3.41333 0-5.30667 2-5.30667 5.30667v6.82668c0 3.30667 1.89334 5.30667 5.30667 5.30667h17.30669v-4.10667h-13.70668c-2.56001 0-3.22667-.74667-3.22667-4.58667 0-4.05334.69333-4.64001 3.22667-4.64001h8.05334c.85334 0 1.25334.4 1.25334 1.49334 0 1.25333-.50667 1.49333-1.28001 1.49333h-10.13334v3.44001h11.12001c3.60001 0 5.52001-1.41334 5.52001-4.90668z"
         id="path20" />
      <path
         d="m243.5974 200.52333v-4.10667h-2.10667c-2.26667 0-2.69334-.53334-2.69334-2.96v-6.26668h4.80001v-4.10667h-4.80001v-2.98667h-5.81334v15.12002c0 3.30667 1.89334 5.30667 5.30667 5.30667z"
         id="path22" />
      <path
         d="m270.25818 200.52335v-4.10667h-10.38622c-2.49795 0-3.18161-.56001-3.18161-4.61334 0-3.86667.65736-4.61333 3.18161-4.61333h10.38622v-4.10667h-13.93594c-3.36567 0-5.23255 1.99999-5.23255 5.30667v6.82667c0 3.30666 1.86688 5.30667 5.23255 5.30667z"
         id="path24" />
      <path
         d="m295.8904 195.21666v-6.82668c0-3.30667-1.89334-5.30667-5.28001-5.30667h-12.88001c-3.41334 0-5.30668 2-5.30668 5.30667v6.82668c0 3.30667 1.89334 5.30667 5.30668 5.30667h12.88001c3.38667 0 5.28001-2 5.28001-5.30667zm-5.68001-3.41334c0 4.10667-.74667 4.61334-3.22667 4.61334h-5.65334c-2.53334 0-3.22667-.56-3.22667-4.61334 0-3.86667.66667-4.61334 3.22667-4.61334h5.65334c2.48 0 3.22667.58667 3.22667 4.61334z"
         id="path26" />
      <path
         d="m329.71264 200.52333v-12.44474c0-3.39153-1.89333-5.44286-5.30666-5.44286h-26.77334v17.8876h5.81333v-12.14387c0-1.36756.16-1.53166 1.25334-1.53166h4.82667c1.06667 0 1.25332.1641 1.25332 1.53166v12.14387h5.78668v-12.14387c0-1.36756.18666-1.53166 1.25333-1.53166h4.82666c1.09334 0 1.25334.1641 1.25334 1.53166v12.14387z"
         id="path28" />
      <path
         d="m355.32368 194.94679v-7.04883c0-3.41426-1.93628-5.47934-5.39974-5.47934h-13.17208c-3.49074 0-5.42701 2.06508-5.42701 5.47934v15.61204h5.94517v-13.79476c0-2.50563.43634-3.05632 2.75441-3.05632h6.1906c2.53624 0 3.29984.60575 3.29984 4.76346 0 4.2403-.7636 4.76346-3.29984 4.76346h-7.99051v4.2403h11.69942c3.46346 0 5.39974-2.06509 5.39974-5.47935z"
         id="path30" />
      <path
         d="m379.84405 194.94679v-12.52817h-5.94515v10.71089c0 2.50563-.43634 3.05633-2.75442 3.05633h-5.69972c-2.31806 0-2.7544-.5507-2.7544-3.05633v-10.71089h-5.94517v12.52817c0 3.41426 1.93627 5.47935 5.42701 5.47935h12.24485c3.49074 0 5.427-2.06509 5.427-5.47935z"
         id="path32" />
      <path
         d="m391.59742 200.52332v-4.28718h-2.10668c-2.26667 0-2.69333-.55678-2.69333-3.09012v-6.54213h4.80001v-4.28718h-4.80001v-3.11795h-5.81335v15.78462c0 3.45203 1.89333 5.53994 5.30667 5.53994z"
         id="path34" />
      <path
         d="m416.44287 188.18861c0-4.03733-1.92-5.87501-5.52-5.87501h-12.61334c-3.41332 0-5.30666 2.08827-5.30666 5.54088v7.12797c0 3.45262 1.89334 5.5409 5.30666 5.5409h17.30668v-4.28793h-13.70668c-2.55999 0-3.22666-.77963-3.22666-4.7891 0-4.23224.69334-4.8448 3.22666-4.8448h8.05334c.85333 0 1.25333.41765 1.25333 1.55924 0 1.30865-.50666 1.55924-1.28 1.55924h-10.13333v3.59184h11.12c3.6 0 5.52-1.47572 5.52-5.12323z"
         id="path36" />
      <path
         d="m428.47982 186.60152v-4.28792h-5.30666c-3.41334 0-5.30667 2.08827-5.30667 5.54088v12.66887h5.81333v-10.83119c0-2.53377.42667-3.09064 2.69333-3.09064z"
         id="path38" />
      <path
         d="m136.12894 189.345c0-4.71756-3.03192-6.61007-5.98263-6.61007h-10.50342c-3.46505 0-5.38707 2.05707-5.38707 5.45811v12.56188h5.90141v-12.26018c0-1.37139.16242-1.53595 1.27233-1.53595h6.49696c1.54303 0 2.46343.68569 2.46343 2.30392 0 1.61824-.9204 2.35878-2.46343 2.35878h-6.63232v4.30615h8.85211c2.95071 0 5.98263-1.86508 5.98263-6.58264z"
         id="path40" />
    </g>
    <path
       d="m34.558594 12.279297c-.552285 0-1 .447715-1 1v3.316132l-.827972.970977h-4.923981c-.552285 0-1 .447715-1 1s.447715 1 1 1h4.63749l1.114463 1.016458v13.012839c0 .552285.447715 1 1 1s1-.447715 1-1v-13.035083l1.082515-.994214h5.603032c.552285 0 1-.447715 1-1s-.447715-1-1-1h-5.692308l-.993239-1.029948v-3.257161c0-.552285-.447715-1-1-1z"
       fill="#666"
       stroke-linecap="round"
       stroke-linejoin="round"
       id="path44" />
    <circle
       cx="40.688507"
       cy="13.376314"
       fill="#666"
       r="1.5"
       id="circle46" />
    <g
       stroke-linecap="round"
       stroke-linejoin="round"
       id="g90">
      <path
         d="m40.686949 13.202026v5.27224"
         fill="none"
         stroke="#666"
         stroke-width="1.5"
         id="path48" />
      <path
         d="m56.823247 31.206781c6.897299-1.829305 6.920569-6.991645 7.549184-11.895727m-5.614594-.63107c.006.933866-.0049 1.831883.324718 3.450084m-5.867317-2.346082c.348758.373147.693303.616284 1.124059 3.519335"
         fill="none"
         stroke="#666"
         stroke-width="2"
         id="path50" />
      <path
         d="m80.374539 16.969106 9.275203-.422197c-1.112669 7.642686-4.203569 13.097934-10.72393 15.653547m-2.6353-9.509889c1.813535-2.073006 3.623595-3.776076 5.191773-9.160547"
         fill="none"
         stroke="#666"
         stroke-width="2"
         id="path52" />
      <path
         d="m101.82227 11.517578c-.55153-.0022-1.00068.442617-1.00391.994141l-.0156 3.113281c-.8085.169708-1.598469.461889-2.306636 1.021484-.433579.34197-.507902.970651-.166016 1.404297.342108.434835.972288.509232 1.40625.166016.334492-.264317.702212-.29081 1.054692-.423828l-.0273 5.296875c-.68832.837612-1.313322 1.574806-2.652342 2.982422-.517459.543049-.27508 1.441342.445313 1.65039.7733.225008 1.502699.15997 2.183589-.02148l-.0293 5.822265c-.003.553047.44304 1.003707.99609 1.00586.55153.0022 1.00068-.442617 1.00391-.994141l.0371-7.21289c.25387-.267072.51154-.247696.69937-.545528.34752.282266.68431.325678 1.09946.572871.4746.282725 1.08854.127053 1.37109-.347656.28273-.474604.12705-1.088549-.34766-1.371094-.13261-.07896-.73808-.572194-1.21679-.9375-.23936-.182652-.38465-.337813-.79102-.486328-.0502-.01834-.15606-.0217-.22852-.03711.026-.04.0858-.08448.11133-.125.12597-1.184151.84401-2.395851 1.48896-3.995497.23173-.574752.3506-1.054541.41143-1.891222.079-.449583-.15648-.895593-.57226-1.083984-.62998-.286343-1.30527-.288422-1.97071-.378906l.0156-3.173829c.002-.552285-.44381-1.001751-.99609-1.003906z"
         fill="#666"
         id="path54" />
      <path
         d="m107.219 18.93737 6.85548.03105m-7.6495 13.134198 8.14515-.03832m-4.1097-18.92184-.19035 18.790421"
         fill="none"
         stroke="#666"
         stroke-width="2"
         id="path56" />
      <path
         d="m131.32366 14.913357c-.79603 5.738847-1.1086 11.642759-4.84541 15.761635-2.87899 2.655659-6.53497-14.225227 3.76215-16.559151 12.51709.709728 7.3778 17.294882 2.38329 17.797675"
         fill="none"
         stroke="#666"
         stroke-width="2"
         id="path58" />
      <path
         d="m148.13929 18.976484 12.22521-.128391-.19975 9.756221c-.57258 2.895528-2.02859 2.353229-3.19455 2.689343m-8.65056.07405c3.90457-3.147087 6.03989-5.552101 5.70354-18.181058"
         fill="none"
         stroke="#666"
         stroke-width="2"
         id="path60" />
      <path
         d="m170.63548 18.497556h13.88414c-.33923 2.388561-1.66061 4.526403-4.07387 6.38551m-5.78835-12.038893v15.685196c.0578 1.098689-.10511 2.510874 2.60664 2.408077l7.31291-.127196"
         fill="none"
         stroke="#666"
         stroke-width="2"
         id="path62" />
      <path
         d="m200.30849 30.961047c6.8973-1.829305 6.92057-6.991645 7.54918-11.895727m-5.61459-.63107c.006.933866-.005 1.831883.32472 3.450084m-5.86732-2.346082c.34876.373147.6933.616284 1.12406 3.519335"
         fill="none"
         stroke="#666"
         stroke-width="2"
         id="path64" />
      <path
         d="m221.65776 19.838197c2.16609.460604 5.4092 2.335734 10.81141 7.046574m-10.79589 6.753663v-21.462193"
         fill="none"
         stroke="#666"
         stroke-width="2"
         id="path66" />
      <path
         d="m243.36299 30.937745 6.51958-1.558009m-2.99061-7.26036.0681 7.343664m-3.37701-7.240951 5.84717-.146307m2.92163-10.417285c1.22647 12.963651 1.64735 19.645331 3.54568 20.438947 1.42982-1.104261 2.15915-2.03869 2.69293-3.841577l-.3795-1.033995m-15.45857-10.626593 14.80408-.04479c.27642-1.194235.20083-2.38847-.41175-3.582705"
         fill="none"
         stroke="#666"
         stroke-width="2"
         id="path68" />
      <path
         d="m276.64306 18.517414-.73093 6.192036c-1.87547 4.602571-3.66779 4.840486-5.49024 6.659479m-.30994-13.61074 10.88673.369054m-14.70817 4.563324c1.81354-2.073006 3.6236-3.776076 5.19178-9.160547"
         fill="none"
         stroke="#666"
         stroke-width="2"
         id="path70" />
      <path
         d="m289.89572 21.703796h15.5295"
         fill="none"
         stroke="#666"
         stroke-width="2"
         id="path72" />
      <path
         d="m324.48566 21.202994 4.9299 10.628733m-1.68904-3.082084c-4.66146.576705-9.05733 1.532347-14.06932 1.582213m6.56067-17.054279c-1.0962 6.14098-3.1424 11.243474-4.7137 16.865106"
         fill="none"
         stroke="#666"
         stroke-width="2"
         id="path74" />
      <path
         d="m339.91849 30.847459c6.47546-.574345 11.85512-7.030916 12.02219-12.529119m-11.60598-3.776183c.74719.560231 1.45554 1.112309 2.94346 1.828828m-4.86678 4.142944c.50876.04507.92761-.0039 3.18608 1.870319"
         fill="none"
         stroke="#666"
         stroke-width="2"
         id="path76" />
      <path
         d="m369.19063 23.536155 6.45537 7.369045m-12.6059-16.087986 9.51049-.255591c-.92169 5.892328-4.3983 11.192124-10.02405 15.96497"
         fill="none"
         stroke="#666"
         stroke-width="2"
         id="path78" />
      <path
         d="m393.64254 21.354105c.51252 5.086745-1.69337 9.99114-4.65074 10.230073m-3.54598-10.914426h14.86678m-12.93166-6.20009h10.73408"
         fill="none"
         stroke="#666"
         stroke-width="2"
         id="path80" />
      <path
         d="m415.4668 13.277344-4.70703 16.845703c1.57057-5.613857 3.61211-10.711896 4.70703-16.845703zm-4.70703 16.845703-1.85352.208984c5.01199-.04987 9.40885-1.005326 14.07031-1.582031zm8.97656-8.919922 4.92969 10.628906z"
         fill="none"
         stroke="#666"
         stroke-width="2"
         id="path82" />
      <path
         d="m27.479905 31.437758c1.303287-2.43166 2.531893-4.910477 3.423692-7.601966m7.86968-.06123c.730763 2.986739 1.742811 5.262162 2.801702 7.419127"
         fill="#f06"
         fill-opacity=".436557"
         stroke="#666"
         stroke-width="2"
         id="path84" />
      <path
         d="m4.2851562 16.740234h13.1230468zm6.4257818.146485v13.001953zm-7.898438 13.144531h15.878906z"
         fill="#f0f"
         stroke="#666"
         stroke-width="2"
         id="path86" />
      <path
         d="m277.73039 13.452392 3.36351.423316.24684-1.228779m-3.04199 1.281774.1043 3.608643"
         fill="none"
         stroke="#666"
         stroke-width="1.5"
         id="path88" />
    </g>
    <path
       d="m36.9213 157.542-.3973.004 1.0243-.71 1.7043-1.709-2.3891-1.55 1.2259-2.467-1.3069-1.295.0356.72-3.6121 3.11-4.4442 1.351-1.0575.942.1672-.559-1.6615-2.313.0247-2.039.7187 2.317.9089-1.492 3.7667-2.743 3.0984-2.102.1568-1.697.3544-.018-.1628-2.138 1.4869-5.261.195 1.302 2.905.376-.5699-5.289 1.7117-3.019 1.6452.435-1.0718 1.096 1.9424-.705-1.2542.057.9034-2.645 1.9416-2.418 2.9065-5.526 1.2801-6.399-2.5449-1.41-1.4199-1.433-.1618.876.8361-.024-.1188-.197.8107-3.28-1.4848-3.8.1558-3.593-1.6985-.916-1.5032.175-.3801 2.056-1.7995 2.143 2.3243-.175-1.8651 1.54-1.5197 5.131-3.1528 4.258-2.9994.834-1.6016-.353-1.7723-1.96-.0164.077-1.199-.402-3.0173 2.495-.5389-.813 1.067 1.962-3.1295.656-1.2381-1.708.3619-1.587-1.6749-.423.0931-1.216.9878-.705 2.758-3.423.389-4.13 1.1996-2.15.5183 2.465.0885-7.5549 1.454-4.2766-1.5892-2.3691 1.7146-2.8341.4928-.6601.3511-4.677.2916-.3242 2.0908-3.8633-2.0101 2.1731-.4317-.6946-1.7497-3.9049 1.534-1.1556-.0741-.6211.821-.2545 1.8695-.985 1.4365-1.9751-3.7295-1.2276-.9273-2.3051-.1659.5195 1.4571-3.3281 1.4063-1.1496 4.3579-2.6159 1.5796-.4338 1.5195-2.0172 3.2328 1.0315 2.1503.5842 1.4655 2.8558 2.6283-.6089-.4919 3.5271-.4355.6499.8987.1643.2977-1.1961 1.8454 2.9804 3.8787 2.7275-.1973.2902-.8487-.3698-2.9893 3.1249-3.9236 2.6506 2.59 1.1804 1.3813.425-.4923 1.8194 2.4018-2.6384 10.1832.0626 10.1758-.0708 2.1388-.4611 2.3026-.529-.338 1.6034-.3753.1122 1.32 3.751 1.017 1.4676.2265 3.0589.4451 1.3814.0667-.2709.1116 5.302-6.5154-1.9448-5.3656.2925 1.4172 3.0529-2.7556-1.9582 1.5586-1.1341 1.4089 2.2542-1.0007 2.3165 1.4125 1.0801-3.018-.3759-.5446-.2912-.4991 1.3469.6133 2.1396-1.3231 9.491 1.1516 9.659-.7203 4.198.0365 4.646-1.9249 2.587-.0208 3.762-2.5478 2.465-2.8348 5.643-4.114 4.181-4.3483 5.9-4.0318 2.923-4.1373 1.391-.7745-3.408-1.53 1.188.9583 2.119-.1622 1.86zm316.3197-2.577-1.526.047-1.649-1.819-5.001-4.117.529-3.44-.601-2.684.855-3.842.57-3.64 1.512.589-4.011-.651 2.492-3.15 1.74-5.932-1.529 1.756 1.319-1.459 5.3-3.875 1.56-1.118 6.9-1.015 6.366 1.699-1.297-.682 1.717-3.292 2.109.994 4.671-2.239.639-2.494 4.444-3.693 2.36 1.212 1.767-2.373 2.353-2.672 2.482-2.289 4.02-.446 2.541-.132.383-.522-1.989-2.234 6.102-3.0578 3.893-3.0604 2.083 1.5986.068.5754-1.973 2.5772-2.219 1.001.004-.324.081 2.149 3.342-.576-.515-.432 1.412 1.374 1.749.136-2.684 1.967-1.836 5.455-.294 1.323-1.971.969-1.458-.778-4.128 1.233-.019.338.633.78-.464 3.463-.091 2.519-3.129 1.861-3.003-2.141 2.319.826-1.182 2.851-1.808.152 1.23 3.4-2.201-.241-3.538-.086-3.449 4.399-4.687 6.15-2.552.981-.009.302-1.734.806-2.324 2.09.916.764.01-.307-1.58.898-1.382.808-3.594 5.451-2.106 2.462-1.838.564-4.731 2.467-1.354-1.107zm-158.876-1.595-1.533.88.184-2.46-1.138.065.918-6.477-.249-4.565.01-3.034 1.272-2.981-.457-1.073-.733-.808-.265-9.132.924-7.176-.933-2.505-1.443-.188-1.112 2.523-1.277 1.843-.531 3.118-1.011 3.724-.331 4.122-1.089.596-2.298.569-.752.188-1.585-.243.199 3.602-.296.376-.126 1.471 1.855.352-.985 1.024 1.449-3.714-1.306-.629 2.381-.489.296 1.915-2.823 2.325-1.633 5.527.574 1.167-.759 2.627-.074 2.968-1.498 1.93-1.792.96-2.305-1.915.935-1.985-1.28-.842-.857-.952.729-1.93-.446-1.453-2.285-.051-.925-5.129-.126-2.663-.126-.01.474 1.148 1.407-4.358-.503-2.852 2.039-.565 1.626-2.442-.312-.789 2.139-3.905-1.475-1.288-2.682-3.447 1.304-1.86.835-5.148 2.148-1.657 2.524-2.063.206-2.052-1.253-1.722-3.717-.907-1.206 1.276-3.985-1.945-2.874-4.1523 1.945-4.7375-1.611-6.7507 3.541-.7483 1.375-2.1112-.323.0528.232-.7883-.243.7946 3.746-.903.02-1.313-1.465-1.7064 9.168 1.3608 9.906-1.1984-1.281-2.8425-1.249-3.6233-.437.3937-3.104-1.4063.617-2.9818.001-2.5364 2.002-2.5072 2.442-.8633 3.6-1.8431 3.76-3.3686-.204-.0106 2.125-2.4292.724 1.3422 1.179 1.6098-1.116.7541-.402-.2514 4.351 2.5473 1.46 1.8165 1.515 1.7028 2.424 5.0128-.352 3.8499-3.201 2.8287 1.942.8345 1.377 1.0267.825.4639 3.165-2.48 2.439-.8689 1.82.8826 3.86-.2507 5.981 3.9683 2.382 2.2998-1.755-1.5094 1.779 3.0679 1.981 2.9249-.951 1.1095.442.6568-1.587-1.1454.859 1.4292-3.976 3.3015-.379 4.5309-.06-1.7914-1.145 1.0131.663.3601.016 2.2907-3.277-2.5228-3.098.5633 2.659 2.0327-2.808.9296-5.643.0334-4.709-.1963-1.09.1297-1.397 1.4653 1.876 3.2883-1.029 3.772-1.569 11.818 1.129 7.291-.983 4.757-1.401 3.627.631 2.244.387 6.289-1.289 3.204-.208 6.501-1.722-1.001-2.625-1.189-1.377.456-1.408-.154-.766-5.429-1.449-3.239.61-1.757-.312 2.093-1.2 2.716-.377.955-.137 3.021-.269 4.534zm-3.836-47.333 1.059-.201 2.295-2.219-1.122-2.413-.685-.591-2.759-2.4589-4.782 2.3029-3.86.027.029.046.126.02.869.804.539 1.955 1.824-.338 3.35.698.809 1.883 2.449.221-.636.644zm54.949 46.557-1.978 1.472-1.067-3.924.107-2.43 3.866-4.592 3.207-9.74 1.118 1.454-3.932-1.038 5.449-2.861 1.293-2.471 1.662-2.489-.476-.169.592-2.424.788-.863 1.476-10.292 1.48-10.372-1.31-1.829.986-1.9142-3.796.3033-1.823.3225-1.449.3293-2.768 2.5231.179 1.016.218.622-1.766 2.958-.408 1.011-3.447 3.245 1.158 3.771-2.526-.243-1.771.25-.405-1.146.725-1.339-1.417-1.564.722-3.469.979-1.947 2.065-2.497-1.354-.732-.443-1.523-2.037 3.264-2.729 3.117-1.721-1.989-2.123 1.29 2.584-5.8926 3.32-3.8436 1.239-3.5828-3.102-2.7906 1.608.9024 2.93-1.7568-1.37-4.0285.416-5.522 1.453.3409-.407.3572 1.092-4.5211-.449-5.5889 4.408-1.11.468-1.7987 3.559-2.1337 5.153-.0639 2.127-.386 1.937 1.0878-1.556.4881 4.399-1.6314.631 2.752.64 1.1946.764 5.3934.105 2.4726-1.428 1.3784-2.66 1.5103 1.897 2.4299-1.424 1.2139 1.589-2.0166 1.548.6919 1.152.0338-3.585 1.5627 3.341-2.8853 2.672-.3452 8.695-.9962 10.513.0809-1.229 2.5701-.207-1.7577-1.94 2.7751-1.099-.8193-.401 2.198 1.873 3.8343-1.991-.109-2.941 2.7313 2.385 2.1664 5.186-.3945-.241 1.596.935 1.9517-.855-.6221.79 1.9349-6.31-.4709-4.738 2.397-.933-.8731-.466 1.53-.847 2.9039 2.342 3.515-.531-.546-2.364-.854-1.434 5.943.835 3.344-2.073 5.617-.006 2.007-.22 1.241 2.636 1.922-1.048 1.12.446 1.258-4.575 2.143-2.016 2.236.612 1.037.686 1.473-1.165.029-.114 2.123-.659 1.156 1.701-1.309-3.512 2.402-1.779 4.305-1.37 1.316 2.041 1.798-3.159-.208.252 1.113-3.191 1.913-1.281.048-1.987.894 2.04 2.727-4.143 1.499-1.326-.508-1.881-1.442 1.427-3.084-2.574 2.152-1.149.462.981 1.424-1.004.594-1.045-.327zm58.583-1.587-2.306.019-.565.875-2.171-.513-2.595-4.254-3.715-2.035 1.243-4.509.967-.122-4.561-1.18.92.546 1.825-3.722 1.304-1.584-.189-.28.239-1.633-.973 2.351-4.349.646 2.132-2.764 1.128-2.877 1.433-2.534.108 1.237 2.683-1.717 2.455-.747 9.424-1.069 11.906 1.845.498-1.348 3.251.376-3.644-3.55-.195-1.267 2.376-8.094-.864-8.166 1.304-.561.046-1.864-1.037-1.955-3.881-3.0704-.972.273-2.716.1911-.244 2.5973-2.991.325-1.13-2.2417-1.172-.2359-1.019 1.3501 3.031.3895-4.74.964-2.563.776-2.755 1.726-2.033-.9-3.87-2.092-1.582 2.438-.33-2.803 1.493-3.3208-1.45.6575-1.138-2.9237 1.498-1.1586-.501.0173-.423-2.099-3.299.9741 1.676-4.3962.75-4.2023 5.234-3.455 1.546-3.0192 3.583-1.4333 1.631.0002 3.134 1.5181 2.841 1.5338 8.065-1.007 10.519 1.3826-1.87-1.7428.917-.4794 7.327.0596 3.489-.4258.861 4.018.889 2.7752 1.848 3.5871 1.583.7889-.714 4.8825.141 1.841-2.212 2.4981-2.211 4.0861-.47 7.782.931 5.444-2.079 1.013-.108 1.294-.29 2.244-1.065.872 2.252 4.054-.668 1.5 2.21 3.571 2.185 1.397-.162 1.063.142 1.775-.364 5.222-2.043 6.991-1.824.609-1.812 2.144-5.143-2.028-6.12-.222-2.671 1.458-3.158-1.298-3.94 1.342-6.386.612-1.42.234-1.361 4.445-.143-2.63zm24.789-26.259 3.161 2.035-2.184-1.239.698-3.02-1.358 2.11-1.478-1.629 2.032.89-.57 1.223zm3.248-4.178-.72858-.54355.40588-3.31439-.30244-3.10277-.61486-.75529-1.163-.554.543.918.18769 3.70536c-.7679.80188 1.77755 1.77587-2.30369 2.40564l2.673.828zm-105.148 28.17-1.171.053.914-4.103-.611-.909-.988-.203-1.848 1.025-1.179-2.466-2.994-1.79 1.598-1.748 1.416-.72-1.062-1.842-1.756.439-.704-1.222.105-3.837-2.942-2.255-.717-2.433 1.068-.116 1.072.581-2.418-3.627-.988-3.595-1.33 1.194.56-.759-1.677-6.917 1.692-5.379 2.621-2.583 2.083-2.839 1.977 2.021 1.42 2.481 3.774-2.042 1.491.262 1.151 1.093 1.725 1 2.037 4.625-1.786 3.795 1.792 9.518.034 6.862 2.638 2.934-.183 2.994-3.821 3.236-2.76 2.893 2.414 2.946-1.355-1.426-.092 1.155zm-110.542-3.739-4.858-.433.136-.859-2.278-.823-1.361-1.513 1.059-2.138-2.004.906-.735-1.321-.732-.745-1.179-.474.408-2.569 1.431-2.629 1.435-1.575 1.978-3.134-.699 1.484-3.024-2.36 3.647-1.257.245-.93 3.29-2.245 1.279.584.952-4.29 3.297-2.365.278-1.709.509-2.382.082-.889 2.263-1.89-1.144-4.508 1.077-4.644 1.187-7.2231 1.224-9.1208.012-2.851 1.383-.6201.582-.9403-1.474-3.656 1.778-5.4387 4.051-4.8794 1.477-.6916 3.671.795 1.365-.9473 4.071-.8397.124 2.9743-1.586 1.1244.44 2.4195-1.149 1.5384.608.9111.355.6919 2.809-2.8625 2.116-1.0216 1.023 3.4588 2.454.5103.9 1.345-1.067 1.7743.75 2.1922-.202.8752-1.416 5.1471-1.299 1.883-.592-2.5168 2.163-.6219-1.99 1.5329-2.742 2.5637-.795 4.3698-.65 2.5558.468-1.1838-3.071 1.1489-.345 1.6391.437-.6564 1.737 1.0793.768 1.5911-1.147.6212.239 2.4397-1.841.846-1.953 3.217-.422 1.916-.806.534-1.351 4.421-1.746 3.807.869 1.223-.168 1.157-1.792 1.289-.589-.273-1.342 1.73 1.141 3.052 3.178-2.309 2.951 1.687 2.55-.759 1.495-.885 2.583-1.757-2.282-.355 2.317-1.875.269-1.68-1.285-1.713-2.553-1.311 1.476-2.234 2.355-4.062 2.896-2.315 1.474-.981 3.946.075 3.821-1.57 2.841 5.102 2.209 4.227 1.501 4.257-1.922 4.249 1.482 3.289 1.647.262.306 3.195 1.443 4.008-.246.992 1.944 1.518-2.022 3.898.583 4.209-3.808-.166-.667-.142-1.097 3.022-.449-.171-3.37.136-3.862.691-2.633-1.811-.977.317-.667-2.408 1.588-1.077-.734 1.229-2.093-1.093-1.002-2.972 2.233-1.277-4.608-.316-.216.246.113 1.575-.451.292.214.161-2.258-1.581-5.547 1.847-6.09 2.454-1.452 1.175-2.866 2.722-2.284-1.453-1.679 1.289-4.188.046zm-35.8973-27.268-2.9598 1.347-2.321-3.691-2.7296-2.653 3.424-2.185-3.2235-2.881-.3001-.151 1.6757-1.229-3.2504.869-.3166.828.5054-4.828 2.3208-2.862.3254-.259-1.4341-1.1611 2.0672-.5742 3.355-.7221-1.7987.702 2.3581-2.4556 3.7354 1.7422 2.0745-2.5365 6.0311 1.9681 4.8267-1.3569 7.9108 1.3343 9.96-.8215.278.3843.716 1.6232-2.28 3.2238.351-.268.32.576 1.613 1.599-3.731.868-1.14 2.862-.806.249 1.023.136 1.884.484 3.886-3.572-1.073 3.972 1.389 1.303-2.349.142-2.772.045-1.356 3.044-2.264.391-7.1415 1.123-4.3638.268-5.5967-.974-6.2457 2.365-.6562-.004.7914 1.645-4.3167-.242zm35.7413-11.7-.423 1.007-.072-2.519-.325 3.588-.859-1.146 3.403-.644-1.986.532.726 1.685zm252.39-4.654-4.949-.59-2.996-.9754-2.635-3.1346-.536-.3055-2.967 1.5086-1.707-1.8595-1.204-1.9688-2.181-4.6829-3.562-1.7803.053-5.5525 2.955-4.7684.615-2.857 1.598-3.1756 4.413-1.59 5.403-4.0569 2.732 1.7693 2.642.365 2.553.2656.326-1.8289 2.281 1.8901 4.839 2.6859.717 2.5559-.785 1.9992 1.936 1.5175.95.151-1.179.893.309 2.5121-2.348 6.952 1.66 4.5729-1.761 1.5981-1.742-.8969.107 4.4579 1.09 1.6839-2.892-.6705-2.209 2.0537zm-297.3803-2.7639-2.0407-1.5647.3908-1.7546-.5781-.6869.5876.1613 2.7396-.2107-1.0682 2.5962 1.1194.1793zm9.0044-17.0364-1.9666-.8574-.319-1.2766-1.6275-1.2391 1.6964-.9021 2.6794-.8342-.4267 2.2665 1.7156-.3725.5542-.6341-2.0462 2.3222zm-9.8232-10.8122-6.5796 1.8756-1.5547-3.6772-.6694-3.2502.6204-1.5789 2.1051.0994-1.6607-.5926-.2565-2.1474 3.5756-.224 3.4069-3.8271-2.6769.3701 2.2647.2182.5268-.4683 2.526.0461 2.1844 2.6096 2.9863-.0843.3996 5.2052 2.6406 4.8273-1.6907.9795-.8058 1.0773zm159.0091.6179-4.222 1.5057-.545-2.1389-1.719.2246-1.013-2.1178-1.715-.0292-2.906-.5999.49-2.1161.223-2.0233-1.516-3.873.171-1.9449-1.06-3.4413 5.429-1.6874 5.393-3.9326 1.183-.8587 5.042-1.0544.497 1.4577 2.709 3.2509-.145 2.4345-.113-1.4257 3.099 1.8695.291.671.313 3.3991-.976 2.9676-1.828 1.8961-.966.5882.654.5336.244 3.5476-2.546.4549-1.425 2.0638zm-.44-9.672-.079.5764.054-.8228.499-4.5111-2.155 1.1438.012-.7462-3.972 1.61 1.045 2.3176-2.655.1209 1.263-.0103 3.221.7917 2.181.3974-.765 1.2678zm-142.5478 6.6918-1.8459 1.8164-2.1739-2.4324-.2736-1.6058.2051.0049-.0851-2.0697-1.1459 1.2709.6719-1.0009-1.7953-1.9316 1.0485-1.5774 2.2267-2.6529 1.0819-2.4255 2.2616.8612 2.2302-.5493.4116 1.9922 2.7363-1.4658-1.5255 5.1359.6739.8708 1.1106-.3559 1.9406 1.075.482 1.6747-1.1275-.8614-1.6483 3.0305-3.956 2.8398z"
       fill="#d09607"
       id="path92" />
  </g>
  <path
     style="fill:#ffffff;stroke-width:0.337005"
     d="m 2.1277874,157.39795 c -1.73306648,-1.05672 -1.94643976,-1.76452 -1.95317888,-6.479 -0.005454,-3.81536 0.069367,-4.37338 0.70038998,-5.22357 1.260298,-1.69803 1.7408439,-1.78407 9.9934015,-1.78942 l 7.666856,-0.005 v 1.51652 1.51652 H 12.30067 c -7.6914619,0 -7.5826047,-0.0581 -7.5826047,4.04406 0,3.94042 0.1470975,4.04406 5.7399387,4.04406 4.22487,0 4.402413,-0.0284 4.66777,-0.7457 0.683626,-1.84801 -0.08242,-2.27569 -4.088871,-2.28275 l -2.6117864,-0.005 v -1.17951 -1.17952 h 3.8863774 c 4.176163,0 5.888158,0.42824 6.533641,1.63434 0.562615,1.05126 0.448809,4.16088 -0.18542,5.06637 -1.038472,1.48262 -2.319839,1.7245 -9.128509,1.72315 -5.6730165,-0.001 -6.4410542,-0.0692 -7.4034186,-0.65598 z"
     id="path1028"
     transform="scale(1.2)" />
  <path
     style="fill:#ffffff;stroke-width:0.337005"
     d="m 23.253322,157.46491 c -2.170523,-1.0843 -2.665029,-4.98505 -0.860908,-6.791 0.863067,-0.86393 0.949003,-0.87672 6.596763,-0.98178 l 5.722303,-0.10644 v 1.20171 1.2017 h -4.066211 c -4.377388,0 -5.369919,0.27004 -5.369919,1.46098 0,1.38016 0.576391,1.57234 4.701215,1.56746 4.6235,-0.005 5.20877,-0.13056 5.704849,-1.21933 0.822326,-1.80481 0.351217,-5.85919 -0.767631,-6.60626 -0.203943,-0.13618 -3.214282,-0.24992 -6.689642,-0.25276 l -6.318838,-0.005 v -1.51652 -1.51652 h 7.767843 c 10.652285,0 10.767414,0.0738 10.767414,6.90269 0,7.01434 -0.316894,7.25176 -9.67806,7.25098 -5.350987,-4.4e-4 -6.512036,-0.0916 -7.509178,-0.58975 z"
     id="path1067"
     transform="scale(1.2)" />
  <path
     style="fill:#ffffff;stroke-width:0.337005"
     d="m 42.125583,150.97809 v -7.0771 h 11.643396 c 12.780314,0 13.116574,0.0478 14.131756,2.011 0.39653,0.7668 0.511212,2.23975 0.511212,6.56588 v 5.57732 h -2.182183 -2.182182 l -0.0926,-5.47633 -0.0926,-5.47632 H 60.829342 57.7963 l -0.0926,5.47632 -0.0926,5.47633 h -2.342336 -2.342337 l -0.0926,-5.47633 -0.0926,-5.47632 h -3.033042 -3.033042 l -0.0926,5.47632 -0.0926,5.47633 h -2.182182 -2.182182 z"
     id="path1106"
     transform="scale(1.2)" />
  <path
     style="fill:#ffffff;stroke-width:0.337005"
     d="m 72.527639,157.54745 c -1.660758,-0.72156 -2.093664,-2.11597 -2.093664,-6.74377 0,-6.70017 0.281792,-6.90269 9.604633,-6.90269 7.437526,0 8.291704,0.20612 9.125674,2.20209 1.014126,2.42715 0.402001,4.65485 -1.547758,5.63275 -0.96456,0.48377 -2.094653,0.58932 -6.314149,0.58975 l -5.139321,5.3e-4 v -1.34802 -1.34802 h 4.56014 c 4.937357,0 5.179062,-0.0946 4.737412,-1.85428 l -0.211267,-0.84176 h -4.478731 c -5.707038,0 -5.737004,0.0186 -5.90226,3.65758 -0.11511,2.53477 -0.0682,2.76126 0.739081,3.56854 l 0.861993,0.862 h 6.249904 6.249905 v 1.51652 1.51652 l -7.666856,-0.0132 c -5.87886,-0.0101 -7.925226,-0.12545 -8.774736,-0.49455 z"
     id="path1145"
     transform="scale(1.2)" />
  <path
     style="fill:#ffffff;stroke-width:0.337005"
     d=""
     id="path1184"
     transform="scale(1.2)" />
  <path
     style="fill:#ffffff;stroke-width:0.337005"
     d="m 94.758275,152.41036 c 0.147149,-6.51425 0.297504,-7.1097 2.067823,-8.18914 0.947349,-0.57764 1.722376,-0.65486 6.583402,-0.65597 4.42316,-0.001 5.74065,0.10835 6.68108,0.55462 3.94136,1.87029 3.33053,8.72129 -0.88191,9.89151 -0.65927,0.18315 -2.82894,0.33384 -4.82148,0.33488 l -3.6228,0.002 v -1.68503 -1.68502 h 3.17748 c 2.43927,0 3.3005,-0.12303 3.70705,-0.52958 0.68081,-0.68081 0.68406,-2.62973 0.005,-3.19302 -0.60828,-0.50483 -5.27197,-0.84732 -7.03475,-0.51662 l -1.203124,0.2257 v 5.71381 5.71381 h -2.396612 -2.396612 z"
     id="path1223"
     transform="scale(1.2)" />
  <path
     style="fill:#ffffff;stroke-width:0.337005"
     d="m 116.97311,157.62896 c -0.44552,-0.22896 -1.12795,-0.84445 -1.51653,-1.36776 -0.6308,-0.84954 -0.70649,-1.41273 -0.70649,-5.25681 0,-7.07194 0.16636,-7.18735 10.14562,-7.03836 l 6.92975,0.10346 0.98269,1.10059 c 0.98131,1.09902 0.98269,1.10687 0.97773,5.56057 -0.008,7.17656 -0.20343,7.32557 -9.59966,7.31905 -4.41191,-0.003 -6.65499,-0.1339 -7.21311,-0.42074 z m 11.76267,-3.28082 c 0.56168,-0.56168 0.67401,-1.12335 0.67401,-3.37005 0,-3.86913 -0.22369,-4.04406 -5.17134,-4.04406 -4.88814,0 -5.09843,0.16944 -5.09843,4.10791 0,3.74706 0.30765,3.98021 5.25204,3.98021 3.22037,0 3.75224,-0.0825 4.34372,-0.67401 z"
     id="path1262"
     transform="scale(1.2)" />
  <path
     style="fill:#ffffff;stroke-width:0.337005"
     d="m 137.97655,157.41978 c -1.6186,-0.98703 -1.89605,-2.09637 -1.76984,-7.07651 0.10895,-4.29924 0.13447,-4.42964 1.04533,-5.34031 l 0.93365,-0.93347 6.7332,-0.10389 6.73321,-0.10389 v 1.53616 1.53616 h -4.88657 c -6.1552,0 -6.23459,0.0515 -6.23459,4.04406 0,3.99256 0.0794,4.04406 6.23459,4.04406 h 4.88657 v 1.51652 1.51652 l -6.31884,-0.001 c -5.58752,-0.001 -6.43896,-0.0745 -7.35671,-0.63416 z"
     id="path1301"
     transform="scale(1.2)" />
  <path
     style="fill:#ffffff;stroke-width:0.337005"
     d="m 154.01113,149.63007 v -8.42512 h 2.19053 2.19053 v 8.42512 8.42512 h -2.19053 -2.19053 z"
     id="path1340"
     transform="scale(1.2)" />
  <path
     style="fill:#ffffff;stroke-width:0.337005"
     d="m 165.79037,156.21786 -1.16359,-1.83734 -2.44329,-0.0162 -2.44328,-0.0162 v -1.68503 -1.68502 h 2.29791 2.29791 l 1.6619,-3.52226 1.66189,-3.52225 2.64396,-0.0163 2.64395,-0.0163 -0.99334,1.76928 c -3.68858,6.56986 -3.88753,7.01418 -3.5109,7.84079 0.2007,0.44049 0.86872,1.37773 1.4845,2.08275 2.29737,2.63035 2.32988,2.46138 -0.47356,2.46138 h -2.50048 z"
     id="path1379"
     transform="scale(1.2)" />
  <path
     style="fill:#ffffff;stroke-width:0.337005"
     d="m 175.01118,157.39795 c -0.59057,-0.36009 -1.23509,-0.95616 -1.43227,-1.3246 -0.20275,-0.37884 -0.35851,-2.65386 -0.35851,-5.23629 v -4.5664 l 0.98271,-1.10058 0.98271,-1.10059 7.02115,-0.0894 c 7.55552,-0.0962 8.07123,-0.004 9.30233,1.65412 0.44813,0.60375 0.66113,1.42891 0.66113,2.56128 0,3.60297 -1.06324,4.13061 -8.32356,4.13061 h -5.2344 v -1.34802 -1.34802 h 4.67876 c 4.51198,0 4.68555,-0.026 4.86927,-0.72849 0.10477,-0.40067 0.0413,-1.00728 -0.14106,-1.34802 -0.29566,-0.55246 -0.80455,-0.61953 -4.70076,-0.61953 -5.55125,0 -5.71722,0.11553 -5.71722,3.97965 0,4.07487 -0.28874,3.9203 7.55483,4.04424 l 6.59936,0.10428 v 1.49649 1.4965 l -7.83535,-0.001 c -7.16397,-0.001 -7.92737,-0.0574 -8.90912,-0.65598 z"
     id="path1418"
     transform="scale(1.2)" />
  <path
     style="fill:#ffffff;stroke-width:0.337005"
     d="m 195.90788,157.5115 c -1.90372,-0.93883 -2.1302,-1.95239 -2.1302,-9.53313 v -6.77342 h 2.19053 2.19053 v 1.34802 1.34802 h 2.02203 2.02203 v 1.51652 1.51652 h -2.0662 -2.06621 l 0.1596,3.58851 c 0.18072,4.0635 0.44136,4.49961 2.6892,4.49961 h 1.28361 v 1.51652 1.51652 l -2.61179,-0.008 c -1.67749,-0.005 -2.99503,-0.19667 -3.68313,-0.53601 z"
     id="path1457"
     transform="scale(1.2)" />
  <path
     style="fill:#ffffff;stroke-width:0.337005"
     d="m 211.07098,157.56193 c -1.74607,-0.75942 -2.12809,-1.94131 -2.12809,-6.58384 0,-6.8551 0.29019,-7.0771 9.25089,-7.0771 h 6.25133 v 1.51652 1.51652 h -4.88657 c -6.1552,0 -6.23459,0.0515 -6.23459,4.04406 0,3.99256 0.0794,4.04406 6.23459,4.04406 h 4.88657 v 1.51652 1.51652 l -6.15034,-0.0132 c -4.47484,-0.01 -6.44277,-0.14038 -7.22379,-0.48007 z"
     id="path1496"
     transform="scale(1.2)" />
  <path
     style="fill:#ffffff;stroke-width:0.337005"
     d="m 228.59492,157.39795 c -0.59057,-0.36009 -1.23509,-0.95616 -1.43227,-1.3246 -0.20275,-0.37884 -0.35851,-2.65386 -0.35851,-5.23629 v -4.5664 l 0.9827,-1.10058 0.98269,-1.10059 6.92975,-0.10346 c 9.93961,-0.1484 10.14562,-10e-4 10.14562,7.24059 0,3.6399 -0.0799,4.21164 -0.70649,5.05507 -1.23831,1.66683 -1.81803,1.78327 -8.89814,1.78727 -5.91781,0.003 -6.67842,-0.0614 -7.64535,-0.65101 z m 12.05115,-3.00209 c 0.69391,-0.56189 0.77343,-0.91327 0.77343,-3.41777 0,-3.83978 -0.26351,-4.04406 -5.21657,-4.04406 -4.77363,0 -5.01773,0.19674 -5.01773,4.04406 0,3.84732 0.2441,4.04406 5.01773,4.04406 3.07437,0 3.7952,-0.10161 4.44314,-0.62629 z"
     id="path1535"
     transform="scale(1.2)" />
  <path
     style="fill:#ffffff;stroke-width:0.337005"
     d="m 247.69843,150.79744 v -7.25774 l 12.12487,0.0964 12.12487,0.0964 0.93406,0.93359 0.93406,0.9336 0.10509,6.22775 0.10509,6.22776 h -2.20322 -2.20322 l -0.0924,-5.64483 -0.0924,-5.64483 h -3.03304 -3.03305 l -0.0924,5.64483 -0.0924,5.64483 h -2.34274 -2.34274 l -0.0924,-5.64483 -0.0924,-5.64483 -2.83567,-0.0988 c -2.04111,-0.0711 -2.91314,0.0233 -3.11213,0.337 -0.15205,0.23968 -0.27878,2.8243 -0.28162,5.7436 l -0.005,5.30783 h -2.19053 -2.19053 z"
     id="path1574"
     transform="scale(1.2)" />
  <path
     style="fill:#ffffff;stroke-width:0.337005"
     d="m 275.67034,153.58988 c 7.9e-4,-10.34977 0.012,-10.36156 9.86769,-10.36237 9.56262,-8e-4 9.84656,0.21298 9.84656,7.41357 0,7.04302 -0.43802,7.41411 -8.7513,7.41411 h -5.2344 v -1.68503 -1.68502 h 4.19345 c 5.12159,0 5.24268,-0.0934 5.24268,-4.04406 0,-3.96972 -0.0992,-4.04405 -5.39932,-4.04405 -3.9559,0 -4.38171,0.0591 -4.69896,0.65185 -0.20454,0.3822 -0.34886,3.24014 -0.34886,6.9086 v 6.25674 h -2.35903 -2.35904 z"
     id="path1613"
     transform="scale(1.2)" />
  <path
     style="fill:#ffffff;stroke-width:0.337005"
     d="m 299.26014,157.46491 c -2.0493,-1.02375 -2.35791,-2.14814 -2.35851,-8.5931 l -5.2e-4,-5.64483 h 2.35903 2.35903 v 5.32468 c 0,3.69207 0.124,5.44866 0.40441,5.72907 0.26836,0.26837 1.72828,0.40441 4.3398,0.40441 3.24936,0 4.01601,-0.0971 4.39791,-0.55724 0.33459,-0.40312 0.49578,-1.98766 0.58278,-5.72908 l 0.12026,-5.17184 h 2.15452 2.15452 v 6.02064 c 0,5.66577 -0.0431,6.07538 -0.73059,6.94943 -1.27358,1.61909 -2.40352,1.85819 -8.77897,1.85761 -4.86971,-4.3e-4 -6.01745,-0.0971 -7.00367,-0.58975 z"
     id="path1652"
     transform="scale(1.2)" />
  <path
     style="fill:#ffffff;stroke-width:0.337005"
     d="m 319.25159,157.5115 c -1.91958,-0.94665 -2.1302,-1.92256 -2.1302,-9.87014 v -7.11042 h 2.19053 2.19053 v 1.34802 1.34802 h 2.02203 2.02202 v 1.68503 1.68502 h -2.02202 -2.02203 l 0.005,3.11729 c 0.007,4.08862 0.34614,4.76959 2.44635,4.90503 l 1.59273,0.10272 v 1.66656 1.66656 l -2.61178,-0.008 c -1.67749,-0.005 -2.99503,-0.19667 -3.68313,-0.53601 z"
     id="path1691"
     transform="scale(1.2)" />
  <path
     style="fill:#ffffff;stroke-width:0.337005"
     d="m 329.35962,157.56193 c -1.77668,-0.77273 -2.12809,-1.91558 -2.12809,-6.92085 0,-7.37688 0.16165,-7.49579 9.99014,-7.34894 l 6.91672,0.10334 0.95885,1.07389 c 1.31065,1.4679 1.6331,3.67078 0.78955,5.39405 -0.94435,1.92921 -1.61212,2.11509 -7.61836,2.12072 l -5.30782,0.005 v -1.34802 -1.34801 h 4.52685 c 4.23088,0 4.54084,-0.0441 4.74078,-0.67401 0.11765,-0.37071 0.11765,-0.97732 0,-1.34802 -0.20039,-0.63135 -0.5099,-0.67401 -4.89017,-0.67401 -5.67207,0 -5.72548,0.0377 -5.72548,4.04405 0,4.1592 -0.21644,4.04406 7.60171,4.04406 h 6.55248 v 1.68502 1.68503 l -7.66685,-0.0132 c -5.76784,-0.01 -7.93274,-0.12884 -8.74031,-0.48007 z"
     id="path1730"
     transform="scale(1.2)" />
  <path
     style="fill:#ffffff;stroke-width:0.337005"
     d="m 347.78881,152.48379 c 0,-8.23051 0.47769,-9.01637 5.59529,-9.20509 l 3.16683,-0.11678 v 1.71755 1.71756 h -1.61762 c -0.88969,0 -1.7996,0.18198 -2.02203,0.4044 -0.28041,0.28041 -0.4044,2.03701 -0.4044,5.72908 v 5.32468 h -2.35903 -2.35904 z"
     id="path1769"
     transform="scale(1.2)" />
  <path
     style="fill:#ffffff;stroke-width:0.0842512"
     d="M 27.866071,19.792275 C 27.464624,19.558453 27.46588,19.577572 27.46588,13.701513 V 8.1853922 L 27.014478,7.7997474 26.563076,7.4141026 h -1.952462 c -2.455196,0 -2.705311,-0.080583 -2.705311,-0.8716091 0,-0.2236701 0.06129,-0.3444989 0.259218,-0.5110457 l 0.259218,-0.2181174 h 2.17751 2.177511 l 0.343016,-0.400193 0.343016,-0.400193 5.48e-4,-1.4575166 c 6.85e-4,-1.8467383 0.114233,-2.123158 0.872149,-2.123158 0.22367,0 0.344499,0.061288 0.511046,0.2592177 0.216684,0.2575149 0.218117,0.269018 0.218117,1.7510897 v 1.491872 l 0.444968,0.4394406 0.444968,0.4394406 h 1.408558 1.408558 V 4.5817482 3.3501659 L 32.525105,3.0670286 C 32.253689,2.7579024 32.13326,2.319697 32.222263,1.9650799 c 0.03127,-0.1246068 0.201595,-0.3712907 0.378491,-0.5481863 0.280789,-0.2807892 0.371558,-0.3216284 0.714854,-0.3216284 0.660084,0 1.130805,0.3668822 1.264801,0.9857944 0.07155,0.3304764 -0.18924,0.9762809 -0.450762,1.1162435 -0.167003,0.089377 -0.176427,0.1617705 -0.176427,1.3552242 v 1.2608031 h 0.511987 c 0.453547,0 0.540099,0.028111 0.758261,0.2462727 0.39508,0.3950792 0.28935,0.9821459 -0.220452,1.2240625 -0.22792,0.108155 -0.680244,0.130437 -2.647862,0.130437 h -2.372987 l -0.457757,0.3951991 -0.457758,0.395199 v 5.5931143 5.593115 l -0.246272,0.246272 c -0.259999,0.259999 -0.66216,0.325434 -0.954309,0.155273 z"
     id="path1808"
     transform="scale(1.2)" />
  <path
     style="fill:#ffffff;stroke-width:0.0842512"
     d="m 1.4577604,16.833632 c -0.2432277,-0.117514 -0.46578467,-0.594344 -0.3999099,-0.85681 0.028419,-0.113231 0.1462567,-0.294774 0.2618613,-0.40343 l 0.21019,-0.197554 3.0263516,-0.0241 3.0263515,-0.0241 V 10.617423 5.9072061 L 5.1744143,5.8813311 2.7662238,5.855456 2.5205026,5.5803105 C 2.1940716,5.2147904 2.194255,4.8698813 2.5210541,4.5430821 L 2.7673268,4.2968095 h 5.6989733 c 5.8582319,0 5.9190159,0.00325 6.1696609,0.3297037 0.128312,0.1671222 0.137555,0.6371506 0.01696,0.862484 -0.196135,0.3664807 -0.512045,0.4085844 -3.06568,0.4085844 H 9.1833771 v 4.7180654 4.718065 h 2.9964549 c 2.040946,0 3.055138,0.03001 3.180482,0.09411 0.52599,0.268994 0.634753,0.858267 0.232632,1.260387 l -0.246272,0.246273 -6.8518882,-0.0057 c -4.6495921,-0.0039 -6.9113939,-0.03445 -7.0370254,-0.09515 z"
     id="path1847"
     transform="scale(1.2)" />
  <path
     style="fill:#ffffff;stroke-width:0.119149"
     d="m 22.006198,17.97828 c -0.118314,-0.06883 -0.265151,-0.256745 -0.326305,-0.417592 -0.0934,-0.245654 0.03428,-0.582528 0.79794,-2.10528 0.50002,-0.997057 1.196925,-2.533802 1.548677,-3.414989 0.351752,-0.881186 0.706079,-1.644409 0.787392,-1.696051 0.464823,-0.295203 1.160611,0.06579 1.160611,0.602151 0,0.708444 -2.521016,6.34899 -3.093537,6.921512 -0.266792,0.266791 -0.545342,0.301897 -0.874778,0.110249 z"
     id="path1886"
     transform="scale(1.2)" />
  <path
     style="fill:#ffffff;stroke-width:0.119149"
     d="m 33.686613,17.723435 c -0.397927,-0.300401 -1.791803,-3.627332 -2.402138,-5.733473 -0.325691,-1.123891 -0.288024,-1.497528 0.176005,-1.745869 0.192894,-0.103233 0.339204,-0.101415 0.602112,0.0075 0.302626,0.125352 0.386315,0.27607 0.650601,1.171682 0.453974,1.538422 0.971296,2.911013 1.61771,4.292214 0.318888,0.681369 0.579795,1.338178 0.579795,1.459577 0,0.531956 -0.78186,0.882226 -1.224085,0.548384 z"
     id="path1925"
     transform="scale(1.2)" />
  <path
     style="fill:#ffffff;stroke-width:0.119149"
     d="M 44.332665,11.110657 C 44.147284,10.959378 44.016028,10.602714 43.854466,9.8112364 43.729598,9.1995214 43.494671,8.4863664 43.319644,8.1877052 43.062613,7.7491148 43.028636,7.5995118 43.127186,7.340305 c 0.148885,-0.3915957 0.617257,-0.5903706 0.990438,-0.4203375 0.602421,0.2744812 1.16746,1.6186066 1.346805,3.2038025 0.06848,0.605328 0.04689,0.722457 -0.173929,0.943274 -0.306711,0.306711 -0.618058,0.320887 -0.957835,0.04361 z"
     id="path1964"
     transform="scale(1.2)" />
  <path
     style="fill:#ffffff;stroke-width:0.119149"
     d="M 48.260408,10.155689 C 48.055761,9.9899762 47.964749,9.7058556 47.831029,8.8152615 47.501779,6.622408 47.654397,5.9574571 48.486944,5.9574571 c 0.466643,0 0.721651,0.3816048 0.721651,1.0799085 0,0.3026589 0.05907,0.9891944 0.131261,1.5256342 0.156082,1.1597772 0.09645,1.4769632 -0.312734,1.6633992 -0.40187,0.183104 -0.459873,0.177755 -0.766714,-0.07071 z"
     id="path2003"
     transform="scale(1.2)" />
  <path
     style="fill:#ffffff;stroke-width:0.119149"
     d="m 46.307908,17.654478 c -0.22267,-0.246048 -0.254713,-0.643484 -0.07843,-0.972862 0.06808,-0.127211 0.408229,-0.306048 0.797141,-0.419108 1.135426,-0.330078 2.296331,-0.987553 3.01796,-1.709213 1.179013,-1.179064 1.70268,-2.630435 2.134163,-5.9149424 0.200235,-1.5242151 0.272681,-1.8178851 0.492332,-1.9957481 0.537712,-0.4354124 1.184343,-0.1037762 1.184343,0.607411 0,0.7595891 -0.353527,3.2459765 -0.609175,4.2843785 -0.775572,3.150258 -2.428809,5.029137 -5.32448,6.051193 -0.964528,0.34044 -1.35309,0.357027 -1.613849,0.06889 z"
     id="path2042"
     transform="scale(1.2)" />
  <path
     style="fill:#ffffff;stroke-width:0.119149"
     d="m 64.706632,18.392474 c -0.135821,-0.172667 -0.246946,-0.363852 -0.246946,-0.424855 0,-0.332438 0.355257,-0.638619 1.172046,-1.010134 3.817576,-1.736424 6.149786,-4.865577 7.355552,-9.8690265 0.168677,-0.6999409 0.287111,-1.2921938 0.263187,-1.3161175 -0.02392,-0.023924 -1.466447,0.017877 -3.205609,0.09289 l -3.162111,0.1363874 -0.447905,0.8190183 c -0.78158,1.4291611 -2.731228,3.8111353 -3.237292,3.9551473 -0.158214,0.04502 -0.365089,-0.02007 -0.565958,-0.178071 -0.521276,-0.410036 -0.42072,-0.7618808 0.525939,-1.8402509 1.537007,-1.7508551 2.292236,-3.0644068 3.086858,-5.3688971 0.266332,-0.7723921 0.545522,-1.478189 0.620422,-1.5684376 0.235859,-0.2841935 0.955314,-0.1422575 1.162988,0.2294375 0.166092,0.2972715 0.155222,0.3970361 -0.14206,1.3038448 -0.177052,0.5400685 -0.302006,1.0018493 -0.277676,1.0261797 0.02433,0.02433 1.585264,-0.022882 3.468742,-0.1049156 l 3.424504,-0.1491524 0.233942,0.2889052 c 0.284458,0.3512919 0.236634,0.9905428 -0.214786,2.8709493 -0.606042,2.5244862 -1.415713,4.5248831 -2.500989,6.1790171 -0.766118,1.167685 -2.349529,2.806017 -3.441579,3.560951 -1.016617,0.702786 -2.96975,1.681071 -3.356238,1.681071 -0.147702,0 -0.378976,-0.140975 -0.515031,-0.313941 z"
     id="path2081"
     transform="scale(1.2)" />
  <path
     style="fill:#ffffff;stroke-width:0.119149"
     d="M 83.720739,19.560865 C 83.550116,19.372329 83.523548,18.99768 83.523548,16.780186 V 14.2174 l -0.949624,0.01046 c -0.821289,0.009 -0.984325,-0.0242 -1.206385,-0.24604 -0.46918,-0.468706 -0.345482,-0.755879 0.949624,-2.204619 l 1.206385,-1.349494 V 8.135957 5.8442061 l -0.32766,0.1193592 C 83.015675,6.0292127 82.69758,6.1721785 82.48901,6.2812668 82.021304,6.5258907 81.55561,6.362761 81.376454,5.8915457 81.166231,5.3386164 81.725153,4.7749447 82.865737,4.3896069 l 0.598237,-0.20211 0.05957,-1.507809 c 0.06516,-1.6490902 0.154438,-1.84564391 0.83835,-1.84564391 0.606823,0 0.710589,0.28171041 0.710589,1.92915081 v 1.493365 l 0.665582,0.078226 c 1.731376,0.2034892 1.867977,0.8844714 0.717625,3.5774798 -0.641841,1.5025686 -0.954345,2.4973724 -0.800612,2.5486174 0.248134,0.08271 1.182511,0.75531 1.654115,1.190693 0.558357,0.515472 0.631453,0.8505 0.265422,1.216531 -0.309281,0.309282 -0.587005,0.300558 -1.2943,-0.04065 -0.574541,-0.277168 -0.580249,-0.277485 -0.893035,-0.04964 l -0.314797,0.229314 v 2.961035 c 0,2.884635 -0.0662,3.50811 -0.394689,3.71698 -0.255774,0.162635 -0.756215,0.09765 -0.957059,-0.124282 z"
     id="path2120"
     transform="scale(1.2)" />
  <path
     style="fill:#ffffff;stroke-width:0.119149"
     d="m 87.65266,18.369373 c -0.206042,-0.227675 -0.257635,-0.694074 -0.103579,-0.936357 0.171587,-0.269851 0.76154,-0.394689 1.865213,-0.394689 h 1.109266 l 0.07447,-0.372341 c 0.04096,-0.204787 0.07447,-2.322663 0.07447,-4.706391 V 7.6255451 h -1.12917 c -1.082023,0 -1.137573,-0.012823 -1.330394,-0.3071066 -0.252792,-0.385808 -0.111282,-0.8719831 0.316858,-1.0886071 0.162742,-0.082342 0.70348,-0.1505026 1.20164,-0.1514687 l 0.905746,-0.00176 0.07652,-0.9829804 c 0.04209,-0.5406392 0.07684,-1.5057473 0.07724,-2.1446845 6.16e-4,-1.0022645 0.03342,-1.1944097 0.239012,-1.4000025 0.33705,-0.3370501 0.766578,-0.3014173 1.077192,0.089362 0.249621,0.3140436 0.258645,0.4143107 0.217159,2.4127701 l -0.04329,2.08511 1.366058,0.059575 c 1.327722,0.057903 1.371033,0.068458 1.543331,0.3761419 0.143056,0.2554637 0.149891,0.3766653 0.03541,0.6279253 -0.197497,0.433459 -0.581953,0.5448716 -1.880212,0.5448716 h -1.124161 l -0.0016,4.3787308 c -8.94e-4,2.408302 -0.03396,4.49937 -0.07347,4.646817 -0.07183,0.26804 -0.07158,0.268085 1.490992,0.268085 1.40397,0 1.587059,0.02422 1.801133,0.238299 0.297713,0.297713 0.307895,0.853275 0.02041,1.113449 -0.192893,0.174567 -0.641901,0.197191 -3.913455,0.197191 -3.428882,0 -3.709792,-0.01572 -3.892753,-0.217893 z"
     id="path2159"
     transform="scale(1.2)" />
  <path
     style="fill:#ffffff;stroke-width:0.119149"
     d="m 109.51189,18.243652 c -0.13867,-0.138673 -0.25213,-0.384086 -0.25213,-0.545362 0,-0.339113 0.41977,-0.779112 0.74328,-0.779112 0.6239,0 1.78919,-1.116648 2.44049,-2.33862 0.57986,-1.087926 1.07581,-2.718299 1.21654,-3.999197 0.34378,-3.1290813 -0.76238,-5.4167764 -3.08019,-6.3702951 -0.36564,-0.1504184 -0.72221,-0.2747607 -0.79239,-0.2763162 -0.0762,-0.00169 -0.28222,1.0985379 -0.51155,2.7319748 -0.71008,5.0575795 -1.52606,7.5240265 -3.24504,9.8086585 -0.68202,0.906436 -1.06717,1.15869 -1.76914,1.15869 -1.68619,0 -3.03573,-3.883589 -2.62404,-7.551221 0.24878,-2.2162898 0.99013,-4.1444034 2.08809,-5.4306966 0.7895,-0.9249196 1.43262,-1.4181028 2.55522,-1.959483 0.97445,-0.4699302 1.05561,-0.4880849 2.14469,-0.4797347 0.93544,0.00717 1.30863,0.070458 2.14995,0.3645872 2.72214,0.9516741 4.2665,2.9235169 4.63929,5.92343 0.37464,3.0148521 -0.94409,6.9345031 -2.96142,8.8021901 -1.13672,1.052405 -2.24839,1.433758 -2.74165,0.940507 z m -4.60107,-2.818465 c 1.61736,-2.23524 2.47509,-5.272091 3.10801,-11.0041512 l 0.0841,-0.761952 -0.345,0.080886 c -1.58003,0.3704373 -3.26769,1.9581405 -3.96356,3.7288079 -0.9841,2.5040745 -0.84058,6.6179043 0.29124,8.3482713 0.0964,0.147447 0.21433,0.267798 0.26197,0.267448 0.0476,-3.52e-4 0.30108,-0.29704 0.56321,-0.65931 z"
     id="path2198"
     transform="scale(1.2)" />
  <path
     style="fill:#ffffff;stroke-width:0.119149"
     d="m 122.56336,17.773628 c -0.35003,-0.386774 -0.24775,-0.827681 0.30387,-1.309977 1.75125,-1.53117 2.45849,-2.38794 3.02088,-3.659623 0.37258,-0.842451 0.84566,-2.80107 0.94863,-3.927417 0.0419,-0.4587242 0.10366,-0.9319586 0.13716,-1.051632 0.0579,-0.2069782 -0.0402,-0.2134553 -2.01286,-0.1328351 -2.19335,0.08964 -2.46225,0.0464 -2.72127,-0.4375871 -0.14857,-0.27761 0.0343,-0.8787947 0.29802,-0.9800132 0.0824,-0.031616 1.11953,-0.09635 2.30475,-0.1438527 l 2.15495,-0.086369 0.0773,-0.4573197 c 0.0425,-0.2515259 0.0594,-1.2139078 0.0375,-2.1386265 -0.0389,-1.6457226 -0.0338,-1.6861367 0.24155,-1.909521 0.35665,-0.2893577 0.66983,-0.2898754 0.95812,-0.00158 0.27617,0.2761719 0.4224,1.7070078 0.34809,3.4060153 l -0.0494,1.1286337 2.43522,0.03213 2.43522,0.032131 0.21798,0.2978728 c 0.20637,0.2820121 0.21244,0.5262682 0.11394,4.5872425 -0.0957,3.944379 -0.12451,4.343577 -0.35857,4.963358 -0.33641,0.890765 -1.05974,1.568067 -1.86301,1.744458 -1.2664,0.278088 -1.42653,0.279671 -1.75996,0.01739 -0.69021,-0.542919 -0.28128,-1.200691 0.87285,-1.403987 1.3296,-0.234203 1.44585,-0.497489 1.50782,-3.414831 0.0251,-1.179577 0.0651,-2.855111 0.0889,-3.7234109 l 0.0434,-1.5787261 h -1.88902 c -1.86509,0 -1.88964,0.0034 -1.93784,0.2680855 -0.0268,0.1474471 -0.1361,0.9252991 -0.24279,1.7285602 -0.4715,3.5498733 -1.64593,5.6907033 -4.35141,7.9320503 -0.58663,0.485993 -1.05103,0.5609 -1.36009,0.219387 z"
     id="path2237"
     transform="scale(1.2)" />
  <path
     style="fill:#ffffff;stroke-width:0.119149"
     d="m 145.54068,17.414703 c -0.26213,-0.122965 -0.57553,-0.334828 -0.69644,-0.47081 -0.50459,-0.567482 -0.54392,-0.955196 -0.5494,-5.416214 l -0.005,-4.2595814 h -1.4709 c -1.27366,0 -1.49734,-0.029217 -1.66809,-0.2178929 -0.2044,-0.2258679 -0.25842,-0.6977055 -0.106,-0.9259741 0.20552,-0.3077992 0.66815,-0.4050718 1.92652,-0.4050718 h 1.31847 V 3.5812305 c 0,-2.074205 0.008,-2.1434568 0.26481,-2.3234083 0.38907,-0.27251559 0.75769,-0.2268603 1.03718,0.1284612 0.22761,0.2893535 0.24695,0.4709544 0.24695,2.3187225 v 2.0047813 l 3.883,0.034473 3.88299,0.034473 0.23003,0.2842158 c 0.17319,0.2139977 0.21226,0.390619 0.15816,0.7148949 -0.2037,1.2209088 -0.79473,2.5302442 -1.66436,3.6871081 -0.72192,0.960359 -2.10884,2.164857 -2.49274,2.164857 -0.30208,0 -0.78005,-0.494323 -0.78005,-0.806737 0,-0.09837 0.44813,-0.613906 0.99584,-1.145636 0.54771,-0.531729 1.16511,-1.2188778 1.37199,-1.5269958 0.36649,-0.5458345 0.84919,-1.5536992 0.84919,-1.7730717 0,-0.063564 -1.34565,-0.1092711 -3.21702,-0.1092711 h -3.21703 v 4.2212836 c 0,3.748044 0.0218,4.24312 0.19478,4.416064 0.17301,0.173016 0.60579,0.191928 3.87288,0.16925 3.4001,-0.0236 3.69607,-0.0093 3.91586,0.189644 0.29975,0.271266 0.30363,0.666205 0.0101,1.028874 l -0.22765,0.281285 -3.79364,0.03189 c -3.50081,0.02943 -3.83042,0.01463 -4.27023,-0.191683 z"
     id="path2276"
     transform="scale(1.2)" />
  <path
     style="fill:#ffffff;stroke-width:0.119149"
     d="m 163.85563,10.868134 c -0.14437,-0.144372 -0.3049,-0.627338 -0.44042,-1.3250799 -0.13026,-0.6706144 -0.32288,-1.2594575 -0.49494,-1.513 -0.32943,-0.4854445 -0.3509,-0.7292752 -0.0962,-1.0928925 0.27657,-0.3948669 0.82871,-0.3522593 1.24771,0.096284 0.38788,0.4152213 0.63656,1.0936472 0.8939,2.4386195 0.17198,0.8988699 0.16981,0.9633159 -0.0421,1.2485119 -0.28307,0.380978 -0.76756,0.44792 -1.06793,0.147557 z"
     id="path2315"
     transform="scale(1.2)" />
  <path
     style="fill:#ffffff;stroke-width:0.119149"
     d="m 167.82953,9.9695089 c -0.2863,-0.2093447 -0.53414,-1.515047 -0.53976,-2.8435915 -0.004,-0.9379214 0.0206,-1.0533256 0.26043,-1.2212787 0.38907,-0.2725156 0.75769,-0.2268603 1.03719,0.1284612 0.19666,0.2500169 0.24694,0.4845743 0.24694,1.1519443 0,0.4609017 0.0597,1.1809522 0.13272,1.6001122 0.12592,0.7231047 0.11876,0.7769619 -0.13992,1.0523149 -0.30317,0.3227097 -0.67038,0.3713107 -0.9976,0.1320376 z"
     id="path2354"
     transform="scale(1.2)" />
  <path
     style="fill:#ffffff;stroke-width:0.119149"
     d="m 165.80279,17.369263 c -0.43224,-0.617102 -0.11188,-1.014362 1.17578,-1.458021 1.13825,-0.39218 2.30571,-1.107262 2.85452,-1.74842 1.01226,-1.182603 1.49673,-2.612667 1.87156,-5.5245092 0.22086,-1.7156934 0.27497,-1.9332025 0.541,-2.1744719 0.37838,-0.3431647 0.58074,-0.3379351 0.94304,0.024371 0.35065,0.3506486 0.34726,0.2247465 0.0633,2.3494146 -0.59344,4.4410455 -1.69032,6.4501255 -4.30637,7.8876885 -1.60757,0.883389 -2.80353,1.12843 -3.14287,0.643948 z"
     id="path2393"
     transform="scale(1.2)" />
  <path
     style="fill:#ffffff;stroke-width:0.119149"
     d="m 183.68672,19.679853 c -0.18008,-0.198989 -0.19756,-1.029837 -0.19986,-9.502144 l -0.003,-9.28409044 0.25418,-0.208511 c 0.32842,-0.26941833 0.60962,-0.26382144 0.95926,0.019093 0.28072,0.22714515 0.28135,0.23381766 0.31656,3.31016064 l 0.0353,3.0825568 0.56047,0.2003495 c 1.29175,0.4617647 3.42016,1.8423654 5.92485,3.8431775 2.00819,1.6042 2.43988,2.023767 2.43988,2.371379 0,0.356882 -0.42073,0.786073 -0.77058,0.786073 -0.13698,0 -0.73007,-0.405824 -1.31796,-0.901833 -2.3733,-2.002346 -4.51392,-3.5291916 -5.98028,-4.2655828 l -0.8603,-0.4320329 -0.0333,5.3490227 c -0.0316,5.067057 -0.0453,5.362239 -0.2603,5.599729 -0.27948,0.308705 -0.80105,0.324691 -1.06534,0.03265 z"
     id="path2432"
     transform="scale(1.2)" />
  <path
     style="fill:#ffffff;stroke-width:0.119149"
     d="m 201.79539,17.454644 c -0.42189,-0.421884 -0.28235,-1.145756 0.24859,-1.289662 0.11643,-0.03156 0.70765,-0.175666 1.31382,-0.320244 l 1.10213,-0.262868 v -2.607948 -2.607947 h -1.17303 c -0.98509,0 -1.20462,-0.03491 -1.37021,-0.217893 -0.29047,-0.3209624 -0.2468,-0.7981336 0.0979,-1.0692389 0.26566,-0.208971 0.54749,-0.2375992 2.82979,-0.2874455 1.39411,-0.030448 2.65634,-0.011288 2.80496,0.042577 0.36274,0.1314686 0.5386,0.6113631 0.36425,0.9940111 -0.15416,0.3383533 -0.24369,0.3725673 -1.26,0.4815403 l -0.74468,0.07985 v 2.371284 c 0,2.689192 -0.0989,2.486238 1.07488,2.205396 0.38257,-0.09153 0.76573,-0.117499 0.91562,-0.06205 0.55996,0.207143 0.64734,1.036352 0.13793,1.30898 -0.31457,0.168353 -5.49956,1.421091 -5.88179,1.421091 -0.15438,0 -0.36144,-0.08074 -0.46012,-0.179429 z"
     id="path2471"
     transform="scale(1.2)" />
  <path
     style="fill:#ffffff;stroke-width:0.119149"
     d="m 212.05429,18.334236 c -0.84756,-0.632284 -1.37686,-2.268642 -1.8706,-5.783037 -0.10921,-0.777417 -0.7195,-6.484355 -0.7195,-6.7282686 0,-0.057074 -1.78683,-0.1037716 -3.97073,-0.1037716 h -3.97072 l -0.25907,-0.2757649 c -0.33403,-0.3555532 -0.32852,-0.68979 0.0167,-1.0141063 0.27154,-0.2550972 0.33553,-0.2590676 4.17562,-0.2590676 h 3.89985 l -0.0629,-0.3872348 c -0.0346,-0.212979 -0.11958,-0.9966156 -0.18882,-1.7414146 -0.10885,-1.17087467 -0.10069,-1.39263917 0.0603,-1.63830067 0.10239,-0.15626643 0.27876,-0.29047349 0.39193,-0.29823789 0.80207,-0.05502855 0.9391,0.17780536 1.0952,1.86092876 0.0729,0.7863844 0.1601,1.6058313 0.19369,1.8209932 l 0.0611,0.3912033 1.27471,-0.033756 1.27471,-0.033756 -0.0383,-0.5901541 c -0.0211,-0.3245847 -0.11489,-0.7734738 -0.20851,-0.9975313 -0.0936,-0.2240576 -0.17022,-0.5265623 -0.17022,-0.6722326 0,-0.5548493 0.83464,-0.87991665 1.23397,-0.4805923 0.36591,0.3659115 0.69793,1.5186269 0.70707,2.4548176 0.0102,1.0435543 -0.18552,1.6285659 -0.59718,1.7850804 -0.15787,0.060019 -0.98056,0.1091257 -1.82821,0.1091257 -0.84765,0 -1.54118,0.028789 -1.54118,0.063975 0,0.3287401 0.64433,6.2150583 0.77554,7.0849733 0.30658,2.03271 0.6232,3.390921 0.88807,3.809651 0.161,0.254524 0.59806,-0.189011 1.08322,-1.09927 0.37193,-0.69781 0.3806,-0.745331 0.23761,-1.303231 -0.12725,-0.496514 -0.12171,-0.619747 0.0389,-0.864896 0.46817,-0.714521 1.17227,-0.406458 1.53105,0.669877 0.21792,0.653766 0.21757,0.669252 -0.0302,1.331454 -0.35029,0.936249 -1.09274,2.003398 -1.83504,2.637562 -0.71277,0.608934 -1.11949,0.679266 -1.64801,0.284982 z"
     id="path2510"
     transform="scale(1.2)" />
  <path
     style="fill:#ffffff;stroke-width:0.119149"
     d="m 224.31673,17.773628 c -0.25654,-0.283468 -0.25141,-0.766418 0.0113,-1.065108 0.11468,-0.130381 0.65085,-0.596876 1.19148,-1.036657 1.34307,-1.092515 2.05045,-1.919725 2.63264,-3.078634 0.47374,-0.943034 0.5038,-1.071492 0.77267,-3.3021045 0.15386,-1.2764949 0.24816,-2.3556748 0.20956,-2.3981778 -0.0386,-0.042503 -1.01515,-0.09612 -2.17011,-0.1191492 l -2.09994,-0.041871 -0.72373,1.0723423 c -0.87269,1.2930468 -2.17923,2.8152242 -2.52677,2.9437852 -0.2564,0.09485 -0.69329,-0.06319 -0.85845,-0.310554 -0.23571,-0.353 -0.0636,-0.7573738 0.68987,-1.6204635 1.55412,-1.7803252 2.37726,-3.2239452 3.22258,-5.6517446 0.22667,-0.6510084 0.47068,-1.2542009 0.54224,-1.3404278 0.23082,-0.2781198 0.90563,-0.1931927 1.12498,0.1415834 0.22903,0.3495517 0.1373,0.845471 -0.42357,2.289901 l -0.33451,0.8614573 0.3734,0.056056 c 0.20537,0.030831 1.41178,0.086074 2.68092,0.1227635 l 2.30751,0.066708 -0.047,-1.1696237 c -0.0397,-0.987788 -0.0885,-1.2223705 -0.31386,-1.5089072 -0.23723,-0.3015944 -0.24836,-0.3669824 -0.10016,-0.5886368 0.18716,-0.2799227 0.62842,-0.3127445 2.00066,-0.1488114 l 0.79297,0.094732 0.082,-0.3733541 c 0.0509,-0.2315744 0.19281,-0.4238392 0.37379,-0.5062983 0.24542,-0.1118214 0.33172,-0.093005 0.54315,0.1184292 0.23343,0.2334323 0.24162,0.2999434 0.11471,0.9318921 -0.20309,1.0112204 -0.25047,1.0429299 -1.41354,0.9460465 l -0.98818,-0.082315 v 1.1260163 1.1260164 l 0.62553,0.075135 c 0.34404,0.041324 0.79148,0.075601 0.9943,0.076171 0.69873,0.00196 1.02076,0.8157703 0.52069,1.3158354 -0.22802,0.2280237 -0.33402,0.2376236 -1.78058,0.1612562 l -1.53812,-0.081201 -0.0632,0.285553 c -0.0347,0.1570541 -0.17259,1.2774696 -0.30634,2.4898122 l -0.24316,2.2042599 -0.66085,1.331201 c -0.7724,1.555925 -1.52139,2.437778 -3.28034,3.862226 -1.21809,0.986439 -1.57639,1.120688 -1.9346,0.724861 z"
     id="path2549"
     transform="scale(1.2)" />
  <path
     style="fill:#ffffff;stroke-width:0.119149"
     d="m 240.74084,9.8661512 c -0.13106,-0.074322 -0.27769,-0.1933298 -0.32584,-0.2644625 -0.16135,-0.2383932 -0.0933,-0.7457921 0.12671,-0.9449093 0.19739,-0.1786343 0.85717,-0.1971904 7.01133,-0.1971904 6.43006,0 6.80399,0.011655 6.99063,0.2178929 0.20441,0.225868 0.25843,0.6977057 0.10601,0.9259742 -0.25712,0.3850765 -0.61267,0.4050689 -7.13929,0.4014489 -4.6435,-0.0026 -6.60013,-0.042681 -6.76955,-0.1387538 z"
     id="path2588"
     transform="scale(1.2)" />
  <path
     style="fill:#ffffff;stroke-width:0.119149"
     d="m 273.70796,18.334413 c -0.194,-0.07211 -0.4407,-0.450104 -0.83404,-1.277949 l -0.55856,-1.175555 -3.5149,0.504856 c -3.55469,0.510572 -6.08039,0.771711 -7.46388,0.771711 -0.59854,0 -0.80739,-0.04998 -0.99571,-0.238298 -0.56732,-0.567323 -0.0709,-1.31064 0.87525,-1.31064 0.34447,0 0.58068,-0.05765 0.61023,-0.148937 1.59676,-4.932917 3.39492,-11.3147635 3.69477,-13.1130512 0.1467,-0.8798422 0.88961,-1.206301 1.36623,-0.6003712 0.28756,0.3655732 0.29094,0.3326991 -0.29768,2.9006379 -0.47149,2.0569255 -0.89957,3.5548234 -2.19214,7.6704195 -0.53258,1.695748 -0.94499,3.106507 -0.91648,3.135021 0.1011,0.1011 8.00866,-0.934819 8.126,-1.064535 0.015,-0.01664 -0.52985,-1.230259 -1.21089,-2.696937 -0.68104,-1.466678 -1.23825,-2.7898716 -1.23825,-2.9404307 0,-0.5299462 0.66618,-0.9078826 1.09658,-0.6221084 0.27918,0.1853667 4.50071,9.1646681 4.5024,9.5767221 0.002,0.449703 -0.58501,0.80187 -1.04893,0.629445 z"
     id="path2627"
     transform="scale(1.2)" />
  <path
     style="fill:#ffffff;stroke-width:0.119149"
     d="m 282.99364,9.8326813 c -0.47366,-0.3588439 -1.08621,-0.7152746 -1.36122,-0.7920683 -0.85118,-0.2376803 -1.133,-0.7645241 -0.697,-1.3029667 0.48009,-0.5928839 1.66532,-0.2042787 3.17504,1.0410114 0.8412,0.6938538 0.99574,1.1124411 0.55724,1.5092763 -0.3743,0.338744 -0.76697,0.231961 -1.67406,-0.4552527 z"
     id="path2666"
     transform="scale(1.2)" />
  <path
     style="fill:#ffffff;stroke-width:0.119149"
     d="m 284.13983,4.8553275 c -1.38926,-0.834291 -1.75636,-1.170613 -1.75636,-1.6090832 0,-0.4058288 0.3195,-0.7441123 0.7028,-0.7441123 0.14687,0 0.51492,0.1742556 0.81791,0.3872347 0.30298,0.2129791 0.92865,0.6037163 1.39038,0.8683049 0.97042,0.5560874 1.18781,0.9144173 0.85911,1.4160824 -0.31823,0.4856816 -0.8023,0.4091415 -2.01384,-0.3184265 z"
     id="path2705"
     transform="scale(1.2)" />
  <path
     style="fill:#ffffff;stroke-width:0.119149"
     d="m 282.44304,17.489761 c -0.32131,-0.179595 -0.41303,-0.334466 -0.4152,-0.701053 -0.003,-0.428752 0.31165,-0.667487 1.01095,-0.768181 4.30399,-0.619749 8.24364,-4.61269 8.88607,-9.0062688 0.20115,-1.3756608 0.70202,-1.7859389 1.36767,-1.1202906 0.26761,0.2676138 0.28702,0.3557073 0.21659,0.9829804 -0.5223,4.651575 -4.45176,9.188856 -8.99348,10.384608 -1.21898,0.320936 -1.79352,0.384196 -2.0726,0.228205 z"
     id="path2744"
     transform="scale(1.2)" />
  <path
     style="fill:#ffffff;stroke-width:0.119149"
     d="m 309.66862,14.774494 c -1.38103,-1.572769 -2.54919,-2.857133 -2.59591,-2.854142 -0.0467,0.003 -0.34636,0.352548 -0.66586,0.776793 -0.75039,0.996399 -2.5013,2.844571 -3.61533,3.816171 -0.94064,0.820372 -1.3718,0.955311 -1.74275,0.545417 -0.41435,-0.45785 -0.26676,-0.686994 1.6889,-2.622167 2.71222,-2.683807 4.30061,-4.9147382 5.36476,-7.5349434 0.48072,-1.1836577 0.92842,-2.6939955 0.82825,-2.7941617 -0.0326,-0.032635 -1.6091,-0.013506 -3.50326,0.042511 -1.89416,0.056017 -3.56552,0.057641 -3.71414,0.00361 -0.54106,-0.1966971 -0.56941,-1.1339658 -0.0413,-1.365081 0.24982,-0.1093284 8.14543,-0.3346682 8.51104,-0.2429043 0.15334,0.038484 0.34156,0.20774 0.41828,0.3761247 0.3626,0.7958188 -1.02429,4.9715635 -2.38533,7.1819127 -0.21338,0.346545 -0.22156,0.416938 -0.0692,0.595746 0.095,0.111521 1.2806,1.471185 2.63455,3.021474 2.04348,2.339809 2.46173,2.880174 2.46173,3.180484 0,0.404704 -0.3566,0.732735 -0.79656,0.732735 -0.19934,0 -0.90294,-0.724292 -2.77791,-2.859579 z"
     id="path2783"
     transform="scale(1.2)" />
  <path
     style="fill:#ffffff;stroke-width:0.119149"
     d="m 323.15494,17.986879 c -0.53939,-0.502513 -0.27079,-1.097751 0.61102,-1.354101 1.64125,-0.477123 2.84791,-2.917004 3.02289,-6.112301 l 0.0731,-1.3348626 -3.24564,-0.035353 -3.24564,-0.035353 -0.22761,-0.2812854 c -0.28809,-0.3560207 -0.28805,-0.6304543 1.6e-4,-0.986368 l 0.22777,-0.2812854 h 6.51468 6.51468 l 0.22777,0.2812854 c 0.28819,0.3558955 0.28825,0.630329 2.4e-4,0.986368 -0.22417,0.2771039 -0.26465,0.2818254 -2.72247,0.3176095 l -2.49494,0.036324 -0.0752,1.3988335 c -0.20445,3.802303 -1.81471,6.827376 -3.98134,7.479436 -0.72657,0.218663 -0.89168,0.207796 -1.19946,-0.07895 z"
     id="path2861"
     transform="scale(1.2)" />
  <path
     style="fill:#ffffff;stroke-width:0.119149"
     d="m 324.4729,3.961873 c 1.22873,-0.019365 3.23937,-0.019365 4.46809,0 1.22873,0.019365 0.22341,0.035209 -2.23404,0.035209 -2.45746,0 -3.46278,-0.015844 -2.23405,-0.035209 z"
     id="path2900"
     transform="scale(1.2)" />
  <path
     style="fill:#ffffff;stroke-width:0.119149"
     d="m 321.78072,3.7140287 c -0.28915,-0.3195158 -0.25368,-0.9205173 0.0676,-1.1455659 0.22873,-0.1602094 0.90062,-0.18548 4.93149,-0.18548 4.27316,0 4.68702,0.017583 4.90783,0.208511 0.37373,0.3231561 0.41907,0.664143 0.13614,1.0238333 l -0.24903,0.3165946 h -4.79843 c -4.49732,0 -4.8108,-0.013673 -4.99562,-0.217893 z"
     id="path2939"
     transform="scale(1.2)" />
  <path
     style="fill:#ffffff;stroke-width:0.119149"
     d="m 353.05493,18.317424 c -0.17871,-0.09332 -0.48394,-0.566354 -0.83405,-1.292573 l -0.55219,-1.145392 -3.5149,0.507588 c -3.51275,0.507278 -6.05506,0.770429 -7.44311,0.770429 -0.61595,0 -0.77909,-0.04518 -0.99571,-0.275764 -0.52527,-0.559123 -0.16769,-1.128719 0.80513,-1.2825 0.3487,-0.05512 0.64731,-0.115788 0.66358,-0.134812 0.0163,-0.01902 0.87357,-3.063953 1.90513,-6.7665127 1.03157,-3.7025595 1.92452,-6.8251233 1.98435,-6.9390306 0.2372,-0.4515941 1.09338,-0.398612 1.31199,0.081188 0.26134,0.5735776 -0.55208,3.8475517 -2.54176,10.2305093 -0.52716,1.691137 -0.92525,3.108012 -0.88465,3.148612 0.0701,0.07006 6.8516,-0.625003 7.66538,-0.785649 l 0.38522,-0.07605 -1.25075,-2.680856 c -0.72722,-1.558717 -1.23757,-2.8006059 -1.21926,-2.9669455 0.0173,-0.1573492 0.18139,-0.3975252 0.3646,-0.5337246 0.66448,-0.4939579 0.75242,-0.3607513 3.08906,4.6792521 1.16504,2.512934 2.11826,4.692734 2.11826,4.843998 0,0.155203 -0.13678,0.382619 -0.31394,0.521975 -0.36612,0.28799 -0.3734,0.288934 -0.74238,0.09625 z"
     id="path2978"
     transform="scale(1.2)" />
</svg>
