<?xml version="1.0" encoding="UTF-8" standalone="no"?>
<svg
   version="1.0"
   width="600"
   height="300"
   viewBox="0 0 6000 3000"
   id="svg8"
   sodipodi:docname="gottlieb-w.svg"
   inkscape:version="1.1 (c68e22c387, 2021-05-23)"
   xmlns:inkscape="http://www.inkscape.org/namespaces/inkscape"
   xmlns:sodipodi="http://sodipodi.sourceforge.net/DTD/sodipodi-0.dtd"
   xmlns="http://www.w3.org/2000/svg"
   xmlns:svg="http://www.w3.org/2000/svg">
  <defs
     id="defs12" />
  <sodipodi:namedview
     id="namedview10"
     pagecolor="#ffffff"
     bordercolor="#666666"
     borderopacity="1.0"
     inkscape:pageshadow="2"
     inkscape:pageopacity="0.0"
     inkscape:pagecheckerboard="0"
     showgrid="false"
     inkscape:zoom="1.7633333"
     inkscape:cx="299.71645"
     inkscape:cy="150"
     inkscape:window-width="1920"
     inkscape:window-height="1017"
     inkscape:window-x="-8"
     inkscape:window-y="712"
     inkscape:window-maximized="1"
     inkscape:current-layer="svg8" />
  <g
     fill="#18161a"
     id="g4">
    <path
       d="M2432 2113c-41-20-78-63-94-111-8-26-13-166-15-484l-4-448h321v190h160v220h-162l4 173c2 144 6 176 21 198 22 33 57 49 107 49h40v230h-172c-139 0-180-4-206-17zM2974 2111c-23-10-50-32-61-47-47-66-48-84-48-549v-440l158-3 157-3v191h160v220h-160v155c0 218 23 265 130 265h40v230h-167c-142 0-174-3-209-19zM3400 1600v-530h310v1060h-310v-530zM3810 1700v-430h300v860h-300v-430zM4507 2119c-154-36-288-182-319-347-34-181 67-386 227-461 192-90 390-57 530 90 86 90 127 202 117 322l-4 47h-294c-229 0-294 3-294 13 0 6 9 31 20 55 31 68 50 72 325 72h235v220l-252-1c-139-1-270-5-291-10zm263-549c-24-48-80-87-135-95-51-8-120 26-152 74-41 61-40 61 142 61h165l-20-40zM5120 1595v-535h320v170h68c157 0 275 44 361 135 97 102 147 256 122 379-27 138-118 269-227 328-89 48-156 58-411 58h-233v-535zm444 284c119-30 173-183 109-309-35-67-82-95-161-94-29 1-58 6-63 11-6 6-8 87-7 199l3 189 30 6c17 4 34 7 38 8 5 0 27-4 51-10zM476 2104c-201-49-366-204-439-413-26-74-30-100-30-186 1-192 57-329 188-461 66-66 98-90 171-125l89-44 408-3 407-3v261h-149c-172 0-161 8-161-117 0-40-4-73-8-73-5 0-53 38-108 85-54 47-102 84-105 82-3-1-50-54-105-116l-98-115-7 35c-4 18-13 80-20 136-6 55-15 106-19 113-5 8-48 2-156-23-82-20-150-34-152-32-2 1 26 75 62 164l64 161-41 24c-23 14-68 37-99 52-32 16-58 32-58 36 0 6 41 31 187 114l51 29-54 144c-30 79-52 146-50 148s76-29 165-71c88-41 163-71 165-68 2 4 16 52 31 107s28 101 29 102c1 2 44-49 95-112s95-115 97-115 72 34 155 76c83 41 153 73 155 71s-21-81-51-176c-30-94-55-174-55-176 0-3-11-5-25-5s-25 3-25 7c0 3 18 62 41 131 22 68 37 127 34 130-3 4-57-20-121-51-63-31-118-57-123-57s-42 40-82 90c-40 49-74 88-76 86s-13-43-24-90c-12-47-25-86-30-86s-72 32-149 70c-77 39-140 67-140 63 0-3 23-55 50-114 28-59 50-112 50-117s-45-32-100-61-102-56-105-61 25-25 62-44c119-60 115-42 44-201-34-75-60-139-59-141 2-1 64 12 138 31s136 33 138 31 31-234 32-254c0-11 29 22 96 108 42 55 78 100 80 100 3 0 41-34 85-75s84-75 88-75 11 41 15 92 9 95 12 97c3 3 54-3 115-13 60-10 112-17 114-14 2 2-25 44-60 94-35 49-65 92-65 97 0 4 52 7 115 7h115v730l-367-1c-281 0-382-4-427-15zM1691 2104c-159-43-284-169-326-329-63-242 88-484 342-550 145-38 324 8 437 113 48 45 103 138 121 206 67 247-86 502-336 561-79 18-167 18-238-1zm182-248c18-7 47-29 64-49 111-127 29-347-129-347-42 0-88 28-124 76-53 69-43 224 19 282 54 50 111 63 170 38zM3810 1135v-65h300v130h-300v-65z"
       id="path2" />
  </g>
  <path
     d="M661 1833c-5-21-13-54-16-73-4-19-9-38-12-42-2-4-58 19-123 52-66 33-122 60-124 60-3 0 13-39 35-86s37-89 34-94-47-31-97-56l-91-47 77-39c42-21 76-40 76-43s-23-57-51-120c-29-64-49-118-45-122 3-3 57 7 120 24l114 31 5-22c3-11 9-57 12-101 4-44 10-84 12-88 3-4 34 29 69 75 36 46 69 85 75 86 5 2 40-26 77-62 38-36 71-66 74-66s8 36 11 81c3 44 7 82 9 84 2 3 43-3 91-12 48-8 90-13 93-10s-18 37-46 76l-52 71H669l3 113 3 112 132 3 132 3 30 92c17 51 31 95 31 98 0 4-46-16-101-43-56-27-103-47-104-46-13 20-118 148-121 148-2 0-8-17-13-37z"
     fill="#eeab0f"
     id="path6" />
  <path
     style="fill:#ffffff;fill-opacity:0.941176;stroke-width:0.567108"
     d="m 171.83365,210.68241 c -16.06174,-3.23398 -29.63967,-15.77578 -34.69071,-32.04347 -1.11735,-3.59859 -1.32063,-5.47545 -1.32063,-12.19282 0,-7.21128 0.14937,-8.3952 1.62851,-12.90781 5.5487,-16.92815 20.71708,-29.27843 38.93884,-31.7045 12.5126,-1.66593 28.60319,3.58559 37.64769,12.28717 5.54394,5.33375 10.71975,14.45273 12.61165,22.21982 1.35868,5.57796 1.21835,15.08879 -0.30705,20.81127 -5.58003,20.93318 -23.8268,34.54698 -46.00169,34.32155 -2.65122,-0.027 -6.4792,-0.383 -8.50661,-0.79121 z m 14.24817,-24.41077 c 13.89019,-4.8917 17.4787,-24.95766 6.39054,-35.73412 -4.52505,-4.39784 -11.49552,-5.95607 -16.49333,-3.68704 -3.28763,1.4926 -7.3847,5.4169 -9.01568,8.63548 -3.04391,6.00686 -2.88803,15.76023 0.35813,22.40931 3.50188,7.17286 11.73699,10.84979 18.76034,8.37637 z"
     id="path903"
     transform="scale(10)" />
  <path
     style="fill:#ffffff;fill-opacity:0.941176;stroke-width:0.567108"
     d="m 247.20395,212.09102 c -3.38583,-0.57273 -5.3998,-1.65278 -8.08065,-4.33351 -3.50154,-3.50139 -4.88748,-6.36672 -5.48549,-11.34085 -0.2943,-2.44788 -0.6698,-19.1246 -0.83445,-37.05938 -0.16465,-17.93478 -0.41085,-37.01087 -0.54711,-42.39131 l -0.24774,-9.78261 h 15.8483 15.84829 v 9.64084 9.64083 h 7.93951 7.93951 v 10.77505 10.77504 h -7.93951 -7.93951 l 0.0339,8.93195 c 0.0559,14.7605 0.79192,25.12381 1.95885,27.58292 1.56779,3.30388 4.50288,4.91923 10.19162,5.60905 l 4.8289,0.58555 v 10.97041 10.97041 l -15.45369,-0.0667 c -8.49953,-0.0367 -16.62684,-0.26514 -18.0607,-0.50768 z"
     id="path942"
     transform="scale(10)" />
  <path
     style="fill:#ffffff;fill-opacity:0.941176;stroke-width:0.567108"
     d="m 301.93197,212.08091 c -7.1556,-1.41868 -11.82667,-5.82105 -13.74828,-12.95745 -0.72196,-2.68119 -0.89311,-10.17977 -1.07708,-47.18924 l -0.21872,-44.00151 11.51825,-0.37318 c 6.33503,-0.20525 13.24084,-0.37386 15.34622,-0.37468 l 3.82798,-10e-4 v 9.64084 9.64083 h 7.93951 7.93951 v 10.77505 10.77504 h -8.02238 -8.02238 l 0.33814,14.88658 c 0.53385,23.50221 1.83768,26.36637 12.44575,27.33992 l 4.39508,0.40336 v 11.01021 11.01022 l -15.17013,-0.0621 c -8.34357,-0.0342 -16.21473,-0.26924 -17.49147,-0.52236 z"
     id="path981"
     transform="scale(10)" />
  <path
     style="fill:#ffffff;fill-opacity:0.941176;stroke-width:0.567108"
     d="m 340.26465,159.92439 v -52.74103 h 15.31191 15.31191 v 52.74103 52.74102 h -15.31191 -15.31191 z"
     id="path1020"
     transform="scale(10)" />
  <path
     style="fill:#ffffff;fill-opacity:0.941176;stroke-width:0.567108"
     d="m 381.09641,169.84877 v -42.81663 h 14.7448 14.7448 v 42.81663 42.81664 h -14.7448 -14.7448 z"
     id="path1059"
     transform="scale(10)" />
  <path
     style="fill:#ffffff;fill-opacity:0.941176;stroke-width:0.567108"
     d="m 381.09641,113.42155 v -6.23819 h 14.7448 14.7448 v 6.23819 6.23819 h -14.7448 -14.7448 z"
     id="path1098"
     transform="scale(10)" />
  <path
     style="fill:#ffffff;fill-opacity:0.941176;stroke-width:0.567108"
     d="m 457.93951,212.10246 c -8.34026,-0.41687 -11.5969,-1.34567 -17.94814,-5.11888 -4.23629,-2.51673 -10.57921,-8.44813 -13.33051,-12.46562 -5.71943,-8.35164 -8.43168,-17.32849 -7.96756,-26.37051 0.37414,-7.289 1.42084,-11.12849 4.97664,-18.25535 6.06745,-12.16091 15.8057,-19.48419 29.73156,-22.35848 11.50529,-2.37468 22.5236,-0.4545 32.01348,5.57906 6.74261,4.28688 13.09395,11.39458 16.53647,18.50574 2.98617,6.16847 3.99163,11.15551 3.78983,18.79746 l -0.16472,6.23818 -29.20605,0.31153 c -16.06333,0.17135 -29.26985,0.36274 -29.34783,0.42534 -1.00941,0.81023 2.32114,8.78318 4.45657,10.66851 2.92948,2.58636 4.03848,2.69715 29.28635,2.92552 l 23.9603,0.21672 v 10.73186 10.73187 l -19.707,-0.0972 c -10.83884,-0.0535 -23.02457,-0.26305 -27.07939,-0.46572 z m 21.26122,-51.46919 c -0.0155,-1.2348 -3.61277,-6.43409 -5.92858,-8.56874 -3.64024,-3.35545 -7.12382,-4.81776 -11.40172,-4.78612 -5.76777,0.0427 -11.05645,3.19124 -14.52185,8.64547 -1.93558,3.04643 -1.99521,3.87896 -0.3259,4.54994 1.53291,0.61615 32.18566,0.76804 32.17805,0.15945 z"
     id="path1137"
     transform="scale(10)" />
  <path
     style="fill:#ffffff;fill-opacity:0.941176;stroke-width:0.567108"
     d="m 512.0983,159.41817 v -53.36902 h 15.87902 15.87901 v 8.4187 8.41869 l 7.65998,0.36737 c 16.61357,0.79677 26.18944,4.48375 34.8731,13.42713 10.03872,10.33895 15.04927,26.21947 12.16477,38.55525 -3.82342,16.35113 -14.78344,29.585 -28.42114,34.31758 -6.86547,2.38248 -10.25001,2.67151 -34.64155,2.95829 l -23.39319,0.27504 z m 44.55086,28.54436 c 9.77563,-2.67648 15.4241,-13.24279 13.08256,-24.47287 -0.99498,-4.77196 -2.50657,-7.90831 -5.30361,-11.0043 -3.54605,-3.92505 -5.75285,-4.74772 -12.74448,-4.75097 -4.22736,-0.002 -6.29073,0.2209 -6.80529,0.73505 -0.57704,0.57658 -0.73845,4.87404 -0.73845,19.66004 0,10.4072 0.172,19.09404 0.38223,19.3041 0.69058,0.69002 6.39238,1.83199 7.84083,1.57037 0.77977,-0.14084 2.70856,-0.60948 4.28621,-1.04142 z"
     id="path1176"
     transform="scale(10)" />
  <path
     style="fill:#ffffff;fill-opacity:0.941176;stroke-width:0.567108"
     d="m 54.15879,210.9196 c -6.350512,-0.50408 -12.215909,-2.21403 -18.580737,-5.41688 -4.127106,-2.07681 -10.290455,-6.0144 -10.862249,-6.93958 -0.169003,-0.27345 0.899764,-0.95391 2.375038,-1.51213 1.475273,-0.55821 7.275888,-3.09825 12.890254,-5.64452 12.482351,-5.6611 16.666228,-7.34896 17.111909,-6.90328 0.288176,0.28818 3.12978,9.9361 5.297109,17.98494 0.33141,1.23076 0.845643,2.23775 1.142742,2.23775 0.297097,0 4.660312,-4.97637 9.696032,-11.0586 5.035719,-6.08223 9.341961,-11.0586 9.569422,-11.0586 0.227456,0 6.914444,3.18998 14.85997,7.08884 7.94553,3.89887 14.87516,7.08885 15.3992,7.08885 1.14028,0 1.14072,0.002 -2.21059,-11.0586 -6.59934,-21.78075 -7.6047,-24.53906 -9.07896,-24.90908 -1.32246,-0.33191 -4.225397,0.0865 -4.225397,0.60907 0,0.13543 1.00842,3.36155 2.240938,7.16915 2.789749,8.61837 5.131459,16.72368 5.131459,17.76141 0,0.43297 -0.26872,0.78722 -0.59715,0.78722 -0.32845,0 -5.474829,-2.29679 -11.436425,-5.10397 -5.961589,-2.80719 -11.284582,-5.10397 -11.828875,-5.10397 -0.578915,0 -3.97758,3.54455 -8.189217,8.54071 -3.959778,4.6974 -7.277273,8.46158 -7.372211,8.36484 -0.09494,-0.0967 -0.592033,-1.83466 -1.104654,-3.86207 -2.229059,-8.81589 -3.738192,-13.04348 -4.656161,-13.04348 -0.502608,0 -6.75108,2.82701 -13.885494,6.28225 -7.134413,3.45524 -13.214475,6.19862 -13.511248,6.09641 -0.296772,-0.10221 0.618982,-2.73783 2.03501,-5.85692 6.322842,-13.92736 7.19128,-16.24603 6.379672,-17.03332 -0.421895,-0.40926 -4.971492,-3.07525 -10.110217,-5.92442 -5.138724,-2.84918 -9.458469,-5.29566 -9.599432,-5.43663 -0.431796,-0.43179 1.682862,-1.81422 7.442291,-4.86528 7.322026,-3.87884 8.017212,-4.56006 7.666599,-7.51251 -0.152054,-1.28042 -1.807455,-5.77321 -3.67867,-9.98399 -1.871215,-4.21077 -4.197189,-9.52575 -5.168831,-11.81107 l -1.766623,-4.15511 1.836377,0.37579 c 1.010009,0.20668 7.156337,1.64783 13.65851,3.20255 6.502172,1.55471 11.897231,2.74501 11.989021,2.64511 0.09179,-0.0999 0.862646,-5.79602 1.713014,-12.65802 0.850369,-6.86201 1.612524,-12.551357 1.693678,-12.643003 0.174697,-0.197286 5.853056,6.637643 11.380917,13.698983 2.163876,2.76416 4.344389,5.54224 4.845586,6.17352 0.890133,1.12116 1.033029,1.03749 6.161599,-3.60797 9.28246,-8.40805 11.512945,-10.21531 12.002875,-9.72537 0.264034,0.26403 0.879931,4.29739 1.368653,8.96303 0.488722,4.66563 1.065034,8.6589 1.280693,8.87394 0.413598,0.4124 3.379101,0.0933 14.690923,-1.58102 3.80953,-0.56386 7.09008,-0.86153 7.29012,-0.66149 0.20003,0.20004 -2.34266,4.31762 -5.65042,9.15019 -3.30777,4.83257 -6.01412,9.02011 -6.01412,9.30566 0,0.5623 9.73592,1.25285 17.72212,1.257 l 4.96219,0.003 v 36.01134 36.01134 l -33.317582,-0.0807 C 74.822779,211.40607 57.277883,211.16718 54.15879,210.9196 Z m 19.711671,-31.08258 5.908698,-7.30853 9.590569,4.4471 c 8.833871,4.09621 11.008342,4.93395 11.008342,4.24106 0,-0.1418 -1.414529,-4.60777 -3.143397,-9.92439 l -3.143405,-9.66655 -9.474742,-0.004 c -5.211114,-0.002 -11.186914,-0.16574 -13.27956,-0.3634 l -3.804812,-0.35943 -0.164942,-10.69583 -0.164944,-10.69583 15.879017,-0.0215 15.879017,-0.0215 1.829498,-2.48798 c 3.55403,-4.83321 8.09489,-11.6962 8.09489,-12.2345 0,-0.82632 -3.50816,-0.64737 -11.314147,0.57713 -3.883464,0.60918 -7.113006,1.05247 -7.176755,0.98508 -0.06375,-0.0674 -0.420516,-3.56771 -0.792811,-7.77848 -0.372289,-4.21078 -0.794393,-7.84735 -0.938002,-8.08129 -0.550525,-0.89678 -1.478523,-0.29549 -5.729682,3.7125 -5.070488,4.78046 -9.24795,8.33854 -9.790089,8.33854 -0.207155,0 -2.69317,-2.87098 -5.524478,-6.37996 -6.392829,-7.92295 -8.526751,-10.03201 -9.142389,-9.03589 -0.247053,0.39974 -0.87428,4.77997 -1.393836,9.73385 -0.519557,4.95387 -1.084103,9.37045 -1.254548,9.81462 -0.256836,0.66931 -1.300212,0.53093 -6.0935,-0.80814 -5.772118,-1.61252 -15.673231,-3.89158 -16.906512,-3.89158 -1.216253,0 -0.101125,3.59666 4.261872,13.74597 2.369979,5.5131 4.309053,10.27109 4.309053,10.5733 0,0.30221 -3.317581,2.23644 -7.372401,4.29828 -4.05482,2.06184 -7.372401,3.93714 -7.372401,4.16731 0,0.23019 2.488186,1.65259 5.529301,3.1609 3.041115,1.50831 7.263384,3.75306 9.38282,4.98833 4.483038,2.61286 4.478853,1.49882 0.04429,11.78844 -2.725041,6.32298 -3.461671,8.5251 -2.851724,8.5251 0.10748,0 4.974834,-2.30688 10.816344,-5.1264 9.642048,-4.65394 13.940978,-6.34164 13.940978,-5.47306 0,2.47025 3.271976,14.56922 3.940013,14.56922 0.278125,0 3.164597,-3.28884 6.41438,-7.30854 z"
     id="path1215"
     transform="scale(10)" />
  <path
     style="fill:#ffffff;fill-opacity:0.941176;stroke-width:0.567108"
     d="M 19.046073,193.3614 C 11.877075,185.8577 6.6927896,177.04974 3.0370896,166.16257 1.4624036,161.47295 1.4198331,161.03441 1.4681021,150 c 0.045424,-10.3841 0.1765373,-11.81776 1.5522178,-16.97275 2.9724024,-11.13828 8.8839771,-20.74266 18.4276411,-29.93893 5.851099,-5.638114 8.582501,-7.50663 17.531251,-11.992896 5.954487,-2.985155 6.634341,-3.193723 10.41039,-3.193723 3.489379,0 3.991882,0.125067 3.687676,0.917815 -0.193709,0.504799 -1.134265,6.42862 -2.090125,13.164044 -0.955859,6.73543 -1.98685,12.71135 -2.291091,13.27983 -0.445274,0.83201 -0.961977,0.96154 -2.649188,0.66415 -3.296223,-0.581 -11.703551,-2.32928 -18.825702,-3.91476 -3.586956,-0.7985 -7.095936,-1.57864 -7.797732,-1.73365 -0.917566,-0.20267 -1.275992,-0.0216 -1.275992,0.64465 0,0.50957 2.679584,7.74643 5.954631,16.0819 3.275048,8.33548 5.954632,15.39979 5.954632,15.69847 0,0.29868 -3.508979,2.38276 -7.797732,4.63129 -9.505736,4.98372 -11.483932,6.17094 -11.483932,6.8921 0,0.71157 3.739514,3.08248 14.773226,9.36646 l 8.818594,5.02242 -4.763545,12.80899 c -2.61995,7.04495 -4.899119,13.63839 -5.064819,14.65209 -0.165701,1.01371 -0.48922,1.8431 -0.718933,1.8431 -0.229714,0 -2.377787,-2.05164 -4.773497,-4.5592 z"
     id="path1254"
     transform="scale(10)" />
  <path
     style="fill:#ffffff;fill-opacity:0.941176;stroke-width:0.567108"
     d="m 99.83867,112.27758 c -1.076444,-0.25342 -2.252941,-0.86525 -2.614439,-1.35963 -0.38667,-0.5288 -0.775084,-4.17494 -0.943437,-8.85628 -0.157394,-4.376571 -0.426431,-8.097666 -0.597861,-8.269096 -0.547612,-0.547612 -2.20845,0.660886 -10.900324,7.931556 -4.678639,3.91363 -9.047118,7.40608 -9.70773,7.76099 -1.06392,0.57159 -1.493356,0.33124 -3.759652,-2.10422 C 68.469412,104.32266 60.069388,94.748735 56.678529,90.698726 l -2.195028,-2.62172 8.576205,-0.371206 c 4.716912,-0.204164 20.912756,-0.371206 35.990763,-0.371206 h 27.414561 v 12.759926 12.75992 l -12.3346,-0.058 c -6.78402,-0.0319 -13.21532,-0.26539 -14.29176,-0.51881 z"
     id="path1293"
     transform="scale(10)" />
</svg>
