<?xml version="1.0" encoding="UTF-8" standalone="no"?>
<svg
   height="173.128"
   viewBox="0 0 597.664 225.067"
   width="459.741"
   version="1.1"
   id="svg60"
   sodipodi:docname="incredibletech-w.svg"
   inkscape:version="1.1 (c68e22c387, 2021-05-23)"
   xmlns:inkscape="http://www.inkscape.org/namespaces/inkscape"
   xmlns:sodipodi="http://sodipodi.sourceforge.net/DTD/sodipodi-0.dtd"
   xmlns="http://www.w3.org/2000/svg"
   xmlns:svg="http://www.w3.org/2000/svg">
  <defs
     id="defs64" />
  <sodipodi:namedview
     id="namedview62"
     pagecolor="#ffffff"
     bordercolor="#666666"
     borderopacity="1.0"
     inkscape:pageshadow="2"
     inkscape:pageopacity="0.0"
     inkscape:pagecheckerboard="0"
     showgrid="false"
     inkscape:zoom="4.6025915"
     inkscape:cx="419.22035"
     inkscape:cy="123.08283"
     inkscape:window-width="1920"
     inkscape:window-height="1017"
     inkscape:window-x="-8"
     inkscape:window-y="712"
     inkscape:window-maximized="1"
     inkscape:current-layer="svg60" />
  <filter
     id="f"
     color-interpolation-filters="sRGB"
     height="1.55632"
     width="1.55632"
     x="-0.27816001"
     y="-0.27816001">
    <feGaussianBlur
       stdDeviation="2.318"
       id="feGaussianBlur2" />
  </filter>
  <linearGradient
     id="b"
     gradientUnits="userSpaceOnUse"
     x1="100.162"
     x2="101.678"
     y1="53.658"
     y2="226.219">
    <stop
       offset="0"
       stop-opacity="0"
       id="stop5" />
    <stop
       offset=".528"
       stop-color="#bd750f"
       id="stop7" />
    <stop
       offset="1"
       stop-color="#ad6b0e"
       id="stop9" />
  </linearGradient>
  <filter
     id="a"
     color-interpolation-filters="sRGB"
     height="1.125333"
     width="1.0936"
     x="-0.046800001"
     y="-0.07853302">
    <feGaussianBlur
       in="SourceGraphic"
       result="blur"
       stdDeviation="3.9"
       id="feGaussianBlur12" />
    <feDiffuseLighting
       result="diffuse"
       surfaceScale="10"
       id="feDiffuseLighting16">
      <feDistantLight
         azimuth="228"
         elevation="15"
         id="feDistantLight14" />
    </feDiffuseLighting>
    <feComposite
       in="diffuse"
       in2="diffuse"
       k1="1"
       operator="arithmetic"
       result="composite1"
       id="feComposite18" />
    <feComposite
       in="composite1"
       in2="SourceGraphic"
       k1="1"
       k3="1"
       operator="arithmetic"
       result="composite2"
       id="feComposite20" />
  </filter>
  <linearGradient
     id="d"
     gradientUnits="userSpaceOnUse"
     x1="117.481"
     x2="114.009"
     y1="-244.918"
     y2="-130.322">
    <stop
       offset="0"
       stop-color="#fff"
       id="stop23" />
    <stop
       offset=".197"
       stop-color="#fff"
       id="stop25" />
    <stop
       offset=".829"
       stop-color="#626262"
       stop-opacity="0"
       id="stop27" />
    <stop
       offset="1"
       stop-opacity="0"
       id="stop29" />
  </linearGradient>
  <filter
     id="c"
     color-interpolation-filters="sRGB"
     height="1.05343"
     width="1.048634"
     x="-0.024316997"
     y="-0.026714978">
    <feGaussianBlur
       stdDeviation="1.917"
       id="feGaussianBlur32" />
  </filter>
  <filter
     id="e"
     color-interpolation-filters="sRGB"
     height="1.2518484"
     width="1.1836587"
     x="-0.091829373"
     y="-0.12592421">
    <feGaussianBlur
       stdDeviation="4.519"
       id="feGaussianBlur35" />
  </filter>
  <g
     stroke-width=".489"
     id="g40">
    <path
       d="M247.121 130.79H224.57v-2.09h6.765V97.1h-5.763v-2.09h5.62c1.123 0 2.527-.064 4.21-.196s3.46-.326 5.33-.587l.043 34.475h6.346zM230.333 76.62c0-1.465.475-2.706 1.43-3.722.951-1.015 2.138-1.523 3.56-1.523 1.393 0 2.58.508 3.56 1.523s1.47 2.257 1.47 3.722-.49 2.7-1.47 3.7-2.167 1.502-3.56 1.502c-1.422 0-2.61-.5-3.56-1.502-.955-1-1.43-2.236-1.43-3.7zM271.167 130.79h-20.924v-2.09h6.013V97.1h-6.013v-2.09h5.667c1.12 0 2.513-.064 4.181-.196s3.45-.326 5.346-.587v8.211h.814c1.668-2.827 3.508-4.901 5.521-6.224s4.326-1.985 6.944-1.985c3.592 0 6.302.888 8.129 2.66 1.824 1.774 2.738 4.417 2.738 7.935V128.703h5.513v2.09h-20.297v-2.09h5.262v-25.589c0-2.219-.309-3.708-.926-4.475-.617-.763-1.712-1.147-3.29-1.147-2.551 0-4.887 1.433-7.01 4.295-2.123 2.865-3.183 6.095-3.183 9.693v17.223h5.513v2.087zM331.016 119.299h2.157c-1.038 4.19-2.885 7.37-5.547 9.542-2.66 2.169-6.062 3.255-10.205 3.255-4.803 0-8.79-1.742-11.954-5.228s-4.745-7.814-4.745-12.99c0-5.622 1.724-10.304 5.178-14.044 3.452-3.738 7.824-5.61 13.119-5.61 3.884 0 6.99.884 9.319 2.65s3.496 4.128 3.496 7.086c0 1.467-.417 2.65-1.25 3.546s-1.957 1.346-3.367 1.346c-1.467 0-2.64-.441-3.518-1.325s-1.315-2.046-1.315-3.483c0-1.318.38-2.484 1.143-3.506.762-1.018 1.142-1.573 1.142-1.663 0-.809-.467-1.438-1.4-1.885-.937-.449-2.238-.675-3.906-.675-2.934 0-5.061.936-6.386 2.81s-1.983 4.892-1.983 9.054v13.405c0 2.72.676 4.783 2.029 6.187 1.35 1.404 3.35 2.106 5.996 2.106 2.704 0 5.191-1.007 7.465-3.023 2.273-2.019 3.782-4.536 4.532-7.555zM338.866 130.79v-2.09h6.014V97.1h-6.014v-2.09h5.667c1.097 0 2.488-.064 4.178-.196a89.307 89.307 0 0 0 5.348-.587l.044 8.947h.692c1.459-2.999 3.175-5.238 5.147-6.722s4.218-2.225 6.734-2.225c1.944 0 3.494.533 4.653 1.596 1.158 1.066 1.738 2.495 1.738 4.294 0 1.53-.41 2.758-1.223 3.688s-1.895 1.393-3.238 1.393c-1.631 0-2.862-.36-3.692-1.078s-1.243-1.784-1.243-3.19v-.811c0-.629-.072-1.093-.214-1.394-.143-.298-.357-.449-.642-.449-2.033 0-3.965 1.385-5.795 4.154s-2.745 5.798-2.745 9.093v17.18h7.768v2.09h-23.177zM408.718 119.299h2.12c-1.093 4.222-2.988 7.41-5.688 9.565-2.7 2.152-6.144 3.232-10.335 3.232-4.824 0-8.853-1.742-12.082-5.228s-4.845-7.753-4.845-12.81c0-5.413 1.65-10.07 4.953-13.976 3.302-3.902 7.295-5.856 11.976-5.856 4.592 0 8.41 1.483 11.456 4.446 3.045 2.965 4.566 6.692 4.566 11.185v.825h-22.551v10.904c0 2.51.703 4.52 2.108 6.03s3.284 2.263 5.635 2.263c2.955 0 5.58-.955 7.874-2.868 2.29-1.916 3.895-4.484 4.813-7.712zm-7.78-11.23v-4.92c0-2.293-.515-3.984-1.545-5.072s-2.618-1.632-4.76-1.632c-2.12 0-3.707.56-4.764 1.678s-1.585 2.793-1.585 5.027v4.918zM454.87 128.7h5.64v2.09h-5.64c-1.088 0-2.461.073-4.119.226-1.66.148-3.418.343-5.278.583v-5.006h-1.249c-1.355 1.849-2.895 3.228-4.623 4.137-1.728.91-3.688 1.364-5.877 1.364-4.464 0-8.237-1.81-11.318-5.43s-4.623-8.122-4.623-13.506c0-5.443 1.568-9.96 4.71-13.55 3.138-3.59 7.057-5.384 11.75-5.384 2.103 0 3.953.437 5.553 1.308 1.598.873 3.133 2.286 4.6 4.237h1.077V71.37h-5.64v-2.09h5.554c1.116 0 2.51-.083 4.183-.252 1.672-.17 3.44-.39 5.3-.66zm-9.483-11.033v-9.733c0-2.958-1.085-5.658-3.25-8.094-2.167-2.436-4.552-3.656-7.15-3.656-2.484 0-4.238.777-5.264 2.331s-1.54 4.457-1.54 8.7v12.83c0 3.501.49 6.036 1.472 7.607s2.555 2.355 4.722 2.355c3.005 0 5.591-1.16 7.758-3.477 2.165-2.317 3.25-5.211 3.25-8.681v-.182zM486.806 130.79h-22.552v-2.09h6.766V97.1h-5.764v-2.09h5.621c1.123 0 2.526-.064 4.21-.196s3.46-.326 5.33-.587l.042 34.475h6.347zM470.017 76.62c0-1.465.475-2.706 1.43-3.722.952-1.015 2.138-1.523 3.56-1.523 1.393 0 2.58.508 3.56 1.523s1.471 2.257 1.471 3.722-.49 2.7-1.471 3.7-2.167 1.502-3.56 1.502c-1.422 0-2.61-.5-3.56-1.502-.953-1-1.43-2.236-1.43-3.7zM505.304 131.509l-5.67-.541h-.215c-2.045-.121-4.288-.18-6.73-.18-.288 0-.733.015-1.337.044a31.27 31.27 0 0 1-1.423.044v-2.18h6.014V71.369h-6.014v-2.09h5.667c1.117 0 2.512-.083 4.188-.252s3.443-.39 5.304-.66v31.401h1.259c1.5-1.983 3.035-3.404 4.604-4.26s3.408-1.285 5.515-1.285c4.699 0 8.634 1.795 11.805 5.384 3.171 3.592 4.757 8.107 4.757 13.55 0 5.355-1.558 9.85-4.67 13.483-3.114 3.635-6.905 5.45-11.373 5.45-2.191 0-4.135-.455-5.837-1.364s-3.244-2.29-4.627-4.137h-1.215v4.921zm0-13.842c0 3.502 1.099 6.43 3.3 8.794s4.805 3.544 7.816 3.544c2.052 0 3.602-.755 4.642-2.267 1.043-1.511 1.564-3.79 1.564-6.843v-13.679c0-4.244-.523-7.146-1.564-8.7s-2.806-2.332-5.296-2.332c-2.576 0-4.965 1.22-7.164 3.656s-3.3 5.136-3.3 8.094v9.733zM544.793 71.372h-6.766v-2.09h6.594c1.12 0 2.53-.083 4.223-.252s3.476-.39 5.345-.66v60.33h6.39v2.09h-22.552v-2.09h6.766zM595.285 119.299h2.119c-1.093 4.222-2.987 7.41-5.687 9.565-2.7 2.152-6.144 3.232-10.336 3.232-4.823 0-8.852-1.742-12.082-5.228s-4.845-7.753-4.845-12.81c0-5.413 1.65-10.07 4.953-13.976 3.302-3.902 7.295-5.856 11.976-5.856 4.592 0 8.411 1.483 11.456 4.446 3.045 2.965 4.567 6.692 4.567 11.185v.825h-22.552v10.904c0 2.51.704 4.52 2.109 6.03s3.283 2.263 5.635 2.263c2.955 0 5.579-.955 7.874-2.868 2.29-1.916 3.895-4.484 4.813-7.712zm-7.78-11.23v-4.92c0-2.293-.515-3.984-1.546-5.072s-2.618-1.632-4.76-1.632c-2.12 0-3.707.56-4.763 1.678s-1.586 2.793-1.586 5.027v4.918z"
       id="path38" />
  </g>
  <g
     stroke-width=".499"
     id="g44">
    <path
       d="M309.94 171.623v-23.706h-8.892v-3.19H322.4v3.19h-8.892v23.706zM326.262 171.623v-26.896h19.473v3.19h-15.904v8.194h14.903v3.19H329.83v9.134h16.53v3.19h-20.099zM370.496 162.178l3.569.894c-.75 2.923-2.096 5.15-4.041 6.686s-4.324 2.301-7.133 2.301c-2.91 0-5.274-.59-7.097-1.77s-3.21-2.883-4.16-5.119-1.426-4.633-1.426-7.2c0-2.795.537-5.235 1.613-7.317 1.073-2.081 2.602-3.665 4.588-4.745s4.167-1.622 6.55-1.622c2.703 0 4.973.685 6.816 2.054 1.842 1.37 3.126 3.296 3.851 5.78l-3.506.823c-.627-1.95-1.537-3.369-2.727-4.257s-2.691-1.335-4.496-1.335c-2.076 0-3.811.492-5.206 1.479s-2.374 2.312-2.94 3.975-.847 3.378-.847 5.146c0 2.28.335 4.267 1.002 5.966s1.707 2.97 3.118 3.811 2.937 1.26 4.582 1.26c1.998 0 3.69-.572 5.077-1.716 1.385-1.141 2.323-2.84 2.813-5.094zM378.617 171.623v-26.896h3.569v11.008h13.963v-11.008h3.569v26.896h-3.569v-12.698h-13.963v12.698zM405.646 171.623v-26.896h3.683l14.162 21.112v-21.112h3.444v26.896h-3.683l-14.161-21.114v21.114zM431.736 158.531c0-4.455 1.204-7.942 3.614-10.462s5.522-3.78 9.333-3.78c2.497 0 4.747.59 6.75 1.775s3.533 2.834 4.585 4.951c1.05 2.12 1.577 4.52 1.577 7.206 0 2.72-.553 5.156-1.661 7.303s-2.675 3.775-4.705 4.88-4.215 1.657-6.564 1.657c-2.546 0-4.82-.61-6.824-1.831a11.777 11.777 0 0 1-4.556-4.998 15.048 15.048 0 0 1-1.55-6.7zm3.695.044c0 3.23.875 5.774 2.626 7.632s3.95 2.788 6.59 2.788c2.693 0 4.907-.94 6.646-2.816 1.738-1.878 2.61-4.54 2.61-7.986 0-2.182-.374-4.085-1.117-5.712s-1.831-2.887-3.264-3.783-3.04-1.343-4.819-1.343c-2.532 0-4.712.862-6.535 2.586-1.826 1.723-2.737 4.601-2.737 8.634zM462.053 171.62v-26.895h3.568v23.706h13.337v3.19zM482.011 158.531c0-4.455 1.204-7.942 3.615-10.464 2.41-2.52 5.522-3.78 9.333-3.78 2.496 0 4.746.592 6.75 1.777s3.533 2.834 4.584 4.951c1.05 2.12 1.577 4.52 1.577 7.206 0 2.72-.553 5.156-1.66 7.303s-2.676 3.775-4.705 4.88-4.216 1.655-6.564 1.655c-2.547 0-4.821-.61-6.825-1.83-2.005-1.218-3.524-2.885-4.556-4.997s-1.549-4.347-1.549-6.7zm3.695.044c0 3.229.876 5.774 2.627 7.632 1.75 1.86 3.949 2.788 6.59 2.788 2.693 0 4.907-.939 6.646-2.814 1.737-1.878 2.609-4.54 2.609-7.986 0-2.182-.373-4.085-1.116-5.712s-1.832-2.887-3.264-3.783-3.04-1.345-4.82-1.345c-2.532 0-4.712.864-6.535 2.588-1.825 1.72-2.737 4.6-2.737 8.632zM525.102 161.113v-3.19h11.396v9.95c-1.753 1.388-3.558 2.435-5.422 3.133a16.124 16.124 0 0 1-5.732 1.051c-2.647 0-5.051-.564-7.215-1.695s-3.797-2.762-4.897-4.9c-1.104-2.135-1.653-4.523-1.653-7.161 0-2.614.547-5.052 1.643-7.318s2.673-3.949 4.73-5.045c2.056-1.1 4.427-1.65 7.11-1.65 1.947 0 3.708.317 5.283.947 1.573.63 2.805 1.511 3.7 2.636.895 1.127 1.576 2.598 2.043 4.41l-3.284.88c-.403-1.369-.904-2.444-1.501-3.224s-1.45-1.407-2.557-1.878c-1.11-.468-2.34-.706-3.692-.706-1.623 0-3.024.248-4.206.742s-2.136 1.145-2.861 1.952a9.27 9.27 0 0 0-1.691 2.654c-.684 1.659-1.024 3.46-1.024 5.402 0 2.392.41 4.393 1.232 6.006.821 1.611 2.02 2.806 3.593 3.589 1.57.783 3.241 1.17 5.009 1.17 1.534 0 3.033-.291 4.496-.882 1.46-.59 2.57-1.219 3.326-1.89v-4.981h-7.826zM542.395 171.62v-26.895h3.569v26.896zM552.425 171.62v-26.895H571.9v3.19h-15.905v8.194h14.903v3.19h-14.903v9.134h16.53v3.19h-20.099zM576.249 162.988l3.382-.312c.158 1.345.529 2.448 1.108 3.307.579.862 1.478 1.557 2.7 2.09s2.593.794 4.12.794c1.355 0 2.549-.202 3.587-.605s1.809-.956 2.316-1.657.76-1.465.76-2.294c0-.838-.25-1.57-.746-2.197s-1.306-1.151-2.43-1.577c-.72-.28-2.315-.715-4.781-1.305s-4.198-1.15-5.19-1.678c-1.288-.672-2.246-1.507-2.877-2.504s-.948-2.115-.948-3.35c0-1.36.385-2.628 1.159-3.807.77-1.18 1.897-2.077 3.38-2.69s3.13-.919 4.94-.919c1.996 0 3.758.323 5.282.967s2.697 1.593 3.517 2.846 1.262 2.672 1.322 4.255l-3.444.25c-.185-1.69-.802-2.968-1.86-3.832s-2.616-1.295-4.678-1.295c-2.15 0-3.715.392-4.699 1.179s-1.474 1.73-1.474 2.84c0 .963.348 1.755 1.044 2.376.683.622 2.466 1.259 5.355 1.909s4.875 1.22 5.957 1.71c1.573.718 2.735 1.629 3.487 2.731.749 1.105 1.126 2.376 1.126 3.811 0 1.427-.41 2.772-1.229 4.033s-1.997 2.242-3.532 2.944c-1.537.701-3.264 1.05-5.186 1.05-2.434 0-4.472-.355-6.119-1.06-1.645-.708-2.937-1.77-3.873-3.192-.933-1.419-1.426-3.024-1.476-4.818z"
       id="path42" />
  </g>
  <g
     filter="url(#a)"
     transform="translate(-4.828 236.872)"
     id="g58">
    <circle
       cx="114.188"
       cy="-121.165"
       fill="#f6e707"
       r="100"
       id="circle46" />
    <path
       d="M100.338 51.447a94.6 86.108 0 0 0-94.6 86.108 94.6 86.108 0 0 0 94.6 86.11 94.6 86.108 0 0 0 94.601-86.11 94.6 86.108 0 0 0-94.601-86.108zm-.176 2.211a58.88 43.587 0 0 1 58.879 43.586 58.88 43.587 0 0 1-58.879 43.588 58.88 43.587 0 0 1-58.879-43.588 58.88 43.587 0 0 1 58.88-43.586z"
       fill="url(#b)"
       filter="url(#c)"
       opacity=".625"
       transform="translate(13.847 -271.153)"
       id="path48" />
    <ellipse
       cx="113.51"
       cy="-173.602"
       fill="url(#d)"
       filter="url(#e)"
       rx="59.053"
       ry="43.064"
       id="ellipse50" />
    <ellipse
       cx="113.937"
       cy="-124.517"
       fill="none"
       rx="93.804"
       ry="93.803"
       stroke="#ad6b0e"
       stroke-linecap="round"
       stroke-linejoin="round"
       stroke-width="5"
       id="ellipse52" />
    <circle
       cx="55.728"
       cy="-172.549"
       fill="#fff"
       fill-opacity=".761"
       filter="url(#f)"
       r="10"
       transform="matrix(1.25 0 0 1.25 -13.27 44.48)"
       id="circle54" />
    <path
       d="m160.438-116.435-13.318.018-.014 42.482c.014 1.503-.03 4.55 2.45 3.018 5.166-3.44 7.46-15.585 8.25-17.872l2.968 1.06c-3.421 12.142-6.614 28.514-22.781 30.545h-22.5v-3.486h5.761c-2.46-2.006-4.686-4.478-5.76-7.227v-69.964c15.039-4.844 27.254-19.326 31.613-34.218l.013 51.171h13.319v4.473zm-44.945 59.251H68.73v-3.501h8.449l.015-75.846a56.186 56.186 0 0 0 17.527 2.799c2.927 0 5.798-.225 8.606-.648 2.273-.243 4.425-1.008 6.376-1.42l.02 14.891h5.06v-16.731a6.9 6.9 0 0 0 .71-.221v69.964a9.313 9.313 0 0 1-.688-3.465l-.021-45.073h-5.06v55.765h5.768v3.486zM100.519-198.001c14.247 0 25.866 11.24 25.866 25.019 0 13.783-11.619 25.025-25.866 25.025-14.244 0-25.868-11.242-25.868-25.025 0-13.779 11.624-25.02 25.868-25.02z"
       id="path56" />
  </g>
  <path
     style="fill:#ffffff;fill-opacity:0.941176;stroke-width:0.217269"
     d="M 192.50025,99.835061 V 99.07462 h 2.38996 2.38995 V 86.798927 74.523234 h -2.38995 -2.38996 V 73.871427 73.21962 l 2.77018,-7.42e-4 c 2.58919,-6.93e-4 7.1499,-0.304913 8.25621,-0.550725 l 0.48886,-0.108618 v 3.154538 c 0,2.961425 0.0254,3.154539 0.41547,3.154539 0.26225,0 0.77956,-0.510233 1.40279,-1.383611 2.55903,-3.586159 5.69306,-5.161626 9.62258,-4.837235 3.28999,0.271596 5.57095,1.784901 6.61223,4.386903 0.51468,1.286099 0.51681,1.328313 0.58765,11.66536 l 0.0711,10.374591 h 2.05071 2.05071 v 0.760441 0.760439 h -7.71304 -7.71305 V 99.835061 99.07462 h 2.06406 2.06405 l -0.005,-10.591859 c -0.003,-5.825523 -0.0938,-10.973898 -0.20211,-11.440833 -0.1083,-0.466936 -0.44714,-1.099193 -0.75296,-1.405016 -0.46724,-0.46724 -0.79959,-0.569804 -2.08101,-0.642211 -1.31447,-0.07427 -1.68786,-0.0065 -2.70513,0.491234 -1.48032,0.724255 -3.04462,2.414452 -4.10868,4.439355 -1.31129,2.495396 -1.43486,3.509955 -1.43913,11.816504 l -0.004,7.332826 h 2.17269 2.17269 v 0.760441 0.760439 h -8.03895 -8.03895 z"
     id="path918"
     transform="matrix(1.3000034,0,0,1.3000034,-4.3457925e-4,0)" />
  <path
     style="fill:#ffffff;fill-opacity:0.941176;stroke-width:0.217269"
     d="M 172.94605,99.835061 V 99.07462 h 2.60722 2.60723 V 86.798927 74.523234 h -2.28132 -2.28133 V 73.871427 73.21962 l 2.66155,-0.0019 c 2.58244,-0.0018 7.04222,-0.303695 8.25622,-0.558881 l 0.59748,-0.125594 V 85.803953 99.07462 h 2.38996 2.38996 v 0.760441 0.760439 h -8.47349 -8.47348 z"
     id="path957"
     transform="matrix(1.3000034,0,0,1.3000034,-4.3457925e-4,0)" />
  <path
     style="fill:#ffffff;fill-opacity:0.941176;stroke-width:0.217269"
     d="m 179.35548,62.384267 c -1.93197,-1.199897 -2.56312,-3.157251 -1.65543,-5.133911 0.71335,-1.553449 2.24076,-2.422085 3.83787,-2.182583 1.06776,0.16012 2.50643,1.284614 2.91955,2.281987 0.40996,0.989711 0.19585,3.040147 -0.40565,3.884881 -1.01857,1.430448 -3.33226,1.996821 -4.69634,1.149626 z"
     id="path996"
     transform="matrix(1.3000034,0,0,1.3000034,-4.3457925e-4,0)" />
  <path
     style="fill:#ffffff;fill-opacity:0.941176;stroke-width:0.217269"
     d="m 241.09134,101.12043 c -4.28414,-1.03709 -7.93315,-4.86449 -9.20042,-9.650222 -0.56447,-2.131702 -0.50565,-6.122184 0.12317,-8.355061 0.76158,-2.704313 1.83843,-4.544267 3.83464,-6.552063 1.34465,-1.352454 2.13925,-1.948525 3.41635,-2.562787 4.81916,-2.317924 10.97041,-1.697453 14.03532,1.41573 1.16274,1.181056 1.61768,2.272307 1.71112,4.104391 0.0715,1.401448 0.0127,1.750348 -0.4199,2.492836 -1.0234,1.75649 -3.68807,2.130881 -5.27146,0.74065 -1.47074,-1.291329 -1.56113,-3.264037 -0.24712,-5.392917 0.43241,-0.700553 0.7862,-1.421405 0.7862,-1.601892 0,-0.494292 -1.21558,-1.416925 -2.08063,-1.579209 -0.42032,-0.07885 -1.62196,-0.10236 -2.67031,-0.05224 -2.33741,0.111753 -3.62484,0.752899 -4.60023,2.290937 -1.18152,1.863066 -1.32315,3.210578 -1.25113,11.90445 0.0629,7.59294 0.0786,7.844416 0.54612,8.718502 0.68384,1.278649 2.06088,2.382629 3.36098,2.694516 1.81494,0.435399 4.26242,0.178698 5.86639,-0.615294 2.3362,-1.156457 4.39682,-3.516015 5.30566,-6.075352 0.37413,-1.053555 0.45808,-1.140661 1.09933,-1.140661 0.65556,0 0.68439,0.03332 0.51688,0.597489 -1.73243,5.834665 -5.87408,8.988347 -11.74205,8.941037 -1.01574,-0.008 -2.41924,-0.15347 -3.11891,-0.32284 z"
     id="path1035"
     transform="matrix(1.3000034,0,0,1.3000034,-4.3457925e-4,0)" />
  <path
     style="fill:#ffffff;fill-opacity:0.941176;stroke-width:0.217269"
     d="M 260.72268,99.835061 V 99.07462 h 2.38996 2.38996 V 86.798927 74.523234 h -2.38996 -2.38996 V 73.871427 73.21962 l 2.66155,-0.0019 c 2.58244,-0.0018 7.04222,-0.303695 8.25622,-0.558881 l 0.59748,-0.125594 v 3.493566 c 0,3.182556 0.0338,3.493519 0.38023,3.493049 0.24245,-3.26e-4 0.61546,-0.452975 1.02948,-1.249296 0.36058,-0.693532 1.37493,-1.983673 2.28132,-2.901588 1.2853,-1.301637 1.90253,-1.752959 2.90502,-2.124177 4.38891,-1.62518 7.94709,0.05518 7.9574,3.757896 0.007,2.537418 -1.49986,3.996009 -3.87514,3.750859 -2.02279,-0.20877 -3.07292,-1.422807 -3.07356,-3.553299 -4.4e-4,-1.495785 -0.33493,-1.83307 -1.54763,-1.560594 -1.64559,0.36974 -3.3311,2.008848 -4.49329,4.369595 -1.27602,2.591956 -1.34656,3.194711 -1.34656,11.506558 v 7.558764 h 2.93313 2.93313 v 0.760441 0.760441 h -8.79939 -8.79939 z"
     id="path1074"
     transform="matrix(1.3000034,0,0,1.3000034,-4.3457925e-4,0)" />
  <path
     style="fill:#ffffff;fill-opacity:0.941176;stroke-width:0.217269"
     d="m 301.02606,101.24299 c -4.53917,-0.90866 -8.48705,-4.857727 -9.78837,-9.791305 -0.49053,-1.859719 -0.48859,-5.66068 0.004,-7.694523 0.20256,-0.836485 0.8158,-2.437725 1.36275,-3.55831 0.80507,-1.649416 1.3293,-2.375693 2.75266,-3.81363 1.96011,-1.980175 3.59864,-2.96446 5.7979,-3.482862 5.02127,-1.183596 10.71503,1.239076 13.22586,5.627546 0.75886,1.326353 1.5282,4.084785 1.5282,5.47928 v 0.942955 h -8.71049 -8.71049 l 0.0774,5.268771 c 0.0848,5.772463 0.18747,6.286886 1.58455,7.939842 1.11741,1.322072 2.10161,1.674307 4.67831,1.674307 2.11807,0 2.38686,-0.04999 3.75606,-0.698533 2.09139,-0.990622 3.85998,-2.746707 4.94056,-4.905649 0.47477,-0.948554 0.86321,-1.859979 0.86321,-2.025389 0,-0.197967 0.25588,-0.300744 0.74874,-0.300744 h 0.74874 l -0.41302,1.200475 c -1.87338,5.445059 -6.03608,8.407939 -11.71107,8.335549 -1.02649,-0.0131 -2.25743,-0.10209 -2.73543,-0.19778 z m 7.49578,-20.596793 c 0,-3.169646 -0.34685,-4.506579 -1.41174,-5.441565 -0.97388,-0.855084 -2.24886,-1.189719 -4.04778,-1.0624 -1.97823,0.140008 -3.14502,0.807587 -3.86623,2.212075 -0.48899,0.952241 -0.55913,1.390711 -0.63437,3.965158 l -0.0846,2.894525 h 5.02235 5.02235 z"
     id="path1113"
     transform="matrix(1.3000034,0,0,1.3000034,-4.3457925e-4,0)" />
  <path
     style="fill:#ffffff;fill-opacity:0.941176;stroke-width:0.217269"
     d="m 330.8327,101.13831 c -4.14839,-1.140363 -7.68201,-5.100821 -8.83227,-9.899152 -0.5971,-2.49083 -0.60052,-6.026675 -0.008,-8.370635 1.35572,-5.363863 5.2478,-9.2828 10.0183,-10.08745 3.49209,-0.589016 6.20107,0.271763 8.56913,2.722841 0.82232,0.851142 1.54156,1.409277 1.81605,1.409277 h 0.4545 V 65.832477 54.751763 h -2.17269 -2.17269 V 54.099957 53.44815 l 2.44428,-0.0023 c 1.34435,-0.0013 3.81306,-0.147756 5.48603,-0.325503 1.67298,-0.177748 3.1151,-0.323358 3.20472,-0.323578 0.0896,-2.2e-4 0.16295,10.412212 0.16295,23.138738 V 99.07462 h 2.17269 2.17269 v 0.732081 0.732079 l -4.7256,0.1384 c -2.59908,0.0761 -5.14112,0.19692 -5.64899,0.26845 l -0.92339,0.13005 v -1.869604 -1.869608 h -0.60865 c -0.44191,0 -0.87344,0.278076 -1.5752,1.015048 -1.41192,1.482758 -2.49105,2.194084 -4.06702,2.680854 -1.62456,0.50178 -4.15751,0.54831 -5.76676,0.10594 z m 6.32003,-1.63166 c 2.50977,-1.106129 4.28231,-3.083806 5.06065,-5.64631 0.41094,-1.352956 0.44067,-1.926711 0.3785,-7.306597 l -0.0675,-5.838346 -0.69853,-1.474734 c -0.88512,-1.868658 -2.76487,-3.867154 -4.3864,-4.66349 -1.01857,-0.500222 -1.4979,-0.597112 -2.95401,-0.597112 -2.22514,0 -3.41666,0.589864 -4.16938,2.064055 -0.79325,1.553564 -0.93731,2.776016 -1.07535,9.125294 -0.24191,11.127372 0.38172,13.828166 3.40588,14.749916 1.06443,0.324434 3.29768,0.119914 4.5061,-0.412676 z"
     id="path1152"
     transform="matrix(1.3000034,0,0,1.3000034,-4.3457925e-4,0)" />
  <path
     style="fill:#ffffff;fill-opacity:0.941176;stroke-width:0.217269"
     d="M 357.19008,99.835061 V 99.07462 h 2.60722 2.60723 V 86.798927 74.523234 h -2.17269 -2.17269 V 73.871427 73.21962 l 2.66155,-7.42e-4 c 2.49986,-6.98e-4 7.05908,-0.308871 8.14758,-0.550725 l 0.48885,-0.108618 v 7.355983 c 0,4.045791 0.0646,10.011685 0.14355,13.257542 l 0.14354,5.90156 h 2.35505 2.35505 v 0.760441 0.760439 h -8.58212 -8.58212 z"
     id="path1191"
     transform="matrix(1.3000034,0,0,1.3000034,-4.3457925e-4,0)" />
  <path
     style="fill:#ffffff;fill-opacity:0.941176;stroke-width:0.217269"
     d="m 363.74717,62.42532 c -1.17807,-0.580531 -1.84691,-1.652847 -1.95395,-3.132657 -0.11359,-1.570378 0.18165,-2.343038 1.27159,-3.327725 1.84513,-1.666972 4.59739,-1.04263 5.66643,1.285418 1.51356,3.296071 -1.80488,6.741609 -4.98407,5.174964 z"
     id="path1230"
     transform="matrix(1.3000034,0,0,1.3000034,-4.3457925e-4,0)" />
  <path
     style="fill:#ffffff;fill-opacity:0.941176;stroke-width:0.217269"
     d="m 238.56125,122.75693 v -9.12529 h -3.4763 -3.4763 v -1.08635 -1.08634 h 8.14758 8.14759 v 1.08634 1.08635 h -3.4763 -3.47631 v 9.12529 9.12529 h -1.19498 -1.19498 z"
     id="path1269"
     transform="matrix(1.3000034,0,0,1.3000034,-4.3457925e-4,0)" />
  <path
     style="fill:#ffffff;fill-opacity:0.941176;stroke-width:0.217269"
     d="m 251.16285,121.67059 v -10.21164 h 7.38714 7.38715 v 1.08634 1.08635 h -6.19217 -6.19216 v 3.25903 3.25903 h 5.75763 5.75762 v 1.19498 1.19498 h -5.75762 -5.75763 v 3.58494 3.58493 h 6.40943 6.40943 v 1.08635 1.08634 h -7.60441 -7.60441 z"
     id="path1308"
     transform="matrix(1.3000034,0,0,1.3000034,-4.3457925e-4,0)" />
  <path
     style="fill:#ffffff;fill-opacity:0.941176;stroke-width:0.217269"
     d="m 277.01785,132.07217 c -4.60231,-0.74635 -7.45239,-4.80381 -7.45898,-10.61885 -0.004,-3.46494 0.96646,-5.90757 3.15002,-7.92916 3.46387,-3.20694 9.57966,-3.2149 12.52801,-0.0163 0.9373,1.01684 2.11531,3.11526 1.8806,3.34996 -0.0777,0.0777 -0.61781,0.24854 -1.20033,0.37974 l -1.05913,0.23853 -0.56624,-1.15734 c -1.08613,-2.21997 -3.22157,-3.30745 -5.94652,-3.02827 -1.82953,0.18744 -3.02379,0.72553 -4.12212,1.85729 -1.55151,1.59873 -2.26466,4.50609 -1.95494,7.96989 0.29706,3.3221 1.31,5.06852 3.59119,6.19155 1.24811,0.61444 1.71004,0.72624 3.00066,0.72624 0.94794,0 1.90854,-0.14784 2.53737,-0.39051 1.35527,-0.52302 2.83416,-2.12572 3.32493,-3.60328 0.35037,-1.0549 0.42507,-1.13639 0.92629,-1.01059 0.29985,0.0753 0.82709,0.19321 1.17164,0.26212 0.81303,0.16261 0.80696,0.59488 -0.0317,2.25629 -0.87951,1.74229 -1.89851,2.82641 -3.41163,3.62966 -1.93838,1.029 -3.85821,1.29861 -6.3591,0.89304 z"
     id="path1347"
     transform="matrix(1.3000034,0,0,1.3000034,-4.3457925e-4,0)" />
  <path
     style="fill:#ffffff;fill-opacity:0.941176;stroke-width:0.217269"
     d="m 291.3576,121.67059 v -10.21164 h 1.30361 1.30361 v 4.23674 4.23674 h 5.43173 5.43172 v -4.23674 -4.23674 h 1.30361 1.30362 v 10.21164 10.21163 h -1.30362 -1.30361 v -4.88855 -4.88855 h -5.43172 -5.43173 v 4.88855 4.88855 h -1.30361 -1.30361 z"
     id="path1386"
     transform="matrix(1.3000034,0,0,1.3000034,-4.3457925e-4,0)" />
  <path
     style="fill:#ffffff;fill-opacity:0.941176;stroke-width:0.217269"
     d="m 312.21541,121.67059 v -10.21164 h 1.30218 1.30218 l 5.48747,8.2019 5.48748,8.2019 0.0569,-8.2019 0.0569,-8.2019 h 1.19237 1.19236 v 10.21164 10.21163 l -1.35793,-0.006 -1.35793,-0.006 -5.43172,-8.17224 -5.43172,-8.17224 -0.0569,8.17792 -0.0569,8.17792 h -1.19237 -1.19237 z"
     id="path1425"
     transform="matrix(1.3000034,0,0,1.3000034,-4.3457925e-4,0)" />
  <path
     style="fill:#ffffff;fill-opacity:0.941176;stroke-width:0.217269"
     d="m 339.89303,132.00483 c -4.47607,-1.01229 -7.31937,-4.5433 -7.61924,-9.46212 -0.21495,-3.52568 0.82113,-6.57394 2.95821,-8.70341 2.10959,-2.10207 5.15281,-3.07284 8.20828,-2.6184 5.28579,0.78617 8.41154,4.76746 8.37472,10.66695 -0.0295,4.72548 -2.30479,8.26025 -6.23543,9.68699 -1.77887,0.6457 -3.9926,0.81309 -5.68654,0.42999 z m 5.20558,-2.5852 c 1.40519,-0.65221 2.6041,-1.85564 3.26716,-3.27949 0.65675,-1.4103 0.81703,-2.33924 0.80597,-4.67135 -0.0128,-2.6938 -0.59063,-4.43315 -1.97668,-5.94971 -1.43835,-1.57379 -2.81983,-2.18092 -4.99654,-2.19589 -2.11729,-0.0146 -3.5938,0.50019 -4.96121,1.72961 -1.25589,1.12915 -1.87776,2.43729 -2.22841,4.68756 -0.81933,5.25806 1.33111,9.28542 5.45147,10.20954 1.25871,0.28231 3.41984,0.0352 4.63824,-0.53027 z"
     id="path1464"
     transform="matrix(1.3000034,0,0,1.3000034,-4.3457925e-4,0)" />
  <path
     style="fill:#ffffff;fill-opacity:0.941176;stroke-width:0.217269"
     d="m 355.45192,121.67059 v -10.21164 h 1.30362 1.30361 v 9.12529 9.12529 h 5.10582 5.10582 v 1.08635 1.08634 h -6.40943 -6.40944 z"
     id="path1503"
     transform="matrix(1.3000034,0,0,1.3000034,-4.3457925e-4,0)" />
  <path
     style="fill:#ffffff;fill-opacity:0.941176;stroke-width:0.217269"
     d="m 394.75781,101.05255 c -1.4302,-0.45758 -2.75865,-1.338691 -4.09924,-2.718857 -0.59536,-0.612933 -1.16052,-0.997225 -1.46657,-0.997225 -0.48051,0 -0.49793,0.06546 -0.49793,1.870557 v 1.870555 l -0.81476,-0.12975 c -0.44812,-0.0714 -3.08794,-0.19368 -5.86626,-0.27181 l -5.0515,-0.14207 V 99.804285 99.07462 h 2.28132 2.28132 V 76.913191 54.751763 h -2.28132 -2.28132 V 54.099957 53.44815 l 2.55291,-0.0039 c 2.33,-0.0035 3.64586,-0.0986 7.60441,-0.549423 l 1.35793,-0.154651 v 12.086488 12.086487 h 0.46907 c 0.29383,0 0.97311,-0.526874 1.81829,-1.410329 2.34259,-2.448682 5.05454,-3.311765 8.55231,-2.721789 4.4657,0.753237 8.45534,4.517645 9.88299,9.325043 2.44566,8.235434 -1.68487,17.148244 -8.82848,19.049984 -1.56564,0.4168 -4.13494,0.3694 -5.61317,-0.10355 z m 3.86889,-1.143329 c 1.33533,-0.336241 2.529,-1.54126 3.02091,-3.049636 0.31595,-0.968804 0.39012,-2.27763 0.4651,-8.206477 0.10345,-8.180995 -0.0875,-10.585061 -0.98431,-12.391723 -0.84556,-1.703408 -1.9315,-2.281324 -4.28675,-2.281324 -1.46124,0 -1.93426,0.0963 -2.96908,0.604481 -1.53142,0.752051 -3.59501,2.907586 -4.44807,4.646248 l -0.6218,1.267338 -0.0676,5.861542 c -0.0447,3.876548 0.016,6.194238 0.17932,6.84397 0.80034,3.184095 3.44198,5.93732 6.38106,6.650588 1.4452,0.350722 2.11299,0.361752 3.33124,0.05499 z"
     id="path1542"
     transform="matrix(1.3000034,0,0,1.3000034,-4.3457925e-4,0)" />
  <path
     style="fill:#ffffff;fill-opacity:0.941176;stroke-width:0.217269"
     d="M 413.89726,99.835061 V 99.07462 h 2.60723 2.60722 V 76.913191 54.751763 h -2.60722 -2.60723 V 54.099957 53.44815 l 2.98745,-0.0039 c 2.72561,-0.0035 4.02595,-0.09239 8.03895,-0.549423 l 1.35793,-0.154651 V 75.907417 99.07462 h 2.38995 2.38996 v 0.760441 0.760439 h -8.58212 -8.58212 z"
     id="path1581"
     transform="matrix(1.3000034,0,0,1.3000034,-4.3457925e-4,0)" />
  <path
     style="fill:#ffffff;fill-opacity:0.941176;stroke-width:0.217269"
     d="m 444.15677,101.15239 c -4.04576,-0.98033 -7.60203,-4.393325 -9.12005,-8.752612 -0.52508,-1.507846 -0.58931,-2.006171 -0.59589,-4.623141 -0.005,-2.145592 0.0957,-3.312316 0.37652,-4.345378 1.29658,-4.769725 4.82526,-8.877516 8.80825,-10.25382 2.01703,-0.696974 5.58112,-0.684794 7.63362,0.02609 4.72212,1.6355 7.68933,5.425116 8.13576,10.390683 l 0.12209,1.357931 h -8.68743 -8.68742 v 5.097669 c 0,6.079764 0.17541,6.839999 1.94546,8.431426 1.23355,1.109069 2.24717,1.462459 4.1947,1.462459 3.99473,0 7.74205,-2.746726 9.23827,-6.771501 0.38685,-1.040594 0.50272,-1.165969 1.13583,-1.22895 0.67258,-0.06691 0.6985,-0.04191 0.56324,0.543173 -0.078,0.337319 -0.53458,1.418934 -1.01467,2.403588 -2.13808,4.385173 -5.86789,6.593703 -11.06565,6.552323 -1.01573,-0.008 -2.35792,-0.13856 -2.98263,-0.28994 z m 7.97551,-19.730869 c -0.0129,-5.371272 -1.05161,-7.033124 -4.55072,-7.280733 -1.90569,-0.134853 -3.17329,0.237954 -4.15831,1.222982 -1.04796,1.047953 -1.27836,1.98207 -1.27982,5.188676 l -0.001,2.661544 h 4.99718 4.99719 l -0.004,-1.792469 z"
     id="path1620"
     transform="matrix(1.3000034,0,0,1.3000034,-4.3457925e-4,0)" />
  <path
     style="fill:#ffffff;fill-opacity:0.941176;stroke-width:0.217269"
     d="m 449.88521,132.07777 c -1.58992,-0.23219 -3.49852,-1.09008 -4.44904,-1.99978 -0.92357,-0.88389 -1.74381,-2.48426 -1.91558,-3.73747 l -0.13382,-0.97636 h 1.17944 1.17945 l 0.27163,1.01559 c 0.18238,0.68188 0.5738,1.31776 1.19118,1.93515 1.21389,1.21389 2.77219,1.68457 5.22043,1.57682 3.02848,-0.13329 4.70487,-1.35306 4.70487,-3.42334 0,-2.04728 -1.01455,-2.78051 -5.42715,-3.92229 -3.97115,-1.02755 -4.93478,-1.43964 -6.10652,-2.61138 -0.81389,-0.81389 -1.07605,-1.26419 -1.28838,-2.21296 -0.51372,-2.29555 0.6651,-4.62314 2.88643,-5.6993 3.34854,-1.62225 8.00503,-1.0217 10.15391,1.30956 0.91493,0.99258 1.18344,1.5172 1.50186,2.93439 0.18426,0.8201 0.17376,0.84154 -0.41247,0.84154 -0.33086,0 -0.90709,0.0611 -1.28052,0.13579 -0.59317,0.11864 -0.67897,0.0764 -0.67897,-0.33456 0,-0.58982 -0.69028,-1.96269 -1.23412,-2.45449 -0.81413,-0.73622 -1.96211,-1.04031 -3.92731,-1.04031 -1.55903,0 -2.09476,0.0911 -2.87308,0.48885 -1.31082,0.6698 -1.81539,1.42065 -1.79645,2.67332 0.0278,1.83901 0.9617,2.39909 6.13739,3.6807 4.96669,1.22986 6.73833,2.77743 6.73322,5.88164 -0.005,3.09029 -2.24414,5.35815 -5.87105,5.94659 -1.58092,0.2565 -1.96159,0.25572 -3.76535,-0.008 z"
     id="path1659"
     transform="matrix(1.3000034,0,0,1.3000034,-4.3457925e-4,0)" />
  <path
     style="fill:#ffffff;fill-opacity:0.941176;stroke-width:0.217269"
     d="m 424.97797,121.67059 v -10.21164 h 7.38715 7.38714 v 1.08634 1.08635 h -6.08353 -6.08353 v 3.25903 3.25903 h 5.75763 5.75762 v 1.19498 1.19498 h -5.75762 -5.75763 v 3.58494 3.58493 h 6.40943 6.40944 v 1.08635 1.08634 h -7.71305 -7.71305 z"
     id="path1698"
     transform="matrix(1.3000034,0,0,1.3000034,-4.3457925e-4,0)" />
  <path
     style="fill:#ffffff;fill-opacity:0.941176;stroke-width:0.217269"
     d="m 417.37356,121.67059 v -10.21164 h 1.19498 1.19498 v 10.21164 10.21163 h -1.19498 -1.19498 z"
     id="path1737"
     transform="matrix(1.3000034,0,0,1.3000034,-4.3457925e-4,0)" />
  <path
     style="fill:#ffffff;fill-opacity:0.941176;stroke-width:0.217269"
     d="m 402.15122,132.09717 c -5.24258,-0.82046 -8.45997,-4.74446 -8.45997,-10.31795 0,-4.45624 2.0296,-8.08521 5.38749,-9.63296 3.65685,-1.68555 8.37218,-1.2416 10.96174,1.03206 0.74541,0.65448 2.11863,3.00615 2.11863,3.62821 0,0.26826 -1.26825,0.74014 -1.95542,0.72755 -0.18503,-0.003 -0.57814,-0.5646 -0.90945,-1.29834 -0.45954,-1.01775 -0.80002,-1.42966 -1.60232,-1.93846 -2.73831,-1.73658 -6.86985,-1.30673 -9.12607,0.94948 -1.70173,1.70173 -2.14208,3.02228 -2.14208,6.42383 0,2.28652 0.0753,2.90477 0.47612,3.91084 0.68744,1.72537 1.58806,2.69856 3.25828,3.52081 1.3793,0.67903 1.57823,0.71593 3.85935,0.71593 2.37316,0 2.42802,-0.0115 4.13268,-0.86908 l 1.72758,-0.86907 0.0622,-2.11837 0.0622,-2.11838 h -2.94099 -2.941 v -1.08634 -1.08634 h 4.23674 4.23675 v 3.68313 3.68313 l -0.9234,0.63302 c -2.98898,2.04905 -6.39172,2.91673 -9.51903,2.4273 z"
     id="path1776"
     transform="matrix(1.3000034,0,0,1.3000034,-4.3457925e-4,0)" />
  <path
     style="fill:#ffffff;fill-opacity:0.941176;stroke-width:0.217269"
     d="m 378.56689,132.00483 c -4.4583,-1.00827 -7.32002,-4.56329 -7.61927,-9.46517 -0.21502,-3.52214 0.82182,-6.57154 2.95825,-8.70036 2.10958,-2.10207 5.15281,-3.07284 8.20828,-2.6184 5.28844,0.78656 8.41736,4.77426 8.36972,10.66695 -0.0384,4.74406 -2.2999,8.26028 -6.23044,9.68699 -1.77886,0.6457 -3.9926,0.81309 -5.68654,0.42999 z m 5.20558,-2.5852 c 1.42787,-0.66273 2.59838,-1.85242 3.33349,-3.38813 0.49837,-1.04114 0.59288,-1.56541 0.67543,-3.74688 0.12839,-3.39297 -0.33709,-5.04183 -1.90885,-6.76159 -1.4422,-1.578 -2.82158,-2.18486 -5.00015,-2.19984 -2.11729,-0.0146 -3.5938,0.50019 -4.96122,1.72961 -1.25588,1.12915 -1.87776,2.43729 -2.2284,4.68756 -0.81934,5.25806 1.3311,9.28542 5.45146,10.20954 1.25872,0.28231 3.41984,0.0352 4.63824,-0.53027 z"
     id="path1815"
     transform="matrix(1.3000034,0,0,1.3000034,-4.3457925e-4,0)" />
</svg>
