<?xml version="1.0" encoding="UTF-8" standalone="no"?>
<svg
   height="173.12842"
   viewBox="0 0 597.66357 225.06694"
   width="459.74121"
   version="1.1"
   id="svg104"
   sodipodi:docname="incredibletech.svg"
   inkscape:version="1.1 (c68e22c387, 2021-05-23)"
   xmlns:inkscape="http://www.inkscape.org/namespaces/inkscape"
   xmlns:sodipodi="http://sodipodi.sourceforge.net/DTD/sodipodi-0.dtd"
   xmlns="http://www.w3.org/2000/svg"
   xmlns:svg="http://www.w3.org/2000/svg">
  <defs
     id="defs108" />
  <sodipodi:namedview
     id="namedview106"
     pagecolor="#ffffff"
     bordercolor="#666666"
     borderopacity="1.0"
     inkscape:pageshadow="2"
     inkscape:pageopacity="0.0"
     inkscape:pagecheckerboard="0"
     showgrid="false"
     inkscape:zoom="6.0662378"
     inkscape:cx="256.74892"
     inkscape:cy="86.627003"
     inkscape:window-width="1366"
     inkscape:window-height="705"
     inkscape:window-x="-8"
     inkscape:window-y="-8"
     inkscape:window-maximized="1"
     inkscape:current-layer="svg104" />
  <filter
     id="a"
     color-interpolation-filters="sRGB"
     height="1.5563289"
     width="1.5563289"
     x="-0.27816444"
     y="-0.27816444">
    <feGaussianBlur
       stdDeviation="2.3180371"
       id="feGaussianBlur2" />
  </filter>
  <linearGradient
     id="b"
     gradientUnits="userSpaceOnUse"
     x1="100.161798"
     x2="101.678008"
     y1="53.65821"
     y2="226.219275">
    <stop
       offset="0"
       stop-opacity="0"
       id="stop5" />
    <stop
       offset=".52784824"
       stop-color="#bd750f"
       id="stop7" />
    <stop
       offset="1"
       stop-color="#ad6b0e"
       id="stop9" />
  </linearGradient>
  <filter
     id="c"
     color-interpolation-filters="sRGB"
     height="1.1253347"
     width="1.0936"
     x="-0.046800001"
     y="-0.078534678">
    <feGaussianBlur
       in="SourceGraphic"
       result="blur"
       stdDeviation="3.9"
       id="feGaussianBlur12" />
    <feDiffuseLighting
       diffuseConstant="1"
       result="diffuse"
       surfaceScale="10"
       id="feDiffuseLighting16">
      <feDistantLight
         azimuth="228"
         elevation="15"
         id="feDistantLight14" />
    </feDiffuseLighting>
    <feComposite
       in="diffuse"
       in2="diffuse"
       k1="1"
       k2="0"
       k3="0"
       k4="0"
       operator="arithmetic"
       result="composite1"
       id="feComposite18" />
    <feComposite
       in="composite1"
       in2="SourceGraphic"
       k1="1"
       k2="0"
       k3="1"
       k4="0"
       operator="arithmetic"
       result="composite2"
       id="feComposite20" />
  </filter>
  <linearGradient
     id="d"
     gradientUnits="userSpaceOnUse"
     x1="117.48109"
     x2="114.00914"
     y1="-244.91811"
     y2="-130.32195">
    <stop
       offset="0"
       stop-color="#fff"
       id="stop23" />
    <stop
       offset=".19696654"
       stop-color="#fff"
       id="stop25" />
    <stop
       offset=".82901198"
       stop-color="#626262"
       stop-opacity="0"
       id="stop27" />
    <stop
       offset="1"
       stop-opacity="0"
       id="stop29" />
  </linearGradient>
  <filter
     id="e"
     color-interpolation-filters="sRGB"
     height="1.0534427"
     width="1.0486452"
     x="-0.024322588"
     y="-0.026721332">
    <feGaussianBlur
       stdDeviation="1.9174426"
       id="feGaussianBlur32" />
  </filter>
  <filter
     id="f"
     color-interpolation-filters="sRGB"
     height="1.2518575"
     width="1.1836628"
     x="-0.09183138"
     y="-0.12592874">
    <feGaussianBlur
       stdDeviation="4.5191336"
       id="feGaussianBlur35" />
  </filter>
  <g
     stroke-width=".488627"
     transform="matrix(2.004603 0 0 2.0893869 224.563613 -400.342393)"
     id="g58">
    <path
       d="m11.253 254.205h-11.25v-1h3.375v-15.125h-2.875v-1h2.804c.56 0 1.26-.031 2.1-.094s1.726-.156 2.659-.281l.021 16.5h3.166zm-8.375-25.927c0-.701.237-1.295.713-1.781.475-.486 1.067-.729 1.776-.729.695 0 1.287.243 1.776.729s.734 1.08.734 1.781-.245 1.292-.734 1.771-1.081.719-1.776.719c-.709 0-1.302-.239-1.776-.719-.476-.479-.713-1.07-.713-1.771z"
       id="path38" />
    <path
       d="m23.248 254.205h-10.438v-1h3v-15.125h-3v-1h2.827c.559 0 1.254-.031 2.086-.094s1.721-.156 2.667-.281v3.93h.406c.832-1.353 1.75-2.346 2.754-2.979s2.158-.95 3.464-.95c1.792 0 3.144.425 4.055 1.273.91.849 1.366 2.114 1.366 3.798v.753 10.676h2.75v1h-10.125v-1h2.625v-12.247c0-1.062-.154-1.775-.462-2.142-.308-.365-.854-.549-1.641-.549-1.273 0-2.438.686-3.497 2.056-1.059 1.371-1.588 2.917-1.588 4.639v8.243h2.75v.999z"
       id="path40" />
    <path
       d="m53.104 248.705h1.076c-.518 2.006-1.439 3.528-2.767 4.567-1.327 1.038-3.024 1.558-5.091 1.558-2.396 0-4.385-.834-5.963-2.502s-2.367-3.74-2.367-6.217c0-2.691.86-4.932 2.583-6.722 1.722-1.789 3.903-2.685 6.544-2.685 1.938 0 3.487.423 4.649 1.268s1.744 1.976 1.744 3.392c0 .702-.208 1.268-.624 1.697s-.976.644-1.679.644c-.732 0-1.317-.211-1.755-.634s-.656-.979-.656-1.667c0-.631.189-1.189.57-1.678.38-.487.57-.753.57-.796 0-.387-.233-.688-.699-.902-.467-.215-1.116-.323-1.948-.323-1.464 0-2.525.448-3.186 1.345s-.989 2.341-.989 4.333v6.416c0 1.302.337 2.289 1.012 2.961.674.672 1.671 1.008 2.991 1.008 1.349 0 2.59-.482 3.724-1.447 1.134-.966 1.887-2.171 2.261-3.616z"
       id="path42" />
    <path
       d="m57.02 254.205v-1h3v-15.125h-3v-1h2.827c.547 0 1.241-.031 2.084-.094.842-.063 1.731-.156 2.668-.281l.022 4.282h.345c.728-1.435 1.584-2.507 2.568-3.217s2.104-1.065 3.359-1.065c.97 0 1.743.255 2.321.764.578.51.867 1.194.867 2.055 0 .732-.204 1.32-.61 1.765s-.945.667-1.615.667c-.814 0-1.428-.172-1.842-.516s-.62-.854-.62-1.527v-.388c0-.301-.036-.523-.107-.667-.071-.143-.178-.215-.32-.215-1.014 0-1.978.663-2.891 1.988s-1.369 2.775-1.369 4.352v8.223h3.875v1h-11.562z"
       id="path44" />
    <path
       d="m91.866 248.705h1.057c-.545 2.021-1.49 3.547-2.837 4.578-1.347 1.03-3.065 1.547-5.156 1.547-2.406 0-4.416-.834-6.027-2.502s-2.417-3.711-2.417-6.131c0-2.591.823-4.82 2.471-6.689 1.647-1.868 3.639-2.803 5.974-2.803 2.291 0 4.196.71 5.715 2.128 1.519 1.419 2.278 3.203 2.278 5.353v.395h-11.25v5.219c0 1.201.351 2.163 1.052 2.886s1.638 1.083 2.811 1.083c1.474 0 2.783-.457 3.928-1.373 1.142-.917 1.943-2.146 2.401-3.691zm-3.881-5.375v-2.354c0-1.098-.257-1.907-.771-2.428s-1.306-.781-2.375-.781c-1.057 0-1.849.268-2.376.803s-.791 1.337-.791 2.406v2.354z"
       id="path46" />
    <path
       d="m114.889 253.205h2.813v1h-2.813c-.543 0-1.228.035-2.055.108-.828.071-1.705.164-2.633.279v-2.396h-.623c-.676.885-1.444 1.545-2.306 1.98-.862.436-1.84.653-2.932.653-2.227 0-4.109-.866-5.646-2.599s-2.306-3.887-2.306-6.464c0-2.605.782-4.767 2.349-6.485 1.566-1.718 3.521-2.577 5.862-2.577 1.049 0 1.972.209 2.77.626.797.418 1.563 1.094 2.295 2.028h.537v-13.592h-2.813v-1h2.77c.557 0 1.252-.04 2.087-.121.834-.081 1.716-.187 2.644-.316zm-4.731-5.281v-4.658c0-1.416-.541-2.708-1.621-3.874-1.081-1.166-2.271-1.75-3.567-1.75-1.239 0-2.114.372-2.626 1.116s-.768 2.133-.768 4.164v6.14c0 1.676.244 2.889.734 3.641s1.275 1.127 2.356 1.127c1.499 0 2.789-.555 3.87-1.664 1.08-1.109 1.621-2.494 1.621-4.155v-.087z"
       id="path48" />
    <path
       d="m130.82 254.205h-11.25v-1h3.375v-15.125h-2.875v-1h2.804c.56 0 1.26-.031 2.1-.094s1.726-.156 2.659-.281l.021 16.5h3.166zm-8.375-25.927c0-.701.237-1.295.713-1.781.475-.486 1.067-.729 1.776-.729.695 0 1.287.243 1.776.729s.734 1.08.734 1.781-.245 1.292-.734 1.771-1.081.719-1.776.719c-.709 0-1.302-.239-1.776-.719-.475-.479-.713-1.07-.713-1.771z"
       id="path50" />
    <path
       d="m140.048 254.549-2.829-.259h-.107c-1.02-.058-2.139-.086-3.357-.086-.144 0-.366.007-.667.021-.302.014-.538.021-.71.021v-1.043h3v-27.438h-3v-1h2.827c.557 0 1.253-.04 2.089-.121s1.718-.187 2.646-.316v15.029h.628c.748-.949 1.514-1.629 2.297-2.039s1.7-.615 2.751-.615c2.344 0 4.307.859 5.889 2.577 1.582 1.719 2.373 3.88 2.373 6.485 0 2.563-.777 4.714-2.33 6.453-1.553 1.74-3.444 2.609-5.673 2.609-1.093 0-2.063-.218-2.912-.653s-1.618-1.096-2.308-1.98h-.606v2.355zm0-6.625c0 1.676.548 3.078 1.646 4.209s2.397 1.696 3.899 1.696c1.024 0 1.797-.361 2.316-1.085.52-.723.78-1.814.78-3.275v-.408-6.139c0-2.031-.261-3.42-.78-4.164s-1.4-1.116-2.642-1.116c-1.285 0-2.477.584-3.574 1.75s-1.646 2.458-1.646 3.874v4.658z"
       id="path52" />
    <path
       d="m159.747 225.767h-3.375v-1h3.289c.559 0 1.262-.04 2.107-.121s1.734-.187 2.666-.316v28.875h3.188v1h-11.25v-1h3.375z"
       id="path54" />
    <path
       d="m184.935 248.705h1.057c-.545 2.021-1.49 3.547-2.837 4.578-1.347 1.03-3.065 1.547-5.156 1.547-2.406 0-4.416-.834-6.027-2.502s-2.417-3.711-2.417-6.131c0-2.591.823-4.82 2.471-6.689 1.647-1.868 3.639-2.803 5.974-2.803 2.291 0 4.196.71 5.715 2.128 1.519 1.419 2.278 3.203 2.278 5.353v.395h-11.25v5.219c0 1.201.351 2.163 1.052 2.886s1.638 1.083 2.811 1.083c1.474 0 2.783-.457 3.928-1.373 1.142-.917 1.943-2.146 2.401-3.691zm-3.881-5.375v-2.354c0-1.098-.257-1.907-.771-2.428s-1.306-.781-2.375-.781c-1.057 0-1.849.268-2.376.803s-.791 1.337-.791 2.406v2.354z"
       id="path56" />
  </g>
  <g
     stroke-width=".499359"
     transform="matrix(2.0036433 0 0 2.0015039 225.033993 -379.118913)"
     id="g84">
    <path
       d="m42.376 275.164v-11.844h-4.438v-1.594h10.656v1.594h-4.438v11.844z"
       id="path60" />
    <path
       d="m50.522 275.164v-13.438h9.719v1.594h-7.938v4.094h7.438v1.594h-7.438v4.563h8.25v1.594h-10.031z"
       id="path62" />
    <path
       d="m72.599 270.445 1.781.447c-.374 1.46-1.046 2.573-2.017 3.34s-2.158 1.15-3.56 1.15c-1.452 0-2.632-.295-3.542-.884s-1.602-1.441-2.076-2.558-.712-2.315-.712-3.597c0-1.397.268-2.616.805-3.656.536-1.04 1.299-1.831 2.29-2.371s2.08-.81 3.269-.81c1.349 0 2.482.342 3.402 1.026.919.685 1.56 1.647 1.922 2.888l-1.75.411c-.313-.974-.767-1.683-1.361-2.127s-1.343-.667-2.244-.667c-1.036 0-1.902.246-2.598.739s-1.185 1.155-1.467 1.986-.423 1.688-.423 2.571c0 1.139.167 2.132.5 2.981s.852 1.484 1.556 1.904 1.466.63 2.287.63c.997 0 1.842-.286 2.534-.858.691-.57 1.159-1.419 1.404-2.545z"
       id="path64" />
    <path
       d="m76.652 275.164v-13.438h1.781v5.5h6.969v-5.5h1.781v13.438h-1.781v-6.344h-6.969v6.344z"
       id="path66" />
    <path
       d="m90.142 275.164v-13.438h1.838l7.068 10.548v-10.548h1.719v13.438h-1.838l-7.068-10.549v10.549z"
       id="path68" />
    <path
       d="m103.163 268.623c0-2.226.601-3.968 1.804-5.227s2.756-1.889 4.658-1.889c1.246 0 2.369.295 3.369.887s1.763 1.416 2.288 2.474c.524 1.059.787 2.258.787 3.6 0 1.359-.276 2.576-.829 3.649s-1.335 1.886-2.348 2.438-2.104.828-3.276.828c-1.271 0-2.406-.305-3.406-.915-1.001-.609-1.759-1.441-2.274-2.497-.516-1.055-.773-2.172-.773-3.348zm1.844.022c0 1.614.437 2.885 1.311 3.813s1.971 1.393 3.289 1.393c1.344 0 2.449-.47 3.317-1.407.867-.938 1.302-2.268 1.302-3.99 0-1.09-.186-2.041-.557-2.854s-.914-1.442-1.629-1.89-1.517-.671-2.405-.671c-1.264 0-2.352.431-3.262 1.292-.911.861-1.366 2.299-1.366 4.314z"
       id="path70" />
    <path
       d="m118.294 275.163v-13.438h1.781v11.844h6.656v1.594z"
       id="path72" />
    <path
       d="m128.255 268.623c0-2.226.601-3.968 1.804-5.228 1.203-1.259 2.756-1.889 4.658-1.889 1.246 0 2.369.296 3.369.888s1.763 1.416 2.288 2.474c.524 1.059.787 2.258.787 3.6 0 1.359-.276 2.576-.829 3.649s-1.335 1.886-2.348 2.438-2.104.827-3.276.827c-1.271 0-2.406-.305-3.406-.914-1.001-.609-1.759-1.442-2.274-2.497s-.773-2.172-.773-3.348zm1.844.022c0 1.613.437 2.885 1.311 3.813.874.929 1.971 1.393 3.289 1.393 1.344 0 2.449-.469 3.317-1.406.867-.938 1.302-2.268 1.302-3.99 0-1.09-.186-2.041-.557-2.854s-.914-1.442-1.629-1.89-1.517-.672-2.405-.672c-1.264 0-2.352.432-3.262 1.293-.911.86-1.366 2.298-1.366 4.313z"
       id="path74" />
    <path
       d="m149.761 269.913v-1.594h5.688v4.971c-.875.694-1.776 1.217-2.706 1.566-.93.351-1.884.525-2.861.525-1.321 0-2.521-.282-3.601-.847s-1.895-1.38-2.444-2.448c-.551-1.067-.825-2.26-.825-3.578 0-1.306.273-2.524.82-3.656s1.334-1.973 2.361-2.521c1.026-.549 2.209-.824 3.548-.824.972 0 1.851.158 2.637.473.785.315 1.4.755 1.847 1.317.446.563.786 1.298 1.019 2.203l-1.639.44c-.201-.684-.451-1.221-.749-1.611s-.724-.703-1.276-.938c-.554-.234-1.168-.353-1.843-.353-.81 0-1.509.124-2.099.371s-1.066.572-1.428.975c-.362.402-.644.845-.844 1.326-.341.829-.511 1.729-.511 2.699 0 1.195.205 2.195.615 3.001.41.805 1.008 1.402 1.793 1.793.784.391 1.618.585 2.5.585.766 0 1.514-.146 2.244-.441.729-.295 1.283-.609 1.66-.944v-2.489h-3.906z"
       id="path76" />
    <path
       d="m158.392 275.163v-13.438h1.781v13.438z"
       id="path78" />
    <path
       d="m163.398 275.163v-13.438h9.719v1.594h-7.938v4.094h7.438v1.594h-7.438v4.563h8.25v1.594h-10.031z"
       id="path80" />
    <path
       d="m175.288 270.85 1.688-.156c.079.672.264 1.223.553 1.652.289.431.738.778 1.348 1.044s1.294.397 2.056.397c.676 0 1.272-.101 1.79-.302s.903-.478 1.156-.828.379-.732.379-1.146c0-.419-.124-.785-.372-1.098s-.652-.575-1.213-.788c-.359-.14-1.155-.357-2.386-.652s-2.095-.574-2.59-.838c-.643-.336-1.121-.753-1.436-1.251s-.473-1.057-.473-1.674c0-.679.192-1.313.578-1.902.385-.59.947-1.038 1.687-1.344s1.562-.459 2.466-.459c.996 0 1.875.161 2.636.483s1.346.796 1.755 1.422.63 1.335.66 2.126l-1.719.125c-.092-.845-.4-1.483-.928-1.915s-1.306-.647-2.335-.647c-1.073 0-1.854.196-2.345.589s-.736.865-.736 1.419c0 .481.174.877.521 1.187.341.311 1.231.629 2.673.954s2.433.61 2.973.854c.785.359 1.365.814 1.74 1.365.374.552.562 1.187.562 1.904 0 .713-.204 1.385-.613 2.015s-.997 1.12-1.763 1.471c-.767.35-1.629.524-2.588.524-1.215 0-2.232-.177-3.054-.529-.821-.354-1.466-.885-1.933-1.595-.466-.709-.712-1.511-.737-2.407z"
       id="path82" />
  </g>
  <g
     filter="url(#c)"
     transform="translate(-4.827889 236.871997)"
     id="g102">
    <circle
       cx="114.18789"
       cy="-121.16506"
       fill="#f6e707"
       r="100"
       id="circle86" />
    <path
       d="m100.33789 51.447266a94.600876 86.108139 0 0 0 -94.5996088 86.107424 94.600876 86.108139 0 0 0 94.5996088 86.10937 94.600876 86.108139 0 0 0 94.60156-86.10937 94.600876 86.108139 0 0 0 -94.60156-86.107424zm-.17578 2.210937a58.879349 43.586643 0 0 1 58.87891 43.585938 58.879349 43.586643 0 0 1 -58.87891 43.587889 58.879349 43.586643 0 0 1 -58.878907-43.587889 58.879349 43.586643 0 0 1 58.878907-43.585938z"
       fill="url(#b)"
       filter="url(#e)"
       opacity=".625296"
       transform="translate(13.847342 -271.15343)"
       id="path88" />
    <ellipse
       cx="113.50987"
       cy="-173.60236"
       fill="url(#d)"
       filter="url(#f)"
       rx="59.053455"
       ry="43.063721"
       id="ellipse90" />
    <ellipse
       cx="113.93716"
       cy="-124.51709"
       fill="none"
       rx="93.804077"
       ry="93.802757"
       stroke="#ad6b0e"
       stroke-linecap="round"
       stroke-linejoin="round"
       stroke-width="5"
       id="ellipse92" />
    <circle
       cx="55.727978"
       cy="-172.54948"
       fill="#fff"
       fill-opacity=".761013"
       filter="url(#a)"
       r="10"
       transform="matrix(1.25 0 0 1.25 -13.269415 44.480687)"
       id="circle94" />
    <g
       stroke-width=".999997"
       id="g100">
      <path
         d="m160.43807-116.43487-13.3183.0177-.0136 42.481953c.0136 1.502795-.0305 4.550983 2.45064 3.018042 5.16553-3.440764 7.45899-15.58502 8.24831-17.872308l2.96896 1.059755c-3.42155 12.14229-6.61409 28.514425-22.78143 30.545458h-22.49958v-3.485985h5.76108c-2.46081-2.006129-4.68651-4.47758-5.76108-7.226259v-69.964806c15.03992-4.84394 27.2552-19.32529 31.61378-34.21757l.0135 51.17103h13.3183v4.473zm-44.94495 59.251245h-46.762785v-3.501714h8.448183l.01558-75.845561c5.502261 1.80559 11.406978 2.79849 17.527152 2.79849 2.926273 0 5.79767-.2248 8.60605-.64752 2.27246-.24315 4.42498-1.00798 6.37561-1.42022l.021 14.89163h5.05983v-16.73195c.25408-.0636.47902-.13697.7087-.22086v69.964807c-.44175-1.108254-.6877-2.266971-.6877-3.465668l-.021-45.072679h-5.05983v55.76526h5.76853v3.485985z"
         id="path96" />
      <path
         d="m100.51892-198.00128c14.24721 0 25.86625 11.24049 25.86625 25.01926 0 13.78272-11.61904 25.02516-25.86625 25.02516-14.243819 0-25.868285-11.24179-25.868285-25.02516 0-13.77877 11.624466-25.01926 25.868285-25.01926z"
         id="path98" />
    </g>
  </g>
  <path
     style="fill:#ffffff;stroke-width:0.287087"
     d="m 178.53439,61.613952 c -0.99568,-0.995678 -1.11458,-1.266769 -1.11458,-2.541328 0,-1.880422 0.88646,-3.229929 2.48833,-3.788125 2.43564,-0.848738 4.68885,0.97163 4.68885,3.788125 0,1.274559 -0.1189,1.54565 -1.11457,2.541328 -0.98088,0.980872 -1.27765,1.114574 -2.47402,1.114574 -1.19637,0 -1.49314,-0.133702 -2.47401,-1.114574 z"
     id="path999"
     transform="scale(1.3)" />
  <path
     style="fill:#ffffff;stroke-width:0.287087"
     d="m 172.82642,99.762758 c 0,-0.531642 0.19139,-0.574174 2.58378,-0.574174 h 2.58379 V 86.84384 74.499096 h -2.15316 c -1.90547,0 -2.15315,-0.06124 -2.15315,-0.532419 0,-0.483244 0.36459,-0.550405 3.94745,-0.727158 2.17109,-0.107107 4.75488,-0.272926 5.74174,-0.368488 l 1.79429,-0.173748 v 13.24565 13.245651 h 2.44024 c 2.24885,0 2.44024,0.04503 2.44024,0.574174 0,0.561412 -0.19139,0.574172 -8.61261,0.574172 -8.42122,0 -8.61261,-0.0128 -8.61261,-0.574172 z"
     id="path1038"
     transform="scale(1.3)" />
  <path
     style="fill:#ffffff;stroke-width:0.287087"
     d="m 192.63543,99.762758 c 0,-0.526326 0.19139,-0.574174 2.29669,-0.574174 h 2.2967 V 86.84384 74.499096 h -2.2967 c -2.04228,0 -2.29669,-0.05877 -2.29669,-0.530501 0,-0.480894 0.36911,-0.548488 3.94744,-0.722863 2.1711,-0.1058 4.75488,-0.272483 5.74175,-0.370406 l 1.79429,-0.178043 v 3.054059 c 0,3.537808 0.28745,3.847971 1.68444,1.81752 2.16142,-3.141513 5.14935,-4.856528 8.45909,-4.855359 4.38501,0.0016 7.02926,1.636989 7.93835,4.90978 0.16836,0.606109 0.28916,5.312278 0.29009,11.301938 l 0.002,10.263363 h 2.15316 c 1.96176,0 2.15315,0.05104 2.15315,0.574174 0,0.559732 -0.19139,0.574172 -7.60781,0.574172 -7.41641,0 -7.60781,-0.0144 -7.60781,-0.574172 0,-0.519905 0.1914,-0.574174 2.02495,-0.574174 h 2.02495 l -0.0871,-11.268167 c -0.0952,-12.308224 -0.0876,-12.253878 -1.77479,-12.84202 -3.73236,-1.30111 -8.47023,2.9799 -9.3672,8.463942 -0.15495,0.947387 -0.28248,4.85536 -0.2834,8.684384 l -0.002,6.961861 h 2.15315 c 1.96176,0 2.15316,0.05104 2.15316,0.574174 0,0.560252 -0.1914,0.574172 -7.8949,0.574172 -7.7035,0 -7.89489,-0.0139 -7.89489,-0.574172 z"
     id="path1077"
     transform="scale(1.3)" />
  <path
     style="fill:#ffffff;stroke-width:0.287087"
     d="m 240.87302,101.0445 c -4.61778,-1.298024 -8.00138,-5.194085 -9.06123,-10.433591 -1.7409,-8.606463 3.72505,-16.91946 11.70784,-17.806078 6.61762,-0.734994 11.44642,2.196621 11.51572,6.991321 0.0263,1.822053 -0.59469,2.903756 -2.00555,3.49325 -2.06434,0.862539 -4.44812,-0.411967 -4.85812,-2.59743 -0.16492,-0.879111 -0.0403,-1.382063 0.69661,-2.810849 0.4936,-0.957086 0.89746,-1.97741 0.89746,-2.267386 0,-0.822461 -1.26769,-1.454524 -3.2298,-1.610354 -3.38857,-0.26912 -5.3573,0.760039 -6.56472,3.431729 -0.66176,1.46429 -0.68715,1.784878 -0.77585,9.79573 l -0.0917,8.281897 0.73109,1.494289 c 2.24158,4.581622 9.69189,3.835942 13.15902,-1.317039 0.5645,-0.838986 1.19318,-2.009888 1.39707,-2.602005 0.27934,-0.811238 0.52845,-1.076577 1.01071,-1.076577 0.58456,0 0.617,0.08022 0.37444,0.926001 -0.94776,3.304634 -3.84382,6.582659 -6.78983,7.685342 -2.20357,0.8248 -5.98078,1.02114 -8.11317,0.42175 z"
     id="path1116"
     transform="scale(1.3)" />
  <path
     style="fill:#ffffff;stroke-width:0.287087"
     d="m 260.67506,99.762758 c 0,-0.52914 0.19139,-0.574174 2.44024,-0.574174 h 2.44024 V 86.84384 74.499096 h -2.44024 c -2.18188,0 -2.44024,-0.05617 -2.44024,-0.530501 0,-0.480894 0.36912,-0.548488 3.94745,-0.722863 2.1711,-0.1058 4.75488,-0.272483 5.74174,-0.370406 l 1.7943,-0.178043 v 3.341146 c 0,3.036093 0.0476,3.341147 0.521,3.341147 0.30491,0 0.70599,-0.386977 0.96702,-0.933033 1.62553,-3.400512 4.97618,-5.727387 8.24729,-5.727387 2.03386,0 3.28054,0.600986 4.25921,2.053232 1.23403,1.831177 0.6057,4.726805 -1.21295,5.589809 -1.16735,0.553945 -1.89828,0.569653 -3.10161,0.06666 -1.33934,-0.559856 -1.76694,-1.225357 -1.92861,-3.001645 -0.19202,-2.109703 -0.64309,-2.377252 -2.47601,-1.46862 -1.62782,0.806961 -3.2386,2.780535 -4.198,5.143511 -0.60299,1.485144 -0.64648,2.069483 -0.73184,9.832733 l -0.0908,8.253753 h 3.03059 c 2.83919,0 3.03058,0.03626 3.03058,0.574174 0,0.561827 -0.19139,0.574177 -8.8997,0.574177 -8.70831,0 -8.8997,-0.0123 -8.8997,-0.574177 z"
     id="path1155"
     transform="scale(1.3)" />
  <path
     style="fill:#ffffff;stroke-width:0.287087"
     d="m 300.72371,101.08019 c -5.7434,-1.425443 -9.92115,-7.116756 -9.89952,-13.486045 0.0135,-3.969263 1.62053,-8.03043 4.31941,-10.915536 2.96314,-3.167611 6.24039,-4.369035 10.51757,-3.855691 5.32403,0.638986 9.6987,5.127619 10.07118,10.333543 l 0.14058,1.964857 h -8.65119 -8.65118 l 0.003,5.095795 c 0.003,4.781727 0.0455,5.18755 0.69595,6.584523 0.91266,1.9602 2.38831,2.957077 4.68563,3.165391 4.25659,0.385973 8.73501,-2.615812 10.10765,-6.774932 0.31285,-0.947978 0.52586,-1.180688 1.08076,-1.180688 0.80994,0 0.7547,0.344594 -0.45597,2.844693 -2.46605,5.092496 -8.20901,7.65233 -13.96368,6.22409 z m 7.84167,-20.767581 c -0.127,-3.357246 -0.53783,-4.573865 -1.83052,-5.420868 -1.71998,-1.126971 -5.32702,-0.988369 -6.67915,0.256647 -1.15716,1.065488 -1.48515,2.251505 -1.48515,5.370315 v 2.880092 h 5.05578 5.05578 z"
     id="path1194"
     transform="scale(1.3)" />
  <path
     style="fill:#ffffff;stroke-width:0.287087"
     d="m 330.78843,101.05793 c -5.20789,-1.464728 -8.78291,-6.56175 -9.16603,-13.068314 -0.27539,-4.676976 1.00547,-8.473474 3.9044,-11.572654 2.35587,-2.51862 4.98024,-3.66299 8.41783,-3.670646 2.76117,-0.0061 4.23858,0.597996 6.35328,2.597995 2.62892,2.486317 2.48406,3.046229 2.48406,-9.601371 V 54.690088 h -2.15316 c -1.90188,0 -2.15315,-0.06185 -2.15315,-0.529962 0,-0.480047 0.37179,-0.548379 3.94745,-0.725512 2.17109,-0.107554 4.69028,-0.29961 5.5982,-0.426792 l 1.65075,-0.23124 v 23.206001 23.206001 h 2.15315 c 1.90256,0 2.15315,0.06173 2.15315,0.530422 0,0.474984 -0.35256,0.550234 -3.37327,0.720034 -1.8553,0.10429 -4.37449,0.27175 -5.5982,0.37212 l -2.22492,0.1825 v -1.907342 c 0,-2.402546 -0.35654,-2.467976 -2.48406,-0.455863 -0.8441,0.798318 -2.12028,1.710505 -2.83595,2.027075 -1.72783,0.7643 -4.7376,0.94488 -6.67353,0.4004 z m 6.71176,-1.695736 c 1.90315,-0.886171 3.44859,-2.455909 4.38612,-4.455089 0.74004,-1.578051 0.75211,-1.705231 0.75211,-7.919721 0,-6.048686 -0.0285,-6.373205 -0.67302,-7.66992 -1.65817,-3.335954 -4.51287,-5.384817 -7.50896,-5.389292 -2.23347,-0.0033 -3.42262,0.669617 -4.3063,2.43699 l -0.71772,1.435435 v 9.33033 c 0,9.174766 0.011,9.35086 0.65752,10.561712 0.36164,0.677259 1.07218,1.484209 1.57898,1.793221 1.3354,0.81424 3.93543,0.7591 5.83127,-0.123666 z"
     id="path1233"
     transform="scale(1.3)" />
  <path
     style="fill:#ffffff;stroke-width:0.287087"
     d="m 357.13632,99.762758 c 0,-0.533881 0.19139,-0.574174 2.72733,-0.574174 h 2.72732 V 86.84384 74.499096 h -2.29669 c -2.04228,0 -2.2967,-0.05877 -2.2967,-0.530501 0,-0.480894 0.36912,-0.548488 3.94745,-0.722863 2.17109,-0.1058 4.75488,-0.272483 5.74174,-0.370406 l 1.79429,-0.178043 v 13.24565 13.245651 h 2.44024 c 2.24885,0 2.44024,0.04503 2.44024,0.574174 0,0.561412 -0.19139,0.574172 -8.61261,0.574172 -8.42122,0 -8.61261,-0.0128 -8.61261,-0.574172 z"
     id="path1272"
     transform="scale(1.3)" />
  <path
     style="fill:#ffffff;stroke-width:0.287087"
     d="m 363.53795,62.165974 c -2.19848,-1.340488 -2.43039,-4.333741 -0.47617,-6.145796 1.51498,-1.404768 3.72399,-1.223064 5.10657,0.420047 1.05232,1.2506 1.21047,2.567223 0.48773,4.060208 -1.0281,2.123768 -3.20486,2.832131 -5.11813,1.665541 z"
     id="path1311"
     transform="scale(1.3)" />
  <path
     style="fill:#ffffff;stroke-width:0.287087"
     d="m 394.90334,101.02674 c -1.70733,-0.54472 -3.66699,-1.845853 -4.52217,-3.002541 -0.37828,-0.511652 -0.88685,-0.845224 -1.28863,-0.845224 -0.62671,0 -0.66373,0.105946 -0.66373,1.899796 v 1.899799 l -2.08138,-0.18566 c -1.14476,-0.10211 -3.72854,-0.20434 -5.74174,-0.22718 -3.62814,-0.0412 -3.66036,-0.0474 -3.66036,-0.709341 0,-0.643365 0.084,-0.667805 2.2967,-0.667805 h 2.29669 V 76.939336 54.690088 h -2.29669 c -2.10531,0 -2.2967,-0.04785 -2.2967,-0.574174 0,-0.517442 0.19147,-0.574198 1.93784,-0.574415 2.03436,-2.51e-4 7.79446,-0.468217 8.8997,-0.723034 l 0.64594,-0.148926 v 12.063127 12.063126 h 0.66373 c 0.40551,0 0.91302,-0.337186 1.30451,-0.86671 1.0426,-1.410186 3.42473,-2.810032 5.2669,-3.095065 4.54611,-0.703402 8.95816,1.340685 11.67481,5.408893 3.06738,4.593441 3.34563,11.240943 0.68988,16.481803 -1.1332,2.236274 -4.17271,5.099402 -6.25028,5.887587 -2.21777,0.84137 -5.0094,1.00966 -6.87502,0.41444 z m 4.88293,-1.561895 c 0.53991,-0.333681 1.2328,-1.166185 1.61286,-1.937838 0.63666,-1.292612 0.6706,-1.687638 0.76257,-8.873588 0.13253,-10.355219 -0.26212,-12.558176 -2.5227,-14.081576 -1.25049,-0.842707 -3.91885,-0.881616 -5.67857,-0.0828 -1.62142,0.736033 -3.59245,2.812902 -4.58202,4.828071 -0.80195,1.633089 -0.80605,1.670664 -0.8046,7.383184 0.002,6.338102 0.1715,7.314264 1.6532,9.498365 1.7834,2.628831 3.9252,3.816207 6.92407,3.838587 1.21463,0.009 1.95434,-0.151616 2.63519,-0.572403 z"
     id="path1350"
     transform="scale(1.3)" />
  <path
     style="fill:#ffffff;stroke-width:0.287087"
     d="m 413.97956,99.762758 c 0,-0.531642 0.19139,-0.574174 2.58378,-0.574174 h 2.58379 V 76.939336 54.690088 h -2.58379 c -2.31934,0 -2.58378,-0.05417 -2.58378,-0.529286 0,-0.483099 0.39457,-0.547471 4.52162,-0.737672 2.48689,-0.114612 5.19987,-0.305434 6.02883,-0.42405 l 1.50721,-0.215664 V 75.986 99.188584 h 2.58378 c 2.39239,0 2.58379,0.04253 2.58379,0.574174 0,0.561412 -0.1914,0.574172 -8.61262,0.574172 -8.42122,0 -8.61261,-0.0127 -8.61261,-0.574172 z"
     id="path1389"
     transform="scale(1.3)" />
  <path
     style="fill:#ffffff;stroke-width:0.287087"
     d="m 443.77513,100.94936 c -3.38731,-0.88361 -6.43662,-3.534051 -8.08566,-7.028 -2.11382,-4.478721 -1.60279,-10.682663 1.23857,-15.036372 3.02893,-4.641109 7.12777,-6.681218 12.19723,-6.070913 5.55583,0.668859 10.21405,5.716281 10.21405,11.067457 v 1.239786 h -8.63001 -8.63002 l 0.0892,5.382882 c 0.10244,6.184055 0.34608,7.013779 2.50793,8.540841 1.11434,0.787126 1.42103,0.861241 3.56303,0.861032 1.92955,-1.88e-4 2.62277,-0.132412 3.92271,-0.748208 2.08976,-0.989939 4.06867,-3.062098 5.07334,-5.312389 0.64517,-1.445079 0.94439,-1.820218 1.45672,-1.826351 l 0.64478,-0.0077 -0.54487,1.43397 c -2.42803,6.390063 -8.21044,9.279535 -15.01698,7.503985 z m 8.32138,-20.650732 c -0.1599,-3.373504 -0.57121,-4.589884 -1.83123,-5.415478 -1.67785,-1.099368 -5.34145,-0.954515 -6.66418,0.26349 -1.15909,1.067324 -1.48701,2.251986 -1.48701,5.372063 v 2.880092 h 5.06468 5.06468 z"
     id="path1428"
     transform="scale(1.3)" />
  <path
     style="fill:#ffffff;stroke-width:0.164847"
     d="m 378.87514,132.12023 c -2.02298,-0.36447 -4.06024,-1.49111 -5.40903,-2.99129 -3.57587,-3.97723 -3.39462,-11.54289 0.36639,-15.29302 4.60812,-4.5948 12.76533,-3.28914 15.53491,2.48654 0.83449,1.74026 1.14821,3.21967 1.15184,5.43176 0.008,5.04523 -2.58008,8.82738 -6.9207,10.11267 -1.10911,0.32841 -3.57318,0.46057 -4.72341,0.25334 z m 4.14644,-2.41119 c 3.11551,-0.94069 4.85201,-3.82298 4.86012,-8.06693 0.007,-3.71362 -1.40192,-6.36614 -4.08275,-7.68591 -1.05866,-0.52117 -1.17482,-0.54159 -3.08176,-0.54159 -1.87787,0 -2.03773,0.0269 -3.05313,0.51273 -2.82362,1.35115 -4.10361,3.80821 -4.11256,7.89446 -0.006,2.6912 0.73251,4.7727 2.22121,6.2614 1.81844,1.81844 4.56831,2.4352 7.24887,1.62584 z"
     id="path1467"
     transform="scale(1.3)" />
  <path
     style="fill:#ffffff;stroke-width:0.164847"
     d="m 402.10055,132.10651 c -4.32498,-0.72049 -7.34061,-3.55688 -8.21803,-7.72959 -0.41425,-1.96998 -0.24911,-4.79939 0.38736,-6.63693 1.20133,-3.46834 3.235,-5.40384 6.63758,-6.31717 1.43454,-0.38506 4.32293,-0.39176 5.75103,-0.0133 2.33438,0.61857 4.09179,2.01977 4.95395,3.94983 0.78391,1.75488 0.79852,1.69721 -0.51115,2.01816 -0.62857,0.15404 -1.16396,0.25268 -1.18975,0.21919 -0.0258,-0.0335 -0.21631,-0.4873 -0.42336,-1.00849 -0.47273,-1.18994 -1.41737,-2.17416 -2.62062,-2.7304 -1.24931,-0.57754 -3.81323,-0.70943 -5.40664,-0.27811 -3.15268,0.85339 -4.9217,3.44595 -5.11783,7.50033 -0.0998,2.06305 0.19478,3.7028 0.93651,5.21288 1.83617,3.73823 7.36962,4.81118 11.66414,2.2617 l 1.0303,-0.61164 v -2.03027 -2.03028 h -2.96725 -2.96724 v -1.15392 -1.15393 h 4.28602 4.28602 v 3.7756 3.77561 l -1.35999,0.87313 c -2.93232,1.88261 -6.1094,2.61435 -9.15105,2.10764 z"
     id="path1506"
     transform="scale(1.3)" />
  <path
     style="fill:#ffffff;stroke-width:0.164847"
     d="m 417.2273,121.65695 v -10.30292 h 1.31877 1.31878 v 10.30292 10.30293 h -1.31878 -1.31877 z"
     id="path1545"
     transform="scale(1.3)" />
  <path
     style="fill:#ffffff;stroke-width:0.164847"
     d="m 355.57459,121.65695 v -10.30292 h 1.23635 1.23635 v 9.14899 9.149 h 5.11025 5.11025 v 1.15393 1.15393 h -6.3466 -6.3466 z"
     id="path1584"
     transform="scale(1.3)" />
  <path
     style="fill:#ffffff;stroke-width:0.164847"
     d="m 339.8365,132.02751 c -5.21215,-1.16698 -8.29782,-6.10189 -7.51592,-12.02021 0.59901,-4.53395 3.25282,-7.70091 7.26387,-8.66842 1.30366,-0.31446 3.98521,-0.27125 5.19267,0.0837 3.39306,0.99737 5.87027,3.59397 6.75242,7.07784 1.0546,4.16492 -0.19718,9.06552 -2.90842,11.38624 -2.27467,1.94704 -5.80628,2.80771 -8.78462,2.14087 z m 4.19881,-2.23295 c 2.28379,-0.51565 4.15738,-2.51936 4.87054,-5.20881 0.34193,-1.28947 0.34808,-4.26412 0.0118,-5.69145 -0.83695,-3.55208 -3.32169,-5.56211 -6.8757,-5.56211 -1.44455,0 -2.83706,0.37169 -3.89058,1.03848 -2.25848,1.42943 -3.20805,3.59775 -3.22698,7.36871 -0.0154,3.06406 0.62452,4.85839 2.29655,6.43972 1.78683,1.68992 4.07852,2.2332 6.81441,1.61546 z"
     id="path1623"
     transform="scale(1.3)" />
  <path
     style="fill:#ffffff;stroke-width:0.164847"
     d="m 312.05503,121.65695 v -10.30292 l 1.35998,8.3e-4 1.35999,8.4e-4 5.43994,8.15206 c 2.99197,4.48364 5.49559,8.15522 5.56358,8.15908 0.068,0.004 0.12364,-3.66494 0.12364,-8.1529 v -8.15991 h 1.23635 1.23635 v 10.30292 10.30293 h -1.36227 -1.36227 l -5.16497,-7.72368 c -2.84073,-4.24803 -5.34064,-7.93854 -5.55536,-8.20113 l -0.3904,-0.47745 -0.006,8.20113 -0.006,8.20113 h -1.23635 -1.23635 z"
     id="path1662"
     transform="scale(1.3)" />
  <path
     style="fill:#ffffff;stroke-width:0.164847"
     d="m 291.28433,121.65695 v -10.30292 h 1.31877 1.31878 v 4.28601 4.28602 h 5.43994 5.43995 v -4.28602 -4.28601 h 1.31877 1.31878 v 10.30292 10.30293 h -1.31878 -1.31877 v -4.86298 -4.86298 h -5.43995 -5.43994 v 4.86298 4.86298 h -1.31878 -1.31877 z"
     id="path1701"
     transform="scale(1.3)" />
  <path
     style="fill:#ffffff;stroke-width:0.164847"
     d="m 424.9751,121.65695 v -10.30292 h 7.4181 7.41811 v 1.15392 1.15393 h -6.09933 -6.09933 v 3.21451 3.21452 h 5.76964 5.76963 v 1.15392 1.15393 h -5.76963 -5.76964 v 3.62663 3.62663 h 6.3466 6.3466 v 1.15393 1.15393 h -7.66538 -7.66537 z"
     id="path1740"
     transform="scale(1.3)" />
  <path
     style="fill:#ffffff;stroke-width:0.164847"
     d="m 450.36151,132.1845 c -2.42395,-0.35391 -3.89003,-1.01041 -5.09011,-2.27932 -1.01768,-1.07605 -1.65617,-2.37453 -1.78596,-3.63203 l -0.0936,-0.90714 0.92972,-0.0275 c 0.51134,-0.0151 1.05107,-0.0337 1.19939,-0.0412 0.19253,-0.01 0.33568,0.24416 0.50037,0.88766 0.30705,1.19981 0.67268,1.79016 1.4991,2.4205 1.25668,0.9585 2.35311,1.27134 4.48958,1.28098 1.73765,0.008 1.97784,-0.0297 2.88034,-0.45033 1.19198,-0.55554 1.50662,-0.82651 1.93552,-1.6669 0.25112,-0.49203 0.3136,-0.87207 0.26159,-1.59114 -0.1352,-1.86917 -1.09741,-2.51304 -5.39257,-3.60845 -4.03168,-1.02823 -5.07311,-1.47113 -6.25829,-2.66158 -0.89074,-0.89469 -1.25266,-1.84564 -1.24791,-3.27894 0.004,-1.08894 0.0715,-1.36214 0.5695,-2.29139 0.99193,-1.85091 2.68067,-2.84153 5.4385,-3.19025 2.51203,-0.31764 5.25799,0.38516 6.85885,1.75544 0.80548,0.68946 1.63107,2.18729 1.83799,3.33456 l 0.15234,0.84471 -0.98699,0.10316 c -1.55998,0.16305 -1.49945,0.18964 -1.7244,-0.75738 -0.27284,-1.1486 -0.91835,-1.92056 -2.1062,-2.51882 -0.92637,-0.46656 -1.08918,-0.49396 -2.87766,-0.48429 -1.60931,0.009 -2.02708,0.068 -2.76499,0.39284 -2.53062,1.11384 -2.67525,4.09456 -0.24914,5.13451 0.39385,0.16883 2.06769,0.65084 3.71964,1.07114 4.67747,1.19007 6.08815,1.97833 7.05494,3.94218 0.48972,0.99474 0.51875,1.15186 0.44847,2.42717 -0.12843,2.33044 -1.25946,3.94415 -3.51079,5.00905 -1.57631,0.74562 -3.82336,1.05489 -5.68721,0.78275 z"
     id="path1779"
     transform="scale(1.3)" />
  <path
     style="fill:#ffffff;stroke-width:0.164847"
     d="m 276.9998,132.1091 c -2.85326,-0.47669 -4.84862,-1.98968 -6.16368,-4.67364 -1.02131,-2.08445 -1.22915,-3.08941 -1.22915,-5.94335 0,-2.12983 0.0535,-2.64415 0.38556,-3.70906 1.31553,-4.21844 4.58532,-6.60896 9.09313,-6.64792 2.68211,-0.0232 4.2901,0.55957 5.9728,2.1646 0.66395,0.6333 1.16235,1.32031 1.6174,2.22948 0.36176,0.72276 0.63793,1.33372 0.61373,1.35767 -0.0242,0.024 -0.60542,0.18728 -1.29159,0.36292 l -1.24758,0.31936 -0.28001,-0.7884 c -0.43314,-1.21952 -1.42275,-2.35154 -2.53176,-2.89611 -0.89104,-0.43753 -1.09407,-0.47004 -2.93541,-0.47004 -1.79282,0 -2.06496,0.0407 -2.9046,0.4344 -1.80948,0.84845 -2.78186,2.04407 -3.46762,4.26374 -0.31874,1.03168 -0.38234,1.60475 -0.38423,3.46178 -0.005,4.61624 1.33287,7.02348 4.53642,8.16423 1.10705,0.39421 3.31496,0.35292 4.48226,-0.0838 1.65527,-0.61932 3.04196,-2.19197 3.60008,-4.08288 0.22701,-0.76912 0.22672,-0.76895 0.91302,-0.54381 0.26286,0.0862 0.79114,0.2369 1.17395,0.33482 l 0.69602,0.17802 -0.38281,1.05463 c -0.75468,2.07911 -2.32337,3.90498 -4.10302,4.77568 -1.64844,0.8065 -4.0386,1.09261 -6.16291,0.7377 z"
     id="path1818"
     transform="scale(1.3)" />
  <path
     style="fill:#ffffff;stroke-width:0.164847"
     d="m 251.0617,121.65695 v -10.30292 h 7.41811 7.41811 v 1.15392 1.15393 h -6.09933 -6.09934 v 3.21451 3.21452 h 5.68722 5.68721 v 1.15392 1.15393 h -5.68721 -5.68722 v 3.62663 3.62663 h 6.34661 6.3466 v 1.15393 1.15393 h -7.66538 -7.66538 z"
     id="path1857"
     transform="scale(1.3)" />
  <path
     style="fill:#ffffff;stroke-width:0.164847"
     d="m 238.53335,122.81088 v -9.149 h -3.46179 -3.46178 v -1.15393 -1.15392 h 8.15992 8.15991 v 1.15392 1.15393 h -3.46178 -3.46178 v 9.149 9.149 h -1.23635 -1.23635 z"
     id="path1896"
     transform="scale(1.3)" />
</svg>
