<?xml version="1.0" encoding="UTF-8" standalone="no"?>
<svg
   height="166.4"
   viewBox="0 0 3813.164 1164.8"
   width="544.738"
   version="1.1"
   id="svg12"
   sodipodi:docname="jaleco-w.svg"
   inkscape:version="1.1 (c68e22c387, 2021-05-23)"
   xmlns:inkscape="http://www.inkscape.org/namespaces/inkscape"
   xmlns:sodipodi="http://sodipodi.sourceforge.net/DTD/sodipodi-0.dtd"
   xmlns="http://www.w3.org/2000/svg"
   xmlns:svg="http://www.w3.org/2000/svg">
  <defs
     id="defs16" />
  <sodipodi:namedview
     id="namedview14"
     pagecolor="#ffffff"
     bordercolor="#666666"
     borderopacity="1.0"
     inkscape:pageshadow="2"
     inkscape:pageopacity="0.0"
     inkscape:pagecheckerboard="0"
     showgrid="false"
     inkscape:zoom="1.9422182"
     inkscape:cx="272.11155"
     inkscape:cy="83.152347"
     inkscape:window-width="1920"
     inkscape:window-height="1017"
     inkscape:window-x="-8"
     inkscape:window-y="712"
     inkscape:window-maximized="1"
     inkscape:current-layer="svg12" />
  <g
     fill-rule="evenodd"
     stroke-width=".606"
     id="g4">
    <path
       d="M1494.825 331.741h136.864v427.7c0 292.386-376.614 225.923-370.673-5.703h131.161c-1.009 78.95 102.648 113.007 102.648 5.703zM1660.202 941.926h142.567l34.215-188.188h136.864l28.514 188.188h142.566L2042.28 331.74h-279.43zm193.89-325.052h96.946l-48.8-252.047zM2504.196 941.926H2190.55V331.74h142.566v479.024h171.08zM2869.166 941.926h-342.16V331.74h342.16V457.2h-199.593v96.945h199.593v131.161h-199.593v131.161h199.593zM3211.326 559.848h136.863c1.06-65.452-34.097-244.904-220.058-239.72-110.986 3.093-211.135 87.74-213.344 308.151-3.244 323.765 163.847 327.33 199.934 326.586 236.856-4.876 236.482-227.414 233.557-269.316l-136.952-.243c-5.8 71.34-16.27 138.14-86.547 133.225-68.19-7.251-61.35-111.215-61.722-190.251-.363-76.859-.13-172.258 70.662-175.17 56.526 2.171 68.233 57.047 77.607 106.738zM3589.657 317.893c-148.97-1.988-220.746 132.29-215.677 316.251 7.871 285.632 128.58 319.588 220.147 318.486 158.724-1.886 218.36-142.146 219.03-301.724.704-168.003-47.348-330.663-223.5-333.013zm3.353 135.217c-71.452 2.122-78.517 94.877-78.225 170.977.112 28.762-4.562 198.074 79.342 196.679 79.068-1.334 76.937-122.177 78.225-191.092 1.33-71.178-4.735-178.78-79.342-176.564z"
       id="path2" />
  </g>
  <g
     stroke="#000"
     id="g10">
    <circle
       cx="582.4"
       cy="582.4"
       fill="#fff"
       fill-opacity=".995"
       opacity=".98"
       r="582.05"
       stroke-width=".7"
       id="circle6" />
    <path
       d="M582.395.355A582.05 582.05 0 0 0 .355 582.395a582.05 582.05 0 0 0 582.04 582.052 582.05 582.05 0 0 0 582.052-582.052A582.05 582.05 0 0 0 582.395.355zM291.252 164.46l75.209 80.035 89.195-80.035 82.729 80.035 80.65-80.035 83.754 80.035 83.822-80.035 166.551 170.297-81.621 80.582-87.062-80.582-78.45 80.582-83.822-80.582-80.596 80.582-88.088-80.582-82.714 80.582-162.286-170.844zM123.594 459.143l87.062 81.142 78.463-81.142 79.475 81.142 87.062-81.142 81.69 81.142 83.822-81.142 81.621 81.142 88.17-81.142 80.582 81.142 80.596-81.142 167.644 171.404-79.556 78.969-81.69-78.97-85.955 78.97-84.861-78.97-78.45 78.97-88.101-78.97-80.582 78.97-84.93-78.97-83.822 78.97-79.488-78.97-81.69 78.97L47.36 540.286zM291.252 753.32l75.209 80.035 89.195-80.035 82.729 80.035 80.65-80.035 83.754 80.035 83.822-80.035 166.551 170.31-81.621 80.583-87.062-80.582-78.45 80.582-83.822-80.582-80.596 80.582-88.088-80.582-82.714 80.582-162.286-170.858z"
       fill="#246bbe"
       fill-opacity=".992"
       opacity=".98"
       stroke-width=".7000000000000001"
       id="path8" />
  </g>
  <path
     style="fill:#ffffff;fill-opacity:0.941176;stroke-width:0.514875"
     d="m 202.237,135.16029 c -11.1253,-2.81847 -19.85782,-12.07451 -21.47145,-22.75868 -0.30757,-2.03652 -0.55923,-3.83214 -0.55923,-3.99028 0,-0.15815 4.17049,-0.28754 9.26776,-0.28754 h 9.26775 v 1.29281 c 0,2.05118 2.04223,5.84987 3.91148,7.27562 3.46347,2.64171 7.96441,1.95758 9.85272,-1.49761 0.83833,-1.53395 0.921,-4.24129 1.0531,-34.48792 l 0.14335,-32.823295 h 9.52803 9.52803 l -0.14815,34.110483 c -0.14655,33.741072 -0.1606,34.147132 -1.29706,37.494312 -2.41175,7.1032 -7.1993,12.38597 -13.52111,14.91972 -3.64418,1.46056 -11.29846,1.83078 -15.55522,0.75238 z"
     id="path870"
     transform="scale(6.9999984)" />
  <path
     style="fill:#ffffff;fill-opacity:0.941176;stroke-width:0.514875"
     d="m 237.48507,133.73884 c 0.13078,-0.35398 3.45609,-19.81893 7.38958,-43.25545 l 7.15181,-42.611854 19.79199,0.134648 19.79198,0.134648 7.08431,41.96233 c 3.89637,23.079278 7.09709,42.483638 7.11272,43.120798 l 0.0284,1.15847 h -9.72533 -9.72533 l -0.30471,-1.67334 c -0.1676,-0.92034 -1.0093,-6.42307 -1.87045,-12.22829 -0.86115,-5.80522 -1.681,-11.07625 -1.82189,-11.71341 -0.25495,-1.15297 -0.30383,-1.15847 -10.28643,-1.15847 -5.51664,0 -10.03026,0.13298 -10.03026,0.29551 0,0.16253 -1.04262,6.00128 -2.31693,12.97502 -1.27432,6.97373 -2.31694,12.86479 -2.31694,13.09125 0,0.22645 -4.54282,0.41173 -10.09516,0.41173 -7.85968,0 -10.0425,-0.14252 -9.85738,-0.64359 z m 41.40697,-46.338772 c -0.15508,-0.637159 -1.69824,-8.572673 -3.42924,-17.634477 -3.20421,-16.774097 -3.4833,-18.064627 -3.82953,-17.708169 -0.18859,0.194165 -6.98741,35.340493 -6.98741,36.121252 0,0.208925 3.26883,0.379863 7.26407,0.379863 h 7.26407 z"
     id="path909"
     transform="scale(6.9999984)" />
  <path
     style="fill:#ffffff;fill-opacity:0.941176;stroke-width:0.514875"
     d="M 313.04413,91.132913 V 47.883395 h 10.04007 10.04006 v 33.981764 33.981761 h 12.09957 12.09957 v 9.26776 9.26775 h -22.13964 -22.13963 z"
     id="path948"
     transform="scale(6.9999984)" />
  <path
     style="fill:#ffffff;fill-opacity:0.941176;stroke-width:0.514875"
     d="M 361.4424,91.132913 V 47.883395 h 24.19914 24.19913 v 8.495441 8.495441 h -14.41651 -14.4165 v 7.208253 7.208253 h 14.4165 14.41651 v 9.267754 9.267754 h -14.41651 -14.4165 v 9.525189 9.52519 h 14.4165 14.41651 v 8.75288 8.75288 H 385.64154 361.4424 Z"
     id="path987"
     transform="scale(6.9999984)" />
  <path
     style="fill:#ffffff;fill-opacity:0.941176;stroke-width:0.514875"
     d="m 436.55155,134.73833 c -9.74159,-3.32062 -16.28296,-13.19566 -18.7193,-28.25918 -2.58452,-15.979681 -0.85324,-33.387066 4.36906,-43.929151 5.34495,-10.78967 14.3114,-16.452747 25.99756,-16.419675 8.75085,0.02476 15.60881,2.943099 20.98708,8.93084 4.54316,5.057987 8.61825,15.458228 8.61825,21.995041 v 2.749453 h -9.42218 -9.42218 l -0.66198,-3.21797 c -1.40849,-6.846734 -4.05617,-10.571496 -8.33325,-11.723192 -4.17616,-1.124525 -7.97312,0.702338 -9.9743,4.799023 -2.14634,4.393828 -2.55001,7.823404 -2.5573,21.726831 -0.007,13.39054 0.41129,17.18244 2.30744,20.9164 3.49057,6.87377 12.83598,6.48365 16.49498,-0.68858 1.11048,-2.17671 2.51839,-8.61713 2.51839,-11.52023 v -1.756774 h 9.78262 9.78263 v 1.429412 c 0,3.136102 -1.11105,10.353442 -2.11815,13.759402 -4.21845,14.2666 -15.53154,22.42348 -31.04494,22.38378 -4.01638,-0.0103 -5.96866,-0.27697 -8.60443,-1.17543 z"
     id="path1026"
     transform="scale(6.9999984)" />
  <path
     style="fill:#ffffff;fill-opacity:0.941176;stroke-width:0.514875"
     d="m 506.63721,135.35076 c -7.00547,-1.12787 -14.11138,-6.43509 -17.64571,-13.17913 -4.2996,-8.20427 -5.99051,-16.21044 -6.39242,-30.267054 -0.43501,-15.214513 1.25234,-24.13188 6.13767,-32.436489 5.35514,-9.103227 13.25867,-13.624187 23.84207,-13.638082 8.59699,-0.01129 14.45423,2.299227 20.11555,7.935005 2.92453,2.91134 4.13218,4.626566 6.00918,8.534891 4.28805,8.928647 5.76404,17.871916 5.38824,32.648396 -0.29597,11.637883 -1.46044,17.130253 -5.26891,24.851613 -5.95252,12.06825 -17.91556,17.84831 -32.18567,15.55085 z m 10.13527,-18.50838 c 5.73943,-2.17462 7.89144,-9.53394 7.87642,-26.93538 -0.0126,-14.643139 -1.34615,-20.05872 -5.8335,-23.690635 -1.73818,-1.406821 -2.36273,-1.599526 -5.18405,-1.599526 -5.42546,0 -8.45188,2.826674 -10.47391,9.782629 -1.0406,3.579741 -1.47444,21.521666 -0.65661,27.154332 1.14977,7.91872 3.37021,12.69809 6.89911,14.84991 1.78931,1.09107 5.12658,1.28963 7.37254,0.43867 z"
     id="path1065"
     transform="scale(6.9999984)" />
</svg>
