<?xml version="1.0" encoding="UTF-8" standalone="no"?>
<svg
   width="239.76"
   height="78.762"
   xml:space="preserve"
   version="1.1"
   id="svg12"
   sodipodi:docname="kodi-w.svg"
   inkscape:version="1.1 (c68e22c387, 2021-05-23)"
   xmlns:inkscape="http://www.inkscape.org/namespaces/inkscape"
   xmlns:sodipodi="http://sodipodi.sourceforge.net/DTD/sodipodi-0.dtd"
   xmlns="http://www.w3.org/2000/svg"
   xmlns:svg="http://www.w3.org/2000/svg"><defs
   id="defs16" /><sodipodi:namedview
   id="namedview14"
   pagecolor="#ffffff"
   bordercolor="#666666"
   borderopacity="1.0"
   inkscape:pageshadow="2"
   inkscape:pageopacity="0.0"
   inkscape:pagecheckerboard="0"
   showgrid="false"
   inkscape:zoom="4.4127462"
   inkscape:cx="119.76669"
   inkscape:cy="39.31792"
   inkscape:window-width="1920"
   inkscape:window-height="1017"
   inkscape:window-x="-8"
   inkscape:window-y="712"
   inkscape:window-maximized="1"
   inkscape:current-layer="svg12" />
    <g
   fill="#6B6B6B"
   id="g6">
        <path
   d="M159.353 16.817c.404.026.81.05 1.215.08 3.107.213 6.078.942 8.853 2.384 1.982 1.031 3.74 2.365 5.309 3.955 1.703 1.728 3.111 3.664 4.171 5.848.779 1.603 1.319 3.286 1.694 5.025.458 2.134.609 4.293.518 6.466-.146 3.486-.917 6.818-2.561 9.92-1.147 2.164-2.642 4.062-4.42 5.742-2.852 2.692-6.193 4.448-10.033 5.263-1.421.3-2.854.49-4.306.534-.065.003-.13.022-.196.033h-1.709c-.371-.027-.743-.052-1.113-.08-4.446-.322-8.505-1.695-12.022-4.494-2.775-2.208-4.949-4.902-6.431-8.137-.754-1.643-1.259-3.367-1.595-5.141a25.67 25.67 0 0 1-.4-6.07c.216-4.287 1.345-8.29 3.832-11.837 2.91-4.15 6.717-7.101 11.63-8.528a22.59 22.59 0 0 1 4.58-.844c.494-.038.988-.057 1.481-.087.081-.005.161-.02.241-.031h1.262zm-.676 39.432c1.58-.012 3.11-.142 4.61-.513 3.268-.807 5.985-2.502 8.145-5.087 2.206-2.638 3.352-5.703 3.663-9.101.107-1.163.12-2.328.05-3.495-.075-1.266-.242-2.519-.577-3.744-1.049-3.824-3.197-6.875-6.496-9.083-2.47-1.65-5.231-2.405-8.176-2.551-1.61-.08-3.21-.007-4.797.282-2.773.503-5.24 1.648-7.367 3.51a15.589 15.589 0 0 0-4.475 6.584c-.699 1.952-.978 3.974-1.007 6.038-.024 1.603.09 3.197.438 4.763.632 2.828 1.903 5.325 3.888 7.452a15.101 15.101 0 0 0 6.263 4.055c1.906.648 3.875.869 5.838.89M239.76 61.05c-.168.404-.296.486-.753.486h-4.477c-.525 0-.718-.196-.718-.724V18.087c0-.548.193-.74.749-.74 1.492 0 2.984-.006 4.475.008.185.001.385.074.543.171.095.06.123.228.18.348V61.05z"
   id="path2" />
        <path
   d="m118.07 35.272 2.243 2.98 4.742 6.303 6.099 8.104c1.992 2.648 3.982 5.296 5.977 7.941.149.195.212.393.107.62-.108.228-.317.302-.552.314-.108.007-.216.001-.325.001-1.838 0-3.676 0-5.514.002a.85.85 0 0 1-.742-.366c-3.466-4.632-6.94-9.26-10.413-13.89l-5.918-7.882c-.016-.022-.035-.042-.063-.075l-.714.665-4.798 4.488c-.881.823-1.763 1.647-2.65 2.466a.448.448 0 0 0-.161.366c.004 4.474.003 8.95.003 13.427 0 .054.002.108 0 .163-.011.41-.22.633-.63.635a755.42 755.42 0 0 1-4.7 0c-.397-.002-.606-.225-.615-.625V18.086c0-.54.195-.738.73-.738h4.294c.095 0 .19-.003.285 0 .414.02.618.224.636.636.003.061 0 .122 0 .183v20.957c.355-.331.676-.628.994-.928 1.89-1.772 3.776-3.545 5.667-5.317l7.436-6.966 6.229-5.845c.876-.822 1.753-1.64 2.626-2.464a.89.89 0 0 1 .638-.257h6.572c.373 0 .584.136.663.416.065.23-.024.41-.185.564-.635.603-1.268 1.205-1.904 1.805-1.125 1.06-2.252 2.119-3.376 3.18-1.56 1.469-3.119 2.937-4.676 4.408-1.598 1.507-3.194 3.017-4.791 4.523-1.064 1.007-2.131 2.008-3.214 3.029M187.91 39.447V18.166l.001-.184c.008-.402.211-.611.61-.634h.08c6.085 0 12.168-.015 18.252.009 2.798.01 5.474.638 8.03 1.78a18.894 18.894 0 0 1 5.868 4.123c2.764 2.837 4.599 6.185 5.5 10.046.52 2.223.735 4.474.688 6.751-.065 3.06-.596 6.03-1.755 8.873-.968 2.373-2.355 4.481-4.103 6.351-2.68 2.872-5.938 4.76-9.755 5.684a21.1 21.1 0 0 1-5.01.575c-5.893-.008-11.786-.003-17.681-.004-.1 0-.203-.008-.302-.022a.44.44 0 0 1-.392-.383 1.938 1.938 0 0 1-.03-.341V39.447m5.952 16.401h.262c3.96 0 7.921.004 11.882-.003.71-.003 1.423-.032 2.131-.086 1.471-.117 2.875-.506 4.215-1.122 1.754-.802 3.228-1.972 4.496-3.418a16.208 16.208 0 0 0 2.806-4.496c.733-1.759 1.127-3.593 1.272-5.492a22.66 22.66 0 0 0-.18-5.169 16.427 16.427 0 0 0-1.986-5.719c-1.132-1.98-2.594-3.675-4.47-4.985-2.246-1.568-4.77-2.298-7.492-2.311-4.238-.02-8.479-.006-12.717-.007h-.22v32.808z"
   id="path4" />
    </g>
    <g
   fill="#31AFE1"
   id="g10">
        <path
   d="M79.067 40.037c-.256.827-.814 1.433-1.413 2.03-4.01 3.996-8.008 8.007-12.01 12.011-1.443 1.444-2.984 1.44-4.431-.01-4.131-4.133-8.262-8.267-12.39-12.402-1.407-1.407-1.406-2.945.004-4.356 4.152-4.16 8.306-8.316 12.46-12.472 1.35-1.353 2.939-1.353 4.29-.002 4.027 4.028 8.048 8.061 12.082 12.082.599.596 1.156 1.204 1.408 2.033v1.086zM39.254 78.762c-.823-.262-1.42-.832-2.014-1.429-3.993-4.014-7.998-8.015-12-12.022-1.432-1.434-1.434-2.963-.005-4.393 4.141-4.144 8.283-8.29 12.425-12.433 1.378-1.38 2.955-1.384 4.325-.013l12.424 12.434c1.423 1.426 1.427 2.987.01 4.403-4.036 4.042-8.079 8.078-12.106 12.127-.576.578-1.17 1.1-1.972 1.326h-1.087zM24.72 29.562c0-4.609.04-9.218-.027-13.826-.019-1.333.299-2.375 1.318-3.255.818-.708 1.545-1.525 2.312-2.294l9.11-9.117c1.428-1.428 2.968-1.427 4.395 0L54.22 13.47c1.42 1.42 1.418 2.982 0 4.402-4.885 4.891-9.77 9.78-14.657 14.67-4.314 4.32-8.628 8.639-12.943 12.956-.8.801-1.508.615-1.798-.495-.09-.343-.097-.714-.097-1.072-.006-4.79-.005-9.579-.005-14.368M14.841 39.548c0 4.228.006 8.46-.009 12.688a3.445 3.445 0 0 1-.209 1.2c-.282.734-.812.825-1.366.272-1.945-1.942-3.885-3.889-5.826-5.834-2.245-2.248-4.49-4.495-6.732-6.745-.929-.931-.933-2.222-.008-3.158L13.086 25.44c.273-.276.531-.65.996-.475.444.168.619.568.682 1.012.04.275.07.555.07.833.005 4.246.003 8.491.003 12.739h.004z"
   id="path8" />
    </g>
<path
   style="fill:#ffffff;fill-opacity:0.941176;stroke-width:0.226616"
   d="m 99.635612,61.261926 c -0.188744,-0.188742 -0.202056,-42.962709 -0.01352,-43.454016 0.114761,-0.299063 0.584128,-0.358459 2.832698,-0.358459 1.48233,0 2.71817,0.02549 2.7463,0.05665 0.0281,0.03116 0.10462,4.930285 0.16996,10.886944 l 0.11882,10.83029 11.6198,-10.89253 11.61981,-10.89253 3.67679,0.06224 c 2.64982,0.04486 3.67679,0.13732 3.67679,0.331042 0,0.147841 -4.0281,4.068969 -8.95134,8.713617 -4.92324,4.644649 -8.94555,8.602781 -8.93847,8.795849 0.007,0.193068 4.26464,5.996526 9.46123,12.896576 5.19659,6.900048 9.44835,12.689987 9.44835,12.86653 0,0.265232 -0.5806,0.310095 -3.34259,0.258275 l -3.34259,-0.06271 -8.27149,-11.037145 c -4.54932,-6.070429 -8.32616,-11.041822 -8.39297,-11.04754 -0.0668,-0.0057 -1.97889,1.730593 -4.24906,3.858472 l -4.12757,3.868868 v 6.876869 c 0,3.782278 -0.0619,7.038175 -0.13756,7.235327 -0.11461,0.298669 -0.5808,0.358459 -2.79493,0.358459 -1.46156,0 -2.725365,-0.06799 -2.808458,-0.151078 z"
   id="path870" /><path
   style="fill:#ffffff;fill-opacity:0.941176;stroke-width:0.226616"
   d="m 154.17646,61.545088 c -4.49054,-0.853945 -8.19705,-2.836771 -11.39956,-6.098276 -2.94061,-2.994794 -4.68365,-6.126407 -5.72211,-10.280611 -0.71886,-2.87567 -0.71973,-8.590934 -0.002,-11.462545 0.99678,-3.986693 2.76853,-7.19647 5.57709,-10.103645 4.13525,-4.280457 8.82076,-6.311322 15.09479,-6.542616 7.89216,-0.290946 14.23278,2.545387 18.73754,8.38181 5.95875,7.720221 6.05396,19.961265 0.21567,27.726887 -1.19866,1.594357 -3.68646,4.003412 -5.23336,5.067706 -1.55342,1.068774 -4.50413,2.392347 -6.58144,2.952169 -2.33852,0.630217 -8.22167,0.827915 -10.68686,0.359121 z m 9.49095,-5.826712 c 5.60914,-1.55437 9.58904,-5.659714 11.06612,-11.414899 0.64922,-2.529601 0.64794,-7.187708 -0.003,-9.716887 -1.48907,-5.788529 -5.65333,-10.032926 -11.27243,-11.489375 -2.47736,-0.642121 -6.95988,-0.644244 -9.41759,-0.0045 -5.62036,1.463073 -9.77069,5.612644 -11.32005,11.317992 -0.67624,2.49016 -0.67237,7.564328 0.008,10.071016 0.76673,2.826217 2.14009,5.222915 4.11816,7.186745 2.66293,2.643764 5.44084,4.016986 9.11525,4.506008 2.21862,0.295272 5.7479,0.08635 7.70554,-0.456138 z"
   id="path909" /><path
   style="fill:#ffffff;fill-opacity:0.941176;stroke-width:0.226616"
   d="m 188.14701,39.501682 0.0578,-21.938922 h 10.65096 c 10.34282,0 10.70669,0.01483 12.5772,0.512526 9.88243,2.629479 16.00346,11.798623 15.32572,22.95753 -0.58539,9.638277 -6.08902,16.936562 -14.80527,19.633059 l -1.99345,0.6167 -10.93537,0.07901 -10.93536,0.07902 z m 21.42592,16.115013 c 2.7573,-0.564362 4.40267,-1.485111 6.63205,-3.711287 2.89773,-2.893561 4.19831,-5.658404 4.74856,-10.09471 0.48057,-3.874573 -0.1772,-7.799915 -1.85264,-11.055863 -1.2108,-2.353002 -3.94748,-5.207199 -5.96832,-6.224614 -2.89307,-1.456554 -3.1255,-1.488325 -11.61408,-1.587537 l -7.7616,-0.09072 V 39.413087 55.97421 h 7.03465 c 5.5177,0 7.41132,-0.07709 8.78138,-0.357519 z"
   id="path948" /><path
   style="fill:#ffffff;fill-opacity:0.941176;stroke-width:0.226616"
   d="m 233.97238,61.129734 c -0.0594,-0.155799 -0.0817,-10.022104 -0.0495,-21.925122 l 0.0584,-21.641852 2.57365,-0.0643 c 1.70354,-0.04256 2.68039,0.02428 2.88936,0.19771 0.26578,0.220577 0.3157,3.641359 0.3157,21.630966 0,11.752925 -0.0619,21.53026 -0.13755,21.727412 -0.11479,0.299138 -0.58476,0.358459 -2.83981,0.358459 -1.95315,0 -2.7322,-0.07853 -2.81025,-0.28327 z"
   id="path987" /></svg>
