<?xml version="1.0" encoding="UTF-8" standalone="no"?>
<svg
   height="400"
   viewBox="0 0 907.472 1000"
   width="362.989"
   version="1.1"
   id="svg16"
   sodipodi:docname="konami.svg"
   inkscape:version="1.1 (c68e22c387, 2021-05-23)"
   xmlns:inkscape="http://www.inkscape.org/namespaces/inkscape"
   xmlns:sodipodi="http://sodipodi.sourceforge.net/DTD/sodipodi-0.dtd"
   xmlns="http://www.w3.org/2000/svg"
   xmlns:svg="http://www.w3.org/2000/svg">
  <defs
     id="defs20" />
  <sodipodi:namedview
     id="namedview18"
     pagecolor="#ffffff"
     bordercolor="#666666"
     borderopacity="1.0"
     inkscape:pageshadow="2"
     inkscape:pageopacity="0.0"
     inkscape:pagecheckerboard="0"
     showgrid="false"
     inkscape:zoom="2.08"
     inkscape:cx="181.49038"
     inkscape:cy="199.75962"
     inkscape:window-width="1920"
     inkscape:window-height="1017"
     inkscape:window-x="-8"
     inkscape:window-y="712"
     inkscape:window-maximized="1"
     inkscape:current-layer="svg16" />
  <g
     fill-rule="evenodd"
     id="g14">
    <g
       clip-rule="evenodd"
       fill="gray"
       id="g6">
      <path
         d="M71.54 848.308 16.29 996.226l39.868.02 30.902-79.49 20.473 79.475h46.765l-21.591-81.769 73.14-66.15h-47.835l-67.91 61.5 21.902-61.488z"
         id="path2" />
      <path
         d="M317.22 873.37c-1.398-3.948-3.463-7.673-6.049-10.996a40.398 40.398 0 0 0-9.187-8.614c-3.488-2.359-7.356-4.16-11.78-5.583-9.013-2.855-19.643-4.164-29.633-3.959-5.074.108-10.138.598-16.122 1.743-5.988 1.142-12.893 2.943-19.376 5.744a69.705 69.705 0 0 0-17.879 11.22c-5.33 4.61-9.935 10.028-13.332 14.742-3.39 4.71-5.575 8.713-7.668 12.753-2.087 4.04-4.09 8.115-5.922 12.265-3.526 8.212-6.796 16.166-9.346 23.871a89.176 89.176 0 0 0-2.844 11.681 111.152 111.152 0 0 0-1.31 10.943c-.204 3-.196 4.996-.088 6.992.102 1.993.299 3.984.56 5.966.253 1.993.571 3.98 1.689 7.172 1.115 3.195 3.024 7.582 5.707 11.48s6.135 7.285 10.073 9.954c3.94 2.67 8.36 4.622 13.394 6.039 10.2 2.83 22.19 3.668 33.427 3 5.686-.345 11.35-1.107 17.547-2.688 6.2-1.584 12.926-4 19.12-7.399a67.582 67.582 0 0 0 16.686-12.909c4.832-5.125 8.828-11.008 12.332-17.45 3.507-6.45 6.521-13.459 9.39-20.515 2.865-7.06 5.585-14.162 7.476-19.44 1.891-5.277 2.955-8.725 3.76-12.231a79.723 79.723 0 0 0 1.692-10.669c.662-7.086.444-15.128-2.317-23.111zm-39.034 21.976c-2.163 8.053-4.326 16.103-6.947 24.01s-5.693 15.66-8.766 23.417c-2.244 5.317-5.33 10.733-9.309 15.724-2.642 3.307-5.378 5.61-8.392 7.312-3.453 1.964-7.065 3.035-10.593 3.477-5.37.67-10.873-.132-15.201-2.103-2.36-1.094-4.778-2.745-6.728-4.851-2.963-3.272-3.906-6.69-4.1-9.957-.175-3.712.265-7.412 1.2-11a228.441 228.441 0 0 1 20.08-51.798 29.286 29.286 0 0 1 4.736-6.804 28.588 28.588 0 0 1 6.474-5.19c4.91-2.806 9.855-4.056 14.035-4.352 6.262-.324 12.915.223 18.267 4.737a16.976 16.976 0 0 1 5.77 11.062c.225 2.114.04 4.263-.526 6.316zM355.451 848.308l-54.16 147.934h37.747l41.99-115.692.988 115.692h57.464l55.215-147.934h-37.603L419.146 961.09l-4.11-112.782zM559.623 966.851l-2.669 29.414h37.597l2.637-147.967h-52.046L447.98 996.252h40.168l20.068-29.309zm5.248-91.703-4.2 61.915-32.78.078zM656.777 848.336l-55.259 147.902h37.67l43.516-115.951-8.51 115.98h37.254l75.402-115.98-44.044 115.963h36.76l55.521-147.902h-66.875L708.87 952.657l14.03-104.321zM861.073 848.34l-55.424 147.918h38.319l55.966-147.918z"
         id="path4" />
    </g>
    <g
       fill="#00f"
       id="g12">
      <path
         d="m725.05 0-38.534 107.413c-64.29 166.071-177.888 133.04-264.71 160.096-59.72 18.611-93.415 81.545-118.559 148.563l-30.74 95.738H0l44.292-123.078c61.1-154.671 190.573-115.681 275.534-156.216 55.406-26.434 85.77-81.078 101.036-138.053L453.44 0z"
         fill="#ff7b18"
         id="path8" />
      <path
         d="m180.69 761.529 38.535-107.413c64.29-166.071 175.448-132.951 261.108-163.489 60.298-21.496 89.497-58.107 122.16-145.17l30.74-95.738h274.24l-44.333 120.95c-80.17 166.902-190.155 113.465-275.185 153.856-50.789 24.125-89.85 92.094-105.116 149.07L452.3 761.528z"
         fill="#ff0018"
         id="path10" />
    </g>
  </g>
  <path
     style="fill:#cccccc;stroke-width:0.480769"
     d="M 7.2144193,397.71635 C 7.2160037,397.51803 12.065478,384.375 17.99103,368.50962 l 10.77373,-28.84616 7.733004,-0.1321 c 4.253153,-0.0727 7.733005,0.0545 7.733005,0.28265 0,0.22812 -1.845494,5.56839 -4.101099,11.86727 -2.255605,6.29888 -4.03172,11.66065 -3.946921,11.91504 0.0848,0.2544 6.269417,-5.08051 13.743598,-11.85535 l 13.589422,-12.31789 h 9.187625 c 5.053197,0 9.097486,0.0759 8.987313,0.16875 -0.816116,0.68748 -26.884635,24.21713 -27.766477,25.06223 l -1.123847,1.07703 4.128655,15.61387 c 2.27076,8.58763 4.128654,15.87021 4.128654,16.18353 0,0.42334 -2.303466,0.53605 -8.968385,0.43885 l -8.968385,-0.1308 -3.924736,-15.14423 c -2.158605,-8.32933 -4.03504,-15.46499 -4.169856,-15.85704 -0.225504,-0.65575 -2.160287,4.04647 -9.837324,23.90825 l -2.833237,7.33006 -7.572115,0.001 c -4.164664,10e-4 -7.5708192,-0.16036 -7.5692347,-0.35867 z"
     id="path874"
     transform="scale(2.4999993)" />
  <path
     style="fill:#cccccc;stroke-width:0.480769"
     d="m 85.576923,399.45832 c -6.772238,-0.56588 -11.24692,-2.45451 -14.457721,-6.10217 -6.203932,-7.04803 -5.505331,-17.92462 2.1826,-33.98115 3.094321,-6.4626 4.560515,-8.63825 8.498639,-12.61094 5.213823,-5.25957 12.309714,-8.13011 21.357299,-8.63978 8.34685,-0.4702 14.75801,1.22004 18.96099,4.99887 5.9482,5.34795 7.057,13.42314 3.33254,24.27044 -2.18553,6.36528 -5.92262,14.87423 -7.92601,18.04667 -6.55295,10.37685 -17.586596,15.21811 -31.948337,14.01806 z m 12.829802,-13.2169 c 4.101495,-2.54331 7.668685,-9.46984 11.447355,-22.22767 1.93617,-6.53704 2.10275,-9.23511 0.71111,-11.51766 -2.73703,-4.48927 -11.492552,-4.58235 -16.29837,-0.17327 -4.163288,3.81958 -11.093743,21.30077 -11.093743,27.98254 0,2.33617 0.213361,3.04751 1.302226,4.34155 2.060738,2.44905 4.610598,3.40856 8.442497,3.1769 2.526776,-0.15275 3.753917,-0.50652 5.488925,-1.58239 z"
     id="path913"
     transform="scale(2.4999993)" />
  <path
     style="fill:#cccccc;stroke-width:0.480769"
     d="m 121.15385,397.80418 c 0,-0.15001 4.56996,-12.75217 10.15548,-28.00481 5.58551,-15.25263 10.36629,-28.32701 10.62395,-29.05418 l 0.46847,-1.32211 h 11.73182 11.73181 l 0.009,2.04327 c 0.005,1.12379 0.3247,10.04807 0.71052,19.83173 0.38582,9.78365 0.70628,19.06851 0.71213,20.63301 0.006,1.5645 0.16752,2.68767 0.35925,2.49594 0.19174,-0.19174 3.73278,-10.34198 7.86898,-22.55609 l 7.52036,-22.20748 7.24573,-0.13255 7.24573,-0.13256 -1.29259,3.5207 c -0.71092,1.93638 -5.61951,15.13644 -10.90797,29.33347 l -9.61539,25.81278 -11.41827,0.006 -11.41826,0.006 v -22.75641 c 0,-12.51602 -0.14772,-22.90412 -0.32825,-23.08466 -0.18054,-0.18053 -3.20638,7.62596 -6.72409,17.34776 -3.51771,9.7218 -7.28782,20.1099 -8.37803,23.08466 l -1.98219,5.40865 h -7.1591 c -3.93751,0 -7.15911,-0.12273 -7.15911,-0.27274 z"
     id="path952"
     transform="scale(2.4999993)" />
  <path
     style="fill:#cccccc;stroke-width:0.480769"
     d="m 185.09582,390.03591 c 2.90018,-4.43562 11.52464,-17.58399 19.16546,-29.2186 l 13.89241,-21.15385 10.22038,-0.12995 10.22039,-0.12994 -0.31382,22.00494 c -0.1726,12.10273 -0.44786,25.30423 -0.61169,29.33668 l -0.29787,7.33173 h -7.20247 -7.20248 l 0.27993,-2.52404 c 0.15396,-1.38822 0.42044,-3.98437 0.59217,-5.76923 l 0.31225,-3.24519 h -10.5315 -10.5315 l -3.86741,5.64904 -3.86741,5.64904 -7.76495,0.13207 -7.76495,0.13206 z m 39.58879,-18.2811 c 0.61056,-6.84113 1.37855,-20.1498 1.21147,-20.99369 -0.11028,-0.55699 -2.88456,3.66323 -7.50666,11.41907 -4.03245,6.76643 -7.33173,12.41896 -7.33173,12.5612 0,0.14224 3.00089,0.25861 6.66865,0.25861 h 6.66865 z"
     id="path991"
     transform="scale(2.4999993)" />
  <path
     style="fill:#cccccc;stroke-width:0.480769"
     d="m 241.34615,397.67722 c 0,-0.21984 4.84275,-13.36286 10.76167,-29.20673 l 10.76167,-28.80703 13.05965,-0.12796 13.05965,-0.12796 -0.26878,1.57027 c -0.14782,0.86365 -1.34476,9.68325 -2.65985,19.59911 -1.3151,9.91587 -2.49727,18.6238 -2.62706,19.35096 -0.12979,0.72717 -0.0791,1.31255 0.11257,1.30086 0.19171,-0.0117 5.64904,-9.41663 12.12741,-20.89986 l 11.77884,-20.8786 13.14103,-0.0136 c 7.50882,-0.008 13.07234,0.17026 12.98077,0.41539 -0.0881,0.23594 -5.02805,13.42978 -10.97757,29.31963 l -10.8173,28.89064 -7.07926,0.007 -7.07925,0.007 1.37995,-3.72596 c 0.75898,-2.04928 4.65914,-12.35041 8.66703,-22.8914 4.00789,-10.54098 7.19708,-19.25542 7.08709,-19.36541 -0.10999,-0.10999 -6.95935,10.19113 -15.22078,22.89139 l -15.02081,23.09134 h -7.16026 -7.16025 v -1.789 c 0,-0.98395 0.65903,-10.66286 1.4645,-21.50869 0.80548,-10.84582 1.40043,-20.40116 1.32212,-21.2341 -0.10544,-1.12144 -2.38801,4.45959 -8.79624,21.50734 l -8.65384,23.02177 -7.09135,10e-4 c -3.90024,6.4e-4 -7.09135,-0.17862 -7.09135,-0.39846 z"
     id="path1030"
     transform="scale(2.4999993)" />
  <path
     style="fill:#cccccc;stroke-width:0.480769"
     d="m 333.65896,368.87019 10.9331,-29.20673 7.5679,-0.13268 c 7.08674,-0.12425 7.54605,-0.0784 7.22439,0.72115 -0.18892,0.46961 -5.06092,13.29374 -10.82666,28.49807 -5.76574,15.20433 -10.63558,28.02284 -10.82186,28.48558 -0.30182,0.74972 -1.13756,0.84134 -7.67433,0.84134 h -7.33564 z"
     id="path1069"
     transform="scale(2.4999993)" />
</svg>
