<?xml version="1.0" encoding="UTF-8" standalone="no"?>
<svg
   viewBox="0 0 570.75623 210.91376"
   height="210.91376"
   width="570.75623"
   xml:space="preserve"
   version="1.1"
   id="svg2"
   sodipodi:docname="lutro.svg"
   inkscape:version="1.1 (c68e22c387, 2021-05-23)"
   xmlns:inkscape="http://www.inkscape.org/namespaces/inkscape"
   xmlns:sodipodi="http://sodipodi.sourceforge.net/DTD/sodipodi-0.dtd"
   xmlns="http://www.w3.org/2000/svg"
   xmlns:svg="http://www.w3.org/2000/svg"
   xmlns:rdf="http://www.w3.org/1999/02/22-rdf-syntax-ns#"
   xmlns:cc="http://creativecommons.org/ns#"
   xmlns:dc="http://purl.org/dc/elements/1.1/"><sodipodi:namedview
     id="namedview32900"
     pagecolor="#ffffff"
     bordercolor="#666666"
     borderopacity="1.0"
     inkscape:pageshadow="2"
     inkscape:pageopacity="0.0"
     inkscape:pagecheckerboard="0"
     showgrid="false"
     inkscape:zoom="1.8536811"
     inkscape:cx="285.10838"
     inkscape:cy="105.46582"
     inkscape:window-width="1920"
     inkscape:window-height="1027"
     inkscape:window-x="-8"
     inkscape:window-y="712"
     inkscape:window-maximized="1"
     inkscape:current-layer="svg2" /><metadata
     id="metadata8"><rdf:RDF><cc:Work
         rdf:about=""><dc:format>image/svg+xml</dc:format><dc:type
           rdf:resource="http://purl.org/dc/dcmitype/StillImage" /><dc:title /></cc:Work></rdf:RDF></metadata><defs
     id="defs6"><clipPath
       id="clipPath16"
       clipPathUnits="userSpaceOnUse"><path
         id="path18"
         d="m 0,168.731 456.605,0 L 456.605,0 0,0 0,168.731 Z" /></clipPath></defs><g
     transform="matrix(1.25,0,0,-1.25,0,210.91375)"
     id="g10"><g
       id="g12"><g
         clip-path="url(#clipPath16)"
         id="g14"><g
           transform="translate(38.9126,30.1729)"
           id="g20"><path
             id="path22"
             style="fill:#00007f;fill-opacity:1;fill-rule:nonzero;stroke:none"
             d="m 0,0 -17.432,0 0,30.692 -4.212,0 0,-34.658 10.89,0 L 0,-3.966 0,0 Z m 4.281,20.785 c 0,-6.755 -0.107,-13.334 0.051,-19.907 0.065,-2.737 1.863,-4.536 4.436,-5.379 4.532,-1.485 8.506,-0.371 12.271,3.366 -0.191,-3.682 1.78,-2.848 3.547,-2.67 l 0,24.519 -4.239,0 c 0,-4.535 0.108,-8.858 -0.052,-13.171 C 20.228,5.738 19.884,3.823 19.15,2.189 17.933,-0.524 14.968,-1.701 12.155,-1.058 9.034,-0.346 8.643,1.966 8.666,4.634 8.713,9.97 8.68,15.306 8.68,20.785 l -4.399,0 z m 25.777,-7.569 c 1.9,0.524 4.022,0.534 4.335,1.291 1.707,4.129 5.039,3.381 8.152,3.044 2.037,-0.22 3.315,-1.502 3.226,-3.817 -0.087,-2.24 -1.66,-2.569 -3.354,-2.883 C 39.483,10.308 36.465,10.001 33.651,9.082 30.275,7.98 28.843,5.35 29.035,1.857 c 0.183,-3.322 2.149,-5.602 5.561,-6.579 4.159,-1.191 7.656,0.353 9.896,1.951 2.78,-0.936 4.717,-1.681 6.716,-2.182 0.398,-0.099 1.364,0.666 1.474,1.163 0.153,0.694 -0.133,2.121 -0.438,2.181 -2.642,0.517 -2.002,2.516 -2.023,4.166 -0.047,3.717 -0.008,7.436 -0.016,11.154 -0.01,4.851 -1.67,6.901 -6.211,7.697 -6.672,1.171 -12.023,-0.754 -13.395,-4.867 -0.251,-0.752 -0.268,-1.582 -0.541,-3.325 m 6.229,16.157 C 45.045,29.402 52.064,36.446 51.968,45.11 51.871,53.825 44.842,60.664 36.044,60.602 27.466,60.541 20.6,53.635 20.549,45.017 20.498,36.345 27.541,29.344 36.287,29.373 M 14.314,-30.172 c -29.1,-0.169 -53.061,23.59 -53.226,52.779 -0.165,29.387 23.363,53.187 52.854,53.464 C 43.04,76.345 67.159,52.565 67.319,23.446 67.481,-6.175 43.929,-30 14.314,-30.172" /></g><g
           transform="translate(90.8679,106.4254)"
           id="g24"><path
             id="path26"
             style="fill:#00007f;fill-opacity:1;fill-rule:nonzero;stroke:none"
             d="M 0,0 C 0.026,8.699 6.794,15.358 15.573,15.323 24.22,15.288 31.054,8.386 30.99,-0.25 30.927,-8.775 23.874,-15.704 15.314,-15.649 6.686,-15.595 -0.026,-8.736 0,0" /></g><g
           transform="translate(84.3901,38.2695)"
           id="g28"><path
             id="path30"
             style="fill:#00007f;fill-opacity:1;fill-rule:nonzero;stroke:none"
             d="m 0,0 c 0.882,-6.759 -2.713,-10.603 -8.58,-9.065 -1.307,0.343 -3.137,1.962 -3.175,3.047 -0.046,1.331 1.256,3.469 2.476,3.93 C -6.345,-0.98 -3.119,-0.648 0,0" /></g><g
           transform="translate(113.3172,38.3338)"
           id="g32"><path
             id="path34"
             style="fill:#00007f;fill-opacity:1;fill-rule:nonzero;stroke:none"
             d="M 0,0 C 0.472,8.475 4.649,13.004 12.532,13.586 20.557,13.191 24.927,9.656 25.64,2.981 L 17.028,3.014 C 16.534,6.197 15.699,8.3 14.525,9.321 13.35,10.364 12.153,10.188 10.935,8.794 9.727,7.4 9.09,4.54 9.024,0.214 c -0.12,-5.72 0.472,-8.958 1.779,-9.716 1.306,-0.746 2.624,-0.653 3.952,0.28 1.329,0.933 2.042,2.882 2.141,5.846 l -4.496,0.017 -0.049,3.622 13.24,0 C 24.954,-7.191 22.446,-11.473 18.065,-12.581 13.685,-13.69 9.683,-13.383 6.06,-11.659 2.437,-9.936 0.417,-6.049 0,0" /></g><g
           transform="translate(152.3623,41.825)"
           id="g36"><path
             id="path38"
             style="fill:#00007f;fill-opacity:1;fill-rule:nonzero;stroke:none"
             d="m 0,0 c -2.064,-0.088 -3.134,-1.685 -3.211,-4.792 l 0,-4.973 c 0.164,-3.052 1.257,-4.65 3.277,-4.793 1.976,0.209 2.948,1.093 2.915,2.652 l 0,8.678 C 3.134,-1.263 2.141,-0.187 0,0 m 2.882,1.746 7.723,-0.017 0,-1.367 0,-2.305 0,-1.548 0,-3.08 0,-2.322 0,-3.079 0,-1.548 0,-3.261 -7.74,0 -0.016,0.626 c -0.604,-0.472 -2.443,-0.653 -5.517,-0.543 -3.14,0.066 -5.445,1.065 -6.916,2.997 -1.471,1.943 -2.114,4.051 -1.927,6.323 0.033,2.086 0.62,3.98 1.762,5.682 1.142,1.701 3.327,2.959 6.554,3.771 3.063,0.209 5.089,-0.104 6.077,-0.939 l 0,0.61 z" /></g><g
           transform="translate(176.3559,43.9988)"
           id="g40"><path
             id="path42"
             style="fill:#00007f;fill-opacity:1;fill-rule:nonzero;stroke:none"
             d="m 0,0 c 3.93,0.626 6.4,-0.593 7.41,-3.656 0.527,1.383 2.268,2.684 5.221,3.903 5.16,0.758 7.937,-1.153 8.332,-5.731 l 0,-13.355 -6.471,0.033 0.049,11 c 0.066,2.514 -0.972,3.717 -3.112,3.607 -1.856,0.274 -3.195,-0.61 -4.019,-2.652 l 0,-12.07 -2.651,0 -1.334,0 -1.334,0 -1.333,0 1.333,0 -1.333,0 0,12.63 c 0,1.669 -0.978,2.591 -2.932,2.767 -1.372,0.121 -2.404,-0.538 -3.096,-1.976 l 0,-3.162 0,-1.564 0,-3.953 0,-1.581 0,-3.161 -3.326,0 -1.334,0 -1.334,0 -0.774,0 0,18.163 2.108,0 1.334,0 1.334,0 1.334,0 -1.334,0 2.025,0 -0.016,-2.206 C -3.771,-1.252 -2.02,-0.263 0,0" /></g><g
           transform="translate(209.2091,41.825)"
           id="g44"><path
             id="path46"
             style="fill:#00007f;fill-opacity:1;fill-rule:nonzero;stroke:none"
             d="m 0,0 c -1.91,-0.099 -2.893,-1.575 -2.948,-4.43 l 2.849,0 1.433,0 1.433,0 C 2.745,-1.707 1.822,-0.231 0,0 M -0.099,2.009 C 6.39,1.811 9.787,-1.29 10.095,-7.295 l -2.322,0 -1.433,0 -3.573,0 -1.433,0 -2.141,0 -2.141,0 c -0.099,-3.985 0.385,-6.242 1.449,-6.768 1.065,-0.516 2.119,-0.451 3.162,0.197 1.065,0.648 1.488,2.124 1.268,4.43 l 2.701,0 1.433,0 1.432,0 1.433,0 -1.433,0 1.433,0 c -0.977,-3.941 -3.03,-6.247 -6.159,-6.916 -3.129,-0.67 -6.066,-0.473 -8.81,0.592 -2.734,1.076 -4.512,3.535 -5.336,7.378 l -0.016,1.284 c 0.812,5.797 4.243,8.833 10.292,9.107" /></g><g
           transform="translate(226.9285,51.4587)"
           id="g48"><path
             id="path50"
             style="fill:#00007f;fill-opacity:1;fill-rule:nonzero;stroke:none"
             d="m 0,0 7.46,0 14.212,0 0,-5.22 -14.212,0.016 0,-5.945 11.28,0 0,-4.034 -11.28,0 0,-11.149 -7.46,0 L 0,0 Z" /></g><g
           transform="translate(262.0213,43.3401)"
           id="g52"><path
             id="path54"
             style="fill:#00007f;fill-opacity:1;fill-rule:nonzero;stroke:none"
             d="m 0,0 c 5.105,0.428 7.652,-1.449 7.641,-5.632 l -5.928,0 c 0.044,1.888 -1.126,2.794 -3.508,2.717 -1.295,-0.285 -1.949,-0.927 -1.96,-1.927 l 0,-3.161 0,-1.565 0,-3.952 0,-1.581 0,-3.162 -3.935,0 -1.581,0 -1.581,0 -0.922,0 0,18.164 2.503,0 1.581,0 1.58,0 1.565,0 -1.565,0 2.388,0 -0.016,-2.206 C -2.904,-1.12 -1.658,-0.351 0,0" /></g><g
           transform="translate(282.4249,41.825)"
           id="g56"><path
             id="path58"
             style="fill:#00007f;fill-opacity:1;fill-rule:nonzero;stroke:none"
             d="m 0,0 c -2.064,-0.088 -3.134,-1.685 -3.211,-4.792 l 0,-4.973 c 0.164,-3.052 1.257,-4.65 3.277,-4.793 1.976,0.209 2.948,1.093 2.915,2.652 l 0,8.678 C 3.134,-1.263 2.141,-0.187 0,0 m 2.882,1.746 7.723,-0.017 0,-1.367 0,-2.305 0,-1.548 0,-3.08 0,-2.322 0,-3.079 0,-1.548 0,-3.261 -7.74,0 -0.016,0.626 c -0.604,-0.472 -2.443,-0.653 -5.517,-0.543 -3.14,0.066 -5.445,1.065 -6.916,2.997 -1.471,1.943 -2.114,4.051 -1.927,6.323 0.033,2.086 0.62,3.98 1.762,5.682 1.142,1.701 3.327,2.959 6.554,3.771 3.063,0.209 5.089,-0.104 6.077,-0.939 l 0,0.61 z" /></g><g
           transform="translate(306.4184,43.9988)"
           id="g60"><path
             id="path62"
             style="fill:#00007f;fill-opacity:1;fill-rule:nonzero;stroke:none"
             d="m 0,0 c 3.93,0.626 6.4,-0.593 7.41,-3.656 0.527,1.383 2.268,2.684 5.221,3.903 5.16,0.758 7.937,-1.153 8.332,-5.731 l 0,-13.355 -6.471,0.033 0.049,11 c 0.066,2.514 -0.972,3.717 -3.112,3.607 -1.856,0.274 -3.195,-0.61 -4.019,-2.652 l 0,-12.07 -2.651,0 -1.334,0 -1.334,0 -1.333,0 1.333,0 -1.333,0 0,12.63 c 0,1.669 -0.978,2.591 -2.932,2.767 -1.372,0.121 -2.404,-0.538 -3.096,-1.976 l 0,-3.162 0,-1.564 0,-3.953 0,-1.581 0,-3.161 -3.326,0 -1.334,0 -1.334,0 -0.774,0 0,18.163 2.108,0 1.334,0 1.334,0 1.334,0 -1.334,0 2.025,0 -0.016,-2.206 C -3.771,-1.252 -2.02,-0.263 0,0" /></g><g
           transform="translate(339.2716,41.825)"
           id="g64"><path
             id="path66"
             style="fill:#00007f;fill-opacity:1;fill-rule:nonzero;stroke:none"
             d="m 0,0 c -1.91,-0.099 -2.893,-1.575 -2.948,-4.43 l 2.849,0 1.433,0 1.433,0 C 2.745,-1.707 1.822,-0.231 0,0 M -0.099,2.009 C 6.389,1.811 9.787,-1.29 10.095,-7.295 l -2.322,0 -1.433,0 -3.573,0 -1.433,0 -2.141,0 -2.141,0 c -0.099,-3.985 0.385,-6.242 1.449,-6.768 1.065,-0.516 2.119,-0.451 3.162,0.197 1.065,0.648 1.488,2.124 1.268,4.43 l 2.701,0 1.433,0 1.432,0 1.433,0 -1.433,0 1.433,0 c -0.977,-3.941 -3.03,-6.247 -6.159,-6.916 -3.129,-0.67 -6.065,-0.473 -8.81,0.592 -2.734,1.076 -4.512,3.535 -5.336,7.378 l -0.016,1.284 c 0.812,5.797 4.243,8.833 10.292,9.107" /></g><g
           transform="translate(350.6838,44.1964)"
           id="g68"><path
             id="path70"
             style="fill:#00007f;fill-opacity:1;fill-rule:nonzero;stroke:none"
             d="M 0,0 7.509,0 10.77,-12.005 14.87,0 21.869,0 26.134,-12.005 29.395,0 l 7.443,0 -7.443,-19.07 -6.9,0 -4.1,11.478 -3.953,-11.478 -6.933,0 L 0,0 Z" /></g><g
           transform="translate(399.7907,41.5615)"
           id="g72"><path
             id="path74"
             style="fill:#00007f;fill-opacity:1;fill-rule:nonzero;stroke:none"
             d="m 0,0 c -2.185,-0.066 -3.305,-1.493 -3.359,-4.282 l 0,-5.5 c 0.153,-2.723 1.295,-4.155 3.425,-4.298 2.108,0.198 3.14,1.663 3.096,4.397 l 0,5.335 C 3.107,-1.471 2.053,-0.022 0,0 m -10.819,-6.422 c 0.285,3.282 1.41,5.577 3.376,6.883 1.965,1.307 4.325,1.916 7.081,1.828 l 1.218,0 C 3.864,2.135 6.214,1.337 7.905,-0.107 9.595,-1.551 10.556,-3.639 10.786,-6.373 10.863,-9.765 9.919,-12.225 7.954,-13.751 6,-15.255 3.617,-16.149 0.807,-16.435 l -1.268,0 c -3.612,0.275 -6.219,1.219 -7.822,2.833 -1.592,1.591 -2.438,3.985 -2.536,7.18" /></g><g
           transform="translate(423.8666,43.3401)"
           id="g76"><path
             id="path78"
             style="fill:#00007f;fill-opacity:1;fill-rule:nonzero;stroke:none"
             d="m 0,0 c 5.105,0.428 7.652,-1.449 7.641,-5.632 l -5.928,0 c 0.044,1.888 -1.126,2.794 -3.508,2.717 -1.295,-0.285 -1.949,-0.927 -1.96,-1.927 l 0,-3.161 0,-1.565 0,-3.952 0,-1.581 0,-3.162 -3.935,0 -1.581,0 -1.581,0 -0.922,0 0,18.164 2.503,0 1.581,0 1.58,0 1.565,0 -1.565,0 2.388,0 -0.016,-2.206 C -2.904,-1.12 -1.658,-0.351 0,0" /></g><g
           transform="translate(440.812,25.0773)"
           id="g80"><path
             id="path82"
             style="fill:#00007f;fill-opacity:1;fill-rule:nonzero;stroke:none"
             d="m 0,0 -3.936,0 -1.581,0 -1.581,0 -0.922,0 0,18.164 0.033,8.152 8.003,0 L 0,15.2 l 6.867,8.629 4.15,0 -5.303,-7.048 10.079,-16.83 -8.712,0 L 0.675,10.21 0.099,9.518 0,0 Z" /></g><g
           transform="translate(263.1833,168.0474)"
           id="g84"><path
             id="path86"
             style="fill:#7a7777;fill-opacity:1;fill-rule:nonzero;stroke:none"
             d="m 0,0 c -1.923,-0.838 -3.451,-2.564 -4.437,-4.832 -0.592,-1.528 -0.74,-4.19 -0.74,-14.692 l 0,-12.819 -3.796,0 c -5.128,0 -7.543,-1.183 -9.516,-4.634 -1.922,-3.254 -1.922,-5.719 -0.098,-9.22 1.873,-3.648 4.338,-4.881 9.515,-4.881 l 3.846,0 0.148,-21.299 c 0.197,-20.411 0.246,-21.496 1.282,-24.602 2.07,-6.163 7.099,-12.276 12.276,-14.889 5.522,-2.811 14.594,-3.846 21.003,-2.416 5.226,1.232 7.987,4.881 7.642,10.205 -0.246,3.747 -1.725,6.015 -5.078,7.642 -2.416,1.184 -3.994,1.184 -9.269,0.05 -3.057,-0.691 -6.902,0.542 -8.431,2.563 -0.986,1.381 -1.035,2.022 -1.183,22.088 l -0.148,20.658 6.804,0 c 9.269,0.049 11.192,0.888 13.509,6.114 0.739,1.676 0.986,3.007 0.789,4.289 -0.345,2.761 -2.663,5.916 -5.276,7.248 -1.923,0.986 -2.909,1.084 -8.973,1.084 l -6.754,0 -0.148,13.706 -0.148,13.756 -1.43,1.824 C 8.875,0.247 3.698,1.627 0,0" /></g><g
           transform="translate(137.9537,166.3218)"
           id="g88"><path
             id="path90"
             style="fill:#7a7777;fill-opacity:1;fill-rule:nonzero;stroke:none"
             d="m 0,0 c -2.367,-1.085 -3.402,-2.169 -4.437,-4.634 -0.641,-1.578 -0.74,-7.889 -0.74,-51.473 0,-46.345 0.049,-49.796 0.888,-51.373 3.056,-6.114 11.98,-6.656 15.727,-0.987 l 1.381,2.12 0,49.796 c 0,27.413 -0.148,50.437 -0.345,51.177 C 11.537,-2.169 7.297,0.937 3.846,0.937 2.81,0.937 1.085,0.493 0,0" /></g><g
           transform="translate(336.6447,135.5075)"
           id="g92"><path
             id="path94"
             style="fill:#7a7777;fill-opacity:1;fill-rule:nonzero;stroke:none"
             d="m 0,0 c -11.586,-2.712 -19.918,-9.22 -23.764,-18.637 -2.81,-6.951 -3.106,-9.909 -3.106,-33.871 0,-21.397 0,-21.989 1.035,-24.109 2.17,-4.437 7.79,-6.311 12.277,-4.043 2.317,1.184 3.747,3.106 4.388,5.966 0.295,1.282 0.542,10.847 0.542,23.419 0,20.066 0.049,21.348 1.035,24.208 1.233,3.697 3.698,6.656 6.459,7.79 2.81,1.134 8.825,1.479 12.375,0.739 3.353,-0.69 5.818,-2.564 7.346,-5.62 2.071,-4.191 4.881,-6.213 8.53,-6.213 2.958,0 5.078,0.937 7.001,3.106 3.5,3.994 3.303,7.938 -0.641,13.756 C 27.412,-4.536 19.08,0.049 8.184,0.493 4.782,0.592 1.923,0.444 0,0" /></g><g
           transform="translate(172.4658,134.8665)"
           id="g96"><path
             id="path98"
             style="fill:#7a7777;fill-opacity:1;fill-rule:nonzero;stroke:none"
             d="m 0,0 c -2.268,-1.183 -3.254,-2.219 -4.24,-4.339 -0.838,-1.824 -0.937,-3.697 -0.937,-24.306 0,-18.538 0.148,-22.975 0.789,-26.131 1.43,-6.951 3.895,-11.586 9.022,-17.058 3.6,-3.797 7.692,-6.41 12.573,-8.037 3.5,-1.134 4.782,-1.282 10.649,-1.331 5.917,0 7.1,0.148 10.6,1.331 10.995,3.649 18.341,11.586 21.546,23.271 1.035,3.747 1.084,5.078 1.282,26.377 0.197,23.912 0.098,24.898 -2.219,27.61 -4.585,5.473 -12.868,4.092 -15.678,-2.564 -0.641,-1.578 -0.74,-5.078 -0.74,-23.764 0,-20.658 -0.049,-22.088 -1.035,-25.144 -2.022,-6.656 -6.804,-9.565 -14.988,-9.072 -6.163,0.394 -9.319,2.514 -11.784,7.79 -0.986,2.12 -1.035,3.204 -1.282,26.18 l -0.246,23.961 -1.331,1.972 C 9.565,0.394 3.698,1.972 0,0" /></g><g
           transform="translate(428.9892,115.9835)"
           id="g100"><path
             id="path102"
             style="fill:#7a7777;fill-opacity:1;fill-rule:nonzero;stroke:none"
             d="m 0,0 c 2.81,-1.183 5.423,-3.796 7.001,-6.853 3.747,-7.346 3.254,-23.863 -0.887,-30.617 -2.663,-4.339 -7.692,-6.903 -13.411,-6.903 -8.283,0 -13.657,4.536 -15.58,13.214 -1.084,4.831 -0.788,17.403 0.493,21.052 1.923,5.473 4.832,8.579 9.96,10.649 C -9.22,1.824 -3.648,1.578 0,0 M -14.347,18.932 C -25.49,16.467 -34.857,8.283 -38.703,-2.317 c -2.268,-6.311 -2.81,-9.713 -2.81,-18.883 -0.049,-12.622 1.775,-19.968 6.804,-27.561 4.19,-6.261 10.255,-10.55 18.045,-12.671 4.437,-1.232 14.347,-1.232 18.735,-0.049 9.318,2.564 16.763,8.628 20.904,17.108 2.761,5.769 4.142,11.537 4.536,19.524 1.233,22.088 -8.529,38.851 -25.194,43.288 -4.338,1.184 -12.572,1.43 -16.664,0.493" /></g></g></g></g><path
     style="fill:#ffffff;stroke-width:0.539467"
     d="m 174.3244,142.69233 c -3.54658,-0.91386 -6.77146,-4.1205 -7.39607,-7.35425 -0.59418,-3.07622 -0.59563,-121.936448 -0.002,-125.011689 0.62365,-3.2281807 2.01392,-4.9421872 5.42236,-6.6849879 4.55469,-2.3289028 7.98851,-1.8269663 12.08051,1.7658636 3.85206,3.3821477 3.57462,-1.8777664 3.57462,67.7696103 v 62.980583 l -1.44568,2.0861 c -2.74673,3.96354 -7.46243,5.67832 -12.23422,4.44877 z"
     id="path32957" /><path
     style="fill:#ffffff;stroke-width:0.539467"
     d="m 239.79314,142.63907 c -15.36244,-4.08091 -27.3449,-17.8446 -29.67374,-34.08483 -0.39392,-2.74701 -0.54121,-13.544389 -0.43214,-31.680174 0.16489,-27.41979 0.1696,-27.520577 1.39034,-29.805786 0.69368,-1.298571 2.21436,-2.936229 3.50653,-3.77627 1.91126,-1.242509 2.8509,-1.479274 5.78819,-1.458465 4.31995,0.03061 7.21125,1.405501 9.78378,4.652482 l 1.81477,2.290538 0.33363,29.423564 c 0.21323,18.805081 0.54913,30.205291 0.93078,31.589731 1.40694,5.10372 5.44057,9.41647 10.12581,10.82652 3.85805,1.1611 11.94989,0.99783 15.45002,-0.31174 4.9596,-1.85562 8.39868,-6.45029 9.50156,-12.69422 0.32392,-1.83387 0.67071,-14.7867 0.80445,-30.046128 0.23019,-26.264423 0.2597,-26.87346 1.41827,-29.266745 3.0892,-6.381422 10.65896,-8.546368 16.10031,-4.604673 3.42647,2.482123 4.38759,4.280668 4.96332,9.287847 0.59776,5.198917 0.61008,23.314779 0.0294,43.314162 -0.40282,13.874597 -0.42597,14.081517 -2.14255,19.151087 -2.35481,6.95441 -5.39221,11.9019 -10.26701,16.72349 -4.91396,4.86032 -9.40433,7.57221 -16.10027,9.7235 -4.61512,1.48276 -5.58283,1.60259 -12.67747,1.56979 -4.91406,-0.0227 -8.74978,-0.31942 -10.64803,-0.82368 z"
     id="path32996" /><path
     style="fill:#ffffff;stroke-width:0.539467"
     d="m 347.9563,143.19755 c -10.93625,-2.3512 -19.96084,-10.712 -23.5496,-21.81745 -1.0718,-3.31669 -1.14773,-4.95959 -1.40253,-30.345021 l -0.26939,-26.83849 h -4.94248 c -6.29886,0 -8.98689,-1.189968 -11.3263,-5.014061 -3.11311,-5.08881 -2.26213,-11.035775 2.1311,-14.893086 2.33891,-2.053588 4.86538,-2.743696 10.05842,-2.747464 l 4.14618,-0.003 0.16955,-16.858348 c 0.18126,-18.0218617 0.17209,-17.9587753 3.06768,-21.0873795 2.11246,-2.2824528 3.98771,-3.05377437 7.42438,-3.05377437 3.9484,0 7.14826,1.51209937 9.64328,4.55694977 l 1.88264,2.297511 v 17.0270491 17.02705 l 9.07729,0.180338 c 8.87489,0.176317 9.12757,0.213647 11.33295,1.674273 2.7772,1.839338 5.34079,5.285152 5.81582,7.817225 0.86547,4.613371 -3.18626,11.251239 -7.61444,12.474572 -1.18683,0.327878 -5.89914,0.597493 -10.47181,0.599143 l -8.31393,0.003 0.33349,25.586241 c 0.37495,28.767112 0.34948,28.576212 4.06606,30.472262 3.14241,1.60314 5.74606,1.83334 10.75725,0.95109 2.5658,-0.45173 5.20309,-0.61816 6.20387,-0.3915 10.95421,2.48094 12.30768,17.15673 2.01054,21.80045 -3.23741,1.45998 -14.62345,1.78779 -20.23002,0.58242 z"
     id="path33035" /><path
     style="fill:#ffffff;stroke-width:0.539467"
     d="m 396.42216,142.98166 c -2.75913,-0.65742 -5.18175,-2.3432 -6.91942,-4.81486 l -1.62587,-2.31265 -0.16646,-25.44403 c -0.18458,-28.213204 0.22658,-35.429136 2.38533,-41.862586 2.24413,-6.687888 4.40021,-10.177436 9.40063,-15.214674 4.01402,-4.043571 5.37089,-5.020684 10.25956,-7.388138 7.98356,-3.866224 11.2405,-4.635465 19.39017,-4.579664 8.101,0.05547 13.05724,1.211754 19.45012,4.537697 8.60556,4.477102 17.81218,16.129958 17.76127,22.480491 -0.0288,3.595252 -3.70299,8.432197 -7.65823,10.081881 -5.42621,2.263199 -10.57814,-0.2218 -14.43479,-6.962509 -3.19967,-5.592445 -6.64297,-7.246997 -15.15532,-7.28235 -6.64933,-0.02762 -10.47102,0.906984 -13.08164,3.199137 -1.82366,1.601198 -4.32598,5.720942 -5.34254,8.795819 -0.35688,1.079484 -0.70972,12.46652 -0.93145,30.059796 -0.34153,27.09918 -0.40531,28.42937 -1.47715,30.80815 -1.28494,2.85172 -3.80052,4.96949 -6.91282,5.81963 -2.39356,0.65382 -2.5199,0.65583 -4.94139,0.0789 z"
     id="path33074" /><path
     style="fill:#ffffff;stroke-width:0.539467"
     d="m 516.55366,142.6892 c -4.48585,-1.01586 -11.24428,-4.2843 -15.47143,-7.48214 -3.89689,-2.94799 -8.46656,-8.74967 -11.17925,-14.19325 -4.09779,-8.22306 -5.45358,-16.76933 -5.05359,-31.855362 0.31903,-12.032303 1.16825,-15.964843 5.22492,-24.195439 5.33961,-10.83354 15.3593,-19.057686 26.84428,-22.033742 4.44078,-1.150722 15.64909,-1.140327 20.82364,0.01931 22.56357,5.056592 35.7058,29.274917 32.16892,59.280443 -2.31571,19.64554 -12.01497,33.28295 -27.81382,39.10697 -4.53627,1.67222 -5.24198,1.77501 -13.41954,1.9546 -6.23382,0.1369 -9.60166,-0.0302 -12.12413,-0.60139 z m 20.10092,-23.21611 c 7.66482,-3.82781 10.90897,-10.72141 11.54242,-24.526875 0.54896,-11.964062 -1.33745,-19.650726 -6.07957,-24.772788 -4.32945,-4.676315 -7.00044,-5.707105 -14.78831,-5.707105 -5.86677,0 -6.36064,0.08684 -9.08912,1.598143 -5.8465,3.238385 -9.63544,8.580447 -10.85467,15.304124 -0.77432,4.270133 -0.79855,19.411501 -0.0373,23.285701 1.33101,6.77351 5.36207,12.60064 10.40591,15.04232 5.0165,2.42844 13.79825,2.32459 18.9006,-0.22352 z"
     id="path33113" /></svg>
