<?xml version="1.0" encoding="utf-8"?>
<!-- Generator: Adobe Illustrator 22.1.0, SVG Export Plug-In . SVG Version: 6.00 Build 0)  -->
<svg version="1.0" id="Livello_1" xmlns="http://www.w3.org/2000/svg" xmlns:xlink="http://www.w3.org/1999/xlink" x="0px" y="0px"
	 width="795.6px" height="231.1px" viewBox="0 0 795.6 231.1" enable-background="new 0 0 795.6 231.1" xml:space="preserve">
<g>
	<polygon points="17,146.6 61.4,20 66.9,14.5 95.4,14.5 95.4,24.8 97.7,24.8 103.7,14.5 147.4,14.5 147.4,146.6 123,146.6 123,44.1 
		119.5,44.1 83.7,146.6 57.9,146.6 95.7,44.1 78.7,44.1 41.5,146.6 	"/>
	<polygon points="156.1,146.6 156.1,53.5 172.4,14.5 232.6,14.5 232.6,42 185.9,41.8 178.1,66 229.4,66 221.6,93 178.6,93 
		178.6,120.8 232.6,120.8 232.6,146.6 	"/>
	<path d="M319.1,71.8v68.7c0,3.4-2.8,6.2-6.2,6.2h-70.8V55.5l18-41.1h58v27.1h-44.3L265.4,60v59.5l35.5,0.3l-0.3-24h-23.3l15.8-24
		H319.1z"/>
	<polygon points="329.6,146.6 329.6,14.5 370.1,14.5 376.6,21.8 420.6,146.6 394.4,146.6 386.1,120.3 364.9,120.3 357.6,96.3 
		378.6,96.3 363.4,50 357.4,43.5 352.1,43.5 353.6,146.6 	"/>
	<rect x="427.4" y="75.5" width="32.3" height="20.5"/>
	<polygon points="476.4,146.6 476.4,42.3 449.4,42.3 449.4,14.5 534.2,14.5 534.2,42.3 504,42.3 504.5,146.6 	"/>
	<polygon points="540.7,146.6 540.7,50.1 562.7,14.5 616.2,14.5 616.2,42 574.9,42 561.9,67.5 616.2,67.5 607.9,95 565.5,95 
		565.5,123.1 618.9,123.1 618.9,146.6 	"/>
	<polygon points="624.7,146.6 624.7,47 647.9,14.5 701.9,14.5 701.9,42.4 658.4,42.4 649.2,59.8 649.2,122.3 701.9,122.3 
		701.9,146.6 	"/>
	<polygon points="710.1,146.6 710.1,14.5 735.9,14.5 735.9,65.5 762.2,65.5 762.2,14.5 787,14.5 787,146.6 762.2,146.6 762.2,95.3 
		735.9,95.3 735.9,146.6 	"/>
</g>
<g>
	<path d="M95.2,206.4h20.3v0.9c0,2.9,2.4,5.3,5.3,5.3h40.4c2.2,0,4-1.8,4-4v-0.9c0-2.5-2-4.4-4.4-4.4H110c-8.2,0-14.8-6.6-14.8-14.8
		l0.1-2.8c0.4-8.7,7.6-15.5,16.3-15.5h53.2c9.3,0,16.7,7.8,16.3,17.1v0h-18.9v0c0-3.8-3.1-6.9-6.9-6.9h-33.8c-3.2,0-5.9,2.6-5.9,5.9
		v0.8c0,2.9,2.3,5.2,5.2,5.2h49.9c8.1,0,14.7,6.6,14.7,14.7v1.3c0,8.5-6.9,15.4-15.4,15.4h-61.9c-7.1,0-12.9-5.8-12.9-12.9V206.4z"
		/>
	<path d="M299.2,206.4h20.3v0.9c0,2.9,2.4,5.3,5.3,5.3h40.4c2.2,0,4-1.8,4-4v-0.9c0-2.5-2-4.4-4.4-4.4H314
		c-8.2,0-14.8-6.6-14.8-14.8l0.1-2.8c0.4-8.7,7.6-15.5,16.3-15.5h53.2c9.3,0,16.7,7.8,16.3,17.1v0h-18.9v0c0-3.8-3.1-6.9-6.9-6.9
		h-33.8c-3.2,0-5.9,2.6-5.9,5.9v0.8c0,2.9,2.3,5.2,5.2,5.2h49.9c8.1,0,14.7,6.6,14.7,14.7v1.3c0,8.5-6.9,15.4-15.4,15.4h-61.9
		c-7.1,0-12.9-5.8-12.9-12.9V206.4z"/>
	<polygon points="228.7,223.5 228.7,207.6 190,170 215.4,170 239.3,194 242,194 265.9,170 288.6,170 251.1,207.6 251.1,223.5 	"/>
	<polygon points="428.7,223.5 428.7,183.7 396.4,183.7 396.4,171.4 481.4,171.4 481.4,183.7 448.4,183.7 448.4,223.5 	"/>
	<polygon points="496.8,223.5 496.8,171.4 572.2,171.4 572.2,182.2 517.1,182.2 517.1,192.5 568.9,192.5 568.9,201.9 517.1,201.9 
		517.1,212.9 572.2,212.9 572.2,223.5 	"/>
	<polygon points="652.8,223.1 682.7,183.5 684.4,183.5 684.3,223.5 703.3,223.5 703.3,171.4 672,171.4 646.6,204.1 646.6,204.1 
		644.1,204.1 618.8,171.4 587.4,171.4 587.4,223.5 606.4,223.5 606.4,183.5 608,183.5 637.9,223.1 	"/>
</g>
<g>
	<g>
		<linearGradient id="SVGID_1_" gradientUnits="userSpaceOnUse" x1="71.731" y1="140.833" x2="71.731" y2="7.6665">
			<stop  offset="0" style="stop-color:#F4EA1F"/>
			<stop  offset="0.2537" style="stop-color:#F4EA1F"/>
			<stop  offset="0.2852" style="stop-color:#F2C81B"/>
			<stop  offset="0.4082" style="stop-color:#EB450C"/>
			<stop  offset="0.4622" style="stop-color:#E81106"/>
			<stop  offset="0.5001" style="stop-color:#FFFFFF"/>
			<stop  offset="0.7106" style="stop-color:#FFFFFF"/>
			<stop  offset="0.736" style="stop-color:#D7DCED"/>
			<stop  offset="0.7711" style="stop-color:#A7B2D6"/>
			<stop  offset="0.8071" style="stop-color:#7D8EC3"/>
			<stop  offset="0.8436" style="stop-color:#5B70B4"/>
			<stop  offset="0.8807" style="stop-color:#4159A7"/>
			<stop  offset="0.9185" style="stop-color:#2E499F"/>
			<stop  offset="0.9576" style="stop-color:#233F9A"/>
			<stop  offset="1" style="stop-color:#1F3C98"/>
		</linearGradient>
		<polygon fill="url(#SVGID_1_)" points="112.2,140.8 112.2,38.3 109.5,38.3 73.7,140.8 46.8,140.8 84.6,38.3 68.7,38.3 31.5,140.8 
			6,140.8 50.6,13.4 56.3,7.7 85.5,7.7 85.5,18 87.1,18 93,7.7 137.5,7.7 137.5,140.8 		"/>
		<path d="M137,8.2v132.2h-24.3V37.8h-3.5L73.3,140.3H47.5L85.3,37.8h-17L31.2,140.3H6.7L51,13.7l5.5-5.5H85v10.3l2.3,0l6-10.3H137
			 M138,7.2h-1H93.3h-0.6l-0.3,0.5l-5.7,9.8l-0.8,0V8.2v-1h-1H56.5h-0.4l-0.3,0.3L50.3,13l-0.2,0.2l-0.1,0.2L5.7,140l-0.5,1.3h1.4
			h24.5h0.7l0.2-0.7L69,38.8h14.9L46.6,140l-0.5,1.3h1.4h25.8H74l0.2-0.7l35.6-101.8h1.8v101.5v1h1H137h1v-1V8.2V7.2L138,7.2z"/>
	</g>
	<g>
		<linearGradient id="SVGID_2_" gradientUnits="userSpaceOnUse" x1="184" y1="140.833" x2="184" y2="7.6665">
			<stop  offset="0" style="stop-color:#F4EA1F"/>
			<stop  offset="0.2537" style="stop-color:#F4EA1F"/>
			<stop  offset="0.2852" style="stop-color:#F2C81B"/>
			<stop  offset="0.4082" style="stop-color:#EB450C"/>
			<stop  offset="0.4622" style="stop-color:#E81106"/>
			<stop  offset="0.5001" style="stop-color:#FFFFFF"/>
			<stop  offset="0.7106" style="stop-color:#FFFFFF"/>
			<stop  offset="0.736" style="stop-color:#D7DCED"/>
			<stop  offset="0.7711" style="stop-color:#A7B2D6"/>
			<stop  offset="0.8071" style="stop-color:#7D8EC3"/>
			<stop  offset="0.8436" style="stop-color:#5B70B4"/>
			<stop  offset="0.8807" style="stop-color:#4159A7"/>
			<stop  offset="0.9185" style="stop-color:#2E499F"/>
			<stop  offset="0.9576" style="stop-color:#233F9A"/>
			<stop  offset="1" style="stop-color:#1F3C98"/>
		</linearGradient>
		<polygon fill="url(#SVGID_2_)" points="145.3,140.8 145.3,47.2 161.7,7.7 222.8,7.7 222.8,36.3 175.9,36 168.4,59.3 219.7,59.3 
			211.6,87.3 168.8,87.3 168.8,114 222.8,114 222.8,140.8 		"/>
		<path d="M222.3,8.2v27.6l-46.8-0.3l-7.8,24.3H219l-7.8,27h-43v27.8h54v25.8h-76.5V47.3L162,8.2H222.3 M219,59.8L219,59.8
			 M223.3,7.2h-1H162h-0.7l-0.3,0.6l-16.3,39.1l-0.1,0.2v0.2v93.1v1h1h76.5h1v-1v-25.8v-1h-1h-53V87.8h42h0.8l0.2-0.7l7.8-27
			l0.4-1.3H219h0h-49.9l7.1-22.2l46,0.2l1,0v-1V8.2V7.2L223.3,7.2z"/>
	</g>
	<linearGradient id="SVGID_3_" gradientUnits="userSpaceOnUse" x1="270.25" y1="140.3333" x2="270.25" y2="8.1667">
		<stop  offset="0" style="stop-color:#F4EA1F"/>
		<stop  offset="0.2537" style="stop-color:#F4EA1F"/>
		<stop  offset="0.2852" style="stop-color:#F2C81B"/>
		<stop  offset="0.4082" style="stop-color:#EB450C"/>
		<stop  offset="0.4622" style="stop-color:#E81106"/>
		<stop  offset="0.5001" style="stop-color:#FFFFFF"/>
		<stop  offset="0.7106" style="stop-color:#FFFFFF"/>
		<stop  offset="0.736" style="stop-color:#D7DCED"/>
		<stop  offset="0.7711" style="stop-color:#A7B2D6"/>
		<stop  offset="0.8071" style="stop-color:#7D8EC3"/>
		<stop  offset="0.8436" style="stop-color:#5B70B4"/>
		<stop  offset="0.8807" style="stop-color:#4159A7"/>
		<stop  offset="0.9185" style="stop-color:#2E499F"/>
		<stop  offset="0.9576" style="stop-color:#233F9A"/>
		<stop  offset="1" style="stop-color:#1F3C98"/>
	</linearGradient>
	<path fill="url(#SVGID_3_)" stroke="#000000" stroke-linecap="round" d="M308.8,65.5v68.7c0,3.4-2.8,6.2-6.2,6.2h-70.8V49.3
		l18-41.1h58v27.1h-44.3L255,53.8v59.5l35.5,0.3l-0.3-24H267l15.8-24H308.8z"/>
	<g>
		<linearGradient id="SVGID_4_" gradientUnits="userSpaceOnUse" x1="364.8533" y1="140.833" x2="364.8533" y2="7.6665">
			<stop  offset="0" style="stop-color:#F4EA1F"/>
			<stop  offset="0.2537" style="stop-color:#F4EA1F"/>
			<stop  offset="0.2852" style="stop-color:#F2C81B"/>
			<stop  offset="0.4082" style="stop-color:#EB450C"/>
			<stop  offset="0.4622" style="stop-color:#E81106"/>
			<stop  offset="0.5001" style="stop-color:#FFFFFF"/>
			<stop  offset="0.7106" style="stop-color:#FFFFFF"/>
			<stop  offset="0.736" style="stop-color:#D7DCED"/>
			<stop  offset="0.7711" style="stop-color:#A7B2D6"/>
			<stop  offset="0.8071" style="stop-color:#7D8EC3"/>
			<stop  offset="0.8436" style="stop-color:#5B70B4"/>
			<stop  offset="0.8807" style="stop-color:#4159A7"/>
			<stop  offset="0.9185" style="stop-color:#2E499F"/>
			<stop  offset="0.9576" style="stop-color:#233F9A"/>
			<stop  offset="1" style="stop-color:#1F3C98"/>
		</linearGradient>
		<polygon fill="url(#SVGID_4_)" points="383.6,140.8 375.4,114.5 354.1,114.5 346.6,89.5 367.6,89.5 352.6,44 346.8,37.8 
			342.3,37.8 343.8,140.8 318.8,140.8 318.8,7.7 360,7.7 366.7,15.2 411,140.8 		"/>
		<path d="M359.8,8.2l6.5,7.3l44,124.8H384l-8.3-26.3h-21.3l-7.3-24h21L353,43.8l-6-6.5h-5.3l1.5,103.1h-24V8.2H359.8 M360.2,7.2
			h-0.4h-40.5h-1v1v132.2v1h1h24h1l0-1l-1.5-102.1h3.8l5.6,6L366.9,89h-19.6h-1.3l0.4,1.3l7.3,24l0.2,0.7h0.7H375l8,25.6l0.2,0.7
			h0.7h26.3h1.4l-0.5-1.3l-44-124.8l-0.1-0.2l-0.1-0.1l-6.5-7.3L360.2,7.2L360.2,7.2z"/>
	</g>
	<g>
		<linearGradient id="SVGID_5_" gradientUnits="userSpaceOnUse" x1="470.4167" y1="140.833" x2="470.4167" y2="7.6665">
			<stop  offset="0" style="stop-color:#F4EA1F"/>
			<stop  offset="0.2537" style="stop-color:#F4EA1F"/>
			<stop  offset="0.2852" style="stop-color:#F2C81B"/>
			<stop  offset="0.4082" style="stop-color:#EB450C"/>
			<stop  offset="0.4622" style="stop-color:#E81106"/>
			<stop  offset="0.5001" style="stop-color:#FFFFFF"/>
			<stop  offset="0.7106" style="stop-color:#FFFFFF"/>
			<stop  offset="0.736" style="stop-color:#D7DCED"/>
			<stop  offset="0.7711" style="stop-color:#A7B2D6"/>
			<stop  offset="0.8071" style="stop-color:#7D8EC3"/>
			<stop  offset="0.8436" style="stop-color:#5B70B4"/>
			<stop  offset="0.8807" style="stop-color:#4159A7"/>
			<stop  offset="0.9185" style="stop-color:#2E499F"/>
			<stop  offset="0.9576" style="stop-color:#233F9A"/>
			<stop  offset="1" style="stop-color:#1F3C98"/>
		</linearGradient>
		<path fill="url(#SVGID_5_)" d="M465.5,140.8V36.5h-27V7.7h85.8v28.8h-30.2l0.5,104.3H465.5z M416.5,90.3V68.8h33.3v21.5H416.5z"/>
		<path d="M523.8,8.2V36h-30.2l0.5,104.3H466V36h-27V8.2H523.8 M449.3,69.3v20.5H417V69.3H449.3 M524.8,7.2h-1H439h-1v1V36v1h1h26
			v103.3v1h1h28.2h1l0-1L494.7,37h29.2h1v-1V8.2V7.2L524.8,7.2z M450.3,68.3h-1H417h-1v1v20.5v1h1h32.3h1v-1V69.3V68.3L450.3,68.3z"
			/>
	</g>
	<g>
		<linearGradient id="SVGID_6_" gradientUnits="userSpaceOnUse" x1="569.4167" y1="140.833" x2="569.4167" y2="7.6665">
			<stop  offset="0" style="stop-color:#F4EA1F"/>
			<stop  offset="0.2537" style="stop-color:#F4EA1F"/>
			<stop  offset="0.2852" style="stop-color:#F2C81B"/>
			<stop  offset="0.4082" style="stop-color:#EB450C"/>
			<stop  offset="0.4622" style="stop-color:#E81106"/>
			<stop  offset="0.5001" style="stop-color:#FFFFFF"/>
			<stop  offset="0.7106" style="stop-color:#FFFFFF"/>
			<stop  offset="0.736" style="stop-color:#D7DCED"/>
			<stop  offset="0.7711" style="stop-color:#A7B2D6"/>
			<stop  offset="0.8071" style="stop-color:#7D8EC3"/>
			<stop  offset="0.8436" style="stop-color:#5B70B4"/>
			<stop  offset="0.8807" style="stop-color:#4159A7"/>
			<stop  offset="0.9185" style="stop-color:#2E499F"/>
			<stop  offset="0.9576" style="stop-color:#233F9A"/>
			<stop  offset="1" style="stop-color:#1F3C98"/>
		</linearGradient>
		<polygon fill="url(#SVGID_6_)" points="529.8,140.8 529.8,43.7 552.1,7.7 606.3,7.7 606.3,36.2 564.8,36.2 552.3,60.7 606.5,60.7 
			597.9,89.2 555.7,89.2 555.7,116.3 609,116.3 609,140.8 		"/>
		<path d="M605.8,8.2v27.5h-41.3l-13,25.5h54.3l-8.3,27.5h-42.3v28.2h53.3v23.5h-78.2V43.8l22-35.7H605.8 M605.8,61.2L605.8,61.2
			 M606.8,7.2h-1h-53.5h-0.6l-0.3,0.5l-22,35.7l-0.1,0.2v0.3v96.5v1h1h78.2h1v-1v-23.5v-1h-1h-52.3V89.7h41.3h0.7l0.2-0.7l8.3-27.5
			l0.4-1.3h-1.3h0h-52.7l12-23.5h40.7h1v-1V8.2V7.2L606.8,7.2z"/>
	</g>
	<g>
		<linearGradient id="SVGID_7_" gradientUnits="userSpaceOnUse" x1="652.9375" y1="140.833" x2="652.9375" y2="7.6665">
			<stop  offset="0" style="stop-color:#F4EA1F"/>
			<stop  offset="0.2537" style="stop-color:#F4EA1F"/>
			<stop  offset="0.2852" style="stop-color:#F2C81B"/>
			<stop  offset="0.4082" style="stop-color:#EB450C"/>
			<stop  offset="0.4622" style="stop-color:#E81106"/>
			<stop  offset="0.5001" style="stop-color:#FFFFFF"/>
			<stop  offset="0.7106" style="stop-color:#FFFFFF"/>
			<stop  offset="0.736" style="stop-color:#D7DCED"/>
			<stop  offset="0.7711" style="stop-color:#A7B2D6"/>
			<stop  offset="0.8071" style="stop-color:#7D8EC3"/>
			<stop  offset="0.8436" style="stop-color:#5B70B4"/>
			<stop  offset="0.8807" style="stop-color:#4159A7"/>
			<stop  offset="0.9185" style="stop-color:#2E499F"/>
			<stop  offset="0.9576" style="stop-color:#233F9A"/>
			<stop  offset="1" style="stop-color:#1F3C98"/>
		</linearGradient>
		<polygon fill="url(#SVGID_7_)" points="613.9,140.8 613.9,40.6 637.2,7.7 692,7.7 692,36.6 648.3,36.6 639.4,53.6 639.4,115.5 
			692,115.5 692,140.8 		"/>
		<path d="M691.5,8.2v28H648l-9.1,17.4V116h52.6v24.3h-77.1V40.8l23.1-32.6H691.5 M692.5,7.2h-1h-54H637l-0.3,0.4l-23.1,32.6
			l-0.2,0.3v0.3v99.6v1h1h77.1h1v-1V116v-1h-1h-51.6V53.7l8.7-16.6h42.9h1v-1v-28V7.2L692.5,7.2z"/>
	</g>
	<g>
		<linearGradient id="SVGID_8_" gradientUnits="userSpaceOnUse" x1="738.1875" y1="140.833" x2="738.1875" y2="7.6665">
			<stop  offset="0" style="stop-color:#F4EA1F"/>
			<stop  offset="0.2537" style="stop-color:#F4EA1F"/>
			<stop  offset="0.2852" style="stop-color:#F2C81B"/>
			<stop  offset="0.4082" style="stop-color:#EB450C"/>
			<stop  offset="0.4622" style="stop-color:#E81106"/>
			<stop  offset="0.5001" style="stop-color:#FFFFFF"/>
			<stop  offset="0.7106" style="stop-color:#FFFFFF"/>
			<stop  offset="0.736" style="stop-color:#D7DCED"/>
			<stop  offset="0.7711" style="stop-color:#A7B2D6"/>
			<stop  offset="0.8071" style="stop-color:#7D8EC3"/>
			<stop  offset="0.8436" style="stop-color:#5B70B4"/>
			<stop  offset="0.8807" style="stop-color:#4159A7"/>
			<stop  offset="0.9185" style="stop-color:#2E499F"/>
			<stop  offset="0.9576" style="stop-color:#233F9A"/>
			<stop  offset="1" style="stop-color:#1F3C98"/>
		</linearGradient>
		<polygon fill="url(#SVGID_8_)" points="751.4,140.8 751.4,89.5 726,89.5 726,140.8 699.3,140.8 699.3,7.7 726,7.7 726,58.8 
			751.4,58.8 751.4,7.7 777.1,7.7 777.1,140.8 		"/>
		<path d="M776.6,8.2v132.2h-24.8V89h-26.4v51.3h-25.8V8.2h25.8v51.1h26.4V8.2H776.6 M777.6,7.2h-1h-24.8h-1v1v50.1h-24.4V8.2v-1h-1
			h-25.8h-1v1v132.2v1h1h25.8h1v-1V90h24.4v50.3v1h1h24.8h1v-1V8.2V7.2L777.6,7.2z"/>
	</g>
</g>
<g>
	<g>
		<linearGradient id="SVGID_9_" gradientUnits="userSpaceOnUse" x1="130" y1="217.75" x2="130" y2="163.25">
			<stop  offset="0" style="stop-color:#FFFFFF"/>
			<stop  offset="0.1897" style="stop-color:#FFFFFF"/>
			<stop  offset="0.2151" style="stop-color:#FEFFE5"/>
			<stop  offset="0.2685" style="stop-color:#FCFFB6"/>
			<stop  offset="0.3264" style="stop-color:#FBFF8A"/>
			<stop  offset="0.3876" style="stop-color:#FAFF65"/>
			<stop  offset="0.4529" style="stop-color:#F8FF46"/>
			<stop  offset="0.5236" style="stop-color:#F8FF2C"/>
			<stop  offset="0.6017" style="stop-color:#F7FF18"/>
			<stop  offset="0.6913" style="stop-color:#F6FF0B"/>
			<stop  offset="0.8023" style="stop-color:#F6FF02"/>
			<stop  offset="1" style="stop-color:#F6FF00"/>
		</linearGradient>
		<path fill="url(#SVGID_9_)" d="M97.8,217.8c-7.4,0-13.4-6-13.4-13.4v-4.7h21.3v1.4c0,2.6,2.1,4.8,4.8,4.8h40.4
			c1.9,0,3.5-1.6,3.5-3.5v-0.9c0-2.2-1.8-3.9-3.9-3.9H99.7c-8.4,0-15.3-6.9-15.3-15.3l0.1-2.8c0.4-9,7.8-16,16.8-16h53.2
			c4.6,0,9,1.9,12.2,5.2s4.8,7.8,4.6,12.4l0,0.5h-19.9v-0.5c0-3.5-2.9-6.4-6.4-6.4h-33.8c-3,0-5.4,2.4-5.4,5.4v0.8
			c0,2.6,2.1,4.7,4.7,4.7h49.9c8.4,0,15.2,6.8,15.2,15.2v1.3c0,8.8-7.1,15.9-15.9,15.9H97.8z"/>
		<path d="M154.5,163.8c9.3,0,16.7,7.8,16.3,17.1v0h-18.9c0-3.8-3.1-6.9-6.9-6.9h-33.8c-3.2,0-5.9,2.6-5.9,5.9v0.8
			c0,2.9,2.3,5.2,5.2,5.2h49.9c8.1,0,14.7,6.6,14.7,14.7v1.3c0,8.5-6.9,15.4-15.4,15.4H97.8c-7.1,0-12.9-5.8-12.9-12.9v-4.2h20.3
			v0.9c0,2.9,2.4,5.3,5.3,5.3h40.4c2.2,0,4-1.8,4-4v-0.9c0-2.5-2-4.4-4.4-4.4H99.7c-8.2,0-14.8-6.6-14.8-14.8l0.1-2.8
			c0.4-8.7,7.6-15.5,16.3-15.5H154.5 M154.5,162.8h-53.2c-9.2,0-16.8,7.2-17.3,16.5l-0.1,2.8c0,8.8,7.1,15.9,15.8,15.9h50.6
			c1.9,0,3.4,1.5,3.4,3.4v0.9c0,1.7-1.3,3-3,3h-40.4c-2.3,0-4.3-1.9-4.3-4.3v-0.9v-1h-1H84.9h-1v1v4.2c0,7.7,6.3,13.9,13.9,13.9
			h61.9c9,0,16.4-7.3,16.4-16.4v-1.3c0-8.7-7-15.7-15.7-15.7h-49.9c-2.3,0-4.2-1.9-4.2-4.2v-0.8c0-2.7,2.2-4.9,4.9-4.9H145
			c3.2,0,5.9,2.6,5.9,5.9v1h1h18.9h1l0-0.9c0.2-4.8-1.4-9.3-4.7-12.8C163.7,164.7,159.3,162.8,154.5,162.8L154.5,162.8z"/>
	</g>
	<g>
		<linearGradient id="SVGID_10_" gradientUnits="userSpaceOnUse" x1="334" y1="217.75" x2="334" y2="163.25">
			<stop  offset="0" style="stop-color:#FFFFFF"/>
			<stop  offset="0.1897" style="stop-color:#FFFFFF"/>
			<stop  offset="0.2151" style="stop-color:#FEFFE5"/>
			<stop  offset="0.2685" style="stop-color:#FCFFB6"/>
			<stop  offset="0.3264" style="stop-color:#FBFF8A"/>
			<stop  offset="0.3876" style="stop-color:#FAFF65"/>
			<stop  offset="0.4529" style="stop-color:#F8FF46"/>
			<stop  offset="0.5236" style="stop-color:#F8FF2C"/>
			<stop  offset="0.6017" style="stop-color:#F7FF18"/>
			<stop  offset="0.6913" style="stop-color:#F6FF0B"/>
			<stop  offset="0.8023" style="stop-color:#F6FF02"/>
			<stop  offset="1" style="stop-color:#F6FF00"/>
		</linearGradient>
		<path fill="url(#SVGID_10_)" d="M301.8,217.8c-7.4,0-13.4-6-13.4-13.4v-4.7h21.3v1.4c0,2.6,2.1,4.8,4.8,4.8h40.4
			c1.9,0,3.5-1.6,3.5-3.5v-0.9c0-2.2-1.8-3.9-3.9-3.9h-50.6c-8.4,0-15.3-6.9-15.3-15.3l0.1-2.8c0.4-9,7.8-16,16.8-16h53.2
			c4.6,0,9,1.9,12.2,5.2s4.8,7.8,4.6,12.4l0,0.5h-19.9v-0.5c0-3.5-2.9-6.4-6.4-6.4h-33.8c-3,0-5.4,2.4-5.4,5.4v0.8
			c0,2.6,2.1,4.7,4.7,4.7h49.9c8.4,0,15.2,6.8,15.2,15.2v1.3c0,8.8-7.1,15.9-15.9,15.9H301.8z"/>
		<path d="M358.5,163.8c9.3,0,16.7,7.8,16.3,17.1v0h-18.9c0-3.8-3.1-6.9-6.9-6.9h-33.8c-3.2,0-5.9,2.6-5.9,5.9v0.8
			c0,2.9,2.3,5.2,5.2,5.2h49.9c8.1,0,14.7,6.6,14.7,14.7v1.3c0,8.5-6.9,15.4-15.4,15.4h-61.9c-7.1,0-12.9-5.8-12.9-12.9v-4.2h20.3
			v0.9c0,2.9,2.4,5.3,5.3,5.3h40.4c2.2,0,4-1.8,4-4v-0.9c0-2.5-2-4.4-4.4-4.4h-50.6c-8.2,0-14.8-6.6-14.8-14.8l0.1-2.8
			c0.4-8.7,7.6-15.5,16.3-15.5H358.5 M358.5,162.8h-53.2c-9.2,0-16.8,7.2-17.3,16.5l-0.1,2.8c0,8.8,7.1,15.9,15.8,15.9h50.6
			c1.9,0,3.4,1.5,3.4,3.4v0.9c0,1.7-1.3,3-3,3h-40.4c-2.3,0-4.3-1.9-4.3-4.3v-0.9v-1h-1h-20.3h-1v1v4.2c0,7.7,6.3,13.9,13.9,13.9
			h61.9c9,0,16.4-7.3,16.4-16.4v-1.3c0-8.7-7-15.7-15.7-15.7h-49.9c-2.3,0-4.2-1.9-4.2-4.2v-0.8c0-2.7,2.2-4.9,4.9-4.9H349
			c3.2,0,5.9,2.6,5.9,5.9v1h1h18.9h1l0-0.9c0.2-4.8-1.4-9.3-4.7-12.8S363.3,162.8,358.5,162.8L358.5,162.8z"/>
	</g>
	<g>
		<linearGradient id="SVGID_11_" gradientUnits="userSpaceOnUse" x1="228.9231" y1="217.75" x2="228.9231" y2="163.25">
			<stop  offset="0" style="stop-color:#FFFFFF"/>
			<stop  offset="0.1897" style="stop-color:#FFFFFF"/>
			<stop  offset="0.2151" style="stop-color:#FEFFE5"/>
			<stop  offset="0.2685" style="stop-color:#FCFFB6"/>
			<stop  offset="0.3264" style="stop-color:#FBFF8A"/>
			<stop  offset="0.3876" style="stop-color:#FAFF65"/>
			<stop  offset="0.4529" style="stop-color:#F8FF46"/>
			<stop  offset="0.5236" style="stop-color:#F8FF2C"/>
			<stop  offset="0.6017" style="stop-color:#F7FF18"/>
			<stop  offset="0.6913" style="stop-color:#F6FF0B"/>
			<stop  offset="0.8023" style="stop-color:#F6FF02"/>
			<stop  offset="1" style="stop-color:#F6FF00"/>
		</linearGradient>
		<polygon fill="url(#SVGID_11_)" points="217.9,217.8 217.9,201.5 178.4,163.3 205.2,163.3 229.1,187.2 231.4,187.2 255.3,163.3 
			279.5,163.3 241.3,201.5 241.3,217.8 		"/>
		<path d="M278.3,163.8l-37.5,37.5v16h-22.4v-16l-38.8-37.5H205l23.9,23.9h2.7l23.9-23.9H278.3 M280.7,162.8h-2.4h-22.7h-0.4
			l-0.3,0.3l-23.6,23.6h-1.9L205.7,163l-0.3-0.3H205h-25.4h-2.5l1.8,1.7l38.4,37.2v15.6v1h1h22.4h1v-1v-15.6l37.2-37.2L280.7,162.8
			L280.7,162.8z M278.3,164.8L278.3,164.8L278.3,164.8L278.3,164.8z"/>
	</g>
	<g>
		<linearGradient id="SVGID_12_" gradientUnits="userSpaceOnUse" x1="428.5" y1="217.75" x2="428.5" y2="164.625">
			<stop  offset="0" style="stop-color:#FFFFFF"/>
			<stop  offset="0.1897" style="stop-color:#FFFFFF"/>
			<stop  offset="0.2151" style="stop-color:#FEFFE5"/>
			<stop  offset="0.2685" style="stop-color:#FCFFB6"/>
			<stop  offset="0.3264" style="stop-color:#FBFF8A"/>
			<stop  offset="0.3876" style="stop-color:#FAFF65"/>
			<stop  offset="0.4529" style="stop-color:#F8FF46"/>
			<stop  offset="0.5236" style="stop-color:#F8FF2C"/>
			<stop  offset="0.6017" style="stop-color:#F7FF18"/>
			<stop  offset="0.6913" style="stop-color:#F6FF0B"/>
			<stop  offset="0.8023" style="stop-color:#F6FF02"/>
			<stop  offset="1" style="stop-color:#F6FF00"/>
		</linearGradient>
		<polygon fill="url(#SVGID_12_)" points="417.9,217.8 417.9,177.9 385.5,177.9 385.5,164.6 471.5,164.6 471.5,177.9 438.5,177.9 
			438.5,217.8 		"/>
		<path d="M471,165.1v12.3h-33v39.9h-19.6v-39.9H386v-12.3H471 M472,164.1h-1h-85h-1v1v12.3v1h1h31.4v38.9v1h1H438h1v-1v-38.9h32h1
			v-1v-12.3V164.1L472,164.1z"/>
	</g>
	<g>
		<linearGradient id="SVGID_13_" gradientUnits="userSpaceOnUse" x1="524.125" y1="217.75" x2="524.125" y2="164.625">
			<stop  offset="0" style="stop-color:#FFFFFF"/>
			<stop  offset="0.1897" style="stop-color:#FFFFFF"/>
			<stop  offset="0.2151" style="stop-color:#FEFFE5"/>
			<stop  offset="0.2685" style="stop-color:#FCFFB6"/>
			<stop  offset="0.3264" style="stop-color:#FBFF8A"/>
			<stop  offset="0.3876" style="stop-color:#FAFF65"/>
			<stop  offset="0.4529" style="stop-color:#F8FF46"/>
			<stop  offset="0.5236" style="stop-color:#F8FF2C"/>
			<stop  offset="0.6017" style="stop-color:#F7FF18"/>
			<stop  offset="0.6913" style="stop-color:#F6FF0B"/>
			<stop  offset="0.8023" style="stop-color:#F6FF02"/>
			<stop  offset="1" style="stop-color:#F6FF00"/>
		</linearGradient>
		<polygon fill="url(#SVGID_13_)" points="485.9,217.8 485.9,164.6 562.3,164.6 562.3,176.4 507.3,176.4 507.3,185.7 559.1,185.7 
			559.1,196.1 507.3,196.1 507.3,206.1 562.3,206.1 562.3,217.8 		"/>
		<path d="M561.8,165.1v10.8h-55.1v10.3h51.8v9.4h-51.8v11h55.1v10.7h-75.4v-52.1H561.8 M562.8,164.1h-1h-75.4h-1v1v52.1v1h1h75.4h1
			v-1v-10.7v-1h-1h-54.1v-9h50.8h1v-1v-9.4v-1h-1h-50.8v-8.3h54.1h1v-1v-10.8V164.1L562.8,164.1z"/>
	</g>
	<g>
		<linearGradient id="SVGID_14_" gradientUnits="userSpaceOnUse" x1="635.021" y1="217.75" x2="635.021" y2="164.625">
			<stop  offset="0" style="stop-color:#FFFFFF"/>
			<stop  offset="0.1897" style="stop-color:#FFFFFF"/>
			<stop  offset="0.2151" style="stop-color:#FEFFE5"/>
			<stop  offset="0.2685" style="stop-color:#FCFFB6"/>
			<stop  offset="0.3264" style="stop-color:#FBFF8A"/>
			<stop  offset="0.3876" style="stop-color:#FAFF65"/>
			<stop  offset="0.4529" style="stop-color:#F8FF46"/>
			<stop  offset="0.5236" style="stop-color:#F8FF2C"/>
			<stop  offset="0.6017" style="stop-color:#F7FF18"/>
			<stop  offset="0.6913" style="stop-color:#F6FF0B"/>
			<stop  offset="0.8023" style="stop-color:#F6FF02"/>
			<stop  offset="1" style="stop-color:#F6FF00"/>
		</linearGradient>
		<polygon fill="url(#SVGID_14_)" points="673.5,217.8 673.5,177.7 672.6,177.7 642.7,217.3 627.3,217.3 597.4,177.7 596.5,177.7 
			596.6,217.8 576.6,217.8 576.6,164.6 608.7,164.6 634,197.3 636,197.3 661.4,164.6 693.5,164.6 693.5,217.8 		"/>
		<path d="M693,165.1v52.1h-19l0.1-40.1h-1.7l-29.9,39.7h-14.9l-29.9-39.7H596l0.1,40.1h-19v-52.1h31.3l25.3,32.7h2.5h0l25.3-32.7
			H693 M694,164.1h-1h-31.3h-0.5l-0.3,0.4l-25,32.3h-1.6l-25-32.3l-0.3-0.4h-0.5h-31.3h-1v1v52.1v1h1h19h1l0-1l-0.1-39.1h0.2
			l29.6,39.3l0.3,0.4h0.5h14.9h0.5l0.3-0.4l29.6-39.3h0.2l-0.1,39.1l0,1h1h19h1v-1v-52.1V164.1L694,164.1z"/>
	</g>
</g>
<g>
	<polygon points="30.3,72.2 28.3,78.1 34.6,76 48.6,76 53.9,78.1 56.6,72.2 48.6,74.2 34.6,74.2 	"/>
	<polygon points="72.2,72.2 70.2,78.1 76.5,76 90.5,76 95.2,78.1 97.9,72.2 90.5,74.2 76.5,74.2 	"/>
	<polygon points="112.3,71.8 112.1,77.8 117.5,76 131.5,76 137.4,78.1 137.9,72.2 131.5,74.2 117.5,74.2 	"/>
	<polygon points="145.5,72 145.3,78 150.7,76.2 208.5,75.8 214.4,77.9 215.9,72 208.5,74 150.7,74.4 	"/>
	<polygon points="231.1,72 231.1,78 236.5,76.2 250.5,76.2 255.6,78.3 255.6,72.4 250.5,74.4 236.5,74.4 	"/>
	<polygon points="277.9,72 274.7,78.1 280.5,76.1 304.1,76.2 309.3,78.3 309.3,72.4 304.1,74.4 280.5,74.3 	"/>
	<polygon points="318.6,71.8 318.6,77.8 324,76 338,76 343.2,78.1 343.2,72.2 338,74.2 324,74.2 	"/>
	<polygon points="362,71.8 363.5,77.6 368.3,76 382.3,76 388.8,77.9 387,72.4 382.3,74.2 368.3,74.2 	"/>
	<polygon points="417,78.8 417,84.8 422.4,83 444.1,82.8 449.3,84.8 449.3,79 444.1,81 422.4,81.2 	"/>
	<polygon points="465.9,72.8 465.9,78.8 471.2,77.1 488.9,76.8 494.1,78.8 494.1,73 488.9,75 471.2,75.2 	"/>
	<polygon points="530.3,72.8 530.3,78.8 535.7,77.1 596.6,76.7 600.8,78.7 602.7,72.8 596.6,74.9 535.7,75.2 	"/>
	<polygon points="613.7,72.8 613.7,78.8 619.1,77.1 634.4,76.7 639.6,78.8 639.6,72.9 634.4,74.9 619.1,75.2 	"/>
	<polygon points="699.8,72.8 699.8,78.8 705.1,77.1 771.5,76.7 776.6,78.8 776.6,72.9 771.5,74.9 705.1,75.2 	"/>
</g>
</svg>
