<?xml version="1.0" encoding="UTF-8" standalone="no"?>
<svg
   width="400"
   height="122.024"
   xml:space="preserve"
   version="1.1"
   id="svg6"
   sodipodi:docname="midway-w.svg"
   inkscape:version="1.1 (c68e22c387, 2021-05-23)"
   xmlns:inkscape="http://www.inkscape.org/namespaces/inkscape"
   xmlns:sodipodi="http://sodipodi.sourceforge.net/DTD/sodipodi-0.dtd"
   xmlns="http://www.w3.org/2000/svg"
   xmlns:svg="http://www.w3.org/2000/svg"><defs
   id="defs10" /><sodipodi:namedview
   id="namedview8"
   pagecolor="#ffffff"
   bordercolor="#666666"
   borderopacity="1.0"
   inkscape:pageshadow="2"
   inkscape:pageopacity="0.0"
   inkscape:pagecheckerboard="0"
   showgrid="false"
   inkscape:zoom="2.645"
   inkscape:cx="199.81096"
   inkscape:cy="61.058601"
   inkscape:window-width="1920"
   inkscape:window-height="1017"
   inkscape:window-x="-8"
   inkscape:window-y="712"
   inkscape:window-maximized="1"
   inkscape:current-layer="svg6" />
    <path
   d="m50.359 107.836-13.702-16.81 4.163 16.455-20.55-19.096c-3.516 1.761-5.62 4.116-5.62 6.802 0 6.322 11.666 12.136 25.972 12.941 3.44.193 6.727.08 9.737-.292zm.957-21.045 5.327 19.784c6.052-1.765 9.95-4.811 9.95-8.466 0-4.64-6.281-9.005-15.277-11.318zm-25.96-14.005 5.947 21.61-11.982-12.213C12.573 84.67 8.469 88.555 8.505 93.077c0 8.319 14.294 15.719 31.82 16.473 3.883.167 7.607-.007 11.051-.467l8.874 10.888-3.22-11.961c9.06-2.278 15.116-6.782 15.116-12.196 0-7.994-13.2-15.14-29.782-16.355l5.396 19.298-22.403-25.971"
   style="fill:#d63647;fill-opacity:1;fill-rule:evenodd;stroke:none"
   transform="matrix(2.16218 0 0 -2.16218 -8.387 269.4)"
   id="path2" />
    <path
   d="M85.809 105.203h-7.327L72.559 84.88h5.594l2.321 7.966.961 4.642-.57-12.608h4.363l6.742 12.388-1.736-4.422-2.32-7.966h5.564l5.923 20.323h-7.299l-6.79-12.357.497 12.357M101.778 105.203 95.855 84.88h6.07l5.921 20.323h-6.068M114.886 100.373c1.54.042 2.7-.298 3.477-1.02.778-.721.896-2.074.355-4.06-.341-1.171-.75-2.128-1.227-2.87-.478-.743-1.015-1.323-1.612-1.741a5.04 5.04 0 0 0-1.921-.831 8.734 8.734 0 0 0-2.18-.142l3.108 10.664zm-4.55 4.83-5.923-20.323h7.915c1.417 0 2.772.188 4.066.564 1.293.376 2.483.988 3.569 1.834 1.085.847 2.049 1.945 2.889 3.294.84 1.348 1.513 2.984 2.017 4.909.511 1.944.586 3.543.224 4.798-.361 1.255-.938 2.248-1.732 2.98a6.542 6.542 0 0 1-2.717 1.521c-1.018.282-1.937.423-2.757.423h-7.551M127.423 105.203 126.2 84.88h5.873l5.394 11.698-1.228-11.698h5.901l10.286 20.323h-5.678l-5.614-12.357 1.615 12.357h-5.509l-5.335-12.357 1.559 12.357h-6.041M154.405 91.748l3.691 6.617-.138-6.617h-3.553zm2.607 13.455L144.546 84.88h6.124l1.355 2.634h5.902l-.181-2.634h6.124l-.565 20.323h-6.293M164.704 105.203l2.928-12.984-2.139-7.34h5.901l2.138 7.34 10.72 12.984h-6.936l-4.856-6.587-1.045 6.587h-6.711"
   style="fill:#000;fill-opacity:1;fill-rule:evenodd;stroke:none"
   transform="matrix(2.16218 0 0 -2.16218 -8.387 269.4)"
   id="path4" />
<path
   style="fill:#ffffff;fill-opacity:0.941176;stroke-width:0.378072"
   d="m 148.9603,85.438208 c 0,-0.296095 7.90049,-27.720501 12.33299,-42.810609 0.17688,-0.602191 0.88828,-0.661625 7.91933,-0.661625 h 7.725 v 0.855985 c 0,1.473746 -0.72231,18.429384 -0.95405,22.395432 -0.18985,3.249201 -0.14661,3.700991 0.30755,3.213611 0.29066,-0.311909 3.71898,-6.39414 7.6185,-13.516068 l 7.09002,-12.94896 h 7.65021 7.65021 l -6.36196,21.833648 c -3.49908,12.008507 -6.36272,21.876181 -6.36364,21.928166 -7.6e-4,0.05199 -2.62049,0.09452 -5.82125,0.09452 h -5.81958 l 2.4468,-8.412098 c 1.34574,-4.626654 3.30165,-10.592015 4.34645,-13.256358 1.04482,-2.664343 1.81828,-4.925643 1.71881,-5.02511 -0.0995,-0.09947 -3.46409,5.865893 -7.47694,13.256358 l -7.29608,13.437208 h -4.4715 -4.47149 v -1.282261 c 0,-0.70524 0.25946,-6.683964 0.57658,-13.286051 0.31712,-6.602086 0.49126,-12.089118 0.38697,-12.193403 -0.26664,-0.266636 -0.40781,0.25617 -1.50943,5.589693 -0.53686,2.599243 -2.0478,8.383742 -3.35764,12.854442 l -2.38153,8.128544 -5.74216,0.104367 c -3.88506,0.07061 -5.74217,-0.02623 -5.74217,-0.299429 z"
   id="path864" /><path
   style="fill:#ffffff;fill-opacity:0.941176;stroke-width:0.378072"
   d="m 199.35539,85.058563 c 0.11254,-0.430344 2.97803,-10.302227 6.36776,-21.937516 l 6.16315,-21.155073 h 6.36966 6.36966 l -0.27447,0.850661 c -0.15096,0.467864 -3.02683,10.293006 -6.39083,21.833649 l -6.11635,20.982986 -6.3466,0.103872 c -6.25559,0.102378 -6.34366,0.09265 -6.14198,-0.678579 z"
   id="path903" /><path
   style="fill:#ffffff;fill-opacity:0.941176;stroke-width:0.378072"
   d="m 217.76938,85.566023 c 0,-0.140953 2.84211,-10.024952 6.3158,-21.964437 l 6.3158,-21.708156 9.65773,0.160991 c 10.5129,0.175246 12.22552,0.465325 16.07851,2.723326 4.01103,2.35062 6.53506,7.645614 6.13925,12.879124 -0.38627,5.107458 -2.95224,12.429943 -5.83362,16.647413 -4.48252,6.561054 -10.36168,10.127493 -18.345,11.128518 -3.42953,0.430026 -20.32847,0.540775 -20.32847,0.133221 z m 22.93018,-11.20792 c 4.57134,-2.316469 8.45107,-9.458093 8.44919,-15.552847 -0.001,-3.850788 -2.43722,-6.100357 -7.05993,-6.51953 l -2.21739,-0.201065 -3.30056,11.347606 c -1.8153,6.241184 -3.30055,11.559925 -3.30055,11.819424 0,0.834702 5.26937,0.200904 7.42924,-0.893588 z"
   id="path942" /><path
   style="fill:#ffffff;fill-opacity:0.941176;stroke-width:0.378072"
   d="m 264.82774,82.89225 c 0.20155,-2.574152 2.46905,-39.896051 2.46905,-40.639393 0,-0.157786 2.80718,-0.286883 6.23818,-0.286883 6.089,0 6.23819,0.01902 6.23819,0.795495 0,0.437522 -0.68681,6.254203 -1.52624,12.925958 -0.83943,6.671754 -1.47743,12.383619 -1.41777,12.693033 0.0597,0.309413 2.72539,-5.507268 5.92385,-12.925958 l 5.81539,-13.488528 h 5.77493 c 5.30257,0 5.76318,0.05412 5.63137,0.661625 -0.41541,1.914633 -3.22238,24.784446 -3.1198,25.418618 0.0673,0.416059 2.7922,-5.174347 6.16968,-12.657724 l 6.04915,-13.402896 5.91571,-0.0098 5.9157,-0.0098 -6.81377,13.516068 c -3.74757,7.433837 -8.75898,17.301512 -11.13645,21.928166 l -4.32268,8.412098 h -6.02689 -6.02689 l 2.4e-4,-1.039697 c 1.4e-4,-0.571834 0.51847,-5.880849 1.15185,-11.797812 0.63337,-5.916963 1.10113,-11.170077 1.03945,-11.673588 -0.0755,-0.616036 -2.02365,3.242844 -5.95622,11.797812 l -5.84408,12.713285 h -6.18568 -6.18569 z"
   id="path981" /><path
   style="fill:#ffffff;fill-opacity:0.941176;stroke-width:0.378072"
   d="m 304.7259,85.595195 c 0,-0.124915 5.99171,-9.992589 13.31491,-21.928168 l 13.31491,-21.701053 h 6.53386 c 3.59362,0 6.54341,0.04253 6.55509,0.09452 0.101,0.449737 1.08641,35.568821 1.09796,39.130435 l 0.015,4.63138 h -6.23819 -6.23818 V 82.98677 80.151232 h -6.53336 -6.53335 l -1.40306,2.835538 -1.40306,2.835539 h -6.24128 c -3.43271,0 -6.24128,-0.1022 -6.24128,-0.227111 z M 333.45936,63.89414 c 0,-3.950851 -0.0633,-7.183365 -0.14068,-7.183365 -0.0774,0 -1.72348,2.849716 -3.65803,6.332703 -1.93455,3.482987 -3.76226,6.715501 -4.0616,7.183365 l -0.54424,0.850662 h 4.20228 4.20227 z"
   id="path1020" /><path
   style="fill:#ffffff;fill-opacity:0.941176;stroke-width:0.378072"
   d="m 349.86481,85.160681 c 0.10962,-0.363895 1.14801,-3.915558 2.30752,-7.892588 l 2.10821,-7.230961 -3.04615,-13.562989 c -1.67538,-7.459645 -3.1223,-13.775655 -3.21536,-14.03558 -0.13152,-0.367306 1.41321,-0.472589 6.93389,-0.472589 h 7.10311 l 1.06119,6.89981 c 0.58365,3.794897 1.17697,7.028518 1.31849,7.185827 0.14152,0.157309 2.62954,-2.946551 5.52894,-6.897467 l 5.27164,-7.183483 7.11116,-0.0023 c 5.59036,-0.0018 7.04981,0.09873 6.82427,0.470246 -0.15779,0.259925 -5.08145,6.274752 -10.94146,13.366282 -5.86002,7.091531 -10.9139,13.301361 -11.23085,13.799622 -0.31694,0.498262 -1.57062,4.350886 -2.78594,8.561388 l -2.20969,7.655457 -6.16914,3.78e-4 c -5.69939,5.78e-4 -6.15397,-0.04977 -5.96983,-0.661009 z"
   id="path1059" /></svg>
