<?xml version="1.0" encoding="UTF-8" standalone="no"?>
<svg
   height="155.766"
   viewBox="0 0 602.165 280.379"
   width="334.536"
   version="1.1"
   id="svg25"
   sodipodi:docname="mitchell-w.svg"
   inkscape:version="1.1 (c68e22c387, 2021-05-23)"
   xmlns:inkscape="http://www.inkscape.org/namespaces/inkscape"
   xmlns:sodipodi="http://sodipodi.sourceforge.net/DTD/sodipodi-0.dtd"
   xmlns="http://www.w3.org/2000/svg"
   xmlns:svg="http://www.w3.org/2000/svg">
  <defs
     id="defs29" />
  <sodipodi:namedview
     id="namedview27"
     pagecolor="#ffffff"
     bordercolor="#666666"
     borderopacity="1.0"
     inkscape:pageshadow="2"
     inkscape:pageopacity="0.0"
     inkscape:pagecheckerboard="0"
     showgrid="false"
     inkscape:zoom="8.9451533"
     inkscape:cx="272.60573"
     inkscape:cy="151.64637"
     inkscape:window-width="1920"
     inkscape:window-height="1017"
     inkscape:window-x="-8"
     inkscape:window-y="712"
     inkscape:window-maximized="1"
     inkscape:current-layer="svg25" />
  <linearGradient
     id="a"
     gradientUnits="userSpaceOnUse"
     x1=".563"
     x2="532.588"
     y1="141.077"
     y2="141.077">
    <stop
       offset="0"
       stop-color="#3c409a"
       id="stop2" />
    <stop
       offset=".252"
       stop-color="#3d469e"
       id="stop4" />
    <stop
       offset=".459"
       stop-color="#55beed"
       id="stop6" />
    <stop
       offset=".722"
       stop-color="#55beed"
       id="stop8" />
    <stop
       offset="1"
       stop-color="#fff"
       id="stop10" />
  </linearGradient>
  <text
     fill="#ef00eb"
     font-family="TrasksHand"
     font-size="3.6"
     stroke="#0105ff"
     stroke-width="4.5"
     x="489.596"
     y="226.331"
     transform="translate(-.563 -.887)"
     id="text15"><tspan
       fill="#fafafa"
       fill-opacity=".4"
       stroke="none"
       x="489.596"
       y="226.331"
       id="tspan13">John Loreth 2022</tspan></text>
  <path
     d="M80.773 181.908c61.266-23.427 139.174-84.481 205.954-169.016 20.632-25.443 68.223-9.013 56.03 35.78-1.043 9.032-21.375 37.694-25.377 55.693-5.067 62.973 49.42 47.17 62.415 25.016l25.264-38.27c33.61-39.343 64.38 7.521 42.952 48.458-5.38 29.817 13.625 41.397 32.925 26.718 25.934-44.679 59.122-33.176 50.155 4.154-6.175 21.075-22.458 44.8-37.816 54.177-33.39 20.388-66.882 7.375-83.756-18.608-18.886-27.34-27.374-6.219-38.592 2.18-30.385 39.273-103.696 46.352-122.79-6.27-11.588-62.594-28.943-24.627-71.694 21.217-26.623 32.5-72.968 59.595-103.143 57.83-75.951 6.63-96.57-98.836-42.033-105.495 15.254-.512 22.13 8.5 49.506 6.436z"
     fill="url(#a)"
     transform="translate(-.563 -.887)"
     id="path17" />
  <g
     stroke-width="2.5"
     id="g23">
    <path
       d="m602.165 201.38-2.135 24.376h-50.413v-1.895h1.885q2.47 0 3.977-1.075 1.089-.717 1.675-2.458.46-1.23.46-6.453v-45.679q0-5.326-.46-6.657-.46-1.332-1.884-2.305-1.382-1.024-3.768-1.024h-1.885v-1.895h30.273v1.895h-2.47q-2.47 0-3.978 1.076-1.089.717-1.717 2.458-.46 1.229-.46 6.452v44.245q0 5.326.502 6.811.503 1.434 1.968 2.15 1.047.462 5.066.462h4.732q4.522 0 7.537-1.946 3.014-1.946 5.192-6.145 2.219-4.2 4.187-12.393zm-65.999 0-2.135 24.376h-50.413v-1.895h1.884q2.47 0 3.978-1.075 1.089-.717 1.675-2.458.46-1.23.46-6.453v-45.679q0-5.326-.46-6.657-.46-1.332-1.884-2.305-1.382-1.024-3.769-1.024h-1.884v-1.895h30.273v1.895h-2.47q-2.47 0-3.978 1.076-1.089.717-1.717 2.458-.46 1.229-.46 6.452v44.245q0 5.326.502 6.811.502 1.434 1.968 2.15 1.047.462 5.066.462h4.732q4.522 0 7.536-1.946 3.015-1.946 5.192-6.145 2.22-4.2 4.187-12.393zm-95.426-41.07v28.268h1.13q5.402 0 7.83-4.148 2.429-4.148 3.098-12.24h1.592v36.36h-1.592q-.502-5.941-2.135-9.73-1.591-3.79-3.726-5.07-2.136-1.332-6.197-1.332v19.562q0 5.736.376 7.016.42 1.28 1.508 2.1 1.088.819 3.517.819h3.392q7.955 0 12.728-4.506 4.815-4.507 6.909-13.725h1.55l-2.555 22.072h-49.073v-1.895h1.885q2.47 0 3.977-1.075 1.089-.717 1.675-2.458.46-1.23.46-6.453v-45.679q0-4.711-.209-5.787-.418-1.792-1.549-2.765-1.59-1.434-4.354-1.434h-1.885v-1.895h47.524v20.536h-1.591q-1.214-7.528-3.434-10.806-2.177-3.277-6.197-4.813-2.344-.922-8.792-.922zm-73.917 32.057v21.508q0 5.326.46 6.657.503 1.332 1.885 2.356 1.424.973 3.81.973h1.885v1.895h-29.687v-1.895h1.884q2.47 0 3.978-1.075 1.089-.717 1.675-2.458.46-1.23.46-6.453v-45.679q0-5.326-.46-6.657-.46-1.332-1.884-2.305-1.382-1.024-3.769-1.024h-1.884v-1.895h29.687v1.895h-1.885q-2.47 0-3.977 1.076-1.089.717-1.717 2.458-.46 1.229-.46 6.452v19.665h20.055v-19.665q0-5.326-.46-6.657-.46-1.332-1.884-2.305-1.424-1.024-3.81-1.024h-1.843v-1.895h29.645v1.895h-1.843q-2.512 0-3.977 1.076-1.089.717-1.717 2.458-.46 1.229-.46 6.452v45.68q0 5.325.46 6.656.46 1.332 1.884 2.356 1.424.973 3.81.973h1.843v1.895h-29.645v-1.895h1.842q2.513 0 3.978-1.075 1.089-.717 1.717-2.458.46-1.23.46-6.453v-21.508zm-36.17-37.639v24.068h-1.634q-1.842-9.422-6.867-14.44-5.024-5.02-11.389-5.02-5.317 0-9.755 3.74-4.439 3.737-6.49 9.78-2.638 7.733-2.638 17.207 0 9.32 1.926 17.001 1.926 7.63 6.03 11.574 4.103 3.892 10.634 3.892 5.36 0 9.798-2.868 4.48-2.868 9.421-9.884v5.992q-4.773 6.094-9.965 8.86-5.15 2.713-12.059 2.713-9.086 0-16.162-4.455-7.034-4.455-10.887-12.802-3.81-8.348-3.81-17.77 0-9.935 4.23-18.845 4.27-8.91 11.472-13.827 7.243-4.916 15.366-4.916 5.988 0 12.645 3.175 3.852 1.843 4.9 1.843 1.34 0 2.302-1.177 1.005-1.23 1.298-3.841zm-68.578 1.587v18.794h-1.507q-1.34-6.503-2.973-9.32-1.633-2.867-4.48-4.557-1.591-.922-5.57-.922h-4.228v53.565q0 5.326.46 6.657.503 1.332 1.885 2.356 1.423.973 3.852.973h1.884v1.895H221.67v-1.895h1.884q2.47 0 3.978-1.075 1.088-.717 1.716-2.458.461-1.23.461-6.453V160.31h-4.103q-5.737 0-8.333 2.97-3.642 4.148-4.605 11.83h-1.592v-18.795zm-63.407 67.546v1.895H168.98v-1.895h1.884q2.47 0 3.978-1.075 1.089-.717 1.675-2.458.46-1.23.46-6.453v-45.679q0-5.326-.46-6.657-.46-1.332-1.884-2.305-1.382-1.024-3.769-1.024h-1.884v-1.895h29.687v1.895h-1.884q-2.47 0-3.978 1.076-1.089.717-1.717 2.458-.46 1.229-.46 6.452v45.68q0 5.325.46 6.656.503 1.332 1.884 2.356 1.424.973 3.81.973zm-79.794-21.764 15.409-45.782h23.112v1.895h-1.842q-2.512 0-4.02 1.076-1.046.717-1.675 2.406-.46 1.23-.46 6.402v45.781q0 5.326.46 6.657.461 1.332 1.885 2.356 1.423.973 3.81.973h1.842v1.895h-29.644v-1.895h1.842q2.512 0 4.02-1.075 1.046-.717 1.674-2.458.461-1.23.461-6.453V162.41l-21.773 63.347h-1.005L90.862 162.87v48.905q0 5.121.21 6.3.544 2.56 2.345 4.198 1.842 1.588 5.736 1.588v1.895H79.725v-1.895h.586q1.884.051 3.517-.717 1.633-.82 2.47-2.15.838-1.332 1.299-3.74.083-.562.083-5.222v-43.938q0-5.275-.46-6.555-.46-1.332-1.885-2.305-1.423-1.024-3.81-1.024h-1.8v-1.895h23.196z"
       fill="#fff"
       id="path19" />
    <path
       d="m116.34 199.011 15.408-45.781h23.113v1.895h-1.843q-2.512 0-4.02 1.075-1.046.717-1.674 2.407-.46 1.229-.46 6.401v45.781q0 5.326.46 6.658.46 1.331 1.884 2.355 1.424.973 3.81.973h1.843v1.895h-29.645v-1.895h1.842q2.513 0 4.02-1.075 1.047-.717 1.675-2.458.46-1.23.46-6.453v-51.465L111.44 222.67h-1.004l-22.108-62.885v48.905q0 5.12.21 6.299.543 2.56 2.344 4.199 1.842 1.587 5.736 1.587v1.895H77.19v-1.895h.586q1.884.052 3.517-.717 1.633-.819 2.47-2.15.838-1.332 1.299-3.739.084-.563.084-5.223v-43.938q0-5.275-.461-6.555-.46-1.331-1.884-2.304-1.424-1.024-3.81-1.024h-1.8v-1.895h23.196zM196.133 220.775v1.895h-29.686v-1.895h1.884q2.47 0 3.977-1.075 1.09-.717 1.675-2.458.46-1.23.46-6.453V165.11q0-5.325-.46-6.657-.46-1.331-1.884-2.304-1.382-1.024-3.768-1.024h-1.884v-1.895h29.686v1.895h-1.884q-2.47 0-3.978 1.075-1.089.717-1.717 2.458-.46 1.23-.46 6.452v45.68q0 5.325.46 6.657.503 1.331 1.885 2.355 1.423.973 3.81.973zM259.54 153.23v18.794h-1.507q-1.34-6.504-2.973-9.32-1.633-2.868-4.48-4.558-1.591-.922-5.569-.922h-4.229v53.565q0 5.326.46 6.658.503 1.331 1.885 2.355 1.424.973 3.852.973h1.884v1.895h-29.728v-1.895h1.884q2.47 0 3.978-1.075 1.089-.717 1.717-2.458.46-1.23.46-6.453v-53.565h-4.103q-5.736 0-8.332 2.97-3.643 4.148-4.606 11.83h-1.591V153.23zM328.117 151.642v24.069h-1.633q-1.842-9.423-6.866-14.441-5.025-5.019-11.39-5.019-5.317 0-9.755 3.739-4.438 3.738-6.49 9.78-2.638 7.733-2.638 17.207 0 9.32 1.926 17.002 1.926 7.63 6.03 11.573 4.103 3.892 10.635 3.892 5.36 0 9.797-2.868 4.48-2.868 9.421-9.883v5.991q-4.773 6.094-9.965 8.86-5.15 2.714-12.059 2.714-9.086 0-16.162-4.456-7.034-4.455-10.886-12.802-3.81-8.347-3.81-17.77 0-9.934 4.228-18.845 4.271-8.91 11.473-13.827 7.244-4.916 15.367-4.916 5.987 0 12.645 3.175 3.852 1.844 4.899 1.844 1.34 0 2.302-1.178 1.005-1.229 1.298-3.84zM364.289 189.281v21.508q0 5.326.46 6.658.503 1.331 1.884 2.355 1.424.973 3.81.973h1.885v1.895H342.64v-1.895h1.885q2.47 0 3.977-1.075 1.089-.717 1.675-2.458.46-1.23.46-6.453V165.11q0-5.325-.46-6.657-.46-1.331-1.884-2.304-1.382-1.024-3.768-1.024h-1.885v-1.895h29.687v1.895h-1.884q-2.47 0-3.978 1.075-1.089.717-1.717 2.458-.46 1.23-.46 6.452v19.665h20.056V165.11q0-5.325-.46-6.657-.461-1.331-1.885-2.304-1.424-1.024-3.81-1.024h-1.843v-1.895h29.645v1.895h-1.842q-2.513 0-3.978 1.075-1.089.717-1.717 2.458-.46 1.23-.46 6.452v45.68q0 5.325.46 6.657.46 1.331 1.884 2.355 1.424.973 3.81.973h1.843v1.895h-29.645v-1.895h1.843q2.512 0 3.977-1.075 1.09-.717 1.717-2.458.46-1.23.46-6.453v-21.508zM438.205 157.224v28.268h1.13q5.402 0 7.83-4.148 2.429-4.148 3.099-12.24h1.59v36.36h-1.59q-.503-5.94-2.136-9.73-1.59-3.79-3.726-5.07-2.136-1.331-6.197-1.331v19.562q0 5.735.377 7.015.418 1.28 1.507 2.1 1.089.82 3.517.82h3.392q7.955 0 12.729-4.507 4.815-4.507 6.908-13.724h1.55l-2.555 22.071h-49.072v-1.895h1.884q2.47 0 3.978-1.075 1.088-.717 1.674-2.458.461-1.23.461-6.453V165.11q0-4.71-.21-5.786-.418-1.793-1.549-2.766-1.59-1.433-4.354-1.433h-1.884v-1.895h47.523v20.535h-1.591q-1.214-7.528-3.433-10.805-2.178-3.278-6.197-4.814-2.345-.922-8.793-.922zM533.631 198.294l-2.135 24.376h-50.412v-1.895h1.884q2.47 0 3.977-1.075 1.09-.717 1.675-2.458.46-1.23.46-6.453V165.11q0-5.325-.46-6.657-.46-1.331-1.884-2.304-1.382-1.024-3.768-1.024h-1.884v-1.895h30.272v1.895h-2.47q-2.47 0-3.978 1.075-1.089.717-1.717 2.458-.46 1.23-.46 6.452v44.246q0 5.325.502 6.81.503 1.434 1.968 2.151 1.047.461 5.067.461h4.73q4.523 0 7.538-1.946 3.014-1.946 5.192-6.145 2.219-4.2 4.187-12.393zM599.63 198.294l-2.135 24.376h-50.412v-1.895h1.884q2.47 0 3.978-1.075 1.088-.717 1.674-2.458.461-1.23.461-6.453V165.11q0-5.325-.46-6.657-.461-1.331-1.885-2.304-1.382-1.024-3.768-1.024h-1.884v-1.895h30.272v1.895h-2.47q-2.47 0-3.978 1.075-1.088.717-1.717 2.458-.46 1.23-.46 6.452v44.246q0 5.325.502 6.81.503 1.434 1.968 2.151 1.047.461 5.067.461h4.731q4.522 0 7.537-1.946 3.015-1.946 5.192-6.145 2.219-4.2 4.187-12.393zM199.432 265.24l-1.528-.866c-2.903 2.11-4.481 2.906-6.977 3.598-1.477.38-3.055.588-4.481.588-3.31 0-6.417-1.176-7.894-2.94-1.477-1.8-2.14-4.22-2.14-7.646 0-7.057 3.158-10.759 9.168-10.759 2.342 0 4.481.623 6.62 1.903 2.19 1.315 3.362 2.456 5.093 5.016h1.222v-7.922h-1.324c-.764 1.21-1.222 1.557-2.24 1.557-.459 0-1.172-.139-2.292-.45-2.852-.83-5.297-1.21-7.69-1.21-9.931 0-17.367 5.189-17.367 12.177 0 6.988 7.283 11.9 17.672 11.9 5.704 0 9.116-1.21 14.158-4.947zM220.87 246.108c-10.33 0-17.637 5.017-17.637 12.074 0 7.023 7.257 12.004 17.486 12.004 10.18 0 17.436-4.981 17.436-12.039 0-6.919-7.307-12.039-17.285-12.039zm-.05 1.107c5.442 0 8.617 4.117 8.617 11.174 0 6.989-3.024 10.69-8.768 10.69-5.644 0-8.718-3.701-8.718-10.586 0-7.334 3.074-11.278 8.869-11.278zM274.277 270.095v-.874c-.907 0-1.562-.218-2.015-.691l-9.927-10.154c2.922-.692 4.182-1.129 5.543-2.038 1.41-.947 2.217-2.402 2.217-4.004 0-4.112-4.838-6.333-13.908-6.333h-15.924v.874c3.528.146 4.233.655 4.334 3.275v15.76c-.1 2.656-.554 3.02-4.334 3.311v.874h16.68v-.874c-3.78-.364-4.233-.728-4.334-3.312v-6.987h1.31l10.23 11.173zm-21.668-12.302v-9.098c0-.219.202-.728.353-.947.302-.364 1.058-.545 2.318-.545 4.535 0 6.4 1.528 6.4 5.277 0 2.293-.706 3.676-2.318 4.44-1.31.619-2.974.837-6.753.873zM276.318 269.221v.874h15.327v-.874c-3.562-.327-3.937-.655-4.031-3.312v-6.623c6.234-.037 7.78-.146 9.796-.765 3.703-1.128 5.718-3.275 5.718-6.078 0-4.112-4.312-6.442-12.046-6.442h-14.764v.874c3.14.182 3.75.728 3.844 3.275v15.76c-.047 2.22-.703 2.984-2.766 3.166-.14 0-.609.073-1.078.145zm11.296-11.173v-9.572c0-.837.75-1.237 2.297-1.237 3.796 0 5.343 1.565 5.343 5.386 0 2.293-.516 3.64-1.781 4.44-1.078.728-2.578.983-5.859.983zM323.973 246.108c-10.33 0-17.637 5.017-17.637 12.074 0 7.023 7.256 12.004 17.486 12.004 10.179 0 17.435-4.981 17.435-12.039 0-6.919-7.307-12.039-17.284-12.039zm-.05 1.107c5.442 0 8.616 4.117 8.616 11.174 0 6.989-3.023 10.69-8.768 10.69-5.644 0-8.718-3.701-8.718-10.586 0-7.334 3.074-11.278 8.87-11.278zM378.663 270.095v-.874c-.908 0-1.563-.218-2.016-.691l-9.927-10.154c2.922-.692 4.182-1.129 5.543-2.038 1.41-.947 2.217-2.402 2.217-4.004 0-4.112-4.838-6.333-13.908-6.333h-15.924v.874c3.528.146 4.233.655 4.334 3.275v15.76c-.1 2.656-.554 3.02-4.334 3.311v.874h16.68v-.874c-3.78-.364-4.233-.728-4.334-3.312v-6.987h1.31l10.23 11.173zm-21.669-12.302v-9.098c0-.219.202-.728.353-.947.302-.364 1.058-.545 2.318-.545 4.535 0 6.4 1.528 6.4 5.277 0 2.293-.706 3.676-2.318 4.44-1.31.619-2.973.837-6.753.873zM413.49 270.095v-.874c-2.208 0-2.773-.51-5.494-4.986l-11.192-18.743h-1.437l-11.141 19.544c-1.9 3.348-2.516 3.858-4.929 4.185v.874h10.217v-.874c-2.978-.145-4.107-.546-4.107-1.492 0-.473.41-1.456 1.437-3.239l.77-1.42h11.295c1.694 2.767 2.31 4.077 2.31 4.877 0 .728-.667 1.056-2.413 1.165a19.7 19.7 0 0 0-1.591.11v.873zm-15.351-8.407h-9.806l4.723-8.662zM435.786 270.095v-.874c-4.106-.182-4.65-.546-4.749-3.312v-18.78c5.936.146 8.508 1.784 9.3 6.042h1.384l-.049-7.17h-29.135l-.099 7.17h1.385c.792-4.258 3.364-5.896 9.35-6.041v18.78c-.1 2.729-.644 3.093-4.7 3.311v.874zM461.239 270.095v-.874c-3.611-.145-4.551-.691-4.6-2.547v-17.251c.049-1.893 1.088-2.475 4.6-2.548V246h-16.967v.874c3.413.146 4.403.691 4.501 2.548v17.25c-.049 1.82-.989 2.33-4.5 2.548v.874zM481.973 246.108c-10.33 0-17.637 5.017-17.637 12.074 0 7.023 7.257 12.004 17.486 12.004 10.18 0 17.435-4.981 17.435-12.039 0-6.919-7.306-12.039-17.284-12.039zm-.05 1.107c5.442 0 8.617 4.117 8.617 11.174 0 6.989-3.024 10.69-8.768 10.69-5.644 0-8.718-3.701-8.718-10.586 0-7.334 3.074-11.278 8.869-11.278zM501.53 269.16v.872h10.924v-.873c-3.642-.327-4.527-.981-4.576-3.526v-14.357l21.6 19.41h1.33v-20.973c0-2.036.639-2.508 3.739-2.872v-.872h-10.333v.872c3.493.255 4.477 1.018 4.477 3.526v10.905l-16.877-15.303h-10.136v.872c.935 0 1.82.545 4.084 2.58v16.867c-.05 2.108-.788 2.58-4.232 2.871z"
       id="path21" />
  </g>
  <path
     style="fill:#ffffff;fill-opacity:0.941176;stroke-width:0.316197"
     d="m 43.002739,123.15858 c 0,-0.29758 0.300374,-0.4743 0.806193,-0.4743 1.379441,0 2.559131,-0.83819 3.107071,-2.20762 0.44912,-1.12246 0.513488,-3.20305 0.513488,-16.59759 0,-11.199798 -0.101491,-15.537013 -0.377755,-16.143347 -0.453393,-0.995089 -1.764041,-1.730246 -3.084705,-1.730246 -0.530361,0 -0.964292,-0.145234 -0.964292,-0.322743 0,-0.211666 2.188576,-0.293285 6.359049,-0.237148 l 6.359049,0.0856 4.317876,12.389657 c 2.374832,6.814307 4.401723,12.473497 4.504203,12.575977 0.102479,0.10248 2.10653,-5.47286 4.453445,-12.38965 l 4.267119,-12.575984 6.370999,-0.0856 c 3.579153,-0.04809 6.370998,0.03781 6.370998,0.196025 0,0.154892 -0.671174,0.357273 -1.491499,0.449736 -1.092836,0.123178 -1.684452,0.392433 -2.213376,1.007344 l -0.721877,0.83923 v 16.597789 16.59779 l 0.836662,0.77539 c 0.62176,0.57623 1.190284,0.77539 2.213377,0.77539 1.012948,0 1.376713,0.12533 1.376713,0.4743 0,0.40943 -1.124256,0.47429 -8.221112,0.47429 -7.096857,0 -8.221111,-0.0649 -8.221111,-0.47429 0,-0.3409 0.348456,-0.4743 1.238925,-0.4743 1.701478,0 2.176205,-0.2342 2.801613,-1.38215 0.483157,-0.88684 0.550295,-2.63513 0.648151,-16.8782 0.06004,-8.738884 -0.01252,-15.88888 -0.16126,-15.88888 -0.241552,0 -4.953553,13.37666 -10.329783,29.3247 -1.069455,3.17243 -2.015672,5.76919 -2.102704,5.77059 -0.08703,10e-4 -0.446339,-0.81563 -0.798458,-1.8156 -0.352119,-0.99997 -3.12668,-8.91034 -6.165691,-17.57859 l -5.525475,-15.76047 -0.08201,15.6914 c -0.07087,13.55978 -0.01645,15.81818 0.400598,16.62466 0.544239,1.05244 1.939809,1.89254 3.143869,1.89254 0.505819,0 0.806194,0.17672 0.806194,0.4743 0,0.40243 -0.790492,0.47429 -5.217244,0.47429 -4.426753,0 -5.217244,-0.0719 -5.217244,-0.47429 z"
     id="path883"
     transform="scale(1.8000009)" />
  <path
     style="fill:#ffffff;fill-opacity:0.941176;stroke-width:0.316197"
     d="m 92.645606,123.15858 c 0,-0.34143 0.34937,-0.4743 1.247154,-0.4743 0.862338,0 1.520896,-0.2354 2.134327,-0.7629 l 0.887173,-0.7629 0.0976,-15.91647 c 0.06681,-10.895125 -0.01183,-16.289965 -0.249288,-17.100364 -0.389446,-1.329125 -1.580527,-2.136169 -3.152678,-2.136169 -0.530361,0 -0.964292,-0.142288 -0.964292,-0.316196 0,-0.202532 2.898469,-0.316197 8.063018,-0.316197 5.16454,0 8.06301,0.113665 8.06301,0.316197 0,0.173908 -0.43393,0.316196 -0.96429,0.316196 -1.57297,0 -2.76338,0.806954 -3.15126,2.136169 -0.23551,0.807075 -0.31485,6.24992 -0.24928,17.100334 l 0.0962,15.91643 0.88717,0.76294 c 0.61345,0.52754 1.27196,0.76293 2.13433,0.76293 0.89778,0 1.24715,0.13287 1.24715,0.4743 0,0.40919 -1.10669,0.47429 -8.06301,0.47429 -6.95633,0 -8.063018,-0.0651 -8.063018,-0.47429 z"
     id="path922"
     transform="scale(1.8000009)" />
  <path
     style="fill:#ffffff;fill-opacity:0.941176;stroke-width:0.316197"
     d="m 122.05189,123.15858 c 0,-0.3403 0.34744,-0.4743 1.22976,-0.4743 1.80063,0 2.6139,-0.80366 2.90781,-2.87343 0.13366,-0.94128 0.2534,-8.64798 0.2661,-17.126 l 0.0231,-15.414586 -2.29242,0.0069 c -3.218,0.0097 -4.65453,0.713314 -5.9074,2.893256 -0.53251,0.926558 -1.13934,2.502809 -1.3485,3.502781 -0.20917,0.999972 -0.49412,1.81813 -0.63323,1.81813 -0.13912,0 -0.25294,-2.276615 -0.25294,-5.059145 V 85.37304 h 14.07075 14.07075 v 5.059146 c 0,2.865371 -0.12603,5.059145 -0.29064,5.059145 -0.15985,0 -0.61109,-1.079473 -1.00277,-2.398829 -1.31336,-4.424083 -2.96952,-5.822282 -6.89644,-5.822282 h -2.24464 v 16.8734 16.8734 l 0.83361,0.83362 c 0.64597,0.64596 1.14419,0.8336 2.21338,0.8336 1.01566,0 1.37977,0.12516 1.37977,0.4743 0,0.40919 -1.10669,0.47429 -8.06302,0.47429 -6.95632,0 -8.06301,-0.0651 -8.06301,-0.47429 z"
     id="path961"
     transform="scale(1.8000009)" />
  <path
     style="fill:#ffffff;fill-opacity:0.941176;stroke-width:0.316197"
     d="m 167.26801,124.24464 c -8.76168,-1.00662 -14.58191,-8.60824 -14.63114,-19.10927 -0.0191,-4.07016 0.69725,-7.137734 2.5474,-10.908781 1.39767,-2.848788 5.08381,-6.771579 7.51239,-7.994693 4.58643,-2.309881 8.11875,-2.36583 13.50357,-0.213887 3.21203,1.28363 3.40364,1.322237 4.14656,0.835457 0.4284,-0.2807 0.87373,-0.942051 0.98961,-1.469668 0.52595,-2.394619 0.79285,-0.535483 0.79285,5.522727 0,3.780498 -0.12244,6.48203 -0.29376,6.48203 -0.16157,0 -0.52984,-0.812081 -0.81838,-1.804625 -0.76321,-2.625348 -1.8124,-4.523671 -3.35002,-6.061297 -1.76788,-1.767873 -3.4531,-2.6008 -5.66853,-2.801689 -4.98999,-0.452476 -9.01049,3.278852 -10.64259,9.87712 -0.77672,3.140139 -0.77888,11.974856 -0.004,15.493636 1.57255,7.13913 4.9783,10.32508 10.55859,9.87714 2.85785,-0.2294 4.98563,-1.37601 7.50042,-4.04182 l 2.08566,-2.21092 v 1.29601 c 0,1.15755 -0.19606,1.49207 -1.8351,3.13111 -3.38287,3.38287 -7.31677,4.68471 -12.39374,4.10142 z"
     id="path1000"
     transform="scale(1.8000009)" />
  <path
     style="fill:#ffffff;fill-opacity:0.941176;stroke-width:0.316197"
     d="m 190.66655,123.15858 c 0,-0.3403 0.34744,-0.4743 1.22976,-0.4743 2.00769,0 2.64957,-0.77182 2.92432,-3.51633 0.30681,-3.06483 0.30842,-26.699155 0.002,-29.455671 -0.28295,-2.545438 -0.92111,-3.356169 -2.84488,-3.614201 -0.72115,-0.09673 -1.31119,-0.299421 -1.31119,-0.450431 0,-0.151009 3.62836,-0.274563 8.06302,-0.274563 4.43466,0 8.06301,0.123784 8.06301,0.275075 0,0.15129 -0.67117,0.350725 -1.4915,0.443188 -1.09283,0.123178 -1.68445,0.392433 -2.21338,1.007344 -0.70731,0.822298 -0.72187,0.988795 -0.72187,8.252219 v 7.41299 h 5.71701 5.71702 l -0.10453,-7.423938 -0.10452,-7.423935 -0.8213,-0.820794 c -0.51408,-0.513769 -1.31244,-0.88667 -2.13432,-0.996908 -0.72217,-0.09686 -1.31304,-0.299668 -1.31304,-0.450678 0,-0.151009 3.62836,-0.274563 8.06302,-0.274563 5.16454,0 8.06301,0.113665 8.06301,0.316197 0,0.173908 -0.43393,0.316196 -0.96429,0.316196 -1.33274,0 -2.79796,0.822979 -3.15985,1.77481 -0.17833,0.469041 -0.30261,7.420462 -0.30261,16.925693 v 16.12977 l 0.92427,0.92427 c 0.71928,0.71928 1.21016,0.92426 2.21337,0.92426 0.93508,0 1.28911,0.13026 1.28911,0.4743 0,0.40919 -1.10669,0.47429 -8.06301,0.47429 -6.95633,0 -8.06302,-0.0651 -8.06302,-0.47429 0,-0.33789 0.34352,-0.4743 1.19443,-0.4743 1.56228,0 2.49887,-0.69182 2.90208,-2.14364 0.1805,-0.64995 0.32751,-4.39566 0.32848,-8.36989 l 0.002,-7.19348 h -5.69154 -5.69154 v 8.0199 8.01989 l 0.83361,0.83362 c 0.64597,0.64596 1.14419,0.8336 2.21337,0.8336 1.01567,0 1.37977,0.12516 1.37977,0.4743 0,0.40919 -1.10669,0.47429 -8.06301,0.47429 -6.95633,0 -8.06302,-0.0651 -8.06302,-0.47429 z"
     id="path1039"
     transform="scale(1.8000009)" />
  <path
     style="fill:#ffffff;fill-opacity:0.941176;stroke-width:0.316197"
     d="m 231.45592,123.15858 c 0,-0.3409 0.34845,-0.4743 1.23892,-0.4743 1.68002,0 2.18215,-0.2372 2.72523,-1.2874 0.38843,-0.75114 0.4626,-3.50508 0.4626,-17.17676 V 87.937921 l -0.72188,-0.83923 c -0.52892,-0.614911 -1.12054,-0.884166 -2.21337,-1.007344 -0.82033,-0.09246 -1.4915,-0.291898 -1.4915,-0.443188 0,-0.15155 5.89264,-0.275075 13.12216,-0.275075 h 13.12216 v 5.533441 c 0,5.647874 -0.29234,6.874714 -0.92984,3.902176 -0.74937,-3.494204 -2.03064,-5.493262 -4.28741,-6.689313 -1.04966,-0.556303 -1.95049,-0.690922 -5.29629,-0.791473 l -4.03151,-0.121159 v 7.975824 7.97582 l 1.74151,-0.14442 c 1.89666,-0.15728 2.96588,-0.88135 3.87123,-2.62156 0.65692,-1.262687 1.33518,-3.863783 1.33983,-5.138192 0.002,-0.565201 0.14605,-1.027639 0.31995,-1.027639 0.20412,0 0.3162,3.537082 0.3162,9.978851 0,6.57206 -0.10795,9.91214 -0.3162,9.78344 -0.1739,-0.10748 -0.31788,-0.57832 -0.31995,-1.0463 -0.006,-1.32062 -0.79572,-3.97763 -1.61683,-5.43861 -0.85313,-1.51793 -1.86169,-2.13648 -3.95037,-2.42277 l -1.47129,-0.20166 0.14735,7.68676 0.14735,7.68675 0.90678,0.77999 c 0.86614,0.74502 1.04924,0.77285 4.08522,0.62089 4.62286,-0.23138 6.66182,-1.25649 8.69309,-4.37054 0.63308,-0.97055 1.41683,-2.64244 1.74167,-3.71531 0.65245,-2.15493 1.31058,-2.64758 1.02186,-0.76494 -0.10001,0.65216 -0.4283,3.35564 -0.72952,6.00774 l -0.54767,4.82199 h -13.53974 c -11.82453,0 -13.53974,-0.0601 -13.53974,-0.47429 z"
     id="path1078"
     transform="scale(1.8000009)" />
  <path
     style="fill:#ffffff;fill-opacity:0.941176;stroke-width:0.316197"
     d="m 267.50233,123.15858 c 0,-0.34344 0.35293,-0.4743 1.27916,-0.4743 1.67179,0 2.70816,-1.00269 2.98203,-2.88511 0.11071,-0.76095 0.15768,-8.26074 0.10437,-16.6662 l -0.0969,-15.282653 -1.03262,-0.92242 c -0.72209,-0.645019 -1.36395,-0.92242 -2.13433,-0.92242 -0.60594,0 -1.1017,-0.142288 -1.1017,-0.316196 0,-0.20269 2.95117,-0.316197 8.22111,-0.316197 5.26995,0 8.22111,0.113507 8.22111,0.316197 0,0.173908 -0.53358,0.316728 -1.18573,0.317378 -1.69151,0.0017 -3.16187,0.98706 -3.39645,2.276162 -0.10436,0.573497 -0.14766,8.045441 -0.0962,16.604319 0.0868,14.4369 0.1343,15.60239 0.65745,16.12603 0.45157,0.45199 1.21211,0.58559 3.81773,0.67065 1.7896,0.0584 3.82654,-0.048 4.52653,-0.23647 3.074,-0.82774 4.93089,-3.11479 6.46942,-7.96812 1.09232,-3.44574 1.72386,-4.09788 1.42026,-1.46658 -0.10534,0.91302 -0.34182,3.58092 -0.52551,5.92868 -0.18368,2.34776 -0.40117,4.58881 -0.48331,4.9801 l -0.14934,0.71144 h -13.74853 c -12.01012,0 -13.74853,-0.06 -13.74853,-0.47429 z"
     id="path1117"
     transform="scale(1.8000009)" />
  <path
     style="fill:#ffffff;fill-opacity:0.941176;stroke-width:0.316197"
     d="m 304.18114,123.15858 c 0,-0.34344 0.35292,-0.4743 1.27916,-0.4743 1.67092,0 2.70764,-1.00255 2.98341,-2.88511 0.11146,-0.76095 0.15843,-8.26075 0.10437,-16.66622 l -0.0983,-15.282682 -1.03263,-0.922395 c -0.72207,-0.644992 -1.36395,-0.922396 -2.13432,-0.922396 -0.60594,0 -1.1017,-0.142288 -1.1017,-0.316196 0,-0.20269 2.95116,-0.316197 8.22111,-0.316197 4.52161,0 8.22111,0.124185 8.22111,0.275967 0,0.151782 -0.72332,0.345469 -1.60737,0.430415 -1.07699,0.103485 -1.83341,0.380493 -2.29242,0.839504 -0.68503,0.685024 -0.68506,0.685839 -0.68506,17.1072 0,15.33547 0.0373,16.45951 0.56391,16.98679 0.45167,0.45225 1.21152,0.58578 3.81772,0.67086 1.7896,0.0584 3.82654,-0.048 4.52653,-0.23647 3.07401,-0.82774 4.9309,-3.11479 6.46943,-7.96812 1.06371,-3.3555 1.74247,-4.12322 1.43643,-1.62468 -0.10119,0.82606 -0.34202,3.49397 -0.53519,5.92869 -0.19317,2.43471 -0.416,4.7469 -0.49518,5.13819 l -0.14397,0.71144 h -13.74853 c -12.01011,0 -13.74852,-0.06 -13.74852,-0.47429 z"
     id="path1156"
     transform="scale(1.8000009)" />
  <path
     style="fill:#ffffff;fill-opacity:0.941176;stroke-width:0.111792"
     d="m 100.44546,149.85507 c -3.244861,-0.52302 -5.706674,-2.00787 -6.703212,-4.04306 -1.099916,-2.24632 -0.568348,-4.64548 1.436254,-6.48233 1.875543,-1.7186 4.624103,-2.57025 7.977108,-2.47175 1.42391,0.0418 1.88575,0.10593 3.37374,0.46823 1.99616,0.48601 2.31213,0.47395 2.7748,-0.10591 0.21721,-0.27223 0.3991,-0.38637 0.61571,-0.38637 h 0.30743 v 2.12405 2.12406 l -0.30743,-0.007 c -0.2464,-0.006 -0.43555,-0.17283 -0.95286,-0.84061 -1.73171,-2.23536 -4.62967,-3.34728 -7.26728,-2.78837 -1.848184,0.39163 -3.013639,1.58892 -3.511562,3.60749 -0.236367,0.95823 -0.2613,3.50651 -0.04294,4.38885 0.526045,2.12564 1.668747,3.18712 3.919192,3.64062 2.32805,0.46913 4.95491,-0.13471 7.19329,-1.65353 0.60038,-0.40738 0.677,-0.4314 0.97819,-0.30664 0.17972,0.0744 0.32678,0.18069 0.32678,0.23609 0,0.15731 -1.81073,1.29853 -2.74589,1.73059 -1.45335,0.67149 -2.32488,0.84505 -4.46472,0.8891 -1.29932,0.0267 -2.21873,-0.0122 -2.9066,-0.12305 z"
     id="path1195"
     transform="scale(1.8000009)" />
  <path
     style="fill:#ffffff;fill-opacity:0.941176;stroke-width:0.111792"
     d="m 120.15282,149.85203 c -3.07609,-0.47898 -5.60763,-2.04113 -6.6125,-4.08043 -1.1776,-2.38983 -0.41491,-5.20761 1.86402,-6.88663 1.29777,-0.95615 2.84003,-1.56571 4.7837,-1.89072 1.53609,-0.25685 4.43563,-0.17375 5.78557,0.16582 2.01688,0.50733 3.38076,1.22857 4.54591,2.40393 1.17417,1.18446 1.73087,2.42777 1.73087,3.86563 0,1.47059 -0.55814,2.68875 -1.80218,3.93328 -0.71584,0.71612 -1.05107,0.95223 -2.01562,1.41965 -1.80789,0.8761 -3.63663,1.25159 -6.00007,1.23199 -0.71801,-0.006 -1.74387,-0.0791 -2.2797,-0.16252 z m 3.37776,-0.39309 c 1.98992,-0.322 3.24906,-1.54362 3.76492,-3.65273 0.25149,-1.02823 0.24821,-3.49118 -0.006,-4.5453 -0.7369,-3.05502 -3.02186,-4.50596 -5.9932,-3.80565 -1.65121,0.38916 -2.77132,1.56622 -3.29749,3.46513 -0.27754,1.00163 -0.34847,3.58274 -0.12704,4.62278 0.6292,2.9552 2.70751,4.39334 5.65886,3.91577 z"
     id="path1234"
     transform="scale(1.8000009)" />
  <path
     style="fill:#ffffff;fill-opacity:0.941176;stroke-width:0.111792"
     d="m 133.48011,149.81796 c 0,-0.17371 0.11759,-0.2184 0.72349,-0.27498 0.39793,-0.0372 0.8798,-0.14839 1.07084,-0.24718 0.65429,-0.33835 0.66511,-0.43513 0.66492,-5.94643 -1.5e-4,-4.54227 -0.0183,-5.04256 -0.19563,-5.39757 -0.23642,-0.47325 -0.80651,-0.78213 -1.44399,-0.78237 -0.57323,-2.2e-4 -0.81963,-0.0879 -0.81963,-0.29162 0,-0.13083 0.81397,-0.15573 5.09095,-0.15573 5.24028,0 6.58714,0.0758 8.08345,0.45518 2.74815,0.69668 3.9499,2.33317 3.03164,4.12831 -0.45086,0.88143 -1.42626,1.49961 -3.02693,1.91839 -0.51581,0.13495 -0.95657,0.25934 -0.97944,0.27643 -0.0812,0.0607 5.5245,5.75822 5.8213,5.91666 0.16603,0.0886 0.43014,0.16116 0.58691,0.16116 0.2105,0 0.28503,0.0585 0.28503,0.22358 0,0.21759 -0.0745,0.22359 -2.7779,0.22359 h -2.77789 l -2.83967,-3.12095 c -2.73163,-3.00221 -2.85563,-3.12131 -3.2589,-3.13019 l -0.41922,-0.009 v 2.29534 c 0,2.63533 0.0745,2.97309 0.71438,3.24046 0.21288,0.0889 0.66745,0.19468 1.01015,0.23496 0.50701,0.0596 0.62311,0.11202 0.62311,0.28142 0,0.19968 -0.18748,0.2082 -4.58349,0.2082 -4.38988,0 -4.58348,-0.009 -4.58348,-0.20742 z m 8.94754,-6.66147 c 2.01304,-0.13228 2.85289,-0.85591 2.98251,-2.56979 0.0682,-0.90208 -0.14518,-1.84433 -0.52791,-2.33089 -0.12554,-0.1596 -0.51632,-0.43143 -0.86839,-0.60406 -0.59168,-0.29012 -0.74027,-0.31391 -1.9633,-0.31434 -1.86327,-6.6e-4 -1.75112,-0.20894 -1.75112,3.25218 v 2.72482 l 0.64281,-0.0513 c 0.35354,-0.0282 1.02197,-0.0762 1.4854,-0.10665 z"
     id="path1273"
     transform="scale(1.8000009)" />
  <path
     style="fill:#ffffff;fill-opacity:0.941176;stroke-width:0.111792"
     d="m 153.60273,149.8162 c 0,-0.16746 0.11501,-0.22444 0.57645,-0.28566 0.77438,-0.10272 1.14977,-0.31554 1.33623,-0.75755 0.21915,-0.51953 0.22999,-10.52307 0.0118,-10.90503 -0.21888,-0.38321 -0.63175,-0.60363 -1.27898,-0.68282 -0.44435,-0.0544 -0.59613,-0.12116 -0.6258,-0.27539 -0.0375,-0.19511 0.17697,-0.20169 5.14096,-0.15767 4.20174,0.0373 5.31737,0.079 5.90678,0.2212 2.4941,0.6016 3.63992,1.65133 3.6281,3.32384 -0.006,0.88615 -0.26269,1.43391 -0.98147,2.09646 -1.17944,1.08717 -2.5136,1.4683 -5.46939,1.56244 l -2.09611,0.0668 v 2.22234 c 0,3.00353 0.0517,3.10716 1.64194,3.29407 0.47976,0.0564 0.59391,0.10982 0.59391,0.27799 0,0.19937 -0.17784,0.2082 -4.19221,0.2082 -4.02148,0 -4.19222,-0.009 -4.19222,-0.20918 z m 8.83955,-6.66886 c 1.21536,-0.4288 1.60145,-1.09926 1.60781,-2.792 0.004,-1.00042 -0.0281,-1.18255 -0.30305,-1.73279 -0.16898,-0.33817 -0.43023,-0.70326 -0.58056,-0.81131 -0.44168,-0.31747 -1.5971,-0.56391 -2.33163,-0.49731 -1.1187,0.10144 -1.08354,-0.006 -1.08354,3.2983 v 2.84936 l 1.11849,-0.077 c 0.61517,-0.0424 1.32278,-0.14912 1.57248,-0.23722 z"
     id="path1312"
     transform="scale(1.8000009)" />
  <path
     style="fill:#ffffff;fill-opacity:0.941176;stroke-width:0.111792"
     d="m 177.5822,149.86803 c -1.48588,-0.24923 -2.29193,-0.49867 -3.49712,-1.08224 -4.69533,-2.27351 -5.16133,-7.45914 -0.91868,-10.22294 1.80058,-1.17296 3.97569,-1.72883 6.76344,-1.72846 3.83621,5e-4 6.79805,1.17603 8.44882,3.35326 0.74307,0.98005 1.01768,1.72581 1.08394,2.94371 0.0672,1.23604 -0.16231,2.15933 -0.77104,3.10115 -1.11119,1.71924 -2.95968,2.87222 -5.56851,3.47334 -1.2545,0.28905 -4.25997,0.37703 -5.54085,0.16218 z m 4.04684,-0.57043 c 1.43003,-0.43037 2.41174,-1.54879 2.89967,-3.30345 0.28469,-1.02379 0.2837,-3.88501 -0.002,-4.91216 -0.44842,-1.61384 -1.33404,-2.81149 -2.4731,-3.34447 -1.7693,-0.82788 -4.40608,-0.41028 -5.57431,0.88281 -1.01392,1.12228 -1.45252,2.60565 -1.45508,4.92109 -0.003,2.40559 0.43082,3.73723 1.566,4.81084 0.66426,0.62823 1.3655,0.97121 2.27567,1.11305 0.74113,0.11549 2.09493,0.0333 2.76286,-0.16771 z"
     id="path1351"
     transform="scale(1.8000009)" />
  <path
     style="fill:#ffffff;fill-opacity:0.941176;stroke-width:0.111792"
     d="m 191.50035,149.81624 c 0,-0.17649 0.11875,-0.22084 0.76054,-0.28408 0.88679,-0.0874 1.43238,-0.37378 1.55615,-0.81688 0.0478,-0.17099 0.0868,-2.62499 0.0868,-5.45334 0,-3.98404 -0.0324,-5.19911 -0.14368,-5.39398 -0.21477,-0.37602 -0.58998,-0.57819 -1.20509,-0.64933 -0.88566,-0.10244 -1.05477,-0.1555 -1.05477,-0.33099 0,-0.24588 9.68344,-0.2429 11.56353,0.004 3.14742,0.41259 4.72844,1.41566 4.84854,3.07614 0.0633,0.87437 -0.18385,1.53004 -0.77937,2.06806 -0.57673,0.52104 -1.57775,0.99435 -2.62524,1.2413 -0.45215,0.10659 -0.82106,0.22234 -0.8198,0.25721 0.001,0.0349 1.3218,1.4108 2.93455,3.05762 2.65962,2.71582 2.96604,2.99387 3.29559,2.99045 0.29005,-0.003 0.36332,0.0413 0.36332,0.21981 0,0.21749 -0.0745,0.22359 -2.73265,0.22359 h -2.73266 l -2.87116,-3.13019 c -2.67186,-2.9129 -2.89733,-3.13019 -3.24824,-3.13019 h -0.37707 l 0.002,2.37559 c 0.001,1.67299 0.043,2.45825 0.1413,2.65507 0.18665,0.37355 0.76709,0.64878 1.55661,0.73811 0.53252,0.0602 0.64809,0.11061 0.64809,0.28246 0,0.20093 -0.18002,0.20915 -4.58349,0.20915 -4.40344,0 -4.58349,-0.008 -4.58349,-0.20914 z m 9.55825,-6.73503 c 0.84309,-0.14886 1.60272,-0.55482 1.92829,-1.0305 0.61933,-0.9049 0.56157,-2.86496 -0.1113,-3.77648 -0.49882,-0.67574 -1.81358,-1.06226 -3.29084,-0.96746 -1.30673,0.0839 -1.26506,-0.0236 -1.26506,3.26307 v 2.70506 l 1.03408,-0.0376 c 0.56874,-0.0207 1.33592,-0.0909 1.70483,-0.15606 z"
     id="path1390"
     transform="scale(1.8000009)" />
  <path
     style="fill:#ffffff;fill-opacity:0.941176;stroke-width:0.111792"
     d="m 210.72864,149.81608 c 0,-0.15942 0.11198,-0.2272 0.46996,-0.28444 0.66444,-0.10625 1.15707,-0.44738 1.60552,-1.11178 0.21326,-0.31594 1.85807,-3.15265 3.65514,-6.30379 3.17625,-5.56952 3.27678,-5.72936 3.60341,-5.72925 0.28627,1e-4 0.38196,0.0819 0.64644,0.55283 0.97581,1.73741 6.64139,11.09869 7.02292,11.60402 0.53072,0.70294 1.01864,1.03354 1.5262,1.03412 0.28866,3.4e-4 0.36332,0.0464 0.36332,0.224 0,0.21986 -0.0745,0.22359 -4.47169,0.22359 -4.29226,0 -4.4717,-0.008 -4.4717,-0.20889 0,-0.17964 0.11344,-0.21668 0.8105,-0.26464 0.44577,-0.0307 0.95422,-0.12327 1.1299,-0.20579 0.29796,-0.13996 0.316,-0.18545 0.26871,-0.67759 -0.0349,-0.36354 -0.22504,-0.83418 -0.61147,-1.51375 l -0.56077,-0.98618 -3.22984,-0.0296 -3.22984,-0.0296 -0.58951,1.14752 c -0.62445,1.21552 -0.70577,1.617 -0.38614,1.90627 0.22956,0.20775 1.01762,0.40841 1.61934,0.41233 0.34378,0.002 0.41922,0.043 0.41922,0.22632 0,0.21763 -0.0745,0.22359 -2.79481,0.22359 -2.65668,0 -2.79481,-0.0103 -2.79481,-0.2093 z m 10.50849,-4.43088 c 0,-0.16794 -2.83217,-4.85228 -2.90608,-4.8066 -0.0484,0.0299 -0.50419,0.82193 -1.01296,1.76011 -0.50877,0.93818 -1.0974,2.02019 -1.30807,2.40448 l -0.38303,0.6987 h 2.80507 c 1.54278,0 2.80507,-0.0255 2.80507,-0.0567 z"
     id="path1429"
     transform="scale(1.8000009)" />
  <path
     style="fill:#ffffff;fill-opacity:0.941176;stroke-width:0.111792"
     d="m 232.52816,149.81801 c 0,-0.17589 0.11832,-0.21729 0.77932,-0.27271 0.91954,-0.0771 1.4885,-0.31785 1.66462,-0.70439 0.0898,-0.19714 0.12728,-1.94412 0.12728,-5.93616 v -5.6568 l -0.97818,0.0666 c -2.33877,0.15932 -3.61763,1.00759 -4.1208,2.73332 -0.15613,0.53548 -0.19982,0.58691 -0.49857,0.58691 h -0.32745 l 9.8e-4,-1.36946 c 5.3e-4,-0.7532 0.0327,-1.63357 0.0715,-1.95637 l 0.0705,-0.58691 h 7.96072 7.96073 l 0.0722,1.08998 c 0.0397,0.59949 0.0724,1.48304 0.0728,1.96345 l 5.8e-4,0.87347 -0.34226,-0.035 c -0.31608,-0.0323 -0.36233,-0.0949 -0.60468,-0.81758 -0.50915,-1.51834 -1.83825,-2.34398 -3.99987,-2.48473 l -0.97819,-0.0637 v 5.6568 c 0,4.14766 0.0356,5.73501 0.13356,5.94993 0.19038,0.41783 0.6644,0.62169 1.61225,0.69337 0.70706,0.0535 0.82542,0.0922 0.82542,0.26988 0,0.19882 -0.19772,0.20745 -4.75118,0.20745 -4.55282,0 -4.75117,-0.009 -4.75117,-0.20737 z"
     id="path1468"
     transform="scale(1.8000009)" />
  <path
     style="fill:#ffffff;fill-opacity:0.941176;stroke-width:0.111792"
     d="m 246.83758,149.81796 c 0,-0.17417 0.11856,-0.21849 0.73966,-0.27649 0.40682,-0.038 0.92246,-0.15845 1.14587,-0.2677 0.6875,-0.33617 0.6983,-0.4363 0.662,-6.13735 -0.0315,-4.9419 -0.0376,-5.06387 -0.26766,-5.37195 -0.25333,-0.33915 -0.85724,-0.57282 -1.51613,-0.58662 -0.52575,-0.011 -0.76374,-0.10451 -0.76374,-0.30004 0,-0.13064 0.7565,-0.15573 4.69528,-0.15573 3.92312,0 4.69528,0.0254 4.69528,0.15465 0,0.18398 -0.3368,0.28799 -0.95023,0.29345 -0.62192,0.006 -1.37305,0.36762 -1.51003,0.72791 -0.16369,0.43052 -0.14855,10.58098 0.0163,10.94282 0.17612,0.38654 0.74508,0.6273 1.66462,0.70439 0.661,0.0554 0.77932,0.0968 0.77932,0.27271 0,0.19867 -0.1969,0.20737 -4.69528,0.20737 -4.49877,0 -4.69528,-0.009 -4.69528,-0.20742 z"
     id="path1507"
     transform="scale(1.8000009)" />
  <path
     style="fill:#ffffff;fill-opacity:0.941176;stroke-width:0.111792"
     d="m 265.33922,149.86064 c -1.45721,-0.23238 -2.28043,-0.48571 -3.50461,-1.0785 -3.3051,-1.60045 -4.65934,-4.79592 -3.254,-7.67818 0.53441,-1.09604 1.76452,-2.27713 3.07635,-2.95379 1.96454,-1.01332 3.88811,-1.3817 6.72174,-1.28726 1.39483,0.0465 1.99641,0.11874 2.85263,0.34262 3.39998,0.88903 5.64396,2.94238 6.0055,5.49534 0.49333,3.48351 -2.49587,6.44528 -7.2243,7.158 -1.31161,0.1977 -3.4396,0.1985 -4.67331,0.002 z m 3.24198,-0.39765 c 1.56489,-0.22154 2.66844,-1.01998 3.31275,-2.39683 0.5255,-1.12297 0.68423,-2.11719 0.62521,-3.91601 -0.0423,-1.28969 -0.10276,-1.72341 -0.34345,-2.46478 -0.50171,-1.54539 -1.40017,-2.60131 -2.62783,-3.08837 -0.89435,-0.35482 -2.80468,-0.35508 -3.71094,-5e-4 -0.89241,0.34916 -1.53086,0.86202 -2.02513,1.62675 -1.00421,1.55371 -1.3365,4.27437 -0.81085,6.63886 0.4366,1.9639 1.76911,3.28005 3.63427,3.58963 0.8286,0.13753 1.04514,0.13879 1.94597,0.0112 z"
     id="path1546"
     transform="scale(1.8000009)" />
  <path
     style="fill:#ffffff;fill-opacity:0.941176;stroke-width:0.111792"
     d="m 288.20076,144.93771 c -3.28949,-2.97368 -6.02224,-5.40987 -6.07278,-5.41375 -0.0505,-0.004 -0.0757,1.96747 -0.0559,4.38078 0.0323,3.9418 0.0561,4.4246 0.23353,4.74929 0.24697,0.45189 0.62707,0.6513 1.57419,0.82581 0.47458,0.0875 0.74361,0.19069 0.74361,0.28538 0,0.11956 -0.57519,0.14837 -2.9625,0.14837 -2.47094,0 -2.9625,-0.0261 -2.9625,-0.1572 0,-0.10499 0.19492,-0.18366 0.58691,-0.23687 0.3228,-0.0438 0.78138,-0.15695 1.01907,-0.25139 0.74238,-0.29499 0.74166,-0.28933 0.74166,-5.83245 v -4.92 l -0.74539,-0.61483 c -0.40996,-0.33816 -0.91303,-0.67016 -1.11792,-0.73778 -0.2049,-0.0676 -0.37254,-0.19451 -0.37254,-0.28197 0,-0.13331 0.44733,-0.15844 2.76686,-0.15545 l 2.76687,0.004 4.69528,4.26784 4.69528,4.26785 0.0296,-3.30736 c 0.0218,-2.43494 -0.008,-3.42051 -0.1118,-3.73632 -0.17525,-0.53172 -0.69891,-0.90379 -1.40723,-0.99987 -0.7602,-0.10311 -0.9141,-0.16021 -0.9141,-0.33913 0,-0.13474 0.44349,-0.16016 2.79481,-0.16016 2.35132,0 2.79481,0.0254 2.79481,0.16016 0,0.1752 -0.14444,0.23222 -0.87778,0.34649 -0.29586,0.0461 -0.62441,0.19901 -0.83844,0.3902 l -0.35194,0.31438 -0.0324,6.21372 -0.0324,6.21372 -0.30297,-0.008 c -0.23774,-0.006 -1.5907,-1.17227 -6.28387,-5.41487 z"
     id="path1585"
     transform="scale(1.8000009)" />
</svg>
