<?xml version="1.0" encoding="UTF-8" standalone="no"?>
<svg
   height="155.76596"
   viewBox="0 0 602.16531 280.37873"
   width="334.53629"
   version="1.1"
   id="svg69"
   sodipodi:docname="mitchell.svg"
   inkscape:version="1.1 (c68e22c387, 2021-05-23)"
   xmlns:inkscape="http://www.inkscape.org/namespaces/inkscape"
   xmlns:sodipodi="http://sodipodi.sourceforge.net/DTD/sodipodi-0.dtd"
   xmlns="http://www.w3.org/2000/svg"
   xmlns:svg="http://www.w3.org/2000/svg">
  <defs
     id="defs73" />
  <sodipodi:namedview
     id="namedview71"
     pagecolor="#ffffff"
     bordercolor="#666666"
     borderopacity="1.0"
     inkscape:pageshadow="2"
     inkscape:pageopacity="0.0"
     inkscape:pagecheckerboard="0"
     showgrid="false"
     inkscape:zoom="6.3251734"
     inkscape:cx="120.23386"
     inkscape:cy="122.92153"
     inkscape:window-width="1920"
     inkscape:window-height="1017"
     inkscape:window-x="-8"
     inkscape:window-y="712"
     inkscape:window-maximized="1"
     inkscape:current-layer="svg69" />
  <linearGradient
     id="a"
     gradientUnits="userSpaceOnUse"
     x1=".563391"
     x2="532.58771"
     y1="141.07684"
     y2="141.07684">
    <stop
       offset="0"
       stop-color="#3c409a"
       id="stop2" />
    <stop
       offset=".25224191"
       stop-color="#3d469e"
       id="stop4" />
    <stop
       offset=".45872644"
       stop-color="#55beed"
       id="stop6" />
    <stop
       offset=".72193927"
       stop-color="#55beed"
       id="stop8" />
    <stop
       offset="1"
       stop-color="#fff"
       id="stop10" />
  </linearGradient>
  <g
     transform="translate(-.563391 -.887472)"
     id="g67">
    <text
       fill="#ef00eb"
       font-family="TrasksHand"
       font-size="3.6"
       stroke="#0105ff"
       stroke-width="4.5"
       x="489.59573"
       y="226.33107"
       id="text15"><tspan
         fill="#fafafa"
         fill-opacity=".4"
         font-size="3.6"
         stroke="none"
         stroke-width="4.5"
         x="489.59573"
         y="226.33107"
         id="tspan13">John Loreth 2022</tspan></text>
    <path
       d="m80.77264 181.90777c61.26601-23.42709 139.17475-84.480915 205.95455-169.015447 20.63136-25.443346 68.22292-9.0135231 56.03071 35.780518-1.04344 9.03075-21.3764 37.693578-25.37825 55.692059-5.06667 62.97295 49.42078 47.1706 62.41538 25.01641l25.26418-38.270571c33.60978-39.342671 64.37893 7.521232 42.95152 48.458691-5.37959 29.81637 13.62486 41.3967 32.92566 26.71755 25.93343-44.67886 59.12201-33.17604 50.15495 4.15441-6.17582 21.07471-22.45827 44.79919-37.81596 54.17656-33.38997 20.38786-66.88287 7.37524-83.75653-18.60815-18.88554-27.33997-27.3736-6.21853-38.59141 2.17991-30.38577 39.27324-103.69624 46.352-122.78988-6.27059-11.58858-62.59338-28.94315-24.62608-71.69474 21.21798-26.62248 32.49969-72.96755 59.59538-103.143022 57.82927-75.951164 6.63046-96.570082-98.83519-42.033286-105.49406 15.25443-.51225 22.129961 8.49908 49.506128 6.43546z"
       fill="url(#a)"
       id="path17" />
    <g
       stroke-width="2.5"
       id="g65">
      <path
         d="m600.194 199.18179-2.13542 24.37579h-50.41253v-1.89476h1.8842q2.47038 0 3.97772-1.07539 1.08864-.71694 1.67484-2.45807.46058-1.22903.46058-6.45242v-45.67899q0-5.32581-.46058-6.65726-.46058-1.33145-1.88419-2.30443-1.38173-1.02419-3.76837-1.02419h-1.8842v-1.89476h30.27264v1.89476h-2.47038q-2.47038 0-3.97773 1.0754-1.08864.71694-1.7167 2.45806-.46058 1.22903-.46058 6.45242v44.24512q0 5.3258.50244 6.81088.50246 1.43387 1.96794 2.15081 1.04676.46089 5.06637.46089h4.7314q4.52206 0 7.53676-1.94597 3.01471-1.94596 5.19199-6.14516 2.21916-4.19918 4.18708-12.39273zm-65.99916 0-2.13542 24.37579h-50.41252v-1.89476h1.88419q2.47038 0 3.97774-1.07539 1.08864-.71694 1.67483-2.45807.46058-1.22903.46058-6.45242v-45.67899q0-5.32581-.46058-6.65726-.46058-1.33145-1.88419-2.30443-1.38174-1.02419-3.76838-1.02419h-1.88419v-1.89476h30.27264v1.89476h-2.47038q-2.47038 0-3.97774 1.0754-1.08864.71694-1.7167 2.45806-.46058 1.22903-.46058 6.45242v44.24512q0 5.3258.50245 6.81088.50245 1.43387 1.96793 2.15081 1.04678.46089 5.06638.46089h4.73141q4.52205 0 7.53675-1.94597 3.0147-1.94596 5.19199-6.14516 2.21915-4.19918 4.18709-12.39273zm-95.42653-41.07013v28.26772h1.13051q5.40135 0 7.82986-4.14797 2.42851-4.14798 3.09844-12.23911h1.5911v36.35884h-1.5911q-.50245-5.94032-2.13541-9.72983-1.59109-3.78951-3.72651-5.06976-2.13542-1.33145-6.19689-1.33145v19.56208q0 5.73549.37684 7.01573.41871 1.28024 1.50735 2.0996 1.08864.81934 3.51716.81934h3.39154q7.95546 0 12.72874-4.50644 4.81515-4.50645 6.90869-13.72419h1.54923l-2.55413 22.07136h-49.07265v-1.89476h1.88418q2.47039 0 3.97773-1.07539 1.08865-.71694 1.67484-2.45807.46058-1.22903.46058-6.45242v-45.67899q0-4.71129-.20936-5.7867-.4187-1.79233-1.54922-2.76531-1.59109-1.43387-4.35457-1.43387h-1.88418v-1.89476h47.52343v20.53506h-1.5911q-1.21424-7.52781-3.4334-10.80523-2.17729-3.27742-6.19689-4.8137-2.34477-.92178-8.79288-.92178zm-73.91632 32.05724v21.50804q0 5.32581.46058 6.65726.50244 1.33145 1.88418 2.35564 1.42361.97298 3.81025.97298h1.88419v1.89476h-29.68645v-1.89476h1.8842q2.47038 0 3.97773-1.07539 1.08864-.71694 1.67483-2.45807.46058-1.22903.46058-6.45242v-45.67899q0-5.32581-.46058-6.65726-.46058-1.33145-1.88418-2.30443-1.38174-1.02419-3.76838-1.02419h-1.8842v-1.89476h29.68645v1.89476h-1.88419q-2.47038 0-3.97773 1.0754-1.08864.71694-1.7167 2.45806-.46058 1.22903-.46058 6.45242v19.6645h20.05614v-19.6645q0-5.32581-.46058-6.65726-.46058-1.33145-1.88419-2.30443-1.4236-1.02419-3.81024-1.02419h-1.84232v-1.89476h29.64457v1.89476h-1.84232q-2.51225 0-3.97773 1.0754-1.08864.71694-1.71671 2.45806-.46058 1.22903-.46058 6.45242v45.67899q0 5.32581.46058 6.65726.46058 1.33145 1.88419 2.35564 1.42361.97298 3.81025.97298h1.84232v1.89476h-29.64457v-1.89476h1.84232q2.51224 0 3.97773-1.07539 1.08864-.71694 1.7167-2.45807.46058-1.22903.46058-6.45242v-21.50804zm-36.1712-37.63909v24.06853h-1.63296q-1.84232-9.42257-6.86683-14.44112-5.0245-5.01854-11.38888-5.01854-5.3176 0-9.75591 3.7383-4.43832 3.73831-6.48998 9.78104-2.63787 7.73266-2.63787 17.20644 0 9.32016 1.92606 17.0016 1.92606 7.63024 6.02941 11.57338 4.10334 3.89193 10.63519 3.89193 5.35948 0 9.79779-2.86773 4.48018-2.86775 9.42094-9.88347v5.99153q-4.77328 6.09395-9.96526 8.85927-5.15012 2.71411-12.05881 2.71411-9.08598 0-16.16216-4.45524-7.0343-4.45523-10.88642-12.80241-3.81026-8.34717-3.81026-17.76974 0-9.93467 4.22896-18.84515 4.27083-8.91048 11.47263-13.8266 7.24366-4.91613 15.3666-4.91613 5.98753 0 12.645 3.175 3.85212 1.84354 4.8989 1.84354 1.33986 0 2.3029-1.17781 1.0049-1.22903 1.298-3.84073zm-68.57699 1.5875v18.79394h-1.50735q-1.33987-6.50363-2.97283-9.32016-1.63296-2.86773-4.48018-4.55765-1.5911-.92178-5.56883-.92178h-4.22896v53.56528q0 5.32581.46058 6.65726.50246 1.33145 1.88419 2.35564 1.42361.97298 3.85212.97298h1.88419v1.89476h-29.72832v-1.89476h1.88419q2.47038 0 3.97774-1.07539 1.08864-.71694 1.7167-2.45807.46058-1.22903.46058-6.45242v-53.56528h-4.10334q-5.73632 0-8.33231 2.97017-3.64276 4.14798-4.6058 11.82942h-1.59108v-18.79394zm-63.40742 67.54551v1.89476h-29.68645v-1.89476h1.8842q2.47038 0 3.97773-1.07539 1.08864-.71694 1.67483-2.45807.46058-1.22903.46058-6.45242v-45.67899q0-5.32581-.46058-6.65726-.46058-1.33145-1.88419-2.30443-1.38174-1.02419-3.76837-1.02419h-1.8842v-1.89476h29.68645v1.89476h-1.88419q-2.47038 0-3.97773 1.0754-1.08864.71694-1.71671 2.45806-.46058 1.22903-.46058 6.45242v45.67899q0 5.32581.46058 6.65726.50245 1.33145 1.88419 2.35564 1.42361.97298 3.81025.97298zm-79.79366-21.76409 15.40848-45.78142h23.11272v1.89476h-1.84232q-2.51225 0-4.0196 1.0754-1.04677.71694-1.67484 2.40685-.46058 1.22904-.46058 6.40121v45.78141q0 5.32581.46058 6.65726.46058 1.33145 1.88419 2.35564 1.42361.97298 3.81025.97298h1.84232v1.89476h-29.64458v-1.89476h1.84232q2.51226 0 4.01961-1.07539 1.04677-.71694 1.67483-2.45807.46058-1.22903.46058-6.45242v-51.46569l-21.77285 63.34633h-1.0049l-22.107823-62.88544v48.90521q0 5.12096.209354 6.29879.544322 2.56048 2.344775 4.19918 1.84231 1.5875 5.736306 1.5875v1.89476h-19.428086v-1.89476h.586192q1.884189.0512 3.517153-.71694 1.632964-.81934 2.470381-2.15079.837418-1.33145 1.297997-3.73831.08374-.56331.08374-5.22338v-43.93787q0-5.27459-.460579-6.55484-.46058-1.33145-1.884189-2.30443-1.42361-1.02419-3.81025-1.02419h-1.800447v-1.89476h23.196466z"
         fill="#fff"
         transform="translate(2.534729 3.085613)"
         id="path19" />
      <g
         id="g39">
        <path
           d="m129.28391 180.75494 17.0404-41.39705h25.56059v1.7133h-2.03744q-2.77832 0-4.44532.97241-1.15763.64828-1.85222 2.17636-.50936 1.11133-.50936 5.78818v41.39704q0 4.81577.50936 6.01971.50936 1.20394 2.08375 2.13005 1.57438.8798 4.21379.8798h2.03744v1.7133h-32.78424v-1.7133h2.03744q2.77833 0 4.44532-.97241 1.15764-.64828 1.85222-2.22266.50936-1.11133.50936-5.83449v-46.53695l-24.07882 57.27981h-1.11133l-24.449265-56.86306v44.22168q0 4.63054.231527 5.69557.601971 2.31527 2.593108 3.79704 2.03743 1.43547 6.34384 1.43547v1.7133h-21.485717v-1.7133h.648276q2.083744.0463 3.889655-.64828 1.805912-.74088 2.73202-1.94482.926109-1.20394 1.435468-3.3803.09261-.50936.09261-4.72315v-39.73005q0-4.76946-.509359-5.9271-.50936-1.20394-2.083744-2.08374-1.574385-.92611-4.213794-.92611h-1.991133v-1.7133h25.653208z"
           transform="scale(.90423252 1.1059102)"
           id="path21" />
        <g
           transform="scale(.90423254 1.1059102)"
           id="g37">
          <path
             d="m217.52854 200.43474v1.7133h-32.83055v-1.7133h2.08375q2.73202 0 4.39901-.97241 1.20394-.64828 1.85222-2.22266.50936-1.11133.50936-5.83449v-41.30443q0-4.81577-.50936-6.01971-.50936-1.20394-2.08375-2.08374-1.52808-.92611-4.16748-.92611h-2.08375v-1.7133h32.83055v1.7133h-2.08375q-2.73202 0-4.39901.97241-1.20394.64828-1.89853 2.22266-.50936 1.11133-.50936 5.83449v41.30443q0 4.81577.50936 6.01971.55567 1.20394 2.08375 2.13005 1.57438.8798 4.21379.8798z"
             id="path23" />
          <path
             d="m287.65145 139.35789v16.99409h-1.667q-1.48177-5.88079-3.28768-8.42759-1.80591-2.5931-4.95468-4.12118-1.75961-.8335-6.15862-.8335h-4.67685v48.43547q0 4.81577.50936 6.01971.55567 1.20394 2.08374 2.13005 1.57439.8798 4.2601.8798h2.08375v1.7133h-32.87685v-1.7133h2.08374q2.73202 0 4.39902-.97241 1.20394-.64828 1.89852-2.22266.50936-1.11133.50936-5.83449v-48.43547h-4.53793q-6.34385 0-9.21478 2.68572-4.02857 3.75074-5.0936 10.69655h-1.7596v-16.99409z"
             id="path25" />
          <path
             d="m363.49144 137.92242v21.76355h-1.80591q-2.03744-8.5202-7.59409-13.05813-5.55665-4.53793-12.59508-4.53793-5.88079 0-10.78916 3.38029-4.90838 3.3803-7.17734 8.84434-2.91724 6.99212-2.91724 15.55862 0 8.42759 2.13005 15.3734 2.13004 6.89951 6.66798 10.46503 4.53793 3.51921 11.76157 3.51921 5.9271 0 10.83547-2.5931 4.95468-2.59311 10.41872-8.93695v5.41773q-5.27882 5.51035-11.02069 8.01084-5.69557 2.45419-13.33596 2.45419-10.04828 0-17.87389-4.02857-7.77931-4.02857-12.03941-11.57636-4.2138-7.54778-4.2138-16.06798 0-8.98325 4.67685-17.04039 4.72315-8.05715 12.68769-12.50247 8.01084-4.44532 16.99409-4.44532 6.62167 0 13.98423 2.87094 4.2601 1.66699 5.41774 1.66699 1.48177 0 2.5468-1.06502 1.11133-1.11133 1.43547-3.47291z"
             id="path27" />
          <path
             d="m403.49354 171.95691v19.44827q0 4.81577.50936 6.01971.55566 1.20394 2.08374 2.13005 1.57438.8798 4.21379.8798h2.08375v1.7133h-32.83055v-1.7133h2.08375q2.73202 0 4.39901-.97241 1.20394-.64828 1.85222-2.22266.50936-1.11133.50936-5.83449v-41.30443q0-4.81577-.50936-6.01971-.50936-1.20394-2.08374-2.08374-1.52808-.92611-4.16749-.92611h-2.08375v-1.7133h32.83055v1.7133h-2.08375q-2.73202 0-4.39901.97241-1.20394.64828-1.89852 2.22266-.50936 1.11133-.50936 5.83449v17.78128h22.18029v-17.78128q0-4.81577-.50936-6.01971-.50936-1.20394-2.08374-2.08374-1.57438-.92611-4.21379-.92611h-2.03744v-1.7133h32.78424v1.7133h-2.03744q-2.77833 0-4.39902.97241-1.20394.64828-1.89852 2.22266-.50936 1.11133-.50936 5.83449v41.30443q0 4.81577.50936 6.01971.50936 1.20394 2.08374 2.13005 1.57439.8798 4.2138.8798h2.03744v1.7133h-32.78424v-1.7133h2.03744q2.77832 0 4.39901-.97241 1.20394-.64828 1.89852-2.22266.50936-1.11133.50936-5.83449v-19.44827z"
             id="path29" />
          <path
             d="m485.23836 142.96971v25.56059h1.25024q5.9734 0 8.65912-3.75073 2.68571-3.75074 3.4266-11.067h1.75961v32.87685h-1.75961q-.55567-5.37143-2.36158-8.79803-1.7596-3.4266-4.12118-4.58424-2.36158-1.20394-6.8532-1.20394v17.68867q0 5.18621.41675 6.34385.46305 1.15763 1.66699 1.89852 1.20394.74088 3.88966.74088h3.75074q8.79803 0 14.07684-4.07487 5.32513-4.07488 7.6404-12.40986h1.7133l-2.82463 19.95764h-54.26995v-1.7133h2.08374q2.73202 0 4.39901-.97241 1.20395-.64828 1.85222-2.22266.50936-1.11133.50936-5.83449v-41.30443q0-4.2601-.23153-5.23252-.46305-1.62069-1.7133-2.50049-1.7596-1.29655-4.81576-1.29655h-2.08374v-1.7133h52.55665v18.56847h-1.75961q-1.34285-6.80689-3.79704-9.77044-2.40788-2.96355-6.8532-4.35271-2.59311-.8335-9.72414-.8335z"
             id="path31" />
          <path
             d="m590.77153 180.10666-2.36158 22.04138h-55.75172v-1.7133h2.08374q2.73202 0 4.39902-.97241 1.20394-.64828 1.85221-2.22266.50936-1.11133.50936-5.83449v-41.30443q0-4.81577-.50936-6.01971-.50936-1.20394-2.08374-2.08374-1.52808-.92611-4.16749-.92611h-2.08374v-1.7133h33.47882v1.7133h-2.73202q-2.73202 0-4.39902.97241-1.20394.64828-1.89852 2.22266-.50936 1.11133-.50936 5.83449v40.00788q0 4.81576.55566 6.15862.55567 1.29655 2.17636 1.94483 1.15764.41675 5.60296.41675h5.23251q5.00098 0 8.33497-1.75961 3.33399-1.7596 5.74188-5.55665 2.45418-3.79704 4.63054-11.20591z"
             id="path33" />
          <path
             d="m663.76067 180.10666-2.36158 22.04138h-55.75173v-1.7133h2.08375q2.73202 0 4.39901-.97241 1.20394-.64828 1.85222-2.22266.50936-1.11133.50936-5.83449v-41.30443q0-4.81577-.50936-6.01971-.50936-1.20394-2.08375-2.08374-1.52807-.92611-4.16748-.92611h-2.08375v-1.7133h33.47882v1.7133h-2.73202q-2.73202 0-4.39901.97241-1.20394.64828-1.89852 2.22266-.50936 1.11133-.50936 5.83449v40.00788q0 4.81576.55566 6.15862.55567 1.29655 2.17636 1.94483 1.15763.41675 5.60295.41675h5.23251q5.00099 0 8.33498-1.75961 3.33399-1.7596 5.74187-5.55665 2.45419-3.79704 4.63054-11.20591z"
             id="path35" />
        </g>
      </g>
      <g
         id="g63">
        <path
           d="m164.83434 322.89456-1.25922-1.04935c-2.39252 2.56041-3.69371 3.52581-5.75044 4.36529-1.21724.46172-2.51844.71356-3.69371.71356-2.72831 0-5.28872-1.42711-6.50597-3.56779-1.21724-2.18265-1.76291-5.12083-1.76291-9.27625 0-8.5627 2.60239-13.05391 7.55532-13.05391 1.93081 0 3.69372.75553 5.45662 2.30857 1.80489 1.59501 2.77029 2.98015 4.1974 6.08623h1.00738v-9.61205h-1.09132c-.62961 1.46909-1.00738 1.88883-1.84686 1.88883-.37777 0-.9654-.1679-1.88883-.54566-2.35054-1.00738-4.3653-1.46909-6.33807-1.46909-8.18493 0-14.31314 6.2961-14.31314 14.77485 0 8.47874 6.00228 14.43905 14.56498 14.43905 4.70109 0 7.51335-1.46909 11.66877-6.00228z"
           transform="scale(1.2133119 .8241904)"
           id="path41" />
        <path
           d="m183.47209 298.10094c-8.55924 0-14.61334 6.05409-14.61334 14.57158 0 8.47574 6.01234 14.48809 14.48808 14.48809 8.43399 0 14.44633-6.01235 14.44633-14.52984 0-8.35048-6.0541-14.52983-14.32107-14.52983zm-.0418 1.33607c4.50926 0 7.13966 4.96854 7.13966 13.48603 0 8.43398-2.50515 12.90149-7.26492 12.90149-4.67627 0-7.22317-4.46751-7.22317-12.77624 0-8.8515 2.5469-13.61128 7.34843-13.61128z"
           transform="scale(1.2069068 .82856439)"
           id="path43" />
        <path
           d="m233.57288 318.85962v-1.0278c-.77084 0-1.32757-.25695-1.71299-.81367l-8.43651-11.94815c2.48385-.81367 3.55447-1.32757 4.71074-2.39819 1.1991-1.11345 1.8843-2.82645 1.8843-4.71074 0-4.83922-4.11119-7.45154-11.81968-7.45154h-13.53266v1.0278c2.99774.1713 3.59729.77085 3.68294 3.85424v18.54319c-.0856 3.12621-.47108 3.55446-3.68294 3.89706v1.0278h14.17504v-1.0278c-3.21187-.42825-3.59729-.8565-3.68294-3.89706v-8.22239h1.11344l8.69346 13.14725zm-18.4147-14.47482v-10.70622c0-.25695.1713-.8565.29977-1.11345.25695-.42825.89932-.64237 1.96995-.64237 3.85424 0 5.43876 1.79864 5.43876 6.20961 0 2.69797-.59955 4.32531-1.96995 5.22463-1.11344.72803-2.52667.98498-5.73853 1.0278z"
           transform="scale(1.1766809 .84984809)"
           id="path45" />
        <path
           d="m243.98597 306.52646v.99124h13.50562v-.99124c-3.13892-.37171-3.46933-.74343-3.55194-3.75844v-7.5169c5.49312-.0413 6.85607-.1652 8.63204-.86733 3.26282-1.28035 5.03879-3.71714 5.03879-6.89737 0-4.66708-3.79974-7.31038-10.61451-7.31038h-13.01v.99124c2.7672.20651 3.30412.82603 3.38673 3.71714v17.8836c-.0413 2.51939-.61953 3.38673-2.4368 3.59324-.1239 0-.53692.0826-.94993.1652zm9.95368-12.67959v-10.86232c0-.94994.66083-1.40426 2.02378-1.40426 3.34543 0 4.70838 1.77597 4.70838 6.11264 0 2.602-.45431 4.13016-1.56946 5.0388-.94993.82603-2.27159 1.11514-5.1627 1.11514z"
           transform="scale(1.1348261 .88119231)"
           id="path47" />
        <path
           d="m268.89905 298.10094c-8.55925 0-14.61334 6.05409-14.61334 14.57158 0 8.47574 6.01234 14.48809 14.48808 14.48809 8.43398 0 14.44633-6.01235 14.44633-14.52984 0-8.35048-6.0541-14.52983-14.32107-14.52983zm-.0418 1.33607c4.50926 0 7.13966 4.96854 7.13966 13.48603 0 8.43398-2.50514 12.90149-7.26491 12.90149-4.67627 0-7.22317-4.46751-7.22317-12.77624 0-8.8515 2.5469-13.61128 7.34842-13.61128z"
           transform="scale(1.2069068 .82856439)"
           id="path49" />
        <path
           d="m322.28442 318.85962v-1.0278c-.77085 0-1.32758-.25695-1.713-.81367l-8.43651-11.94815c2.48385-.81367 3.55447-1.32757 4.71074-2.39819 1.1991-1.11345 1.8843-2.82645 1.8843-4.71074 0-4.83922-4.11119-7.45154-11.81967-7.45154h-13.53267v1.0278c2.99774.1713 3.59729.77085 3.68294 3.85424v18.54319c-.0856 3.12621-.47107 3.55446-3.68294 3.89706v1.0278h14.17504v-1.0278c-3.21187-.42825-3.59729-.8565-3.68294-3.89706v-8.22239h1.11345l8.69345 13.14725zm-18.41471-14.47482v-10.70622c0-.25695.1713-.8565.29977-1.11345.25695-.42825.89933-.64237 1.96995-.64237 3.85424 0 5.43876 1.79864 5.43876 6.20961 0 2.69797-.59955 4.32531-1.96994 5.22463-1.11345.72803-2.52667.98498-5.73854 1.0278z"
           transform="scale(1.1766809 .84984808)"
           id="path51" />
        <path
           d="m348.61754 321.84531v-1.03743c-1.85871 0-2.33419-.60516-4.62517-5.92194l-9.42324-22.26134h-1.21033l-9.38002 23.21231c-1.59936 3.97678-2.11807 4.58194-4.14968 4.97097v1.03743h8.60195v-1.03743c-2.5071-.1729-3.45807-.64838-3.45807-1.77226 0-.56193.34581-1.72903 1.21032-3.8471l.64839-1.68581h9.5097c1.42645 3.28517 1.94516 4.8413 1.94516 5.79227 0 .86452-.56193 1.25355-2.03161 1.38323-.21613 0-.73484.0432-1.34001.12967v1.03743zm-12.92454-9.98519h-8.25615l3.97679-10.28776z"
           transform="scale(1.187699 .84196419)"
           id="path53" />
        <path
           d="m374.28709 315.91479v-1.0183c-3.52164-.21215-3.98837-.63644-4.07323-3.86108v-21.89357c5.09153.16972 7.29786 2.07904 7.97673 7.04328h1.18802l-.0424-8.35859h-24.99092l-.0849 8.35859h1.18802c.67887-4.96424 2.8852-6.87356 8.01916-7.04328v21.89357c-.0849 3.18221-.55158 3.6065-4.03079 3.86108v1.0183z"
           transform="scale(1.1658138 .85776994)"
           id="path55" />
        <path
           d="m396.11984 315.91479v-1.0183c-3.09735-.16972-3.90351-.80616-3.94594-2.97006v-20.11154c.0424-2.20632.93345-2.88519 3.94594-2.97005v-1.01831h-14.55329v1.01831c2.92763.16971 3.77622.80616 3.86108 2.97005v20.11154c-.0424 2.12147-.84859 2.71548-3.86108 2.97006v1.0183z"
           transform="scale(1.1658138 .85776992)"
           id="path57" />
        <path
           d="m399.81271 298.10094c-8.55924 0-14.61334 6.05409-14.61334 14.57158 0 8.47574 6.01235 14.48809 14.48808 14.48809 8.43399 0 14.44633-6.01235 14.44633-14.52984 0-8.35048-6.05409-14.52983-14.32107-14.52983zm-.0417 1.33607c4.50926 0 7.13966 4.96854 7.13966 13.48603 0 8.43398-2.50515 12.90149-7.26492 12.90149-4.67627 0-7.22316-4.46751-7.22316-12.77624 0-8.8515 2.54689-13.61128 7.34842-13.61128z"
           transform="scale(1.2069068 .82856439)"
           id="path59" />
        <path
           d="m431.54402 314.19445v1.01499h9.38867v-1.01499c-3.12956-.38062-3.8908-1.14186-3.93309-4.10226v-16.70506l18.56588 22.58356h1.14186v-24.40209c0-2.36831.54979-2.9181 3.21414-3.34101v-1.01499h-8.88117v1.01499c3.00268.29604 3.84851 1.18416 3.84851 4.10226v12.68739l-14.50592-17.80464h-8.71201v1.01499c.80354 0 1.56478.63437 3.51018 3.00268v19.62317c-.0423 2.45289-.67666 3.00268-3.63705 3.34101z"
           transform="scale(1.1634816 .85948933)"
           id="path61" />
      </g>
    </g>
  </g>
  <path
     style="fill:#ffffff;stroke-width:0.223585"
     d="m 99.942472,149.70499 c -3.908592,-0.83169 -6.302125,-2.88513 -6.634539,-5.69184 -0.362694,-3.06239 2.443633,-5.97503 6.607262,-6.85757 2.047535,-0.434 3.839445,-0.39617 6.022335,0.12715 2.32737,0.55794 2.83623,0.55771 3.39551,-0.002 0.77366,-0.77366 0.89434,-0.54739 0.89434,1.67689 0,2.38833 -0.19323,2.61927 -1.11792,1.33608 -0.68936,-0.95661 -2.46784,-2.2158 -3.77316,-2.67146 -2.2258,-0.77697 -4.90216,-0.24996 -6.127805,1.20664 -1.416447,1.68335 -1.714013,5.78401 -0.579706,7.98873 1.412451,2.74533 5.636311,3.27617 9.675191,1.21593 0.97116,-0.4954 1.86442,-0.83973 1.98501,-0.7652 0.29777,0.18403 -1.88845,1.5373 -3.3928,2.10015 -1.59315,0.59607 -4.96577,0.75907 -6.953718,0.33607 z"
     id="path945"
     transform="scale(1.8)" />
  <path
     style="fill:#ffffff;stroke-width:0.223585"
     d="m 120.14263,149.78073 c -2.71387,-0.4534 -4.95008,-1.71911 -6.21365,-3.51695 -0.92122,-1.31074 -1.0811,-3.55515 -0.35944,-5.04589 0.95247,-1.96753 3.15439,-3.42056 6.10809,-4.03066 6.46522,-1.33543 12.46107,1.66827 12.46107,6.24251 0,4.39329 -5.68832,7.40482 -11.99607,6.35099 z m 5.30188,-0.96725 c 1.38144,-0.91419 2.04626,-2.52352 2.07153,-5.01454 0.0108,-1.06386 -0.11364,-2.40799 -0.27652,-2.98696 -0.35378,-1.25755 -1.60993,-2.79997 -2.62606,-3.22454 -1.62592,-0.67935 -4.47909,-0.18256 -5.49004,0.95592 -0.96011,1.08124 -1.38424,2.57031 -1.3918,4.88638 -0.0107,3.28399 0.70194,4.82269 2.65963,5.74237 1.35653,0.63728 3.81164,0.46304 5.05326,-0.35863 z"
     id="path984"
     transform="scale(1.8)" />
  <path
     style="fill:#ffffff;stroke-width:0.223585"
     d="m 133.48021,149.80192 c 0,-0.12298 0.32976,-0.22359 0.7328,-0.22359 0.40304,0 0.95641,-0.15662 1.22972,-0.34805 0.49027,-0.34341 0.49692,-0.42057 0.49692,-5.77048 0,-3.98581 -0.074,-5.52329 -0.27948,-5.80317 -0.15372,-0.20941 -0.73224,-0.46915 -1.28562,-0.5772 -0.69942,-0.13656 0.70233,-0.20391 4.59833,-0.22094 7.145,-0.0312 8.89508,0.27924 10.34758,1.83572 0.60916,0.65278 0.72521,1.85003 0.26303,2.71363 -0.30909,0.57754 -2.65133,1.91011 -3.35738,1.91011 -0.20581,0 -0.44478,0.0706 -0.53106,0.15687 -0.23057,0.23057 5.7082,6.10351 6.17192,6.10351 0.21691,0 0.39438,0.10061 0.39438,0.22359 0,0.13659 -1.04034,0.22358 -2.67384,0.22358 h -2.67384 l -2.85274,-3.13019 c -2.13274,-2.34016 -2.98637,-3.13019 -3.38219,-3.13019 h -0.52946 l 0.0751,2.56065 c 0.0441,1.50399 0.17929,2.66455 0.32754,2.81245 0.13883,0.1385 0.66705,0.30743 1.17383,0.3754 0.50677,0.068 0.92141,0.21095 0.92141,0.31774 0,0.10678 -2.06257,0.19414 -4.58349,0.19414 -2.90661,0 -4.5835,-0.0818 -4.5835,-0.22358 z m 10.79455,-7.09351 c 1.83095,-1.06654 1.54845,-4.46369 -0.43387,-5.21736 -0.78687,-0.29917 -3.06659,-0.25983 -3.38483,0.0584 -0.17993,0.17993 -0.2683,1.18472 -0.2683,3.05067 v 2.78237 l 1.68346,-0.12732 c 1.03975,-0.0786 1.95879,-0.28771 2.40354,-0.54677 z"
     id="path1023"
     transform="scale(1.8)" />
  <path
     style="fill:#ffffff;stroke-width:0.223585"
     d="m 153.60286,149.80192 c 0,-0.12298 0.28625,-0.22359 0.6361,-0.22359 0.36287,0 0.81906,-0.20225 1.06203,-0.47084 0.39379,-0.43532 0.42593,-0.87337 0.42593,-5.80537 0,-5.91216 0.007,-5.88375 -1.48447,-6.25376 -0.44865,-0.11132 1.5457,-0.16954 4.95003,-0.14451 l 5.70142,0.0419 1.33119,0.67076 c 2.17718,1.09702 2.67067,2.75177 1.30476,4.37506 -1.098,1.30491 -3.34744,1.98156 -6.62436,1.99268 l -1.3054,0.004 0.0757,2.47786 c 0.0833,2.72863 0.27685,3.11176 1.57171,3.11176 0.34541,0 0.62802,0.10061 0.62802,0.22359 0,0.141 -1.52783,0.22358 -4.13632,0.22358 -2.60849,0 -4.13632,-0.0826 -4.13632,-0.22358 z m 9.40077,-6.82462 c 0.83544,-0.43202 1.18026,-1.41179 1.06375,-3.0225 -0.1322,-1.82773 -0.75648,-2.48019 -2.5124,-2.6258 -1.86862,-0.15497 -1.91533,-0.073 -1.91533,3.36219 v 2.90811 l 1.38321,-0.1565 c 0.76076,-0.0861 1.65211,-0.29554 1.98077,-0.4655 z"
     id="path1062"
     transform="scale(1.8)" />
  <path
     style="fill:#ffffff;stroke-width:0.223585"
     d="m 177.86183,149.88453 c -5.76083,-0.89281 -8.81897,-4.70969 -6.96438,-8.69226 2.67439,-5.74303 15.24233,-5.76072 18.01877,-0.0254 0.54246,1.12057 0.61507,3.13634 0.15282,4.24265 -0.73058,1.74853 -2.58782,3.19343 -5.11628,3.98037 -1.36144,0.42373 -4.76492,0.7001 -6.09093,0.4946 z m 3.80094,-0.55576 c 2.36686,-0.65387 3.64809,-3.84267 3.02595,-7.53112 -0.53768,-3.18775 -2.20586,-4.64488 -5.1286,-4.47973 -1.91855,0.10841 -3.09816,0.81491 -3.80764,2.2805 -1.35203,2.79291 -0.97173,7.22774 0.75924,8.85391 1.08433,1.01867 3.2824,1.39267 5.15105,0.87644 z"
     id="path1101"
     transform="scale(1.8)" />
  <path
     style="fill:#ffffff;stroke-width:0.223585"
     d="m 191.6123,149.83136 c 0,-0.10679 0.41464,-0.24977 0.92141,-0.31774 0.50678,-0.068 1.035,-0.23717 1.17382,-0.37599 0.39198,-0.39198 0.34876,-11.0009 -0.0468,-11.47747 -0.16454,-0.19826 -0.71791,-0.4582 -1.22971,-0.57764 -0.65903,-0.15381 0.89611,-0.20161 5.32983,-0.16385 5.19234,0.0442 6.45704,0.11826 7.41313,0.4339 3.66292,1.20928 3.63419,4.52792 -0.0489,5.64973 -0.73008,0.22237 -1.36491,0.43024 -1.41074,0.46193 -0.21545,0.14901 5.68413,6.1141 6.04696,6.1141 0.22469,0 0.40853,0.10061 0.40853,0.22359 0,0.13641 -1.02751,0.22358 -2.63537,0.22358 h -2.63537 l -2.85842,-3.13019 c -1.78475,-1.95444 -3.02039,-3.13019 -3.28963,-3.13019 -0.40077,0 -0.43121,0.18063 -0.43121,2.55855 0,2.39047 0.0326,2.58141 0.49692,2.90661 0.2733,0.19143 0.77637,0.34805 1.11792,0.34805 0.34156,0 0.62101,0.10061 0.62101,0.22359 0,0.1416 -1.63962,0.22358 -4.4717,0.22358 -2.45943,0 -4.4717,-0.0874 -4.4717,-0.19414 z m 9.72034,-6.75891 c 1.37734,-0.34681 1.95861,-1.04858 2.07988,-2.51102 0.19239,-2.31994 -0.9663,-3.3608 -3.60075,-3.2346 l -1.38013,0.0661 -0.0624,2.9625 -0.0624,2.9625 h 1.02541 c 0.56397,0 1.46414,-0.11047 2.00036,-0.2455 z"
     id="path1140"
     transform="scale(1.8)" />
  <path
     style="fill:#ffffff;stroke-width:0.223585"
     d=""
     id="path1179"
     transform="scale(1.8)" />
  <path
     style="fill:#ffffff;stroke-width:0.223585"
     d="m 210.84061,149.80192 c 0,-0.12298 0.20896,-0.22359 0.46437,-0.22359 0.82697,0 1.62415,-1.1277 5.09718,-7.21061 1.87813,-3.2895 3.53314,-5.97752 3.6778,-5.97339 0.14465,0.004 1.82251,2.64308 3.72857,5.86432 3.76869,6.36908 4.45406,7.31968 5.27741,7.31968 0.29469,0 0.5358,0.10061 0.5358,0.22359 0,0.1416 -1.63962,0.22358 -4.4717,0.22358 -2.83207,0 -4.4717,-0.082 -4.4717,-0.22358 0,-0.12298 0.34392,-0.22359 0.76427,-0.22359 1.65638,0 1.88108,-0.6404 0.87395,-2.49083 l -0.59762,-1.09804 -3.25865,0.0616 -3.25864,0.0617 -0.61021,1.11793 c -0.33561,0.61486 -0.61255,1.29046 -0.61542,1.50133 -0.007,0.48325 0.65628,0.84631 1.54517,0.84631 0.377,0 0.68546,0.10061 0.68546,0.22359 0,0.13663 -1.0434,0.22358 -2.68302,0.22358 -1.63963,0 -2.68302,-0.087 -2.68302,-0.22358 z m 10.50849,-4.34126 c 0,-0.0512 -0.66329,-1.21738 -1.47398,-2.59145 -1.31535,-2.22944 -1.50373,-2.45403 -1.75039,-2.08681 -0.55886,0.83199 -2.36525,4.28886 -2.36525,4.52634 0,0.16462 0.91734,0.24506 2.79481,0.24506 1.53714,0 2.79481,-0.0419 2.79481,-0.0931 z"
     id="path1218"
     transform="scale(1.8)" />
  <path
     style="fill:#ffffff;stroke-width:0.223585"
     d="m 232.52835,149.80192 c 0,-0.12298 0.40245,-0.22359 0.89434,-0.22359 0.59622,0 1.04339,-0.14906 1.34151,-0.44717 0.42378,-0.42379 0.44717,-0.74528 0.44717,-6.14859 v -5.70141 l -0.95024,0.001 c -2.16187,0.003 -3.76429,0.94172 -4.22357,2.47466 -0.41876,1.3977 -0.86354,1.12898 -0.85993,-0.51954 0.002,-0.76858 0.0637,-1.62379 0.13787,-1.90048 l 0.13481,-0.50306 h 7.91119 7.91119 v 1.9191 c 0,1.42352 -0.0713,1.89534 -0.27614,1.82706 -0.15187,-0.0506 -0.36856,-0.4143 -0.48152,-0.80818 -0.40359,-1.40724 -2.23195,-2.48661 -4.21711,-2.48956 l -0.83844,-0.001 v 5.80053 c 0,5.74064 0.005,5.80412 0.49692,6.14859 0.2733,0.19143 0.82668,0.34805 1.22972,0.34805 0.40304,0 0.73279,0.10061 0.73279,0.22359 0,0.14195 -1.71415,0.22358 -4.69528,0.22358 -2.98113,0 -4.69528,-0.0816 -4.69528,-0.22358 z"
     id="path1257"
     transform="scale(1.8)" />
  <path
     style="fill:#ffffff;stroke-width:0.223585"
     d="m 246.83778,149.80192 c 0,-0.12298 0.29711,-0.22359 0.66024,-0.22359 1.08045,0 1.77736,-0.43828 1.92085,-1.20802 0.071,-0.38085 0.0978,-2.87741 0.0596,-5.54791 -0.0782,-5.46915 -0.0606,-5.4116 -1.75854,-5.74453 -0.69493,-0.13626 0.45219,-0.19695 3.81313,-0.20173 2.64389,-0.004 4.70646,0.0273 4.58349,0.069 -0.12297,0.0417 -0.59765,0.13833 -1.05484,0.21472 -1.52615,0.25499 -1.51639,0.21526 -1.51639,6.17408 0,5.05196 0.0249,5.37499 0.44717,5.79724 0.29812,0.29811 0.74529,0.44717 1.34151,0.44717 0.49189,0 0.89434,0.10061 0.89434,0.22359 0,0.14195 -1.71415,0.22358 -4.69528,0.22358 -2.98114,0 -4.69529,-0.0816 -4.69529,-0.22358 z"
     id="path1296"
     transform="scale(1.8)" />
  <path
     style="fill:#ffffff;stroke-width:0.223585"
     d="m 264.63387,149.67345 c -4.02704,-0.9036 -6.48484,-3.27001 -6.48484,-6.24371 0,-1.58159 0.51834,-2.71698 1.80542,-3.95467 4.06141,-3.90553 13.47139,-3.29797 16.35533,1.05599 2.23424,3.37309 0.29458,7.26145 -4.39987,8.82024 -1.91961,0.63741 -5.21984,0.78352 -7.27604,0.32215 z m 4.85584,-0.36605 c 2.04711,-0.61333 3.06034,-2.53272 3.06034,-5.7973 0,-4.0598 -1.69641,-6.23598 -4.85187,-6.22403 -3.27385,0.0124 -4.98586,2.18859 -4.98586,6.33768 0,1.75601 0.50225,3.48417 1.28187,4.4107 1.16756,1.38756 3.39269,1.90298 5.49552,1.27295 z"
     id="path1335"
     transform="scale(1.8)" />
  <path
     style="fill:#ffffff;stroke-width:0.223585"
     d="m 288.20647,144.86983 c -3.25574,-2.94405 -5.99745,-5.35282 -6.09269,-5.35282 -0.25846,0 -0.20681,7.80714 0.058,8.76045 0.22747,0.81899 0.53174,1.01625 2.11651,1.37216 0.24595,0.0552 -0.91111,0.10199 -2.57122,0.1039 -2.31706,0.003 -2.81467,-0.0443 -2.14157,-0.20213 1.51884,-0.35615 1.47081,-0.16393 1.47081,-5.88646 0,-5.095 -0.009,-5.19612 -0.50307,-5.64686 -0.27668,-0.25242 -0.8049,-0.61808 -1.17382,-0.81257 -0.6441,-0.33956 -0.55906,-0.35396 2.14058,-0.36256 l 2.81132,-0.009 4.67877,4.23152 4.67877,4.23152 0.0617,-3.47932 c 0.0717,-4.04259 -0.0404,-4.38056 -1.56694,-4.72225 -0.77963,-0.1745 -0.42239,-0.21482 1.95238,-0.22034 2.60116,-0.006 2.81299,0.0214 2.01579,0.26171 -1.40994,0.42492 -1.44981,0.62361 -1.45353,7.24315 -0.003,4.5516 -0.066,5.86614 -0.28278,5.85589 -0.15371,-0.007 -2.94327,-2.42198 -6.19901,-5.36604 z"
     id="path1374"
     transform="scale(1.8)" />
  <path
     style="fill:#ffffff;stroke-width:0.44717"
     d="m 44.214857,122.80452 c 0.830573,-0.30048 1.887012,-1.01176 2.347642,-1.58061 0.784128,-0.96836 0.83751,-2.06704 0.83751,-17.23714 0,-15.522044 -0.03681,-16.23617 -0.876025,-16.995651 -0.481814,-0.436035 -1.538253,-0.949691 -2.347642,-1.141457 -0.940983,-0.222944 0.866364,-0.363346 5.012347,-0.389379 l 6.483963,-0.04071 3.986277,11.582549 c 2.192452,6.370398 4.22059,12.153378 4.506974,12.851068 0.488197,1.18935 0.710744,0.69637 3.565604,-7.89845 1.674698,-5.041841 3.639813,-10.827101 4.366922,-12.856135 l 1.322015,-3.689152 6.32988,0.04033 c 4.888958,0.03115 5.973606,0.1381 4.764787,0.469828 -3.213169,0.881769 -3.13019,0.39149 -3.13019,18.494559 0,18.12315 -0.05544,17.7958 3.140949,18.54759 0.989299,0.23269 -1.45296,0.36756 -6.718308,0.37103 -6.068276,0.004 -7.855601,-0.109 -6.707548,-0.42406 3.211822,-0.8814 3.130189,-0.40128 3.130189,-18.40995 0,-8.8759 -0.169062,-15.94684 -0.375693,-15.713194 -0.206631,0.233646 -2.955352,7.970804 -6.10827,17.193684 -3.152919,9.22287 -5.854079,16.91247 -6.00258,17.08799 -0.148501,0.17551 -2.956861,-7.37048 -6.240799,-16.76887 -3.283939,-9.398396 -6.148671,-17.279158 -6.36607,-17.512804 -0.229492,-0.246642 -0.395272,5.995323 -0.395272,14.882754 0,17.6458 0.03872,17.87577 3.197383,18.99236 1.940059,0.68581 1.93067,0.68759 -3.644553,0.68887 -4.927793,0.001 -5.410819,-0.0634 -4.079492,-0.54505 z"
     id="path1413"
     transform="scale(1.8)" />
  <path
     style="fill:#ffffff;stroke-width:0.44717"
     d="m 93.894919,122.96176 c 3.199873,-0.75261 3.140949,-0.40084 3.140949,-18.75141 0,-15.744066 -0.03639,-16.459372 -0.876026,-17.219231 -0.481814,-0.436035 -1.538253,-0.949691 -2.347642,-1.141457 -0.87927,-0.208323 1.858238,-0.353257 6.80103,-0.360073 7.11668,-0.0098 8.02369,0.06362 6.49101,0.525539 -1.10808,0.33395 -1.99312,0.954914 -2.34105,1.642521 -0.80148,1.583958 -0.80148,31.929091 0,33.513041 0.34793,0.68761 1.23297,1.30857 2.34105,1.64252 1.53268,0.46192 0.62567,0.53536 -6.49101,0.52554 -5.278083,-0.007 -7.710002,-0.14374 -6.718311,-0.37699 z"
     id="path1452"
     transform="scale(1.8)" />
  <path
     style="fill:#ffffff;stroke-width:0.44717"
     d="m 123.41889,122.89861 c 3.03111,-0.85142 2.89304,-6.3e-4 3.03852,-18.72348 l 0.13192,-16.977 h -2.18925 c -4.3555,0 -6.1962,1.520068 -7.47843,6.175755 -0.56547,2.053173 -0.57834,1.99201 -0.61749,-2.933773 l -0.04,-5.030662 h 13.86227 13.86227 v 4.918869 c 0,2.705378 -0.0863,4.918869 -0.19186,4.918869 -0.10552,0 -0.52635,-1.150623 -0.93517,-2.556941 -0.50586,-1.740088 -1.24045,-3.025784 -2.29942,-4.024529 -1.3982,-1.318671 -1.82512,-1.467588 -4.20728,-1.467588 h -2.65118 v 16.92315 c 0,16.23732 0.0355,16.95528 0.87602,17.71594 0.48182,0.43604 1.53826,0.94969 2.34765,1.14146 0.87689,0.20776 -1.87163,0.35087 -6.80103,0.35411 -6.17594,0.004 -7.87597,-0.10598 -6.70755,-0.43418 z"
     id="path1491"
     transform="scale(1.8)" />
  <path
     style="fill:#ffffff;stroke-width:0.44717"
     d="m 164.68643,123.69096 c -6.72028,-2.19462 -10.73049,-7.57359 -11.87201,-15.92418 -0.86938,-6.3598 1.65062,-14.09511 6.01309,-18.457581 4.73723,-4.737238 10.78396,-5.875263 17.29351,-3.254727 3.54316,1.426367 4.27233,1.331793 5.31157,-0.688914 0.46098,-0.89632 0.54961,0.03582 0.53567,5.633516 l -0.0167,6.707549 -1.05606,-2.843784 c -2.00415,-5.396785 -5.22624,-8.091494 -9.69068,-8.104523 -7.06079,-0.0206 -11.21519,7.82754 -10.52964,19.891704 0.44699,7.866 2.82055,13.20565 6.52984,14.68982 4.22413,1.69016 9.09265,0.31934 12.46253,-3.50906 1.85563,-2.1081 1.88344,-2.12113 1.88344,-0.88216 0,1.59782 -3.28215,4.84836 -6.21192,6.1521 -2.59589,1.15517 -8.00498,1.45487 -10.65263,0.59024 z"
     id="path1530"
     transform="scale(1.8)" />
  <path
     style="fill:#ffffff;stroke-width:0.44717"
     d="m 191.82513,122.96176 c 3.19987,-0.75261 3.14095,-0.40084 3.14095,-18.75141 0,-15.744066 -0.0364,-16.459372 -0.87603,-17.219231 -0.48181,-0.436035 -1.53825,-0.949691 -2.34764,-1.141457 -0.87689,-0.207759 1.87162,-0.350865 6.80102,-0.354109 6.06828,-0.004 7.85561,0.109003 6.70755,0.424055 -2.94044,0.806927 -3.13019,1.388897 -3.13019,9.600704 v 7.328768 h 5.81321 5.81321 v -7.328768 c 0,-8.211807 -0.18974,-8.793777 -3.13019,-9.600704 -1.14805,-0.315052 0.63927,-0.428048 6.70755,-0.424055 5.26535,0.0035 7.70761,0.138341 6.71831,0.371026 -3.19639,0.751798 -3.14095,0.424439 -3.14095,18.547591 0,18.12315 -0.0554,17.7958 3.14095,18.54759 0.9871,0.23217 -1.46465,0.36559 -6.71831,0.36559 -5.25366,0 -7.70541,-0.13342 -6.71831,-0.36559 2.92936,-0.68899 3.14095,-1.36945 3.14095,-10.1009 v -7.77593 h -5.81321 -5.81321 v 7.77593 c 0,8.73145 0.2116,9.41191 3.14095,10.1009 0.98711,0.23217 -1.46465,0.36559 -6.71831,0.36559 -5.25365,0 -7.70541,-0.13342 -6.7183,-0.36559 z"
     id="path1569"
     transform="scale(1.8)" />
  <path
     style="fill:#ffffff;stroke-width:0.44717"
     d="m 232.96476,122.96176 c 3.19638,-0.75179 3.14095,-0.42444 3.14095,-18.54759 0,-18.103072 0.083,-17.612793 -3.13019,-18.494562 -1.1025,-0.30255 2.30093,-0.441419 11.51462,-0.469828 l 13.07972,-0.04033 -0.0303,5.477832 c -0.0301,5.437962 -0.14291,5.601219 -1.31387,1.900472 -1.33719,-4.226145 -3.62941,-5.589624 -9.397,-5.589624 h -3.56831 v 8.049058 8.049062 h 1.14014 c 2.87831,0 4.61227,-2.05909 5.59578,-6.645031 0.2711,-1.264104 0.57685,-2.298371 0.67944,-2.298371 0.10259,0 0.17065,4.477289 0.15123,9.949532 -0.0346,9.74884 -0.13218,10.17415 -1.29899,5.6609 -0.77877,-3.01231 -2.09066,-4.43587 -4.36963,-4.74154 l -1.89797,-0.25457 v 7.59146 c 0,9.18637 -0.0623,9.07158 4.92469,9.07158 5.55525,0 8.75062,-2.32695 10.52302,-7.66314 0.40784,-1.22789 0.82764,-2.14642 0.93289,-2.04117 0.10525,0.10525 -0.11648,2.67791 -0.49273,5.71703 -0.37625,3.03912 -0.68409,5.58199 -0.68409,5.65082 0,0.0688 -6.0871,0.10454 -13.52689,0.0794 -8.08066,-0.0273 -12.90108,-0.19297 -11.97255,-0.41136 z"
     id="path1608"
     transform="scale(1.8)" />
  <path
     style="fill:#ffffff;stroke-width:0.44717"
     d="m 268.73835,122.96176 c 3.19987,-0.75261 3.14095,-0.40084 3.14095,-18.75141 0,-15.744066 -0.0364,-16.459372 -0.87603,-17.219231 -0.48181,-0.436035 -1.53825,-0.949691 -2.34764,-1.141457 -0.87054,-0.206256 1.99861,-0.349014 7.02461,-0.34952 6.11737,-6.15e-4 7.99542,0.113146 6.70755,0.406303 -3.4416,0.783413 -3.35377,0.311763 -3.35377,18.010595 0,13.50907 0.0981,15.86557 0.69611,16.71933 0.63445,0.90581 1.06431,0.99384 4.85274,0.99384 3.57444,0 4.36368,-0.14092 5.63494,-1.00613 2.09007,-1.42249 3.02893,-2.84904 4.5245,-6.87476 l 1.30842,-3.52194 -0.2472,4.02453 c -0.13596,2.21349 -0.36863,5.18158 -0.51706,6.59575 l -0.26986,2.57123 -13.9163,-0.0458 c -8.28276,-0.0272 -13.28708,-0.19377 -12.36196,-0.41136 z"
     id="path1647"
     transform="scale(1.8)" />
  <path
     style="fill:#ffffff;stroke-width:0.44717"
     d="m 305.40628,122.96176 c 3.19987,-0.75261 3.14095,-0.40084 3.14095,-18.75141 0,-15.744066 -0.0364,-16.459372 -0.87603,-17.219231 -0.48181,-0.436035 -1.53825,-0.949691 -2.34764,-1.141457 -0.87054,-0.206256 1.99861,-0.349014 7.02461,-0.34952 6.11737,-6.15e-4 7.99542,0.113146 6.70755,0.406303 -3.4416,0.783413 -3.35377,0.311763 -3.35377,18.010595 0,13.50907 0.0981,15.86557 0.69611,16.71933 0.63445,0.90581 1.06432,0.99384 4.85274,0.99384 3.57444,0 4.36368,-0.14092 5.63494,-1.00613 2.09007,-1.42249 3.02893,-2.84904 4.5245,-6.87476 l 1.30842,-3.52194 -0.2472,4.02453 c -0.13596,2.21349 -0.36863,5.18158 -0.51706,6.59575 l -0.26985,2.57123 -13.9163,-0.0458 c -8.28277,-0.0272 -13.28709,-0.19377 -12.36197,-0.41136 z"
     id="path1686"
     transform="scale(1.8)" />
</svg>
