<?xml version="1.0" encoding="UTF-8" standalone="no"?>
<!-- Created with Inkscape (http://www.inkscape.org/) -->

<svg
   width="194.63477mm"
   height="98.294968mm"
   viewBox="0 0 194.63475 98.294968"
   version="1.1"
   id="svg5"
   xml:space="preserve"
   inkscape:version="1.2.2 (b0a8486541, 2022-12-01)"
   sodipodi:docname="mohaa_logo.svg"
   xmlns:inkscape="http://www.inkscape.org/namespaces/inkscape"
   xmlns:sodipodi="http://sodipodi.sourceforge.net/DTD/sodipodi-0.dtd"
   xmlns="http://www.w3.org/2000/svg"
   xmlns:svg="http://www.w3.org/2000/svg"><sodipodi:namedview
     id="namedview7"
     pagecolor="#505050"
     bordercolor="#eeeeee"
     borderopacity="1"
     inkscape:showpageshadow="0"
     inkscape:pageopacity="0"
     inkscape:pagecheckerboard="0"
     inkscape:deskcolor="#505050"
     inkscape:document-units="mm"
     showgrid="false"
     showguides="true"
     inkscape:zoom="2.3051681"
     inkscape:cx="265.92421"
     inkscape:cy="196.51495"
     inkscape:window-width="3840"
     inkscape:window-height="2091"
     inkscape:window-x="0"
     inkscape:window-y="0"
     inkscape:window-maximized="1"
     inkscape:current-layer="layer1" /><defs
     id="defs2"><filter
       style="color-interpolation-filters:sRGB"
       inkscape:label="Drop Shadow"
       id="filter19077"
       x="-0.011090365"
       y="-0.023949015"
       width="1.0268017"
       height="1.0678555"><feFlood
         flood-opacity="0.780392"
         flood-color="rgb(0,0,0)"
         result="flood"
         id="feFlood19067" /><feComposite
         in="flood"
         in2="SourceGraphic"
         operator="in"
         result="composite1"
         id="feComposite19069" /><feGaussianBlur
         in="composite1"
         stdDeviation="0.4"
         result="blur"
         id="feGaussianBlur19071" /><feOffset
         dx="0.4"
         dy="0.8"
         result="offset"
         id="feOffset19073" /><feComposite
         in="SourceGraphic"
         in2="offset"
         operator="over"
         result="fbSourceGraphic"
         id="feComposite19075" /><feColorMatrix
         result="fbSourceGraphicAlpha"
         in="fbSourceGraphic"
         values="0 0 0 -1 0 0 0 0 -1 0 0 0 0 -1 0 0 0 0 1 0"
         id="feColorMatrix19139" /><feFlood
         id="feFlood19141"
         flood-opacity="0.780392"
         flood-color="rgb(0,0,0)"
         result="flood"
         in="fbSourceGraphic" /><feComposite
         in2="fbSourceGraphic"
         id="feComposite19143"
         in="flood"
         operator="in"
         result="composite1" /><feGaussianBlur
         id="feGaussianBlur19145"
         in="composite1"
         stdDeviation="0.4"
         result="blur" /><feOffset
         id="feOffset19147"
         dx="0.4"
         dy="0.8"
         result="offset" /><feComposite
         in2="offset"
         id="feComposite19149"
         in="fbSourceGraphic"
         operator="over"
         result="composite2" /></filter><filter
       style="color-interpolation-filters:sRGB"
       inkscape:label="Drop Shadow"
       id="filter19113"
       x="-0.069553191"
       y="-0.37821195"
       width="1.1680869"
       height="2.0716004"><feFlood
         flood-opacity="0.780392"
         flood-color="rgb(0,0,0)"
         result="flood"
         id="feFlood19103" /><feComposite
         in="flood"
         in2="SourceGraphic"
         operator="in"
         result="composite1"
         id="feComposite19105" /><feGaussianBlur
         in="composite1"
         stdDeviation="0.4"
         result="blur"
         id="feGaussianBlur19107" /><feOffset
         dx="0.4"
         dy="0.8"
         result="offset"
         id="feOffset19109" /><feComposite
         in="SourceGraphic"
         in2="offset"
         operator="over"
         result="fbSourceGraphic"
         id="feComposite19111" /><feColorMatrix
         result="fbSourceGraphicAlpha"
         in="fbSourceGraphic"
         values="0 0 0 -1 0 0 0 0 -1 0 0 0 0 -1 0 0 0 0 1 0"
         id="feColorMatrix19175" /><feFlood
         id="feFlood19177"
         flood-opacity="0.780392"
         flood-color="rgb(0,0,0)"
         result="flood"
         in="fbSourceGraphic" /><feComposite
         in2="fbSourceGraphic"
         id="feComposite19179"
         in="flood"
         operator="in"
         result="composite1" /><feGaussianBlur
         id="feGaussianBlur19181"
         in="composite1"
         stdDeviation="0.4"
         result="blur" /><feOffset
         id="feOffset19183"
         dx="0.4"
         dy="0.8"
         result="offset" /><feComposite
         in2="offset"
         id="feComposite19185"
         in="fbSourceGraphic"
         operator="over"
         result="composite2" /></filter><filter
       style="color-interpolation-filters:sRGB"
       inkscape:label="Drop Shadow"
       id="filter21662"
       x="-0.15435574"
       y="-0.74254172"
       width="1.3301498"
       height="2.8976058"><feFlood
         flood-opacity="0.780392"
         flood-color="rgb(0,0,0)"
         result="flood"
         id="feFlood21652" /><feComposite
         in="flood"
         in2="SourceGraphic"
         operator="in"
         result="composite1"
         id="feComposite21654" /><feGaussianBlur
         in="composite1"
         stdDeviation="0.3"
         result="blur"
         id="feGaussianBlur21656" /><feOffset
         dx="0.1"
         dy="0.4"
         result="offset"
         id="feOffset21658" /><feComposite
         in="SourceGraphic"
         in2="offset"
         operator="over"
         result="fbSourceGraphic"
         id="feComposite21660" /><feColorMatrix
         result="fbSourceGraphicAlpha"
         in="fbSourceGraphic"
         values="0 0 0 -1 0 0 0 0 -1 0 0 0 0 -1 0 0 0 0 1 0"
         id="feColorMatrix21712" /><feFlood
         id="feFlood21714"
         flood-opacity="0.780392"
         flood-color="rgb(0,0,0)"
         result="flood"
         in="fbSourceGraphic" /><feComposite
         in2="fbSourceGraphic"
         id="feComposite21716"
         in="flood"
         operator="in"
         result="composite1" /><feGaussianBlur
         id="feGaussianBlur21718"
         in="composite1"
         stdDeviation="0.3"
         result="blur" /><feOffset
         id="feOffset21720"
         dx="0.1"
         dy="0.4"
         result="offset" /><feComposite
         in2="offset"
         id="feComposite21722"
         in="fbSourceGraphic"
         operator="over"
         result="fbSourceGraphic" /><feColorMatrix
         result="fbSourceGraphicAlpha"
         in="fbSourceGraphic"
         values="0 0 0 -1 0 0 0 0 -1 0 0 0 0 -1 0 0 0 0 1 0"
         id="feColorMatrix21772" /><feFlood
         id="feFlood21774"
         flood-opacity="0.780392"
         flood-color="rgb(0,0,0)"
         result="flood"
         in="fbSourceGraphic" /><feComposite
         in2="fbSourceGraphic"
         id="feComposite21776"
         in="flood"
         operator="in"
         result="composite1" /><feGaussianBlur
         id="feGaussianBlur21778"
         in="composite1"
         stdDeviation="0.3"
         result="blur" /><feOffset
         id="feOffset21780"
         dx="0.1"
         dy="0.4"
         result="offset" /><feComposite
         in2="offset"
         id="feComposite21782"
         in="fbSourceGraphic"
         operator="over"
         result="composite2" /></filter><filter
       style="color-interpolation-filters:sRGB"
       inkscape:label="Drop Shadow"
       id="filter19382"
       x="-0.015124596"
       y="-0.03128603"
       width="1.0329026"
       height="1.0790384"><feFlood
         flood-opacity="0.780392"
         flood-color="rgb(0,0,0)"
         result="flood"
         id="feFlood19372" /><feComposite
         in="flood"
         in2="SourceGraphic"
         operator="in"
         result="composite1"
         id="feComposite19374" /><feGaussianBlur
         in="composite1"
         stdDeviation="0.5"
         result="blur"
         id="feGaussianBlur19376" /><feOffset
         dx="0.5"
         dy="1.5"
         result="offset"
         id="feOffset19378" /><feComposite
         in="offset"
         in2="offset"
         operator="atop"
         result="composite2"
         id="feComposite19380" /></filter></defs><g
     inkscape:label="Ebene 1"
     inkscape:groupmode="layer"
     id="layer1"
     transform="translate(-2.4769096,-82.052611)"><path
       style="display:inline;fill:#414141;fill-opacity:1;stroke:none;stroke-width:0.264583px;stroke-linecap:butt;stroke-linejoin:miter;stroke-opacity:1"
       d="M 5.3269095,84.902611 H 193.76169 v 73.678949 l -11.30788,-0.0195 -1e-5,17.43555 H 16.520645 V 158.56206 H 5.3269112 Z"
       id="path6634"
       inkscape:label="backdrop"
       sodipodi:nodetypes="ccccccccc" /><path
       style="display:inline;fill:none;fill-opacity:1;stroke:#98badf;stroke-width:3.3;stroke-linecap:butt;stroke-linejoin:miter;stroke-dasharray:none;stroke-opacity:1;filter:url(#filter19382)"
       d="M 5.3269095,84.902611 H 193.76169 v 73.659419 h -11.30788 v 17.43555 H 16.520645 V 158.56203 H 5.3269112 Z"
       id="path19240"
       inkscape:label="outline shadow"
       sodipodi:nodetypes="ccccccccc" /><path
       style="display:inline;fill:none;fill-opacity:1;stroke:#98badf;stroke-width:3.3;stroke-linecap:butt;stroke-linejoin:miter;stroke-dasharray:none;stroke-opacity:1"
       d="M 5.3269095,84.902611 H 193.76169 v 73.659419 h -11.30788 v 17.43555 H 16.626911 l 1.31e-4,-17.43555 H 5.3270427 Z"
       id="path6634-3-6"
       inkscape:label="outline"
       sodipodi:nodetypes="ccccccccc" /><path
       style="display:inline;fill:#98badf;fill-opacity:1;stroke:#000000;stroke-width:0;stroke-linecap:butt;stroke-linejoin:miter;stroke-dasharray:none;stroke-opacity:1;filter:url(#filter19113)"
       d="m 158.19986,109.88396 v 4.9527 l 27.60478,0.0817 v -5.07652 z"
       id="path1265"
       inkscape:label="star_bar" /><path
       id="path49627-1-7-2-7"
       style="fill:#98badf;stroke:#000000;stroke-width:0;filter:url(#filter21662)"
       inkscape:label="stars"
       inkscape:transform-center-x="-0.96437838"
       inkscape:transform-center-y="-1.4886114"
       transform="matrix(1.6214765,-0.09689084,0.09652734,1.6275826,-96.890862,-53.421404)"
       d="m 162.35552,112.74954 -0.18694,-0.16468 -0.20638,0.14235 -0.28379,-0.0169 0.16925,-0.38898 -0.5979,-0.45719 0.74935,0.0706 0.25005,-0.70992 0.16447,0.73448 0.75244,0.0184 -0.6477,0.38339 0.11807,0.4046 z m -6.03863,-0.35945 -0.18698,-0.16472 -0.20417,0.14083 -0.28427,-0.0168 0.16752,-0.38753 -0.5979,-0.45719 0.74935,0.0706 0.25005,-0.70992 0.16447,0.73448 0.75244,0.0184 -0.6477,0.38339 0.12018,0.40322 z m 9.47972,0.0432 -0.56477,-0.49753 -0.61958,0.42736 0.29866,-0.69088 -0.5979,-0.45719 0.74935,0.0706 0.25005,-0.70992 0.16447,0.73448 0.75244,0.0184 -0.6477,0.38339 z m -6.02787,-0.35884 -0.56477,-0.49753 -0.61958,0.42736 0.29866,-0.69088 -0.5979,-0.45719 0.74935,0.0706 0.25005,-0.70992 0.16447,0.73448 0.75244,0.0184 -0.6477,0.38339 z m -6.04948,-0.36013 -0.56477,-0.49753 -0.61958,0.42736 0.29866,-0.69088 -0.5979,-0.45719 0.74935,0.0706 0.25005,-0.70992 0.16447,0.73448 0.75244,0.0184 -0.6477,0.38339 z" /><path
       id="path21221"
       style="font-weight:600;font-size:40.9222px;line-height:1.25;font-family:'Adobe Garamond';-inkscape-font-specification:'Adobe Garamond Semi-Bold';letter-spacing:0.407458px;word-spacing:0px;display:inline;fill:#98badf;stroke-width:0.264583;filter:url(#filter19077)"
       d="m 140.28231,111.36034 q 0,1.55504 0.12277,2.61902 0.12276,1.06398 0.57291,1.59597 0.16369,0.20461 0.40922,0.3683 0.28645,0.16369 0.7366,0.28645 0.49107,0.12277 1.26859,0.20461 0.77752,0.0409 2.00518,0.0409 1.71874,0 2.74179,-0.0819 1.06398,-0.12277 1.80058,-0.53199 0.7366,-0.45014 1.26859,-1.30951 0.57291,-0.90029 1.26859,-2.49625 0.32737,-0.16369 0.69567,-0.0819 0.40922,0.0819 0.57291,0.32738 -0.12276,0.65476 -0.3683,1.51412 -0.20461,0.81845 -0.45014,1.67781 -0.24553,0.85937 -0.49107,1.59597 -0.24553,0.7366 -0.40922,1.14582 -1.30951,-0.0818 -3.84669,-0.12277 -2.49625,0 -5.97464,0 h -4.25591 q -1.55504,0 -3.06916,0 -1.4732,0.0409 -2.78271,0.12277 -0.24553,-0.12277 -0.32738,-0.57291 -0.0409,-0.45015 0.24554,-0.61383 l 1.22766,-0.20462 q 0.7366,-0.0818 1.18675,-0.20461 0.45014,-0.16368 0.69567,-0.61383 0.24554,-0.45014 0.32738,-1.30951 0.0818,-0.90029 0.0818,-2.49625 V 96.996648 q 0,-1.595966 -0.0818,-2.455332 -0.0818,-0.900288 -0.32738,-1.350432 -0.24553,-0.450144 -0.69567,-0.572911 -0.45015,-0.163689 -1.18675,-0.286455 l -1.14582,-0.163689 q -0.20461,-0.163689 -0.20461,-0.613833 0,-0.450144 0.28645,-0.572911 1.55505,0.08184 2.9464,0.122767 1.39136,0 2.82363,0 2.74179,0 5.44266,-0.122767 0.28645,0.122767 0.28645,0.572911 0.0409,0.450144 -0.20461,0.613833 l -0.90029,0.163689 q -0.7366,0.122766 -1.18674,0.286455 -0.45014,0.122767 -0.69568,0.572911 -0.24553,0.450144 -0.32738,1.350432 -0.0818,0.859366 -0.0818,2.455332 z m -22.70995,-5.11527 q 0.85936,0 1.02305,-0.16369 0.20461,-0.16369 -0.0409,-0.90029 l -1.71873,-4.91067 q -0.53199,-1.636884 -0.77752,-2.332561 -0.20461,-0.695678 -0.3683,-0.900289 h -0.0819 q -0.12276,0.204611 -0.40922,1.023055 -0.24553,0.777522 -0.81844,2.209795 l -1.71874,4.7879 q -0.32737,0.90029 -0.20461,1.06398 0.12277,0.12277 0.85937,0.12277 z m -4.91067,1.84149 q -0.40922,0 -0.61383,0.0409 -0.20461,0 -0.32738,0.12276 -0.12276,0.0819 -0.24553,0.32738 -0.0818,0.20461 -0.20461,0.61383 l -1.67781,4.91067 q -0.32738,0.90029 -0.45015,1.43227 -0.0818,0.49107 0,0.77753 0.0819,0.24553 0.40923,0.3683 0.32737,0.0818 0.90029,0.16368 l 1.18674,0.20462 q 0.20461,0.20461 0.16369,0.65475 0,0.40922 -0.24554,0.53199 -0.98213,-0.0818 -2.04611,-0.0818 -1.02305,0 -2.29164,-0.0409 -1.92334,0 -4.0513,0.12277 -0.20461,-0.16369 -0.20461,-0.53199 -0.0409,-0.3683 0.16369,-0.65475 l 1.22767,-0.20462 q 0.90029,-0.12276 1.35043,-0.49106 0.45014,-0.3683 0.90029,-1.39136 0.3683,-0.81844 0.85936,-2.04611 0.49107,-1.26858 1.14583,-2.94639 l 5.60634,-14.568308 q 0.40922,-0.982132 0.61383,-1.718732 0.24553,-0.736599 0.16369,-1.268588 0.53199,-0.122767 1.02305,-0.409222 0.53199,-0.327378 0.90029,-0.654755 0.40922,-0.3683 0.65476,-0.613833 0.24553,-0.286456 0.28645,-0.286456 0.45015,0 0.69568,0.327378 0.49107,1.391355 0.90029,2.823632 0.45014,1.391354 0.94121,2.782709 l 5.8928,17.146405 q 0.3683,1.02305 0.61383,1.63688 0.24553,0.61384 0.57291,0.98214 0.32738,0.32738 0.77752,0.49106 0.49107,0.16369 1.26859,0.28646 l 0.61383,0.12277 q 0.24554,0.20461 0.24554,0.61383 0,0.40922 -0.20461,0.57291 -1.26859,-0.0818 -2.49626,-0.12277 -1.22766,0 -2.82363,0 -1.30951,0 -2.61902,0.0409 -1.30951,0.0409 -2.37349,0.0818 -0.24553,-0.16369 -0.28645,-0.57291 -0.0409,-0.40922 0.16368,-0.61383 l 0.90029,-0.12277 q 1.1049,-0.12277 1.26859,-0.49107 0.20461,-0.3683 -0.20461,-1.67781 l -1.92334,-5.56542 q -0.16369,-0.40922 -0.28646,-0.61383 -0.12277,-0.24553 -0.28645,-0.32738 -0.16369,-0.12276 -0.45015,-0.12276 -0.24553,-0.0409 -0.65475,-0.0409 z m -28.91557,2.53718 q 0,1.4732 0.08184,2.61902 0.122767,1.14582 0.572911,1.92334 0.491067,0.77753 1.391355,1.18675 0.94121,0.3683 2.578098,0.3683 2.741788,0 4.706053,-0.90029 2.005188,-0.94121 3.273776,-2.53718 1.309511,-1.63688 1.923344,-3.84668 0.654755,-2.2098 0.654755,-4.7879 0,-3.02824 -0.859366,-5.278964 -0.818444,-2.291643 -2.373488,-3.764843 -1.514121,-1.514121 -3.642076,-2.25072 -2.087032,-0.7366 -4.66513,-0.7366 -1.309511,0 -2.209799,0.204611 -0.900288,0.163689 -1.104899,0.3683 -0.204611,0.204611 -0.286456,0.900288 -0.04092,0.695677 -0.04092,2.127954 z M 78.999145,97.242181 q 0,-1.473199 -0.04092,-2.332565 -0.04092,-0.900288 -0.245534,-1.391355 -0.163688,-0.491066 -0.57291,-0.654755 -0.3683,-0.204611 -1.1049,-0.286455 l -0.859366,-0.08185 q -0.204611,-0.163688 -0.204611,-0.57291 0,-0.409222 0.245533,-0.572911 2.209799,-0.204611 4.706053,-0.286456 2.496254,-0.08184 5.524497,-0.08184 2.905476,0 5.156197,0.327378 2.250721,0.286455 4.501442,1.063977 1.841499,0.695677 3.35562,1.841499 1.555044,1.104899 2.659944,2.659943 1.14582,1.555043 1.75965,3.519309 0.61383,1.92334 0.61383,4.21499 0,1.71873 -0.45014,3.39654 -0.40922,1.67781 -1.30951,3.23285 -0.90029,1.55505 -2.29164,2.86456 -1.391356,1.30951 -3.273777,2.29164 -2.209798,1.1049 -4.787897,1.55504 -2.537176,0.40923 -5.360808,0.40923 -1.882421,0 -3.35562,-0.12277 -1.432277,-0.12277 -2.578099,-0.12277 -1.186744,0 -2.537176,0 -1.309511,0.0409 -2.659943,0.12277 -0.245534,-0.12277 -0.286456,-0.53199 0,-0.45014 0.204611,-0.65475 l 0.900289,-0.12277 q 0.736599,-0.0819 1.186743,-0.20461 0.450145,-0.16369 0.695678,-0.61383 0.245533,-0.45015 0.327377,-1.35044 0.08185,-0.90029 0.08185,-2.53717 z M 54.336814,96.996648 q 0,-1.636888 -0.08184,-2.537176 -0.08185,-0.900288 -0.327378,-1.350433 -0.245533,-0.450144 -0.695677,-0.57291 -0.450144,-0.163689 -1.186744,-0.286456 L 51.39042,92.167833 Q 51.185809,91.963222 51.185809,91.554 q 0.04092,-0.450144 0.286455,-0.572911 1.186744,0.08184 2.537177,0.122767 1.391354,0 2.741787,0 h 7.81614 q 1.964266,0 3.519309,0 1.595966,-0.04092 2.005188,-0.122767 0.04092,0.245533 0.122767,0.941211 0.08184,0.654755 0.163688,1.514121 0.08185,0.818444 0.163689,1.718732 0.122767,0.859366 0.204611,1.514122 -0.122767,0.245533 -0.613833,0.327377 -0.450144,0.04092 -0.695677,-0.163689 -0.491067,-1.800576 -1.063977,-2.61902 -0.531989,-0.859366 -1.514122,-1.1049 -0.695677,-0.204611 -1.595966,-0.286455 -0.859366,-0.08184 -1.67781,-0.08184 h -2.741787 q -0.654755,0 -1.023055,0.04092 -0.3683,0.04092 -0.531989,0.286455 -0.163688,0.245533 -0.204611,0.7366 0,0.491066 0,1.350432 V 102.071 q 0,0.81844 0.122767,0.98213 0.163689,0.12277 0.859366,0.12277 h 1.964266 q 1.350432,0 2.168876,-0.0409 0.818444,-0.0409 1.309511,-0.20461 0.491066,-0.16369 0.695677,-0.53199 0.245533,-0.3683 0.3683,-1.02306 l 0.286455,-1.391351 q 0.245533,-0.204611 0.695678,-0.204611 0.450144,0 0.613833,0.245532 -0.04092,0.81844 -0.08185,1.88242 -0.04092,1.06398 -0.04092,2.2098 0,1.18674 0.04092,2.25072 0.04092,1.06398 0.08185,2.04611 -0.163689,0.20461 -0.613833,0.24554 -0.450145,0 -0.695678,-0.20462 L 66.572556,106.818 q -0.122767,-0.65476 -0.3683,-0.98214 -0.204611,-0.3683 -0.695677,-0.53199 -0.491067,-0.20461 -1.309511,-0.24553 -0.818444,-0.0409 -2.168876,-0.0409 h -1.964266 q -0.695677,0 -0.859366,0.16369 -0.122767,0.16369 -0.122767,0.94121 v 5.19712 q 0,1.55504 0.122767,2.65994 0.122767,1.06398 0.572911,1.59597 0.163688,0.20461 0.409222,0.3683 0.286455,0.16369 0.777521,0.28645 0.531989,0.12277 1.309511,0.20461 0.818444,0.0409 2.127954,0.0409 1.964266,0.0409 3.15101,-0.16369 1.227666,-0.24554 2.005187,-0.77753 0.818444,-0.53198 1.309511,-1.39135 0.531988,-0.85937 1.063977,-2.08703 0.286455,-0.20461 0.695677,-0.12277 0.409222,0.0409 0.613833,0.3683 -0.08184,0.65476 -0.286455,1.51412 -0.204611,0.81845 -0.450144,1.67781 -0.245534,0.85937 -0.531989,1.59597 -0.245533,0.7366 -0.450144,1.14582 -1.350433,-0.0818 -3.928531,-0.12277 -2.578099,0 -6.179252,0 h -4.665131 q -1.350433,0 -3.069165,0 -1.67781,0.0409 -3.069165,0.12277 -0.245533,-0.12277 -0.286455,-0.53199 0,-0.45014 0.204611,-0.65475 l 1.514121,-0.16369 q 0.7366,-0.0819 1.186744,-0.20461 0.450144,-0.12277 0.695677,-0.57291 0.245533,-0.45015 0.327378,-1.35044 0.08184,-0.90029 0.08184,-2.53717 z m -6.598681,20.051882 q 0.327378,0.12276 0.286455,0.61383 -0.04092,0.45014 -0.368299,0.57291 -1.309511,-0.0818 -2.537177,-0.12277 -1.227666,0 -2.455332,0 -2.782709,0 -5.483574,0.12277 -0.245534,-0.12277 -0.327378,-0.53199 -0.08184,-0.45014 0.245533,-0.65475 l 1.1049,-0.20462 q 0.613833,-0.0818 0.94121,-0.20461 0.3683,-0.16368 0.531989,-0.49106 0.204611,-0.3683 0.245533,-0.98214 0.04092,-0.61383 0.04092,-1.67781 V 96.751115 h -0.08184 q -0.818444,1.67781 -1.350433,2.78271 -0.531988,1.104895 -1.104899,2.332565 l -3.519309,7.20231 q -0.531989,1.06397 -1.145822,2.41441 -0.613833,1.30951 -1.186744,2.61902 -0.572911,1.26859 -1.063977,2.41441 -0.491066,1.14582 -0.777522,1.88242 -0.122766,0.12277 -0.491066,0.12277 -0.3683,0 -0.572911,-0.12277 -0.245533,-0.81845 -0.695677,-1.92334 -0.409222,-1.1049 -0.900289,-2.25073 -0.491066,-1.18674 -0.982132,-2.25072 -0.450145,-1.06397 -0.818444,-1.8415 l -3.642076,-7.85706 q -0.286456,-0.65475 -0.654755,-1.39135 -0.327378,-0.77752 -0.654756,-1.555046 -0.327377,-0.777522 -0.613832,-1.432277 -0.286456,-0.695678 -0.450145,-1.145822 h -0.08184 q -0.04092,0.7366 -0.08184,1.67781 0,0.941211 -0.04092,1.882425 -0.04092,0.94121 -0.08184,1.8415 0,0.85936 -0.04092,1.51412 -0.08185,1.88242 -0.122767,4.41959 -0.04092,2.53718 -0.04092,5.07436 0,1.02305 0.04092,1.67781 0.04092,0.65475 0.204611,1.06397 0.163689,0.3683 0.531989,0.57292 0.368299,0.20461 1.023055,0.32737 l 1.350432,0.24554 q 0.204611,0.20461 0.204611,0.65475 0,0.40922 -0.245533,0.53199 -1.145822,-0.0818 -2.168876,-0.12277 -0.982133,0 -2.127955,0 -2.005188,0 -4.378675,0.12277 -0.286456,-0.16369 -0.327378,-0.57291 0,-0.45015 0.204611,-0.61383 l 0.695678,-0.0819 q 0.736599,-0.0818 1.186743,-0.24553 0.450145,-0.20461 0.695678,-0.57291 0.286455,-0.3683 0.409222,-0.98214 0.163689,-0.61383 0.245533,-1.55504 0.245533,-1.92334 0.327378,-4.09222 0.122766,-2.2098 0.286455,-5.40173 0.122767,-2.08703 0.245533,-4.419597 0.163689,-2.373487 0.163689,-4.255908 0,-1.432277 -0.531989,-2.127955 -0.491066,-0.695677 -1.67781,-0.900288 l -1.391355,-0.245533 q -0.204611,-0.204611 -0.163688,-0.654755 0.04092,-0.450145 0.327377,-0.531989 0.941211,0.08184 1.800577,0.122767 0.900288,0 2.04611,0 1.063977,0 2.127954,0 1.1049,-0.04092 2.250721,-0.122767 0.122767,1.841499 0.777522,3.478387 0.695677,1.636888 1.473199,3.314698 l 4.501442,9.45303 q 0.122767,0.24553 0.3683,0.7366 0.245533,0.49106 0.491066,1.02305 0.286456,0.53199 0.572911,1.06398 0.286456,0.49107 0.491066,0.85937 0.491067,-0.90029 0.941211,-1.8415 0.491066,-0.98214 1.186744,-2.41441 l 3.846687,-7.857065 q 0.982132,-2.04611 1.882421,-3.887609 0.900288,-1.882421 1.432277,-3.928531 0.818444,0.08184 1.718732,0.122767 0.941211,0 1.636888,0 2.578099,0 4.296831,-0.122767 0.327378,0.122767 0.3683,0.572911 0.08184,0.409222 -0.245533,0.613833 l -1.350433,0.204611 q -1.350433,0.204611 -1.800577,0.859366 -0.409222,0.613833 -0.409222,2.250721 0,4.583283 0.08185,9.084733 0.08184,4.50144 0.286455,9.08472 0.04092,1.02306 0.163689,1.63689 0.122766,0.61383 0.327377,0.94121 0.204611,0.32738 0.531989,0.45015 0.3683,0.12276 0.859366,0.16368 z M 182.14009,93.539994 q 0.99907,0 1.79,0 0.81174,-0.02081 1.14476,-0.06244 0,0.166511 0,0.520347 0,0.353836 0,0.790928 0,0.416278 0,0.874184 0.0208,0.437092 0.0416,0.811742 -0.0624,0.124884 -0.2914,0.166511 -0.20814,0.02081 -0.37465,-0.08326 -0.16651,-0.915812 -0.4579,-1.373718 -0.27058,-0.478719 -0.87419,-0.645231 -0.41627,-0.104069 -0.83255,-0.124883 -0.41628,-0.04163 -0.91581,-0.04163 h -1.06151 q -0.33303,0 -0.52035,0.02081 -0.16651,0.02081 -0.24977,0.145697 -0.0833,0.124884 -0.10407,0.374651 0,0.228953 0,0.666044 v 3.725689 q 0,0.395464 0.0624,0.478719 0.0833,0.08326 0.4371,0.08326 h 1.22802 q 0.68686,0 1.10313,-0.02081 0.41628,-0.02081 0.66605,-0.10407 0.24976,-0.104069 0.37465,-0.27058 0.12488,-0.187325 0.18732,-0.520348 l 0.16651,-0.707672 q 0.10407,-0.10407 0.31221,-0.10407 0.22896,0 0.31221,0.124884 -0.0208,0.416278 -0.0416,0.957439 -0.0208,0.541161 -0.0208,1.123953 0,0.58279 0.0208,1.14476 0.0208,0.54117 0.0416,1.01989 -0.0832,0.12488 -0.31221,0.12488 -0.20814,0 -0.31221,-0.10407 l -0.16651,-0.81174 q -0.0624,-0.33303 -0.18732,-0.49954 -0.12489,-0.18732 -0.37465,-0.27058 -0.24977,-0.10407 -0.66605,-0.12488 -0.41627,-0.0208 -1.10313,-0.0208 h -1.22802 q -0.35384,0 -0.4371,0.0832 -0.0624,0.0833 -0.0624,0.47872 v 2.91395 q 0,0.83255 0.0416,1.29046 0.0416,0.4579 0.16651,0.68686 0.12489,0.22895 0.35384,0.29139 0.22895,0.0624 0.6036,0.0833 l 0.87419,0.10407 q 0.10406,0.10407 0.0832,0.33302 0,0.20814 -0.12488,0.27058 -0.99907,-0.0416 -1.74837,-0.0624 -0.7493,0 -1.43616,0 -1.37372,0 -2.80988,0.0624 -0.12488,-0.0624 -0.14569,-0.27058 0,-0.22895 0.10407,-0.33302 l 0.4579,-0.0624 q 0.37465,-0.0416 0.60361,-0.10407 0.22895,-0.0833 0.35383,-0.31221 0.12488,-0.22896 0.16651,-0.68686 0.0416,-0.45791 0.0416,-1.29046 v -7.742776 q 0,-0.832556 -0.0416,-1.290462 -0.0416,-0.457906 -0.16651,-0.686859 -0.12488,-0.228953 -0.35383,-0.291394 -0.22896,-0.08326 -0.60361,-0.145698 l -0.27058,-0.04163 q -0.10407,-0.10407 -0.10407,-0.312209 0.0208,-0.228953 0.1457,-0.291394 0.54116,0.04163 1.20721,0.06244 0.68685,0 1.37371,0 z m -16.0267,0.499534 q -0.79093,0 -1.56104,0.312208 -0.77012,0.291395 -1.39453,0.999068 -0.62442,0.707672 -1.01988,1.852437 -0.37466,1.12395 -0.37466,2.789062 0,1.082327 0.24977,2.289527 0.24977,1.18639 0.81174,2.18546 0.56198,0.99907 1.47779,1.66511 0.91581,0.64523 2.2479,0.64523 0.895,0 1.66511,-0.33302 0.79093,-0.35383 1.37372,-1.06151 0.58279,-0.72848 0.91581,-1.85243 0.33303,-1.14477 0.33303,-2.70581 0,-1.186393 -0.27059,-2.393599 -0.27058,-1.207206 -0.85337,-2.18546 -0.58278,-0.978253 -1.47778,-1.581856 -0.87419,-0.624417 -2.12302,-0.624417 z m 0.27058,-0.832556 q 1.81081,0 3.16371,0.603603 1.37372,0.603603 2.28953,1.60267 0.91581,0.999067 1.37372,2.310343 0.45791,1.311276 0.45791,2.726622 0,1.54023 -0.56198,2.8515 -0.54116,1.31128 -1.51941,2.26872 -0.97826,0.95744 -2.33116,1.4986 -1.33209,0.54116 -2.91395,0.54116 -1.76918,0 -3.1429,-0.56197 -1.37371,-0.58279 -2.33115,-1.54023 -0.93663,-0.97826 -1.43616,-2.2479 -0.49954,-1.26965 -0.49954,-2.66418 0,-1.58186 0.54117,-2.934764 0.56197,-1.373717 1.54022,-2.35197 0.99907,-0.978254 2.35198,-1.540229 1.37371,-0.561975 3.01801,-0.561975 z m -0.6631,41.810218 q 0,0.54187 0,0.85796 0.0452,0.31609 0.22577,0.45156 0.22578,0.13546 0.67734,0.18062 0.45155,0.0452 1.26435,0.0452 3.34152,0 4.87681,-1.58044 1.58045,-1.6256 1.58045,-4.87681 0,-1.35467 -0.45156,-2.52871 -0.4064,-1.2192 -1.2192,-2.12231 -0.76765,-0.94827 -1.94169,-1.49014 -1.12889,-0.54187 -2.61903,-0.54187 -0.90311,0 -1.39982,0.0452 -0.45156,0.0452 -0.67733,0.27093 -0.22578,0.22578 -0.27094,0.67734 -0.0452,0.45155 -0.0452,1.2192 z m -5.23805,-6.5024 q 0,-1.6256 -0.0452,-2.57387 -0.0452,-0.99343 -0.27093,-1.49014 -0.18063,-0.54186 -0.63218,-0.72249 -0.4064,-0.22577 -1.2192,-0.31609 l -1.17405,-0.13546 q -0.22578,-0.22578 -0.22578,-0.63218 0,-0.45156 0.27094,-0.63218 2.16747,-0.22578 4.8768,-0.31609 2.70934,-0.0903 5.50899,-0.0903 2.66418,0 4.8768,0.36124 2.21263,0.36125 3.70276,1.17405 1.71591,0.90311 2.8448,2.52871 1.12889,1.62561 1.12889,4.06401 0,1.58044 -0.54186,2.75449 -0.54187,1.17405 -1.35467,2.032 -0.8128,0.85796 -1.76107,1.44498 -0.94827,0.58702 -1.76107,0.90311 -0.22578,0.0903 -0.18062,0.31609 0.0452,0.22578 0.18062,0.45156 2.70934,4.60587 4.56072,7.49583 1.85138,2.88996 3.43182,4.19947 0.94827,0.8128 1.80623,1.08373 0.90311,0.27094 1.30951,0.31609 0.18062,0.13547 0.18062,0.45156 0,0.27093 -0.0903,0.45155 -0.4064,0.0903 -1.12889,0.18063 -0.67733,0.0903 -1.85138,0.0903 -1.6256,0 -2.93511,-0.36125 -1.26436,-0.31609 -2.39325,-1.03858 -1.08374,-0.72248 -2.07716,-1.85137 -0.99342,-1.12889 -2.032,-2.70934 -0.90311,-1.44498 -1.85138,-3.11574 -0.90311,-1.71591 -1.71591,-3.02542 -0.63218,-0.99343 -1.17405,-1.26436 -0.49671,-0.27093 -1.6256,-0.27093 -1.03858,0 -1.2192,0.13546 -0.18062,0.13547 -0.18062,0.85796 v 5.77992 q 0,1.80622 0.0903,2.79964 0.0903,0.99343 0.36124,1.49014 0.27094,0.49671 0.76765,0.67733 0.49671,0.13547 1.30951,0.22578 l 0.99342,0.13547 q 0.22578,0.22578 0.18063,0.72249 0,0.45155 -0.27094,0.58702 -2.98027,-0.13547 -6.00569,-0.13547 -2.98027,0 -6.09601,0.13547 -0.27093,-0.13547 -0.36124,-0.58702 -0.0452,-0.49671 0.27093,-0.72249 l 0.99342,-0.13547 q 0.8128,-0.0903 1.30951,-0.22578 0.49672,-0.18062 0.76765,-0.67733 0.27093,-0.49671 0.36125,-1.49014 0.0903,-0.99342 0.0903,-2.79964 z m -23.79383,-5.68961 q -1.71591,0 -3.38667,0.67734 -1.67075,0.63217 -3.02542,2.16746 -1.35467,1.53529 -2.21263,4.01885 -0.8128,2.43841 -0.8128,6.05085 0,2.34809 0.54187,4.96712 0.54187,2.57387 1.76107,4.74134 1.2192,2.16747 3.20605,3.61245 1.98684,1.39982 4.8768,1.39982 1.94169,0 3.61245,-0.72249 1.71591,-0.76765 2.98027,-2.30294 1.26436,-1.58044 1.98685,-4.01884 0.72249,-2.48356 0.72249,-5.87023 0,-2.57387 -0.58703,-5.1929 -0.58702,-2.61902 -1.85138,-4.74134 -1.26435,-2.12231 -3.20604,-3.43182 -1.89654,-1.35467 -4.60588,-1.35467 z m 0.58703,-1.80622 q 3.92853,0 6.86365,1.30951 2.98027,1.30951 4.96711,3.47698 1.98685,2.16747 2.98027,5.01227 0.99343,2.84481 0.99343,5.91539 0,3.34151 -1.2192,6.18631 -1.17405,2.84481 -3.29636,4.92196 -2.12232,2.07716 -5.05743,3.25121 -2.88996,1.17404 -6.32178,1.17404 -3.83823,0 -6.8185,-1.2192 -2.98027,-1.26435 -5.05743,-3.34151 -2.032,-2.12232 -3.11573,-4.87681 -1.08374,-2.75449 -1.08374,-5.77991 0,-3.43183 1.17405,-6.36694 1.2192,-2.98027 3.34151,-5.10259 2.16747,-2.12231 5.10258,-3.34151 2.98027,-1.2192 6.54757,-1.2192 z m -23.20684,22.84873 q 0,0.49671 0,1.67076 0,1.17404 0,2.4384 0.0452,1.26436 0.0452,2.34809 0.0452,1.08374 0.0903,1.49014 -0.27093,0.36124 -0.72249,0.49671 -0.4064,0.18062 -0.8128,0.13547 -0.27093,-0.36125 -0.67733,-0.85796 -0.40641,-0.49671 -1.03858,-1.2192 -0.58703,-0.72249 -1.49014,-1.71591 -0.85795,-0.99343 -2.07716,-2.39325 L 96.819743,134.20439 q -2.212624,-2.48356 -3.38667,-3.83822 -1.174046,-1.35467 -1.761068,-1.85138 -0.09031,0 -0.135467,0.54186 0,0.54187 0,2.3481 v 8.80534 q 0,1.26435 0,2.61902 0.04516,1.35467 0.09031,2.57387 0.09031,1.2192 0.270934,2.21263 0.180622,0.99342 0.451556,1.49013 0.316089,0.49671 0.857956,0.76765 0.587023,0.22577 1.444979,0.36124 l 0.993423,0.13547 q 0.31609,0.22578 0.270934,0.72249 0,0.49671 -0.361245,0.58702 -2.528713,-0.13547 -5.147738,-0.13547 -1.44498,0 -2.483558,0 -1.038579,0.0452 -2.212625,0.13547 -0.270933,-0.18062 -0.316089,-0.63218 -0.04516,-0.45155 0.225778,-0.67733 l 0.993423,-0.22578 q 0.632179,-0.0903 1.174046,-0.27093 0.587023,-0.22578 0.812801,-0.76765 0.225778,-0.54187 0.316089,-1.49013 0.135467,-0.94827 0.180622,-2.12232 0.09031,-1.2192 0.09031,-2.57387 0,-1.35466 0,-2.70933 v -10.70188 q 0,-1.30951 -0.04515,-2.16747 0,-0.85796 -0.135467,-1.44498 -0.135467,-0.58702 -0.451556,-0.99342 -0.270934,-0.45156 -0.857956,-0.94827 -0.361245,-0.31609 -1.12889,-0.54187 -0.767646,-0.27093 -1.264357,-0.36124 l -0.677334,-0.13547 q -0.225778,-0.22578 -0.225778,-0.72249 0.04515,-0.49671 0.4064,-0.58702 0.632179,0.0903 1.399824,0.13547 0.767645,0 1.490135,0 0.722489,0 1.354668,0 0.677334,0 1.083734,0 1.490135,0 3.115737,-0.13547 0.270933,0.72249 1.219201,2.032 0.948267,1.30951 2.077158,2.75449 1.174045,1.39983 2.25778,2.66418 1.12889,1.26436 1.715907,1.89654 l 4.51556,4.8768 q 0.72249,0.76765 1.76107,1.9417 1.03858,1.17404 2.032,2.30293 1.03858,1.12889 1.80623,1.98685 0.76764,0.8128 0.94826,0.90311 0.0903,-0.0903 0.0903,-0.31609 0.0452,-0.22578 0.0452,-0.76765 v -8.80534 q 0,-1.26435 -0.0452,-2.61902 0,-1.35467 -0.0903,-2.57387 -0.0903,-1.2192 -0.27093,-2.21263 -0.13547,-0.99342 -0.45155,-1.49013 -0.31609,-0.49671 -0.85796,-0.72249 -0.54187,-0.27093 -1.39982,-0.4064 l -1.03858,-0.13547 q -0.31609,-0.22578 -0.31609,-0.72249 0.0451,-0.49671 0.4064,-0.58702 2.61902,0.13547 5.19289,0.13547 1.44498,0 2.48356,0 1.03858,-0.0452 2.25778,-0.13547 0.27093,0.18062 0.31609,0.63218 0.0452,0.45155 -0.22578,0.67733 l -1.03858,0.22578 q -0.63218,0.0903 -1.17404,0.31609 -0.54187,0.18062 -0.76765,0.72249 -0.22578,0.54187 -0.36124,1.49013 -0.13547,0.94827 -0.22578,2.16747 -0.0452,1.17405 -0.0452,2.52872 0,1.35466 0,2.70933 z m -48.6294,-21.04251 q -1.715913,0 -3.38667,0.67734 -1.670757,0.63217 -3.025425,2.16746 -1.354668,1.53529 -2.212625,4.01885 -0.812801,2.43841 -0.812801,6.05085 0,2.34809 0.541868,4.96712 0.541867,2.57387 1.761068,4.74134 1.219201,2.16747 3.206048,3.61245 1.986846,1.39982 4.876805,1.39982 1.941691,0 3.612448,-0.72249 1.715913,-0.76765 2.98027,-2.30294 1.264356,-1.58044 1.986846,-4.01884 0.72249,-2.48356 0.72249,-5.87023 0,-2.57387 -0.587023,-5.1929 -0.587023,-2.61902 -1.85138,-4.74134 -1.264357,-2.12231 -3.206047,-3.43182 -1.896536,-1.35467 -4.605872,-1.35467 z m 0.587023,-1.80622 q 3.928537,0 6.863651,1.30951 2.98027,1.30951 4.967117,3.47698 1.986846,2.16747 2.980269,5.01227 0.993424,2.84481 0.993424,5.91539 0,3.34151 -1.219202,6.18631 -1.174045,2.84481 -3.296359,4.92196 -2.122313,2.07716 -5.057427,3.25121 -2.889958,1.17404 -6.321784,1.17404 -3.838226,0 -6.818496,-1.2192 -2.98027,-1.26435 -5.057427,-3.34151 -2.032002,-2.12232 -3.115737,-4.87681 -1.083734,-2.75449 -1.083734,-5.77991 0,-3.43183 1.174045,-6.36694 1.219202,-2.98027 3.341515,-5.10259 2.167469,-2.12231 5.102583,-3.34151 2.980269,-1.2192 6.547562,-1.2192 z m -41.678631,16.07539 q -0.857956,0 -1.354668,0.0452 -0.496711,0 -0.722489,0.13546 -0.225778,0.13547 -0.31609,0.4064 -0.04515,0.27094 -0.04515,0.72249 v 6.63788 q 0,1.80622 0.09031,2.79964 0.09031,0.99343 0.361245,1.49014 0.270933,0.49671 0.767645,0.63218 0.496712,0.13546 1.309513,0.22578 l 1.354668,0.18062 q 0.225778,0.22578 0.180622,0.72249 0,0.45155 -0.270934,0.58702 -1.761068,-0.0903 -3.341514,-0.13547 -1.535291,0 -3.025425,0 -1.490135,0 -2.98027,0 -1.444979,0.0452 -2.754492,0.13547 -0.270933,-0.13547 -0.316089,-0.58702 0,-0.49671 0.225778,-0.72249 l 0.632178,-0.0903 q 0.812801,-0.13547 1.309513,-0.27094 0.496711,-0.18062 0.767645,-0.67733 0.270934,-0.49671 0.361245,-1.49014 0.09031,-0.99342 0.09031,-2.79964 V 128.2439 q 0,-1.80622 -0.09031,-2.79964 -0.09031,-0.99343 -0.361245,-1.49014 -0.270934,-0.49671 -0.767645,-0.63218 -0.496712,-0.18062 -1.309513,-0.27093 l -0.993423,-0.13547 q -0.225778,-0.18062 -0.225778,-0.67733 0.04516,-0.49671 0.316089,-0.63218 1.490135,0.0903 3.025426,0.13547 1.580446,0 3.070581,0 1.490134,0 2.980269,0 1.490135,-0.0452 2.799648,-0.13547 0.270933,0.13547 0.270933,0.63218 0.04516,0.49671 -0.180622,0.67733 l -0.767645,0.13547 q -0.812801,0.0903 -1.309513,0.27093 -0.496712,0.13547 -0.767645,0.63218 -0.270934,0.49671 -0.361245,1.49014 -0.09031,0.99342 -0.09031,2.79964 v 5.46383 q 0,0.49671 0.04515,0.76765 0.09031,0.27093 0.31609,0.4064 0.225778,0.13546 0.722489,0.18062 0.496712,0 1.354668,0 h 10.566411 q 0.857956,0 1.354668,0 0.496712,-0.0452 0.72249,-0.18062 0.225778,-0.13547 0.270933,-0.4064 0.09031,-0.27094 0.09031,-0.76765 v -5.46383 q 0,-1.80622 -0.09031,-2.79964 -0.09031,-0.99343 -0.361244,-1.49014 -0.270934,-0.49671 -0.767646,-0.63218 -0.496711,-0.18062 -1.309512,-0.27093 l -0.993423,-0.13547 q -0.225778,-0.18062 -0.225778,-0.67733 0.04516,-0.49671 0.316089,-0.63218 3.115736,0.13547 6.096006,0.13547 1.490135,0 2.98027,0 1.490135,-0.0452 2.844803,-0.13547 0.270933,0.13547 0.270933,0.63218 0.04516,0.49671 -0.180622,0.67733 l -0.812801,0.13547 q -0.812801,0.0903 -1.309512,0.27093 -0.496712,0.13547 -0.767646,0.63218 -0.270933,0.49671 -0.361244,1.49014 -0.09031,0.99342 -0.09031,2.79964 v 16.79789 q 0,1.80622 0.09031,2.79964 0.09031,0.99343 0.361244,1.49014 0.270934,0.49671 0.767646,0.67733 0.496711,0.13547 1.309512,0.22578 l 0.993423,0.13547 q 0.225778,0.22578 0.180623,0.72249 0,0.45155 -0.270934,0.58702 -2.98027,-0.13547 -6.005695,-0.13547 -3.115736,0 -6.096006,0.13547 -0.270934,-0.13547 -0.316089,-0.58702 0,-0.49671 0.225778,-0.72249 l 0.993423,-0.13547 q 0.812801,-0.0903 1.309512,-0.22578 0.496712,-0.18062 0.767646,-0.67733 0.270933,-0.49671 0.361244,-1.49014 0.09031,-0.99342 0.09031,-2.79964 v -6.63788 q 0,-0.45155 -0.09031,-0.72249 -0.04515,-0.27093 -0.270933,-0.4064 -0.225778,-0.13546 -0.72249,-0.13546 -0.496712,-0.0452 -1.354668,-0.0452 z m 143.299698,21.82978 q 0,-0.61242 -0.079,-0.73095 -0.079,-0.13829 -0.45438,-0.13829 h -1.10631 q -0.69144,0 -1.14582,0.0593 -0.45438,0.0593 -0.80998,0.25683 -0.33585,0.1778 -0.59267,0.55315 -0.25682,0.35561 -0.5334,0.94827 -0.0988,0.0988 -0.33585,0.0593 -0.23706,-0.0395 -0.29633,-0.19756 0.25682,-0.79022 0.45438,-1.61996 0.21731,-0.84949 0.31609,-1.36313 0.0593,-0.079 0.21731,-0.079 0.13829,0 0.19755,0.079 0.0395,0.1778 0.11854,0.29633 0.079,0.0988 0.25682,0.15805 0.19756,0.0395 0.51365,0.0593 0.31609,0 0.82973,0 h 8.06029 q 0.73095,0 1.02729,-0.079 0.29633,-0.0988 0.47413,-0.43462 0.15805,-0.079 0.23707,-0.079 0.19756,0 0.25682,0.0988 -0.079,0.29634 -0.13829,0.75072 -0.0593,0.43462 -0.11853,0.889 -0.0395,0.45438 -0.0593,0.86925 0,0.39511 0.0198,0.63217 -0.079,0.11854 -0.27658,0.13829 -0.19756,0.0198 -0.33585,-0.079 -0.0988,-0.57291 -0.23706,-0.94827 -0.13829,-0.37535 -0.43463,-0.59267 -0.29633,-0.21731 -0.79022,-0.29633 -0.49389,-0.079 -1.28411,-0.079 h -1.12607 q -0.19756,0 -0.31609,0.0197 -0.0988,0.0198 -0.15805,0.11854 -0.0395,0.079 -0.0593,0.25682 0,0.15804 0,0.47413 v 8.53442 q 0,0.79023 0.0395,1.22485 0.0395,0.43462 0.15804,0.65194 0.11854,0.21731 0.33585,0.27657 0.21731,0.0593 0.57291,0.0988 l 0.7112,0.079 q 0.0988,0.0988 0.079,0.31609 0,0.19756 -0.11853,0.25683 -0.86925,-0.0395 -1.56069,-0.0593 -0.69145,0 -1.34338,0 -0.65194,0 -1.3829,0 -0.73095,0.0198 -1.67922,0.0593 -0.11854,-0.0593 -0.13829,-0.27658 0,-0.21731 0.0988,-0.29634 l 0.82973,-0.0988 q 0.3556,-0.0198 0.57291,-0.079 0.21732,-0.0593 0.33585,-0.27657 0.11853,-0.21732 0.15804,-0.65194 0.0395,-0.43462 0.0395,-1.22485 z m -9.68187,8.11956 q 0,0.75071 0.0593,1.26435 0.0593,0.51365 0.27657,0.77047 0.079,0.0988 0.19756,0.1778 0.13829,0.079 0.3556,0.13829 0.23707,0.0593 0.61242,0.0988 0.37536,0.0198 0.96803,0.0198 0.82973,0 1.32362,-0.0395 0.51365,-0.0593 0.86925,-0.25682 0.3556,-0.21731 0.61242,-0.63218 0.27658,-0.43462 0.61243,-1.20509 0.15804,-0.079 0.33584,-0.0395 0.19756,0.0395 0.27658,0.15804 -0.0593,0.31609 -0.1778,0.73096 -0.0988,0.39511 -0.21731,0.80998 -0.11853,0.41487 -0.23707,0.77047 -0.11853,0.3556 -0.19755,0.55316 -0.63218,-0.0395 -1.85703,-0.0593 -1.20509,0 -2.88432,0 h -2.05458 q -0.75071,0 -1.48167,0 -0.7112,0.0198 -1.34338,0.0593 -0.11853,-0.0593 -0.15805,-0.27658 -0.0198,-0.21731 0.11854,-0.29634 l 0.59267,-0.0988 q 0.3556,-0.0395 0.57291,-0.0988 0.21731,-0.079 0.33584,-0.29634 0.11854,-0.21731 0.15805,-0.63217 0.0395,-0.43463 0.0395,-1.2051 v -7.34908 q 0,-0.77047 -0.0395,-1.18534 -0.0395,-0.43462 -0.15805,-0.65193 -0.11853,-0.21731 -0.33584,-0.27658 -0.21731,-0.079 -0.57291,-0.13829 l -0.55316,-0.079 q -0.0988,-0.079 -0.0988,-0.29633 0,-0.21732 0.13829,-0.27658 0.75071,0.0395 1.4224,0.0593 0.67169,0 1.36314,0 1.32362,0 2.62749,-0.0593 0.13829,0.0593 0.13829,0.27658 0.0198,0.21731 -0.0988,0.29633 l -0.43463,0.079 q -0.3556,0.0593 -0.57291,0.13829 -0.21731,0.0593 -0.33585,0.27658 -0.11853,0.21731 -0.15804,0.65193 -0.0395,0.41487 -0.0395,1.18534 z m -17.03956,-6.93422 q 0,-0.79022 -0.0395,-1.22485 -0.0395,-0.43462 -0.15804,-0.65193 -0.11854,-0.21731 -0.33585,-0.27658 -0.21731,-0.079 -0.57291,-0.13829 l -0.33584,-0.0593 q -0.0988,-0.0988 -0.0988,-0.29633 0.0197,-0.19756 0.13829,-0.25682 0.59266,0.0395 1.2446,0.0593 0.65193,0 1.30387,0 1.34338,0 2.64725,-0.0593 0.11853,0.0593 0.11853,0.25682 0.0198,0.19756 -0.079,0.29633 l -0.43462,0.0593 q -0.3556,0.0593 -0.57292,0.13829 -0.21731,0.0593 -0.33584,0.27658 -0.11853,0.21731 -0.15805,0.65193 -0.0395,0.43463 -0.0395,1.22485 v 4.52403 q 0,1.02729 0.15805,1.93605 0.1778,0.90876 0.59267,1.60021 0.41486,0.67169 1.10631,1.08655 0.69145,0.39512 1.71874,0.39512 0.96802,0 1.65947,-0.35561 0.69144,-0.3556 1.12607,-0.98778 0.45438,-0.65193 0.65193,-1.56069 0.21731,-0.92851 0.21731,-2.05458 v -2.46945 q 0,-0.55316 -0.0198,-1.14583 0,-0.61242 -0.0395,-1.14582 -0.0395,-0.5334 -0.11854,-0.94827 -0.0593,-0.43462 -0.19755,-0.65193 -0.13829,-0.21732 -0.37536,-0.33585 -0.23707,-0.11853 -0.61242,-0.1778 l -0.39512,-0.0593 q -0.13828,-0.0988 -0.13828,-0.29633 0.0197,-0.21731 0.1778,-0.25682 1.00753,0.0593 2.19287,0.0593 0.63218,0 1.08656,0 0.45437,-0.0197 1.00753,-0.0593 0.11853,0.079 0.13829,0.27658 0.0198,0.1778 -0.0988,0.27657 l -0.43462,0.0988 q -0.27658,0.0593 -0.5334,0.15805 -0.23707,0.079 -0.33585,0.31609 -0.0988,0.21731 -0.15804,0.63218 -0.0593,0.41486 -0.0988,0.94826 -0.0198,0.53341 -0.0198,1.12607 0,0.59267 0,1.18534 v 2.35092 q 0,1.36313 -0.27657,2.54847 -0.25683,1.18533 -1.0273,2.01507 -0.77046,0.82973 -1.81751,1.16558 -1.02729,0.31609 -2.05458,0.31609 -1.40265,0 -2.39043,-0.31609 -0.98778,-0.29633 -1.67923,-0.94827 -1.30387,-1.2446 -1.30387,-4.2277 z m -6.64053,4.46477 q 0.41487,0 0.49389,-0.079 0.0988,-0.079 -0.0197,-0.43462 l -0.82974,-2.37067 q -0.25682,-0.79023 -0.37535,-1.12607 -0.0988,-0.33585 -0.1778,-0.43462 h -0.0395 q -0.0593,0.0988 -0.19755,0.49389 -0.11854,0.37535 -0.39511,1.0668 l -0.82974,2.3114 q -0.15804,0.43463 -0.0988,0.51365 0.0593,0.0593 0.41487,0.0593 z m -2.37067,0.889 q -0.19756,0 -0.29633,0.0197 -0.0988,0 -0.15805,0.0593 -0.0593,0.0395 -0.11853,0.15805 -0.0395,0.0988 -0.0988,0.29633 l -0.80998,2.37067 q -0.15804,0.43462 -0.21731,0.69145 -0.0395,0.23706 0,0.37535 0.0395,0.11854 0.19756,0.1778 0.15804,0.0395 0.43462,0.079 l 0.57291,0.0988 q 0.0988,0.0988 0.079,0.31609 0,0.19756 -0.11853,0.25683 -0.47413,-0.0395 -0.98778,-0.0395 -0.49389,0 -1.10631,-0.0198 -0.92852,0 -1.95581,0.0593 -0.0988,-0.079 -0.0988,-0.25683 -0.0198,-0.1778 0.079,-0.31609 l 0.59266,-0.0988 q 0.43463,-0.0593 0.65194,-0.23707 0.21731,-0.1778 0.43462,-0.67169 0.1778,-0.39511 0.41487,-0.98778 0.23707,-0.61242 0.55316,-1.4224 l 2.70651,-7.033 q 0.19756,-0.47413 0.29634,-0.82973 0.11853,-0.3556 0.079,-0.61243 0.25682,-0.0593 0.49389,-0.19755 0.25682,-0.15805 0.43462,-0.31609 0.19756,-0.1778 0.31609,-0.29634 0.11854,-0.13829 0.13829,-0.13829 0.21731,0 0.33585,0.15805 0.23706,0.67169 0.43462,1.36314 0.21731,0.67169 0.45438,1.34338 l 2.84481,8.27759 q 0.1778,0.49389 0.29633,0.79023 0.11853,0.29633 0.27658,0.47413 0.15804,0.15805 0.37535,0.23707 0.23707,0.079 0.61243,0.13829 l 0.29633,0.0593 q 0.11854,0.0988 0.11854,0.29634 0,0.19755 -0.0988,0.27658 -0.61243,-0.0395 -1.20509,-0.0593 -0.59267,0 -1.36314,0 -0.63218,0 -1.26436,0.0198 -0.63218,0.0198 -1.14582,0.0395 -0.11854,-0.079 -0.13829,-0.27658 -0.0198,-0.19756 0.079,-0.29634 l 0.43462,-0.0593 q 0.5334,-0.0593 0.61243,-0.23707 0.0988,-0.1778 -0.0988,-0.80998 l -0.92851,-2.68676 q -0.079,-0.19756 -0.13829,-0.29633 -0.0593,-0.11854 -0.13829,-0.15805 -0.079,-0.0593 -0.21731,-0.0593 -0.11854,-0.0197 -0.31609,-0.0197 z m -9.43364,5.15621 q -0.69145,0 -1.22485,-0.0988 -0.5334,-0.0988 -0.92851,-0.21731 -0.39512,-0.13829 -0.67169,-0.27658 -0.27658,-0.13829 -0.41487,-0.23707 -0.13829,-0.15804 -0.25682,-0.47413 -0.0988,-0.31609 -0.17781,-0.7112 -0.079,-0.41487 -0.11853,-0.889 -0.0395,-0.47414 -0.0395,-0.92852 0.0988,-0.15804 0.29633,-0.15804 0.19756,-0.0198 0.31609,0.079 0.13829,0.37536 0.39512,0.90876 0.27657,0.5334 0.69144,1.02729 0.41487,0.49389 0.96803,0.84949 0.57291,0.33585 1.30387,0.33585 1.12606,0 1.73849,-0.59267 0.61242,-0.61243 0.61242,-1.52118 0,-0.84949 -0.45438,-1.54094 -0.43462,-0.69145 -1.56069,-1.32363 l -0.84949,-0.47413 q -0.55316,-0.31609 -1.0668,-0.69145 -0.49389,-0.39511 -0.889,-0.84949 -0.37536,-0.47413 -0.61243,-1.02729 -0.21731,-0.57291 -0.21731,-1.2446 0,-0.73096 0.27658,-1.38289 0.27658,-0.67169 0.80998,-1.16558 0.55316,-0.49389 1.36313,-0.77047 0.80998,-0.29634 1.89654,-0.29634 0.77047,0 1.38289,0.13829 0.63218,0.13829 1.32363,0.27658 0.079,0.15805 0.15804,0.47414 0.079,0.29633 0.13829,0.67169 0.0593,0.37535 0.079,0.77047 0.0395,0.39511 0.0395,0.75071 -0.079,0.13829 -0.29634,0.15804 -0.19755,0 -0.33584,-0.0988 -0.11854,-0.37535 -0.31609,-0.79022 -0.1778,-0.43462 -0.49389,-0.77047 -0.31609,-0.33584 -0.77047,-0.55315 -0.45438,-0.23707 -1.08656,-0.23707 -0.59267,0 -1.02729,0.1778 -0.41487,0.1778 -0.69145,0.47413 -0.25682,0.27658 -0.39511,0.65194 -0.11853,0.37535 -0.11853,0.77047 0,0.63218 0.43462,1.26435 0.45438,0.63218 1.44216,1.14583 l 1.22485,0.65193 q 0.47413,0.25683 0.94827,0.61243 0.49389,0.3556 0.86924,0.84949 0.39512,0.47413 0.63218,1.08656 0.25683,0.59266 0.25683,1.34338 0,0.84949 -0.31609,1.56069 -0.31609,0.69145 -0.90876,1.20509 -0.59267,0.51365 -1.44216,0.79023 -0.84949,0.29633 -1.91629,0.29633 z m -9.88803,0 q -0.69144,0 -1.22484,-0.0988 -0.53341,-0.0988 -0.92852,-0.21731 -0.39511,-0.13829 -0.67169,-0.27658 -0.27658,-0.13829 -0.41487,-0.23707 -0.13828,-0.15804 -0.25682,-0.47413 -0.0988,-0.31609 -0.1778,-0.7112 -0.079,-0.41487 -0.11853,-0.889 -0.0395,-0.47414 -0.0395,-0.92852 0.0988,-0.15804 0.29633,-0.15804 0.19756,-0.0198 0.31609,0.079 0.13829,0.37536 0.39511,0.90876 0.27658,0.5334 0.69145,1.02729 0.41487,0.49389 0.96802,0.84949 0.57291,0.33585 1.30387,0.33585 1.12607,0 1.73849,-0.59267 0.61243,-0.61243 0.61243,-1.52118 0,-0.84949 -0.45438,-1.54094 -0.43462,-0.69145 -1.56069,-1.32363 l -0.84949,-0.47413 q -0.55316,-0.31609 -1.06681,-0.69145 -0.49389,-0.39511 -0.889,-0.84949 -0.37535,-0.47413 -0.61242,-1.02729 -0.21731,-0.57291 -0.21731,-1.2446 0,-0.73096 0.27658,-1.38289 0.27657,-0.67169 0.80997,-1.16558 0.55316,-0.49389 1.36314,-0.77047 0.80998,-0.29634 1.89654,-0.29634 0.77047,0 1.38289,0.13829 0.63218,0.13829 1.32363,0.27658 0.079,0.15805 0.15804,0.47414 0.079,0.29633 0.13829,0.67169 0.0593,0.37535 0.079,0.77047 0.0395,0.39511 0.0395,0.75071 -0.079,0.13829 -0.29633,0.15804 -0.19756,0 -0.33585,-0.0988 -0.11853,-0.37535 -0.31609,-0.79022 -0.1778,-0.43462 -0.49389,-0.77047 -0.31608,-0.33584 -0.77046,-0.55315 -0.45438,-0.23707 -1.08656,-0.23707 -0.59267,0 -1.02729,0.1778 -0.41487,0.1778 -0.69145,0.47413 -0.25682,0.27658 -0.39511,0.65194 -0.11853,0.37535 -0.11853,0.77047 0,0.63218 0.43462,1.26435 0.45438,0.63218 1.44216,1.14583 l 1.22484,0.65193 q 0.47414,0.25683 0.94827,0.61243 0.49389,0.3556 0.86925,0.84949 0.39511,0.47413 0.63218,1.08656 0.25682,0.59266 0.25682,1.34338 0,0.84949 -0.31609,1.56069 -0.31609,0.69145 -0.90876,1.20509 -0.59266,0.51365 -1.44215,0.79023 -0.84949,0.29633 -1.9163,0.29633 z m -10.40169,-6.04521 q 0.41487,0 0.49389,-0.079 0.0988,-0.079 -0.0198,-0.43462 l -0.82973,-2.37067 q -0.25682,-0.79023 -0.37536,-1.12607 -0.0988,-0.33585 -0.1778,-0.43462 h -0.0395 q -0.0593,0.0988 -0.19755,0.49389 -0.11854,0.37535 -0.39512,1.0668 l -0.829731,2.3114 q -0.158045,0.43463 -0.09878,0.51365 0.05927,0.0593 0.414871,0.0593 z m -2.370671,0.889 q -0.197556,0 -0.296334,0.0197 -0.09878,0 -0.158045,0.0593 -0.05927,0.0395 -0.118534,0.15805 -0.03951,0.0988 -0.09878,0.29633 l -0.809979,2.37067 q -0.158045,0.43462 -0.217312,0.69145 -0.03951,0.23706 0,0.37535 0.03951,0.11854 0.197556,0.1778 0.158045,0.0395 0.434623,0.079 l 0.572913,0.0988 q 0.09878,0.0988 0.07902,0.31609 0,0.19756 -0.118534,0.25683 -0.474134,-0.0395 -0.98778,-0.0395 -0.49389,0 -1.106313,-0.0198 -0.928513,0 -1.955805,0.0593 -0.09878,-0.079 -0.09878,-0.25683 -0.01976,-0.1778 0.07902,-0.31609 l 0.592668,-0.0988 q 0.434623,-0.0593 0.651935,-0.23707 0.217311,-0.1778 0.434623,-0.67169 0.1778,-0.39511 0.414867,-0.98778 0.237068,-0.61242 0.553157,-1.4224 l 2.706515,-7.033 q 0.19756,-0.47413 0.29634,-0.82973 0.11853,-0.3556 0.079,-0.61243 0.25682,-0.0593 0.49389,-0.19755 0.25682,-0.15805 0.43462,-0.31609 0.19756,-0.1778 0.31609,-0.29634 0.11853,-0.13829 0.13829,-0.13829 0.21731,0 0.33584,0.15805 0.23707,0.67169 0.43463,1.36314 0.21731,0.67169 0.45438,1.34338 l 2.8448,8.27759 q 0.1778,0.49389 0.29634,0.79023 0.11853,0.29633 0.27658,0.47413 0.15804,0.15805 0.37535,0.23707 0.23707,0.079 0.61243,0.13829 l 0.29633,0.0593 q 0.11853,0.0988 0.11853,0.29634 0,0.19755 -0.0988,0.27658 -0.61243,-0.0395 -1.2051,-0.0593 -0.59266,0 -1.36313,0 -0.63218,0 -1.26436,0.0198 -0.63218,0.0198 -1.14583,0.0395 -0.11853,-0.079 -0.13829,-0.27658 -0.0197,-0.19756 0.079,-0.29634 l 0.43462,-0.0593 q 0.5334,-0.0593 0.61242,-0.23707 0.0988,-0.1778 -0.0988,-0.80998 l -0.92852,-2.68676 q -0.079,-0.19756 -0.13829,-0.29633 -0.0593,-0.11854 -0.13829,-0.15805 -0.079,-0.0593 -0.21731,-0.0593 -0.11853,-0.0197 -0.31609,-0.0197 z m -19.855077,1.22485 q 0,0.7112 0.03951,1.26435 0.05927,0.55316 0.276578,0.92852 0.237067,0.37535 0.67169,0.57291 0.454379,0.1778 1.244603,0.1778 1.323625,0 2.271894,-0.43462 0.968025,-0.45438 1.580448,-1.22485 0.632179,-0.79022 0.928513,-1.85703 0.31609,-1.0668 0.31609,-2.3114 0,-1.46192 -0.414868,-2.54847 -0.395112,-1.10632 -1.145824,-1.81752 -0.730958,-0.73096 -1.758249,-1.08656 -1.007535,-0.3556 -2.252138,-0.3556 -0.632179,0 -1.066803,0.0988 -0.434623,0.079 -0.533401,0.1778 -0.09878,0.0988 -0.138289,0.43462 -0.01976,0.33585 -0.01976,1.02729 z M 77.674483,160.228 q 0,-0.7112 -0.01976,-1.12607 -0.01975,-0.43462 -0.118533,-0.67169 -0.07902,-0.23706 -0.276579,-0.31609 -0.1778,-0.0988 -0.533401,-0.13828 l -0.414868,-0.0395 q -0.09878,-0.079 -0.09878,-0.27657 0,-0.19756 0.118534,-0.27658 1.066802,-0.0988 2.271894,-0.13829 1.205092,-0.0395 2.667006,-0.0395 1.402648,0 2.489206,0.15804 1.086558,0.13829 2.173116,0.51365 0.889002,0.33584 1.619959,0.889 0.750713,0.5334 1.284114,1.28411 0.553157,0.75072 0.849491,1.69899 0.296334,0.92851 0.296334,2.03482 0,0.82974 -0.217312,1.63972 -0.197556,0.80998 -0.632179,1.56069 -0.434623,0.75071 -1.106314,1.38289 -0.67169,0.63218 -1.580448,1.10631 -1.066802,0.53341 -2.311405,0.75072 -1.224847,0.19755 -2.587984,0.19755 -0.908757,0 -1.619959,-0.0593 -0.691446,-0.0593 -1.244603,-0.0593 -0.572912,0 -1.224847,0 -0.632179,0.0198 -1.284114,0.0593 -0.118533,-0.0593 -0.138289,-0.25683 0,-0.21731 0.09878,-0.31609 l 0.434623,-0.0593 q 0.355601,-0.0395 0.572913,-0.0988 0.217311,-0.079 0.335845,-0.29633 0.118533,-0.21732 0.158045,-0.65194 0.03951,-0.43462 0.03951,-1.22485 z m -11.389454,-0.11853 q 0,-0.79022 -0.03951,-1.22485 -0.03951,-0.43462 -0.158045,-0.65193 -0.118534,-0.21731 -0.335845,-0.27658 -0.217312,-0.079 -0.572913,-0.13829 l -0.316089,-0.0395 q -0.09878,-0.0988 -0.09878,-0.29633 0.01976,-0.21732 0.138289,-0.27658 0.572912,0.0395 1.224847,0.0593 0.671691,0 1.323625,0 h 3.77332 q 0.948269,0 1.698982,0 0.770468,-0.0197 0.968024,-0.0593 0.01976,0.11853 0.05927,0.45438 0.03951,0.31609 0.07902,0.73095 0.03951,0.39512 0.07902,0.82974 0.05927,0.41487 0.09878,0.73096 -0.05927,0.11853 -0.296334,0.15804 -0.217312,0.0198 -0.335846,-0.079 -0.237067,-0.86925 -0.513645,-1.26436 -0.256823,-0.41487 -0.730957,-0.5334 -0.335846,-0.0988 -0.770469,-0.13829 -0.414867,-0.0395 -0.809979,-0.0395 h -1.323626 q -0.316089,0 -0.49389,0.0197 -0.1778,0.0198 -0.256822,0.13829 -0.07902,0.11854 -0.09878,0.3556 0,0.23707 0,0.65194 v 3.33869 q 0,0.39512 0.05927,0.47414 0.07902,0.0593 0.414868,0.0593 h 0.948269 q 0.651935,0 1.047047,-0.0198 0.395112,-0.0198 0.632179,-0.0988 0.237067,-0.079 0.335845,-0.25682 0.118534,-0.1778 0.1778,-0.49389 l 0.13829,-0.67169 q 0.118533,-0.0988 0.335845,-0.0988 0.217311,0 0.296334,0.11853 -0.01976,0.39512 -0.03951,0.90876 -0.01976,0.51365 -0.01976,1.0668 0,0.57292 0.01976,1.08656 0.01976,0.51365 0.03951,0.98778 -0.07902,0.0988 -0.296334,0.11854 -0.217312,0 -0.335845,-0.0988 l -0.13829,-0.79023 q -0.05927,-0.31609 -0.1778,-0.47413 -0.09878,-0.1778 -0.335845,-0.25682 -0.237067,-0.0988 -0.632179,-0.11854 -0.395112,-0.0197 -1.047047,-0.0197 h -0.948269 q -0.335845,0 -0.414868,0.079 -0.05927,0.079 -0.05927,0.45438 v 2.50896 q 0,0.75071 0.05927,1.28411 0.05927,0.51365 0.276579,0.77047 0.07902,0.0988 0.197556,0.1778 0.138289,0.079 0.375356,0.13829 0.256823,0.0593 0.632179,0.0988 0.395112,0.0198 1.027292,0.0198 0.948268,0.0198 1.521181,-0.079 0.592668,-0.11853 0.968024,-0.37535 0.395112,-0.25683 0.632179,-0.67169 0.256823,-0.41487 0.513646,-1.00754 0.138289,-0.0988 0.335845,-0.0593 0.197556,0.0198 0.296334,0.1778 -0.03951,0.31609 -0.138289,0.73096 -0.09878,0.39511 -0.217312,0.80998 -0.118533,0.41487 -0.256822,0.77047 -0.118534,0.3556 -0.217312,0.55316 -0.651935,-0.0395 -1.896538,-0.0593 -1.244602,0 -2.983095,0 H 67.45061 q -0.651934,0 -1.48167,0 -0.809979,0.0198 -1.48167,0.0593 -0.118533,-0.0593 -0.138289,-0.25683 0,-0.21731 0.09878,-0.31609 l 0.730957,-0.079 q 0.355601,-0.0395 0.572913,-0.0988 0.217311,-0.0593 0.335845,-0.27657 0.118534,-0.21732 0.158045,-0.65194 0.03951,-0.43462 0.03951,-1.22485 z m -4.633045,7.34908 q 0,0.79023 0.03951,1.22485 0.03951,0.43462 0.158044,0.65194 0.118534,0.21731 0.335846,0.29633 0.217311,0.0593 0.572912,0.0988 l 0.434623,0.0593 q 0.09878,0.0988 0.07902,0.31609 0,0.19756 -0.118534,0.25683 -1.30387,-0.0593 -2.627495,-0.0593 -0.651935,0 -1.343381,0 -0.67169,0.0198 -1.323625,0.0593 -0.118533,-0.0593 -0.138289,-0.25683 0,-0.21731 0.09878,-0.31609 l 0.434623,-0.0593 q 0.355601,-0.0395 0.572913,-0.0988 0.217311,-0.079 0.335845,-0.29633 0.118533,-0.21732 0.158045,-0.65194 0.03951,-0.43462 0.03951,-1.22485 v -7.34908 q 0,-0.79022 -0.03951,-1.22485 -0.03951,-0.43462 -0.158045,-0.65193 -0.118534,-0.21731 -0.335845,-0.27658 -0.217312,-0.079 -0.572913,-0.11853 l -0.434623,-0.0593 q -0.09878,-0.0988 -0.09878,-0.29633 0.01976,-0.21732 0.138289,-0.27658 1.30387,0.0593 2.667006,0.0593 1.323625,0 2.627495,-0.0593 0.118534,0.0593 0.118534,0.27658 0.01976,0.19755 -0.07902,0.29633 l -0.434623,0.0593 q -0.355601,0.0395 -0.572912,0.11853 -0.217312,0.0593 -0.335846,0.27658 -0.118533,0.21731 -0.158044,0.65193 -0.03951,0.43463 -0.03951,1.22485 z m -10.994333,-0.41486 q 0,0.75071 0.05927,1.26435 0.05927,0.51365 0.276578,0.77047 0.07902,0.0988 0.197556,0.1778 0.13829,0.079 0.355601,0.13829 0.237067,0.0593 0.612424,0.0988 0.375356,0.0198 0.968024,0.0198 0.829735,0 1.323625,-0.0395 0.513646,-0.0593 0.869247,-0.25682 0.355601,-0.21731 0.612423,-0.63218 0.276579,-0.43462 0.612424,-1.20509 0.158045,-0.079 0.335845,-0.0395 0.197556,0.0395 0.276579,0.15804 -0.05927,0.31609 -0.177801,0.73096 -0.09878,0.39511 -0.217311,0.80998 -0.118534,0.41487 -0.237068,0.77047 -0.118533,0.3556 -0.197556,0.55316 -0.632179,-0.0395 -1.857026,-0.0593 -1.205092,0 -2.884318,0 h -2.054582 q -0.750713,0 -1.48167,0 -0.711202,0.0198 -1.343381,0.0593 -0.118533,-0.0593 -0.158045,-0.27658 -0.01975,-0.21731 0.118534,-0.29634 l 0.592668,-0.0988 q 0.355601,-0.0395 0.572912,-0.0988 0.217312,-0.079 0.335846,-0.29634 0.118533,-0.21731 0.158044,-0.63217 0.03951,-0.43463 0.03951,-1.2051 v -7.34908 q 0,-0.77047 -0.03951,-1.18534 -0.03951,-0.43462 -0.158044,-0.65193 -0.118534,-0.21731 -0.335846,-0.27658 -0.217311,-0.079 -0.572912,-0.13829 l -0.553157,-0.079 q -0.09878,-0.079 -0.09878,-0.29633 0,-0.21732 0.138289,-0.27658 0.750713,0.0395 1.422404,0.0593 0.67169,0 1.363136,0 1.323625,0 2.627495,-0.0593 0.138289,0.0593 0.138289,0.27658 0.01976,0.21731 -0.09878,0.29633 l -0.434623,0.079 q -0.355601,0.0593 -0.572913,0.13829 -0.217311,0.0593 -0.335845,0.27658 -0.118533,0.21731 -0.158045,0.65193 -0.03951,0.41487 -0.03951,1.18534 z m -10.994333,0 q 0,0.75071 0.05927,1.26435 0.05927,0.51365 0.276578,0.77047 0.07902,0.0988 0.197556,0.1778 0.138289,0.079 0.355601,0.13829 0.237067,0.0593 0.612424,0.0988 0.375356,0.0198 0.968024,0.0198 0.829735,0 1.323625,-0.0395 0.513646,-0.0593 0.869247,-0.25682 0.3556,-0.21731 0.612423,-0.63218 0.276579,-0.43462 0.612424,-1.20509 0.158045,-0.079 0.335845,-0.0395 0.197556,0.0395 0.276578,0.15804 -0.05927,0.31609 -0.1778,0.73096 -0.09878,0.39511 -0.217312,0.80998 -0.118533,0.41487 -0.237067,0.77047 -0.118533,0.3556 -0.197556,0.55316 -0.632179,-0.0395 -1.857026,-0.0593 -1.205092,0 -2.884318,0 h -2.054582 q -0.750713,0 -1.48167,0 -0.711202,0.0198 -1.343381,0.0593 -0.118534,-0.0593 -0.158045,-0.27658 -0.01975,-0.21731 0.118534,-0.29634 l 0.592668,-0.0988 q 0.355601,-0.0395 0.572912,-0.0988 0.217312,-0.079 0.335845,-0.29634 0.118534,-0.21731 0.158045,-0.63217 0.03951,-0.43463 0.03951,-1.2051 v -7.34908 q 0,-0.77047 -0.03951,-1.18534 -0.03951,-0.43462 -0.158045,-0.65193 -0.118533,-0.21731 -0.335845,-0.27658 -0.217311,-0.079 -0.572912,-0.13829 l -0.553157,-0.079 q -0.09878,-0.079 -0.09878,-0.29633 0,-0.21732 0.138289,-0.27658 0.750713,0.0395 1.422403,0.0593 0.671691,0 1.363137,0 1.323625,0 2.627495,-0.0593 0.138289,0.0593 0.138289,0.27658 0.01976,0.21731 -0.09878,0.29633 l -0.434623,0.079 q -0.355601,0.0593 -0.572913,0.13829 -0.217311,0.0593 -0.335845,0.27658 -0.118534,0.21731 -0.158045,0.65193 -0.03951,0.41487 -0.03951,1.18534 z m -10.480715,-2.46945 q 0.414868,0 0.49389,-0.079 0.09878,-0.079 -0.01975,-0.43462 l -0.829736,-2.37067 q -0.256822,-0.79023 -0.375356,-1.12607 -0.09878,-0.33585 -0.1778,-0.43462 h -0.03951 q -0.05927,0.0988 -0.197556,0.49389 -0.118533,0.37535 -0.395112,1.0668 l -0.829735,2.3114 q -0.158045,0.43463 -0.09878,0.51365 0.05927,0.0593 0.414868,0.0593 z m -2.370672,0.889 q -0.197556,0 -0.296334,0.0197 -0.09878,0 -0.158045,0.0593 -0.05927,0.0395 -0.118533,0.15805 -0.03951,0.0988 -0.09878,0.29633 l -0.80998,2.37067 q -0.158045,0.43462 -0.217311,0.69145 -0.03951,0.23706 0,0.37535 0.03951,0.11854 0.197556,0.1778 0.158044,0.0395 0.434623,0.079 l 0.572912,0.0988 q 0.09878,0.0988 0.07902,0.31609 0,0.19756 -0.118534,0.25683 -0.474134,-0.0395 -0.98778,-0.0395 -0.49389,0 -1.106314,-0.0198 -0.928513,0 -1.955804,0.0593 -0.09878,-0.079 -0.09878,-0.25683 -0.01976,-0.1778 0.07902,-0.31609 l 0.592668,-0.0988 q 0.434624,-0.0593 0.651935,-0.23707 0.217312,-0.1778 0.434623,-0.67169 0.177801,-0.39511 0.414868,-0.98778 0.237067,-0.61242 0.553157,-1.4224 l 2.706517,-7.033 q 0.197556,-0.47413 0.296334,-0.82973 0.118534,-0.3556 0.07902,-0.61243 0.256823,-0.0593 0.49389,-0.19755 0.256823,-0.15805 0.434624,-0.31609 0.197556,-0.1778 0.316089,-0.29634 0.118534,-0.13829 0.138289,-0.13829 0.217312,0 0.335846,0.15805 0.237067,0.67169 0.434623,1.36314 0.217311,0.67169 0.454379,1.34338 l 2.844806,8.27759 q 0.1778,0.49389 0.296334,0.79023 0.118534,0.29633 0.276578,0.47413 0.158045,0.15805 0.375357,0.23707 0.237067,0.079 0.612423,0.13829 l 0.296334,0.0593 q 0.118534,0.0988 0.118534,0.29634 0,0.19755 -0.09878,0.27658 -0.612424,-0.0395 -1.205092,-0.0593 -0.592668,0 -1.363136,0 -0.632179,0 -1.264358,0.0198 -0.63218,0.0198 -1.145825,0.0395 -0.118534,-0.079 -0.138289,-0.27658 -0.01976,-0.19756 0.07902,-0.29634 l 0.434623,-0.0593 q 0.533401,-0.0593 0.612424,-0.23707 0.09878,-0.1778 -0.09878,-0.80998 l -0.928513,-2.68676 q -0.07902,-0.19756 -0.13829,-0.29633 -0.05927,-0.11854 -0.138289,-0.15805 -0.07902,-0.0593 -0.217311,-0.0593 -0.118534,-0.0197 -0.31609,-0.0197 z" /></g></svg>
