<?xml version="1.0" encoding="UTF-8" standalone="no"?>
<svg
   width="371"
   height="150"
   version="1.1"
   id="svg8"
   sodipodi:docname="msx1-w.svg"
   inkscape:version="1.1 (c68e22c387, 2021-05-23)"
   xmlns:inkscape="http://www.inkscape.org/namespaces/inkscape"
   xmlns:sodipodi="http://sodipodi.sourceforge.net/DTD/sodipodi-0.dtd"
   xmlns="http://www.w3.org/2000/svg"
   xmlns:svg="http://www.w3.org/2000/svg">
  <defs
     id="defs12" />
  <sodipodi:namedview
     id="namedview10"
     pagecolor="#ffffff"
     bordercolor="#666666"
     borderopacity="1.0"
     inkscape:pageshadow="2"
     inkscape:pageopacity="0.0"
     inkscape:pagecheckerboard="0"
     showgrid="false"
     inkscape:zoom="2.851752"
     inkscape:cx="185.32467"
     inkscape:cy="74.866258"
     inkscape:window-width="1920"
     inkscape:window-height="1017"
     inkscape:window-x="-8"
     inkscape:window-y="712"
     inkscape:window-maximized="1"
     inkscape:current-layer="svg8" />
  <g
     fill="none"
     fill-rule="evenodd"
     id="g6">
    <path
       fill="#6D7278"
       d="M.585.1h369.543v149.662H.585z"
       id="path2" />
    <path
       fill="#FFF"
       fill-rule="nonzero"
       d="m340.89 20.726-35.13 51.311L343.97 128.1h-35.287l-20.998-30.012-21.167 30.084h-35.055c.953-1.977 38.374-56.134 38.374-56.134l-15.95-22.19-67.662.077c-3.155.249-7.024-.709-8.607 2.85-.554 1.18-.791 2.918-.155 4.108.548 1.34 1.815 2.601 3.232 2.994l2.132.161h27.082c12.549.315 24.162 8.125 29.603 19.418 4.821 9.476 4.11 22.423-1.262 31.429-6.787 11.441-18.87 17.84-31.971 17.37h-75.323s-11.53-41.615-11.608-41.687l-11.607 41.686-27.472.005-11.054-41.851-12.083 41.764H26.74S54.686 27.589 56.502 20.953H82.17l12.078 44.846 12.316-44.846 25.185-.006 21.554 78.097h50.215c3.465-.166 8.286.78 9.709-3.476.554-1.905.083-3.875-1.262-5.215-1.268-1.107-2.845-1.417-4.5-1.417l-27-.005c-12.792-.393-25.5-8.763-30.239-21.073-5.132-12.321-2.13-27.09 7.262-36.627 6.632-6.648 14.525-9.963 23.769-10.356l88.582-.077 17.848 25.733 18.466-25.811 34.739.006Z"
       id="path4" />
  </g>
  <path
     style="fill:#000080;fill-opacity:0.941176;stroke-width:0.350662"
     d="M 0.70132325,75.041588 V 0.35066163 H 185.32467 369.94802 V 75.041588 149.73251 H 185.32467 0.70132325 Z M 63.089833,108.26188 c 3.166163,-11.038763 5.852248,-20.262816 5.969082,-20.497892 0.11683,-0.23508 2.645794,8.79884 5.61992,20.075382 l 5.407497,20.50279 h 13.916996 13.916992 l 1.09725,-3.94495 c 11.13058,-40.017615 10.31831,-37.326606 10.75959,-35.645994 0.75191,2.86364 10.34561,37.300874 10.71426,38.459594 l 0.36524,1.14796 41.4358,-0.10472 41.4358,-0.10472 2.96535,-0.79223 c 3.62592,-0.9687 8.81294,-3.3844 11.71759,-5.45712 4.56845,-3.25997 9.46829,-9.18 11.61426,-14.03243 2.3029,-5.20724 3.31394,-11.981741 2.65456,-17.7868 -0.83535,-7.354209 -3.84686,-13.765016 -9.04638,-19.257667 -4.63137,-4.892477 -9.83077,-8.08173 -16.05858,-9.850152 -2.6783,-0.760518 -3.50644,-0.801767 -19.86453,-0.989363 -16.53472,-0.189624 -17.10005,-0.218421 -18.03741,-0.918751 -1.61685,-1.207998 -2.32361,-2.420299 -2.3025,-3.949485 0.024,-1.741533 0.82831,-3.36328 2.07221,-4.178428 0.88105,-0.577364 3.29838,-0.622992 37.66395,-0.710913 l 36.72248,-0.09395 7.8858,10.963439 c 4.49334,6.246995 7.76724,11.114732 7.61023,11.315125 -1.9168,2.446268 -37.42576,54.529815 -37.74637,55.365325 -0.19824,0.5166 1.33024,0.56591 17.44098,0.5626 l 17.65827,-0.004 10.48114,-14.90898 c 5.76463,-8.19994 10.55807,-14.832059 10.65208,-14.738047 0.094,0.09401 4.78374,6.765227 10.42161,14.824937 l 10.25068,14.65399 17.79644,0.0909 c 15.93034,0.0814 17.77465,0.0341 17.58853,-0.45095 -0.11436,-0.29801 -8.65288,-12.9319 -18.97449,-28.075311 -10.32161,-15.143009 -18.76656,-27.6062 -18.76656,-27.695577 0,-0.08938 7.75125,-11.48165 17.225,-25.316156 9.47375,-13.834505 17.30162,-25.350893 17.39527,-25.591973 0.13482,-0.347083 -3.47464,-0.438327 -17.33942,-0.438327 h -17.50968 l -9.09766,12.741442 -9.09766,12.741443 -8.78203,-12.653778 -8.78204,-12.653776 -44.68666,-0.10708 c -32.01899,-0.07673 -45.58129,0.0065 -47.84261,0.29362 -9.06937,1.151505 -17.65211,6.125175 -23.19836,13.443378 -2.12998,2.810477 -4.76989,8.402569 -5.73278,12.143711 -1.14093,4.432882 -1.32076,10.777007 -0.42741,15.07845 2.68056,12.90681 11.36107,22.20138 24.44929,26.178858 l 3.15596,0.959087 17.00708,0.194495 c 11.92481,0.136376 17.21667,0.315862 17.70842,0.600627 1.79881,1.041672 2.45463,2.19935 2.45463,4.333028 0,1.778419 -0.13338,2.191912 -0.99822,3.094613 -0.56631,0.5911 -1.65764,1.207959 -2.52225,1.425671 -1.03962,0.261779 -10.19606,0.382133 -28.80802,0.378658 l -27.28399,-0.0051 -10.15331,-36.902041 C 137.67683,41.678224 132.8171,24.08607 132.46174,22.880671 l -0.6461,-2.191635 -12.69492,7.36e-4 -12.69492,7.37e-4 -5.59432,20.425289 c -3.076879,11.233908 -5.820638,21.20852 -6.09724,22.165805 L 94.231324,65.022119 90.129092,49.781131 C 87.872861,41.398614 85.187849,31.421769 84.162395,27.610389 l -1.864457,-6.929782 -12.986301,0.09188 -12.986298,0.09188 -14.650204,52.774574 C 33.617523,102.66496 26.928098,126.84746 26.809746,127.37784 l -0.215186,0.96432 15.369306,-0.005 15.36931,-0.005 5.756657,-20.07049 z"
     id="path942" />
  <path
     style="fill:#0000ff;stroke-width:0.350662"
     d="M 0.70132326,75.041588 V 0.35066163 H 185.32467 369.94802 V 75.041588 149.73252 H 185.32467 0.70132326 Z M 216.87308,127.4468 c 13.62607,-3.8687 23.46717,-14.53542 25.64936,-27.801217 0.70332,-4.275582 0.47563,-10.307622 -0.53826,-14.259476 -2.75527,-10.739304 -11.86809,-20.382281 -22.69349,-24.01373 l -3.45846,-1.160164 -14.37712,-0.285319 c -22.5537,-0.447591 -21.01497,-0.3422 -22.24838,-1.523881 -2.07093,-1.984068 -2.14595,-5.021692 -0.1699,-6.878592 l 0.9086,-0.853816 36.87913,-0.197759 c 20.28352,-0.108765 36.89611,-0.187663 36.91686,-0.175331 0.29906,0.17774 14.01449,19.709589 14.56496,20.741643 l 0.76422,1.432828 -2.45433,3.476434 c -8.41744,11.922857 -35.1796,51.49103 -35.1796,52.01346 0,0.27794 5.00178,0.36114 17.7837,0.29582 l 17.7837,-0.0909 8.0776,-11.42319 c 11.13668,-15.74927 12.23578,-17.26055 12.6362,-17.374908 0.19286,-0.05508 4.91955,6.441408 10.50375,14.436638 l 10.15308,14.53679 h 17.81218 c 12.15411,0 17.81218,-0.11642 17.81218,-0.3665 0,-0.44519 0.39216,0.14046 -20.60364,-30.769297 -9.33956,-13.749569 -16.90492,-25.189904 -16.81193,-25.422968 0.093,-0.233064 4.15638,-6.26227 9.02975,-13.398234 20.66541,-30.259879 25.22986,-37.0165 25.22986,-37.346946 0,-0.227274 -6.15172,-0.346302 -17.62074,-0.340937 l -17.62075,0.0082 -8.9524,12.562557 -8.9524,12.562556 -8.71898,-12.570798 -8.71898,-12.570799 -45.97371,0.0046 c -43.51398,0.0044 -46.14256,0.03964 -49.12966,0.6594 -4.42292,0.917662 -8.22849,2.479441 -12.0217,4.933626 -6.0752,3.930622 -10.21564,8.97267 -13.01591,15.850238 -2.0777,5.102902 -2.31399,6.439807 -2.31399,13.092299 0,5.186963 0.10523,6.32479 0.81022,8.760177 2.40219,8.298439 7.17561,14.928082 13.90815,19.316578 3.41037,2.222991 5.73472,3.307966 10.15848,4.741843 3.09806,1.004179 3.27768,1.020674 11.40241,1.047166 14.80527,0.04828 26.04572,0.483956 26.9276,1.043703 1.84332,1.170003 2.43956,4.736264 1.08067,6.463809 -1.48894,1.892885 -0.8474,1.848414 -30.67213,2.126068 -27.04138,0.251744 -27.75562,0.241385 -27.95531,-0.40547 -0.1127,-0.365098 -3.74704,-13.524332 -8.07629,-29.242739 -4.32926,-15.718408 -9.10452,-33.036709 -10.6117,-38.485114 l -2.74032,-9.906191 h -12.8828 -12.8828 l -0.52257,1.840974 c -0.28741,1.012535 -2.89623,10.519848 -5.797379,21.127363 C 97.048961,54.264808 94.5577,63.21877 94.413971,63.554988 94.245394,63.949335 92.09176,56.482063 88.345915,42.51529 l -5.806729,-21.651002 -13.15991,-0.09183 -13.15991,-0.09183 -0.386937,1.319143 C 55.456575,23.281212 37.368723,88.529739 30.046698,115.01701 l -3.635075,13.14982 15.427867,0.0914 c 8.485328,0.0502 15.496614,0.0226 15.580633,-0.0614 0.08402,-0.084 2.671736,-8.8829 5.750482,-19.55307 3.078746,-10.670167 5.71123,-19.514621 5.849966,-19.654339 0.29452,-0.296611 1.914314,5.412788 7.08577,24.975679 l 3.75425,14.2018 h 14.143737 14.143732 l 2.04281,-7.3639 c 1.12353,-4.05014 3.64402,-13.03895 5.60107,-19.97513 3.5408,-12.549258 3.56046,-12.604413 4.00025,-11.221176 0.24309,0.764537 2.74161,9.67445 5.55227,19.799806 2.81066,10.12535 5.16714,18.56753 5.23661,18.7604 0.0835,0.23176 14.20031,0.32051 41.63675,0.26175 l 41.51044,-0.0889 z"
     id="path898" />
</svg>
