<?xml version="1.0" encoding="UTF-8" standalone="no"?>
<!-- Generator: Adobe Illustrator 19.0.0, SVG Export Plug-In . SVG Version: 6.00 Build 0)  -->

<svg
   version="1.1"
   id="svg2"
   x="0px"
   y="0px"
   viewBox="241 249.1 602.27939 306.79376"
   xml:space="preserve"
   sodipodi:docname="msx1.svg"
   width="602.27942"
   height="306.79376"
   inkscape:version="1.1 (c68e22c387, 2021-05-23)"
   xmlns:inkscape="http://www.inkscape.org/namespaces/inkscape"
   xmlns:sodipodi="http://sodipodi.sourceforge.net/DTD/sodipodi-0.dtd"
   xmlns="http://www.w3.org/2000/svg"
   xmlns:svg="http://www.w3.org/2000/svg"
   xmlns:rdf="http://www.w3.org/1999/02/22-rdf-syntax-ns#"
   xmlns:cc="http://creativecommons.org/ns#"
   xmlns:dc="http://purl.org/dc/elements/1.1/"><metadata
   id="metadata47"><rdf:RDF><cc:Work
       rdf:about=""><dc:format>image/svg+xml</dc:format><dc:type
         rdf:resource="http://purl.org/dc/dcmitype/StillImage" /><dc:title /></cc:Work></rdf:RDF></metadata><defs
   id="defs45" /><sodipodi:namedview
   pagecolor="#ffffff"
   bordercolor="#666666"
   borderopacity="1"
   objecttolerance="10"
   gridtolerance="10"
   guidetolerance="10"
   inkscape:pageopacity="0"
   inkscape:pageshadow="2"
   inkscape:window-width="1366"
   inkscape:window-height="705"
   id="namedview43"
   showgrid="false"
   inkscape:zoom="0.89988352"
   inkscape:cx="276.14685"
   inkscape:cy="138.35124"
   inkscape:window-x="-8"
   inkscape:window-y="-8"
   inkscape:window-maximized="1"
   inkscape:current-layer="svg2"
   inkscape:pagecheckerboard="0" />

<path
   inkscape:connector-curvature="0"
   style="fill:#231f20;stroke-width:1.23058546"
   d="M 296.58864,301.58562 H 788.8228 V 500.82325 H 296.58864 Z"
   id="path2" /><path
   inkscape:connector-curvature="0"
   style="fill:#ffffff;stroke-width:1.23058546"
   d="m 749.91286,329.4454 -46.7455,68.31005 50.89768,74.73922 h -47.21429 l -27.92676,-39.98146 -28.32858,39.98146 h -46.41065 c 1.07153,-2.61185 50.89769,-74.73922 50.89769,-74.73922 l -21.16273,-29.46708 h -90.14247 c -4.15218,0.33485 -9.37589,-1.07153 -11.38501,3.81732 -0.73667,1.54033 -1.07153,3.81733 -0.33485,5.22372 0.73668,1.87517 2.277,3.4155 4.15218,4.15218 l 3.08065,0.33485 h 36.29808 c 16.60872,0.33486 32.07894,10.91622 39.24479,25.9846 6.42918,12.45654 5.69251,29.80193 -1.54033,41.92362 -9.04102,15.06839 -25.31489,23.77458 -42.59331,23.0379 H 470.2435 l -15.47022,-55.45169 -15.53719,55.51866 h -36.63294 l -14.73354,-55.8535 -15.87204,55.51864 h -40.71814 c 0,0 37.36961,-134.00824 39.64661,-142.64745 h 34.28897 l 15.87204,59.67084 16.27387,-59.67084 h 33.61926 l 28.79737,104.20632 h 66.76972 c 4.48703,-0.33486 10.91621,1.07152 12.79139,-4.48704 0.73668,-2.61185 0,-5.22371 -1.54032,-6.76403 -1.54033,-1.54033 -3.81733,-1.87518 -6.02736,-1.87518 h -35.8293 c -16.94357,-0.33486 -33.95411,-11.71986 -40.38329,-27.92676 -6.76403,-16.27386 -3.08065,-36.2311 9.84468,-48.68764 8.63921,-8.63922 19.22058,-13.19322 31.67711,-13.99687 h 118.20317 l 23.77458,34.28896 24.57822,-34.28896 z"
   id="path4" /><path
   style="fill:#000080;stroke-width:1.11125"
   d="M 56.674002,152.24193 V 52.784609 H 301.70571 546.73743 v 99.457321 99.45731 H 301.70571 56.674002 Z m 82.193148,45.90191 c 3.99458,-13.87011 7.52925,-25.47129 7.85483,-25.7804 0.32558,-0.30911 3.62401,11.03917 7.32984,25.2184 l 6.73789,25.7804 19.00305,0.3038 19.00306,0.3038 1.02694,-3.63757 c 0.56482,-2.00066 3.93229,-14.02926 7.48325,-26.73024 l 6.4563,-23.09267 7.37713,26.42644 7.37714,26.42644 h 57.76762 57.76762 l 8.45084,-4.17741 c 23.56186,-11.64707 32.77551,-38.30616 21.32658,-61.70697 -3.80436,-7.77582 -13.06606,-16.98926 -20.71638,-20.60844 -8.4412,-3.99332 -17.35256,-5.16762 -39.28892,-5.17732 -17.44943,-0.008 -19.15747,-0.18579 -20.96774,-2.18612 -2.64746,-2.92541 -1.45471,-7.55215 2.31654,-8.98598 1.73549,-0.65983 21.36955,-0.97048 50.19098,-0.79413 l 47.34037,0.28966 10.29858,14.36159 10.29858,14.36159 -5.87604,8.41914 c -7.82562,11.21246 -41.00076,59.83514 -43.46516,63.70407 l -1.94655,3.05595 h 23.99012 23.99014 l 13.64252,-19.3778 c 7.5034,-10.65778 13.89257,-19.39403 14.19816,-19.41388 0.3056,-0.0199 6.55641,8.67765 13.89069,19.32776 l 13.33506,19.36385 24.16979,0.05 c 13.29339,0.0276 24.1698,-0.22631 24.1698,-0.56407 0,-0.33776 -11.12644,-16.9425 -24.72542,-36.89943 -13.59899,-19.95692 -24.88905,-36.67357 -25.08903,-37.14811 -0.19998,-0.47453 9.80131,-15.73695 22.2251,-33.91647 12.42379,-18.17953 22.73855,-33.629337 22.92172,-34.332909 0.24622,-0.94583 -5.54608,-1.148086 -22.2251,-0.776051 -12.40697,0.276745 -23.11443,0.673327 -23.79439,0.881297 -0.67994,0.207969 -6.43068,7.697567 -12.77943,16.643553 l -11.54316,16.26545 -2.4786,-3.10567 c -1.36323,-1.70812 -6.61391,-9.21876 -11.66817,-16.690311 l -9.18958,-13.584633 -61.16336,-0.03724 c -66.51356,-0.04049 -68.2266,0.09493 -79.61704,6.294391 -7.1977,3.917478 -15.9064,13.333773 -19.57826,21.168993 -2.68459,5.72854 -2.99582,7.66256 -2.99582,18.61646 0,11.35006 0.2448,12.74034 3.42468,19.45015 6.26361,13.21671 19.45411,23.15031 33.83973,25.48429 3.95218,0.64122 15.96193,1.16963 26.68831,1.17425 20.57812,0.009 22.16954,0.37868 22.16954,5.15191 0,5.90523 -0.43879,5.96903 -41.05132,5.96903 h -37.55882 l -5.04491,-18.05789 c -2.7747,-9.93184 -9.20861,-33.18485 -14.29758,-51.67336 l -9.25268,-33.615461 h -17.46543 -17.46542 l -0.98237,3.611578 c -0.54031,1.986368 -3.93201,14.487986 -7.53714,27.781373 -3.60511,13.29339 -6.81201,24.16834 -7.12645,24.16656 -0.31444,-0.002 -3.82507,-12.37838 -7.80141,-27.50356 L 165.00827,81.121596 147.17068,80.81728 129.3331,80.512964 109.66847,151.38197 c -10.815548,38.97796 -19.662875,71.25509 -19.660727,71.72697 0.0021,0.47188 9.362245,0.72191 20.800217,0.55563 l 20.79631,-0.30234 z"
   id="path933"
   transform="translate(241,249.1)" /></svg>
