<?xml version="1.0" encoding="UTF-8" standalone="no"?>
<svg
   width="450"
   height="150"
   version="1.1"
   id="svg10"
   sodipodi:docname="msx2-w.svg"
   inkscape:version="1.1 (c68e22c387, 2021-05-23)"
   xmlns:inkscape="http://www.inkscape.org/namespaces/inkscape"
   xmlns:sodipodi="http://sodipodi.sourceforge.net/DTD/sodipodi-0.dtd"
   xmlns="http://www.w3.org/2000/svg"
   xmlns:svg="http://www.w3.org/2000/svg">
  <defs
     id="defs14" />
  <sodipodi:namedview
     id="namedview12"
     pagecolor="#ffffff"
     bordercolor="#666666"
     borderopacity="1.0"
     inkscape:pageshadow="2"
     inkscape:pageopacity="0.0"
     inkscape:pagecheckerboard="0"
     showgrid="false"
     inkscape:zoom="2.3511111"
     inkscape:cx="224.78734"
     inkscape:cy="75.070889"
     inkscape:window-width="1920"
     inkscape:window-height="1017"
     inkscape:window-x="-8"
     inkscape:window-y="712"
     inkscape:window-maximized="1"
     inkscape:current-layer="svg10" />
  <g
     fill="none"
     fill-rule="evenodd"
     id="g8">
    <path
       fill="#6D7278"
       d="M.585.1h369.543v149.662H.585z"
       id="path2" />
    <path
       fill="#FFF"
       fill-rule="nonzero"
       d="m340.89 20.726-35.13 51.311L343.97 128.1h-35.287l-20.998-30.012-21.167 30.084h-35.055c.953-1.977 38.374-56.134 38.374-56.134l-15.95-22.19-67.662.077c-3.155.249-7.024-.709-8.607 2.85-.554 1.18-.791 2.918-.155 4.108.548 1.34 1.815 2.601 3.232 2.994l2.132.161h27.082c12.549.315 24.162 8.125 29.603 19.418 4.821 9.476 4.11 22.423-1.262 31.429-6.787 11.441-18.87 17.84-31.971 17.37h-75.323s-11.53-41.615-11.608-41.687l-11.607 41.686-27.472.005-11.054-41.851-12.083 41.764H26.74S54.686 27.589 56.502 20.953H82.17l12.078 44.846 12.316-44.846 25.185-.006 21.554 78.097h50.215c3.465-.166 8.286.78 9.709-3.476.554-1.905.083-3.875-1.262-5.215-1.268-1.107-2.845-1.417-4.5-1.417l-27-.005c-12.792-.393-25.5-8.763-30.239-21.073-5.132-12.321-2.13-27.09 7.262-36.627 6.632-6.648 14.525-9.963 23.769-10.356l88.582-.077 17.848 25.733 18.466-25.811 34.739.006Z"
       id="path4" />
    <path
       fill="#6D7278"
       fill-rule="nonzero"
       d="M414.86 128.251c1.806-12.72 34.507-20.501 34.507-48.284 0-26.465-18.414-33.205-34.507-33.205-16.087 0-33.232 12.19-33.232 32.18v7.526h24.15v-5.45c0-6.874 3.367-11.168 9.343-11.168 5.975 0 8.81 3.513 8.81 10.643 0 16.093-27.251 22.583-38.66 42.835-4.89 8.643-5.2 25.95-5.2 25.95h67.75v-21.027h-32.96Z"
       id="path6" />
  </g>
  <path
     style="fill:#000080;fill-opacity:0.941176;stroke-width:0.425331"
     d="M 0.85066163,75.070888 V 0.42533081 H 185.44423 370.03781 V 75.070888 149.71645 H 185.44423 0.85066163 Z M 60.522052,117.28497 c 1.777764,-6.14071 4.436384,-15.33758 5.908037,-20.437471 1.804661,-6.253916 2.777461,-9.023198 2.988217,-8.506617 0.326875,0.801204 10.543887,39.425158 10.543887,39.859658 0,0.13715 6.291276,0.24937 13.980615,0.24937 h 13.980622 l 1.93012,-6.91163 c 1.06157,-3.80139 3.61933,-12.98565 5.68392,-20.40945 2.22531,-8.001713 3.86413,-13.197363 4.02474,-12.759927 0.14902,0.405847 2.7313,9.596305 5.73841,20.423237 l 5.46745,19.68534 41.693,-0.12985 c 41.65967,-0.12973 41.69544,-0.13059 44.7532,-1.0721 13.44733,-4.14057 22.56996,-13.91076 25.05034,-26.82854 3.3995,-17.704537 -6.78246,-33.996451 -24.7079,-39.534492 -1.70789,-0.527649 -5.58804,-0.705909 -19.70478,-0.905274 l -17.57812,-0.248245 -1.45543,-1.588742 c -1.63891,-1.789031 -1.86988,-3.394008 -0.78918,-5.483846 1.33108,-2.574029 0.1129,-2.497355 39.67624,-2.497355 h 36.1165 l 7.85419,10.931648 7.85418,10.931644 -3.09875,4.486598 c -22.27403,32.249924 -35.0516,51.044864 -35.0516,51.558554 0,0.19383 7.93005,0.35243 17.62232,0.35243 h 17.62232 l 10.48446,-14.88658 c 5.76646,-8.18762 10.52735,-14.886581 10.57978,-14.886581 0.0524,0 4.77381,6.696001 10.49198,14.880001 l 10.39668,14.88 17.80307,0.007 c 14.78978,0.005 17.7657,-0.0908 17.58231,-0.56872 -0.12142,-0.31641 -8.65915,-12.95443 -18.97273,-28.084472 -10.31358,-15.130063 -18.75196,-27.619464 -18.75196,-27.754243 0,-0.134783 7.84735,-11.704704 17.43856,-25.710941 9.59121,-14.006236 17.43856,-25.565607 17.43856,-25.68749 0,-0.121882 -7.8952,-0.218708 -17.54489,-0.215166 l -17.5449,0.0064 -9.1203,12.753485 c -5.01617,7.014417 -9.16836,12.753486 -9.2271,12.753486 -0.0587,0 -4.08498,-5.74842 -8.9472,-12.774266 l -8.8404,-12.774266 -45.73213,0.248772 c -30.14092,0.163959 -46.67465,0.408185 -48.49676,0.716364 -16.85605,2.850903 -28.95384,18.365008 -27.93663,35.825693 0.31346,5.380779 1.10339,8.350558 3.54305,13.320417 4.13681,8.427101 12.2993,14.942161 22.05426,17.603056 3.14028,0.856586 4.70901,0.947522 20.34522,1.179395 l 16.94258,0.251243 1.24031,1.389037 c 1.71568,1.921398 1.71542,4.233058 -8.5e-4,6.153873 l -1.241,1.389037 H 181.99923 153.3899 L 142.70204,59.758979 132.01418,21.053875 119.20398,20.941351 c -11.92648,-0.104761 -12.82603,-0.06075 -13.03986,0.637997 -0.12632,0.412786 -2.82994,10.219065 -6.00804,21.791733 -3.178103,11.572664 -5.827093,21.089939 -5.886648,21.149494 -0.07948,0.07964 -9.585587,-34.909768 -11.606873,-42.722371 L 82.414965,20.84121 H 69.354021 56.293078 L 42.329863,71.136578 C 34.650094,98.799031 27.93031,123.01099 27.397011,124.94093 l -0.969636,3.50898 h 15.431187 15.431189 z"
     id="path904" />
  <path
     style="fill:#000080;fill-opacity:0.941176;stroke-width:0.425331"
     d="m 380.4452,145.78214 c 0.67175,-8.18501 1.84449,-14.38034 3.62081,-19.12799 2.57293,-6.87674 9.67271,-14.55349 22.12492,-23.92288 9.31652,-7.010009 14.60623,-12.090909 16.40183,-15.754374 1.12952,-2.304519 1.24923,-2.957355 1.24931,-6.813392 7e-5,-3.725573 -0.13565,-4.528416 -1.07368,-6.351187 -1.40178,-2.72393 -3.77663,-4.058064 -7.22361,-4.058064 -3.18786,0 -4.97179,0.63841 -6.89236,2.46654 -2.19186,2.086358 -2.88682,4.429012 -2.88682,9.731156 v 4.390206 h -11.90927 -11.90926 l 0.007,-5.635633 c 0.009,-7.06327 0.71377,-10.510742 3.15085,-15.418242 6.26084,-12.607344 19.26447,-19.440486 34.3205,-18.034723 15.38862,1.436818 24.97463,8.865091 28.50408,22.088025 1.1658,4.367586 1.39218,13.973589 0.42071,17.851235 -2.28025,9.101645 -7.44238,15.695313 -20.4678,26.143853 -7.64193,6.13009 -10.89963,9.32316 -12.28763,12.04385 -1.6816,3.29621 -2.82539,3.06939 15.47761,3.06939 h 16.37524 v 10.4206 10.42061 h -33.64541 -33.6454 z"
     id="path943" />
  <path
     style="fill:#0000ff;stroke-width:0.425331"
     d="M 0.85066163,75.070889 V 0.42533081 H 185.44424 370.03781 V 75.070889 149.71645 H 185.44424 0.85066163 Z M 195.22684,128.32303 l 20.20322,-0.12526 3.14175,-1.14432 c 14.12582,-5.14503 22.69406,-15.58478 24.28544,-29.589978 1.71552,-15.097705 -6.94312,-29.28444 -21.60139,-35.392781 -4.26797,-1.778534 -6.36528,-1.969652 -25.17835,-2.294388 l -15.52458,-0.267971 -1.38232,-1.463419 c -2.46737,-2.612114 -1.6753,-6.124619 1.57867,-7.000822 1.07556,-0.289616 14.1141,-0.47979 37.28872,-0.543862 l 35.63487,-0.09853 7.77119,10.795721 c 4.28295,5.949872 7.64215,11.009178 7.48373,11.271266 -0.1581,0.261549 -3.72622,5.451916 -7.92915,11.534147 -9.22306,13.347064 -26.94143,39.338467 -28.49804,41.804307 -0.61635,0.97636 -1.12064,1.9704 -1.12064,2.20898 0,0.28791 5.97595,0.43379 17.76966,0.43379 h 17.76965 l 9.67093,-13.71692 c 5.31901,-7.54431 10.0084,-14.15385 10.42087,-14.68787 0.7493,-0.97012 0.75858,-0.958576 10.95701,13.61059 l 10.20707,14.58153 17.95874,0.11095 c 12.95597,0.08 17.95874,-0.0207 17.95874,-0.36178 0,-0.26 -8.42155,-12.87515 -18.71456,-28.033672 -10.293,-15.158513 -18.71455,-27.68323 -18.71455,-27.8327 0,-0.356461 2.46528,-4.025573 19.62984,-29.215301 7.9106,-11.609151 14.50217,-21.418343 14.64793,-21.798204 0.24205,-0.630753 -1.2791,-0.68877 -17.53803,-0.668901 l -17.80307,0.02176 -8.92367,12.54403 -8.92368,12.544027 -0.85893,-1.156819 c -0.47242,-0.636253 -4.43516,-6.308814 -8.80609,-12.605692 l -7.94716,-11.44887 -32.8846,0.07393 c -18.08653,0.04066 -39.58356,0.223344 -47.77118,0.405958 -14.48922,0.323165 -14.97741,0.361932 -18.28923,1.452373 -5.58107,1.837609 -9.31473,4.17214 -13.62628,8.520044 -4.19988,4.235309 -6.86843,8.682715 -8.70594,14.509357 -1.17892,3.738275 -1.61935,11.911704 -0.87318,16.204198 1.11029,6.387197 4.57125,12.882683 9.38286,17.609602 3.95098,3.881441 8.6554,6.746601 14.03521,8.547924 l 4.04064,1.352935 17.43856,0.409555 c 19.1847,0.450566 18.41594,0.326229 19.62113,3.173495 0.66229,1.564644 0.25809,3.119279 -1.22171,4.698983 l -0.89647,0.956994 h -28.39284 -28.39284 l -0.64517,-2.232987 c -1.19693,-4.142756 -20.68174,-74.785497 -20.68174,-74.982277 0,-0.354158 -25.89036,-0.202401 -26.11004,0.153045 -0.11829,0.191395 -2.71276,9.42639 -5.76549,20.522212 C 97.349615,52.807232 94.695444,62.252435 94.504186,62.70075 94.256243,63.281927 92.83936,58.643273 89.567303,46.538179 87.043275,37.20045 84.455401,27.646503 83.816473,25.307183 L 82.65478,21.053875 H 69.329846 56.004916 L 41.191778,74.432893 c -8.147226,29.358457 -14.814967,53.524927 -14.817203,53.703257 -0.0023,0.17833 7.019166,0.27403 15.603115,0.21266 l 15.607177,-0.11157 4.731082,-16.37524 c 6.306155,-21.826884 6.585933,-22.715792 7.012289,-22.279389 0.201424,0.20617 2.404314,8.12651 4.895315,17.600759 2.491001,9.47424 4.759792,18.08719 5.041765,19.13988 l 0.512673,1.91399 h 14.212701 14.212698 l 4.09624,-14.67391 c 5.78681,-20.730039 6.87502,-24.336373 7.22629,-23.948037 0.22873,0.252859 6.8442,23.636237 10.86651,38.409287 0.18341,0.67362 2.56101,0.68457 64.83441,0.29845 z"
     id="path881" />
  <path
     style="fill:#0000ff;stroke-width:0.425331"
     d="m 380.3992,148.12146 c 0.12157,-0.64332 0.34594,-2.70085 0.4986,-4.57231 0.77707,-9.52602 2.97319,-17.22649 6.37014,-22.33623 2.50117,-3.76231 8.66479,-10.02047 14.25594,-14.47463 2.21598,-1.76535 6.33375,-5.05054 9.15059,-7.300437 6.13871,-4.903154 10.7259,-9.62288 12.13458,-12.485194 0.90409,-1.837004 1.03311,-2.683461 1.03311,-6.7778 0,-5.380549 -0.60876,-7.154197 -3.1104,-9.062288 -1.37805,-1.051091 -1.82328,-1.145652 -5.39417,-1.145652 -3.55553,0 -4.04859,0.103529 -5.701,1.197038 -2.91274,1.927559 -3.8617,4.478174 -3.86684,10.393227 l -0.004,4.784971 h -11.95709 -11.95708 l 0.29531,-6.060964 c 0.36252,-7.440588 0.99975,-10.398245 3.17047,-14.715588 6.43746,-12.803479 19.77127,-19.732062 34.62573,-17.992409 5.87062,0.687526 8.73114,1.481812 13.34072,3.704334 8.15238,3.930698 13.61049,11.675973 14.99941,21.284779 1.17282,8.113774 0.23913,15.502087 -2.69549,21.329466 -2.94891,5.855755 -7.21352,10.426517 -18.39222,19.712627 -9.43868,7.84068 -12.49782,11.26209 -12.49782,13.9779 0,0.85823 0.17696,0.86761 16.37524,0.86761 h 16.37524 v 10.4206 10.42061 h -33.63493 -33.63493 z"
     id="path920" />
</svg>
