<?xml version="1.0" encoding="UTF-8" standalone="no"?>
<!-- Generator: Adobe Illustrator 19.0.0, SVG Export Plug-In . SVG Version: 6.00 Build 0)  -->

<svg
   version="1.1"
   id="svg2"
   x="0px"
   y="0px"
   viewBox="241 249.1 602.27939 306.79376"
   xml:space="preserve"
   sodipodi:docname="msx2.svg"
   width="602.27942"
   height="306.79376"
   inkscape:version="1.1 (c68e22c387, 2021-05-23)"
   xmlns:inkscape="http://www.inkscape.org/namespaces/inkscape"
   xmlns:sodipodi="http://sodipodi.sourceforge.net/DTD/sodipodi-0.dtd"
   xmlns="http://www.w3.org/2000/svg"
   xmlns:svg="http://www.w3.org/2000/svg"
   xmlns:rdf="http://www.w3.org/1999/02/22-rdf-syntax-ns#"
   xmlns:cc="http://creativecommons.org/ns#"
   xmlns:dc="http://purl.org/dc/elements/1.1/"><metadata
   id="metadata47"><rdf:RDF><cc:Work
       rdf:about=""><dc:format>image/svg+xml</dc:format><dc:type
         rdf:resource="http://purl.org/dc/dcmitype/StillImage" /><dc:title /></cc:Work></rdf:RDF></metadata><defs
   id="defs45"><clipPath
     id="a"><path
       inkscape:connector-curvature="0"
       d="M 0,236.721 H 875.059 V 0 H 0 Z"
       id="path2" /></clipPath></defs><sodipodi:namedview
   pagecolor="#ffffff"
   bordercolor="#666666"
   borderopacity="1"
   objecttolerance="10"
   gridtolerance="10"
   guidetolerance="10"
   inkscape:pageopacity="0"
   inkscape:pageshadow="2"
   inkscape:window-width="960"
   inkscape:window-height="729"
   id="namedview43"
   showgrid="false"
   inkscape:zoom="0.89988352"
   inkscape:cx="499.50909"
   inkscape:cy="138.35124"
   inkscape:window-x="0"
   inkscape:window-y="0"
   inkscape:window-maximized="0"
   inkscape:current-layer="svg2"
   inkscape:pagecheckerboard="0" />

<g
   id="g928"><path
     inkscape:connector-curvature="0"
     style="fill:#231f20;stroke-width:0.97633266"
     d="M 306.0343,322.92436 H 691.33928 V 483.14209 H 306.0343 Z"
     id="path2-6" /></g><g
   clip-path="url(#a)"
   transform="matrix(0.6787761,0,0,-0.6787761,298.27935,482.36174)"
   id="g13"><path
     style="fill:#ffffff"
     inkscape:connector-curvature="0"
     d="m 538.2623,203.3989 -55.568,-81.16 60.44,-88.672 h -55.813 l -33.213,47.47 -33.48,-47.584 h -55.446 c 1.506,3.126 60.695,88.786 60.695,88.786 l -25.228,35.099 -107.02,-0.122 c -4.991,-0.394 -11.11,1.121 -13.614,-4.509 -0.876,-1.865 -1.252,-4.614 -0.246,-6.496 0.867,-2.119 2.872,-4.115 5.113,-4.737 l 3.371,-0.254 h 42.837 c 19.848,-0.499 38.216,-12.852 46.822,-30.713 7.626,-14.989 6.501,-35.467 -1.996,-49.711 -10.734,-18.097 -29.846,-28.218 -50.569,-27.474 h -119.138 c 0,0 -18.237,65.821 -18.36,65.935 l -18.359,-65.935 -43.452,-0.008 -17.484,66.197 -19.112,-66.058 h -48.074 c 0,0 44.204,159.09 47.076,169.587 h 40.597 l 19.104,-70.934 19.48,70.934 39.836,0.009 34.092,-123.526 h 79.425 c 5.48,0.262 13.106,-1.234 15.356,5.498 0.876,3.012 0.132,6.129 -1.996,8.248 -2.005,1.751 -4.5,2.241 -7.118,2.241 l -42.705,0.008 c -20.233,0.622 -40.335,13.86 -47.829,33.331 -8.117,19.489 -3.371,42.848 11.486,57.933 10.489,10.515 22.974,15.759 37.595,16.381 l 140.11,0.122 28.231,-40.702 29.207,40.825 z"
     id="path9" /><path
     style="fill:#221f1f"
     inkscape:connector-curvature="0"
     d="m 653.6779,33.2585 c 2.856,20.12 54.579,32.427 54.579,76.371 0,41.86 -29.125,52.521 -54.579,52.521 -25.445,0 -52.563,-19.28 -52.563,-50.9 v -11.904 h 38.197 v 8.62 c 0,10.874 5.327,17.666 14.778,17.666 9.451,0 13.936,-5.557 13.936,-16.835 0,-25.454 -43.104,-35.719 -61.148,-67.752 -7.736,-13.67 -8.225,-41.045 -8.225,-41.045 h 107.16 v 33.258 z"
     id="path11" /></g><path
   style="fill:#000080;stroke-width:1.11125"
   d="M 65.564041,153.90881 V 73.898453 H 257.81114 450.05825 v 80.010357 80.01035 H 257.81114 65.564041 Z M 178.46945,190.8164 c 3.14145,-11.17713 5.94101,-20.55132 6.22123,-20.83155 0.42633,-0.42633 3.37407,9.66107 10.97051,37.54201 l 1.1354,4.1672 40.78638,-0.009 c 43.27806,-0.009 51.77629,-0.70673 60.1245,-4.93709 6.3935,-3.23983 13.95548,-11.26585 17.14366,-18.19565 3.45535,-7.51006 3.38137,-21.92128 -0.15219,-29.64297 -3.20347,-7.00037 -10.25153,-14.32688 -17.43825,-18.12719 -5.2752,-2.78951 -6.59623,-2.96748 -26.11449,-3.51803 -11.30702,-0.31894 -21.18329,-0.98444 -21.94728,-1.47891 -1.76639,-1.14323 -1.79971,-5.46899 -0.0556,-7.21313 0.98676,-0.98676 11.52457,-1.33351 40.52575,-1.33351 h 39.19224 l 4.24555,5.83409 c 2.33506,3.20875 6.08841,8.38383 8.34079,11.50018 l 4.09524,5.66609 -17.47358,25.46066 c -9.61048,14.00335 -18.85586,27.5807 -20.54532,30.17188 l -3.07172,4.71122 19.74055,-0.0496 19.74054,-0.0496 10.36833,-14.95243 c 5.70258,-8.22374 10.74317,-14.95233 11.2013,-14.95233 0.45813,0 5.52213,6.75087 11.25333,15.00194 l 10.42036,15.00194 h 19.83107 19.83107 l -14.93007,-21.9471 C 403.6972,176.56452 394.432,162.99161 391.31943,158.4735 l -5.65923,-8.21474 7.01873,-10.12097 c 3.8603,-5.56653 12.38389,-17.99698 18.94131,-27.62323 l 11.92259,-17.502263 h -19.47098 -19.47097 l -9.13966,12.779433 c -5.02682,7.02869 -9.52299,12.77943 -9.99151,12.77943 -0.46852,0 -4.75575,-5.74891 -9.52719,-12.77536 l -8.67535,-12.775364 -52.78461,0.273744 c -52.25679,0.271007 -52.83545,0.2988 -57.86924,2.779364 -8.26339,4.072066 -13.94861,9.716326 -17.92724,17.798056 -3.22951,6.56007 -3.65458,8.4756 -3.62695,16.34437 0.038,10.82224 3.36144,19.05645 10.47956,25.96435 9.22823,8.95569 17.94793,11.26925 42.51247,11.27962 14.09978,0.006 15.32969,0.17281 16.4301,2.22895 0.8451,1.57908 0.8451,2.86594 0,4.44502 -1.1456,2.14058 -2.32677,2.22251 -32.04178,2.22251 H 221.58716 L 214.0428,150.85286 C 209.89341,135.7259 204.72056,116.97347 202.54758,109.1808 L 198.5967,95.012297 h -14.0973 -14.0973 l -5.9917,22.225103 c -3.29543,12.2238 -6.25632,22.22202 -6.57976,22.21826 -0.32344,-0.004 -2.79885,-8.37985 -5.50091,-18.61352 -2.70206,-10.23368 -5.35091,-20.2319 -5.88632,-22.218265 l -0.97348,-3.611578 h -14.37291 c -13.97515,0 -14.39058,0.06919 -15.01163,2.500323 -0.3513,1.375178 -7.52402,27.25353 -15.93938,57.50744 l -15.30065,55.00712 16.62926,0.3076 c 9.14609,0.16918 16.79885,0.138 17.00613,-0.0692 0.20728,-0.20729 2.99298,-9.46661 6.19045,-20.57628 3.19746,-11.10967 6.13382,-19.82963 6.52524,-19.37768 0.39141,0.45194 2.78825,8.82275 5.32632,18.60179 2.53806,9.77905 4.92479,18.91894 5.30384,20.31086 0.67964,2.49577 0.89841,2.52653 15.81015,2.22251 l 15.12098,-0.30831 z"
   id="path883"
   transform="translate(241,249.1)" /><path
   style="fill:#000080;stroke-width:1.11125"
   d="m 464.52386,228.6407 c 0.026,-5.60809 2.76682,-18.22048 4.82414,-22.1989 2.9441,-5.69327 11.70285,-14.48646 23.50478,-23.5972 6.327,-4.88426 12.85008,-10.64576 14.49574,-12.80332 5.46043,-7.159 4.75936,-18.78409 -1.29929,-21.54459 -4.57725,-2.08554 -8.16239,-1.471 -11.62627,1.99287 -2.73712,2.73713 -3.24828,4.13609 -3.24828,8.89004 v 5.64176 h -12.9406 -12.94061 l 0.64919,-7.74349 c 1.15894,-13.82382 7.83314,-24.00021 19.49734,-29.72827 5.53876,-2.71998 7.55162,-3.08895 16.84723,-3.08822 11.97985,9.5e-4 18.74631,2.31212 25.37843,8.66832 7.47573,7.16473 11.24882,20.06099 9.16589,31.32863 -2.00044,10.82136 -6.62007,16.95381 -23.25551,30.87112 -8.1634,6.82955 -13.49435,12.95933 -13.50717,15.53117 -0.002,0.4584 7.99688,0.83344 17.77593,0.83344 h 17.78008 v 10.55693 10.55692 h -35.56016 -35.56016 z"
   id="path922"
   transform="translate(241,249.1)" /></svg>
