<?xml version="1.0" encoding="UTF-8" standalone="no"?>
<!-- Generator: Adobe Illustrator 19.0.0, SVG Export Plug-In . SVG Version: 6.00 Build 0)  -->

<svg
   version="1.1"
   id="svg2"
   x="0px"
   y="0px"
   viewBox="241 249.1 602.27939 306.79376"
   xml:space="preserve"
   sodipodi:docname="msx2+.svg"
   width="602.27942"
   height="306.79376"
   inkscape:version="1.1 (c68e22c387, 2021-05-23)"
   xmlns:inkscape="http://www.inkscape.org/namespaces/inkscape"
   xmlns:sodipodi="http://sodipodi.sourceforge.net/DTD/sodipodi-0.dtd"
   xmlns="http://www.w3.org/2000/svg"
   xmlns:svg="http://www.w3.org/2000/svg"
   xmlns:rdf="http://www.w3.org/1999/02/22-rdf-syntax-ns#"
   xmlns:cc="http://creativecommons.org/ns#"
   xmlns:dc="http://purl.org/dc/elements/1.1/"><metadata
   id="metadata47"><rdf:RDF><cc:Work
       rdf:about=""><dc:format>image/svg+xml</dc:format><dc:type
         rdf:resource="http://purl.org/dc/dcmitype/StillImage" /><dc:title /></cc:Work></rdf:RDF></metadata><defs
   id="defs45"><clipPath
     id="a"><path
       inkscape:connector-curvature="0"
       d="M 0,236.721 H 875.059 V 0 H 0 Z"
       id="path2" /></clipPath></defs><sodipodi:namedview
   pagecolor="#ffffff"
   bordercolor="#666666"
   borderopacity="1"
   objecttolerance="10"
   gridtolerance="10"
   guidetolerance="10"
   inkscape:pageopacity="0"
   inkscape:pageshadow="2"
   inkscape:window-width="960"
   inkscape:window-height="729"
   id="namedview43"
   showgrid="false"
   inkscape:zoom="0.89988352"
   inkscape:cx="472.83897"
   inkscape:cy="138.35124"
   inkscape:window-x="0"
   inkscape:window-y="0"
   inkscape:window-maximized="0"
   inkscape:current-layer="svg2"
   inkscape:pagecheckerboard="0" />

<path
   inkscape:connector-curvature="0"
   style="fill:#221f1f;stroke-width:1.38309801"
   d="m 763.22417,371.71404 v 42.02439 H 724.8288 v 18.99915 h 38.39537 v 42.025 h 18.20507 v -42.025 h 38.39473 V 413.73843 H 781.42924 V 371.71404 Z M 266.58474,474.76245 H 636.12793 V 325.1002 H 266.58474 Z"
   id="path7" /><g
   clip-path="url(#a)"
   transform="matrix(0.63223056,0,0,-0.63223056,266.58474,474.76245)"
   id="g13"><path
     style="fill:#ffffff"
     inkscape:connector-curvature="0"
     d="m 538.2623,203.3989 -55.568,-81.16 60.44,-88.672 h -55.813 l -33.213,47.47 -33.48,-47.584 h -55.446 c 1.506,3.126 60.695,88.786 60.695,88.786 l -25.228,35.099 -107.02,-0.122 c -4.991,-0.394 -11.11,1.121 -13.614,-4.509 -0.876,-1.865 -1.252,-4.614 -0.246,-6.496 0.867,-2.119 2.872,-4.115 5.113,-4.737 l 3.371,-0.254 h 42.837 c 19.848,-0.499 38.216,-12.852 46.822,-30.713 7.626,-14.989 6.501,-35.467 -1.996,-49.711 -10.734,-18.097 -29.846,-28.218 -50.569,-27.474 h -119.138 c 0,0 -18.237,65.821 -18.36,65.935 l -18.359,-65.935 -43.452,-0.008 -17.484,66.197 -19.112,-66.058 h -48.074 c 0,0 44.204,159.09 47.076,169.587 h 40.597 l 19.104,-70.934 19.48,70.934 39.836,0.009 34.092,-123.526 h 79.425 c 5.48,0.262 13.106,-1.234 15.356,5.498 0.876,3.012 0.132,6.129 -1.996,8.248 -2.005,1.751 -4.5,2.241 -7.118,2.241 l -42.705,0.008 c -20.233,0.622 -40.335,13.86 -47.829,33.331 -8.117,19.489 -3.371,42.848 11.486,57.933 10.489,10.515 22.974,15.759 37.595,16.381 l 140.11,0.122 28.231,-40.702 29.207,40.825 z"
     id="path9" /><path
     style="fill:#221f1f"
     inkscape:connector-curvature="0"
     d="m 653.6779,33.2585 c 2.856,20.12 54.579,32.427 54.579,76.371 0,41.86 -29.125,52.521 -54.579,52.521 -25.445,0 -52.563,-19.28 -52.563,-50.9 v -11.904 h 38.197 v 8.62 c 0,10.874 5.327,17.666 14.778,17.666 9.451,0 13.936,-5.557 13.936,-16.835 0,-25.454 -43.104,-35.719 -61.148,-67.752 -7.736,-13.67 -8.225,-41.045 -8.225,-41.045 h 107.16 v 33.258 z"
     id="path11" /></g><path
   style="fill:#000080;stroke-width:1.11125"
   d="M 26.670118,150.57504 V 76.120963 H 210.58281 394.4955 v 74.454077 74.45408 H 210.58281 26.670118 Z m 61.595539,35.00453 c 3.009989,-10.69583 5.598842,-19.44696 5.753007,-19.44696 0.363056,0 2.718046,8.31481 7.160316,25.28105 l 3.56426,13.61287 h 14.22482 14.22483 l 1.68662,-5.83408 c 0.92764,-3.20875 3.29487,-11.70985 5.26052,-18.89134 1.96564,-7.18148 3.86749,-13.05376 4.22631,-13.0495 0.35884,0.004 2.95723,8.38034 5.77419,18.61352 l 5.12176,18.60578 h 43.77346 c 43.73425,0 43.77816,-0.002 49.0366,-2.61551 6.58653,-3.27315 13.32506,-9.73937 16.62396,-15.95216 2.11879,-3.99029 2.53442,-6.4919 2.5463,-15.32561 0.0122,-9.04908 -0.37737,-11.3235 -2.72736,-15.92402 -3.12313,-6.11406 -8.86937,-11.71195 -15.82189,-15.41338 -4.33927,-2.31018 -6.51458,-2.5753 -23.94335,-2.91809 -17.90594,-0.35217 -19.27682,-0.52892 -20.78318,-2.67954 -1.15333,-1.6466 -1.30009,-2.88668 -0.51523,-4.35321 1.03324,-1.93062 3.27182,-2.0507 38.23039,-2.0507 h 37.13288 l 7.27821,10.17414 c 4.00302,5.59578 7.27822,10.55768 7.27822,11.02644 0,0.46876 -7.67235,12.01748 -17.04965,25.66383 -9.37731,13.64634 -17.93593,26.18671 -19.01914,27.86748 l -1.96949,3.05595 h 18.38139 18.3814 l 9.70725,-13.93601 c 5.33898,-7.66481 10.05929,-14.1536 10.48957,-14.41953 0.43029,-0.26592 5.24217,5.88027 10.69308,13.65821 l 9.91074,14.14171 18.14978,0.30596 c 16.37234,0.276 18.08193,0.1291 17.45682,-1.49992 -0.38114,-0.99323 -8.69057,-13.50887 -18.4654,-27.81253 -9.77483,-14.30366 -17.77243,-26.49109 -17.77243,-27.08318 0,-0.59209 7.75101,-12.34856 17.22446,-26.12549 9.47344,-13.77693 17.22445,-25.29269 17.22445,-25.590579 0,-0.297891 -8.12605,-0.528725 -18.0579,-0.512966 l -18.05789,0.02866 -3.57359,5.249805 c -1.96548,2.88739 -6.00041,8.61067 -8.96652,12.71838 l -5.39291,7.46857 -8.81357,-12.87306 -8.81357,-12.873053 -48.15038,0.640754 c -47.74137,0.635311 -48.19962,0.663295 -53.94657,3.294335 -8.0924,3.704824 -13.41906,8.743014 -17.04059,16.117734 -2.66096,5.41867 -3.09829,7.65275 -3.08491,15.75938 0.0133,8.05521 0.45044,10.27396 2.96963,15.07246 3.53962,6.7422 10.41505,13.21232 17.43698,16.40905 4.39554,2.00106 7.7822,2.39978 23.47237,2.76341 10.17172,0.23574 18.95419,0.93112 19.72478,1.56178 2.07799,1.70067 1.67556,5.07821 -0.76039,6.38189 -1.31408,0.70327 -12.74223,1.15035 -29.40521,1.15035 h -27.25575 l -1.5625,-5.27846 c -0.85936,-2.90315 -5.71732,-20.4201 -10.79543,-38.92656 l -9.23293,-33.648092 -13.3461,0.310448 -13.34611,0.310448 -5.82754,21.113846 c -3.20515,11.61261 -5.86258,20.74391 -5.9054,20.29178 -0.0776,-0.81975 -9.60401,-36.29406 -10.75516,-40.050074 -0.54481,-1.777627 -1.96955,-1.946645 -14.051032,-1.666882 l -13.444744,0.31133 -14.07295,50.610066 c -7.740123,27.83554 -14.41268,51.96366 -14.827906,53.61806 l -0.754954,3.00797 H 66.934167 82.79295 Z"
   id="path901"
   transform="translate(241,249.1)" /><path
   style="fill:#000080;stroke-width:1.11125"
   d="m 404.53556,223.08443 c 0.0924,-4.63549 3.18748,-19.07103 4.72518,-22.0385 3.0055,-5.80003 10.68851,-13.54906 22.38949,-22.58187 12.93389,-9.98459 16.55593,-14.76321 16.55593,-21.84253 0,-7.07039 -2.68951,-10.49151 -8.24788,-10.49151 -2.47085,0 -5.40711,0.48951 -6.52503,1.0878 -2.43551,1.30345 -4.48885,6.72741 -4.48885,11.85746 v 3.72357 h -11.11255 -11.11254 v -7.5606 c 0,-17.14307 12.5837,-29.90728 30.64772,-31.08734 15.5188,-1.01379 27.37799,5.42345 32.67472,17.73602 2.02926,4.71713 2.38259,7.267 2.0368,14.69863 -0.64833,13.9335 -3.62257,18.34113 -24.9629,36.99344 -4.33446,3.7885 -8.1491,7.91403 -8.47699,9.16786 -0.58144,2.22344 -0.18751,2.27967 15.96864,2.27967 h 16.56479 v 10.0013 10.00129 h -33.33765 c -31.02407,0 -33.33495,-0.13495 -33.29888,-1.94469 z"
   id="path940"
   transform="translate(241,249.1)" /><path
   style="fill:#000080;stroke-width:1.11125"
   d="m 522.28982,203.91528 v -21.11384 h -18.89134 -18.89133 v -8.89004 -8.89004 h 18.89133 18.89134 v -21.11385 -21.11384 h 8.89004 8.89004 v 21.11384 21.11385 h 18.89133 18.89133 v 8.89004 8.89004 H 558.96123 540.0699 v 21.11384 21.11384 h -8.89004 -8.89004 z"
   id="path979"
   transform="translate(241,249.1)" /></svg>
