<?xml version="1.0" encoding="UTF-8" standalone="no"?>
<!-- Generator: Adobe Illustrator 19.0.0, SVG Export Plug-In . SVG Version: 6.00 Build 0)  -->

<svg
   version="1.1"
   id="svg2"
   x="0px"
   y="0px"
   viewBox="241 249.1 602.27939 306.79376"
   xml:space="preserve"
   sodipodi:docname="msx2.svg"
   width="602.27942"
   height="306.79376"
   inkscape:version="1.1 (c68e22c387, 2021-05-23)"
   xmlns:inkscape="http://www.inkscape.org/namespaces/inkscape"
   xmlns:sodipodi="http://sodipodi.sourceforge.net/DTD/sodipodi-0.dtd"
   xmlns="http://www.w3.org/2000/svg"
   xmlns:svg="http://www.w3.org/2000/svg"
   xmlns:rdf="http://www.w3.org/1999/02/22-rdf-syntax-ns#"
   xmlns:cc="http://creativecommons.org/ns#"
   xmlns:dc="http://purl.org/dc/elements/1.1/"><metadata
   id="metadata47"><rdf:RDF><cc:Work
       rdf:about=""><dc:format>image/svg+xml</dc:format><dc:type
         rdf:resource="http://purl.org/dc/dcmitype/StillImage" /><dc:title /></cc:Work></rdf:RDF></metadata><defs
   id="defs45"><clipPath
     id="a"><path
       inkscape:connector-curvature="0"
       d="M 0,236.721 H 875.059 V 0 H 0 Z"
       id="path2" /></clipPath></defs><sodipodi:namedview
   pagecolor="#ffffff"
   bordercolor="#666666"
   borderopacity="1"
   objecttolerance="10"
   gridtolerance="10"
   guidetolerance="10"
   inkscape:pageopacity="0"
   inkscape:pageshadow="2"
   inkscape:window-width="1920"
   inkscape:window-height="1017"
   id="namedview43"
   showgrid="false"
   inkscape:zoom="0.89988352"
   inkscape:cx="247.25422"
   inkscape:cy="138.35124"
   inkscape:window-x="-8"
   inkscape:window-y="712"
   inkscape:window-maximized="1"
   inkscape:current-layer="svg2"
   inkscape:pagecheckerboard="0" />

<g
   id="g928"
   style="fill:#231f20;fill-opacity:1"><path
     inkscape:connector-curvature="0"
     style="fill:#231f20;stroke-width:0.97633266;fill-opacity:1"
     d="M 306.0343,322.92436 H 691.33928 V 483.14209 H 306.0343 Z"
     id="path2-6" /></g><path
   style="fill:#ffffff;stroke-width:0.678776"
   inkscape:connector-curvature="0"
   d="m 663.63893,344.29943 -37.71823,55.08947 41.02523,60.18843 H 629.0614 l -22.54419,-32.2215 -22.72542,32.29888 h -37.63542 c 1.02223,-2.12185 41.19831,-60.26581 41.19831,-60.26581 l -17.12416,-23.82437 -72.64262,0.0828 c -3.38777,0.26744 -7.5412,-0.7609 -9.24086,3.06061 -0.5946,1.26591 -0.84982,3.13187 -0.16698,4.40933 0.5885,1.43832 1.94945,2.79316 3.47059,3.21536 l 2.28815,0.17241 h 29.07673 c 13.47235,0.33871 25.94011,8.72363 31.78166,20.84725 5.17634,10.17417 4.41272,24.07415 -1.35484,33.74264 -7.28598,12.28381 -20.25875,19.1537 -34.32503,18.64869 h -80.86803 c 0,0 -12.37884,-44.67772 -12.46232,-44.7551 l -12.46166,44.7551 -29.49417,0.005 -11.86773,-44.93294 -12.97276,44.83859 h -32.63149 c 0,0 30.00462,-107.98649 31.95407,-115.1116 h 27.55627 l 12.96734,48.1483 13.22256,-48.1483 27.03972,-0.006 23.14084,83.8465 h 53.91179 c 3.71969,-0.17784 8.89604,0.83761 10.42328,-3.73191 0.59461,-2.04448 0.0896,-4.16022 -1.35483,-5.59855 -1.36095,-1.18854 -3.0545,-1.52114 -4.83153,-1.52114 l -28.98713,-0.005 c -13.73368,-0.4222 -27.37844,-9.40783 -32.46519,-22.62428 -5.50962,-13.22867 -2.28815,-29.0842 7.79643,-39.32354 7.11968,-7.13733 15.5942,-10.69683 25.51858,-11.11903 l 95.10332,-0.0828 19.16253,27.62754 19.82501,-27.71103 z"
   id="path9" /><path
   style="fill:#003e99;stroke-width:0.678776;fill-opacity:1"
   inkscape:connector-curvature="0"
   d="m 741.98029,459.78667 c 1.93858,-13.65698 37.04692,-22.01068 37.04692,-51.83881 0,-28.41357 -19.76936,-35.65 -37.04692,-35.65 -17.27146,0 -35.67851,13.0868 -35.67851,34.5497 v 8.08015 h 25.92721 v -5.85105 c 0,-7.38101 3.61584,-11.99126 10.03095,-11.99126 6.41511,0 9.45943,3.77196 9.45943,11.4272 0,17.27756 -29.25797,24.2452 -41.50581,45.98844 -5.25101,9.27886 -5.58293,27.86036 -5.58293,27.86036 h 72.73765 v -22.57473 z"
   id="path11" /><path
   style="fill:#231f20;fill-opacity:1;stroke-width:1.11125"
   d="M 66.119668,153.90881 V 74.45408 H 257.81114 449.50262 v 79.45473 79.45473 H 257.81114 66.119668 Z m 58.415062,36.27642 c 3.24592,-11.21867 6.0878,-20.58372 6.3153,-20.81122 0.22751,-0.2275 2.88211,9.07642 5.89913,20.6754 l 5.48548,21.08903 h 15.25171 15.25171 l 1.73201,-5.95791 c 0.9526,-3.27684 3.64442,-12.89711 5.98182,-21.37835 l 4.2498,-15.42045 1.78893,6.0986 c 0.98391,3.35423 3.68176,12.9939 5.99521,21.4215 l 4.20629,15.3229 46.67271,-0.32096 c 52.9602,-0.3642 51.65486,-0.15587 62.3152,-9.94542 7.74598,-7.11325 11.58126,-15.9118 11.58238,-26.57118 5e-4,-4.81364 -0.76287,-10.65573 -1.78391,-13.65233 -2.42857,-7.12747 -11.23313,-16.51781 -19.11782,-20.38975 -6.10527,-2.99812 -7.02443,-3.11837 -26.67622,-3.49013 l -20.35308,-0.38503 -1.27643,-2.80147 c -1.11011,-2.43644 -0.93981,-3.07404 1.30703,-4.89343 2.42102,-1.96041 5.00417,-2.08931 41.07648,-2.04963 l 38.493,0.0423 8.0566,11.51101 c 4.43113,6.33106 8.0566,11.75808 8.0566,12.06006 0,0.30198 -9.00117,13.67382 -20.00259,29.7152 -11.00143,16.04138 -20.00259,29.59777 -20.00259,30.1253 0,0.52752 8.62612,0.95251 19.16915,0.94439 l 19.16914,-0.0148 10.472,-15.04082 c 5.7596,-8.27245 10.84543,-15.27162 11.30186,-15.5537 0.45641,-0.28208 5.70973,6.49293 11.67405,15.05558 l 10.84419,15.56848 h 19.3671 c 15.25137,0 19.2514,-0.30144 18.82276,-1.4185 -0.29939,-0.78017 -9.35406,-14.32909 -20.12149,-30.10871 -10.76743,-15.77962 -19.57715,-28.95044 -19.57715,-29.26848 0,-0.31804 8.04046,-12.33427 17.8677,-26.70274 9.82724,-14.36848 18.13644,-26.824796 18.46488,-27.680715 0.50049,-1.304245 -2.51867,-1.506896 -18.64675,-1.251608 l -19.24393,0.30461 -8.73554,12.223803 c -4.80456,6.72309 -9.15248,12.64674 -9.66204,13.16366 -0.50957,0.51692 -5.10415,-5.12271 -10.21018,-12.53251 l -9.28369,-13.472367 -51.78804,0.308707 -51.78802,0.308707 -7.60738,3.889392 c -14.25247,7.286801 -21.32318,19.871881 -20.24148,36.027571 0.92088,13.75379 8.36923,24.6599 20.85505,30.53667 5.6761,2.6716 7.53816,2.91678 26.11449,3.43858 11.00143,0.30903 20.62767,0.96643 21.39166,1.46089 2.14227,1.3865 1.65745,6.10231 -0.76039,7.39629 -1.32671,0.71004 -13.43277,1.15035 -31.62792,1.15035 h -29.47848 l -1.13969,-4.1672 c -0.62682,-2.29197 -5.83226,-21.16941 -11.56765,-41.94988 l -10.42796,-37.782663 -13.94574,-0.310356 -13.94573,-0.310355 -1.68195,5.866634 c -0.92507,3.22664 -3.83529,13.85751 -6.46716,23.62414 -2.63186,9.76664 -4.94117,17.01758 -5.1318,16.1132 -0.19063,-0.90438 -2.9928,-11.39558 -6.22704,-23.31379 l -5.88044,-21.669473 h -14.3042 -14.30419 l -15.27364,55.007123 c -8.400497,30.25391 -15.586098,56.39555 -15.968,58.09253 l -0.694367,3.08539 16.905797,-0.30726 16.9058,-0.30727 z"
   id="path72295"
   transform="translate(241,249.1)" /><path
   style="fill:#003e99;fill-opacity:1;stroke-width:1.11125"
   d="M 66.119668,153.90881 V 74.45408 H 257.81114 449.50262 v 79.45473 79.45473 H 257.81114 66.119668 Z m 58.366682,36.34213 c 3.20023,-11.18251 6.03663,-20.54988 6.30311,-20.81636 0.26647,-0.26647 2.952,9.00584 5.96784,20.60514 l 5.48333,21.08964 15.24871,0.004 15.24872,0.004 1.66387,-5.83409 c 0.91513,-3.20875 3.61271,-12.83499 5.99462,-21.39166 l 4.33076,-15.55757 1.64423,5.55628 c 0.90433,3.05595 3.59642,12.70482 5.98241,21.44194 l 4.33817,15.88568 46.67271,-0.34371 c 45.29257,-0.33355 46.82779,-0.41559 51.9175,-2.77451 7.06074,-3.27243 14.87191,-10.67692 18.45686,-17.49596 2.61204,-4.96842 2.9459,-6.85575 2.95651,-16.71344 0.01,-9.62154 -0.354,-11.82889 -2.71551,-16.45141 -3.38849,-6.63278 -11.78113,-14.60946 -18.70061,-17.77374 -4.62466,-2.11486 -7.63912,-2.44543 -25.59512,-2.80675 l -20.35308,-0.40957 -1.27643,-2.80146 c -1.11011,-2.43645 -0.93981,-3.07405 1.30703,-4.89344 2.42102,-1.96041 5.00417,-2.0893 41.07648,-2.04963 l 38.493,0.0423 8.0566,11.51101 c 4.43113,6.33106 8.0566,11.77051 8.0566,12.08766 0,0.31716 -8.76814,13.37394 -19.48476,29.01507 -10.71662,15.64114 -19.77128,29.1851 -20.12148,30.0977 -0.54994,1.4331 1.99242,1.65426 18.65131,1.62246 l 19.28804,-0.0368 10.50916,-15.04172 c 5.78004,-8.27295 10.86588,-15.26219 11.30186,-15.53164 0.43597,-0.26945 5.67257,6.5159 11.63689,15.07854 l 10.84419,15.56861 h 19.24821 c 10.5865,0 19.24819,-0.29563 19.24819,-0.65694 0,-0.36132 -9.01956,-13.95457 -20.04345,-30.20723 -11.02391,-16.25265 -19.83211,-30.08386 -19.5738,-30.73601 0.25831,-0.65215 8.33721,-12.68722 17.95311,-26.74459 9.6159,-14.05737 17.72752,-26.183944 18.0258,-26.947932 0.42095,-1.078143 -3.69799,-1.389069 -18.40147,-1.389069 h -18.94382 l -9.59069,13.352061 c -5.27487,7.34363 -9.94867,13.1308 -10.38622,12.86038 -0.43754,-0.27042 -4.77774,-6.2953 -9.64487,-13.38862 l -8.84932,-12.89695 -51.67336,0.314378 -51.67335,0.314379 -6.33026,2.967253 c -7.7141,3.61592 -15.08712,10.77023 -18.73121,18.17557 -2.30868,4.69163 -2.71909,7.12339 -2.71456,16.08422 0.004,9.27297 0.36426,11.23811 2.9565,16.15781 3.59718,6.82695 11.52271,14.33392 18.51241,17.53473 4.4974,2.0595 7.88478,2.45699 25.19845,2.95692 11.00143,0.31767 20.62767,0.98214 21.39166,1.4766 2.14227,1.3865 1.65745,6.10231 -0.76039,7.39629 -1.32652,0.70994 -13.42158,1.15035 -31.59191,1.15035 h -29.44245 l -1.68224,-5.83408 c -0.92523,-3.20875 -5.73018,-20.586 -10.67765,-38.61611 -4.94749,-18.03011 -9.51542,-34.40723 -10.15098,-36.393602 l -1.15555,-3.611579 H 184.43437 170.6821 l -0.97732,3.611579 c -8.49057,31.376162 -11.95437,43.237822 -12.23621,41.902482 -0.188,-0.89072 -2.98802,-11.37075 -6.22226,-23.28896 l -5.88044,-21.669473 h -14.28132 -14.28132 l -15.28575,55.007123 c -8.407154,30.25391 -15.603049,56.39555 -15.990872,58.09253 l -0.705135,3.08539 16.923137,-0.30726 16.92314,-0.30727 z"
   id="path72334"
   transform="translate(241,249.1)" /></svg>
