<?xml version="1.0" encoding="UTF-8" standalone="no"?>
<svg
   width="554"
   height="150"
   version="1.1"
   id="svg10"
   sodipodi:docname="msx2+-w.svg"
   inkscape:version="1.1 (c68e22c387, 2021-05-23)"
   xmlns:inkscape="http://www.inkscape.org/namespaces/inkscape"
   xmlns:sodipodi="http://sodipodi.sourceforge.net/DTD/sodipodi-0.dtd"
   xmlns="http://www.w3.org/2000/svg"
   xmlns:svg="http://www.w3.org/2000/svg">
  <defs
     id="defs14" />
  <sodipodi:namedview
     id="namedview12"
     pagecolor="#ffffff"
     bordercolor="#666666"
     borderopacity="1.0"
     inkscape:pageshadow="2"
     inkscape:pageopacity="0.0"
     inkscape:pagecheckerboard="0"
     showgrid="false"
     inkscape:zoom="1.9097473"
     inkscape:cx="276.73818"
     inkscape:cy="75.140831"
     inkscape:window-width="1920"
     inkscape:window-height="1017"
     inkscape:window-x="-8"
     inkscape:window-y="712"
     inkscape:window-maximized="1"
     inkscape:current-layer="svg10" />
  <g
     fill="none"
     fill-rule="evenodd"
     id="g8">
    <path
       fill="#6D7278"
       d="M497.224 149.762v-42.024h-38.395V88.739h38.395V46.714h18.206v42.025h38.394v18.999H515.43v42.024zM.585.1h369.543v149.662H.585z"
       id="path2" />
    <path
       fill="#FFF"
       fill-rule="nonzero"
       d="m340.89 20.726-35.13 51.311L343.97 128.1h-35.287l-20.998-30.012-21.167 30.084h-35.055c.953-1.977 38.374-56.134 38.374-56.134l-15.95-22.19-67.662.077c-3.155.249-7.024-.709-8.607 2.85-.554 1.18-.791 2.918-.155 4.108.548 1.34 1.815 2.601 3.232 2.994l2.132.161h27.082c12.549.315 24.162 8.125 29.603 19.418 4.821 9.476 4.11 22.423-1.262 31.429-6.787 11.441-18.87 17.84-31.971 17.37h-75.323s-11.53-41.615-11.608-41.687l-11.607 41.686-27.472.005-11.054-41.851-12.083 41.764H26.74S54.686 27.589 56.502 20.953H82.17l12.078 44.846 12.316-44.846 25.185-.006 21.554 78.097h50.215c3.465-.166 8.286.78 9.709-3.476.554-1.905.083-3.875-1.262-5.215-1.268-1.107-2.845-1.417-4.5-1.417l-27-.005c-12.792-.393-25.5-8.763-30.239-21.073-5.132-12.321-2.13-27.09 7.262-36.627 6.632-6.648 14.525-9.963 23.769-10.356l88.582-.077 17.848 25.733 18.466-25.811 34.739.006Z"
       id="path4" />
    <path
       fill="#6D7278"
       fill-rule="nonzero"
       d="M414.86 128.251c1.806-12.72 34.507-20.501 34.507-48.284 0-26.465-18.414-33.205-34.507-33.205-16.087 0-33.232 12.19-33.232 32.18v7.526h24.15v-5.45c0-6.874 3.367-11.168 9.343-11.168 5.975 0 8.81 3.513 8.81 10.643 0 16.093-27.251 22.583-38.66 42.835-4.89 8.643-5.2 25.95-5.2 25.95h67.75v-21.027h-32.96Z"
       id="path6" />
  </g>
  <path
     style="fill:#000080;fill-opacity:0.941176;stroke-width:0.523629"
     d="M 1.047259,75.140832 V 0.52362949 H 185.36484 369.68242 V 75.140832 149.75803 H 185.36484 1.047259 Z m 62.037705,33.381378 c 3.126267,-10.871856 5.821781,-19.930593 5.990034,-20.13052 0.168247,-0.199933 2.675966,8.636315 5.5727,19.63611 l 5.266792,19.99961 h 14.103588 14.103582 l 5.48018,-19.76701 c 3.0141,-10.87186 5.60782,-19.765398 5.76384,-19.763419 0.15601,0.0021 2.75781,8.955174 5.78177,19.895979 l 5.49811,19.89238 41.15206,0.002 c 39.24682,0.002 41.33898,-0.0459 45.18948,-1.03066 9.47346,-2.4229 18.01838,-9.27319 22.234,-17.82455 8.80382,-17.858512 1.22868,-38.845336 -16.91779,-46.87057 -5.4979,-2.431589 -9.48746,-2.867898 -26.22227,-2.867898 h -15.50943 l -1.5306,-1.530611 c -2.29668,-2.296676 -1.82858,-6.066432 0.9081,-7.313349 0.89592,-0.408206 12.0837,-0.581371 37.56105,-0.581371 h 36.28508 l 7.84013,10.901123 7.84011,10.901123 -7.03965,10.174964 c -15.06102,21.768849 -30.47483,44.404929 -30.78177,45.204809 -0.2913,0.75911 1.36343,0.83877 17.42256,0.83877 h 17.74444 l 10.14498,-14.41899 c 5.57975,-7.93044 10.32694,-14.531443 10.54934,-14.668885 0.22239,-0.137442 4.98181,6.292195 10.5765,14.288085 l 10.17216,14.53798 17.88027,0.13778 c 9.83414,0.0758 17.88026,-0.009 17.88026,-0.18861 0,-0.17952 -8.48279,-12.77927 -18.85066,-27.999447 -10.36786,-15.22017 -18.85066,-27.796332 -18.85066,-27.947016 0,-0.150685 7.65819,-11.451825 17.01821,-25.11364 9.36001,-13.661817 17.16111,-25.212101 17.33579,-25.667297 0.28559,-0.744252 -1.44642,-0.82763 -17.19245,-0.82763 h -17.51004 l -7.54929,10.576331 c -4.15211,5.816982 -8.2609,11.571928 -9.13065,12.788768 l -1.58137,2.212437 -8.88742,-12.812148 -8.88743,-12.812148 -46.60682,0.172688 c -51.69664,0.191546 -48.64457,-0.01021 -56.55579,3.738529 -9.16659,4.343593 -15.97161,12.9454 -18.38858,23.243854 -1.05373,4.489853 -0.7554,13.856418 0.56256,17.66201 2.0876,6.027955 4.15403,9.389457 8.39619,13.658258 3.31887,3.339709 5.14435,4.692176 8.65088,6.409261 7.29648,3.57296 8.6019,3.757623 26.56363,3.757623 16.86895,0 18.76029,0.240252 19.99076,2.539394 0.84502,1.578942 0.68397,4.005875 -0.35058,5.282882 -0.50399,0.622109 -1.85888,1.349493 -3.01087,1.616408 -1.15198,0.266909 -14.14214,0.490913 -28.86702,0.497783 l -26.7725,0.01249 -1.47114,-5.367203 C 151.2702,90.64681 146.44822,73.15104 141.36382,54.719282 l -9.24436,-33.512288 -12.88835,-0.140005 -12.88835,-0.140004 -0.73239,2.496337 c -0.40282,1.372986 -3.06404,11.036719 -5.913823,21.474963 C 96.846766,55.336531 94.397306,63.877232 94.253308,63.87763 94.10931,63.878027 91.403879,54.218388 88.24124,42.411764 L 82.490987,20.94518 H 69.344646 56.198305 L 41.627351,73.439036 C 33.613326,102.31066 26.949887,126.46307 26.819707,127.11106 l -0.236689,1.17816 h 15.408914 15.408914 z"
     id="path905" />
  <path
     style="fill:#000080;fill-opacity:0.941176;stroke-width:0.523629"
     d="m 380.48431,145.69991 c 1.71467,-20.90557 5.9158,-27.88986 25.94558,-43.13395 10.25206,-7.802547 13.95421,-11.324806 15.86358,-15.092768 2.6065,-5.143692 2.2796,-12.557273 -0.67812,-15.378592 -2.86185,-2.729861 -7.23582,-3.231967 -11.09563,-1.273712 -3.291,1.669673 -4.60562,4.465953 -5.04658,10.734405 l -0.34073,4.843573 H 393.42915 381.7259 l 0.0183,-4.581758 c 0.0437,-10.964814 2.80815,-18.253471 9.38921,-24.755403 7.29066,-7.203009 15.61978,-10.27691 26.46114,-9.765614 10.08679,0.475711 17.55286,3.376697 23.0397,8.952218 5.64806,5.73936 8.23585,12.946886 8.28719,23.081559 0.0444,8.75215 -2.33417,15.188438 -8.23639,22.287842 -2.72751,3.28076 -5.02577,5.32245 -16.66484,14.80455 -5.57336,4.5405 -8.39975,7.80534 -9.07042,10.4775 l -0.34874,1.38946 h 16.5511 16.55109 v 10.47259 10.47259 h -33.7544 -33.7544 z"
     id="path944" />
  <path
     style="fill:#000080;fill-opacity:0.941176;stroke-width:0.523629"
     d="m 497.44802,128.55104 v -21.20699 h -19.11248 -19.11248 v -9.163521 -9.163516 h 19.11248 19.11248 V 68.071834 47.126654 h 8.9017 8.9017 v 20.94518 20.945179 h 19.11247 19.11248 v 9.163516 9.163521 h -19.11248 -19.11247 v 21.20699 21.20699 h -8.9017 -8.9017 z"
     id="path983" />
  <path
     style="fill:#0000ff;stroke-width:0.523629"
     d="M 1.047259,75.140831 V 0.52362949 H 185.36484 369.68242 V 75.140831 149.75803 H 185.36484 1.047259 Z M 59.2461,122.79111 c 5.02622,-17.71197 9.558862,-32.726838 9.879475,-32.726838 0.317749,0 2.041993,6.173314 9.543006,34.166828 l 1.0874,4.05812 h 14.297478 14.297481 l 0.58947,-2.22542 c 0.3242,-1.22398 2.48461,-8.94097 4.80091,-17.14887 2.3163,-8.20789 4.44511,-15.807062 4.7307,-16.887048 0.28559,-1.079985 0.68743,-1.96361 0.89296,-1.96361 0.20554,0 2.54741,7.834806 5.20417,17.410678 2.65676,9.57588 5.07275,18.18428 5.36885,19.12979 l 0.53839,1.71911 43.0222,-0.14822 43.0222,-0.14822 3.59702,-1.44005 c 5.26201,-2.10661 9.37528,-4.78011 13.05069,-8.48256 3.81497,-3.84301 6.19304,-7.63088 8.12507,-12.94188 1.26435,-3.47558 1.39714,-4.53737 1.39714,-11.171427 0,-6.634056 -0.13279,-7.695845 -1.39714,-11.171426 -1.99147,-5.474394 -4.36757,-9.232897 -8.31899,-13.158929 -3.94125,-3.915932 -8.65906,-6.8738 -13.57382,-8.51021 -3.16039,-1.052275 -4.66562,-1.147848 -21.06513,-1.337507 l -17.66154,-0.204252 -1.32003,-1.568768 c -1.60781,-1.91076 -1.76125,-4.712602 -0.33614,-6.13771 0.92988,-0.929891 2.57509,-1.003871 29.97778,-1.348005 15.94665,-0.200264 32.51307,-0.28769 36.81429,-0.194279 l 7.82038,0.169839 7.71565,10.72136 c 4.24361,5.896754 7.57044,10.96287 7.39296,11.258034 -0.17748,0.29517 -6.47718,9.490738 -13.99931,20.434594 -17.28207,25.143446 -23.29544,34.128486 -23.29544,34.807536 0,0.35732 6.01078,0.53293 17.93431,0.52395 l 17.93431,-0.0135 1.83271,-2.70657 c 5.02886,-7.42673 17.89935,-25.30129 18.32372,-25.44802 0.54298,-0.187746 3.56859,3.85183 13.69904,18.28998 l 6.9404,9.89162 h 17.95792 c 9.87686,0 17.95793,-0.1832 17.95793,-0.40711 0,-0.22392 -0.3119,-0.87191 -0.69312,-1.43998 -0.38122,-0.56808 -8.7462,-12.96896 -18.58885,-27.557513 C 314.89996,84.296064 306.84688,72.19308 306.84688,71.9891 c 0,-0.20398 6.67601,-10.181787 14.83559,-22.172898 19.53959,-28.714925 19.20033,-28.205286 19.20033,-28.842291 0,-0.376718 -5.6196,-0.54859 -17.6725,-0.540502 l -17.67249,0.01186 -8.90171,12.510258 c -4.89593,6.880642 -8.95506,12.457502 -9.02029,12.393021 -0.0652,-0.06448 -4.00903,-5.742495 -8.76402,-12.617812 l -8.64542,-12.500576 -42.81348,0.125831 c -23.54742,0.06921 -45.45532,0.334881 -48.68421,0.590386 -9.23941,0.73112 -15.38226,3.697964 -21.85234,10.554124 -6.52697,6.916459 -9.19282,13.801573 -9.19282,23.74241 0,10.408387 2.39347,16.246113 9.68423,23.620015 3.70903,3.751334 5.55384,5.174711 8.6428,6.668406 5.93702,2.870914 9.05732,3.480282 18.04432,3.523922 4.33143,0.02105 12.04297,0.206697 17.13674,0.412588 10.93341,0.441923 11.57913,0.71343 11.31552,4.75786 -0.27471,4.214851 0.48921,4.109601 -31.26471,4.307455 L 153.77848,98.704158 147.4159,75.664461 C 143.91648,62.992627 139.08643,45.496857 136.68246,36.784971 L 132.31162,20.94518 h -13.14355 -13.14355 l -5.71308,20.683364 c -3.142202,11.375851 -5.86175,20.683365 -6.043444,20.683365 -0.1817,0 -2.633244,-8.541706 -5.447889,-18.981569 C 86.005468,32.890477 83.464954,23.579025 83.174523,22.638223 l -0.52806,-1.710547 -13.403878,0.139659 -13.403883,0.139659 -1.148419,4.189036 C 54.05865,27.7 47.994904,49.613894 41.215289,74.093572 34.435674,98.573251 28.295137,120.78512 27.569652,123.45328 l -1.319063,4.8512 15.75479,-0.13854 15.754792,-0.13853 z"
     id="path882" />
  <path
     style="fill:#0000ff;stroke-width:0.523629"
     d="m 380.88932,144.45308 c 1.06329,-14.08514 4.50513,-22.39237 12.65366,-30.5409 1.98298,-1.98298 8.08798,-7.1725 13.56666,-11.53226 11.29504,-8.988216 14.41563,-12.173944 15.95484,-16.287839 1.50379,-4.01923 1.46035,-9.193183 -0.10276,-12.241534 -1.65272,-3.223089 -3.87478,-4.318717 -8.30495,-4.094907 -5.70903,0.288417 -8.40116,3.056512 -9.09869,9.355435 -0.17279,1.560317 -0.43622,3.838381 -0.58541,5.062365 l -0.27124,2.225425 h -11.48279 -11.48278 l 0.31092,-5.629017 c 0.17101,-3.095959 0.64411,-7.13394 1.05135,-8.973291 2.16519,-9.779535 10.67278,-18.896741 21.14383,-22.658907 3.04526,-1.094135 4.28566,-1.220258 11.78167,-1.197955 7.74234,0.02304 8.69157,0.13379 12.50958,1.459581 5.43382,1.886873 8.31782,3.629878 11.82848,7.148799 5.00415,5.015928 7.50937,11.121565 8.18052,19.937319 0.42483,5.580277 -0.41052,11.051541 -2.42685,15.894977 -2.48934,5.979658 -6.97471,11.102919 -17.1284,19.564339 -10.02572,8.35476 -13.26282,11.66823 -14.11639,14.44944 l -0.58162,1.89507 h 16.70713 16.70713 v 10.47259 10.47259 h -33.58742 -33.58741 z"
     id="path921" />
  <path
     style="fill:#0000ff;stroke-width:0.523629"
     d="m 497.44801,128.55104 v -21.207 h -19.11247 -19.11248 v -9.163511 -9.163516 h 19.11248 19.11247 V 68.071833 47.126654 h 8.9017 8.90171 v 20.945179 20.94518 h 19.11247 19.11248 v 9.163516 9.163511 h -19.11248 -19.11247 v 21.207 21.20699 h -8.90171 -8.9017 z"
     id="path960" />
</svg>
