<?xml version="1.0" encoding="UTF-8" standalone="no"?>
<svg
   height="156.15384"
   viewBox="0 0 564.2 202.99999"
   width="434"
   version="1.1"
   id="svg26"
   sodipodi:docname="msxturbor.svg"
   inkscape:version="1.1 (c68e22c387, 2021-05-23)"
   xmlns:inkscape="http://www.inkscape.org/namespaces/inkscape"
   xmlns:sodipodi="http://sodipodi.sourceforge.net/DTD/sodipodi-0.dtd"
   xmlns="http://www.w3.org/2000/svg"
   xmlns:svg="http://www.w3.org/2000/svg">
  <defs
     id="defs30" />
  <sodipodi:namedview
     id="namedview28"
     pagecolor="#ffffff"
     bordercolor="#666666"
     borderopacity="1.0"
     inkscape:pageshadow="2"
     inkscape:pageopacity="0.0"
     inkscape:pagecheckerboard="0"
     showgrid="false"
     inkscape:zoom="2.437788"
     inkscape:cx="183.97826"
     inkscape:cy="78.144612"
     inkscape:window-width="1366"
     inkscape:window-height="705"
     inkscape:window-x="-8"
     inkscape:window-y="-8"
     inkscape:window-maximized="1"
     inkscape:current-layer="svg26" />
  <text
     fill="#ef00eb"
     font-family="TrasksHand"
     font-size="2"
     stroke="#0105ff"
     stroke-width="2.5"
     x="265.46603"
     y="141.85243"
     id="text4"><tspan
       fill="#fafafa"
       fill-opacity=".4"
       font-size="2"
       stroke="none"
       stroke-width="2.5"
       x="265.46603"
       y="141.85243"
       id="tspan2">John Loreth 2022</tspan></text>
  <path
     d="m0 0h564.20001v203h-564.20001z"
     fill="#221f1f"
     id="path6" />
  <g
     fill="#fff"
     id="g22">
    <path
       d="m345.06161 7.822202h207.9549v185.32698h-207.9549z"
       id="path8" />
    <path
       d="m33.211293 115.95381 22.706785-90.342955h21.05538l10.940539 39.433765 11.353395-39.433765h19.816828l18.57828 66.557519 45.32805-.08643c4.75826-.04686 5.05012-9.992208-.35239-9.989612l-26.39739-.356171c-11.33557.110845-23.28885-12.28446-22.70677-28.79291.12093-15.142336 13.18452-27.066752 29.89625-27.062645l67.33006-.06111 17.1333 23.5768 16.72044-23.785442 27.86742.208642-30.55095 43.398005 33.02806 47.056699-27.72146-.0865-19.22258-27.001534-18.28636 27.001534-28.28026-.0253 32.20233-46.527676-14.03691-20.655779-58.52891.08642c-6.38756.05918-6.15335 10.215994.0501 10.02541l24.6605.381492c10.42239.06822 25.10075 11.015226 24.73561 28.105863.15937 19.86913-17.54593 28.94611-26.07004 28.46204l-64.55064.0865-10.73416-40.649843-10.734113 40.563413h-20.375644l-11.207425-40.354764-9.847955 40.415874z"
       id="path10" />
    <path
       d="m41.803294 129.2459v12.65934h-12.783705v8.06996h12.826308v24.00521c.306492 3.62058 3.996931 5.25697 7.605654 4.92734h27.686075v-8.03865h-13.821178c-1.66119-.0929-2.988027 1.06588-3.063795-4.59822v-16.27077h16.831095v-8.20393h-17.047408v-12.82024z"
       id="path12" />
    <path
       d="m87.635928 142.26339v30.1787c.0054 5.44583 2.2784 6.82326 7.490274 6.6885h38.926928v-37.11562h-18.02461v27.5235h-11.08455v-27.49185z"
       id="path14" />
    <path
       d="m164.92748 178.90775-.00071-25.63577c-.0164-3.21629-.61365-3.31903 2.64672-3.20674h14.44985v-8.01391h-23.52681c-3.94401.0647-11.24022 2.30681-11.18962 8.02956l.00071 29.0497z"
       id="path16" />
    <path
       d="m190.53906 128.99023v49.91797h34.40235c.0505 0 12.84087 3.47392 12.53125-10.74804v-14.67188c0-14.53852-12.64844-11.47266-12.64844-11.47266h-16.81055v-13.02539zm17.47461 20.55079h10.89844v20.51171h-10.89844z"
       id="path18" />
    <path
       d="m260.76172 142.01562c-6.5684 0-11.85547 5.28707-11.85547 11.85547v13.17969c0 6.5684 5.28707 11.85742 11.85547 11.85742h21.54101c6.5684 0 11.85743-5.28902 11.85743-11.85742v-13.17969c0-6.5684-5.28903-11.85547-11.85743-11.85547zm5.27344 7.5254h10.89843v20.51171h-10.89843z"
       id="path20" />
  </g>
  <path
     d="m391.63281 26.027344v152.880856h33.89649v-61.2539h50.62304v61.2539h35.15039v-62.22265l-36.59961-27.787112h28.29493v-37.105469l-34.26367-25.765625zm33.25781 31.613281h42.16993v28.501953h-42.16993z"
     fill="#221f1f"
     id="path24" />
  <path
     style="fill:#000080;stroke-width:0.410208"
     d="M 0,78.144612 V 0.20510397 H 217 434 V 78.144612 156.08412 H 217 0 Z M 425.79584,77.324197 V 5.9480151 H 345.60019 265.40454 V 77.324197 148.70038 h 80.19565 80.19565 z M 59.480151,134.33042 v -3.26898 h -6.128908 c -4.456914,0 -6.217272,-0.13989 -6.452801,-0.51276 -0.178141,-0.28202 -0.394214,-3.7893 -0.480161,-7.79395 l -0.156268,-7.2812 h 6.609069 6.609069 v -3.28166 -3.28166 h -6.563327 -6.563327 v -4.9225 -4.922493 h -7.178639 -7.178639 v 4.922493 4.9225 h -4.922495 -4.922495 v 3.28166 3.28166 h 4.922495 4.922495 v 9.66686 c 0,5.8045 0.167653,9.98012 0.419609,10.4509 0.487229,0.91039 1.766586,1.66631 3.388568,2.00215 0.628004,0.13004 6.21196,0.18458 12.408791,0.1212 l 11.266964,-0.11523 z M 103.3724,123.47259 v -14.56238 h -7.178638 -7.178639 v 10.6654 10.66541 h -4.10208 -4.102079 V 119.5163 108.79157 l -2.768904,0.26151 c -1.522896,0.14383 -4.56869,0.26282 -6.768431,0.26442 l -3.999527,0.003 v 12.69714 c 0,9.15013 0.140463,13.00543 0.502817,13.80071 0.959492,2.10585 1.638034,2.18327 19.289716,2.20065 l 16.305765,0.016 z m 22.50356,14.30732 1.27529,-0.25506 0.10916,-10.9231 0.10916,-10.92311 6.46077,-0.11297 6.46078,-0.11297 v -3.30746 -3.30745 l -10.35776,0.1479 c -9.83242,0.14041 -10.46745,0.19703 -12.5208,1.11632 -1.18969,0.53263 -2.62029,1.51179 -3.17912,2.17592 l -1.01605,1.20751 v 12.27477 12.27476 h 5.69164 c 3.1304,0 6.26551,-0.11477 6.96693,-0.25506 z m 54.06138,-0.87306 c 2.57172,-1.83123 2.8103,-2.95433 2.8103,-13.22916 0,-9.07926 -0.0167,-9.25976 -1.02552,-11.07561 -0.71876,-1.29377 -1.57301,-2.12202 -2.85583,-2.7689 -1.71868,-0.86668 -2.33785,-0.92297 -10.15264,-0.92297 h -8.32235 v -4.9225 -4.922493 h -6.97353 -6.97354 v 19.274173 19.27416 l 13.43431,0.13403 c 19.19686,0.1915 18.5724,0.21768 20.0588,-0.84073 z m 41.44593,-0.13933 c 2.11652,-1.0246 3.94092,-3.11994 4.58329,-5.26399 0.5734,-1.91385 0.62188,-14.0256 0.0642,-16.03 -0.54072,-1.94329 -2.59232,-4.3411 -4.66066,-5.44715 -1.63757,-0.8757 -2.12699,-0.91107 -12.60639,-0.91107 h -10.90268 l -2.00802,1.24147 c -1.2442,0.76923 -2.48027,2.00512 -3.2495,3.24902 -1.22748,1.98495 -1.24309,2.08256 -1.38531,8.66417 -0.17189,7.95438 0.30856,10.24052 2.66122,12.66298 2.52503,2.59994 2.84773,2.65793 14.8895,2.67576 10.17868,0.0151 10.95213,-0.0365 12.61439,-0.84119 z M 47.627644,74.783557 c 1.960499,-8.052976 3.6305,-14.839653 3.711118,-15.081508 0.08062,-0.241854 1.796231,5.516271 3.812469,12.795838 2.016242,7.279566 3.921256,14.112392 4.233366,15.18406 l 0.567474,1.948488 h 7.948919 7.948915 l 0.365938,-1.333176 c 0.201265,-0.733247 2.007419,-7.554225 4.013672,-15.157733 2.006257,-7.603504 3.762382,-13.602795 3.902501,-13.331758 0.140119,0.271041 1.98203,7.092019 4.093137,15.157733 l 3.838373,14.664934 25.446974,-0.0061 c 28.36038,-0.0068 28.54019,-0.02154 33.43718,-2.748459 5.02345,-2.797343 9.01722,-7.940539 10.45635,-13.465736 0.34546,-1.326309 0.62592,-4.080174 0.62324,-6.119708 -0.009,-6.627385 -1.81168,-11.051145 -6.37785,-15.648612 -5.42624,-5.463429 -8.57038,-6.293189 -23.89709,-6.30659 -8.42147,-0.0074 -9.52108,-0.174249 -10.62539,-1.612573 -0.76987,-1.002729 -0.62937,-3.508607 0.25819,-4.604943 l 0.784,-0.968405 23.32785,-0.112268 23.32785,-0.112268 5.27266,7.792274 5.27267,7.792269 -0.74187,1.132235 c -0.40803,0.622733 -5.98421,8.703829 -12.39151,17.957993 l -11.64965,16.825758 10.79217,0.10955 c 5.93569,0.06025 10.99543,0.03155 11.24386,-0.06378 0.24843,-0.09533 3.36337,-4.48258 6.92209,-9.749437 3.55872,-5.266861 6.68103,-9.792127 6.93847,-10.056145 0.35367,-0.362714 2.22264,2.014113 7.64671,9.724549 l 7.17864,10.204587 10.99277,0.01789 10.99277,0.01788 -1.21038,-1.75923 c -0.66571,-0.967574 -6.33139,-9.043543 -12.59039,-17.946598 -6.259,-8.90305 -11.38407,-16.391273 -11.38904,-16.640491 -0.005,-0.249218 5.19037,-7.843549 11.54517,-16.876285 6.3548,-9.032729 11.55419,-16.535605 11.55419,-16.673048 0,-0.137444 -4.93788,-0.240017 -10.97306,-0.227939 l -10.97307,0.02196 -6.28818,9.013359 -6.28818,9.013359 -6.58193,-9.059877 -6.58193,-9.059876 -27.94558,0.270759 c -30.11822,0.291809 -30.4626,0.316878 -35.02273,2.549491 -4.94831,2.422663 -9.34187,7.247729 -10.9235,11.996354 -1.08424,3.255256 -1.31823,9.364473 -0.49314,12.875082 1.44283,6.138938 5.7747,11.955375 10.70794,14.377636 2.31181,1.135111 2.85495,1.222116 9.42669,1.510017 3.83544,0.168029 9.45365,0.318223 12.4849,0.333765 5.073,0.02601 5.58688,0.0992 6.46078,0.920183 1.35878,1.276518 1.32922,4.098256 -0.0575,5.484948 l -1.00687,1.006876 -17.55503,-0.0055 -17.55504,-0.0055 -5.09359,-18.351284 C 98.143685,42.305336 94.934879,30.766823 93.814482,26.757402 l -2.037084,-7.289858 -7.821841,0.111219 -7.821837,0.111218 -3.983308,13.741966 C 69.959594,40.990028 68.045896,47.5431 67.897749,47.994329 67.633604,48.798853 66.564414,45.299968 61.348115,26.560964 l -1.96974,-7.076087 H 51.107241 42.836104 L 34.261553,53.634688 C 29.54555,72.417084 25.61042,88.099424 25.51682,88.48433 c -0.147346,0.605922 0.26221,0.719378 3.052056,0.845484 1.772232,0.08011 5.983438,0.134368 9.358236,0.120581 l 6.135997,-0.02506 z"
     id="path902"
     transform="scale(1.3)" />
  <path
     style="fill:#000080;stroke-width:0.410208"
     d="M 301.50284,78.965028 V 20.305293 h 29.55305 29.55305 l 13.10857,9.909654 13.10858,9.909653 V 54.205411 68.28622 l -10.95908,0.109255 -10.95907,0.109251 14.03563,10.652649 14.03564,10.652653 v 23.907362 23.90737 H 379.64745 366.31569 V 114.03781 90.450851 h -19.68998 -19.68998 v 23.586959 23.58695 H 314.21928 301.50284 Z M 359.34216,55.378072 V 44.097353 H 342.93384 326.52552 V 55.378072 66.65879 h 16.40832 16.40832 z"
     id="path941"
     transform="scale(1.3)" />
  <path
     style="fill:#000080;stroke-width:0.410208"
     d="m 160.3913,122.85728 v -7.79395 h 3.89698 3.89698 v 7.79395 7.79395 h -3.89698 -3.89698 z"
     id="path1091"
     transform="scale(1.3)" />
  <path
     style="fill:#000080;stroke-width:0.410208"
     d="m 204.69376,122.85728 v -7.79395 h 4.10208 4.10208 v 7.79395 7.79395 h -4.10208 -4.10208 z"
     id="path1130"
     transform="scale(1.3)" />
</svg>
