<?xml version="1.0" encoding="UTF-8" standalone="no"?>
<svg
   height="156.154"
   viewBox="0 0 564.2 203"
   width="434"
   version="1.1"
   id="svg14"
   sodipodi:docname="msxturbor.svg"
   inkscape:version="1.1 (c68e22c387, 2021-05-23)"
   xmlns:inkscape="http://www.inkscape.org/namespaces/inkscape"
   xmlns:sodipodi="http://sodipodi.sourceforge.net/DTD/sodipodi-0.dtd"
   xmlns="http://www.w3.org/2000/svg"
   xmlns:svg="http://www.w3.org/2000/svg">
  <defs
     id="defs18" />
  <sodipodi:namedview
     id="namedview16"
     pagecolor="#ffffff"
     bordercolor="#666666"
     borderopacity="1.0"
     inkscape:pageshadow="2"
     inkscape:pageopacity="0.0"
     inkscape:pagecheckerboard="0"
     showgrid="false"
     inkscape:zoom="2.437788"
     inkscape:cx="216.7949"
     inkscape:cy="78.144613"
     inkscape:window-width="1920"
     inkscape:window-height="1017"
     inkscape:window-x="-8"
     inkscape:window-y="712"
     inkscape:window-maximized="1"
     inkscape:current-layer="svg14" />
  <text
     fill="#ef00eb"
     font-family="TrasksHand"
     font-size="2"
     stroke="#0105ff"
     stroke-width="2.5"
     x="265.466"
     y="141.852"
     id="text4"><tspan
       fill="#fafafa"
       fill-opacity=".4"
       stroke="none"
       x="265.466"
       y="141.852"
       id="tspan2">John Loreth 2022</tspan></text>
  <path
     d="M0 0h564.2v203H0z"
     fill="#221f1f"
     id="path6" />
  <g
     fill="#fff"
     id="g10">
    <path
       d="M345.062 7.822h207.955V193.15H345.062zM33.211 115.954 55.918 25.61h21.055l10.941 39.434L99.267 25.61h19.817l18.578 66.557 45.329-.086c4.758-.047 5.05-9.992-.353-9.99l-26.397-.356c-11.336.111-23.29-12.284-22.707-28.793.12-15.142 13.185-27.067 29.896-27.062l67.33-.062 17.134 23.577 16.72-23.785 27.867.208-30.55 43.399 33.028 47.056-27.722-.086-19.222-27.002-18.287 27.002-28.28-.026 32.202-46.527-14.037-20.656-58.529.086c-6.387.06-6.153 10.216.05 10.026l24.661.381c10.422.068 25.1 11.015 24.736 28.106.159 19.87-17.546 28.946-26.07 28.462l-64.551.087-10.734-40.65-10.734 40.563H78.066L66.859 75.685l-9.848 40.416zM41.803 129.246v12.66H29.02v8.07h12.826v24.004c.306 3.621 3.997 5.257 7.606 4.928h27.686v-8.039H63.316c-1.66-.093-2.988 1.066-3.063-4.598V150h16.83v-8.205H60.037v-12.82zM87.636 142.263v30.18c.005 5.445 2.278 6.822 7.49 6.688h38.927v-37.116H116.03v27.523h-11.085v-27.491zM164.927 178.908v-25.636c-.017-3.216-.614-3.32 2.646-3.207h14.45v-8.014h-23.526c-3.944.065-11.24 2.307-11.19 8.03v29.05zM190.54 128.99v49.918h34.401c.05 0 12.841 3.474 12.532-10.748v-14.672c0-14.538-12.649-11.472-12.649-11.472h-16.81V128.99zm17.474 20.551h10.898v20.512h-10.898zM260.762 142.016a11.829 11.829 0 0 0-11.856 11.855v13.18a11.83 11.83 0 0 0 11.856 11.857h21.54a11.832 11.832 0 0 0 11.858-11.857v-13.18a11.83 11.83 0 0 0-11.857-11.855zm5.273 7.525h10.899v20.512h-10.899z"
       id="path8" />
  </g>
  <path
     d="M391.633 26.027v152.881h33.896v-61.254h50.623v61.254h35.15v-62.222l-36.599-27.788h28.295V51.793l-34.264-25.766zm33.258 31.614h42.17v28.502h-42.17z"
     fill="#221f1f"
     id="path12" />
  <path
     style="fill:#000080;fill-opacity:0.941176;stroke-width:0.410208"
     d="M 0,77.939509 V 0 H 217 434 V 77.939509 155.87902 H 217 0 Z M 425.79584,77.324197 V 5.7429112 H 345.60019 265.40454 V 77.324197 148.90548 h 80.19565 80.19565 z M 179.38747,137.11068 c 3.02891,-1.77406 3.54239,-3.66669 3.55548,-13.10514 0.011,-7.92533 -0.41096,-10.66043 -1.92157,-12.45569 -2.07674,-2.46807 -2.73123,-2.6021 -12.11826,-2.48149 l -8.51182,0.10935 v -5.1588 -5.158797 h -6.97353 -6.97354 v 19.479487 19.4795 l 14.04963,0.13326 c 16.32041,0.15479 17.26407,0.11275 18.89361,-0.84168 z M 59.480151,134.5482 v -3.28166 h -6.128908 c -4.423129,0 -6.216111,-0.14109 -6.442218,-0.50694 -0.17232,-0.27882 -0.390706,-3.7861 -0.485304,-7.79395 l -0.171996,-7.28701 h 6.614213 6.614213 v -3.48677 -3.48677 h -6.563327 -6.563327 v -4.98093 -4.980929 l -2.521421,0.263538 c -1.386782,0.144947 -4.61717,0.263542 -7.178639,0.263542 h -4.657218 v 4.922499 4.92249 h -4.922495 -4.922495 v 3.28167 3.28166 h 4.922495 4.922495 v 9.46175 c 0,5.9018 0.16419,9.76854 0.436389,10.27715 0.240013,0.44847 1.024536,1.17402 1.743383,1.61233 1.215345,0.74105 2.14837,0.79704 13.305578,0.79846 l 11.998582,0.002 z M 103.3724,123.47259 v -14.35728 h -7.178638 -7.178639 v 10.4603 10.46031 h -4.10208 -4.102079 v -10.46031 -10.4603 H 74.0264 67.241839 l 0.118682,13.36772 0.118685,13.36773 1.150945,0.98955 1.150949,0.98956 H 86.576748 103.3724 Z m 23.79206,3.28166 v -11.07561 h 6.56333 6.56333 v -3.3065 -3.3065 l -10.76796,0.12739 c -10.3488,0.12243 -10.84351,0.16493 -12.70865,1.09186 -3.57292,1.77566 -3.59712,1.88057 -3.59712,15.59481 v 11.95017 h 6.97354 6.97353 z m 92.8525,10.63198 c 2.09312,-0.5812 4.98124,-3.29683 5.80768,-5.46083 0.54295,-1.42169 0.64011,-3.08164 0.53433,-9.12882 l -0.12929,-7.39116 -1.23696,-1.99884 c -0.89973,-1.45391 -1.83512,-2.31133 -3.43106,-3.14506 l -2.1941,-1.14621 -10.51601,0.009 c -11.99576,0.0103 -12.67476,0.15502 -15.34139,3.27037 -2.06269,2.4098 -2.46644,4.58533 -2.28432,12.30852 0.13245,5.61648 0.2567,6.55947 1.06503,8.08333 1.02708,1.93621 3.11314,3.76896 5.11714,4.49575 1.74742,0.63374 20.39224,0.71945 22.60895,0.10394 z m 6.60084,-48.678763 c -0.40247,-0.62044 -6.14921,-8.848128 -12.77055,-18.283751 l -12.0388,-17.155676 0.76689,-1.098578 c 0.42179,-0.604216 5.37616,-7.651645 11.00972,-15.660955 5.63355,-8.00931 10.57371,-15.070015 10.97814,-15.690454 l 0.73531,-1.128072 h -11.04463 -11.04463 l -6.12873,8.806153 c -3.3708,4.843384 -6.22945,8.812146 -6.35257,8.819471 -0.12311,0.0073 -3.07661,-3.951478 -6.56332,-8.797339 l -6.33949,-8.810657 -28.50945,0.09374 -28.50945,0.09374 -3.21104,1.13589 c -7.59916,2.688168 -12.63703,7.964646 -14.48989,15.176172 -0.86868,3.380996 -0.55511,9.77448 0.64691,13.19013 2.11836,6.019469 6.19275,10.53631 11.51621,12.766787 1.62116,0.679251 3.33646,0.800197 14.08661,0.993249 l 12.24067,0.219814 0.78343,0.96841 c 1.08191,1.337373 1.06165,4.291182 -0.037,5.389813 -0.79513,0.79513 -1.36736,0.820416 -18.56579,0.820416 H 106.03098 L 99.307876,46.456049 C 95.610167,33.201205 92.418996,21.756404 92.216382,21.023157 l -0.368367,-1.333176 -7.877219,0.0042 -7.877223,0.0042 -4.06868,14.250537 c -2.237775,7.837797 -4.15884,14.418242 -4.26903,14.623219 -0.157131,0.29229 -3.921916,-12.756754 -7.888988,-27.343854 l -0.418347,-1.53828 h -8.3264 -8.326401 L 34.106061,54.25 c -4.779316,19.00801 -8.685954,34.698464 -8.681417,34.867675 0.0045,0.169211 4.207752,0.306638 9.340479,0.305396 l 9.33223,-0.0025 3.670316,-15.180631 3.670315,-15.18063 3.612996,13.029299 c 1.987146,7.166115 3.894088,13.998416 4.237645,15.182891 l 0.624652,2.153592 h 7.94371 c 6.144759,0 7.990108,-0.120921 8.148604,-0.53396 0.112697,-0.293676 1.919696,-7.040636 4.015551,-14.993243 2.095859,-7.952607 3.941839,-14.219252 4.102181,-13.925871 0.160343,0.293377 2.003825,7.040338 4.096636,14.993244 l 3.805106,14.45983 h 26.140855 c 24.91721,0 26.26428,-0.03811 28.77745,-0.814361 6.8705,-2.12208 12.60744,-8.15379 14.49283,-15.23747 0.77145,-2.898439 0.75511,-9.007789 -0.0322,-12.030369 -1.78766,-6.863312 -7.50822,-12.957591 -14.08004,-14.999881 -2.17923,-0.677233 -3.86195,-0.816031 -10.2552,-0.845886 -4.2065,-0.01965 -9.28149,-0.160317 -11.27775,-0.312607 -3.13011,-0.238782 -3.73693,-0.409465 -4.40974,-1.24035 -1.09033,-1.346507 -0.99971,-3.442978 0.20961,-4.849226 l 0.98977,-1.150746 23.10993,-0.0948 23.10995,-0.0948 5.1276,7.624909 c 2.82018,4.1937 5.1879,7.786104 5.2616,7.983115 0.10058,0.268842 -21.99811,32.676311 -24.24152,35.549916 -0.31811,0.407472 1.90591,0.51276 10.83094,0.51276 h 11.23125 l 6.76558,-10.041575 c 3.72106,-5.522867 6.8938,-9.999261 7.05052,-9.947542 0.15673,0.05172 3.4448,4.524277 7.30684,9.939022 l 7.02187,9.844991 10.53722,0.215556 c 5.79546,0.118554 10.78918,0.256999 11.09715,0.307656 0.41881,0.06889 0.37551,-0.192211 -0.17182,-1.035972 z"
     id="path909"
     transform="matrix(1.3,0,0,1.3,0,-1.0452271e-4)" />
  <path
     style="fill:#000080;fill-opacity:0.941176;stroke-width:0.410208"
     d="M 301.50284,78.759924 V 20.100189 h 29.41161 29.41162 l 13.22875,9.947543 13.22875,9.947542 0.0213,14.049622 0.0213,14.049622 h -10.87051 c -5.97878,0 -10.86411,0.138445 -10.85629,0.307656 0.008,0.169211 6.23786,5.022426 13.84452,10.784925 l 13.83029,10.477272 0.10586,23.877639 0.10586,23.87765 H 379.65075 366.31569 V 113.8327 90.245747 H 346.62571 326.93573 V 113.8327 137.41966 H 314.21928 301.50284 Z M 359.34216,55.378072 V 44.302457 h -16.40832 -16.40832 v 11.075615 11.075614 h 16.40832 16.40832 z"
     id="path948"
     transform="matrix(1.3,0,0,1.3,0,-1.0452271e-4)" />
  <path
     style="fill:#000080;fill-opacity:0.941176;stroke-width:0.410208"
     d="m 160.3913,122.85728 v -7.58885 h 3.89698 3.89698 v 7.58885 7.58884 h -3.89698 -3.89698 z"
     id="path987"
     transform="matrix(1.3,0,0,1.3,0,-1.0452271e-4)" />
  <path
     style="fill:#000080;fill-opacity:0.941176;stroke-width:0.410208"
     d="m 204.69376,122.85728 v -7.58885 h 4.10208 4.10208 v 7.58885 7.58884 h -4.10208 -4.10208 z"
     id="path1026"
     transform="matrix(1.3,0,0,1.3,0,-1.0452271e-4)" />
  <path
     style="fill:#0000ff;stroke-width:0.410208"
     d="M 0,77.939509 V 0 H 217 434 V 77.939509 155.87902 H 217 0 Z M 425.79584,77.324197 V 5.7429112 H 345.60019 265.40454 V 77.324197 148.90548 h 80.19565 80.19565 z M 179.78357,137.0724 c 2.83658,-1.76357 2.96407,-2.33087 2.96407,-13.1896 0,-9.52242 -0.0125,-9.66213 -1.02552,-11.46485 -1.86537,-3.31952 -2.58684,-3.51673 -12.6139,-3.44793 l -8.71691,0.0598 v -5.08486 -5.084856 h -6.97354 -6.97353 V 118.319 137.77789 l 1.33317,0.17705 c 0.73325,0.0974 7.88625,0.15523 15.89556,0.12854 14.52593,-0.0484 14.56626,-0.0509 16.1106,-1.01108 z M 59.480152,134.61043 v -3.21945 l -6.037449,-0.28526 c -3.9862,-0.18836 -6.1443,-0.45339 -6.351943,-0.78009 -0.172968,-0.27215 -0.31732,-1.98936 -0.320774,-3.81602 -0.0033,-1.82665 -0.126217,-5.01089 -0.272809,-7.07608 l -0.266533,-3.75489 h 6.624756 6.624752 v -3.48677 -3.48677 h -6.563327 -6.563327 v -5.08856 -5.088567 l -1.53828,0.158361 c -0.846054,0.08709 -4.076442,0.273034 -7.178639,0.413194 L 31.99622,99.35437 v 4.88047 4.88047 h -4.922496 -4.922495 v 3.28167 3.28166 h 4.922495 4.922496 v 9.76659 c 0,10.3436 0.0015,10.35214 2.039761,11.70931 0.884798,0.58914 2.573193,0.67533 13.229208,0.67533 H 59.480152 Z M 103.3724,123.47259 v -14.35728 h -7.178637 -7.178639 v 10.46031 10.4603 h -4.10208 -4.102079 v -10.4603 -10.46031 l -6.870983,-2.6e-4 -6.870983,-2.7e-4 0.118447,13.43458 0.118448,13.43457 1.112176,0.92093 1.112176,0.92094 16.921078,0.002 16.921076,0.002 v -14.35728 z m 23.79206,3.28166 v -11.07561 h 6.56333 6.56333 v -3.4173 -3.41729 l -7.6914,0.1412 c -13.5199,0.24821 -14.10784,0.29669 -16.26558,1.34123 -3.06722,1.48482 -3.11675,1.73262 -3.11675,15.59418 v 11.90921 h 6.97354 6.97353 z m 93.64314,10.51314 c 1.69589,-0.72266 4.34204,-3.36881 5.0647,-5.0647 0.41081,-0.96406 0.56248,-3.43298 0.56248,-9.15578 v -7.83576 l -1.27661,-1.8555 c -0.70213,-1.02052 -2.12273,-2.39208 -3.15687,-3.04791 l -1.88026,-1.19243 -10.89275,0.018 c -13.55785,0.0224 -14.26293,0.21123 -16.78073,4.49378 -1.04096,1.77058 -1.09112,2.13454 -1.22102,8.85901 -0.15695,8.12453 0.15345,9.75628 2.31113,12.14946 2.74549,3.04516 3.37252,3.17507 15.3739,3.18529 8.06065,0.007 10.88998,-0.12477 11.89603,-0.55347 z m 6.33338,-47.958246 c -0.1111,-0.289516 -5.69206,-8.365485 -12.40213,-17.946597 -6.71006,-9.581112 -12.27507,-17.615232 -12.36666,-17.853604 -0.13399,-0.348685 9.65074,-14.595962 21.46539,-31.255162 l 1.81824,-2.5638 -11.40399,0.01691 -11.404,0.01691 -3.69187,5.372276 c -2.03053,2.954753 -4.76765,6.845795 -6.08249,8.646762 l -2.3906,3.274485 -3.76251,-5.119305 c -2.06938,-2.815619 -4.92117,-6.717861 -6.33731,-8.671651 l -2.57479,-3.552344 -29.21632,0.110528 -29.21632,0.110527 -3.19493,1.37804 c -6.10421,2.632873 -10.5062,6.895525 -12.67287,12.271725 -0.83393,2.06922 -0.94519,3.030949 -0.93608,8.091256 0.009,4.907974 0.14297,6.10074 0.92263,8.204159 1.93331,5.215851 5.85572,9.638701 10.75365,12.125644 1.74213,0.884577 2.54949,0.959136 14.35727,1.325858 13.55175,0.420882 13.62744,0.43567 14.0908,2.752475 0.2973,1.486483 -0.3887,3.539331 -1.30046,3.891647 -0.37906,0.146473 -8.4709,0.374745 -17.98185,0.507267 l -17.29266,0.240948 -0.77503,-2.627969 C 105.11982,66.610751 101.9182,55.139011 98.431369,42.563373 l -6.339686,-22.864793 -8.085715,-0.0043 -8.085716,-0.0043 -0.574988,1.948488 C 75.029022,22.710137 73.2272,28.982204 71.341212,35.576394 69.455227,42.170587 67.779048,47.431503 67.616372,47.267322 67.334329,46.982666 63.406121,33.477653 60.87588,24.093803 l -1.190624,-4.415649 -8.589016,0.108465 -8.589016,0.108466 -8.524963,34.047259 c -4.688731,18.725993 -8.530455,34.370298 -8.537166,34.765124 -0.01127,0.663166 0.70458,0.717863 9.394937,0.717863 8.605255,0 9.425142,-0.06119 9.618329,-0.717863 0.116159,-0.394826 1.700641,-6.901749 3.521074,-14.45983 1.820433,-7.558082 3.353031,-13.875374 3.405772,-14.038432 0.05274,-0.163058 1.941071,6.347545 4.196291,14.468001 l 4.100402,14.764467 8.205837,-0.110723 8.205836,-0.110723 1.931296,-7.178639 c 3.796483,-14.111548 5.758856,-20.920606 6.029323,-20.920606 0.151079,0 1.89409,6.137737 3.873364,13.639415 1.979269,7.501677 3.673957,13.870156 3.765975,14.152174 0.131542,0.403168 5.815613,0.512759 26.595379,0.512759 30.24972,0 29.22932,0.107274 34.55482,-3.632682 3.30853,-2.323488 5.71664,-5.259645 7.62586,-9.298077 1.2711,-2.688646 1.36202,-3.17923 1.49896,-8.088636 0.12298,-4.408771 0.0117,-5.667847 -0.71134,-8.048292 -1.47308,-4.849782 -5.461,-9.830691 -10.00114,-12.491382 -3.33102,-1.952109 -5.53585,-2.294522 -17.19271,-2.67006 -12.5563,-0.404514 -13.05202,-0.530193 -13.05202,-3.309127 0,-0.97332 0.32515,-1.989407 0.85019,-2.656896 l 0.85019,-1.08084 h 23.08608 23.08607 l 5.05042,7.598052 5.05041,7.598052 -5.97408,8.912817 c -3.28574,4.902051 -8.76141,12.93558 -12.16815,17.852287 -3.40674,4.916711 -6.19408,9.026839 -6.19408,9.133616 0,0.106781 5.11665,0.145078 11.37032,0.08511 l 11.37032,-0.109041 3.60758,-5.332704 c 1.98417,-2.932987 5.00678,-7.336105 6.71691,-9.784706 l 3.10934,-4.452003 2.64788,3.631587 c 1.45634,1.997372 4.62344,6.431092 7.03801,9.852707 l 4.39012,6.221119 5.5378,0.149681 c 14.06577,0.380172 16.91283,0.346638 16.70431,-0.196765 z"
     id="path904"
     transform="matrix(1.3,0,0,1.3,0,-1.0452271e-4)" />
  <path
     style="fill:#0000ff;stroke-width:0.410208"
     d="M 301.50284,78.759925 V 20.100189 h 29.27868 29.27867 l 13.17597,9.947543 13.17595,9.947542 0.002,6.60012 c 0.001,3.630066 0.12331,9.952396 0.27172,14.049622 l 0.26968,7.449502 h -10.93525 c -6.01438,0 -10.93524,0.161987 -10.93524,0.359974 0,0.300498 19.1021,15.098491 25.51945,19.769373 l 1.93248,1.40657 0.016,20.139725 c 0.009,11.07685 0.13594,21.82942 0.28253,23.89461 l 0.26653,3.75489 H 379.70888 366.31569 V 113.8327 90.245747 H 346.62571 326.93573 V 113.8327 137.41966 H 314.21928 301.50284 Z M 359.34216,55.378072 V 44.302458 h -16.40832 -16.40832 v 11.075614 11.075615 h 16.40832 16.40832 z"
     id="path943"
     transform="matrix(1.3,0,0,1.3,0,-1.0452271e-4)" />
  <path
     style="fill:#0000ff;stroke-width:0.410208"
     d="m 160.39131,122.85728 v -7.58885 h 3.89697 3.89698 v 7.58885 7.58885 h -3.89698 -3.89697 z"
     id="path869"
     transform="matrix(1.3,0,0,1.3,0,-1.0452271e-4)" />
  <path
     style="fill:#0000ff;stroke-width:0.410208"
     d="m 204.69376,122.85728 v -7.58885 h 4.10208 4.10208 v 7.58885 7.58885 h -4.10208 -4.10208 z"
     id="path908"
     transform="matrix(1.3,0,0,1.3,0,-1.0452271e-4)" />
</svg>
