<?xml version="1.0" encoding="UTF-8" standalone="no"?>
<svg
   viewBox="0 78.144 192.012 36.716"
   version="1.1"
   id="svg1"
   sodipodi:docname="namco.svg"
   inkscape:version="1.3 (0e150ed6c4, 2023-07-21)"
   xmlns:inkscape="http://www.inkscape.org/namespaces/inkscape"
   xmlns:sodipodi="http://sodipodi.sourceforge.net/DTD/sodipodi-0.dtd"
   xmlns="http://www.w3.org/2000/svg"
   xmlns:svg="http://www.w3.org/2000/svg">
  <defs
     id="defs1" />
  <sodipodi:namedview
     id="namedview1"
     pagecolor="#ffffff"
     bordercolor="#111111"
     borderopacity="1"
     inkscape:showpageshadow="0"
     inkscape:pageopacity="0"
     inkscape:pagecheckerboard="1"
     inkscape:deskcolor="#d1d1d1"
     inkscape:zoom="14.426182"
     inkscape:cx="45.542195"
     inkscape:cy="18.369378"
     inkscape:window-width="3440"
     inkscape:window-height="1377"
     inkscape:window-x="-8"
     inkscape:window-y="760"
     inkscape:window-maximized="1"
     inkscape:current-layer="svg1" />
  <path
     fill="#cc2229"
     d="M10.914 90.781v17.774h-8.08v-24.7h24.872c3.174 0 6.175 2.77 6.175 5.367v19.333h-8.252V90.781H10.914zm81.078.115H81.894v17.6h-8.021V84.029h38.952c2.193 0 4.789 2.827 4.848 5.424l-.059 19.043h-8.078V90.781h-9.637v17.774h-7.906V90.896h-.001zm34.74 17.831c-2.367.059-5.078-3.289-5.078-5.078V89.107c0-2.308 2.77-4.963 5.25-4.963h24.814v6.348l-21.871-.058v12.119l21.871-.059v6.291l-24.986-.058zM37.17 99.725c.289-7.617 5.771-7.098 5.771-7.098l18.235.058v-3.116H39.883v-5.425h24.699c2.308.173 5.136 2.828 5.193 5.482l-.058 18.87H43.46c-4.519.373-6.348-4.242-6.348-8.078.001-.232.001-.463.058-.693zm24.122-1.385H46.115v4.154l15.234-.057-.057-4.097zm94.524-8.771c0-3.174 2.25-6.232 5.656-6.232h23.082c2.654.173 5.193 2.77 5.367 5.367v15.408c0 2.365-3.348 5.25-4.963 5.309l-24.121-.059c-2.598.059-5.021-2.941-5.021-5.482V89.569zm26.026.057-17.947.058v13.792h17.947v-13.85z"
     id="path1" />
  <path
     style="fill:#ff0000;fill-opacity:1;stroke-width:0.0693184"
     d="M 2.8420548,18.057446 V 5.7187688 H 15.303857 c 8.36913,0 12.654711,0.024151 13.049191,0.073537 2.290411,0.2867441 4.453577,1.9322011 5.257867,3.9995052 l 0.181809,0.467314 0.01847,10.068498 0.01846,10.068499 H 29.738733 25.64781 V 21.488707 12.581291 H 18.2654 10.882989 v 8.907416 8.907415 H 6.8625225 2.8420548 Z"
     id="path3"
     transform="translate(0,78.144)" />
  <path
     style="fill:#ff0000;fill-opacity:1;stroke-width:0.0693184"
     d="m 41.902978,30.224069 c -2.366434,-0.521829 -3.970101,-2.592766 -4.590425,-5.927967 -0.162985,-0.876293 -0.160175,-2.904456 0.0055,-3.999083 0.304916,-2.014113 0.847075,-3.247498 1.882755,-4.283178 0.641432,-0.641433 1.104724,-0.935032 1.956179,-1.23968 l 0.607314,-0.217295 9.721906,0.01078 9.721907,0.01078 v -1.58777 -1.587778 H 50.567779 39.927404 V 8.7341196 6.0653608 h 12.504671 12.504671 l 0.475201,0.1464465 c 1.53647,0.4735062 3.049545,1.8073433 3.804852,3.3541332 0.533901,1.0933715 0.515345,0.8391345 0.516496,7.0763875 5.64e-4,3.05326 -0.01968,7.381328 -0.04499,9.617929 l -0.04602,4.066547 -13.661699,-0.0055 c -11.060143,-0.0045 -13.740898,-0.02298 -14.077608,-0.09722 z m 18.404038,-5.903637 1.074435,-0.04453 -0.01932,-2.069454 -0.01932,-2.069454 h -7.623037 -7.623036 v 2.114211 2.114212 l 6.567919,-2.31e-4 c 3.612356,-1.27e-4 7.051416,-0.02027 7.642355,-0.04476 z"
     id="path4"
     transform="translate(0,78.144)" />
  <path
     style="fill:#ff0000;fill-opacity:1;stroke-width:0.0693184"
     d="m 92.054847,21.558025 v -8.838097 h -5.094903 -5.094903 v 8.803438 8.803438 H 77.879233 73.893424 V 18.126173 5.9255412 l 19.807736,0.017921 19.80774,0.017921 0.50036,0.2176317 c 1.2366,0.5378608 2.58135,1.9014996 3.14797,3.1921991 0.45464,1.035589 0.43237,0.790326 0.46137,5.081674 0.0146,2.15407 0.004,6.606911 -0.0225,9.895203 l -0.0489,5.978713 h -3.97739 -3.9774 v -8.872756 -8.872757 h -4.85228 -4.852292 v 8.907416 8.907415 h -3.916491 -3.91649 z"
     id="path5"
     transform="translate(0,78.144)" />
  <path
     style="fill:#ff0000;fill-opacity:1;stroke-width:0.0693184"
     d="m 130.45725,30.536232 c -4.46781,-0.03611 -4.47133,-0.03625 -4.86666,-0.195971 -0.94763,-0.382864 -2.19244,-1.427941 -2.91876,-2.450448 -0.50192,-0.706612 -0.86808,-1.54579 -0.95315,-2.184471 -0.0476,-0.35722 -0.0646,-3.066396 -0.0498,-7.92517 l 0.0224,-7.382411 0.15968,-0.4505693 c 0.48966,-1.3817227 1.75606,-2.7586865 3.1497,-3.4246856 1.02805,-0.4912909 -0.0184,-0.4571453 14.01009,-0.4571453 h 12.65793 v 3.1291756 3.1291756 l -10.91765,-0.03406 -10.91765,-0.03406 v 6.100938 6.100938 l 10.91765,-0.04344 10.91765,-0.04344 v 3.116748 3.116749 l -8.3702,-0.01586 c -4.60361,-0.0087 -10.38216,-0.03212 -12.84123,-0.05199 z"
     id="path6"
     transform="translate(0,78.144)" />
  <path
     style="fill:#ff0000;fill-opacity:1;stroke-width:0.0693184"
     d="m 161.99712,31.160679 c -2.02326,-0.03804 -2.04992,-0.04045 -2.52048,-0.227992 -1.28582,-0.512467 -2.47103,-1.697682 -3.13521,-3.135209 -0.50679,-1.096882 -0.47904,-0.552157 -0.4785,-9.39344 l 4.9e-4,-7.936958 0.18195,-0.6593209 c 0.66051,-2.3934416 2.2659,-4.0329252 4.37184,-4.4646792 0.47484,-0.097351 1.86393,-0.10954 12.48355,-0.10954 11.57423,0 11.96566,0.0042 12.47189,0.1336658 0.28744,0.073516 0.76813,0.2571182 1.06819,0.4080046 1.58953,0.7992943 2.82951,2.2727043 3.27963,3.8970214 0.14025,0.5061133 0.14265,0.6515563 0.14265,8.6311833 0,8.913987 0.0241,8.378623 -0.41733,9.253392 -0.69291,1.372943 -2.4477,3.000218 -3.77343,3.499223 l -0.45674,0.171913 -10.5868,-0.01441 c -5.82274,-0.0079 -11.50701,-0.03171 -12.6317,-0.05285 z m 19.89439,-12.756641 v -6.931841 l -8.85543,9.46e-4 c -4.87049,5.21e-4 -8.92561,0.01976 -9.01139,0.04274 l -0.15597,0.0418 v 6.889096 6.889098 h 9.01139 9.0114 z"
     id="path7"
     transform="translate(0,78.144)" />
</svg>
