<?xml version="1.0" encoding="UTF-8" standalone="no"?>
<!-- Created with Inkscape (http://www.inkscape.org/) -->

<svg
   version="1.0"
   width="800"
   height="110"
   id="svg2"
   sodipodi:docname="namco.svg"
   inkscape:version="1.1 (c68e22c387, 2021-05-23)"
   xmlns:inkscape="http://www.inkscape.org/namespaces/inkscape"
   xmlns:sodipodi="http://sodipodi.sourceforge.net/DTD/sodipodi-0.dtd"
   xmlns="http://www.w3.org/2000/svg"
   xmlns:svg="http://www.w3.org/2000/svg">
  <sodipodi:namedview
     id="namedview18238"
     pagecolor="#ffffff"
     bordercolor="#666666"
     borderopacity="1.0"
     inkscape:pageshadow="2"
     inkscape:pageopacity="0.0"
     inkscape:pagecheckerboard="0"
     showgrid="false"
     inkscape:zoom="0.66125"
     inkscape:cx="644.99055"
     inkscape:cy="-89.981096"
     inkscape:window-width="1920"
     inkscape:window-height="1027"
     inkscape:window-x="-8"
     inkscape:window-y="712"
     inkscape:window-maximized="1"
     inkscape:current-layer="svg2" />
  <defs
     id="defs4" />
  <g
     id="layer1">
    <path
       d="M 649.08982,6.2827844 C 634.43552,6.2827844 622.20754,18.510765 622.20754,33.165066 L 622.20754,80.125402 C 622.20754,94.779705 634.43552,107.00772 649.08982,107.00769 L 734.19846,107.00769 C 748.85276,107.00769 761.08067,94.779669 761.08074,80.125402 L 761.08074,33.165066 C 761.08074,18.510765 748.85276,6.2827844 734.19846,6.2827844 L 649.08982,6.2827844 z M 655.17995,34.838237 L 727.47736,34.838237 L 727.47736,78.452231 L 655.17995,78.452231 L 655.17995,34.838237 z"
       id="rect4393"
       style="opacity:1;fill:#a51e23;fill-opacity:1;fill-rule:nonzero;stroke:none;stroke-width:8;stroke-linecap:round;stroke-linejoin:round;stroke-miterlimit:4;stroke-dasharray:none;stroke-opacity:1" />
    <path
       d="M 8.1985733,8.2905898 L 8.1985733,107.11923 L 41.170984,107.11923 L 41.170984,36.846042 L 103.41952,36.846042 L 103.41952,107.11923 L 135.76093,107.11923 L 135.76093,35.172871 C 135.76093,20.518569 123.53294,8.2905898 108.87864,8.2905898 L 8.1985733,8.2905898 z"
       id="rect4348"
       style="opacity:1;fill:#a51e23;fill-opacity:1;fill-rule:nonzero;stroke:none;stroke-width:8;stroke-linecap:round;stroke-linejoin:round;stroke-miterlimit:4;stroke-dasharray:none;stroke-opacity:1" />
    <path
       d="M 158.06987,8.2905898 L 158.06987,34.280513 L 247.6403,34.280513 L 247.6403,41.307832 L 177.70175,41.307832 C 163.04745,41.307832 150.81947,53.647358 150.81947,68.30166 L 150.81947,80.236947 C 150.81947,94.891249 163.04745,107.11923 177.70175,107.11923 L 247.6403,107.11923 L 262.25266,107.11923 L 279.98828,107.11923 L 279.98828,35.172871 C 279.98824,20.518569 267.7603,8.2905898 253.10599,8.2905898 L 158.06987,8.2905898 z M 184.50598,67.632391 L 247.6403,67.632391 L 247.6403,81.687029 L 184.50598,81.687029 L 184.50598,67.632391 z"
       id="path4359"
       style="opacity:1;fill:#a51e23;fill-opacity:1;fill-rule:nonzero;stroke:none;stroke-width:8;stroke-linecap:round;stroke-linejoin:round;stroke-miterlimit:4;stroke-dasharray:none;stroke-opacity:1" />
    <path
       d="M 300.28942,8.2905898 L 300.28942,107.11923 L 333.30666,107.11923 L 333.30666,36.846042 L 367.21626,36.846042 L 367.21626,107.11923 L 400.2335,107.11923 L 400.2335,36.846042 L 434.81237,36.846042 L 434.81237,107.11923 L 467.16034,107.11923 L 467.16034,35.172871 C 467.16038,20.518569 454.93236,8.2905898 440.27806,8.2905898 L 300.28942,8.2905898 z"
       id="path4384"
       style="opacity:1;fill:#a51e23;fill-opacity:1;fill-rule:nonzero;stroke:none;stroke-width:8;stroke-linecap:round;stroke-linejoin:round;stroke-miterlimit:4;stroke-dasharray:none;stroke-opacity:1" />
    <path
       d="M 513.22832,6.2827844 C 498.57402,6.2827844 486.34604,18.510765 486.34604,33.165066 L 486.34604,80.125402 C 486.34604,94.779705 498.57402,107.00772 513.22832,107.00769 L 603.57956,107.00769 L 603.57956,78.452231 L 519.94942,78.452231 L 519.94942,34.838237 L 603.57956,34.838237 L 603.57956,6.2827844 L 513.22832,6.2827844 z"
       id="rect4389"
       style="opacity:1;fill:#a51e23;fill-opacity:1;fill-rule:nonzero;stroke:none;stroke-width:8;stroke-linecap:round;stroke-linejoin:round;stroke-miterlimit:4;stroke-dasharray:none;stroke-opacity:1" />
    <path
       d="M 782.22423,7.1951312 C 786.53265,7.1951669 790.23454,8.7393744 793.32991,11.827718 C 796.42525,14.916133 797.97292,18.628485 797.97296,22.964772 C 797.97292,27.301096 796.43221,31.01691 793.35083,34.112286 C 790.26938,37.207626 786.56052,38.755331 782.22423,38.755331 C 777.87399,38.755331 774.15118,37.211124 771.05584,34.122744 C 767.96046,31.034329 766.41276,27.315017 766.41276,22.964772 C 766.41276,18.614529 767.96393,14.898714 771.0663,11.81726 C 774.1686,8.7358764 777.88795,7.1951669 782.22423,7.1951312 L 782.22423,7.1951312 z M 782.1824,36.161889 C 785.79367,36.161889 788.8925,34.868684 791.47899,32.282238 C 794.0654,29.695792 795.3586,26.589994 795.35864,22.964772 C 795.3586,19.339587 794.06886,16.240749 791.48944,13.668224 C 788.90992,11.095735 785.80759,9.8094901 782.1824,9.8094544 C 778.55721,9.8094901 775.45834,11.095735 772.88585,13.668224 C 770.31336,16.240749 769.02712,19.339587 769.02712,22.964772 C 769.02712,26.589994 770.31336,29.695792 772.88585,32.282238 C 775.45834,34.868684 778.55721,36.161889 782.1824,36.161889 L 782.1824,36.161889 z M 789.29339,31.707096 L 786.15618,31.707096 L 784.83856,28.005202 C 784.04379,25.788264 782.54491,24.679777 780.34193,24.679777 L 778.18771,24.679777 L 778.18771,31.707096 L 775.44788,31.707096 L 775.44788,14.7453 L 781.82685,14.7453 C 786.31652,14.745336 788.56137,16.300002 788.56137,19.409263 C 788.56137,22.407048 787.09037,24.017469 784.14837,24.240558 C 785.65421,24.700694 786.76966,25.774308 787.49471,27.461399 L 789.29339,31.707096 z M 778.18771,22.316421 L 781.61772,22.316421 C 784.30871,22.316421 785.65421,21.431059 785.65424,19.660264 C 785.65421,17.917383 784.26688,17.045942 781.49221,17.045942 L 778.18771,17.045942 L 778.18771,22.316421 z"
       id="text4406"
       style="font-size:12px;font-style:normal;font-variant:normal;font-weight:normal;font-stretch:normal;text-align:start;line-height:100%;writing-mode:lr-tb;text-anchor:start;fill:#a51e23;fill-opacity:1;stroke:none;stroke-width:1px;stroke-linecap:butt;stroke-linejoin:miter;stroke-opacity:1;font-family:Microsoft Sans Serif;-inkscape-font-specification:Microsoft Sans Serif" />
  </g>
  <path
     style="fill:#ff0000;stroke-width:0.756144"
     d="M 8.6956522,57.428966 V 8.2416735 l 52.7410208,0.2269893 52.741017,0.2269894 5.0293,2.3827978 c 6.38249,3.023914 10.73601,7.377437 13.75993,13.759924 l 2.3828,5.029301 0.23871,38.374291 0.23872,38.374294 h -15.9287 -15.9287 V 71.455577 36.294896 H 72.21172 40.453686 V 71.455577 106.61626 H 24.574669 8.6956522 Z"
     id="path19874" />
  <path
     style="fill:#ff0000;stroke-width:0.756144"
     d="m 170.13233,105.56408 c -7.26455,-2.28416 -14.34867,-9.012934 -17.02787,-16.173736 -1.96163,-5.242919 -2.75049,-16.747391 -1.63523,-23.847732 1.53862,-9.795721 6.64451,-16.930521 15.09367,-21.091385 l 5.04662,-2.485253 38.01377,-0.221785 38.01376,-0.221784 v -3.74797 -3.74797 H 203.02457 158.4121 V 21.172023 8.3175803 l 46.69187,0.00571 c 28.4621,0.00348 48.57003,0.3104678 51.50238,0.7862824 6.55802,1.0641263 11.24268,3.6166033 15.81042,8.6144393 7.11851,7.788787 6.97832,6.769524 6.97832,50.735356 v 38.156892 l -53.1191,-0.0506 c -40.44265,-0.0385 -53.84088,-0.27753 -56.14366,-1.00159 z m 77.50472,-31.083929 v -7.183365 h -31.75803 -31.75804 v 7.183365 7.183365 h 31.75804 31.75803 z"
     id="path19913" />
  <path
     style="fill:#ff0000;stroke-width:0.756144"
     d="M 300.56711,57.466919 V 8.3175803 l 69.37618,0.00438 c 40.73908,0.00257 71.2066,0.304144 73.81055,0.7305882 9.08004,1.4870195 16.27053,6.7917465 20.30155,14.9773165 l 2.48525,5.046667 0.22124,38.769862 0.22122,38.769866 H 451.07189 435.16068 V 71.455577 36.294896 H 417.3913 399.62193 V 71.455577 106.61626 H 383.74291 367.86389 V 71.455577 36.294896 h -17.3913 -17.3913 V 71.455577 106.61626 H 316.8242 300.56711 Z"
     id="path19952" />
  <path
     style="fill:#ff0000;stroke-width:0.756144"
     d="m 507.3724,105.89571 c -7.69278,-1.91858 -14.79291,-7.900058 -18.2426,-15.368398 l -2.17328,-4.705006 -0.23267,-27.032472 c -0.26268,-30.519216 0.0889,-33.450947 4.84498,-40.398823 1.47406,-2.153375 4.46705,-5.145942 6.65109,-6.650148 7.29757,-5.026026 6.23378,-4.93557 58.04392,-4.93557 h 46.76073 v 13.988658 13.988658 h -41.5879 -41.5879 v 21.928166 21.928166 h 41.5879 41.5879 v 13.988658 13.988661 l -46.69187,-0.0774 c -25.68053,-0.0426 -47.71266,-0.33199 -48.9603,-0.64315 z"
     id="path19991" />
  <path
     style="fill:#ff0000;stroke-width:0.756144"
     d="m 641.05848,105.21951 c -7.49845,-2.61244 -12.88171,-7.55957 -16.3107,-14.989264 -1.65307,-3.581747 -1.6854,-4.225006 -1.6854,-33.53537 V 26.811301 l 2.46479,-5.0067 c 2.86858,-5.826916 6.96779,-9.825828 12.94541,-12.6286726 l 4.24954,-1.9925636 h 49.14934 49.14933 l 4.30253,2.1128439 c 5.47028,2.6862983 11.28587,8.9770383 13.6025,14.7138793 1.72707,4.276857 1.75471,4.791923 1.75471,32.700687 0,27.849921 -0.0311,28.432242 -1.74197,32.666639 -2.44142,6.042344 -7.4738,11.362526 -13.6023,14.380186 l -5.03776,2.48059 -47.65398,0.17562 c -44.32015,0.16333 -47.92906,0.0798 -51.58604,-1.1943 z m 86.7298,-48.508735 V 34.782609 h -36.67297 -36.67297 v 21.928166 21.928166 h 36.67297 36.67297 z"
     id="path20030" />
  <path
     style="fill:#ff0000;stroke-width:0.047259"
     d="m 781.23609,38.702001 c -3.01453,-0.164432 -5.78397,-1.151614 -8.20987,-2.926454 -2.44934,-1.79199 -4.46485,-4.343274 -5.50724,-6.971199 -1.46075,-3.682673 -1.43822,-8.199106 0.0589,-11.814745 0.78673,-1.89995 1.86546,-3.475282 3.49687,-5.106688 0.96038,-0.960387 1.59008,-1.483642 2.5547,-2.1228595 2.22277,-1.4729501 4.51004,-2.2567425 7.26163,-2.4883945 0.79387,-0.066834 2.70741,-0.025372 3.44253,0.074592 3.26893,0.4445221 6.00873,1.7566251 8.54871,4.094032 2.39981,2.208405 4.07281,5.080953 4.7061,8.080405 0.28132,1.332383 0.38116,2.482182 0.34036,3.919764 -0.10187,3.589385 -1.19757,6.571544 -3.44422,9.374142 -0.50996,0.636155 -1.91685,2.035293 -2.56588,2.551754 -2.60775,2.075072 -5.42208,3.140297 -8.81603,3.336869 -0.89573,0.05188 -0.89315,0.05188 -1.8666,-0.0012 z m 1.84469,-2.551265 c 1.57869,-0.107373 2.86431,-0.402991 4.21672,-0.969602 3.01283,-1.262265 5.81324,-4.062675 7.07551,-7.075508 1.44496,-3.448911 1.32866,-7.704839 -0.29898,-10.940764 -1.24282,-2.470857 -3.40636,-4.667812 -5.86932,-5.959945 -1.28453,-0.6739 -2.61518,-1.084713 -4.24913,-1.3118399 -0.82318,-0.1144259 -2.72124,-0.1144259 -3.54443,0 -2.43723,0.3387859 -4.35304,1.1406479 -6.28544,2.6307729 -0.53744,0.414435 -1.8875,1.754189 -2.33327,2.31547 -1.24285,1.564881 -2.12667,3.440077 -2.50922,5.323792 -0.21474,1.057379 -0.27462,1.812146 -0.24688,3.111935 0.0348,1.630543 0.18885,2.56936 0.6514,3.969755 1.14873,3.477798 4.14786,6.646716 7.60346,8.033925 1.74515,0.700573 3.78748,1.008181 5.78958,0.872009 z"
     id="path20069" />
  <path
     style="fill:#ff0000;stroke-width:0.047259"
     d="m 775.44896,23.198811 v -8.464704 l 3.76891,0.02468 c 3.91083,0.02562 4.29449,0.04363 5.28439,0.248097 0.99293,0.205094 1.92058,0.594288 2.54237,1.066641 0.6392,0.485583 1.11419,1.216769 1.34036,2.06334 0.10906,0.4082 0.12314,0.551932 0.1261,1.28657 0.004,0.889945 -0.0471,1.290001 -0.24228,1.913989 -0.29392,0.939413 -0.78197,1.599573 -1.55625,2.105025 -0.57618,0.376139 -1.45225,0.666078 -2.22384,0.735998 -0.35938,0.03257 -0.4346,0.0799 -0.21414,0.134755 0.22496,0.05598 0.88546,0.383234 1.18765,0.588446 0.62714,0.425887 1.18882,1.055498 1.63749,1.835555 0.12348,0.21468 0.65453,1.405606 1.18011,2.646503 l 0.95559,2.256176 -1.51449,0.01248 c -0.83297,0.0069 -1.52916,-0.0038 -1.54708,-0.02363 -0.0179,-0.01986 -0.34636,-0.918672 -0.72985,-1.997358 -0.3835,-1.078686 -0.79287,-2.152646 -0.90973,-2.386578 -0.66396,-1.329209 -1.5467,-2.07737 -2.88335,-2.443772 -0.32944,-0.09031 -0.52038,-0.102167 -1.93684,-0.120329 l -1.57136,-0.02015 v 3.501481 3.501481 h -1.34688 -1.34688 z m 7.45958,-0.937757 c 1.55636,-0.248804 2.40871,-0.844594 2.67592,-1.870457 0.0893,-0.343046 0.0937,-1.096305 0.008,-1.416117 -0.20142,-0.752894 -0.75503,-1.302298 -1.61392,-1.601655 -0.83482,-0.290969 -1.59079,-0.359223 -3.98101,-0.359431 l -1.85492,-1.61e-4 v 2.638626 c 0,1.451245 0.0159,2.654861 0.0354,2.674704 0.0562,0.05715 4.33361,-0.0021 4.73037,-0.06551 z"
     id="path20108" />
</svg>
