<?xml version="1.0" encoding="UTF-8" standalone="no"?>
<svg
   version="1.1"
   viewBox="0.00 0.00 2560.00 519.00"
   id="svg70"
   sodipodi:docname="namco2x6.svg"
   inkscape:version="1.3 (0e150ed6c4, 2023-07-21)"
   xmlns:inkscape="http://www.inkscape.org/namespaces/inkscape"
   xmlns:sodipodi="http://sodipodi.sourceforge.net/DTD/sodipodi-0.dtd"
   xmlns="http://www.w3.org/2000/svg"
   xmlns:svg="http://www.w3.org/2000/svg">
  <defs
     id="defs74" />
  <sodipodi:namedview
     id="namedview72"
     pagecolor="#ffffff"
     bordercolor="#666666"
     borderopacity="1.0"
     inkscape:pageshadow="2"
     inkscape:pageopacity="0.0"
     inkscape:pagecheckerboard="0"
     showgrid="false"
     inkscape:zoom="0.22234281"
     inkscape:cx="4479.5691"
     inkscape:cy="-1065.9216"
     inkscape:window-width="3440"
     inkscape:window-height="1377"
     inkscape:window-x="-8"
     inkscape:window-y="760"
     inkscape:window-maximized="1"
     inkscape:current-layer="svg70"
     inkscape:showpageshadow="0"
     inkscape:deskcolor="#d1d1d1" />
  <g
     fill="#a51e23"
     id="g56">
    <path
       d="   M 1664.38 249.00   L 1930.97 249.00   A 0.53 0.53 0.0 0 1 1931.50 249.53   L 1931.50 338.77   A 1.71 1.71 0.0 0 1 1929.79 340.48   Q 1787.07 340.52 1645.50 340.53   C 1601.64 340.53 1563.23 310.33 1557.12 265.91   Q 1556.28 259.81 1556.27 245.94   Q 1556.24 175.97 1556.40 105.99   C 1556.49 63.54 1585.23 27.48 1626.95 19.60   Q 1634.05 18.26 1646.77 18.26   Q 1788.33 18.24 1930.72 18.25   Q 1931.50 18.25 1931.50 19.03   L 1931.50 108.75   A 0.75 0.75 0.0 0 1 1930.75 109.50   L 1664.25 109.50   A 0.50 0.50 0.0 0 0 1663.75 110.00   L 1663.75 248.38   Q 1663.75 249.00 1664.38 249.00   Z"
       id="path14" />
    <path
       d="   M 2435.49 253.56   A 86.91 86.91 0.0 0 1 2348.58 340.47   L 2077.92 340.47   A 86.91 86.91 0.0 0 1 1991.01 253.56   L 1991.01 105.12   A 86.91 86.91 0.0 0 1 2077.92 18.21   L 2348.58 18.21   A 86.91 86.91 0.0 0 1 2435.49 105.12   L 2435.49 253.56   Z   M 2328.00 109.91   A 0.41 0.41 0.0 0 0 2327.59 109.50   L 2096.91 109.50   A 0.41 0.41 0.0 0 0 2096.50 109.91   L 2096.50 248.59   A 0.41 0.41 0.0 0 0 2096.91 249.00   L 2327.59 249.00   A 0.41 0.41 0.0 0 0 2328.00 248.59   L 2328.00 109.91   Z"
       id="path16" />
    <path
       d="   M 2553.47 71.52   A 50.45 50.45 0.0 0 1 2503.02 121.97   A 50.45 50.45 0.0 0 1 2452.57 71.52   A 50.45 50.45 0.0 0 1 2503.02 21.07   A 50.45 50.45 0.0 0 1 2553.47 71.52   Z   M 2545.11 71.53   A 42.11 42.11 0.0 0 0 2503.00 29.42   A 42.11 42.11 0.0 0 0 2460.89 71.53   A 42.11 42.11 0.0 0 0 2503.00 113.64   A 42.11 42.11 0.0 0 0 2545.11 71.53   Z"
       id="path18" />
    <path
       d="   M 131.75 116.25   L 131.75 340.25   A 0.50 0.50 0.0 0 1 131.25 340.75   L 26.75 340.75   Q 26.25 340.75 26.25 340.25   L 26.25 24.98   A 0.48 0.48 0.0 0 1 26.73 24.50   Q 187.56 24.49 348.50 24.51   C 391.26 24.51 428.33 57.68 433.72 100.33   Q 434.49 106.43 434.49 120.30   Q 434.51 230.32 434.50 340.41   A 0.34 0.34 0.0 0 1 434.16 340.75   L 331.50 340.75   Q 331.00 340.75 331.00 340.25   L 331.00 116.50   Q 331.00 116.00 330.50 116.00   L 132.00 116.00   A 0.25 0.25 0.0 0 0 131.75 116.25   Z"
       id="path20" />
    <path
       d="   M 792.15 107.74   L 506.50 107.75   A 0.75 0.75 0.0 0 1 505.75 107.00   L 505.75 24.98   A 0.48 0.47 -90.0 0 1 506.22 24.50   Q 657.31 24.49 808.50 24.51   C 852.16 24.51 888.77 55.97 895.05 99.11   Q 896.00 105.59 896.00 119.05   Q 896.00 229.66 896.00 340.34   A 0.41 0.41 0.0 0 1 895.59 340.75   Q 731.72 340.75 567.75 340.75   C 527.50 340.76 491.37 309.62 484.07 270.16   C 481.75 257.60 482.59 241.52 482.55 227.55   Q 482.52 213.49 483.19 207.58   C 487.55 169.56 516.49 138.17 554.40 131.48   Q 561.32 130.26 574.32 130.26   Q 683.20 130.24 792.15 130.25   A 0.35 0.34 0.0 0 0 792.50 129.91   L 792.50 108.09   A 0.35 0.35 0.0 0 0 792.15 107.74   Z   M 792.50 214.76   A 0.26 0.26 0.0 0 0 792.24 214.50   L 590.76 214.50   A 0.26 0.26 0.0 0 0 590.50 214.76   L 590.50 259.24   A 0.26 0.26 0.0 0 0 590.76 259.50   L 792.24 259.50   A 0.26 0.26 0.0 0 0 792.50 259.24   L 792.50 214.76   Z"
       id="path22" />
    <path
       d="   M 1175.00 116.25   A 0.25 0.25 0.0 0 0 1174.75 116.00   L 1067.00 116.00   A 0.50 0.50 0.0 0 0 1066.50 116.50   L 1066.50 340.25   Q 1066.50 340.75 1066.00 340.75   L 961.50 340.75   Q 961.00 340.75 961.00 340.25   L 961.00 24.98   A 0.48 0.47 -90.0 0 1 961.47 24.50   Q 1184.44 24.49 1407.50 24.49   C 1455.31 24.49 1494.64 62.55 1494.75 110.81   Q 1495.03 225.48 1495.03 340.25   A 0.50 0.50 0.0 0 1 1494.53 340.75   L 1391.97 340.75   A 0.48 0.47 -0.0 0 1 1391.49 340.28   L 1391.50 116.50   Q 1391.50 116.00 1391.00 116.00   L 1281.25 116.00   Q 1280.75 116.00 1280.75 116.50   L 1280.75 340.25   Q 1280.75 340.75 1280.25 340.75   L 1175.75 340.75   A 0.75 0.75 0.0 0 1 1175.00 340.00   L 1175.00 116.25   Z"
       id="path24" />
    <path
       d="   M 2510.43 75.97   C 2519.11 79.95 2521.81 89.68 2525.42 98.86   Q 2525.67 99.50 2524.98 99.50   L 2516.13 99.49   Q 2515.64 99.49 2515.48 99.03   C 2512.64 90.56 2510.67 79.68 2500.59 77.39   C 2497.78 76.75 2493.95 77.00 2490.75 77.00   Q 2490.25 77.00 2490.25 77.50   L 2490.25 98.75   Q 2490.25 99.50 2489.50 99.50   L 2482.25 99.50   Q 2481.50 99.50 2481.50 98.75   L 2481.50 45.77   Q 2481.50 45.30 2481.97 45.29   C 2496.93 45.17 2528.98 40.59 2522.44 65.80   C 2520.78 72.24 2516.44 74.45 2510.52 75.33   Q 2509.40 75.50 2510.43 75.97   Z   M 2490.22 52.92   L 2490.28 69.10   A 0.35 0.35 0.0 0 0 2490.63 69.45   L 2502.86 69.41   A 11.18 7.63 -0.2 0 0 2514.01 61.74   L 2514.01 60.12   A 11.18 7.63 -0.2 0 0 2502.80 52.53   L 2490.57 52.57   A 0.35 0.35 0.0 0 0 2490.22 52.92   Z"
       id="path26" />
    <path
       d="   M 324.25 413.87   L 324.25 364.73   A 1.02 1.02 0.0 0 1 325.27 363.71   L 364.03 363.77   Q 364.55 363.77 364.52 364.29   C 364.39 366.78 364.78 369.31 364.73 371.58   C 364.31 392.69 365.07 407.23 364.57 420.13   Q 364.40 424.42 362.80 428.19   Q 359.18 436.69 352.61 443.06   C 349.53 446.05 336.90 455.06 332.24 455.19   Q 319.24 455.55 306.28 455.78   C 303.59 455.83 302.99 457.08 302.99 459.61   Q 303.01 478.17 303.00 496.78   A 0.73 0.73 0.0 0 1 302.27 497.51   L 262.81 497.49   A 0.31 0.31 0.0 0 1 262.50 497.18   Q 262.51 478.58 262.49 459.98   Q 262.48 456.07 258.75 455.98   Q 251.91 455.81 245.07 455.77   C 231.67 455.68 222.46 453.63 213.56 443.68   C 205.49 434.66 200.43 425.87 200.52 413.40   Q 200.69 388.77 200.81 364.15   Q 200.81 363.71 201.24 363.71   L 239.73 363.77   Q 241.25 363.77 241.25 365.29   L 241.25 414.00   A 0.50 0.50 0.0 0 0 241.75 414.50   L 323.62 414.50   Q 324.25 414.50 324.25 413.87   Z"
       id="path28" />
    <path
       d="   M 614.70 404.75   L 554.28 404.75   A 0.56 0.56 0.0 0 1 553.72 404.19   L 553.77 364.31   A 0.56 0.56 0.0 0 1 554.33 363.75   L 716.94 363.75   A 0.56 0.56 0.0 0 1 717.50 364.31   L 717.50 404.19   A 0.56 0.56 0.0 0 1 716.94 404.75   L 656.26 404.75   A 0.56 0.56 0.0 0 0 655.70 405.31   L 655.85 496.93   A 0.56 0.56 0.0 0 1 655.29 497.49   L 615.81 497.54   A 0.56 0.56 0.0 0 1 615.25 496.98   L 615.26 405.31   A 0.56 0.56 0.0 0 0 614.70 404.75   Z"
       id="path30" />
    <path
       d="   M 1089.13 404.75   L 1039.89 404.75   A 0.23 0.23 0.0 0 0 1039.66 404.98   L 1039.79 496.96   A 0.57 0.57 0.0 0 1 1039.22 497.53   L 1000.76 497.49   A 2.25 2.24 0.1 0 1 998.52 495.25   Q 998.49 452.77 998.50 411.25   C 998.50 409.89 998.97 407.27 998.65 405.34   Q 998.56 404.75 997.96 404.75   L 947.50 404.75   A 0.50 0.50 0.0 0 0 947.00 405.25   L 947.00 496.99   A 0.49 0.49 0.0 0 1 946.51 497.48   L 907.14 497.53   Q 906.50 497.53 906.50 496.89   L 906.50 365.26   Q 906.50 363.73 908.03 363.73   C 971.23 363.76 1034.83 362.97 1098.45 364.17   C 1103.84 364.27 1110.25 368.85 1114.40 372.04   C 1126.82 381.57 1132.40 398.76 1132.34 414.06   Q 1132.16 455.54 1132.28 497.09   A 0.37 0.36 90.0 0 1 1131.92 497.46   L 1090.33 497.59   Q 1089.75 497.59 1089.75 497.01   L 1089.76 405.38   Q 1089.76 404.75 1089.13 404.75   Z"
       id="path32" />
    <path
       d="   M 1334.17 414.51   A 0.58 0.57 0.0 0 0 1334.75 413.94   L 1334.75 396.24   A 1.01 1.01 0.0 0 0 1333.74 395.23   L 1212.00 395.26   A 0.76 0.75 90.0 0 1 1211.25 394.50   L 1211.25 365.09   Q 1211.25 363.71 1212.63 363.71   Q 1272.27 363.78 1332.75 363.75   C 1347.02 363.74 1363.59 369.20 1370.66 382.03   C 1372.66 385.65 1374.97 389.20 1375.15 393.47   C 1375.77 408.10 1377.58 422.50 1366.79 432.75   C 1360.03 439.16 1349.18 444.98 1339.33 445.44   C 1311.60 446.74 1283.53 446.02 1255.75 446.00   C 1253.73 446.00 1252.60 446.92 1252.45 449.03   Q 1251.94 456.27 1252.52 463.49   Q 1252.76 466.56 1255.81 466.57   Q 1315.28 466.71 1374.74 466.80   Q 1375.25 466.80 1375.25 467.31   L 1375.25 496.91   Q 1375.25 497.49 1374.66 497.49   Q 1295.49 497.52 1216.41 497.50   C 1215.15 497.50 1213.39 498.07 1211.73 497.41   Q 1211.25 497.22 1211.25 496.70   Q 1211.25 470.94 1211.25 445.19   C 1211.25 431.43 1224.09 424.75 1235.29 418.28   C 1240.24 415.43 1249.04 414.50 1254.69 414.50   Q 1294.46 414.50 1334.17 414.51   Z"
       id="path34" />
    <path
       d="   M 1550.29 364.25   L 1549.60 364.76   Q 1549.19 365.06 1549.16 365.57   Q 1548.45 378.48 1548.65 396.81   Q 1549.07 434.73 1548.48 491.50   Q 1548.47 492.83 1549.30 494.90   Q 1549.45 495.25 1549.82 495.18   L 1550.70 495.00   Q 1549.75 497.56 1546.75 497.53   Q 1527.89 497.37 1508.94 497.67   A 0.68 0.67 89.2 0 1 1508.25 496.99   L 1508.25 457.73   A 0.73 0.73 0.0 0 0 1507.52 457.00   Q 1470.30 457.00 1432.99 457.00   C 1425.22 457.00 1415.38 455.25 1408.54 451.41   C 1397.33 445.12 1386.77 428.97 1386.74 416.07   Q 1386.68 390.53 1386.79 364.91   Q 1386.80 363.74 1387.97 363.74   L 1426.75 363.76   Q 1427.25 363.76 1427.25 364.25   L 1427.25 414.00   A 0.50 0.50 0.0 0 0 1427.75 414.50   L 1508.04 414.50   Q 1508.27 414.50 1508.27 414.27   L 1508.24 365.51   A 1.79 1.79 0.0 0 1 1510.03 363.72   Q 1529.35 363.73 1548.93 363.98   Q 1549.64 363.99 1550.29 364.25   Z"
       id="path36" />
    <path
       d="   M 1605.85 393.88   Q 1607.93 394.77 1610.31 394.77   Q 1635.86 394.78 1661.40 394.75   C 1673.81 394.74 1688.44 392.86 1700.31 397.07   C 1727.21 406.61 1731.45 437.75 1727.55 462.01   C 1724.97 478.03 1711.31 491.88 1695.80 495.98   Q 1687.56 498.17 1681.49 498.00   Q 1646.63 497.07 1611.75 497.79   C 1589.04 498.26 1572.47 487.15 1565.35 465.65   Q 1564.22 462.24 1564.22 457.71   Q 1564.28 410.91 1564.24 364.70   A 0.99 0.98 -90.0 0 1 1565.22 363.71   L 1604.26 363.77   A 0.40 0.39 0.0 0 1 1604.66 364.16   Q 1604.82 377.09 1604.76 390.00   Q 1604.75 391.61 1605.19 393.13   Q 1605.34 393.66 1605.85 393.88   Z   M 1605.04 455.00   L 1604.55 456.17   A 0.59 0.59 0.0 0 0 1605.09 457.00   Q 1639.82 456.77 1673.69 456.96   Q 1677.24 456.98 1679.02 455.15   L 1685.09 455.20   Q 1685.75 455.20 1685.75 454.55   L 1685.75 436.06   A 0.31 0.31 0.0 0 0 1685.44 435.75   L 1605.48 435.75   Q 1604.89 435.75 1604.86 436.35   Q 1604.42 445.85 1605.04 455.00   Z"
       id="path38" />
    <rect
       x="1801.25"
       y="363.73"
       width="40.50"
       height="103.02"
       rx="0.73"
       id="rect40" />
    <path
       d="   M 2040.25 414.41   L 2040.25 395.88   Q 2040.25 395.25 2039.63 395.25   L 1917.50 395.25   A 0.75 0.75 0.0 0 1 1916.75 394.50   L 1916.75 364.56   A 0.82 0.82 0.0 0 1 1917.57 363.74   Q 1976.73 363.76 2036.00 363.74   C 2049.94 363.74 2059.89 366.05 2070.51 374.98   C 2075.48 379.15 2080.69 388.15 2080.78 394.72   C 2080.98 409.56 2083.69 423.86 2069.61 434.92   C 2059.68 442.73 2050.59 445.93 2037.57 445.97   Q 1999.28 446.07 1961.00 445.98   C 1958.43 445.98 1957.83 447.94 1957.78 450.23   Q 1957.63 456.64 1957.87 463.03   C 1957.99 466.22 1959.70 466.75 1962.61 466.75   Q 2021.42 466.75 2080.17 466.75   A 0.56 0.56 0.0 0 1 2080.73 467.31   L 2080.76 496.77   A 0.74 0.74 0.0 0 1 2080.02 497.51   Q 2001.11 497.49 1922.85 497.50   C 1921.39 497.50 1919.23 498.11 1917.24 497.42   Q 1916.75 497.25 1916.75 496.73   Q 1916.75 472.21 1916.74 447.71   C 1916.74 431.95 1927.39 425.48 1940.29 418.58   C 1945.65 415.71 1953.15 414.50 1959.18 414.50   Q 1999.71 414.50 2040.16 414.50   A 0.09 0.09 0.0 0 0 2040.25 414.41   Z"
       id="path42" />
    <path
       d="   M 2135.26 414.33   Q 2187.69 414.90 2202.00 414.44   C 2217.68 413.92 2232.73 414.61 2245.41 424.09   C 2251.43 428.59 2257.61 436.73 2258.01 444.68   Q 2258.90 462.69 2258.23 467.52   C 2255.45 487.46 2231.24 498.11 2213.50 497.90   Q 2154.22 497.20 2094.87 497.59   A 0.62 0.61 -0.0 0 1 2094.25 496.98   L 2094.25 466.76   Q 2094.25 466.20 2094.81 466.20   Q 2153.56 466.36 2212.17 465.97   Q 2214.78 465.95 2216.76 465.34   A 1.28 1.28 0.0 0 0 2217.66 464.12   L 2217.62 446.86   A 1.34 1.33 0.0 0 0 2216.28 445.53   Q 2178.62 445.44 2142.25 445.50   Q 2128.09 445.53 2122.36 444.12   C 2110.71 441.25 2094.24 430.07 2094.20 416.14   Q 2094.14 390.15 2094.30 364.70   Q 2094.31 363.74 2095.27 363.74   L 2257.75 363.76   A 0.50 0.49 0.0 0 1 2258.25 364.25   L 2258.25 394.47   A 0.78 0.78 0.0 0 1 2257.47 395.25   L 2135.21 395.25   Q 2134.74 395.25 2134.74 395.72   L 2134.74 413.81   Q 2134.74 414.33 2135.26 414.33   Z"
       id="path44" />
    <path
       d="   M 189.21 393.50   Q 181.00 392.68 172.77 392.78   C 137.21 393.18 101.64 392.64 66.06 393.04   Q 65.52 393.05 65.39 393.58   Q 65.20 394.36 66.17 394.91   Q 65.34 404.48 65.88 413.97   Q 65.91 414.47 66.41 414.47   Q 103.49 414.55 140.49 414.55   C 158.88 414.55 178.67 419.16 187.09 437.28   C 191.15 446.01 189.75 462.03 188.75 471.50   C 187.79 480.63 177.09 486.99 170.35 491.08   C 162.93 495.58 152.87 497.76 144.69 497.71   Q 87.66 497.35 30.63 497.54   C 29.26 497.54 27.46 498.07 25.71 497.41   Q 25.25 497.23 25.25 496.74   L 25.25 467.29   Q 25.25 466.77 25.77 466.77   Q 85.17 466.71 144.49 466.75   C 149.88 466.75 148.21 454.29 148.09 449.96   C 147.94 444.97 145.55 445.45 141.37 445.47   Q 116.18 445.59 91.01 445.43   C 84.76 445.39 72.60 445.67 63.42 445.22   C 52.47 444.69 44.27 441.72 35.94 435.38   C 30.71 431.39 25.60 421.93 25.11 415.40   Q 24.10 402.13 25.28 391.77   C 26.90 377.59 42.21 368.36 54.73 365.03   Q 59.54 363.75 67.40 363.75   Q 127.95 363.75 188.51 363.75   A 0.52 0.52 0.0 0 1 189.03 364.26   L 189.21 393.50   Z"
       id="path46" />
    <path
       d="   M 542.02 393.56   Q 520.67 392.44 499.30 392.69   C 472.40 393.00 445.51 392.61 418.59 393.01   Q 417.93 393.02 418.05 393.67   Q 418.20 394.51 418.98 394.97   L 418.78 414.01   Q 418.78 414.47 419.24 414.47   C 444.34 414.47 469.69 415.21 494.74 414.63   C 511.92 414.24 529.71 419.50 538.92 435.05   C 544.02 443.66 542.74 457.35 542.07 467.56   Q 541.45 477.15 534.71 483.20   C 520.68 495.81 507.43 497.75 488.19 497.65   Q 433.38 497.37 379.33 497.54   Q 378.12 497.55 378.12 496.34   L 378.22 467.38   A 0.65 0.65 0.0 0 1 378.87 466.73   Q 438.30 466.76 496.66 466.74   Q 498.73 466.74 499.60 466.14   C 501.78 464.62 500.97 455.19 500.93 449.76   Q 500.91 447.35 499.57 445.89   Q 499.20 445.49 498.66 445.49   Q 458.94 445.53 419.25 445.50   Q 401.65 445.49 388.24 434.92   C 384.22 431.75 378.53 421.96 378.24 416.87   Q 377.45 403.15 377.99 393.76   C 378.89 377.94 394.37 368.72 407.80 365.06   Q 412.66 363.74 421.33 363.74   Q 481.43 363.76 541.59 363.75   A 0.41 0.41 0.0 0 1 542.00 364.16   L 542.02 393.56   Z"
       id="path48" />
    <path
       d="   M 772.17 466.42   C 773.37 466.41 774.63 466.74 775.73 466.74   Q 835.10 466.76 894.44 466.75   A 0.56 0.56 0.0 0 1 895.00 467.31   L 895.00 496.98   A 0.54 0.54 0.0 0 1 894.46 497.52   Q 843.69 497.48 793.00 497.50   C 787.21 497.50 775.13 498.31 767.00 497.25   C 746.87 494.65 730.48 476.36 730.71 456.00   Q 731.08 422.56 730.98 403.07   C 730.92 390.74 740.53 377.02 750.74 370.79   C 759.98 365.16 767.48 363.75 779.13 363.74   Q 816.57 363.72 853.98 363.84   C 878.79 363.92 894.96 384.65 894.99 408.24   Q 895.01 426.37 895.00 444.47   Q 895.00 445.01 894.53 445.29   Q 893.37 445.99 891.69 445.99   Q 833.50 445.99 775.31 446.05   Q 771.69 446.05 771.57 449.53   Q 771.27 457.95 771.78 466.06   Q 771.81 466.43 772.17 466.42   Z   M 773.66 414.58   L 851.56 414.44   A 2.19 2.19 0.0 0 0 853.74 412.25   L 853.72 397.12   A 2.18 1.40 89.9 0 0 852.31 394.94   L 772.83 395.08   A 2.18 1.40 89.9 0 0 771.44 397.26   L 771.46 412.39   A 2.19 2.19 0.0 0 0 773.66 414.58   Z"
       id="path50" />
    <path
       d="   M 2310.72 393.05   A 2.73 2.72 78.0 0 0 2313.16 394.64   Q 2350.01 394.95 2386.75 394.40   Q 2391.83 394.33 2399.72 395.67   C 2421.81 399.43 2433.59 420.06 2434.10 441.19   C 2434.56 459.88 2433.19 475.74 2416.80 487.80   C 2409.82 492.94 2404.59 495.84 2395.82 497.10   C 2386.80 498.39 2376.77 497.56 2369.46 497.53   Q 2352.64 497.47 2335.83 497.49   C 2316.01 497.52 2294.51 500.49 2280.85 483.43   C 2275.11 476.25 2270.37 468.36 2269.66 459.50   Q 2269.56 458.30 2269.61 449.39   Q 2269.86 406.73 2269.72 364.09   A 0.34 0.34 0.0 0 1 2270.06 363.75   L 2309.78 363.75   A 0.49 0.48 90.0 0 1 2310.26 364.24   Q 2310.26 376.95 2310.15 389.75   Q 2310.14 391.76 2310.72 393.05   Z   M 2310.67 455.21   Q 2310.22 455.81 2310.29 456.48   Q 2310.34 457.03 2310.89 457.03   Q 2335.23 457.07 2359.57 456.83   C 2365.58 456.77 2376.09 457.50 2384.00 456.55   Q 2384.83 456.45 2384.75 455.09   L 2390.64 455.16   Q 2391.25 455.17 2391.25 454.56   L 2391.25 436.15   A 0.41 0.40 0.0 0 0 2390.84 435.75   L 2310.78 435.75   Q 2310.37 435.75 2310.35 436.17   Q 2309.91 445.71 2310.67 455.21   Z"
       id="path52" />
    <rect
       x="1801.25"
       y="476.26"
       width="40.50"
       height="21.30"
       rx="0.88"
       id="rect54" />
  </g>
  <path
     style="fill:#ff0000;fill-opacity:1;stroke-width:1.59013"
     d="M 27.032165,182.06958 V 24.646974 H 186.7249 c 104.03016,0 164.02834,0.589828 172.13129,1.692182 17.19607,2.339411 35.71126,11.375728 47.95308,23.403449 10.33919,10.158372 16.3324,19.560388 22.39901,35.139078 l 4.09896,10.525959 0.47218,122.042278 0.47217,122.04227 H 383.2941 332.33662 V 227.38821 115.28423 H 231.36353 130.39044 V 227.38821 339.49219 H 78.711305 27.032165 Z"
     id="path1" />
  <path
     style="fill:#ff0000;fill-opacity:1;stroke-width:1.59013"
     d="m 547.42448,337.04087 c -26.19843,-7.05555 -49.01114,-28.15348 -58.99511,-54.56053 -3.65265,-9.66106 -4.0525,-13.23112 -4.65661,-41.57604 -0.52595,-24.67794 -0.13907,-33.24286 1.89528,-41.95825 6.70615,-28.72989 27.85713,-52.75049 55.77033,-63.33684 l 9.54076,-3.61843 121.24722,-0.45016 121.24721,-0.45016 V 119.21203 107.3336 H 650.36209 507.25063 V 65.93196 24.530323 l 157.82014,0.486287 c 148.37848,0.457196 158.34336,0.661642 166.56584,3.417368 29.22182,9.793549 47.98723,27.307789 58.67569,54.763537 l 4.13435,10.62 0.45334,122.837335 0.45336,122.83734 -169.80192,-0.10464 c -140.87471,-0.0868 -171.22015,-0.4866 -178.12695,-2.34668 z M 793.47356,236.92898 V 213.87213 H 691.70541 589.93725 v 23.05685 23.05685 h 101.76816 101.76815 z"
     id="path3" />
  <path
     style="fill:#ff0000;fill-opacity:1;stroke-width:1.59013"
     d="M 962.02706,182.0284 V 24.564612 l 230.17094,0.450271 c 218.5008,0.427441 230.6144,0.598464 238.9166,3.373101 29.7714,9.949654 50.1219,30.319053 59.8087,59.864085 2.6402,8.052761 2.9113,18.352351 3.4223,129.992911 l 0.555,121.24721 h -50.9745 -50.9745 V 227.38821 115.28423 h -56.4495 -56.4496 v 112.10398 112.10398 h -52.4742 -52.4742 V 227.38821 115.28423 h -54.8594 -54.8594 v 112.10398 112.10398 h -51.6791 -51.67914 z"
     id="path4" />
  <path
     style="fill:#ff0000;fill-opacity:1;stroke-width:1.59013"
     d="m 1623.52,336.97556 c -14.5559,-3.84023 -28.3047,-11.55124 -39.6078,-22.21393 -11.041,-10.41559 -16.8695,-19.41575 -22.8142,-35.22883 -3.3697,-8.96364 -3.4772,-11.47776 -4.0011,-93.56472 -0.6048,-94.754335 -0.2811,-98.561277 10.2009,-119.977794 10.1979,-20.836337 31.6426,-38.357227 54.7523,-44.734134 5.2353,-1.444661 45.5836,-2.093802 157.7,-2.53715 l 150.6645,-0.595782 v 45.400252 45.400248 h -133.5707 -133.5707 v 70.76067 70.76067 h 133.5707 133.5707 v 44.52357 44.52356 l -149.0744,-0.10464 c -124.9524,-0.0877 -150.4896,-0.47801 -157.8202,-2.41199 z"
     id="path5" />
  <path
     style="fill:#ff0000;fill-opacity:1;stroke-width:1.59013"
     d="m 2058.0576,337.2074 c -29.7768,-7.21528 -55.4585,-32.48577 -63.1932,-62.18143 -2.0428,-7.84285 -2.4348,-23.36098 -2.4348,-96.38864 V 91.596495 l 3.9505,-12.405573 c 8.491,-26.663438 30.1291,-48.068199 57.2034,-56.586528 l 11.1969,-3.522866 h 147.0868 c 160.4734,0 154.9701,-0.293234 174.914,9.320111 13.1664,6.346478 30.8134,23.597749 37.789,36.941573 9.6062,18.375883 9.8654,21.373844 9.8913,114.404628 0.026,92.90408 -0.046,93.72661 -9.9433,113.63066 -6.7796,13.6344 -22.5125,29.36728 -36.1469,36.14692 -20.7918,10.33859 -14.3948,9.98054 -175.6456,9.83153 -112.2956,-0.10375 -148.2898,-0.60399 -154.6681,-2.14955 z m 271.098,-157.92054 0.4141,-70.36314 h -116.8909 -116.8909 v 70.77099 70.77099 l 116.4768,-0.40785 116.4768,-0.40785 z"
     id="path6" />
  <path
     style="fill:#ff0000;fill-opacity:1;stroke-width:0.397532"
     d="m 2497.011,121.40648 c -18.4963,-2.15332 -34.8308,-15.20594 -41.2418,-32.955645 -3.6835,-10.198353 -3.8934,-21.684332 -0.5853,-32.030487 2.5436,-7.955175 6.3847,-14.208642 12.458,-20.281956 7.8921,-7.892051 17.2595,-12.648478 28.2326,-14.335399 4.9542,-0.76162 12.814,-0.486945 17.7193,0.61923 34.722,7.830021 50.7474,47.423903 31.1288,76.909909 -10.4251,15.668578 -28.9832,24.254678 -47.7116,22.074348 z m 12.31,-8.10262 c 14.0297,-2.11476 25.8192,-10.88627 31.8804,-23.719455 5.4262,-11.488591 5.4423,-24.546144 0.044,-35.966346 -2.3456,-4.96256 -4.5534,-8.119 -8.3403,-11.923893 -12.514,-12.573366 -31.4027,-15.930596 -47.8054,-8.496839 -8.6072,3.900851 -16.4763,11.856496 -20.639,20.866067 -3.0774,6.660664 -4.4222,15.95416 -3.37,23.289572 0.5933,4.136323 2.7825,10.840376 4.6625,14.278124 8.6091,15.74272 25.8871,24.33777 43.5673,21.67277 z"
     id="path7" />
  <path
     style="fill:#ff0000;fill-opacity:1;stroke-width:0.397532"
     d="M 2481.7913,72.392123 V 45.600051 l 5.8591,-0.292898 c 7.8383,-0.391836 17.8469,-0.02799 21.7694,0.791382 6.3502,1.326526 11.0536,4.440231 12.7213,8.421623 1.0038,2.396241 1.1736,5.911555 0.4537,9.392406 -1.3395,6.47733 -4.0585,9.361578 -10.169,10.787062 -1.3699,0.319555 -2.5611,0.65152 -2.6473,0.737699 -0.086,0.08618 1.0478,0.954465 2.52,1.929526 3.1492,2.08573 5.8788,5.317351 7.8128,9.249677 1.4207,2.888593 5.011,11.662026 5.011,12.245046 0,0.177442 -2.112,0.322621 -4.6934,0.322621 h -4.6933 l -1.525,-4.809106 c -4.3816,-13.816879 -8.3757,-17.452677 -19.1728,-17.452677 h -4.8983 v 11.130891 11.130892 h -4.1741 -4.1741 z m 23.403,-3.042232 c 4.0088,-0.65047 6.9757,-2.418239 8.3074,-4.949732 0.8604,-1.63567 0.8432,-5.761703 -0.03,-7.093758 -1.0992,-1.677657 -2.3411,-2.688125 -4.6486,-3.782549 -2.0977,-0.994883 -2.5212,-1.042881 -10.4352,-1.182856 l -8.2488,-0.145896 v 8.785869 8.785869 l 6.2611,-0.003 c 3.4436,-0.0017 7.4008,-0.187927 8.7937,-0.413945 z"
     id="path8" />
  <path
     style="fill:#ff0000;fill-opacity:1;stroke-width:0.397532"
     d="m 2311.4489,497.22531 c -7.3603,-0.51378 -13.1526,-1.9708 -18.8557,-4.74302 -4.1694,-2.02671 -4.8768,-2.542 -8.5696,-6.24261 -5.8899,-5.90242 -10.219,-12.66151 -12.8232,-20.02118 l -1.0948,-3.0939 -0.1084,-49.5921 -0.1083,-49.5921 h 20.0843 20.0843 v 14.34173 14.34172 l 1.2086,1.20853 1.2085,1.20853 40.6317,-0.11797 c 39.9738,-0.11606 40.7058,-0.10431 45.21,0.72596 5.5935,1.03104 10.0071,2.55501 14.1494,4.88563 4.2614,2.39758 11.1226,9.23048 13.7873,13.73048 5.9151,9.9891 8.279,21.02481 7.656,35.74104 -0.8399,19.83856 -6.1363,30.20019 -20.3069,39.7272 -6.4668,4.34767 -11.9864,6.42542 -19.4945,7.33831 -2.444,0.29717 -16.0546,0.41013 -42.3353,0.35136 -21.3033,-0.0476 -39.4488,-0.13656 -40.3234,-0.19761 z m 72.6667,-40.48489 c 0.3728,-0.14309 0.6779,-0.50212 0.6779,-0.79785 0,-0.39912 0.8452,-0.56745 3.2797,-0.65315 l 3.2796,-0.11546 v -9.73953 -9.73953 h -40.5482 -40.5483 l -0.026,10.53459 c -0.015,5.79403 0.037,10.66279 0.1146,10.81948 0.1752,0.35403 72.8363,0.0501 73.771,-0.30855 z"
     id="path9" />
  <path
     style="fill:#ff0000;fill-opacity:1;stroke-width:0.397532"
     d="m 2178.4745,497.4055 c -19.1312,-0.1674 -45.8305,-0.19714 -59.3316,-0.0661 l -24.5476,0.23828 v -15.53703 -15.53704 l 42.834,-0.0448 c 56.398,-0.059 78.8664,-0.36813 79.744,-1.09706 0.5763,-0.47869 0.6569,-1.67919 0.6569,-9.79024 0,-6.99326 -0.1231,-9.34679 -0.5054,-9.66407 -0.345,-0.2863 -14.3189,-0.47241 -44.0267,-0.58637 -45.1089,-0.17305 -46.9118,-0.2377 -52.4725,-1.88184 -3.265,-0.96537 -9.2087,-3.84483 -12.3755,-5.99532 -5.943,-4.03585 -11.497,-10.69653 -13.0136,-15.60679 -1.2238,-3.96225 -1.3562,-8.2598 -1.0419,-33.82404 l 0.296,-24.07266 h 81.6451 81.6452 v 15.50374 15.50375 h -61.5749 c -55.7816,0 -61.5976,0.0592 -61.8162,0.62881 -0.3956,1.03073 -0.2612,17.80573 0.1478,18.45271 0.3307,0.5232 5.484,0.60401 42.0329,0.6592 36.4012,0.055 42.1981,0.14524 45.9537,0.7156 13.8758,2.10732 24.5944,8.30976 30.8074,17.82716 3.9597,6.0656 4.4529,8.57511 4.5641,23.22356 0.093,12.1729 -0.052,13.31942 -2.3113,18.26752 -1.7503,3.83454 -3.4186,6.18183 -6.6128,9.30453 -7.8392,7.66367 -21.0937,13.09353 -33.1303,13.57222 -1.5305,0.0609 -18.4356,-0.0263 -37.5668,-0.1937 z"
     id="path10" />
  <path
     style="fill:#ff0000;fill-opacity:1;stroke-width:0.397532"
     d="m 1917.3773,497.1722 c -0.4155,-0.26362 -0.4901,-5.57929 -0.3861,-27.52299 0.1191,-25.10841 0.185,-27.36412 0.8579,-29.38269 1.9316,-5.79362 5.0694,-10.02638 10.3968,-14.02468 4.3733,-3.28221 12.707,-7.94705 16.5184,-9.24626 6.333,-2.15878 6.5524,-2.16777 52.9395,-2.1695 l 42.841,-0.002 -0.1063,-9.83891 -0.1063,-9.83892 -61.7215,-0.10063 -61.7215,-0.10063 0.1041,-15.40311 0.104,-15.40311 h 63.8039 c 60.7377,0 63.9949,0.0359 67.7792,0.74631 7.2041,1.35246 12.332,3.51673 18.3152,7.72998 4.8207,3.39473 8.0377,7.11756 10.7021,12.3852 2.3662,4.67819 2.6402,6.02294 2.9987,14.71761 0.7365,17.86388 -1.1077,24.97524 -8.3516,32.20451 -7.7364,7.7207 -17.2505,12.24444 -28.3566,13.48284 -2.4705,0.27549 -18.0816,0.42634 -44.1193,0.42634 h -40.2959 l -0.9496,1.01085 c -0.8792,0.93588 -0.9615,1.39289 -1.1101,6.16186 -0.2165,6.9488 0.1977,11.65606 1.1266,12.8033 l 0.7242,0.89441 60.5594,0.19877 60.5594,0.19877 0.1043,14.88094 c 0.082,11.64074 -0.01,14.95031 -0.3975,15.19951 -0.6645,0.42179 -162.1474,0.41369 -162.8124,-0.008 z"
     id="path11" />
  <path
     style="fill:#ff0000;fill-opacity:1;stroke-width:0.397532"
     d="M 1801.6143,415.22201 V 363.9404 h 19.8766 19.8766 v 51.28161 51.28161 h -19.8766 -19.8766 z"
     id="path12" />
  <path
     style="fill:#ff0000;fill-opacity:1;stroke-width:0.397532"
     d="m 1801.883,497.24979 c -0.1478,-0.1478 -0.2687,-4.89004 -0.2687,-10.5383 v -10.26958 h 19.8832 19.8832 l -0.106,10.43521 -0.106,10.43522 -19.5085,0.10308 c -10.7296,0.0567 -19.6294,-0.0178 -19.7772,-0.16563 z"
     id="path13" />
  <path
     style="fill:#ff0000;fill-opacity:1;stroke-width:0.397532"
     d="m 1676.7412,497.74264 c -0.1358,-0.14382 -17.0408,-0.31215 -37.5667,-0.37408 -36.4562,-0.10999 -37.3981,-0.13203 -40.699,-0.95252 -7.0938,-1.76333 -12.1303,-4.07607 -17.2593,-7.92546 -6.8499,-5.14089 -12.3863,-13.2289 -15.5948,-22.78203 l -1.1348,-3.37902 v -49.09518 -49.09518 l 19.9493,-0.10305 19.9493,-0.10304 0.126,14.5491 0.1261,14.54909 0.9116,0.73776 c 0.5013,0.40576 1.7464,0.86294 2.7667,1.01595 1.0203,0.15301 19.0257,0.18654 40.0118,0.0745 21.3844,-0.11414 39.5645,-0.0472 41.3593,0.15228 9.8882,1.099 18.0337,4.70925 24.3847,10.80782 6.5369,6.27701 10.7132,14.43852 13.0745,25.55067 1.0123,4.76397 1.0891,5.79639 1.1058,14.85921 0.019,10.50053 -0.383,14.49674 -2.0397,20.25451 -3.0507,10.60292 -11.9346,20.89394 -22.633,26.2178 -6.1653,3.06799 -13.0827,4.72083 -21.2242,5.0713 -2.9517,0.12706 -5.4778,0.11335 -5.6136,-0.0305 z m 1.164,-41.603 c 1.0169,-0.59316 2.0752,-0.76691 4.671,-0.76691 h 3.3563 v -9.9383 -9.9383 h -40.5238 -40.5239 l -0.258,1.72039 c -0.1905,1.27051 -0.025,19.9451 0.1766,19.9451 0.018,0 16.1773,-0.0574 35.9098,-0.12754 34.5942,-0.12297 35.9244,-0.15496 37.192,-0.89444 z"
     id="path15" />
  <path
     style="fill:#ff0000;fill-opacity:1;stroke-width:0.397532"
     d="m 1508.6333,477.84814 c 0,-10.79521 -0.1085,-19.91063 -0.2413,-20.25647 -0.2176,-0.56718 -3.9099,-0.62943 -37.6661,-0.63511 -20.6224,-0.003 -39.5116,-0.17922 -42.0728,-0.39146 -14.9068,-1.23531 -24.285,-6.07266 -32.2262,-16.62255 -4.7422,-6.29998 -8.0849,-13.54867 -9.0165,-19.55263 -0.3272,-2.10841 -0.4276,-10.781 -0.3429,-29.61612 l 0.1199,-26.63463 19.973,-0.10306 19.973,-0.10306 0.1024,25.34633 0.1023,25.34633 h 40.5482 40.5483 l 0.1024,-24.80866 c 0.072,-17.51951 0.2326,-24.96556 0.5456,-25.34265 0.3586,-0.43212 3.7519,-0.53346 17.7865,-0.53117 9.5388,0.002 18.5437,0.11619 20.0107,0.25476 2.5672,0.24247 2.6499,0.28342 2.2031,1.09038 -0.6241,1.12727 -0.8696,127.00365 -0.2514,128.94309 0.2264,0.71059 0.6165,1.29198 0.8668,1.29198 0.2503,0 0.053,0.4025 -0.4393,0.89445 l -0.8943,0.89445 -19.8657,0.0817 -19.8657,0.0817 z"
     id="path17" />
  <path
     style="fill:#ff0000;fill-opacity:1;stroke-width:0.397532"
     d="m 1211.7764,497.08367 c -0.6403,-0.67867 -0.7149,-50.83136 -0.082,-54.82949 1.2718,-8.02778 7.3548,-14.41908 21.3668,-22.44946 3.8577,-2.21091 5.9708,-3.05983 10.0339,-4.03107 2.7257,-0.65154 6.5867,-0.72736 47.2928,-0.9287 l 44.3248,-0.21924 0.1064,-9.64014 c 0.059,-5.30209 0.059,-9.68346 0,-9.7364 -0.059,-0.0529 -27.8343,-0.1871 -61.7239,-0.29815 l -61.6174,-0.2019 -0.1043,-14.86082 c -0.076,-10.79938 0.021,-15.0122 0.3555,-15.41475 0.3903,-0.4703 10.1286,-0.53517 64.5044,-0.42973 l 64.0447,0.1242 3.8735,0.88769 c 10.2918,2.35857 18.5658,6.92784 23.3914,12.91773 2.0371,2.52867 5.5455,8.64451 6.5448,11.409 1.1583,3.20442 1.7588,18.60058 0.9706,24.88625 -0.5834,4.65311 -1.4044,7.48182 -3.2679,11.26028 -4.4381,8.99828 -17.9876,17.70906 -30.3949,19.54042 -2.1231,0.31338 -16.4005,0.51799 -45.1452,0.64698 -39.8744,0.17892 -42.0861,0.22584 -42.9334,0.91084 -0.8,0.64672 -0.9142,1.17269 -1.0922,5.03201 -0.1093,2.37039 -0.1053,6.32139 0.01,8.77999 0.1838,3.954 0.3113,4.57372 1.1042,5.36668 l 0.8965,0.89649 60.4138,0.10317 60.4138,0.10317 v 15.10242 15.10243 h -52.2097 c -28.7154,0 -65.343,0.11177 -81.3947,0.24837 -23.9565,0.20387 -29.2739,0.15402 -29.6818,-0.27827 z"
     id="path19" />
  <path
     style="fill:#ff0000;fill-opacity:1;stroke-width:0.397532"
     d="m 906.95375,497.01419 c -0.10393,-0.27331 -0.14304,-30.28199 -0.0869,-66.68597 l 0.10206,-66.18905 54.66063,-0.2997 c 69.44026,-0.38074 136.66956,0.16276 139.93116,1.13124 4.5935,1.36394 11.4927,5.78704 16.1096,10.32785 6.3447,6.24012 11.0431,15.61157 13.3859,26.69936 l 0.9043,4.27962 0.1193,45.35412 0.1194,45.35412 -9.2569,0.26175 c -5.0912,0.14396 -14.5781,0.26215 -21.0818,0.26266 l -11.8249,9.1e-4 -0.101,-46.41184 -0.1011,-46.41184 -25.1422,-0.10235 -25.1422,-0.10235 -0.1011,46.41481 -0.101,46.41481 -19.6502,-0.0453 -19.6503,-0.0453 -0.74301,-0.91762 c -0.71682,-0.88523 -0.74086,-2.51817 -0.68136,-46.26717 l 0.0617,-45.34955 -25.88147,-0.10226 -25.88147,-0.10227 v 46.25141 46.25141 l -11.03151,0.26193 c -18.07272,0.4291 -28.71629,0.34323 -28.93559,-0.23345 z"
     id="path21" />
  <path
     style="fill:#ff0000;fill-opacity:1;stroke-width:0.397532"
     d="m 767.33571,497.08786 c -4.08412,-0.53201 -8.40769,-1.87793 -12.62151,-3.92906 -11.8483,-5.76732 -20.36854,-16.65814 -23.06664,-29.48446 -0.82467,-3.92036 -0.84499,-60.57328 -0.0234,-65.14867 1.50136,-8.36061 7.27377,-17.86727 14.62914,-24.09294 5.19872,-4.40026 12.3208,-7.87611 19.34584,-9.44151 3.7846,-0.84334 4.28107,-0.85205 48.54603,-0.85205 47.2724,0 45.9903,-0.0454 52.07668,1.84379 14.9552,4.64202 26.06491,19.01989 28.20924,36.5076 0.23444,1.91196 0.41305,11.82075 0.41305,22.91494 0,18.22075 -0.0472,19.56944 -0.69568,19.88702 -0.38263,0.18737 -27.74775,0.43012 -60.81139,0.53944 l -60.1157,0.19877 -0.90543,0.9075 c -0.88992,0.89194 -0.90532,1.06354 -0.89819,10.0118 0.004,5.00737 0.15304,9.25011 0.33123,9.42833 0.17819,0.17821 27.94963,0.37097 61.71429,0.42835 l 61.39031,0.10433 -0.10411,15.20065 -0.1041,15.20065 -62.4125,0.0496 c -34.32687,0.0273 -63.53061,-0.0961 -64.8972,-0.27407 z m 85.99852,-83.23381 c 0.7537,-1.03089 0.83242,-17.68383 0.0871,-18.42913 -0.36478,-0.36478 -9.99703,-0.47703 -40.93179,-0.47703 -39.58958,0 -40.46356,0.0164 -40.86628,0.76893 -0.24631,0.46023 -0.41151,4.13083 -0.41151,9.14323 0,7.87629 0.0478,8.42213 0.80429,9.1786 0.79817,0.79816 1.10861,0.80346 40.77915,0.69568 39.04634,-0.10609 39.98795,-0.12654 40.53901,-0.88028 z"
     id="path23" />
  <path
     style="fill:#ff0000;fill-opacity:1;stroke-width:0.397532"
     d="m 615.64432,497.24608 c -0.14577,-0.14576 -0.26503,-21.07471 -0.26503,-46.50877 v -46.24375 l -30.70933,-0.10184 -30.70934,-0.10184 -0.12015,-17.29263 c -0.0661,-9.51095 -0.006,-18.58958 0.1333,-20.17474 l 0.25345,-2.88211 h 81.46011 81.46011 v 20.27167 20.27167 l -30.70933,0.10184 -30.70933,0.10184 -0.10104,46.15181 -0.10103,46.15181 -5.06688,0.25842 c -6.66259,0.3398 -34.47504,0.3371 -34.81551,-0.003 z"
     id="path25" />
  <path
     style="fill:#ff0000;fill-opacity:1;stroke-width:0.397532"
     d="m 378.94723,497.22793 c -0.38562,-0.14016 -0.49692,-3.55658 -0.49692,-15.2537 v -15.07308 h 60.24415 60.24414 l 0.93816,-0.93816 c 1.21759,-1.21759 1.55158,-4.22631 1.33856,-12.05832 -0.12408,-4.56175 -0.31307,-6.17296 -0.83986,-7.16028 l -0.67975,-1.27399 -43.42944,-0.14002 c -43.2172,-0.13935 -43.44852,-0.14436 -47.33021,-1.02506 -9.99175,-2.26698 -19.34643,-7.33903 -23.48356,-12.73262 -2.3143,-3.01717 -4.75421,-7.40517 -6.0568,-10.89273 l -1.07344,-2.874 -0.0354,-13.31732 c -0.0395,-14.87037 0.0376,-15.43359 2.84724,-20.79952 4.81022,-9.18681 19.24091,-17.89721 32.00945,-19.32099 2.57558,-0.2872 24.34815,-0.42774 66.26415,-0.42774 h 62.42816 v 14.74399 14.74399 l -2.48457,-0.24302 c -3.71866,-0.36373 -108.46647,-0.74355 -115.51799,-0.41888 -6.01324,0.27686 -6.09299,0.29247 -5.78077,1.13169 0.17412,0.46802 0.37502,5.23106 0.44645,10.58454 0.0714,5.35347 0.26615,9.86986 0.43271,10.03642 0.16656,0.16655 18.72006,0.31185 41.22999,0.32287 43.51954,0.0213 45.27437,0.087 52.66446,1.97176 12.92504,3.29637 23.70685,11.86344 27.44157,21.80466 1.68871,4.49508 2.09805,7.72414 2.07353,16.35677 -0.0396,13.94486 -0.92106,18.79109 -4.35894,23.96592 -4.17824,6.28925 -14.64882,13.11696 -24.45309,15.94548 -8.50874,2.45477 -6.54683,2.38893 -73.26273,2.45852 -33.45231,0.0349 -61.04599,-0.0178 -61.31929,-0.11718 z"
     id="path27" />
  <path
     style="fill:#ff0000;fill-opacity:1;stroke-width:0.397532"
     d="m 271.22691,497.21342 -8.43674,-0.1156 -0.1102,-19.65917 -0.11019,-19.65917 -0.90532,-0.90523 c -0.88464,-0.88456 -1.16432,-0.91188 -12.24874,-1.19662 -12.57851,-0.32312 -17.10667,-0.87062 -22.01459,-2.66179 -4.72185,-1.72326 -7.71381,-3.71167 -11.97306,-7.95711 -6.72801,-6.70619 -11.59826,-14.49107 -13.56767,-21.68732 -0.828,-3.02552 -0.8778,-4.1183 -1.02356,-22.46055 -0.0843,-10.60416 -0.0281,-23.26224 0.1249,-28.12906 l 0.27812,-8.84877 19.73284,0.10307 19.73283,0.10307 0.19877,25.24327 0.19876,25.24327 h 41.54208 41.54208 l 0.19876,-25.24327 0.19877,-25.24327 19.74295,-0.10308 19.74294,-0.10307 0.26217,2.8858 c 0.1442,1.58719 0.19362,14.87138 0.10982,29.52043 -0.16682,29.16314 -0.0688,27.91898 -2.62946,33.39088 -4.17328,8.9181 -10.83124,15.64338 -21.76226,21.98231 -5.65054,3.27677 -5.21507,3.20331 -21.28848,3.59112 -14.26325,0.34414 -14.3937,0.35489 -15.11529,1.24602 -0.68369,0.84433 -0.72788,2.10012 -0.72788,20.68891 0,17.67919 -0.0671,19.81575 -0.62881,20.03131 -0.59202,0.22719 -11.8605,0.20673 -31.06354,-0.0564 z"
     id="path29" />
  <path
     style="fill:#ff0000;fill-opacity:1;stroke-width:0.397532"
     d="m 25.839964,497.17983 c -0.256221,-0.0853 -0.397926,-5.50018 -0.397926,-15.2056 v -15.07308 h 60.190738 60.190734 l 1.01335,-1.2043 c 1.42011,-1.6877 1.65226,-3.25953 1.56322,-10.58403 -0.0864,-7.1037 -0.5457,-9.09466 -2.18155,-9.45582 -0.50635,-0.11179 -19.70402,-0.27062 -42.66148,-0.35296 -44.903137,-0.16104 -45.268228,-0.17701 -52.422992,-2.29281 -8.311814,-2.45795 -16.157675,-7.71677 -20.108531,-13.47807 -4.314127,-6.29104 -5.558814,-10.38441 -5.923071,-19.47906 -0.311685,-7.78206 0.03958,-17.32333 0.751718,-20.41865 2.51248,-10.92052 14.811912,-20.89942 30.595348,-24.82292 2.315323,-0.57555 9.330808,-0.65535 67.481028,-0.76753 l 64.89708,-0.12519 v 14.76534 14.76534 l -0.89445,-0.31903 c -1.1668,-0.41616 -95.090194,-0.72022 -110.712619,-0.35841 -10.995576,0.25465 -12.025339,0.337 -12.025339,0.96165 0,0.37573 0.125171,0.80831 0.278153,0.9613 0.152986,0.15298 0.287153,4.69975 0.298149,10.10393 l 0.02,9.82578 42.734666,0.23523 c 45.91132,0.25272 44.33043,0.18145 52.47421,2.36564 7.43826,1.99498 13.27927,5.07946 17.99035,9.50023 5.0231,4.71357 8.41455,10.45047 9.64923,16.32243 1.23444,5.87082 1.10396,21.91839 -0.23683,29.12575 -0.96679,5.19697 -5.35353,10.37626 -13.1329,15.50559 -8.82015,5.81558 -15.28157,8.30516 -24.40692,9.40399 -2.45958,0.29617 -22.49399,0.39908 -64.101608,0.32929 -33.288104,-0.0558 -60.702894,-0.16115 -60.921754,-0.23403 z"
     id="path31" />
</svg>
