<?xml version="1.0" encoding="UTF-8" standalone="no"?>
<svg
   version="1.0"
   width="800"
   height="110"
   id="svg6"
   sodipodi:docname="namco.svg"
   inkscape:version="1.1 (c68e22c387, 2021-05-23)"
   xmlns:inkscape="http://www.inkscape.org/namespaces/inkscape"
   xmlns:sodipodi="http://sodipodi.sourceforge.net/DTD/sodipodi-0.dtd"
   xmlns="http://www.w3.org/2000/svg"
   xmlns:svg="http://www.w3.org/2000/svg">
  <defs
     id="defs10" />
  <sodipodi:namedview
     id="namedview8"
     pagecolor="#ffffff"
     bordercolor="#666666"
     borderopacity="1.0"
     inkscape:pageshadow="2"
     inkscape:pageopacity="0.0"
     inkscape:pagecheckerboard="0"
     showgrid="false"
     inkscape:zoom="5.29"
     inkscape:cx="784.40454"
     inkscape:cy="-9.9243856"
     inkscape:window-width="1920"
     inkscape:window-height="1017"
     inkscape:window-x="-8"
     inkscape:window-y="712"
     inkscape:window-maximized="1"
     inkscape:current-layer="svg6" />
  <path
     d="M649.09 6.283c-14.654 0-26.882 12.228-26.882 26.882v46.96c0 14.655 12.228 26.883 26.882 26.883h85.108c14.655 0 26.883-12.228 26.883-26.883v-46.96c0-14.654-12.228-26.882-26.883-26.882H649.09zm6.09 28.555h72.297v43.614H655.18V34.838zM8.199 8.29v98.83H41.17V36.845h62.249v70.273h32.34V35.173c0-14.654-12.227-26.882-26.881-26.882H8.199zM158.07 8.29v25.99h89.57v7.028h-69.938c-14.655 0-26.883 12.34-26.883 26.994v11.935c0 14.654 12.228 26.882 26.883 26.882h102.286V35.173c0-14.654-12.228-26.882-26.882-26.882H158.07zm26.436 59.342h63.134v14.055h-63.134V67.632zM300.29 8.29v98.83h33.017V36.845h33.91v70.273h33.017V36.846h34.578v70.273h32.348V35.173c0-14.654-12.228-26.882-26.882-26.882H300.29zM513.228 6.283c-14.654 0-26.882 12.228-26.882 26.882v46.96c0 14.655 12.228 26.883 26.882 26.883h90.352V78.452h-83.63V34.838h83.63V6.283h-90.352z"
     style="opacity:1;fill:#a51e23;fill-opacity:1;fill-rule:nonzero;stroke:none;stroke-width:8;stroke-linecap:round;stroke-linejoin:round;stroke-miterlimit:4;stroke-dasharray:none;stroke-opacity:1"
     id="path2" />
  <path
     d="M782.224 7.195c4.309 0 8.01 1.544 11.106 4.633 3.095 3.088 4.643 6.8 4.643 11.137 0 4.336-1.54 8.052-4.622 11.147-3.082 3.096-6.79 4.643-11.127 4.643-4.35 0-8.073-1.544-11.168-4.632-3.096-3.089-4.643-6.808-4.643-11.158s1.55-8.066 4.653-11.148c3.103-3.081 6.822-4.622 11.158-4.622zm-.042 28.967c3.612 0 6.71-1.293 9.297-3.88 2.586-2.586 3.88-5.692 3.88-9.317s-1.29-6.724-3.87-9.297c-2.58-2.572-5.681-3.859-9.307-3.859-3.625 0-6.724 1.287-9.296 3.86-2.573 2.572-3.859 5.67-3.859 9.296 0 3.625 1.286 6.73 3.859 9.317 2.572 2.587 5.671 3.88 9.296 3.88zm7.111-4.455h-3.137l-1.317-3.702c-.795-2.217-2.294-3.325-4.497-3.325h-2.154v7.027h-2.74V14.745h6.379c4.49 0 6.734 1.555 6.734 4.664 0 2.998-1.47 4.608-4.413 4.832 1.506.46 2.622 1.533 3.347 3.22l1.798 4.246zm-11.105-9.39h3.43c2.69 0 4.036-.886 4.036-2.657 0-1.743-1.387-2.614-4.162-2.614h-3.304v5.27z"
     style="font-size:12px;font-style:normal;font-variant:normal;font-weight:400;font-stretch:normal;text-align:start;line-height:100%;writing-mode:lr-tb;text-anchor:start;fill:#a51e23;fill-opacity:1;stroke:none;stroke-width:1px;stroke-linecap:butt;stroke-linejoin:miter;stroke-opacity:1;font-family:Microsoft Sans Serif;-inkscape-font-specification:Microsoft Sans Serif"
     id="path4" />
  <path
     style="fill:#ff0000;stroke-width:0.756144"
     d="M 8.3175803,57.433345 V 8.2504333 l 52.7410207,0.2226094 52.741019,0.2226095 4.31125,1.7419678 c 6.04198,2.441271 11.36249,7.473814 14.38019,13.601898 l 2.48058,5.037355 0.21517,38.769692 0.21516,38.769695 H 119.49682 103.59168 V 71.455577 36.294896 H 72.21172 40.831758 V 71.455577 106.61626 H 24.574669 8.3175803 Z"
     id="path882" />
  <path
     style="fill:#ff0000;stroke-width:0.756144"
     d="m 169.6029,105.20823 c -7.48142,-2.58505 -12.87835,-7.541016 -16.3107,-14.977984 -1.53084,-3.316923 -1.68351,-4.795887 -1.66483,-16.128167 0.0185,-11.237553 0.18609,-12.836059 1.68766,-16.098871 2.4735,-5.374758 8.4634,-11.305329 14.00265,-13.863953 l 4.705,-2.173281 37.99622,-0.215617 37.99622,-0.215617 V 37.780603 34.026465 H 203.40265 158.79017 V 21.136665 8.2468644 l 49.71645,0.2441455 c 45.00174,0.2209927 50.03912,0.3685141 53.11909,1.5556121 7.15628,2.758212 14.45675,10.171687 16.7775,17.037221 0.68799,2.03527 1.00578,13.102537 1.18183,41.158123 l 0.24082,38.374294 -53.14544,-0.0246 c -49.14087,-0.0228 -53.44173,-0.12706 -57.07752,-1.38334 z m 78.41222,-30.728079 v -7.183365 h -31.75803 -31.75804 v 7.183365 7.183365 h 31.75804 31.75803 z"
     id="path921" />
  <path
     style="fill:#ff0000;stroke-width:0.756144"
     d="M 300.94518,57.466919 V 8.3175803 l 68.99811,0.00571 c 43.79918,0.00363 70.75496,0.2907857 73.80862,0.7862824 6.55802,1.0641263 11.24268,3.6166033 15.81042,8.6144393 7.11851,7.788787 6.97831,6.769524 6.97831,50.735356 V 106.61626 H 451.0397 435.53875 V 71.455577 36.294896 H 417.76938 400 V 71.455577 106.61626 H 383.74291 367.48582 V 71.455577 36.294896 h -17.3913 -17.39131 V 71.455577 106.61626 H 316.8242 300.94518 Z"
     id="path960" />
  <path
     style="fill:#ff0000;stroke-width:0.756144"
     d="m 506.0764,105.51928 c -7.45838,-2.33092 -12.7838,-6.882652 -16.66382,-14.242849 l -2.07799,-3.941837 V 56.710775 c 0,-30.41544 0.0118,-30.647807 1.7367,-34.149225 2.61576,-5.309874 7.06191,-9.899384 12.38736,-12.7867821 L 506.23819,7.1833648 554.82042,6.9729874 603.40265,6.76261 v 14.009999 14.01 H 561.43667 519.4707 v 21.928166 21.928166 h 41.96597 41.96598 v 13.988658 13.988661 l -47.06995,-0.0506 c -36.70009,-0.0394 -47.77192,-0.26996 -50.2563,-1.04639 z"
     id="path999" />
  <path
     style="fill:#ff0000;stroke-width:0.756144"
     d="m 642.18226,105.53042 c -7.10238,-2.24449 -13.55382,-7.573157 -16.74711,-13.83253 -2.85469,-5.595644 -3.25597,-10.684213 -2.99754,-38.01169 l 0.2467,-26.086956 2.17328,-4.705008 c 2.55275,-5.526537 8.53511,-11.576752 13.8942,-14.0518116 3.58157,-1.654124 3.73847,-1.6590596 52.74159,-1.6590596 h 49.14934 l 4.30737,2.0190415 c 5.49473,2.5756047 10.75772,7.8385937 13.33333,13.3333227 l 2.01904,4.307371 V 56.710775 86.57845 l -2.1311,4.339834 c -2.71517,5.529247 -7.65956,10.473636 -13.1888,13.188806 l -4.33984,2.1311 -47.63705,0.14959 c -37.89843,0.11901 -48.28845,-0.0563 -50.82341,-0.85736 z M 728.16635,56.710775 V 34.782609 h -36.67297 -36.67296 v 21.928166 21.928166 h 36.67296 36.67297 z"
     id="path1038" />
  <path
     style="fill:#ff0000;stroke-width:0.189036"
     d="m 775.61437,23.1569 v -8.412098 l 2.8828,0.0051 c 6.65606,0.01183 8.77589,0.701625 9.71611,3.161661 0.39499,1.033475 0.26447,2.887444 -0.27817,3.951104 -0.64511,1.264516 -1.4731,1.820469 -3.32775,2.234416 l -0.55332,0.123497 0.96678,0.552146 c 1.25514,0.71684 1.75914,1.404476 2.86804,3.91297 1.39608,3.158162 1.41938,2.883281 -0.24439,2.883281 h -1.41693 l -0.36629,-0.992438 c -0.20146,-0.545842 -0.47428,-1.332704 -0.60627,-1.748583 -0.98887,-3.115787 -2.51469,-4.253308 -5.70517,-4.253308 h -1.47798 v 3.497165 3.497164 h -1.22873 -1.22873 z m 8.58135,-1.20051 c 1.07173,-0.474074 1.51026,-1.140949 1.51026,-2.296655 0,-1.099635 -0.37549,-1.71664 -1.33454,-2.192915 -0.58981,-0.292904 -1.23684,-0.370287 -3.51133,-0.419948 l -2.78828,-0.06088 v 2.783687 2.783686 l 2.64267,-0.113023 c 2.0322,-0.08691 2.83638,-0.19871 3.48122,-0.483954 z"
     id="path1077" />
  <path
     style="fill:#ff0000;stroke-width:0.189036"
     d="m 780.43478,38.542157 c -3.51536,-0.361879 -6.54209,-1.844809 -9.17749,-4.496471 -1.96112,-1.973228 -2.90702,-3.378616 -3.70985,-5.511988 -2.12278,-5.640944 -0.93948,-11.706717 3.14441,-16.118679 3.15691,-3.4105184 6.89238,-5.0416411 11.53877,-5.0384997 2.29039,0.00155 3.90168,0.280454 5.67108,0.9816352 4.13337,1.6379792 7.6698,5.3193465 9.08406,9.4563605 1.75177,5.124334 0.83998,10.616447 -2.44984,14.756326 -3.53459,4.44791 -8.49493,6.548431 -14.10114,5.971316 z m 4.94961,-2.639866 c 0.50078,-0.118444 1.7023,-0.593255 2.67005,-1.055138 1.47312,-0.703079 2.02975,-1.107488 3.41942,-2.4843 1.40172,-1.388738 1.7961,-1.92383 2.53572,-3.440358 1.93514,-3.967897 1.93864,-7.998982 0.0103,-11.905154 -1.45105,-2.939374 -4.2259,-5.413309 -7.33935,-6.54343 -3.81382,-1.3843431 -8.50658,-0.8168669 -11.81165,1.428335 -1.55886,1.058964 -3.58903,3.298042 -4.41121,4.865149 -1.95723,3.730508 -1.97298,8.6442 -0.0395,12.323603 1.47888,2.814323 4.31053,5.351824 7.10876,6.370327 2.20978,0.804312 5.53273,0.9908 7.85743,0.440966 z"
     id="path1116" />
</svg>
