<?xml version="1.0" encoding="UTF-8" standalone="no"?>
<svg
   height="231"
   width="1290"
   version="1.1"
   id="svg6"
   sodipodi:docname="naomi2-w.svg"
   inkscape:version="1.1 (c68e22c387, 2021-05-23)"
   xmlns:inkscape="http://www.inkscape.org/namespaces/inkscape"
   xmlns:sodipodi="http://sodipodi.sourceforge.net/DTD/sodipodi-0.dtd"
   xmlns="http://www.w3.org/2000/svg"
   xmlns:svg="http://www.w3.org/2000/svg">
  <defs
     id="defs10" />
  <sodipodi:namedview
     id="namedview8"
     pagecolor="#ffffff"
     bordercolor="#666666"
     borderopacity="1.0"
     inkscape:pageshadow="2"
     inkscape:pageopacity="0.0"
     inkscape:pagecheckerboard="0"
     showgrid="false"
     inkscape:zoom="0.82015504"
     inkscape:cx="645.60964"
     inkscape:cy="115.22212"
     inkscape:window-width="1920"
     inkscape:window-height="1017"
     inkscape:window-x="-8"
     inkscape:window-y="712"
     inkscape:window-maximized="1"
     inkscape:current-layer="svg6" />
  <path
     d="M1121 218.454v-8.546l37.368-37.204c40.889-40.71 49.718-51.117 58.71-69.204 9.516-19.14 10.521-37.43 2.884-52.5-7.058-13.929-22.093-20.977-41.962-19.67-12.912.848-23.594 4.817-35.806 13.3l-6.305 4.38-4.444-9.575C1129 34.168 1127 29.53 1127 29.13c0-1.349 15.881-11.222 22.221-13.815 25.443-10.406 52.57-10.514 72.83-.288 8.734 4.407 15.292 10.207 20.722 18.325 13.996 20.926 14.408 49.506 1.094 75.922-10.365 20.564-33.505 47.688-67.867 79.55-7.425 6.885-13.65 12.891-13.833 13.347-.184.456 21.529.829 48.25.829H1259v24h-138zm-570.345 5.95c-50.307-9.09-87.211-51.392-89.336-102.404-1.848-44.375 21.244-83.081 61.181-102.55 18.657-9.096 37.81-12.6 57.562-10.532 36.202 3.79 66.215 23.23 84.269 54.582 33.607 58.364 5.176 134.121-58.71 156.434-17.034 5.95-37.544 7.617-54.966 4.47zm34.53-31.856c14.984-3.175 26.791-9.651 38.375-21.048 12.92-12.71 19.924-26.871 22.43-45.351 2.068-15.242-1.854-33.859-10.067-47.785-4.414-7.485-18.8-21.912-26.144-26.219-14.282-8.374-27.074-11.578-43.279-10.839-12.76.582-21.008 2.836-33 9.017-10.117 5.215-23.27 17.9-29.446 28.399-8.272 14.061-11.966 31.388-10.024 47.016 2.33 18.751 9.274 32.805 22.871 46.289 11.121 11.028 24.043 17.917 39.174 20.886 6.985 1.37 21.8 1.185 29.11-.365z"
     fill="#f26317"
     id="path2" />
  <path
     d="M240 214.465c0-.319 5.4-9.753 12-20.965s12-20.636 12-20.943c0-.306-5.175-.557-11.5-.557H241v-30h38.637l34.932-63.44c19.212-34.891 35.226-63.129 35.587-62.75.536.564 105.758 189.419 109.739 196.961l1.198 2.272-19.796-.272-19.797-.271-11-21-11-21-50-.22-50-.222-11.562 21.221-11.562 21.221-18.188.273c-10.003.15-18.188.011-18.188-.308zm142.254-78.715c-1.615-2.888-9.618-17.523-17.785-32.524-11.567-21.244-15.106-26.992-16.008-26C347.178 78.636 314 139.469 314 140.41c0 .324 16.018.59 35.595.59h35.596zm330.768-20.5c.021-94.681.11-99.64 1.75-97.586.95 1.19 25.789 30.1 55.196 64.246 41.184 47.82 53.727 61.796 54.596 60.836.62-.685 24.229-28.471 52.462-61.746 28.234-33.275 52.828-62.189 54.654-64.253l3.32-3.753V215h-34l-.14-12.25c-.078-6.737-.415-31.08-.75-54.093l-.61-41.842-37.796 45.562c-20.788 25.059-38.113 45.754-38.5 45.989-.387.234-18.029-20.197-39.204-45.404l-38.5-45.83-.259 53.934-.258 53.934H713l.022-99.75zm285.223-2.5L998.5 10.5l16.75-.274 16.75-.274V215h-34.009zM32 114.45V14.897l3.25 2.51c1.788 1.38 36.1 29.681 76.25 62.892l73 60.385.257-63.843.258-63.842H218v99.559c0 54.757-.352 99.342-.782 99.076-.43-.266-35.417-28.641-77.75-63.057-42.332-34.416-77.305-62.575-77.718-62.576S61 114.8 61 150v64H32z"
     fill="#010101"
     id="path4" />
  <path
     style="fill:#ffffff;fill-opacity:0.941176;stroke-width:1.21928"
     d="m 32.920605,115.07282 c 0,-78.448519 0.307807,-98.066611 1.524102,-97.138587 2.694396,2.055803 92.021913,75.6756 121.315003,99.982467 15.58961,12.93599 28.62068,23.51997 28.95794,23.51997 0.33724,0 0.61316,-28.80553 0.61316,-64.012284 V 13.412098 h 15.85066 15.85067 v 98.224132 c 0,78.25553 -0.30985,98.03771 -1.52411,97.30713 C 214.66978,208.439 189.56782,188.21752 159.7259,164.00673 83.495372,102.1608 62.544559,85.349716 61.699566,85.349716 c -0.404515,0 -0.735483,28.805534 -0.735483,64.012284 v 64.01229 H 46.942344 32.920605 Z"
     id="path864" />
  <path
     style="fill:#ffffff;fill-opacity:0.941176;stroke-width:1.21928"
     d="m 241.41777,213.9252 c 0,-0.36761 5.21243,-9.65459 11.58318,-20.63772 6.37074,-10.98314 11.58317,-20.28421 11.58317,-20.66906 0,-0.38484 -5.21243,-0.69971 -11.58317,-0.69971 h -11.58318 v -14.63138 -14.63138 h 19.35803 19.35803 l 21.64827,-39.32183 c 31.55949,-57.324526 47.24504,-85.044895 48.12261,-85.044895 0.91009,0 -1.88769,-4.953936 60.59692,107.296785 l 49.20689,88.39792 -16.28419,0.33795 c -8.9563,0.18588 -17.58694,-0.14396 -19.17919,-0.73297 -2.11643,-0.78291 -5.73333,-6.44829 -13.44885,-21.06574 l -10.55384,-19.99481 h -50.90531 -50.90531 l -11.11571,20.3282 c -9.76656,17.86092 -11.54319,20.41371 -14.6377,21.03261 -4.48162,0.89633 -31.26065,0.92719 -31.26065,0.036 z m 143.31811,-74.62227 c -1.31576,-3.43203 -30.00276,-55.449343 -32.64537,-59.19491 -1.3243,-1.877026 -2.97363,-3.224169 -3.66519,-2.99365 -1.25497,0.418323 -35.06993,61.49863 -35.06993,63.34717 0,0.53633 16.24466,0.97513 36.09926,0.97513 33.87902,0 36.04894,-0.13123 35.28123,-2.13374 z"
     id="path940" />
  <path
     style="fill:#ffffff;fill-opacity:0.941176;stroke-width:1.21928"
     d="m 713.40036,123.45227 c 0.0663,-50.127719 0.47782,-94.078514 0.91446,-97.668436 l 0.79388,-6.527129 40.16095,46.651546 c 47.87151,55.608229 66.22298,76.370449 68.15985,77.113699 1.05984,0.4067 75.59514,-85.729665 107.75303,-124.524266 l 2.69952,-3.256663 0.0439,99.676279 0.0439,99.67627 h -16.4603 -16.46031 l -0.1604,-40.54111 c -0.0883,-22.29762 -0.49974,-46.72521 -0.91447,-54.28355 l -0.75413,-13.74243 -37.58803,45.13894 c -20.67341,24.8264 -38.06723,45.13893 -38.65294,45.13893 -0.99866,0 -31.66695,-35.60398 -63.36678,-73.56491 l -14.02174,-16.7912 -0.31738,54.32266 -0.31737,54.32267 h -15.83811 -15.83811 z"
     id="path979" />
  <path
     style="fill:#ffffff;fill-opacity:0.941176;stroke-width:1.21928"
     d="M 998.59168,112.78355 V 10.973535 h 16.46032 16.4603 V 112.78355 214.59357 h -16.4603 -16.46032 z"
     id="path1018" />
</svg>
