<?xml version="1.0" encoding="UTF-8" standalone="no"?>
<!-- Generator: Adobe Illustrator 13.0.0, SVG Export Plug-In . SVG Version: 6.00 Build 14948)  -->

<svg
   version="1.2"
   id="Ebene_1"
   x="0px"
   y="0px"
   width="566.929px"
   height="96.834px"
   viewBox="0 0 566.929 96.834"
   xml:space="preserve"
   sodipodi:docname="neogeo.svg"
   inkscape:version="1.1 (c68e22c387, 2021-05-23)"
   xmlns:inkscape="http://www.inkscape.org/namespaces/inkscape"
   xmlns:sodipodi="http://sodipodi.sourceforge.net/DTD/sodipodi-0.dtd"
   xmlns="http://www.w3.org/2000/svg"
   xmlns:svg="http://www.w3.org/2000/svg"><defs
   id="defs25" /><sodipodi:namedview
   id="namedview23"
   pagecolor="#ffffff"
   bordercolor="#666666"
   borderopacity="1.0"
   inkscape:pageshadow="2"
   inkscape:pageopacity="0.0"
   inkscape:pagecheckerboard="0"
   showgrid="false"
   inkscape:zoom="1.8661948"
   inkscape:cx="283.73243"
   inkscape:cy="48.494401"
   inkscape:window-width="1920"
   inkscape:window-height="1017"
   inkscape:window-x="-8"
   inkscape:window-y="712"
   inkscape:window-maximized="1"
   inkscape:current-layer="Ebene_1" />
<g
   transform="translate(-683.17328,-356.17754)"
   id="g20">
	<g
   transform="matrix(0.93403196,0,0,0.93403196,69.311262,27.640521)"
   id="g18">
		<g
   transform="translate(1.5605469e-5,0)"
   id="g8">
			<path
   fill="#605439"
   d="M1036.018,414.062h2.403c2.244,0,6.081,0.462,7.662,1.388c1.581,0.92,2.624,1.953,3.126,3.095     c0.504,1.142,0.759,3.661,0.759,7.551v15.273c0,4.609-4.87,6.957-7.216,7.467c-2.357,0.508-4.646,0.763-6.875,0.763     c-6.43,0-11.982-1.673-16.662-5.022c-4.674-3.35-8.061-8.586-10.163-15.727c-2.097-7.132-3.143-15.422-3.143-24.892     c0-7.811,0.958-15.43,2.875-22.852c1.922-7.424,5.188-13.208,9.801-17.36c4.613-4.148,10.395-6.223,17.337-6.223     c7.266,0,11.518,1.839,16.865,7.398c5.47,5.681,10.717,12.137,13.78,21.614h4.473V351.74h-2.545     c-0.918,2.787-1.92,4.68-3.015,5.679c-1.1,1.003-2.29,1.502-3.563,1.502c-0.826,0-3.49-0.906-7.99-2.718     c-4.498-1.814-7.756-2.915-9.763-3.303c-3.699-0.772-6.574-1.162-11.185-1.162c-14.897,0-27.259,5.119-37.085,15.355     c-9.826,10.245-14.737,22.785-14.737,37.63c0,8.295,1.594,15.792,4.796,22.487c2.511,5.192,5.997,9.857,10.451,14.01     c4.456,4.147,9.6,7.495,15.422,10.048c5.828,2.543,13.151,3.818,21.969,3.818c6.903,0,13.556-0.713,19.98-2.139     c6.422-1.43,12.597-3.546,18.55-6.351v-20.525c0-3.597,0.203-5.858,0.613-6.778c0.73-1.752,1.767-3.004,3.114-3.761     c1.344-0.757,5.016-1.247,8.438-1.494v-3.36h-48.486v3.36L1036.018,414.062z"
   id="path2" />
			<path
   fill="#605439"
   d="M1147.468,440.646c-5.525,4.23-12.879,6.344-22.05,6.344h-5.228c-2.802,0-4.826-0.381-6.085-1.152     c-1.248-0.77-2.112-1.757-2.568-2.959c-0.458-1.202-0.688-4.498-0.688-9.88v-27.567c4.711,0,10.227,0.613,12.703,1.844     c2.474,1.225,4.646,3.624,6.512,7.191c1.874,3.564,3.099,7.503,3.682,13.092h3.975v-50.731h-3.975     c-0.78,7.622-2.574,12.739-5.391,16.644c-2.815,3.905-7.356,5.858-13.615,5.858h-3.896v-34.029c-0.031-5.915,5.24-5.23,5.24-5.23     h6.16c7.448,0,12.521,0.436,15.229,1.305c4.642,1.443,8.235,3.706,10.773,6.787c2.541,3.084,4.508,8.161,5.911,15.241h3.335     v-28.978h-82.888v3.969h2.614c3.185,0,5.696,0.673,7.528,2.019c1.305,0.914,2.2,2.218,2.679,3.9     c0.245,1.006,0.366,3.726,0.366,8.153v61.308c0,4.906-0.266,7.938-0.799,9.096c-0.675,1.633-1.644,2.788-2.896,3.463     c-1.74,1.012-4.031,1.516-6.875,1.516h-2.616v4.611h84.291l5.065-31.174h-4.623c-2.415,8.678-6.386,15.133-11.915,19.361"
   id="path4" />
			<path
   fill="#605439"
   d="M1212.688,352.888c-14.125-0.583-26.03,4.02-35.697,13.819c-9.686,9.791-14.514,22.035-14.514,36.713     c0,13.078,3.718,24.378,11.16,33.907c9.414,12.053,22.738,18.088,39.975,18.088c17.18,0,30.49-6.319,39.908-18.964     c7.11-9.516,10.667-20.557,10.667-33.104c0-14.679-4.77-26.906-14.297-36.68c-9.537-9.775-21.927-14.366-37.185-13.778      M1235.236,431.349c-2.309,6.827-5.531,11.798-9.675,14.901c-3.25,2.434-7.3,3.647-12.153,3.647     c-7.206,0-12.804-2.821-16.814-8.454c-5.744-8.064-8.619-20.524-8.619-37.39c0-14.192,1.859-25.073,5.581-32.651     c4.567-9.229,11.227-13.844,19.982-13.844c4.757,0,8.96,1.338,12.609,4.011c3.649,2.671,6.652,7.253,9.004,13.737     c2.357,6.491,3.534,16.263,3.534,29.341c0,10.98-1.152,19.886-3.463,26.715"
   id="path6" />
		</g>
		<path
   fill="#605439"
   d="M899.717,454.844c17.18,0,30.488-6.321,39.908-18.964c7.108-9.527,10.666-20.555,10.666-33.104    c0-14.679-4.77-26.905-14.299-36.68c-9.535-9.774-21.926-14.364-37.183-13.778c-14.125-0.582-26.03,4.021-35.697,13.82    c-9.684,9.79-14.514,22.035-14.514,36.713c0,13.077,3.717,24.378,11.162,33.906c9.411,12.053,22.736,18.088,39.974,18.088     M879.507,370.885c4.566-9.229,11.227-13.844,19.987-13.844c4.756,0,8.957,1.335,12.606,4.009    c3.649,2.673,6.651,7.253,9.007,13.737c2.354,6.49,3.532,16.262,3.532,29.332c0,10.98-1.152,19.888-3.462,26.715    c-2.305,6.827-5.531,11.798-9.675,14.909c-3.248,2.43-7.299,3.645-12.153,3.645c-7.206,0-12.805-2.819-16.817-8.454    c-5.743-8.065-8.618-20.524-8.618-37.39c0-14.192,1.858-25.073,5.579-32.651"
   id="path10" />
		<path
   fill="#605439"
   d="M849.935,420.502h-4.627c-2.414,8.676-6.387,15.133-11.913,19.359c-5.526,4.23-12.879,6.344-22.042,6.344    h-5.229c-2.801,0-4.823-0.386-6.082-1.15c-1.253-0.773-2.112-1.76-2.57-2.961c-0.457-1.204-0.688-4.499-0.688-9.882v-27.567    c4.71,0,10.228,0.615,12.705,1.845c2.474,1.224,4.647,3.626,6.513,7.191c1.872,3.566,3.098,7.503,3.681,13.093h3.976v-50.732    h-3.976c-0.779,7.619-2.575,12.739-5.392,16.644c-2.811,3.906-7.354,5.857-13.613,5.857h-3.897v-34.029    c-0.032-5.916,5.244-5.23,5.244-5.23h6.155c7.453,0,12.532,0.435,15.24,1.302c4.645,1.443,8.235,3.709,10.774,6.789    c2.541,3.082,4.51,8.164,5.914,15.239h3.332v-29.001h-82.887v3.994h2.612c3.185,0,5.696,0.674,7.529,2.017    c1.303,0.914,2.196,2.218,2.676,3.901c0.244,1.007,0.366,3.725,0.366,8.151v61.309c0,4.906-0.265,7.938-0.797,9.088    c-0.674,1.633-1.644,2.794-2.893,3.465c-1.74,1.012-4.032,1.516-6.882,1.516h-2.612v4.611h84.29l5.067-31.174L849.935,420.502z"
   id="path12" />
		<path
   fill="#605439"
   d="M690.849,447.002h-2.237c-3.21,0-6.061-0.985-8.554-2.957c-2.488-1.973-3.734-5.765-3.734-11.392v-59.212    l64.138,79.957l4.159,0.006v-81.55c0-4.637,0.385-5.983,1.15-7.891c0.765-1.908,1.835-3.285,3.201-4.131    c1.368-0.844,4.05-1.532,8.04-2.064v-4.149h-31.818v4.149c5.245-0.096,8.991,1.255,11.211,4.057    c1.626,2.077,2.439,4.135,2.439,10.031v42.707l-49.931-60.944h-30.381v3.291c2.888,0.096,2.991,1.063,4.529,1.88l8.138,8.191    l-0.011,65.664c0,5.193-1.026,8.867-3.074,11.029c-2.05,2.164-5.684,3.268-10.897,3.316v3.969h33.617v-3.969L690.849,447.002z"
   id="path14" />
		<path
   fill="#605439"
   stroke="#000000"
   stroke-width="0.133"
   d="M977.66,403.577c0,6.516-5.282,11.796-11.794,11.796    c-6.517,0-11.797-5.284-11.797-11.796c0-6.517,5.284-11.796,11.797-11.796C972.383,391.781,977.66,397.064,977.66,403.577z"
   id="path16" />
	</g>
</g>
<path
   style="fill:#d4aa00;fill-opacity:0.941176;stroke-width:0.53585"
   d="M 47.958551,57.335943 17.950966,19.864005 17.812477,49.644776 c -0.09096,19.560667 0.05469,30.498196 0.424436,31.871311 1.125112,4.178347 4.883429,6.989345 10.297085,7.701607 2.249142,0.295913 2.545286,0.486922 2.545286,1.641667 v 1.306793 H 15.539642 0 V 90.623008 C 0,89.12585 0.09265506,89.07316 3.109335,88.854956 7.5301393,88.535182 10.135979,87.024333 11.782187,83.826489 L 13.128318,81.211563 13.284673,47.69071 13.441027,14.169859 8.6649886,9.4962529 C 5.6862064,6.5813581 3.4596961,4.8226476 2.7482493,4.8226476 1.8867288,4.8226476 1.6075492,4.492605 1.6075492,3.4741263 V 2.1256051 L 15.656034,2.2684644 29.704519,2.4113238 51.039924,28.400036 c 11.734476,14.293791 22.111072,27.006071 23.059108,28.249505 0.948041,1.243434 1.904554,2.268246 2.125592,2.277361 C 76.843032,58.952408 76.685171,16.17567 76.056796,13.4498 74.995674,8.8466669 71.714484,6.1505855 66.40872,5.5221962 63.931262,5.2287778 63.766118,5.1134247 63.766118,3.6763091 V 2.1433989 h 14.467943 14.467943 v 1.5502193 c 0,1.6037726 -0.758608,2.1912421 -2.857039,2.2124972 -2.521864,0.025544 -5.621422,1.9906474 -6.890781,4.3687186 l -1.2371,2.317635 -0.146823,41.126467 -0.146817,41.126467 -1.728657,-0.01875 c -1.639116,-0.01779 -3.282867,-1.959592 -31.736236,-37.4907 z"
   id="path952" /><path
   style="fill:#d4aa00;fill-opacity:0.941176;stroke-width:0.53585"
   d="m 96.988801,91.457552 v -1.780308 l 3.773329,-0.584054 c 4.33377,-0.670804 5.99741,-1.585392 7.3344,-4.032093 0.88143,-1.613015 0.94889,-4.307883 0.94889,-37.906321 0,-33.219359 -0.0753,-36.307441 -0.92312,-37.8564907 -1.23641,-2.2590481 -4.80092,-3.939788 -8.355506,-3.939788 -2.729425,0 -2.777993,-0.028105 -2.777993,-1.6075492 V 2.1433989 h 38.313259 38.31325 V 15.271717 28.400036 h -1.27448 c -1.12519,0 -1.37984,-0.41944 -2.17394,-3.580758 -1.95435,-7.780321 -5.49203,-12.679113 -11.05287,-15.3054187 -4.21079,-1.9886997 -8.15585,-2.5478128 -17.97714,-2.5478128 h -8.70421 l -1.11059,1.4118885 c -1.07079,1.361278 -1.1106,2.023953 -1.1106,18.486816 v 17.074927 h 3.18873 c 4.59285,0 8.23208,-0.921682 10.70102,-2.710172 3.53048,-2.557469 6.51435,-8.720613 7.46462,-15.418083 0.33248,-2.343291 0.4652,-2.512609 2.09278,-2.669872 l 1.73779,-0.167914 v 23.377365 23.377366 l -1.69988,-0.167914 c -1.64754,-0.162743 -1.72302,-0.283405 -2.45162,-3.918862 -1.50743,-7.52161 -5.80553,-13.988835 -10.14768,-15.268933 -1.12433,-0.331459 -4.04306,-0.743397 -6.48608,-0.915416 l -4.44184,-0.312762 0.15505,17.750244 0.15504,17.750242 1.75029,1.751157 1.75029,1.751157 7.35916,0.17062 c 12.21072,0.283095 20.16305,-2.232141 26.08635,-8.250838 2.90493,-2.951712 6.59179,-9.303123 7.82934,-13.487734 0.61827,-2.090553 0.82039,-2.277361 2.46417,-2.277361 0.98486,0 1.79396,0.180849 1.79799,0.401887 0.004,0.221038 -1.0085,6.731612 -2.25009,14.467943 l -2.25742,14.066055 H 135.99914 96.988801 Z"
   id="path991" /><path
   style="fill:#d4aa00;fill-opacity:0.941176;stroke-width:0.53585"
   d="M 216.21537,95.168804 C 195.06326,91.108027 180.53771,73.862947 179.1582,51.173649 c -0.57542,-9.464076 1.72984,-20.371814 5.81407,-27.510313 5.53598,-9.675878 14.72009,-17.40419 24.53924,-20.649453 8.93024,-2.95147749 23.37153,-3.07800485 32.49075,-0.2846678 15.65282,4.7946648 27.06954,17.8031298 30.50507,34.7581508 1.3652,6.737557 0.8634,18.391585 -1.07271,24.912689 -3.64357,12.272132 -12.05086,23.022205 -22.15904,28.333906 -6.54018,3.436769 -12.11086,4.735422 -21.27152,4.958882 -5.29747,0.129221 -9.31654,-0.04946 -11.78869,-0.524039 z m 13.96764,-4.120743 c 11.49202,-2.104443 17.98936,-13.440725 19.53007,-34.075258 1.22686,-16.431108 -0.6806,-31.623703 -5.05342,-40.24973 -2.60741,-5.143485 -5.12129,-7.8117441 -9.29751,-9.8684838 -3.32848,-1.6392379 -3.96177,-1.7640167 -8.95299,-1.7640167 -4.71761,0 -5.74734,0.1762866 -8.46296,1.4488283 -8.83721,4.1411382 -13.95727,14.9731402 -15.42254,32.6279552 -1.38454,16.682032 0.9587,32.788421 6.07208,41.736865 4.72244,8.264293 12.32995,11.839054 21.58727,10.14384 z"
   id="path1030" /><path
   style="fill:#d4aa00;fill-opacity:0.941176;stroke-width:0.53585"
   d="m 283.73243,58.053085 c -2.48685,-1.311037 -4.069,-2.930792 -5.14949,-5.271886 -2.68426,-5.816007 0.57436,-12.693642 6.8832,-14.527671 2.53252,-0.736224 3.10951,-0.736224 5.64204,0 9.43699,2.74341 10.63197,15.186739 1.88901,19.670391 -2.44127,1.251953 -7.01405,1.315705 -9.26476,0.129166 z"
   id="path1069" /><path
   style="fill:#d4aa00;fill-opacity:0.941176;stroke-width:0.53585"
   d="m 344.47999,95.907076 c -11.14123,-1.264005 -19.81044,-5.389705 -27.97401,-13.312897 -8.36537,-8.119056 -12.70669,-17.654797 -13.53915,-29.738905 -1.36057,-19.750073 8.77925,-38.503895 25.50906,-47.1795622 7.42642,-3.8511605 13.2363,-5.19244152 22.53812,-5.20319651 7.31459,-0.008457 10.65828,0.68338791 19.75224,4.08695521 5.05418,1.8916083 7.08001,2.4117764 8.41642,2.1610641 1.94072,-0.364082 3.5678,-2.1047775 4.57755,-4.8971985 C 384.17749,0.66941333 384.77349,0 385.3836,0 c 0.9068,0 0.96406,0.95676586 0.96406,16.107839 v 16.107839 l -1.91072,-0.16631 C 382.63131,31.892205 382.44335,31.686143 381.01928,28.30249 377.70588,20.42971 368.62161,9.6431287 363.03819,6.9518958 359.36947,5.1835542 351.35384,4.8085718 346.32433,6.1699973 332.72708,9.8506017 325.59975,24.70022 325.62421,49.298175 c 0.0215,21.596363 5.00576,34.273689 15.56668,39.593331 6.02343,3.034062 16.26172,3.575785 21.31822,1.127975 4.30526,-2.084145 4.54377,-2.885342 4.54512,-15.268443 10e-4,-9.132273 -0.13737,-10.994324 -0.93573,-12.592469 -1.19679,-2.395699 -3.82549,-3.685725 -8.37644,-4.110696 -3.27276,-0.305617 -3.54539,-0.428128 -3.54539,-1.59321 v -1.262141 h 22.23777 22.23776 v 1.28462 c 0,1.16379 -0.33308,1.342614 -3.5413,1.901307 -7.15548,1.24607 -7.34527,1.680371 -7.70071,17.621215 l -0.27876,12.501471 -3.71122,1.582166 c -10.9717,4.677443 -27.40826,7.134378 -38.96022,5.823775 z"
   id="path1108" /><path
   style="fill:#d4aa00;fill-opacity:0.941176;stroke-width:0.53585"
   d="m 390.0986,91.971592 v -1.802111 l 3.37328,-0.270775 c 4.12091,-0.330786 6.48714,-1.483827 7.73654,-3.769934 0.8791,-1.608551 0.9468,-4.357262 0.9468,-38.438146 0,-34.527179 -0.0575,-36.790426 -0.96911,-38.1331282 -1.30614,-1.9238265 -4.13839,-3.181874 -7.93929,-3.5265274 C 390.20651,5.755285 390.0986,5.6929499 390.0986,4.2123744 V 2.6792487 h 38.58119 38.58118 V 16.111084 29.54292 l -1.44253,-0.169555 c -1.3013,-0.152953 -1.5331,-0.52961 -2.36752,-3.846963 -1.26327,-5.022362 -3.85137,-10.081168 -6.22276,-12.163279 -4.8731,-4.2786337 -10.99663,-5.8147809 -23.29863,-5.8446819 -7.62204,-0.018526 -9.2129,0.4275058 -10.04572,2.8165239 -0.345,0.989655 -0.56252,7.902706 -0.56252,17.877107 v 16.263456 h 4.19134 c 9.87214,0 14.65527,-4.552002 17.06028,-16.235885 0.928,-4.508343 1.00876,-4.662255 2.4465,-4.662255 h 1.48682 v 23.577388 23.577389 h -1.55914 c -1.51491,0 -1.57733,-0.107878 -2.20064,-3.803258 -0.81478,-4.830578 -4.16569,-11.659968 -6.77736,-13.812725 -2.20812,-1.82012 -4.66162,-2.534964 -10.49497,-3.057779 l -4.15283,-0.372199 0.0319,15.479591 c 0.0378,18.306995 0.25733,20.198368 2.58621,22.279223 l 1.68555,1.506037 8.16326,-0.0079 c 5.33564,-0.0054 9.33722,-0.284681 11.55248,-0.806926 9.74044,-2.296292 17.05677,-9.116931 20.53696,-19.145557 1.23477,-3.558133 1.2864,-3.616985 3.17356,-3.616985 h 1.91838 l -2.30325,14.066055 c -1.26679,7.736331 -2.3101,14.126339 -2.31849,14.200018 -0.008,0.07369 -17.61789,0.133973 -39.13225,0.133973 h -39.117 z"
   id="path1147" /><path
   style="fill:#d4aa00;fill-opacity:0.941176;stroke-width:0.53585"
   d="M 511.73649,96.130333 C 498.09252,93.636976 489.1662,88.414884 481.74376,78.583928 472.84849,66.802232 469.79565,48.09291 474.34206,33.222683 c 4.15181,-13.579568 15.42935,-25.39386 28.34932,-29.6985869 7.84761,-2.61469678 20.64997,-3.06539664 29.56041,-1.0406573 13.04437,2.9641018 23.58561,11.5083032 29.54787,23.9500112 3.89211,8.121809 5.25495,16.095317 4.50938,26.382717 -0.50341,6.946141 -1.74509,11.464383 -4.9972,18.183922 -4.76358,9.842542 -11.25494,16.498492 -20.37154,20.888066 -6.92119,3.332503 -10.40963,4.089803 -19.82644,4.304084 -4.42076,0.100595 -8.64057,0.07274 -9.37737,-0.06191 z m 11.17885,-4.525434 c 10.0225,-1.626287 16.17081,-9.6104 19.1228,-24.83261 1.95196,-10.065429 1.49942,-31.657735 -0.8573,-40.905601 C 538.85211,16.72869 534.26005,9.971992 528.44458,7.1267473 524.1593,5.0301561 517.13093,4.7386573 512.54236,6.467209 c -8.80875,3.3183272 -14.53246,13.615697 -16.37428,29.458529 -0.84148,7.238163 -0.39308,24.992087 0.77908,30.846551 3.04212,15.194265 9.31429,23.399523 18.969,24.815292 1.67987,0.246341 3.17487,0.47547 3.32223,0.50918 0.14736,0.0337 1.80198,-0.187627 3.67695,-0.491862 z"
   id="path1186" /></svg>
