<?xml version="1.0" encoding="UTF-8" standalone="no"?>
<svg
   version="1.2"
   width="566.929"
   height="96.834"
   xml:space="preserve"
   id="svg14"
   sodipodi:docname="neogeo-w.svg"
   inkscape:version="1.1 (c68e22c387, 2021-05-23)"
   xmlns:inkscape="http://www.inkscape.org/namespaces/inkscape"
   xmlns:sodipodi="http://sodipodi.sourceforge.net/DTD/sodipodi-0.dtd"
   xmlns="http://www.w3.org/2000/svg"
   xmlns:svg="http://www.w3.org/2000/svg"><defs
   id="defs18" /><sodipodi:namedview
   id="namedview16"
   pagecolor="#ffffff"
   bordercolor="#666666"
   borderopacity="1.0"
   inkscape:pageshadow="2"
   inkscape:pageopacity="0.0"
   inkscape:pagecheckerboard="0"
   showgrid="false"
   inkscape:zoom="1.8661948"
   inkscape:cx="283.73243"
   inkscape:cy="48.494401"
   inkscape:window-width="1920"
   inkscape:window-height="1017"
   inkscape:window-x="-8"
   inkscape:window-y="712"
   inkscape:window-maximized="1"
   inkscape:current-layer="svg14" />
    <g
   fill="#605439"
   id="g12">
        <path
   d="M353.812 58.21h2.244c2.096 0 5.68.432 7.157 1.297 1.477.859 2.45 1.824 2.92 2.89.47 1.067.709 3.42.709 7.053v14.266c0 4.305-4.55 6.498-6.74 6.974-2.202.475-4.34.713-6.422.713-6.006 0-11.191-1.563-15.563-4.69-4.365-3.13-7.529-8.02-9.492-14.69-1.959-6.662-2.936-14.405-2.936-23.25 0-7.296.895-14.412 2.685-21.345 1.796-6.934 4.846-12.337 9.155-16.215 4.309-3.874 9.71-5.812 16.193-5.812 6.787 0 10.758 1.718 15.753 6.91 5.109 5.306 10.01 11.336 12.87 20.188h4.179v-32.5h-2.378c-.857 2.604-1.793 4.372-2.816 5.305-1.027.937-2.139 1.403-3.328 1.403-.771 0-3.26-.847-7.463-2.539-4.2-1.694-7.244-2.723-9.118-3.085-3.455-.721-6.14-1.085-10.448-1.085-13.914 0-25.46 4.78-34.638 14.342-9.178 9.569-13.765 21.281-13.765 35.147 0 7.748 1.489 14.75 4.48 21.004 2.345 4.85 5.601 9.207 9.761 13.086 4.162 3.873 8.967 7 14.405 9.385 5.443 2.375 12.283 3.566 20.52 3.566 6.447 0 12.661-.666 18.662-1.998a82.643 82.643 0 0 0 17.326-5.932V69.427c0-3.36.19-5.472.572-6.331.682-1.636 1.65-2.806 2.909-3.513 1.255-.707 4.685-1.165 7.881-1.395v-3.139H353.8v3.139l.013.022z"
   id="path2" />
        <path
   d="M457.91 83.04c-5.16 3.951-12.03 5.926-20.596 5.926h-4.883c-2.617 0-4.507-.356-5.683-1.076-1.166-.72-1.973-1.641-2.399-2.764-.428-1.123-.643-4.201-.643-9.228V50.149c4.4 0 9.553.573 11.865 1.723 2.311 1.144 4.34 3.385 6.083 6.716 1.75 3.33 2.894 7.008 3.439 12.229h3.713V23.432h-3.713c-.729 7.12-2.404 11.899-5.035 15.546-2.63 3.648-6.871 5.472-12.717 5.472h-3.64V12.666c-.028-5.525 4.895-4.885 4.895-4.885h5.754c6.956 0 11.695.407 14.224 1.219 4.336 1.348 7.692 3.461 10.062 6.339 2.374 2.88 4.211 7.623 5.522 14.236h3.115V2.508h-77.42v3.707h2.441c2.975 0 5.32.629 7.031 1.886 1.22.854 2.055 2.072 2.503 3.643.229.94.342 3.48.342 7.615v57.264c0 4.582-.249 7.414-.747 8.496-.63 1.525-1.535 2.604-2.705 3.234-1.625.945-3.765 1.416-6.421 1.416h-2.444v4.307h78.73l4.732-29.117h-4.318c-2.256 8.105-5.965 14.134-11.13 18.083"
   id="path4" />
        <path
   d="M518.827 1.072c-13.193-.545-24.313 3.754-33.342 12.907-9.047 9.145-13.556 20.581-13.556 34.291 0 12.215 3.472 22.77 10.423 31.67 8.793 11.258 21.238 16.895 37.338 16.895 16.047 0 28.479-5.902 37.276-17.713 6.64-8.888 9.963-19.2 9.963-30.92 0-13.71-4.455-25.131-13.354-34.26-8.908-9.13-20.48-13.419-34.732-12.87m21.045 73.285c-2.157 6.376-5.166 11.02-9.037 13.918-3.035 2.273-6.818 3.406-11.351 3.406-6.73 0-11.96-2.635-15.705-7.896-5.365-7.532-8.05-19.17-8.05-34.924 0-13.255 1.736-23.419 5.212-30.497 4.266-8.62 10.487-12.93 18.664-12.93 4.443 0 8.37 1.25 11.777 3.746 3.409 2.495 6.214 6.775 8.41 12.83 2.202 6.064 3.301 15.19 3.301 27.406 0 10.256-1.076 18.574-3.234 24.953M226.502 96.302c16.047 0 28.477-5.904 37.276-17.713 6.639-8.899 9.962-19.2 9.962-30.92 0-13.711-4.455-25.13-13.356-34.26-8.906-9.13-20.48-13.417-34.73-12.87-13.193-.543-24.313 3.756-33.342 12.909-9.045 9.144-13.556 20.581-13.556 34.29 0 12.215 3.471 22.77 10.425 31.67 8.79 11.258 21.236 16.895 37.337 16.895M207.626 17.88c4.264-8.62 10.486-12.93 18.668-12.93 4.442 0 8.366 1.247 11.775 3.744 3.408 2.497 6.212 6.775 8.412 12.831 2.2 6.062 3.3 15.19 3.3 27.397 0 10.256-1.077 18.576-3.234 24.953-2.153 6.376-5.166 11.02-9.037 13.925-3.034 2.27-6.818 3.405-11.351 3.405-6.73 0-11.96-2.633-15.708-7.897-5.364-7.533-8.05-19.17-8.05-34.923 0-13.256 1.736-23.419 5.212-30.497"
   id="path6" />
        <path
   d="M180.004 64.225h-4.321c-2.255 8.104-5.966 14.135-11.127 18.082-5.162 3.951-12.03 5.926-20.588 5.926h-4.884c-2.617 0-4.505-.36-5.681-1.074-1.17-.722-1.973-1.644-2.4-2.766-.428-1.125-.643-4.202-.643-9.23V49.414c4.399 0 9.553.575 11.867 1.724 2.31 1.143 4.34 3.386 6.083 6.716 1.748 3.331 2.894 7.008 3.438 12.23h3.714V22.698h-3.714c-.728 7.117-2.405 11.899-5.036 15.546-2.626 3.649-6.87 5.47-12.715 5.47h-3.64V11.932c-.03-5.526 4.898-4.885 4.898-4.885h5.749c6.961 0 11.705.406 14.235 1.216 4.338 1.348 7.691 3.464 10.063 6.341 2.373 2.879 4.212 7.625 5.524 14.234h3.112V1.749h-77.42v3.73h2.44c2.975 0 5.32.63 7.033 1.884 1.217.854 2.05 2.072 2.5 3.644.227.94.341 3.48.341 7.613v57.265c0 4.582-.247 7.414-.744 8.488-.63 1.526-1.536 2.61-2.702 3.237-1.626.945-3.766 1.416-6.428 1.416h-2.44v4.307h78.73l4.732-29.118.024.01zM31.413 88.977h-2.09c-2.998 0-5.66-.92-7.99-2.762-2.323-1.843-3.487-5.384-3.487-10.64V20.269L77.753 94.95l3.885.006v-76.17c0-4.332.36-5.589 1.074-7.37.714-1.783 1.714-3.07 2.99-3.86 1.278-.788 3.783-1.43 7.51-1.927V1.754h-29.72V5.63c4.9-.09 8.398 1.172 10.472 3.79 1.519 1.94 2.278 3.861 2.278 9.368v39.89L29.605 1.754H1.228v3.074c2.697.09 2.794.993 4.23 1.756l7.601 7.651-.01 61.332c0 4.85-.958 8.282-2.871 10.302C8.263 87.889 4.868 88.92 0 88.966v3.707h31.399v-3.707l.014.011z"
   id="path8" />
        <path
   stroke="#000"
   stroke-width=".12422599000000001"
   d="M299.304 48.417c0 6.086-4.934 11.018-11.016 11.018-6.087 0-11.02-4.936-11.02-11.018 0-6.087 4.936-11.018 11.02-11.018 6.087 0 11.016 4.934 11.016 11.018z"
   id="path10" />
    </g>
<path
   style="fill:#ffffff;fill-opacity:0.941176;stroke-width:0.53585"
   d="M 47.958551,57.335943 17.950966,19.864005 17.812477,49.644776 c -0.09096,19.560667 0.05469,30.498196 0.424436,31.871311 1.125112,4.178347 4.883429,6.989345 10.297085,7.701607 2.249142,0.295913 2.545286,0.486922 2.545286,1.641667 v 1.306793 H 15.539642 0 V 90.623008 C 0,89.12585 0.09265506,89.07316 3.109335,88.854956 7.5301393,88.535182 10.135979,87.024333 11.782187,83.826489 L 13.128318,81.211563 13.284673,47.69071 13.441027,14.169859 8.6649886,9.4962529 C 5.6862064,6.5813581 3.4596961,4.8226476 2.7482493,4.8226476 1.8867288,4.8226476 1.6075492,4.492605 1.6075492,3.4741263 V 2.1256051 L 15.661998,2.2684644 29.716448,2.4113238 52.769592,30.640144 C 65.44882,46.165995 76.003586,58.885727 76.224624,58.906218 76.843107,58.963549 76.685128,16.175506 76.056796,13.4498 74.995674,8.8466669 71.714484,6.1505855 66.40872,5.5221962 63.931262,5.2287778 63.766118,5.1134247 63.766118,3.6763091 V 2.1433989 h 14.467943 14.467943 v 1.5502193 c 0,1.6037726 -0.758608,2.1912421 -2.857039,2.2124972 -2.521864,0.025544 -5.621422,1.9906474 -6.890781,4.3687186 l -1.2371,2.317635 -0.146823,41.126467 -0.146817,41.126467 -1.728657,-0.01875 c -1.639116,-0.01779 -3.282867,-1.959592 -31.736236,-37.4907 z"
   id="path872" /><path
   style="fill:#ffffff;fill-opacity:0.941176;stroke-width:0.53585"
   d="m 96.988801,91.457552 v -1.780308 l 3.773329,-0.584054 c 4.33377,-0.670804 5.99741,-1.585392 7.3344,-4.032093 0.88143,-1.613015 0.94889,-4.307883 0.94889,-37.906321 0,-33.219359 -0.0753,-36.307441 -0.92312,-37.8564907 -1.23641,-2.2590481 -4.80092,-3.939788 -8.355506,-3.939788 -2.729425,0 -2.777993,-0.028105 -2.777993,-1.6075492 V 2.1433989 h 38.313259 38.31325 V 15.271717 28.400036 h -1.27448 c -1.12519,0 -1.37984,-0.41944 -2.17394,-3.580758 -1.95435,-7.780321 -5.49203,-12.679113 -11.05287,-15.3054187 -4.21079,-1.9886997 -8.15585,-2.5478128 -17.97714,-2.5478128 h -8.70421 l -1.11059,1.4118885 c -1.07079,1.361278 -1.1106,2.023953 -1.1106,18.486816 v 17.074927 h 3.18873 c 4.59285,0 8.23208,-0.921682 10.70102,-2.710172 3.53048,-2.557469 6.51435,-8.720613 7.46462,-15.418083 0.33248,-2.343291 0.4652,-2.512609 2.09278,-2.669872 l 1.73779,-0.167914 v 23.377365 23.377366 l -1.69988,-0.167914 c -1.64754,-0.162743 -1.72302,-0.283405 -2.45162,-3.918862 -1.50743,-7.52161 -5.80553,-13.988835 -10.14768,-15.268933 -1.12433,-0.331459 -4.04306,-0.743397 -6.48608,-0.915416 l -4.44184,-0.312762 0.15505,17.750244 0.15504,17.750242 1.75029,1.751157 1.75029,1.751157 7.35916,0.17062 c 12.21072,0.283095 20.16305,-2.232141 26.08635,-8.250838 2.90493,-2.951712 6.59179,-9.303123 7.82934,-13.487734 0.61827,-2.090553 0.82039,-2.277361 2.46417,-2.277361 0.98486,0 1.79396,0.180849 1.79799,0.401887 0.004,0.221038 -1.0085,6.731612 -2.25009,14.467943 l -2.25742,14.066055 H 135.99914 96.988801 Z"
   id="path911" /><path
   style="fill:#ffffff;fill-opacity:0.941176;stroke-width:0.53585"
   d="M 216.21537,95.168804 C 195.06326,91.108027 180.53771,73.862947 179.1582,51.173649 c -0.57542,-9.464076 1.72984,-20.371814 5.81407,-27.510313 5.53598,-9.675878 14.72009,-17.40419 24.53924,-20.649453 8.93024,-2.95147749 23.37153,-3.07800485 32.49075,-0.2846678 15.62775,4.7869845 27.07505,17.8302888 30.50507,34.7581508 1.3652,6.737557 0.8634,18.391585 -1.07271,24.912689 -3.64357,12.272132 -12.05086,23.022205 -22.15904,28.333906 -6.54018,3.436769 -12.11086,4.735422 -21.27152,4.958882 -5.29747,0.129221 -9.31654,-0.04946 -11.78869,-0.524039 z m 13.96764,-4.120743 c 11.49202,-2.104443 17.98936,-13.440725 19.53007,-34.075258 1.22686,-16.431108 -0.6806,-31.623703 -5.05342,-40.24973 -2.60741,-5.143485 -5.12129,-7.8117441 -9.29751,-9.8684838 -3.32848,-1.6392379 -3.96177,-1.7640167 -8.95299,-1.7640167 -4.76532,0 -5.73378,0.1696769 -8.58624,1.5043316 -8.73556,4.0873319 -13.83645,14.9472289 -15.29926,32.5724519 -1.38454,16.682032 0.9587,32.788421 6.07208,41.736865 4.72244,8.264293 12.32995,11.839054 21.58727,10.14384 z"
   id="path950" /><path
   style="fill:#ffffff;fill-opacity:0.941176;stroke-width:0.53585"
   d="m 283.73243,58.053085 c -2.48685,-1.311037 -4.069,-2.930792 -5.14949,-5.271886 -2.68426,-5.816007 0.57436,-12.693642 6.8832,-14.527671 2.53252,-0.736224 3.10951,-0.736224 5.64204,0 9.43699,2.74341 10.63197,15.186739 1.88901,19.670391 -2.44127,1.251953 -7.01405,1.315705 -9.26476,0.129166 z"
   id="path989" /><path
   style="fill:#ffffff;fill-opacity:0.941176;stroke-width:0.53585"
   d="M 344.47999,95.907076 C 332.61017,94.560411 323.48275,89.933498 314.8959,80.910196 294.05901,59.014187 301.12672,19.858315 328.47589,5.6757118 c 7.42642,-3.8511605 13.2363,-5.19244152 22.53812,-5.20319651 7.31459,-0.008457 10.65828,0.68338791 19.75224,4.08695521 5.05418,1.8916083 7.08001,2.4117764 8.41642,2.1610641 1.94072,-0.364082 3.5678,-2.1047775 4.57755,-4.8971985 C 384.17749,0.66941333 384.77349,0 385.3836,0 c 0.9068,0 0.96406,0.95676586 0.96406,16.107839 v 16.107839 l -1.91072,-0.16631 C 382.63131,31.892205 382.44335,31.686143 381.01928,28.30249 377.70588,20.42971 368.62161,9.6431287 363.03819,6.9518958 359.36947,5.1835542 351.35384,4.8085718 346.32433,6.1699973 332.72708,9.8506017 325.59975,24.70022 325.62421,49.298175 c 0.0215,21.596363 5.00576,34.273689 15.56668,39.593331 6.02343,3.034062 16.26172,3.575785 21.31822,1.127975 4.30526,-2.084145 4.54377,-2.885342 4.54512,-15.268443 10e-4,-9.132273 -0.13737,-10.994324 -0.93573,-12.592469 -1.19679,-2.395699 -3.82549,-3.685725 -8.37644,-4.110696 -3.27276,-0.305617 -3.54539,-0.428128 -3.54539,-1.59321 v -1.262141 h 22.23777 22.23776 v 1.28462 c 0,1.16379 -0.33308,1.342614 -3.5413,1.901307 -7.15548,1.24607 -7.34527,1.680371 -7.70071,17.621215 l -0.27876,12.501471 -3.71122,1.582166 c -10.9717,4.677443 -27.40826,7.134378 -38.96022,5.823775 z"
   id="path1028" /><path
   style="fill:#ffffff;fill-opacity:0.941176;stroke-width:0.53585"
   d="m 390.0986,91.971592 v -1.802111 l 3.37328,-0.270775 c 4.12091,-0.330786 6.48714,-1.483827 7.73654,-3.769934 0.8791,-1.608551 0.9468,-4.357262 0.9468,-38.438146 0,-34.527179 -0.0575,-36.790426 -0.96911,-38.1331282 -1.30614,-1.9238265 -4.13839,-3.181874 -7.93929,-3.5265274 C 390.20651,5.755285 390.0986,5.6929499 390.0986,4.2123744 V 2.6792487 h 38.58119 38.58118 V 16.111084 29.54292 l -1.44253,-0.169555 c -1.3013,-0.152953 -1.5331,-0.52961 -2.36752,-3.846963 -1.26327,-5.022362 -3.85137,-10.081168 -6.22276,-12.163279 -4.8731,-4.2786337 -10.99663,-5.8147809 -23.29863,-5.8446819 -7.62204,-0.018526 -9.2129,0.4275058 -10.04572,2.8165239 -0.345,0.989655 -0.56252,7.902706 -0.56252,17.877107 v 16.263456 h 4.19134 c 9.87214,0 14.65527,-4.552002 17.06028,-16.235885 0.928,-4.508343 1.00876,-4.662255 2.4465,-4.662255 h 1.48682 v 23.577388 23.577389 h -1.55914 c -1.51491,0 -1.57733,-0.107878 -2.20064,-3.803258 -0.81478,-4.830578 -4.16569,-11.659968 -6.77736,-13.812725 -2.20812,-1.82012 -4.66162,-2.534964 -10.49497,-3.057779 l -4.15283,-0.372199 0.0319,15.479591 c 0.0378,18.306995 0.25733,20.198368 2.58621,22.279223 l 1.68555,1.506037 8.16326,-0.0079 c 5.33564,-0.0054 9.33722,-0.284681 11.55248,-0.806926 9.74044,-2.296292 17.05677,-9.116931 20.53696,-19.145557 1.23477,-3.558133 1.2864,-3.616985 3.17356,-3.616985 h 1.91838 l -2.30325,14.066055 c -1.26679,7.736331 -2.3101,14.126339 -2.31849,14.200018 -0.008,0.07369 -17.61789,0.133973 -39.13225,0.133973 h -39.117 z"
   id="path1067" /><path
   style="fill:#ffffff;fill-opacity:0.941176;stroke-width:0.53585"
   d="M 511.73649,96.130333 C 498.09252,93.636976 489.1662,88.414884 481.74376,78.583928 472.84849,66.802232 469.79565,48.09291 474.34206,33.222683 c 4.15181,-13.579568 15.42935,-25.39386 28.34932,-29.6985869 7.8518,-2.61609088 20.65009,-3.06537402 29.57161,-1.0381093 18.85986,4.28558 32.62643,20.8187592 34.07079,40.9178412 0.7268,10.113874 -0.70292,18.516657 -4.54655,26.721058 -6.07767,12.973077 -16.07209,21.533406 -29.1526,24.969504 -3.39286,0.891263 -17.78565,1.604731 -20.89814,1.035943 z m 11.17885,-4.525434 c 10.0225,-1.626287 16.17081,-9.6104 19.1228,-24.83261 1.95196,-10.065429 1.49942,-31.657735 -0.8573,-40.905601 C 538.85211,16.72869 534.26005,9.971992 528.44458,7.1267473 524.1593,5.0301561 517.13093,4.7386573 512.54236,6.467209 c -8.80875,3.3183272 -14.53246,13.615697 -16.37428,29.458529 -0.84148,7.238163 -0.39308,24.992087 0.77908,30.846551 3.04212,15.194265 9.31429,23.399523 18.969,24.815292 1.67987,0.246341 3.17487,0.47547 3.32223,0.50918 0.14736,0.0337 1.80198,-0.187627 3.67695,-0.491862 z"
   id="path1106" /></svg>
