<?xml version="1.0" encoding="UTF-8" standalone="no"?>
<svg
   version="1.2"
   width="566.926"
   height="124.854"
   xml:space="preserve"
   id="svg16"
   sodipodi:docname="ngp-w.svg"
   inkscape:version="1.1 (c68e22c387, 2021-05-23)"
   xmlns:inkscape="http://www.inkscape.org/namespaces/inkscape"
   xmlns:sodipodi="http://sodipodi.sourceforge.net/DTD/sodipodi-0.dtd"
   xmlns="http://www.w3.org/2000/svg"
   xmlns:svg="http://www.w3.org/2000/svg"><defs
   id="defs20" /><sodipodi:namedview
   id="namedview18"
   pagecolor="#ffffff"
   bordercolor="#666666"
   borderopacity="1.0"
   inkscape:pageshadow="2"
   inkscape:pageopacity="0.0"
   inkscape:pagecheckerboard="0"
   showgrid="false"
   inkscape:zoom="7.4648187"
   inkscape:cx="539.12897"
   inkscape:cy="113.93445"
   inkscape:window-width="1920"
   inkscape:window-height="1017"
   inkscape:window-x="-8"
   inkscape:window-y="712"
   inkscape:window-maximized="1"
   inkscape:current-layer="svg16" />
    <g
   fill="#5B5B59"
   id="g4">
        <path
   d="m33.98 108.929-.068-41.587h5.384v49.797h-5.384L5.249 75.215l.135 41.924H0V67.342h5.652l28.328 41.587zM45.31 67.342h26.419v4.912H50.827v17.294h20.767v4.912H50.827v17.767h20.902v4.912H45.31V67.342zM74.242 92.375c0-15.341 11.911-25.908 25.976-25.908 14.602 0 25.975 11.171 25.975 25.773 0 14.604-11.305 25.773-25.975 25.773-14.738 0-25.976-11.373-25.976-25.572v-.066zm5.585-.135c0 11.709 8.815 20.86 20.458 20.86 11.776 0 20.39-9.485 20.39-20.86 0-11.373-8.613-20.861-20.457-20.861-11.709 0-20.391 9.286-20.391 20.792v.069zM172.16 80.262a21.234 21.234 0 0 0-5.586-5.383c-3.23-2.221-7.133-3.5-11.574-3.5-10.902 0-20.39 8.344-20.39 20.792 0 12.652 9.556 20.996 20.457 20.996 5.249 0 9.892-1.815 13.324-4.508 3.5-2.761 5.922-6.527 6.73-10.433h-27.104V93.65h33.564c-.067 2.896-.74 6.527-2.221 9.624-4.307 9.354-14.267 14.805-24.293 14.805-14.535 0-26.042-11.17-26.042-25.908 0-14.938 11.709-25.706 26.109-25.706 10.094 0 19.448 5.653 23.351 13.795h-6.325v.002zM184.25 67.342h27.59v4.912h-22.071v17.294h21.937v4.912h-21.937v17.767h22.071v4.912h-27.59V67.342zM214.061 92.375c0-15.341 11.911-25.908 25.975-25.908 14.603 0 25.975 11.171 25.975 25.773 0 14.604-11.305 25.773-25.975 25.773-14.737 0-25.975-11.373-25.975-25.572v-.066zm5.585-.135c0 11.709 8.815 20.86 20.457 20.86 11.777 0 20.39-9.485 20.39-20.86 0-11.373-8.613-20.861-20.457-20.861-11.709 0-20.39 9.286-20.39 20.792v.069z"
   id="path2" />
    </g>
    <g
   fill="#5B5B59"
   id="g8">
        <path
   d="M327.465 92.375c0-15.341 11.91-25.908 25.977-25.908 14.604 0 25.977 11.171 25.977 25.773 0 14.604-11.305 25.773-25.977 25.773-14.736 0-25.977-11.373-25.977-25.572v-.066zm5.584-.135c0 11.709 8.816 20.86 20.459 20.86 11.777 0 20.393-9.485 20.393-20.86 0-11.373-8.613-20.861-20.459-20.861-11.707 0-20.393 9.286-20.393 20.792v.069zM435 103.748c-3.229 7.672-11.91 14.268-22.879 14.268-14.736 0-25.975-11.373-25.975-25.772 0-14.2 10.969-25.774 25.906-25.774 12.314 0 20.053 8.21 22.947 14.535h-5.99c-1.684-2.96-7.334-9.623-16.957-9.623-11.641 0-20.389 9.219-20.389 20.793 0 11.777 8.813 20.929 20.389 20.929 10.432 0 15.746-7.47 16.957-9.354l5.991-.002zM489.643 67.342h27.594v4.912h-22.072v17.294H517.1v4.912h-21.936v17.767h22.072v4.912h-27.594V67.342h.001zM545.229 72.254H529.18v-4.912h37.746v4.912h-16.111v44.885h-5.586V72.254z"
   id="path6" />
    </g>
    <path
   fill="#5B5B59"
   d="M475.575 117.139h6.932l-25.871-24.968 23.783-24.83h-6.055l-26.105 26.998V67.342h-5.518v49.797h5.518v-16.228l5.08-5.307 22.236 21.535z"
   id="path10" />
    <path
   fill="none"
   d="M302.793 120.945c-10.838-21.554-21.646-43.05-32.46-64.561.06-.042.108-.083.163-.11l8.091-4.138c3.812-1.946 7.625-3.883 11.433-5.839 4.003-2.056 8.21-3.293 12.751-3.146 3.091.101 5.925.999 8.411 2.896 2.193 1.674 3.746 3.848 4.938 6.306 1.129 2.332 1.932 4.759 1.979 7.377.063 3.637-1.035 6.924-2.984 9.978-1.307 2.042-2.797 3.921-4.545 5.584-1.203 1.146-2.49 2.204-3.738 3.299l-13.531-9.593c.852-3.113 1.693-6.198 2.539-9.291h12.939v-9.823c-6.682.063-13.289.127-19.896.193-2.408 6.801-4.803 13.564-7.201 20.342 7.736 6.397 15.445 12.773 23.16 19.157 3.066-1.17 5.975-2.609 8.711-4.388 4.365-2.835 8-6.396 10.672-10.881 2.482-4.169 3.727-8.71 3.797-13.559.041-3.005-.414-5.943-1.299-8.823-1.172-3.816-2.986-7.271-5.754-10.165-5.189-5.433-11.553-8.353-19.082-8.621-4.45-.158-8.66.847-12.631 2.842-1.789.9-3.541 1.872-5.342 2.744-4.01 1.939-8.04 3.837-12.062 5.748-3.547 1.687-7.095 3.366-10.642 5.047-1.199.569-2.399 1.141-3.6 1.71 12.046 24.562 24.078 49.094 36.104 73.624l9.079-3.909z"
   id="path12" />
    <path
   fill="#F10000"
   d="M302.793 120.945c-3.047 1.312-6.031 2.597-9.086 3.909-12.024-24.529-24.058-49.063-36.104-73.624 1.201-.569 2.4-1.141 3.6-1.71 3.547-1.682 7.095-3.361 10.642-5.047 4.022-1.911 8.052-3.809 12.062-5.748 1.801-.872 3.553-1.844 5.342-2.744 3.971-1.996 8.181-3 12.631-2.842 7.529.269 13.893 3.188 19.082 8.621 2.768 2.895 4.582 6.348 5.754 10.165.883 2.879 1.34 5.818 1.297 8.823-.068 4.849-1.313 9.39-3.795 13.559-2.672 4.484-6.307 8.045-10.672 10.881-2.736 1.776-5.645 3.217-8.711 4.387a115973.55 115973.55 0 0 0-23.16-19.156l7.201-20.342c6.606-.065 13.217-.13 19.896-.193v9.823h-12.939l-2.539 9.291 13.531 9.593c1.248-1.095 2.535-2.153 3.738-3.299 1.748-1.663 3.238-3.542 4.543-5.584 1.949-3.054 3.051-6.341 2.986-9.978-.049-2.618-.852-5.045-1.979-7.377-1.189-2.458-2.742-4.632-4.938-6.306-2.486-1.896-5.32-2.794-8.411-2.896-4.541-.146-8.748 1.09-12.751 3.146-3.807 1.956-7.621 3.893-11.433 5.839-2.697 1.378-5.395 2.758-8.091 4.138-.055.028-.104.069-.163.11a202454.25 202454.25 0 0 1 32.467 64.561zM310.44 26.526c-2.162-.444-4.266-.879-6.424-1.323L307.79 0c3.936.574 7.832 1.145 11.791 1.724l-9.141 24.802zM345.54 19.679c2.088 3.381 4.146 6.72 6.24 10.112-6.818 4.222-13.635 8.439-20.473 12.671-1.434-2.141-2.84-4.241-4.277-6.392 6.166-5.458 12.316-10.907 18.51-16.391zM329.069 6.482c3.018 2.085 5.979 4.135 8.955 6.19-5.377 6.412-10.738 12.805-16.137 19.239-1.889-1.165-3.76-2.319-5.684-3.508 4.272-7.274 8.549-14.566 12.866-21.921z"
   id="path14" />
<path
   style="fill:#ffffff;fill-opacity:0.941176;stroke-width:0.133962"
   d="M 0,92.232649 V 67.382748 H 2.7922367 5.5844736 L 19.704905,88.139026 c 7.766236,11.415952 14.165643,20.759784 14.220902,20.764064 0.05526,0.004 0.100471,-9.336037 0.100471,-20.756274 V 67.382748 h 2.612254 2.612254 v 24.849901 24.849901 l -2.645744,-0.002 -2.645744,-0.002 -6.698087,-9.80552 C 23.577264,101.87986 17.164223,92.491741 13.010008,86.41042 8.8557939,80.329098 5.3979886,75.293188 5.3259962,75.219509 5.2407701,75.132287 5.2160269,82.41188 5.2550777,96.084048 l 0.059977,20.998502 H 2.6575271 0 Z"
   id="path874" /><path
   style="fill:#ffffff;fill-opacity:0.941176;stroke-width:0.133962"
   d="M 45.413025,92.232649 V 67.382748 h 13.128249 13.12825 v 2.411311 2.411312 H 61.220509 50.771494 v 8.707512 8.707512 h 10.382034 10.382034 v 2.411311 2.411311 H 61.153528 50.771494 v 8.908453 8.90846 h 10.449015 10.449015 v 2.41131 2.41131 H 58.541274 45.413025 Z"
   id="path913" /><path
   style="fill:#ffffff;fill-opacity:0.941176;stroke-width:0.133962"
   d="M 96.318481,117.66583 C 85.88936,116.07439 77.707685,108.84062 75.159669,98.95843 73.307262,91.774078 74.612633,83.784339 78.613016,77.821658 c 6.043153,-9.007485 17.38566,-13.181366 28.338294,-10.428086 10.05133,2.526708 17.35547,10.668425 18.89947,21.066669 0.28288,1.905149 0.28359,5.630254 0.001,7.549382 -1.09326,7.435867 -5.03761,13.664057 -11.24796,17.760707 -3.00873,1.9847 -6.7508,3.35688 -10.67626,3.91488 -1.77418,0.25219 -5.89867,0.24169 -7.609511,-0.0194 z m 5.913609,-4.60923 c 5.02341,-0.51077 8.90172,-2.3309 12.38161,-5.81079 2.97747,-2.97747 4.77956,-6.33548 5.68446,-10.592424 0.36914,-1.736572 0.50435,-5.269031 0.27254,-7.12064 -1.12499,-8.986172 -7.51445,-16.043496 -16.10334,-17.786569 -3.5879,-0.728147 -7.433365,-0.49524 -10.915365,0.661109 -7.034173,2.336001 -12.121374,8.367942 -13.451661,15.949757 -0.386879,2.204973 -0.390039,5.528665 -0.0073,7.708334 0.667776,3.803227 2.311727,7.332773 4.736142,10.168463 4.15813,4.86351 10.854099,7.48864 17.402944,6.82276 z"
   id="path952" /><path
   style="fill:#ffffff;fill-opacity:0.941176;stroke-width:0.133962"
   d="m 153.05127,117.94291 c -0.22103,-0.0311 -0.96422,-0.12174 -1.65151,-0.2015 -3.32028,-0.38533 -7.04942,-1.69074 -10.04512,-3.51637 -6.66373,-4.06097 -10.88985,-10.55741 -12.01442,-18.468717 -0.25417,-1.788046 -0.25477,-5.179895 -10e-4,-7.100289 1.5488,-11.732667 10.51422,-20.446485 22.57012,-21.936737 1.63494,-0.202097 4.96984,-0.172589 6.72823,0.05953 7.58852,1.001745 14.57491,5.223719 18.4009,11.119915 0.64945,1.000869 1.26485,2.106285 1.26485,2.272012 0,0.03978 -1.37144,0.06989 -3.04763,0.06693 l -3.04763,-0.0054 -0.60283,-0.81099 c -1.49317,-2.00878 -4.77885,-4.709669 -7.21925,-5.934357 -5.74279,-2.881958 -12.9231,-2.872908 -18.70234,0.02357 -3.73167,1.870261 -7.04759,5.174855 -8.91055,8.880106 -2.48989,4.952145 -2.90334,11.55698 -1.06662,17.039232 1.03877,3.100505 2.48627,5.420375 4.87852,7.818685 2.92923,2.93664 6.11802,4.66259 10.30336,5.57672 1.17175,0.25593 1.757,0.29653 4.23959,0.29413 2.47607,-0.002 3.07753,-0.0452 4.28677,-0.30475 4.29757,-0.92257 7.88864,-2.81329 10.71256,-5.64022 1.61996,-1.62168 2.68874,-3.06288 3.60276,-4.85814 0.55047,-1.08119 1.17071,-2.772909 1.40089,-3.820929 l 0.0662,-0.301414 H 161.61254 148.02797 V 95.983559 93.77319 h 16.74521 16.74522 l -0.001,0.301414 c -0.002,0.651352 -0.2899,2.779219 -0.54497,4.033126 -2.29586,11.28622 -12.84527,19.57944 -25.24159,19.84318 -1.25255,0.0267 -2.4582,0.023 -2.67924,-0.008 z"
   id="path991" /><path
   style="fill:#ffffff;fill-opacity:0.941176;stroke-width:0.133962"
   d="M 184.33134,92.232649 V 67.382748 h 13.73107 13.73108 v 2.411311 2.411312 H 200.74165 189.6898 v 8.707512 8.707512 h 10.98487 10.98486 v 2.411311 2.411311 H 200.67467 189.6898 v 8.908453 8.90846 h 11.05185 11.05184 v 2.41131 2.41131 h -13.73108 -13.73107 z"
   id="path1030" /><path
   style="fill:#ffffff;fill-opacity:0.941176;stroke-width:0.133962"
   d="m 236.20111,117.67597 c -11.46212,-1.67013 -20.14972,-10.26304 -21.79602,-21.558431 -0.30178,-2.070578 -0.30214,-5.608798 -7.8e-4,-7.635819 1.11275,-7.484459 5.08426,-13.778207 11.18724,-17.728698 1.39295,-0.901663 4.24552,-2.286873 5.69337,-2.7647 2.98417,-0.984851 5.63103,-1.410598 8.74561,-1.406729 3.20954,0.004 5.65926,0.390052 8.53545,1.345146 6.41251,2.129393 11.62298,6.611903 14.61977,12.57722 4.08873,8.138885 3.53739,18.450981 -1.38627,25.928631 -4.0893,6.21049 -10.3966,10.15058 -18.00633,11.24834 -1.75901,0.25375 -5.83481,0.25108 -7.59204,-0.005 z m 7.40829,-4.80912 c 11.45063,-1.88449 18.88323,-13.185241 16.47965,-25.056139 -0.58018,-2.865383 -1.85099,-5.810922 -3.51059,-8.13697 -1.01094,-1.416918 -3.16935,-3.578092 -4.55712,-4.562972 -4.69016,-3.328519 -10.63571,-4.528125 -16.43763,-3.316539 -7.62841,1.593003 -13.6671,7.614273 -15.42106,15.376584 -1.22691,5.429834 -0.42617,11.228925 2.17875,15.778776 2.90442,5.07295 7.68116,8.54947 13.43124,9.77528 2.32704,0.49608 5.35215,0.55089 7.83676,0.14198 z"
   id="path1069" /><path
   style="fill:#ffffff;fill-opacity:0.941176;stroke-width:0.133962"
   d="m 349.57312,117.67428 c -13.97675,-2.15729 -23.3078,-14.12056 -21.89636,-28.073182 1.1714,-11.579758 9.39607,-20.466533 20.94981,-22.636316 1.87237,-0.351629 5.89106,-0.48787 7.7931,-0.2642 4.16875,0.490223 8.10734,1.876362 11.37225,4.002328 4.21608,2.745329 7.538,6.684786 9.4567,11.214686 2.09789,4.95294 2.62746,10.407922 1.53053,15.765508 -2.20336,10.761616 -10.90579,18.684896 -22.03556,20.062686 -1.57046,0.19442 -5.71539,0.15308 -7.17047,-0.0715 z m 5.9806,-4.61678 c 8.66705,-0.87563 15.62407,-6.91941 17.72208,-15.395751 0.41805,-1.688988 0.46188,-1.968265 0.60203,-3.83632 0.36484,-4.862974 -0.92859,-9.76533 -3.62699,-13.747057 -1.80412,-2.662132 -5.05929,-5.461999 -7.89186,-6.788015 -4.00691,-1.875768 -8.82769,-2.43983 -13.21794,-1.546585 -7.94472,1.616441 -13.91343,7.708281 -15.74337,16.06814 -0.25435,1.161965 -0.29323,1.748216 -0.29322,4.420737 2e-5,2.69281 0.0376,3.24995 0.29776,4.420737 0.85562,3.849644 2.41349,7.007494 4.81037,9.750784 4.18602,4.79102 10.7702,7.31719 17.34114,6.65333 z"
   id="path1108" /><path
   style="fill:#ffffff;fill-opacity:0.941176;stroke-width:0.133962"
   d="m 408.24836,117.67428 c -3.87785,-0.59854 -7.72034,-2.05445 -10.71694,-4.06062 -3.71028,-2.48398 -6.66661,-5.85736 -8.64128,-9.8603 -5.8072,-11.772092 -1.88747,-26.157606 9.04317,-33.188627 5.77478,-3.714573 13.55182,-4.947568 20.41632,-3.236869 5.79905,1.445179 11.08611,5.170554 14.58712,10.278409 0.76331,1.113639 1.90301,3.050056 1.90301,3.233319 0,0.04031 -1.31115,0.06975 -2.91366,0.06543 l -2.91367,-0.0079 -0.60283,-0.957356 c -0.78688,-1.249648 -3.47642,-3.945778 -5.02356,-5.035877 -1.38357,-0.974844 -3.67914,-2.133714 -5.19237,-2.621264 -6.44251,-2.075715 -13.74056,-0.718074 -19.03493,3.541029 -9.20513,7.405144 -10.14167,22.240557 -1.95607,30.985326 6.93648,7.41031 18.57735,8.48545 26.72731,2.4685 1.23108,-0.90888 3.44222,-3.12596 4.40713,-4.41898 l 0.77476,-1.0382 h 2.86395 c 1.57517,0 2.86279,0.0452 2.86137,0.10047 -0.007,0.25779 -1.42058,2.73197 -2.10856,3.68956 -3.90738,5.43858 -9.97,9.04373 -16.92862,10.06665 -1.7721,0.2605 -5.85575,0.25902 -7.55165,-0.003 z"
   id="path1147" /><path
   style="fill:#ffffff;fill-opacity:0.941176;stroke-width:0.133962"
   d="M 442.74351,92.232649 V 67.382748 h 2.74557 2.74558 l 0.0341,13.516189 0.0341,13.516189 13.06127,-13.51455 13.06126,-13.514551 2.93944,-0.0016 2.93944,-0.0016 -1.40685,1.440089 c -3.38559,3.465568 -22.28894,23.262373 -22.28894,23.342414 0,0.04871 5.42545,5.320322 12.05656,11.714702 6.63111,6.39437 12.41765,11.98083 12.85899,12.41436 l 0.80243,0.78824 -3.34771,-10e-4 -3.3477,-0.001 -11.11882,-10.77688 c -6.11536,-5.92729 -11.15021,-10.764383 -11.18857,-10.749096 -0.0384,0.01529 -1.19806,1.203309 -2.57711,2.640048 l -2.50736,2.612258 -0.002,8.13817 -0.002,8.13818 h -2.74622 -2.74621 z"
   id="path1186" /><path
   style="fill:#ffffff;fill-opacity:0.941176;stroke-width:0.133962"
   d="M 489.76407,92.232649 V 67.382748 h 13.73108 13.73108 v 2.411311 2.411312 h -11.05185 -11.05184 v 8.707512 8.707512 h 10.98486 10.98486 v 2.411311 2.411311 H 506.1074 495.12254 v 8.908453 8.90846 h 11.05184 11.05185 v 2.41131 2.41131 h -13.73108 -13.73108 z"
   id="path1225" /><path
   style="fill:#ffffff;fill-opacity:0.941176;stroke-width:0.133962"
   d="M 545.35819,94.64396 V 72.205371 h -8.03771 -8.0377 v -2.411312 -2.411311 h 18.82162 18.82163 v 2.411311 2.411312 h -8.10469 -8.10468 v 22.438589 22.43859 h -2.67924 -2.67923 z"
   id="path1264" /></svg>
