<?xml version="1.0" encoding="UTF-8" standalone="no"?>
<!-- Generator: Adobe Illustrator 13.0.0, SVG Export Plug-In . SVG Version: 6.00 Build 14948)  -->

<svg
   version="1.2"
   id="Ebene_3"
   x="0px"
   y="0px"
   width="566.926px"
   height="124.854px"
   viewBox="0 0 566.926 124.854"
   xml:space="preserve"
   sodipodi:docname="ngp.svg"
   inkscape:version="1.1 (c68e22c387, 2021-05-23)"
   xmlns:inkscape="http://www.inkscape.org/namespaces/inkscape"
   xmlns:sodipodi="http://sodipodi.sourceforge.net/DTD/sodipodi-0.dtd"
   xmlns="http://www.w3.org/2000/svg"
   xmlns:svg="http://www.w3.org/2000/svg"><defs
   id="defs41" /><sodipodi:namedview
   id="namedview39"
   pagecolor="#ffffff"
   bordercolor="#666666"
   borderopacity="1.0"
   inkscape:pageshadow="2"
   inkscape:pageopacity="0.0"
   inkscape:pagecheckerboard="0"
   showgrid="false"
   inkscape:zoom="3.7324094"
   inkscape:cx="455.87175"
   inkscape:cy="118.55613"
   inkscape:window-width="1920"
   inkscape:window-height="1017"
   inkscape:window-x="-8"
   inkscape:window-y="712"
   inkscape:window-maximized="1"
   inkscape:current-layer="Ebene_3" />
<g
   id="g14">
	<path
   fill="#5B5B59"
   d="M33.98,108.929l-0.068-41.587h5.384v49.797h-5.384L5.249,75.215l0.135,41.924H0V67.342h5.652L33.98,108.929   z"
   id="path2" />
	<path
   fill="#5B5B59"
   d="M45.31,67.342h26.419v4.912H50.827v17.294h20.767v4.912H50.827v17.767h20.902v4.912H45.31V67.342z"
   id="path4" />
	<path
   fill="#5B5B59"
   d="M74.242,92.375c0-15.341,11.911-25.908,25.976-25.908c14.602,0,25.975,11.171,25.975,25.773   c0,14.604-11.305,25.773-25.975,25.773c-14.738,0-25.976-11.373-25.976-25.572V92.375z M79.827,92.24   c0,11.709,8.815,20.86,20.458,20.86c11.776,0,20.39-9.485,20.39-20.86c0-11.373-8.613-20.861-20.457-20.861   c-11.709,0-20.391,9.286-20.391,20.792V92.24z"
   id="path6" />
	<path
   fill="#5B5B59"
   d="M172.16,80.262c-1.548-2.153-3.433-3.97-5.586-5.383c-3.23-2.221-7.133-3.5-11.574-3.5   c-10.902,0-20.39,8.344-20.39,20.792c0,12.652,9.556,20.996,20.457,20.996c5.249,0,9.892-1.815,13.324-4.508   c3.5-2.761,5.922-6.527,6.73-10.433h-27.104v-4.576h33.564c-0.067,2.896-0.74,6.527-2.221,9.624   c-4.307,9.354-14.267,14.805-24.293,14.805c-14.535,0-26.042-11.17-26.042-25.908c0-14.938,11.709-25.706,26.109-25.706   c10.094,0,19.448,5.653,23.351,13.795h-6.325V80.262L172.16,80.262z"
   id="path8" />
	<path
   fill="#5B5B59"
   d="M184.25,67.342h27.59v4.912h-22.071v17.294h21.937v4.912h-21.937v17.767h22.071v4.912h-27.59V67.342z"
   id="path10" />
	<path
   fill="#5B5B59"
   d="M214.061,92.375c0-15.341,11.911-25.908,25.975-25.908c14.603,0,25.975,11.171,25.975,25.773   c0,14.604-11.305,25.773-25.975,25.773c-14.737,0-25.975-11.373-25.975-25.572V92.375z M219.646,92.24   c0,11.709,8.815,20.86,20.457,20.86c11.777,0,20.39-9.485,20.39-20.86c0-11.373-8.613-20.861-20.457-20.861   c-11.709,0-20.39,9.286-20.39,20.792V92.24L219.646,92.24z"
   id="path12" />
</g>
<g
   id="g24">
	<path
   fill="#5B5B59"
   d="M327.465,92.375c0-15.341,11.91-25.908,25.977-25.908c14.604,0,25.977,11.171,25.977,25.773   c0,14.604-11.305,25.773-25.977,25.773c-14.736,0-25.977-11.373-25.977-25.572V92.375z M333.049,92.24   c0,11.709,8.816,20.86,20.459,20.86c11.777,0,20.393-9.485,20.393-20.86c0-11.373-8.613-20.861-20.459-20.861   c-11.707,0-20.393,9.286-20.393,20.792V92.24L333.049,92.24z"
   id="path16" />
	<path
   fill="#5B5B59"
   d="M435,103.748c-3.229,7.672-11.91,14.268-22.879,14.268c-14.736,0-25.975-11.373-25.975-25.772   c0-14.2,10.969-25.774,25.906-25.774c12.314,0,20.053,8.21,22.947,14.535h-5.99c-1.684-2.96-7.334-9.623-16.957-9.623   c-11.641,0-20.389,9.219-20.389,20.793c0,11.777,8.813,20.929,20.389,20.929c10.432,0,15.746-7.47,16.957-9.354L435,103.748   L435,103.748z"
   id="path18" />
	<path
   fill="#5B5B59"
   d="M489.643,67.342h27.594v4.912h-22.072v17.294H517.1v4.912h-21.936v17.767h22.072v4.912h-27.594V67.342   L489.643,67.342z"
   id="path20" />
	<path
   fill="#5B5B59"
   d="M545.229,72.254H529.18v-4.912h37.746v4.912h-16.111v44.885h-5.586V72.254z"
   id="path22" />
</g>
<path
   fill="#5B5B59"
   d="M475.575,117.139h6.932l-25.871-24.968l23.783-24.83h-6.055l-26.105,26.998v-6.396V67.342h-5.518v49.797  h5.518v-16.228l5.08-5.307L475.575,117.139z"
   id="path26" />
<path
   fill="none"
   d="M302.793,120.945c-10.838-21.554-21.646-43.05-32.46-64.561c0.06-0.042,0.108-0.083,0.163-0.11  c2.697-1.38,5.395-2.76,8.091-4.138c3.812-1.946,7.625-3.883,11.433-5.839c4.003-2.056,8.21-3.293,12.751-3.146  c3.091,0.101,5.925,0.999,8.411,2.896c2.193,1.674,3.746,3.848,4.938,6.306c1.129,2.332,1.932,4.759,1.979,7.377  c0.063,3.637-1.035,6.924-2.984,9.978c-1.307,2.042-2.797,3.921-4.545,5.584c-1.203,1.146-2.49,2.204-3.738,3.299  c-4.57-3.241-9.041-6.41-13.531-9.593c0.852-3.113,1.693-6.198,2.539-9.291c4.361,0,8.662,0,12.939,0c0-3.277,0-6.527,0-9.823  c-6.682,0.063-13.289,0.127-19.896,0.193c-2.408,6.801-4.803,13.564-7.201,20.342c7.736,6.397,15.445,12.773,23.16,19.157  c3.066-1.17,5.975-2.609,8.711-4.388c4.365-2.835,8-6.396,10.672-10.881c2.482-4.169,3.727-8.71,3.797-13.559  c0.041-3.005-0.414-5.943-1.299-8.823c-1.172-3.816-2.986-7.271-5.754-10.165c-5.189-5.433-11.553-8.353-19.082-8.621  c-4.45-0.158-8.66,0.847-12.631,2.842c-1.789,0.9-3.541,1.872-5.342,2.744c-4.01,1.939-8.04,3.837-12.062,5.748  c-3.547,1.687-7.095,3.366-10.642,5.047c-1.199,0.569-2.399,1.141-3.6,1.71c12.046,24.562,24.078,49.094,36.104,73.624  C296.762,123.541,299.749,122.255,302.793,120.945z"
   id="path28" />
<path
   fill="#F10000"
   d="M302.793,120.945c-3.047,1.312-6.031,2.597-9.086,3.909c-12.024-24.529-24.058-49.063-36.104-73.624  c1.201-0.569,2.4-1.141,3.6-1.71c3.547-1.682,7.095-3.361,10.642-5.047c4.022-1.911,8.052-3.809,12.062-5.748  c1.801-0.872,3.553-1.844,5.342-2.744c3.971-1.996,8.181-3,12.631-2.842c7.529,0.269,13.893,3.188,19.082,8.621  c2.768,2.895,4.582,6.348,5.754,10.165c0.883,2.879,1.34,5.818,1.297,8.823c-0.068,4.849-1.313,9.39-3.795,13.559  c-2.672,4.484-6.307,8.045-10.672,10.881c-2.736,1.776-5.645,3.217-8.711,4.387c-7.715-6.383-15.424-12.759-23.16-19.156  c2.398-6.777,4.793-13.541,7.201-20.342c6.606-0.065,13.217-0.13,19.896-0.193c0,3.296,0,6.546,0,9.823c-4.277,0-8.579,0-12.939,0  c-0.846,3.093-1.688,6.178-2.539,9.291c4.49,3.183,8.961,6.352,13.531,9.593c1.248-1.095,2.535-2.153,3.738-3.299  c1.748-1.663,3.238-3.542,4.543-5.584c1.949-3.054,3.051-6.341,2.986-9.978c-0.049-2.618-0.852-5.045-1.979-7.377  c-1.189-2.458-2.742-4.632-4.938-6.306c-2.486-1.896-5.32-2.794-8.411-2.896c-4.541-0.146-8.748,1.09-12.751,3.146  c-3.807,1.956-7.621,3.893-11.433,5.839c-2.697,1.378-5.395,2.758-8.091,4.138c-0.055,0.028-0.104,0.069-0.163,0.11  C281.149,77.895,291.958,99.391,302.793,120.945z"
   id="path30" />
<path
   fill="#F10000"
   d="M310.44,26.526c-2.162-0.444-4.266-0.879-6.424-1.323C305.273,16.807,306.53,8.414,307.79,0  c3.936,0.574,7.832,1.145,11.791,1.724C316.526,10.012,313.489,18.253,310.44,26.526z"
   id="path32" />
<path
   fill="#F10000"
   d="M345.54,19.679c2.088,3.381,4.146,6.72,6.24,10.112c-6.818,4.222-13.635,8.439-20.473,12.671  c-1.434-2.141-2.84-4.241-4.277-6.392C333.196,30.612,339.346,25.163,345.54,19.679z"
   id="path34" />
<path
   fill="#F10000"
   d="M329.069,6.482c3.018,2.085,5.979,4.135,8.955,6.19c-5.377,6.412-10.738,12.805-16.137,19.239  c-1.889-1.165-3.76-2.319-5.684-3.508C320.475,21.129,324.752,13.837,329.069,6.482z"
   id="path36" />
<path
   style="fill:#ffffff;fill-opacity:0.941176;stroke-width:0.267923"
   d="m 151.24279,117.71159 c -5.55516,-0.89295 -10.82602,-3.53284 -14.61107,-7.31789 -9.62185,-9.62185 -9.95578,-25.763644 -0.73481,-35.520159 3.41454,-3.612849 6.95058,-5.765216 11.92072,-7.256059 3.36633,-1.009761 9.28298,-1.197619 12.85336,-0.408101 6.08576,1.345742 11.33251,4.467506 14.85543,8.838844 0.87205,1.082065 1.82585,2.438427 2.11956,3.014139 l 0.53401,1.046748 h -2.84886 -2.84885 l -2.04619,-2.112094 c -3.04593,-3.144026 -6.5166,-5.199682 -10.50499,-6.222046 -0.88349,-0.226471 -2.82157,-0.370918 -4.93738,-0.36799 -4.16801,0.0058 -5.87552,0.397571 -9.51129,2.182442 -2.14612,1.053576 -2.92851,1.632581 -4.98915,3.692191 -2.08309,2.08205 -2.6245,2.817169 -3.66729,4.979411 -1.55802,3.230547 -2.03644,5.063237 -2.23588,8.565024 -0.37325,6.553448 1.66859,12.24055 5.91721,16.48109 2.21473,2.21052 4.41831,3.61754 7.32946,4.67997 9.96774,3.63778 21.522,-0.71567 25.91448,-9.76412 0.64652,-1.33183 1.25149,-2.813342 1.34438,-3.292255 l 0.16887,-0.870751 h -13.55142 -13.55142 v -2.143388 -2.143388 h 16.64973 16.64973 l -0.17109,1.840844 c -0.20689,2.226001 -1.26463,5.986798 -2.2182,7.886778 -3.39898,6.77244 -9.47628,11.52923 -17.38004,13.60358 -2.11767,0.55579 -8.47174,0.92502 -10.44901,0.60718 z"
   id="path1277" /><path
   style="fill:#ffffff;fill-opacity:0.941176;stroke-width:0.267923"
   d="M 184.33134,92.299629 V 67.51671 h 13.66409 13.6641 v 2.277349 2.27735 H 200.67467 189.6898 v 8.841474 8.841474 h 10.98487 10.98486 v 2.277349 2.277349 H 200.67467 189.6898 v 8.975435 8.97544 h 10.98487 10.98486 v 2.41131 2.41131 h -13.6641 -13.66409 z"
   id="path1316" /><path
   style="fill:#ffffff;fill-opacity:0.941176;stroke-width:0.267923"
   d="m 236.71037,117.71487 c -0.44207,-0.0699 -1.80137,-0.35971 -3.02065,-0.64412 -9.41248,-2.1955 -16.98651,-9.95484 -18.94904,-19.412652 -0.58373,-2.813121 -0.58147,-7.88906 0.005,-10.716938 1.94174,-9.366312 8.50056,-16.41293 18.00459,-19.343644 2.19807,-0.677811 2.6787,-0.725517 7.30936,-0.725517 4.63152,0 5.11101,0.04761 7.31118,0.726043 8.7772,2.706457 14.85401,8.766841 17.51501,17.467654 0.68959,2.254801 0.73703,2.724332 0.73089,7.233933 -0.006,4.461898 -0.0605,4.998742 -0.72707,7.17722 -2.73927,8.951931 -9.4969,15.404691 -18.45507,17.622481 -2.18102,0.53996 -7.90811,0.90249 -9.72398,0.61554 z m 8.2956,-5.0617 c 6.03798,-1.5727 10.68358,-5.31744 13.27341,-10.69948 0.71142,-1.47843 1.50638,-3.53201 1.76657,-4.563515 0.62869,-2.492355 0.63602,-7.60733 0.0145,-10.147956 C 257.60214,77.192261 249.12574,70.796726 239,71.351838 c -3.37385,0.184961 -5.31116,0.672125 -8.18395,2.057972 -5.22906,2.522527 -9.01238,7.253152 -10.60743,13.263427 -0.428,1.612705 -0.57301,2.972578 -0.58572,5.492431 -0.0208,4.124729 0.42236,6.06 2.26326,9.883672 1.16393,2.41757 1.64551,3.08765 3.66147,5.09472 1.2767,1.27107 3.10494,2.76504 4.06277,3.31993 2.00845,1.16354 5.25952,2.24662 7.76978,2.58846 2.07917,0.28314 5.74211,0.0914 7.62579,-0.39928 z"
   id="path1355" /><path
   style="fill:#ffffff;fill-opacity:0.941176;stroke-width:0.267923"
   d="M 95.578994,117.48044 C 86.031691,115.67112 78.734629,109.41869 75.67278,100.42396 75.337868,99.440092 74.917226,97.726202 74.73802,96.615308 74.323505,94.045743 74.543817,88.0466 75.132651,85.869467 77.576049,76.835324 83.832502,70.388051 92.85199,67.609691 c 2.246762,-0.692091 2.70119,-0.737692 7.35138,-0.737692 4.6562,0 5.10272,0.04496 7.3679,0.741853 9.39513,2.890464 16.02565,10.020809 17.93509,19.28708 0.50335,2.442705 0.57885,7.424507 0.14975,9.88111 -1.41657,8.109818 -6.78109,15.159708 -14.1681,18.619268 -4.50374,2.10924 -11.15995,2.97913 -15.909016,2.07913 z m 9.714926,-4.85701 c 0.95782,-0.22615 2.87463,-0.95439 4.25956,-1.61831 4.46421,-2.14011 8.40997,-6.7038 10.04865,-11.622334 1.85071,-5.554919 1.53974,-11.236808 -0.90086,-16.460477 -1.98679,-4.252365 -5.20262,-7.557832 -9.25454,-9.512499 -2.87279,-1.385847 -4.81009,-1.873011 -8.18395,-2.057972 -7.524955,-0.412532 -14.103912,2.9007 -18.190699,9.16103 -2.341816,3.587303 -3.301335,7.1225 -3.271869,12.054685 0.0817,13.674817 12.18665,23.197777 25.493708,20.055877 z"
   id="path1394" /><path
   style="fill:#ffffff;fill-opacity:0.941176;stroke-width:0.267923"
   d="M 45.546987,92.299629 V 67.51671 h 12.994287 12.994288 v 2.277349 2.27735 H 61.086547 50.637533 v 8.841474 8.841474 h 10.449014 10.449015 v 2.277349 2.277349 H 61.086547 50.637533 v 8.975435 8.97544 h 10.449014 10.449015 v 2.41131 2.41131 H 58.541274 45.546987 Z"
   id="path1433" /><path
   style="fill:#ffffff;fill-opacity:0.941176;stroke-width:0.267923"
   d="M 0,92.299629 V 67.51671 h 2.7922618 2.792262 L 19.73842,88.296489 33.892317,109.07627 33.96094,88.296489 34.029563,67.51671 h 2.543631 2.54363 V 92.299629 117.08255 H 36.592098 34.067373 L 19.649133,95.986044 C 9.5407429,81.19563 5.1994136,75.048976 5.1255758,75.422919 c -0.057926,0.293359 -0.047086,9.786786 0.024087,21.096505 L 5.2790694,117.08255 H 2.6395347 0 Z"
   id="path1472" /><path
   style="fill:#ffffff;fill-opacity:0.941176;stroke-width:0.267923"
   d="m 348.91828,117.50643 c -10.2138,-1.94869 -17.91021,-8.932 -20.48777,-18.589501 -0.83595,-3.132122 -0.96607,-8.550779 -0.28444,-11.845381 1.7874,-8.639321 7.13041,-15.10742 15.28324,-18.501448 4.27453,-1.779492 10.65998,-2.381692 15.2347,-1.436757 14.93204,3.084298 23.60803,17.348972 19.62482,32.266258 -2.25021,8.427119 -9.32804,15.310389 -18.06575,17.569159 -3.32055,0.85839 -8.36603,1.09836 -11.3048,0.53767 z m 9.5633,-4.87082 c 0.95783,-0.2166 2.87673,-0.9447 4.26423,-1.618 2.14933,-1.04298 2.883,-1.58693 4.95666,-3.67488 2.70097,-2.7196 3.91137,-4.56893 4.99545,-7.63241 3.06664,-8.665974 0.48384,-18.461025 -6.31909,-23.964595 -1.88105,-1.521769 -5.22777,-3.228271 -7.49537,-3.821906 -2.23201,-0.584321 -6.31691,-0.782082 -8.64389,-0.418475 -8.25626,1.290093 -14.56561,7.12244 -16.67215,15.411693 -0.73498,2.892153 -0.73522,7.493786 -5.5e-4,10.558308 2.69335,11.234775 13.41747,17.760255 24.91471,15.160265 z"
   id="path1511" /><path
   style="fill:#ffffff;fill-opacity:0.941176;stroke-width:0.267923"
   d="m 407.44189,117.46233 c -9.23779,-1.6702 -16.68908,-7.98585 -19.64719,-16.65279 -1.20168,-3.520779 -1.54288,-5.968576 -1.37296,-9.849528 0.16613,-3.794181 0.79807,-6.429713 2.32091,-9.679352 3.16358,-6.750907 8.61395,-11.407294 16.01244,-13.679814 2.16393,-0.664672 2.73427,-0.724481 7.04326,-0.738591 4.11032,-0.01346 4.95304,0.06022 6.83204,0.597371 6.02864,1.723391 11.90178,6.136074 14.8748,11.175907 0.3477,0.589432 0.8041,1.342967 1.0142,1.674522 l 0.382,0.602828 h -2.93497 c -2.84468,0 -2.94405,-0.01994 -3.23035,-0.648318 -0.52049,-1.142348 -3.81951,-4.407745 -5.74916,-5.69058 -4.65807,-3.096679 -10.89662,-4.096188 -16.41307,-2.629622 -3.98908,1.06051 -8.20139,3.865973 -10.64215,7.087833 -2.96791,3.917701 -4.286,7.956702 -4.286,13.133472 0,4.085096 0.56093,6.490566 2.37064,10.166252 1.03603,2.10426 1.63437,2.9165 3.55264,4.82263 2.59578,2.57935 4.45879,3.78172 7.55994,4.87913 5.05441,1.78862 11.13657,1.48795 15.64487,-0.77338 2.84003,-1.42454 6.30937,-4.36478 7.75134,-6.56921 0.47459,-0.72553 0.52446,-0.73679 3.26434,-0.73679 1.53031,0 2.78238,0.0735 2.78238,0.16344 0,0.50791 -1.8078,3.41212 -2.98362,4.79314 -5.84686,6.86729 -15.17989,10.17259 -24.14633,8.55145 z"
   id="path1550" /><path
   style="fill:#ffffff;fill-opacity:0.941176;stroke-width:0.267923"
   d="M 442.87747,92.299629 V 67.51671 h 2.67923 2.67924 v 13.4185 c 0,7.380174 0.0921,13.378312 0.20471,13.329191 0.15208,-0.06635 19.09967,-19.604704 25.23407,-26.020847 0.70191,-0.734147 0.76031,-0.745438 3.4639,-0.669809 l 2.74995,0.07693 -11.67053,12.190517 c -6.4188,6.704784 -11.67187,12.25677 -11.67351,12.337746 -0.002,0.08098 5.51291,5.462892 12.25453,11.959812 6.74163,6.49692 12.48717,12.06711 12.76789,12.37819 l 0.51039,0.56561 -3.18962,-0.008 -3.18963,-0.008 -11.14553,-10.82065 -11.14553,-10.820661 -2.58555,2.595283 -2.58554,2.595278 v 8.23386 8.23385 h -2.67924 -2.67923 z"
   id="path1589" /><path
   style="fill:#ffffff;fill-opacity:0.941176;stroke-width:0.267923"
   d="M 489.76407,92.299629 V 67.51671 h 13.6641 13.66409 v 2.277349 2.27735 H 506.1074 495.12254 v 8.841474 8.841474 h 10.98486 10.98486 v 2.277349 2.277349 H 506.1074 495.12254 v 8.975435 8.97544 h 10.98486 10.98486 v 2.41131 2.41131 h -13.66409 -13.6641 z"
   id="path1628" /><path
   style="fill:#ffffff;fill-opacity:0.941176;stroke-width:0.267923"
   d="m 545.4267,94.64396 -0.0685,-22.43859 -7.97072,-0.07097 -7.97073,-0.07097 V 69.790073 67.51671 h 18.75464 18.75465 v 2.277349 2.27735 h -8.17167 -8.17166 v 22.50557 22.505571 h -2.54375 -2.54374 z"
   id="path1667" /></svg>
