<?xml version="1.0" encoding="UTF-8" standalone="no"?>
<svg
   height="50mm"
   viewBox="0 0 744.094 177.165"
   width="210mm"
   version="1.1"
   id="svg36"
   sodipodi:docname="nichibutsu-w.svg"
   inkscape:version="1.1 (c68e22c387, 2021-05-23)"
   xmlns:inkscape="http://www.inkscape.org/namespaces/inkscape"
   xmlns:sodipodi="http://sodipodi.sourceforge.net/DTD/sodipodi-0.dtd"
   xmlns="http://www.w3.org/2000/svg"
   xmlns:svg="http://www.w3.org/2000/svg">
  <defs
     id="defs40" />
  <sodipodi:namedview
     id="namedview38"
     pagecolor="#ffffff"
     bordercolor="#666666"
     borderopacity="1.0"
     inkscape:pageshadow="2"
     inkscape:pageopacity="0.0"
     inkscape:pagecheckerboard="0"
     inkscape:document-units="mm"
     showgrid="false"
     inkscape:zoom="1.332996"
     inkscape:cx="396.4753"
     inkscape:cy="94.148817"
     inkscape:window-width="1920"
     inkscape:window-height="1017"
     inkscape:window-x="-8"
     inkscape:window-y="712"
     inkscape:window-maximized="1"
     inkscape:current-layer="svg36" />
  <g
     transform="translate(0 -875.197)"
     id="g34">
    <path
       d="M191.142 981.105v-70.534h27.831l22.332 50.163v-50.163h16.737v70.534H231.12l-22.906-51.788v51.788zM270.523 923.722v-13.15h18.602v13.15zm.287 57.383v-49.158h18.124v49.158zM350.67 962.217q-.288 9.229-7.174 14.68-6.838 5.404-18.363 5.404-12.337 0-19.223-6.934-6.838-6.934-6.838-19.415 0-12.003 6.933-18.602 6.982-6.599 19.702-6.599 11.381 0 17.837 4.926 6.503 4.925 6.647 13.58h-18.124q0-4.112-1.674-6.264-1.673-2.152-4.877-2.152-3.921 0-5.882 3.826-1.96 3.778-1.96 11.285 0 8.369 1.864 12.099 1.865 3.73 5.978 3.73 3.252 0 4.877-2.391 1.674-2.391 1.674-7.173zM360.52 981.105v-70.534h18.124v28.214q2.343-3.587 6.407-5.595 4.065-2.008 8.99-2.008 8.99 0 13.63 4.686 4.686 4.686 4.686 13.82v31.417h-18.124V956.43q0-8.177-1.674-10.95-1.674-2.774-5.786-2.774-3.873 0-6.025 2.726-2.104 2.678-2.104 7.651v28.022zM424.694 923.722v-13.15h18.602v13.15zm.287 57.383v-49.158h18.124v49.158zM490.733 956.335q0-7.364-2.152-11.142-2.104-3.826-6.264-3.826-4.4 0-6.838 3.921-2.44 3.922-2.44 11.047 0 6.981 2.392 10.998 2.39 3.97 6.503 3.97 4.448 0 6.6-3.683 2.2-3.682 2.2-11.285zm-36.343 24.77q.383-3.395.574-6.312.239-2.965.239-5.164V910.57h18.22v26.97q2.773-3.347 6.598-5.068 3.826-1.722 8.56-1.722 10.281 0 15.78 6.647 5.5 6.647 5.5 19.128 0 12.242-5.451 19.032-5.404 6.743-15.111 6.743-5.26 0-9.278-1.865-4.016-1.865-7.316-5.786l-.096 6.455H454.39zM571.835 931.947v38.686q0 1.913.192 4.495.191 2.534.621 5.977h-18.315l-.287-7.173q-2.2 3.826-6.407 6.074-4.209 2.2-9.277 2.2-8.99 0-13.677-4.735-4.638-4.734-4.638-13.915v-31.61h18.123v24.867q0 8.225 1.674 11.046 1.674 2.774 5.786 2.774 3.826 0 5.978-2.726 2.152-2.773 2.152-7.747v-28.213zM617.981 981.105q-3.443.479-6.55.718-3.061.239-5.691.239-8.656 0-12.816-3.443-4.113-3.443-4.113-10.616V943.71h-9.181v-11.763h9.181v-7.651l17.742-7.413v15.064h11.428v11.763h-11.715v20.754q0 3.013 1.53 4.304 1.53 1.291 5.117 1.291.765 0 2.534-.143 1.817-.144 2.534-.192zM641.748 965.325v.622q0 3.203 1.482 4.83 1.483 1.625 4.4 1.625 2.725 0 4.351-1.339t1.626-3.586q0-3.252-9.516-5.834-.717-.24-1.1-.335-11.094-3.013-14.633-6.217-3.538-3.251-3.538-9.037 0-7.126 6.025-11.19 6.025-4.113 16.689-4.113 10.712 0 16.45 4.113 5.786 4.112 5.786 11.668v.382h-16.832v-.574q0-3.156-1.578-4.782-1.53-1.673-4.4-1.673-2.439 0-3.873 1.1-1.435 1.1-1.435 2.917 0 3.777 11.047 6.599 1.625.43 2.438.621 9.612 2.535 12.72 5.643 3.157 3.108 3.157 8.942 0 8.369-6.121 12.481-6.073 4.113-18.459 4.113-11.333 0-16.976-4.065-5.643-4.112-5.643-12.29v-.621zM732.701 931.947v38.686q0 1.913.191 4.495.192 2.534.622 5.977h-18.315l-.287-7.173q-2.2 3.826-6.408 6.074-4.208 2.2-9.277 2.2-8.99 0-13.676-4.735-4.639-4.734-4.639-13.915v-31.61h18.124v24.867q0 8.225 1.674 11.046 1.673 2.774 5.786 2.774 3.825 0 5.977-2.726 2.152-2.773 2.152-7.747v-28.213z"
       id="path2" />
    <circle
       cx="87.349"
       cy="965.779"
       fill="#ff0"
       r="80.4"
       stroke="#000"
       stroke-width="2.454"
       id="circle4" />
    <path
       d="M38.108 910.925v76.989c0 22.499 25.1 48.117 50.043 48.117 22.055 0 44.589-24.158 44.589-47.796v-77.63l-7.378 6.736H44.203z"
       fill-rule="evenodd"
       stroke="#000"
       stroke-width="2.54"
       id="path6" />
    <path
       d="M130.232 944.768c0 21.91-24.14 39.468-45.14 39.468-19.81 0-44.013-19.596-44.231-41.736 0-15.295 8.96-22.003 22.456-22.003 15.156 0 22.683 13.425 22.683 30.169 0-12.206 5.943-30.622 24.27-30.622 15.289 0 19.962 7.167 19.962 24.724z"
       fill="#fff"
       fill-rule="evenodd"
       stroke="#fff"
       stroke-width="2.54"
       id="path8" />
    <circle
       cx="61.729"
       cy="942.726"
       r="15.651"
       stroke="#000"
       stroke-width="2.54"
       id="circle10" />
    <circle
       cx="61.729"
       cy="942.726"
       fill="#fff"
       r="12.924"
       stroke="#fff"
       stroke-width="2.098"
       id="circle12" />
    <circle
       cx="61.956"
       cy="942.953"
       r="8.166"
       id="circle14" />
    <path
       d="m85.546 951.403-5.557 6.975 5.614 7.258-.057 9.527 1.327.03.057-9.557 5.092-7.304-4.945-6.986z"
       fill-rule="evenodd"
       stroke="#000"
       stroke-width="2.54"
       id="path16" />
    <circle
       cx="109.59"
       cy="942.5"
       r="15.651"
       stroke="#000"
       stroke-width="2.54"
       id="circle18" />
    <circle
       cx="109.59"
       cy="942.5"
       fill="#fff"
       r="12.924"
       stroke="#fff"
       stroke-width="2.098"
       id="circle20" />
    <circle
       cx="109.59"
       cy="942.046"
       r="10.661"
       id="circle22" />
    <circle
       cx="61.502"
       cy="942.5"
       r="10.661"
       id="circle24" />
    <g
       fill="#fff"
       fill-rule="evenodd"
       id="g28">
      <path
         d="m43.64 989.85 9.3 9.3 8.846-9.3zM66.72 989.964l9.3 9.3 8.846-9.3zM54.81 1002.496l9.3 9.3 8.847-9.3zM77.512 1022.867l9.3 9.3 8.846-9.3zM65.284 1012.455l9.3 9.3 8.846-9.3zM88.862 1012.776l9.3 9.3 8.846-9.3zM88.068 989.783l9.3 9.3 8.846-9.3zM111.148 989.896l9.3 9.3 8.846-9.3zM76.672 1002.671l9.3 9.3 8.846-9.3zM98.966 1002.671l9.3 9.3 8.847-9.3z"
         id="path26" />
    </g>
    <path
       d="M86.227 951.346v-23.363"
       fill="none"
       stroke="#000"
       stroke-width="2.54"
       id="path30" />
    <path
       d="M190.469 1024.831v-33.174h13.09l10.503 23.593v-23.593h7.872v33.174h-12.662l-10.774-24.358v24.358zM227.804 997.842v-6.185h8.75v6.185zm.135 26.99v-23.122h8.525v23.121zM242.424 1024.831v-33.174h8.524v13.27q1.102-1.687 3.014-2.632 1.912-.945 4.228-.945 4.229 0 6.41 2.205 2.204 2.204 2.204 6.5v14.776h-8.524v-11.605q0-3.846-.787-5.15-.787-1.305-2.722-1.305-1.821 0-2.833 1.282-.99 1.26-.99 3.598v13.18zM280.569 1013.226q0 3.913 1.012 5.645 1.012 1.732 3.284 1.732t3.284-1.71q1.034-1.731 1.034-5.667t-1.034-5.668q-1.012-1.754-3.284-1.754-2.25 0-3.284 1.754-1.012 1.732-1.012 5.668zm-8.974.045q0-5.825 3.441-8.997 3.464-3.171 9.874-3.171 6.365 0 9.806 3.171 3.464 3.149 3.464 8.997t-3.464 9.019q-3.441 3.149-9.806 3.149-6.41 0-9.874-3.172-3.441-3.171-3.441-8.996zM303.06 1024.831v-18.105q0-.81-.09-2.002-.09-1.192-.27-3.014h8.66l.09 3.306q1.034-1.776 3.013-2.811 1.98-1.057 4.364-1.057 4.228 0 6.41 2.227 2.204 2.204 2.204 6.477v14.98h-8.524v-11.786q0-3.846-.787-5.15-.788-1.305-2.722-1.305-1.822 0-2.834 1.282-.99 1.26-.99 3.599v13.36zM357.512 1018.804h3.553q3.352 0 4.836-.945 1.485-.967 1.485-3.126 0-2.002-1.53-2.947-1.53-.967-4.79-.967h-3.554zm0-13.698h3.553q2.97 0 4.341-.9 1.372-.921 1.372-2.856 0-1.844-1.44-2.766-1.439-.922-4.273-.922h-3.553zm-8.884 19.725v-33.174h12.437q7.513 0 11.089 2.091 3.598 2.092 3.598 6.478 0 2.924-1.777 4.79-1.754 1.845-5.307 2.677 4.093.742 6.072 2.744 1.98 1.98 1.98 5.33 0 4.544-3.24 6.815-3.216 2.25-9.738 2.25zM405.778 1001.71v18.196q0 .9.09 2.114.09 1.192.293 2.811h-8.615l-.135-3.373q-1.034 1.799-3.013 2.856-1.98 1.035-4.364 1.035-4.228 0-6.432-2.227-2.182-2.227-2.182-6.545v-14.867h8.524v11.696q0 3.868.788 5.195.787 1.305 2.721 1.305 1.8 0 2.811-1.282 1.013-1.305 1.013-3.644v-13.27h8.501zM418.508 1017.41v.292q0 1.507.698 2.271.697.765 2.069.765 1.282 0 2.046-.63.765-.63.765-1.687 0-1.53-4.476-2.744-.337-.112-.517-.157-5.218-1.417-6.882-2.924-1.665-1.53-1.665-4.25 0-3.352 2.834-5.264 2.834-1.934 7.85-1.934 5.038 0 7.737 1.934 2.721 1.934 2.721 5.488v.18h-7.917v-.27q0-1.484-.742-2.249-.72-.787-2.07-.787-1.146 0-1.82.517-.676.517-.676 1.372 0 1.777 5.196 3.104.765.202 1.147.292 4.52 1.192 5.983 2.654 1.484 1.462 1.484 4.206 0 3.936-2.879 5.87-2.856 1.935-8.682 1.935-5.33 0-7.984-1.912-2.654-1.934-2.654-5.78v-.293zM443.699 1017.41v.292q0 1.507.697 2.271.697.765 2.069.765 1.282 0 2.047-.63.764-.63.764-1.687 0-1.53-4.475-2.744-.338-.112-.518-.157-5.218-1.417-6.882-2.924-1.664-1.53-1.664-4.25 0-3.352 2.834-5.264 2.833-1.934 7.85-1.934 5.037 0 7.736 1.934 2.722 1.934 2.722 5.488v.18h-7.917v-.27q0-1.484-.743-2.249-.72-.787-2.069-.787-1.147 0-1.822.517-.674.517-.674 1.372 0 1.777 5.195 3.104.765.202 1.147.292 4.52 1.192 5.983 2.654 1.484 1.462 1.484 4.206 0 3.936-2.879 5.87-2.856 1.935-8.681 1.935-5.33 0-7.985-1.912-2.654-1.934-2.654-5.78v-.293zM475.974 1014.013q-.18 0-.54-.023-.36-.023-.562-.023-2.97 0-4.476.9-1.507.877-1.507 2.631 0 1.327.877 2.16.9.831 2.294.831 1.98 0 2.969-1.349 1.012-1.372 1.012-4.07 0-.428-.022-.63 0-.226-.045-.428zm.382 10.818q-.068-.517-.135-1.304l-.157-1.867q-.99 1.777-2.947 2.744-1.957.945-4.588.945-3.599 0-5.78-2.002-2.16-2.002-2.16-5.286 0-4.025 3.284-6.095 3.307-2.069 9.717-2.069.967 0 1.461.022.495 0 .923.022v-1.327q0-1.642-.743-2.541-.72-.9-2.046-.9-1.26 0-2.07.855-.787.832-.787 2.181v.405h-8.164q.045-3.778 2.789-5.623 2.766-1.844 8.367-1.844 5.915 0 8.389 2.024 2.474 2.025 2.474 6.928v9.49q0 1.755.067 2.992.068 1.215.203 2.25h-8.097zM490.008 1024.831v-18.105q0-.81-.09-2.002-.09-1.192-.27-3.014h8.66l.09 3.306q1.034-1.776 3.013-2.811 1.98-1.057 4.364-1.057 4.228 0 6.41 2.227 2.204 2.204 2.204 6.477v14.98h-8.524v-11.786q0-3.846-.788-5.15-.787-1.305-2.721-1.305-1.822 0-2.834 1.282-.99 1.26-.99 3.599v13.36zM566.119 1014.148v.315q0 5.105-4.049 8.007-4.026 2.879-11.2 2.879-7.76 0-12.01-4.296-4.252-4.319-4.252-12.168 0-8.66 4.319-13.18 4.318-4.543 12.55-4.543 6.837 0 10.526 2.789 3.711 2.789 3.936 8.12h-9.401q-.135-2.07-1.642-3.262-1.485-1.192-3.936-1.192-3.352 0-5.083 2.789-1.732 2.789-1.732 8.254 0 5.06 1.732 7.625 1.754 2.564 5.173 2.564 2.474 0 3.958-1.237 1.485-1.26 1.62-3.464zM578.804 1013.226q0 3.913 1.012 5.645 1.012 1.732 3.284 1.732 2.271 0 3.284-1.71 1.034-1.731 1.034-5.667t-1.034-5.668q-1.013-1.754-3.284-1.754-2.25 0-3.284 1.754-1.012 1.732-1.012 5.668zm-8.974.045q0-5.825 3.441-8.997 3.464-3.171 9.874-3.171 6.365 0 9.806 3.171 3.464 3.149 3.464 8.997t-3.464 9.019q-3.441 3.149-9.806 3.149-6.41 0-9.874-3.172-3.441-3.171-3.441-8.996zM601.858 1024.831v-6.86h8.051v6.86zM615.307 1030.364l2.992-12.303h8.569l-5.353 12.303zM646.863 1024.831v-33.174h9.176v26.764h14.732v6.41zM690.27 1024.831q-1.618.225-3.08.338-1.44.112-2.677.112-4.07 0-6.028-1.62-1.934-1.619-1.934-4.992v-11.426h-4.318v-5.533h4.318v-3.598l8.345-3.487v7.085h5.375v5.533h-5.51v9.761q0 1.417.72 2.024.719.608 2.406.608.36 0 1.192-.067.855-.067 1.192-.09v5.353zM702.596 1013.18q0 3.577 1.012 5.309 1.035 1.732 3.15 1.732 1.933 0 3.08-1.867 1.147-1.89 1.147-5.173 0-3.351-1.17-5.196-1.169-1.844-3.26-1.844-1.935 0-2.947 1.8-1.012 1.776-1.012 5.24zm8.57 11.651-.09-3.036q-1.553 1.844-3.442 2.721-1.867.878-4.34.878-4.589 0-7.108-3.172-2.519-3.194-2.519-8.951 0-5.87 2.564-8.997 2.587-3.126 7.422-3.126 2.227 0 4.071.832 1.844.832 3.081 2.362v-12.685h8.525v27.776q0 1.035.09 2.43.09 1.371.27 2.968h-8.525zM725.65 1024.831v-6.86h8.052v6.86z"
       id="path32" />
  </g>
  <path
     style="fill:#ffffff;fill-opacity:0.941176;stroke-width:0.75019"
     d="M 204.05162,75.378214 V 38.227961 l 14.70535,0.203406 14.70536,0.203407 11.73883,26.42944 c 6.45636,14.536192 11.99203,26.436077 12.30148,26.44419 0.30946,0.0081 0.56264,-11.969533 0.56264,-26.616988 V 38.259679 h 8.25209 8.25209 v 37.150947 37.150944 l -13.96887,-0.2041 -13.96886,-0.2041 -12.10023,-27.380872 -12.10023,-27.380873 -0.19679,27.568421 -0.19679,27.568424 h -8.99304 -8.99303 z"
     id="path894"
     transform="matrix(0.93749936,0,0,0.93749936,0,-1.1768523e-4)" />
  <path
     style="fill:#ffffff;fill-opacity:0.941176;stroke-width:0.75019"
     d="M 289.57326,86.64692 V 60.765372 h 9.00227 9.00228 v 25.881548 25.88155 h -9.00228 -9.00227 z"
     id="path933"
     transform="matrix(0.93749936,0,0,0.93749936,0,-1.1768523e-4)" />
  <path
     style="fill:#ffffff;fill-opacity:0.941176;stroke-width:0.75019"
     d="m 288.82307,45.011387 v -6.751708 h 9.75246 9.75247 v 6.751708 6.751708 h -9.75247 -9.75246 z"
     id="path972"
     transform="matrix(0.93749936,0,0,0.93749936,0,-1.1768523e-4)" />
  <path
     style="fill:#ffffff;fill-opacity:0.941176;stroke-width:0.75019"
     d="m 341.33635,113.5589 c -14.94214,-2.88628 -22.33642,-12.84547 -21.62439,-29.125399 0.36856,-8.426824 2.67369,-13.795356 7.89796,-18.393943 7.82672,-6.889349 25.11332,-8.356503 35.47772,-3.011074 5.22177,2.693127 9.75668,9.126835 9.75668,13.841873 v 1.89957 h -8.92201 c -9.46408,0 -9.83273,-0.144212 -9.83273,-3.846405 0,-2.534578 -3.33043,-5.155872 -6.55069,-5.155872 -3.83617,0 -5.80154,1.532853 -7.45285,5.812714 -1.68642,4.370876 -1.87887,16.085766 -0.35064,21.344112 1.26548,4.354264 2.86087,5.861424 6.75784,6.384114 2.61447,0.35067 3.31476,0.11345 5.18444,-1.75623 1.38325,-1.38325 2.34498,-3.308073 2.67074,-5.345246 l 0.50908,-3.183581 h 9.46666 9.46666 l -0.45103,2.779416 c -1.17192,7.221671 -7.20756,13.770201 -15.02327,16.299921 -3.94156,1.27576 -13.61791,2.1055 -16.98017,1.45603 z"
     id="path1011"
     transform="matrix(0.93749936,0,0,0.93749936,0,-1.1768523e-4)" />
  <path
     style="fill:#ffffff;fill-opacity:0.941176;stroke-width:0.75019"
     d="M 384.84736,75.394073 V 38.259679 h 9.37737 9.37737 v 15.156045 15.156045 l 2.81321,-2.695255 c 4.5394,-4.349058 7.2779,-5.408795 14.06606,-5.443243 7.54683,-0.0383 12.01265,1.805715 15.27298,6.306472 3.29226,4.54482 3.85686,8.672463 3.85686,28.196189 v 17.592538 h -9.37737 -9.37737 V 96.731586 c 0,-16.876526 -0.68086,-21.803701 -3.26281,-23.612172 -2.11026,-1.478087 -7.96892,-1.407612 -10.15293,0.122134 -3.39497,2.377929 -3.83863,5.008301 -3.83863,22.758649 v 16.528273 h -9.37737 -9.37737 z"
     id="path1050"
     transform="matrix(0.93749936,0,0,0.93749936,0,-1.1768523e-4)" />
  <path
     style="fill:#ffffff;fill-opacity:0.941176;stroke-width:0.75019"
     d="M 453.86482,86.64692 V 60.765372 h 9.37737 9.37737 v 25.881548 25.88155 h -9.37737 -9.37737 z"
     id="path1089"
     transform="matrix(0.93749936,0,0,0.93749936,0,-1.1768523e-4)" />
  <path
     style="fill:#ffffff;fill-opacity:0.941176;stroke-width:0.75019"
     d="m 453.11463,45.011387 v -6.751708 h 9.75246 9.75247 v 6.751708 6.751708 h -9.75247 -9.75246 z"
     id="path1128"
     transform="matrix(0.93749936,0,0,0.93749936,0,-1.1768523e-4)" />
  <path
     style="fill:#ffffff;fill-opacity:0.941176;stroke-width:0.75019"
     d="m 515.75547,113.0313 c -4.32415,-1.42817 -6.43065,-2.62956 -9.18982,-5.24115 l -2.43812,-2.30772 v 3.52302 3.52302 h -9.48856 -9.48856 l 0.48179,-6.18907 c 0.26498,-3.40398 0.48381,-20.114462 0.48628,-37.134393 l 0.005,-30.945328 h 9.37737 9.37737 v 14.393959 14.39396 l 2.06302,-1.975607 c 4.89899,-4.691405 14.32786,-6.499554 21.96347,-4.211871 4.33884,1.29995 9.89496,6.513729 12.06707,11.323568 1.61063,3.566511 1.78871,5.005553 1.78981,14.463232 0.001,11.284089 -0.82887,14.52526 -5.18241,20.23304 -4.1569,5.44998 -14.83431,8.45963 -21.82321,6.15134 z m 4.11303,-12.37744 c 2.73305,-2.733052 3.7556,-6.546752 3.7556,-14.00694 0,-7.460188 -1.02255,-11.273888 -3.7556,-14.006942 -1.7244,-1.724396 -2.77973,-2.122139 -5.63072,-2.122139 -2.96193,0 -3.89045,0.381875 -5.95961,2.451029 -5.63476,5.634761 -5.42413,21.897348 0.35851,27.679982 1.72664,1.72664 2.7845,2.12715 5.61841,2.12715 2.83198,0 3.89201,-0.40074 5.61341,-2.12214 z"
     id="path1167"
     transform="matrix(0.93749936,0,0,0.93749936,0,-1.1768523e-4)" />
  <path
     style="fill:#ffffff;fill-opacity:0.941176;stroke-width:0.75019"
     d="m 568.64385,113.24023 c -4.53792,-0.93416 -8.97375,-4.18509 -11.25284,-8.24697 -1.85334,-3.30308 -1.87833,-3.58388 -2.1167,-23.785216 l -0.24122,-20.442672 h 9.43104 9.43105 l 0.004,16.691723 c 0.004,17.633672 0.5401,21.56339 3.19266,23.421315 1.95783,1.37132 6.47328,1.49456 9.20225,0.25116 4.03877,-1.840186 4.45838,-3.879026 4.71761,-22.922285 l 0.23741,-17.441913 h 9.30842 9.30842 l 0.20662,25.881882 0.20662,25.881886 -9.16399,-3.4e-4 -9.16399,-3.3e-4 -0.49187,-3.70794 -0.49188,-3.70794 -2.43317,2.57992 c -4.47424,4.74407 -12.67862,7.03236 -19.89064,5.54772 z"
     id="path1206"
     transform="matrix(0.93749936,0,0,0.93749936,0,-1.1768523e-4)" />
  <path
     style="fill:#ffffff;fill-opacity:0.941176;stroke-width:0.75019"
     d="m 637.28622,112.28385 c -4.31993,-1.69042 -5.76392,-2.89909 -7.17411,-6.00498 -1.24155,-2.73447 -1.42219,-5.03803 -1.4366,-18.319118 l -0.0165,-15.191343 h -4.87624 -4.87623 V 66.76689 60.765372 h 4.83879 4.8388 l 0.22499,-4.187357 0.22498,-4.187356 8.81473,-3.647743 8.81473,-3.647743 v 7.835099 7.8351 h 6.00152 6.00152 v 6.001518 6.001519 h -6.00152 -6.00152 v 13.085782 c 0,15.329759 0.0456,15.421429 7.66882,15.421429 h 4.33422 v 5.53893 c 0,5.10992 -0.13074,5.57396 -1.68793,5.99127 -2.91684,0.78169 -17.33778,0.39944 -19.69248,-0.52197 z"
     id="path1245"
     transform="matrix(0.93749936,0,0,0.93749936,0,-1.1768523e-4)" />
  <path
     style="fill:#ffffff;fill-opacity:0.941176;stroke-width:0.75019"
     d="m 681.33509,113.19356 c -2.17981,-0.36294 -5.25004,-1.31634 -6.82274,-2.11867 -2.61965,-1.33645 -7.54858,-6.11088 -7.62631,-7.38726 -0.018,-0.29509 -0.31022,-1.97127 -0.64946,-3.724842 l -0.61678,-3.188306 h 9.27664 c 7.61225,0 9.27664,0.195561 9.27664,1.089986 0,0.599492 0.38138,1.927017 0.8475,2.950052 2.51044,5.50982 12.65592,3.55711 12.65592,-2.435891 0,-2.437195 -3.26995,-4.315361 -12.58686,-7.229538 -4.83645,-1.512766 -10.22886,-3.581158 -11.98312,-4.596428 -7.33987,-4.247905 -8.33437,-14.707316 -1.96661,-20.683289 4.95875,-4.653651 14.71249,-6.91255 24.93064,-5.773762 9.21695,1.027208 15.53374,5.300907 17.31482,11.714554 1.34857,4.856154 1.59006,4.709192 -7.73811,4.709192 h -8.53341 l -0.47778,-2.388892 c -0.7555,-3.777502 -2.44322,-5.113006 -6.46147,-5.113006 -3.85035,0 -6.00152,1.543424 -6.00152,4.305974 0,2.76512 3.87703,5.056669 12.92374,7.638672 9.53347,2.720931 13.57494,4.683679 15.78638,7.666692 3.33327,4.496249 2.9893,12.912762 -0.72685,17.784892 -4.50791,5.91016 -18.09455,8.89887 -30.82126,6.77987 z"
     id="path1284"
     transform="matrix(0.93749936,0,0,0.93749936,0,-1.1768523e-4)" />
  <path
     style="fill:#ffffff;fill-opacity:0.941176;stroke-width:0.75019"
     d="m 740.68217,113.28072 c -4.43439,-0.92689 -7.27354,-2.56126 -9.82371,-5.65505 -3.58366,-4.3476 -3.92456,-6.74766 -3.92456,-27.629948 v -19.23035 h 8.90038 8.90038 l 0.36866,17.066818 c 0.47368,21.928957 1.29091,24.19362 8.73053,24.19362 4.2956,0 7.25847,-2.697231 8.30057,-7.556369 0.44472,-2.073681 0.80859,-10.50542 0.80859,-18.737198 V 60.765372 h 9.00227 9.00228 v 20.141937 c 0,11.078066 0.21833,22.724761 0.48518,25.881551 l 0.48517,5.73961 h -9.48745 -9.48745 v -3.91663 -3.91662 l -2.81322,2.90909 c -4.78681,4.94994 -12.35494,7.15895 -19.44762,5.67641 z"
     id="path1323"
     transform="matrix(0.93749936,0,0,0.93749936,0,-1.1768523e-4)" />
  <path
     style="fill:#ffffff;fill-opacity:0.941176;stroke-width:0.75019"
     d="M 203.30143,141.75772 V 124.4752 l 6.8487,0.2157 6.8487,0.2157 5.34189,12.17504 c 2.93803,6.69628 5.59507,12.18204 5.90452,12.19059 0.30945,0.009 0.56264,-5.55462 0.56264,-12.3626 V 124.5315 h 3.75095 3.75095 v 17.28358 17.28357 l -6.5006,-0.21676 -6.5006,-0.21675 -5.68998,-12.75323 -5.68999,-12.75322 -0.20526,12.94077 -0.20526,12.94077 h -4.10833 -4.10833 z"
     id="path1479"
     transform="matrix(0.93749936,0,0,0.93749936,0,-1.1768523e-4)" />
  <path
     style="fill:#ffffff;fill-opacity:0.941176;stroke-width:0.75019"
     d="m 243.81168,147.0372 v -12.00304 h 4.12604 4.12605 v 12.00304 12.00303 h -4.12605 -4.12604 z"
     id="path1518"
     transform="matrix(0.93749936,0,0,0.93749936,0,-1.1768523e-4)" />
  <path
     style="fill:#ffffff;fill-opacity:0.941176;stroke-width:0.75019"
     d="m 243.06149,127.53226 v -3.00076 h 4.50114 4.50114 v 3.00076 3.00076 h -4.50114 -4.50114 z"
     id="path1557"
     transform="matrix(0.93749936,0,0,0.93749936,0,-1.1768523e-4)" />
  <path
     style="fill:#ffffff;fill-opacity:0.941176;stroke-width:0.75019"
     d="M 258.81547,141.78587 V 124.5315 h 4.12605 4.12604 v 7.12681 c 0,4.25107 0.30271,7.1268 0.75019,7.1268 0.41261,0 0.75019,-0.32892 0.75019,-0.73093 0,-0.402 1.0687,-1.28357 2.37489,-1.95902 3.37818,-1.74693 8.47404,-1.05509 11.02928,1.49738 1.89879,1.89674 1.98423,2.34702 2.22189,11.71014 l 0.24716,9.73755 h -4.18566 -4.18566 l -0.0748,-7.31435 c -0.10452,-10.22358 -0.41358,-11.0653 -4.06293,-11.0653 -4.04731,0 -4.83951,1.80611 -4.85351,11.0653 l -0.0111,7.31435 h -4.12604 -4.12605 z"
     id="path1596"
     transform="matrix(0.93749936,0,0,0.93749936,0,-1.1768523e-4)" />
  <path
     style="fill:#ffffff;fill-opacity:0.941176;stroke-width:0.75019"
     d="m 296.33443,158.0838 c -4.17509,-2.20784 -6.01099,-5.60156 -6.01099,-11.11151 0,-7.83585 4.63843,-11.9358 13.50342,-11.9358 9.03314,0 13.50565,4.0745 13.50061,12.29919 -0.002,3.26634 -0.43626,5.2887 -1.51588,7.05948 -3.17475,5.20722 -13.0639,7.08005 -19.47716,3.68864 z m 10.77008,-3.92876 c 2.79907,-2.79908 2.01944,-12.98929 -1.12243,-14.67077 -2.08965,-1.11835 -4.91516,-0.29769 -6.0177,1.74781 -1.42216,2.6385 -1.0914,10.81312 0.50907,12.58163 1.58691,1.75351 5.04107,1.93131 6.63106,0.34133 z"
     id="path1635"
     transform="matrix(0.93749936,0,0,0.93749936,0,-1.1768523e-4)" />
  <path
     style="fill:#ffffff;fill-opacity:0.941176;stroke-width:0.75019"
     d="m 323.3318,147.0372 v -12.00304 h 4.12604 c 3.90099,0 4.12604,0.1023 4.12604,1.87547 0,1.03152 0.33759,1.87548 0.75019,1.87548 0.41261,0 0.75019,-0.32892 0.75019,-0.73093 0,-1.28308 4.3216,-3.02002 7.51396,-3.02002 6.80754,0 8.24003,2.60186 8.24003,14.96654 v 9.03953 h -4.12605 -4.12604 v -8.25208 c 0,-7.25184 -0.18186,-8.43396 -1.50038,-9.75247 -1.80565,-1.80565 -2.88086,-1.87598 -5.08441,-0.33256 -1.55777,1.09111 -1.6673,1.73177 -1.6673,9.75247 v 8.58464 h -4.50114 -4.50113 z"
     id="path1674"
     transform="matrix(0.93749936,0,0,0.93749936,0,-1.1768523e-4)" />
  <path
     style="fill:#ffffff;fill-opacity:0.941176;stroke-width:0.75019"
     d="M 372.09413,141.78587 V 124.5315 h 8.21516 c 13.2257,0 18.68486,1.95067 19.98781,7.14203 0.77308,3.0802 -1.42106,6.96867 -4.7069,8.34158 l -2.74529,1.14705 3.02863,1.35596 c 1.66574,0.74578 3.57973,2.14277 4.25331,3.10444 1.74079,2.48533 1.5543,6.79478 -0.40165,9.28137 -2.72265,3.46128 -5.51398,4.1363 -17.10432,4.1363 h -10.52675 z m 17.11177,11.19014 c 2.55085,-0.88923 3.52573,-2.81279 2.83015,-5.58421 -0.4876,-1.94274 -4.04121,-3.34352 -8.50152,-3.35118 l -2.43812,-0.004 v 4.87623 4.87623 h 2.88881 c 1.58885,0 3.93815,-0.3658 5.22068,-0.81289 z m 1.02126,-15.43246 c 0.75455,-0.68285 1.37191,-2.00908 1.37191,-2.94717 0,-2.84111 -1.93419,-4.06336 -6.4302,-4.06336 h -4.07246 v 4.12605 4.12604 h 3.87942 c 2.55709,0 4.34706,-0.4232 5.25133,-1.24156 z"
     id="path1713"
     transform="matrix(0.93749936,0,0,0.93749936,0,-1.1768523e-4)" />
  <path
     style="fill:#ffffff;fill-opacity:0.941176;stroke-width:0.75019"
     d="m 412.14535,159.05519 c -0.87137,-0.35208 -2.30611,-1.55776 -3.18831,-2.67929 -1.44974,-1.84305 -1.60399,-2.96726 -1.60399,-11.69044 v -9.6513 h 4.12604 4.12605 v 8.30141 c 0,9.74835 0.53591,11.20352 4.12604,11.20352 3.59013,0 4.12605,-1.45517 4.12605,-11.20352 v -8.30141 h 4.12604 4.12604 l 0.008,9.18983 c 0.005,5.0544 0.21751,10.45577 0.47325,12.00303 l 0.465,2.81321 h -4.2242 c -3.72408,0 -4.2242,-0.17763 -4.2242,-1.50038 0,-1.89911 -0.11432,-1.88667 -3.44723,0.3751 -2.80602,1.90422 -6.09455,2.32017 -9.01484,1.14024 z"
     id="path1752"
     transform="matrix(0.93749936,0,0,0.93749936,0,-1.1768523e-4)" />
  <path
     style="fill:#ffffff;fill-opacity:0.941176;stroke-width:0.75019"
     d="m 442.83313,158.95984 c -2.57749,-0.74529 -4.7223,-3.16968 -4.7223,-5.33786 0,-1.11268 0.66864,-1.33345 4.03855,-1.33345 3.40764,0 4.09984,0.23439 4.43091,1.50037 0.50218,1.92035 4.83804,2.13365 5.55199,0.27313 0.78992,-2.0585 -0.82088,-3.53822 -5.29868,-4.8675 -5.65468,-1.67865 -7.73957,-3.13961 -8.33243,-5.83886 -1.07123,-4.87728 3.35477,-8.31434 10.71222,-8.31871 5.07495,-0.003 8.60365,1.32076 9.88052,3.7066 1.36301,2.54681 0.88614,3.04231 -2.92797,3.04231 -3.07571,0 -3.78308,-0.26051 -4.19017,-1.54313 -0.3821,-1.20391 -1.01163,-1.4925 -2.86376,-1.31283 -1.97072,0.19117 -2.374,0.54888 -2.374,2.10577 0,1.6758 0.63475,2.08791 5.96211,3.87083 3.27915,1.09744 6.40182,2.5967 6.93925,3.33169 1.45097,1.98432 1.18434,5.83517 -0.55735,8.04936 -2.49415,3.1708 -10.16305,4.43202 -16.24889,2.67228 z"
     id="path1791"
     transform="matrix(0.93749936,0,0,0.93749936,0,-1.1768523e-4)" />
  <path
     style="fill:#ffffff;fill-opacity:0.941176;stroke-width:0.75019"
     d="m 468.90641,158.52432 c -1.53696,-0.80746 -2.98489,-2.34966 -3.56555,-3.79768 l -0.97769,-2.43811 h 4.1018 c 3.37281,0 4.24868,0.27444 4.92823,1.54419 1.17424,2.19409 5.50326,1.78189 5.83605,-0.5557 0.26811,-1.88328 -1.12158,-2.80405 -6.75847,-4.47803 -7.13233,-2.11807 -9.20221,-6.42034 -5.22857,-10.86761 1.79484,-2.00878 2.77903,-2.43206 6.34184,-2.72751 5.80772,-0.48163 9.37817,0.33054 11.49514,2.61478 2.77879,2.99836 2.34493,3.96722 -1.77652,3.96722 -2.75803,0 -3.7837,-0.34141 -4.50749,-1.50038 -1.17726,-1.88509 -5.05466,-2.04827 -5.74783,-0.24191 -0.71107,1.85303 0.87597,3.02607 6.65903,4.92197 6.52041,2.13762 8.53304,4.43494 7.49013,8.54962 -1.04392,4.11867 -3.6852,5.68485 -10.21382,6.05638 -4.28973,0.24411 -6.05361,0.0154 -8.07628,-1.04723 z"
     id="path1830"
     transform="matrix(0.93749936,0,0,0.93749936,0,-1.1768523e-4)" />
  <path
     style="fill:#ffffff;fill-opacity:0.941176;stroke-width:0.75019"
     d="m 496.25054,159.12133 c -3.72899,-1.62591 -5.35522,-5.73462 -3.77073,-9.52685 1.33075,-3.18492 4.74835,-4.90855 10.67609,-5.38438 4.61756,-0.37065 4.72258,-0.4272 4.72258,-2.54302 0,-1.60612 -0.50619,-2.39458 -1.96362,-3.05863 -1.76116,-0.80244 -2.14421,-0.68476 -3.71497,1.14136 -1.42738,1.65944 -2.38244,2.03606 -5.16318,2.03606 -1.91474,0 -3.41183,-0.35082 -3.41183,-0.79951 0,-1.64056 1.61312,-3.72141 3.73593,-4.81915 2.77843,-1.43678 11.21666,-1.48803 14.56629,-0.0885 3.41194,1.4256 4.20347,4.14588 4.20347,14.44625 v 8.51523 h -3.66345 c -3.14885,0 -3.72437,-0.23294 -4.09712,-1.65832 l -0.43366,-1.65833 -1.85769,1.74521 c -2.02204,1.89961 -7.24666,2.77809 -9.82811,1.65254 z m 10.44907,-5.01092 c 0.64838,-0.64837 1.17887,-2.3363 1.17887,-3.75094 0,-2.40614 -0.15863,-2.57208 -2.45874,-2.57208 -2.80242,0 -5.79335,1.79027 -5.79335,3.46771 0,3.68335 4.44915,5.47939 7.07322,2.85531 z"
     id="path1869"
     transform="matrix(0.93749936,0,0,0.93749936,0,-1.1768523e-4)" />
  <path
     style="fill:#ffffff;fill-opacity:0.941176;stroke-width:0.75019"
     d="m 522.88228,147.0372 v -12.00304 h 4.12604 c 3.88756,0 4.12604,0.10709 4.12604,1.85287 v 1.85286 l 2.73036,-1.85286 c 2.98318,-2.02444 7.1837,-2.4307 10.32651,-0.99874 3.23049,1.47191 4.1975,4.801 4.1975,14.45059 v 8.70135 h -4.12604 -4.12605 v -7.45306 c 0,-10.30778 -1.17483,-12.72702 -5.63668,-11.60717 -2.48114,0.62273 -3.3656,3.78817 -3.3656,12.04538 v 7.01485 h -4.12604 -4.12604 z"
     id="path1908"
     transform="matrix(0.93749936,0,0,0.93749936,0,-1.1768523e-4)" />
  <path
     style="fill:#ffffff;fill-opacity:0.941176;stroke-width:0.75019"
     d=""
     id="path1947"
     transform="matrix(0.93749936,0,0,0.93749936,0,-1.1768523e-4)" />
  <path
     style="fill:#ffffff;fill-opacity:0.941176;stroke-width:0.75019"
     d="m 582.14241,159.13784 c -7.61199,-2.51119 -10.59907,-6.56308 -11.08998,-15.04326 -0.5477,-9.46121 2.28934,-15.38435 8.7629,-18.29512 4.617,-2.07599 13.08144,-2.062 17.13226,0.0283 3.03949,1.56845 6.20499,5.55629 6.20499,7.81694 0,1.19808 -0.61992,1.38944 -4.50114,1.38944 -2.50063,0 -4.50113,-0.33342 -4.50113,-0.75019 0,-1.91434 -3.08958,-3.75095 -6.30993,-3.75095 -2.73811,0 -3.62825,0.37921 -5.15818,2.19743 -3.30088,3.92287 -3.54884,14.43084 -0.43397,18.39075 2.80062,3.56042 9.53192,3.14688 11.28152,-0.69309 0.7775,-1.70641 1.28803,-1.89053 5.24211,-1.89053 4.13566,0 4.38072,0.10169 4.38072,1.81791 0,2.20894 -3.11553,6.06706 -6.17827,7.65086 -2.57662,1.33242 -12.0355,2.05402 -14.8319,1.13149 z"
     id="path1986"
     transform="matrix(0.93749936,0,0,0.93749936,0,-1.1768523e-4)" />
  <path
     style="fill:#ffffff;fill-opacity:0.941176;stroke-width:0.75019"
     d="m 614.4149,158.0838 c -4.53282,-2.39701 -6.1734,-5.65964 -5.83355,-11.60117 0.47931,-8.37952 4.6277,-11.67643 14.21307,-11.29574 6.39392,0.25393 8.89751,1.51336 11.35708,5.71317 1.83887,3.13995 1.83004,9.88314 -0.0172,13.10288 -3.14364,5.47947 -13.15626,7.55154 -19.71943,4.08086 z m 10.74624,-3.90493 c 2.81552,-2.81552 2.35407,-12.38344 -0.69355,-14.38031 -2.2073,-1.44628 -5.19968,-0.83979 -6.33644,1.28427 -1.35026,2.52297 -1.03433,11.1208 0.46971,12.78274 1.53684,1.69819 5.00954,1.86404 6.56028,0.3133 z"
     id="path2025"
     transform="matrix(0.93749936,0,0,0.93749936,0,-1.1768523e-4)" />
  <path
     style="fill:#ffffff;fill-opacity:0.941176;stroke-width:0.75019"
     d="m 642.16245,155.66438 v -3.37585 h 4.12605 4.12604 v 3.37585 3.37585 h -4.12604 -4.12605 z"
     id="path2064"
     transform="matrix(0.93749936,0,0,0.93749936,0,-1.1768523e-4)" />
  <path
     style="fill:#ffffff;fill-opacity:0.941176;stroke-width:0.75019"
     d="m 657.15663,164.47911 c -0.005,-0.30945 0.56282,-3.01014 1.26245,-6.00152 l 1.27207,-5.43887 h 4.05139 c 2.22827,0 3.93887,0.27422 3.80133,0.60939 -4.87134,11.87133 -4.55077,11.38858 -7.56441,11.3912 -1.54727,0.001 -2.81754,-0.25075 -2.82283,-0.5602 z"
     id="path2103"
     transform="matrix(0.93749936,0,0,0.93749936,0,-1.1768523e-4)" />
  <path
     style="fill:#ffffff;fill-opacity:0.941176;stroke-width:0.75019"
     d="M 690.1746,141.78587 V 124.5315 h 4.50114 4.50114 v 14.25361 14.25361 h 7.87699 7.87699 v 3.00075 3.00076 H 702.55273 690.1746 Z"
     id="path2142"
     transform="matrix(0.93749936,0,0,0.93749936,0,-1.1768523e-4)" />
  <path
     style="fill:#ffffff;fill-opacity:0.941176;stroke-width:0.75019"
     d="m 725.43352,158.82207 c -2.54939,-1.28625 -3.65819,-4.97791 -3.70861,-12.34752 l -0.0423,-6.18906 H 719.432 c -2.07195,0 -2.25057,-0.20839 -2.25057,-2.62567 0,-2.41727 0.17862,-2.62566 2.25057,-2.62566 1.86599,0 2.25057,-0.30306 2.25057,-1.77355 0,-1.4167 0.7163,-2.05823 3.55989,-3.18831 1.95794,-0.77811 3.81466,-1.52728 4.12604,-1.66482 0.31139,-0.13753 0.56616,1.29721 0.56616,3.18831 v 3.43837 h 3.00076 c 2.92931,0 3.00075,0.0625 3.00075,2.62566 0,2.56315 -0.0714,2.62567 -3.00075,2.62567 h -3.00076 v 6.22657 c 0,6.82671 0.58333,8.02703 3.90098,8.02703 1.81654,0 2.10053,0.29344 2.10053,2.17031 0,1.287 -0.48296,2.35564 -1.18664,2.62567 -2.01869,0.77464 -7.34521,0.48133 -9.31601,-0.513 z"
     id="path2181"
     transform="matrix(0.93749936,0,0,0.93749936,0,-1.1768523e-4)" />
  <path
     style="fill:#ffffff;fill-opacity:0.941176;stroke-width:0.75019"
     d="m 745.23948,158.36728 c -6.08699,-3.71178 -6.49826,-17.11901 -0.66586,-21.70678 2.70436,-2.12725 8.05818,-2.1901 11.43013,-0.13418 l 2.43812,1.48655 v -6.74069 -6.74068 h 4.12604 4.12605 v 16.06773 c 0,8.83725 0.20491,16.60171 0.45535,17.25436 0.38186,0.99511 -0.22356,1.18664 -3.75095,1.18664 -3.70618,0 -4.2063,-0.17839 -4.2063,-1.50038 0,-1.89911 -0.11432,-1.88667 -3.44723,0.3751 -3.33609,2.26393 -7.25758,2.43278 -10.50535,0.45233 z m 11.64756,-5.05464 c 1.94502,-2.4727 2.17158,-9.56219 0.387,-12.11004 -1.39595,-1.993 -4.50446,-2.19779 -6.46255,-0.42575 -2.05695,1.86152 -1.96755,10.91602 0.12848,13.01205 2.04672,2.04672 4.09129,1.88299 5.94707,-0.47626 z"
     id="path2220"
     transform="matrix(0.93749936,0,0,0.93749936,0,-1.1768523e-4)" />
  <path
     style="fill:#ffffff;fill-opacity:0.941176;stroke-width:0.75019"
     d="m 774.19585,155.66438 v -3.37585 h 4.12605 4.12604 v 3.37585 3.37585 h -4.12604 -4.12605 z"
     id="path2259"
     transform="matrix(0.93749936,0,0,0.93749936,0,-1.1768523e-4)" />
</svg>
