<?xml version="1.0" encoding="UTF-8" standalone="no"?>
<svg
   width="1000"
   height="246.342"
   xml:space="preserve"
   version="1.1"
   id="svg10"
   sodipodi:docname="nintendo.svg"
   inkscape:version="1.1 (c68e22c387, 2021-05-23)"
   xmlns:inkscape="http://www.inkscape.org/namespaces/inkscape"
   xmlns:sodipodi="http://sodipodi.sourceforge.net/DTD/sodipodi-0.dtd"
   xmlns="http://www.w3.org/2000/svg"
   xmlns:svg="http://www.w3.org/2000/svg"><defs
   id="defs14" /><sodipodi:namedview
   id="namedview12"
   pagecolor="#ffffff"
   bordercolor="#666666"
   borderopacity="1.0"
   inkscape:pageshadow="2"
   inkscape:pageopacity="0.0"
   inkscape:pagecheckerboard="0"
   showgrid="false"
   inkscape:zoom="8.464"
   inkscape:cx="849.42108"
   inkscape:cy="101.66588"
   inkscape:window-width="1920"
   inkscape:window-height="1017"
   inkscape:window-x="-8"
   inkscape:window-y="712"
   inkscape:window-maximized="1"
   inkscape:current-layer="svg10" />
    <path
   d="M130.798 246.342C52.408 246.306 0 190.772 0 123.375 0 56.014 52.515-.213 130.692 0h738.652C947.485-.213 1000 56.014 1000 123.375c0 67.398-52.39 122.931-130.78 122.967H130.797z"
   style="fill:#ed1c24;fill-opacity:1;fill-rule:nonzero;stroke:none"
   id="path2" />
    <path
   d="M131.03 30.28c-62.088.107-100.164 41.629-100.164 92.936 0 51.324 37.88 93.13 100.163 92.917h737.924c62.336.213 100.181-41.593 100.181-92.917 0-51.307-38.094-92.83-100.181-92.936H131.029z"
   style="fill:#fff;fill-opacity:1;fill-rule:nonzero;stroke:none"
   id="path4" />
    <path
   d="M99.187 64.965h36.158l49.993 80.876-.019-80.876h35.839v115.987h-35.803l-50.242-80.877v80.877H99.186V64.965zM416.069 76.899h34.915v15.61h18.878v11.473h-18.878l.035 76.97h-34.95l.017-76.97h-18.95V92.545l18.95-.035-.017-15.611zM241.12 103.822H276v77.147h-34.88v-77.147zM241.031 64.929H276v23.727H241.03V64.929zM852.277 98.583c-28.149 0-50.97 19.358-50.97 43.28 0 23.904 22.821 43.298 50.97 43.298 28.166 0 50.952-19.394 50.952-43.298 0-23.922-22.786-43.28-50.952-43.28m14.012 43.173s-.036 11.65-.036 16.34c0 12.289-7.245 17.35-14.26 17.35-6.998 0-14.297-5.061-14.297-17.35 0-4.69.017-16.641.017-16.641s.02-11.384.02-16.055c0-12.254 7.335-17.28 14.261-17.28 6.962 0 14.26 5.026 14.26 17.28 0 4.67-.016 13.32.036 16.392v-.035zM755.772 142.005v-13.799c0-11.934-8.24-14.953-13.657-14.953-5.559 0-13.675 3.019-13.675 14.953v27.456c0 11.952 8.116 15.025 13.675 15.025 5.416 0 13.657-3.073 13.657-15.025v-13.657zm-.231-77.04h34.4v115.969H755.47s-.017-3.747-.017-4.44c-13.338 8.347-28.398 8.347-40.154 2.913-3.144-1.492-23.834-11.42-23.834-38.272 0-20.352 19.18-42.587 44.328-40.367 8.276.728 14.154 3.747 19.749 6.908V64.965zM357.64 100.27c13.053-.373 39.48 8.152 39.302 38.68-.036 5.453-.017 41.984-.017 41.984h-34.631v-50.65c0-6.731-6.43-14.19-15.948-14.19-9.502 0-16.552 7.459-16.552 14.19 0 3.285.035 50.65.035 50.65h-34.613l-.035-77.112 34.648-.035s-.035 6.198 0 8.116c6.678-6.358 16.304-11.313 27.812-11.632M641.046 100.27c13.035-.373 39.497 8.152 39.32 38.68-.036 5.453 0 41.984 0 41.984h-34.667v-50.65c0-6.731-6.43-14.19-15.948-14.19-9.502 0-16.534 7.459-16.534 14.19 0 3.285.035 50.65.035 50.65H578.64v-77.112l34.613-.035s-.035 6.198 0 8.116c6.66-6.358 16.268-11.313 27.794-11.632M531.328 153.957s.017.355.017 4.689c0 14.1-9.27 17.244-14.42 17.244-5.133 0-14.6-3.143-14.6-17.244 0-4.227.036-15.913.036-15.913s65.693.036 65.693-.035c0-23.904-23.088-43.706-51.45-43.706-28.361 0-51.342 19.358-51.342 43.297 0 23.94 22.98 43.28 51.343 43.28 23.53 0 43.421-13.426 49.477-31.647l-34.755.035zm-28.966-23.265c-.071-6.748.071-11.26 2.291-15.113 2.717-4.76 7.725-7.015 12.272-7.05 4.528.035 9.537 2.29 12.236 7.05 2.22 3.854 2.344 8.365 2.291 15.113h-29.09zM910.421 77.698c3.392 0 6.43-.213 6.43-4.298 0-3.267-2.967-3.854-5.755-3.854h-5.434v8.152h4.76zm-4.76 14.847h-3.995v-26.39h10.016c6.251 0 9.342 2.29 9.342 7.512 0 4.724-2.966 6.766-6.838 7.263l7.495 11.615h-4.476l-6.98-11.455h-4.563v11.455z"
   style="fill:#ed1c24;fill-opacity:1;fill-rule:nonzero;stroke:none"
   id="path6" />
    <path
   d="M910.475 98.441c10.371 0 18.54-8.116 18.54-19.145 0-10.85-8.169-19.002-18.54-19.002-10.46 0-18.648 8.151-18.648 19.002 0 11.03 8.187 19.145 18.648 19.145m-23.23-19.145c0-13.142 10.638-22.82 23.23-22.82 12.484 0 23.14 9.678 23.14 22.82 0 13.249-10.656 22.963-23.14 22.963-12.592 0-23.23-9.714-23.23-22.963"
   style="fill:#ed1c24;fill-opacity:1;fill-rule:nonzero;stroke:none"
   id="path8" />
<path
   style="fill:#ff0000;stroke-width:0.94518"
   d="M 114.36673,245.09497 C 63.641247,239.58477 22.062917,207.74 6.997574,162.86112 0.69617051,144.08957 -0.98342091,119.6568 2.7157543,100.57412 12.689239,49.124595 51.122951,12.424948 105.38209,2.5399147 L 116.72968,0.47258979 H 500 883.27032 l 11.34216,2.07164731 c 41.96704,7.6652899 74.00226,30.6464219 91.70576,65.7869629 9.02316,17.910628 12.78923,34.26602 12.79074,55.54818 0,33.07251 -11.99045,62.20734 -35.01796,85.07188 -17.04905,16.92848 -37.89678,27.83982 -65.43146,34.24579 l -8.77298,2.04104 -386.10586,0.10812 c -212.35822,0.0594 -387.59452,-0.0536 -389.41399,-0.25124 z m 774.10601,-30.01419 c 29.32646,-4.42097 53.1664,-19.34862 67.318,-42.15192 17.68828,-28.50223 18.31635,-67.51326 1.56153,-96.979089 -4.81966,-8.475974 -16.59503,-21.358661 -25.01441,-27.3666 -12.047,-8.596564 -29.16558,-15.166432 -45.28682,-17.380436 -5.41889,-0.744202 -116.56338,-0.959951 -392.24953,-0.761423 l -384.68809,0.277024 -9.45179,2.654532 c -35.718507,10.03152 -59.448017,33.666093 -67.742219,67.471192 -2.72152,11.09224 -2.950684,31.18154 -0.486915,42.68455 8.109073,37.86014 37.963409,65.22549 77.950694,71.45187 12.67976,1.97436 765.01469,2.07133 778.08955,0.1003 z"
   id="path868" /><path
   style="fill:#ff0000;stroke-width:0.94518"
   d="M 99.243856,122.87335 V 65.217391 h 17.807544 17.80755 l 24.8063,40.164269 c 13.64346,22.09034 25.19529,40.40467 25.67071,40.6985 0.51732,0.31972 0.86442,-15.80768 0.86442,-40.16426 V 65.217391 h 17.01323 17.01323 v 57.655959 57.65595 l -17.24952,-0.002 -17.24953,-0.002 -24.93114,-40.16845 c -13.71213,-22.09242 -25.30239,-40.16803 -25.75615,-40.16803 -0.45694,0 -0.825,17.92112 -0.825,40.17013 V 180.5293 H 116.72968 99.243856 Z"
   id="path907" /><path
   style="fill:#ff0000;stroke-width:0.94518"
   d="m 241.96597,142.24953 v -38.27978 h 17.01324 17.01323 v 38.27978 38.27977 h -17.01323 -17.01324 z"
   id="path946" /><path
   style="fill:#ff0000;stroke-width:0.94518"
   d="M 241.02079,76.559546 V 65.217391 h 17.48583 17.48582 v 11.342155 11.342155 h -17.48582 -17.48583 z"
   id="path985" /><path
   style="fill:#ff0000;stroke-width:0.94518"
   d="m 295.84121,142.24953 v -38.27978 h 16.54064 16.54065 v 4.25331 c 0,2.33932 0.2376,4.25331 0.52801,4.25331 0.29041,0 2.09806,-1.25545 4.01701,-2.7899 1.91895,-1.53444 6.04099,-3.98009 9.16008,-5.43478 5.09828,-2.37774 6.67347,-2.64186 15.59546,-2.6149 8.09927,0.0245 10.92987,0.43031 15.39185,2.2068 7.22629,2.87705 15.8522,10.88163 19.30707,17.91636 l 2.63568,5.3667 0.29028,26.70133 0.29028,26.70132 h -16.59463 -16.59463 v -26.0228 c 0,-28.61187 -0.26277,-30.24545 -5.58553,-34.72426 -9.1538,-7.70241 -24.33563,-3.62449 -27.38386,7.35546 -0.64223,2.31335 -1.04857,13.35483 -1.0518,28.58064 l -0.005,24.81096 h -16.54065 -16.54064 z"
   id="path1024" /><path
   style="fill:#ff0000;stroke-width:0.94518"
   d="m 416.8242,142.24953 v -38.27978 h -9.4518 -9.4518 v -5.671073 -5.671078 h 9.4518 9.4518 v -7.561436 -7.561437 h 17.01323 17.01323 v 7.561437 7.561436 h 9.4518 9.45179 v 5.671078 5.671073 h -9.45179 -9.4518 v 38.27978 38.27977 H 433.83743 416.8242 Z"
   id="path1063" /><path
   style="fill:#ff0000;stroke-width:0.94518"
   d="m 416.8242,142.24953 v -38.27978 h -9.4518 -9.4518 v -5.671073 -5.671078 h 9.4518 9.4518 v -7.561436 -7.561437 h 17.01323 17.01323 v 7.561437 7.561436 h 9.4518 9.45179 v 5.671078 5.671073 h -9.45179 -9.4518 v 38.27978 38.27977 H 433.83743 416.8242 Z"
   id="path1102" /><path
   style="fill:#ff0000;stroke-width:0.94518"
   d="m 505.19849,183.85437 c -17.20939,-3.79488 -29.66744,-13.05071 -36.28,-26.95456 -2.15605,-4.53339 -2.47237,-6.4103 -2.47237,-14.67016 0,-8.74416 0.23216,-9.94323 3.02244,-15.61111 5.51595,-11.20447 15.5488,-19.49872 29.2764,-24.20305 9.37306,-3.212061 23.92436,-3.621302 32.86914,-0.92441 19.16405,5.77805 34.05015,21.00166 35.30247,36.10285 l 0.42526,5.12819 H 534.6161 501.89036 v 10.66929 c 0,9.19117 0.29462,11.25056 2.12665,14.86495 2.66501,5.25779 6.84329,7.76516 12.93982,7.76516 8.66491,0 13.73089,-5.52337 14.84532,-16.18566 l 0.60325,-5.77159 h 16.406 c 9.02329,0 16.40599,0.23379 16.40599,0.51953 0,0.28574 -0.69303,1.88073 -1.54006,3.54442 -10.03661,19.71322 -35.31549,30.83396 -58.47884,25.72615 z m 26.63511,-58.64112 c -0.31672,-3.39169 -1.27416,-7.63829 -2.12766,-9.43689 -4.55973,-9.60893 -19.83943,-9.96554 -25.31456,-0.59082 -1.11433,1.90799 -2.00048,5.64876 -2.2871,9.65465 l -0.46792,6.53977 h 15.38655 15.38655 z"
   id="path1141" /><path
   style="fill:#ff0000;stroke-width:0.94518"
   d="m 579.39509,142.24953 v -38.27978 h 16.54064 16.54064 v 4.25331 c 0,2.33932 0.23761,4.25331 0.52801,4.25331 0.29041,0 2.09807,-1.25545 4.01702,-2.7899 1.91895,-1.53444 6.04098,-3.98009 9.16007,-5.43478 5.07824,-2.3684 6.70855,-2.64488 15.59547,-2.64488 9.27852,0 10.36283,0.20555 16.66165,3.15861 8.23375,3.86021 14.42617,9.91813 18.0269,17.63534 l 2.64604,5.67107 0.29106,26.22874 0.29105,26.22873 H 663.15147 646.6093 l -0.28952,-27.24953 -0.28953,-27.24954 -2.64811,-3.46979 c -3.50733,-4.59564 -7.66131,-6.65809 -13.41995,-6.663 -5.91705,-0.005 -11.15366,2.4552 -14.46734,6.797 l -2.54589,3.33579 -0.28953,27.24954 -0.28953,27.24953 h -16.48741 -16.4874 z"
   id="path1180" /><path
   style="fill:#ff0000;stroke-width:0.94518"
   d="m 719.82862,180.43164 c -19.91934,-6.85024 -31.84205,-28.23317 -26.63871,-47.77551 5.6847,-21.35015 27.31989,-35.226139 47.62174,-30.54277 2.22429,0.51312 6.2382,1.99138 8.9198,3.28502 2.68161,1.29365 5.22137,2.35209 5.64393,2.35209 0.42256,0 0.76829,-9.569941 0.76829,-21.266538 V 65.217391 h 16.54064 16.54064 v 57.655959 57.65595 h -16.54064 -16.54064 v -2.36295 c 0,-2.70578 -0.6528,-2.88099 -3.29468,-0.88426 -6.53859,4.94184 -23.19026,6.53011 -33.02037,3.14955 z m 30.47808,-11.88859 c 5.23598,-3.83713 5.83403,-6.58092 5.83403,-26.76611 0,-21.59495 -0.56904,-23.64476 -7.5585,-27.22743 -4.65473,-2.38592 -9.20895,-2.27963 -14.26091,0.33284 -5.26936,2.72489 -6.02769,5.69911 -6.37531,25.00423 -0.4026,22.35826 0.72129,26.62729 7.8763,29.91763 3.76957,1.73349 11.29175,1.07854 14.48439,-1.26116 z"
   id="path1219" /><path
   style="fill:#ff0000;stroke-width:0.94518"
   d="m 836.95652,182.54289 c -23.27281,-6.69922 -38.35758,-27.08391 -34.5385,-46.67332 2.1793,-11.17839 10.61915,-22.93266 20.71402,-28.84865 11.86084,-6.95092 28.81569,-9.568508 41.93724,-6.47453 15.12692,3.56683 28.21982,13.49332 34.05963,25.82259 2.76867,5.84534 3.045,7.24806 3.045,15.45698 0,8.52863 -0.19626,9.42535 -3.54684,16.20478 -5.97716,12.09396 -17.70927,21.10781 -32.33227,24.84108 -7.54804,1.92702 -22.06669,1.76424 -29.33828,-0.32893 z m 22.30824,-8.87377 c 1.76639,-1.17386 4.1686,-4.02863 5.33826,-6.34394 2.01462,-3.98788 2.12666,-5.31208 2.12666,-25.13488 0,-13.13602 -0.40057,-22.12119 -1.07611,-24.1381 -4.13393,-12.34244 -20.10638,-14.01377 -26.07425,-2.72836 -2.06186,3.89904 -2.15021,4.98598 -2.15021,26.4531 0,21.46711 0.0884,22.55406 2.15021,26.4531 3.86486,7.30856 13.05241,9.84707 19.68544,5.43908 z"
   id="path1258" /><path
   style="fill:#ff0000;stroke-width:0.118147"
   d="m 907.96314,102.06575 c -4.60237,-0.5253 -8.8303,-2.281969 -12.35472,-5.133285 -5.6768,-4.592628 -8.84148,-12.031698 -8.22713,-19.339128 0.2599,-3.091415 0.90177,-5.501642 2.16316,-8.122637 1.3532,-2.811775 3.37254,-5.44209 5.6149,-7.313751 l 1.14603,-0.956571 3.96806,0.008 c 2.38704,0.0048 3.87391,0.04935 3.73176,0.111779 -0.12996,0.05708 -0.68821,0.297245 -1.24055,0.533698 -2.06419,0.883668 -3.84175,2.111041 -5.55293,3.834183 -3.36362,3.387138 -5.18105,7.683398 -5.39908,12.762962 -0.19186,4.469657 0.9967,8.722836 3.43341,12.286244 0.88073,1.287979 3.33051,3.695795 4.66772,4.587779 6.61273,4.410996 15.58992,4.18376 21.81355,-0.55216 5.82589,-4.433265 8.53213,-12.344216 6.8368,-19.985524 -1.31938,-5.946789 -5.24209,-10.724837 -10.73567,-13.076546 l -1.18147,-0.505769 3.97004,-0.0023 3.97005,-0.0023 1.22844,1.056204 c 6.56363,5.643355 9.23571,14.658755 6.89323,23.257234 -2.69147,9.879493 -11.99723,16.783608 -22.46661,16.668398 -0.76608,-0.008 -1.79163,-0.0608 -2.27899,-0.11646 z"
   id="path1297" /><path
   style="fill:#ff0000;stroke-width:0.118147"
   d="m 901.70132,79.336011 v -13.17344 l 4.93266,0.0034 c 5.48709,0.0038 7.44994,0.106411 8.97888,0.469232 2.21901,0.526575 3.79126,1.66944 4.57919,3.328606 1.00328,2.112623 1.01569,5.105907 0.0298,7.186429 -0.45254,0.954963 -1.63469,2.160034 -2.63285,2.683887 -0.78361,0.411256 -2.60469,0.978684 -3.14095,0.978684 -0.18767,0 -0.34122,0.02678 -0.34122,0.05952 0,0.04379 5.10395,7.996801 7.29765,11.371247 l 0.17281,0.265832 -2.16978,-0.0049 -2.16978,-0.0049 -3.47612,-5.725281 -3.47613,-5.72528 h -2.34263 -2.34264 v 5.730152 5.730151 h -1.94943 -1.94944 z m 11.41238,-1.722164 c 2.33305,-0.324498 3.39072,-1.251925 3.71473,-3.257295 0.39939,-2.471851 -0.65151,-4.02983 -3.13514,-4.647915 -0.37936,-0.09441 -1.93295,-0.167272 -4.34192,-0.203633 l -3.75118,-0.05662 v 4.146318 4.146319 h 3.29958 c 1.81477,0 3.71104,-0.05723 4.21393,-0.127174 z"
   id="path1336" /></svg>
