<?xml version="1.0" encoding="UTF-8" standalone="no"?>
<svg
   viewBox="0 65.244 192.26 62.764"
   version="1.1"
   id="svg24"
   sodipodi:docname="nintendo.svg"
   inkscape:version="1.3 (0e150ed6c4, 2023-07-21)"
   xmlns:inkscape="http://www.inkscape.org/namespaces/inkscape"
   xmlns:sodipodi="http://sodipodi.sourceforge.net/DTD/sodipodi-0.dtd"
   xmlns="http://www.w3.org/2000/svg"
   xmlns:svg="http://www.w3.org/2000/svg">
  <defs
     id="defs24" />
  <sodipodi:namedview
     id="namedview24"
     pagecolor="#ffffff"
     bordercolor="#111111"
     borderopacity="1"
     inkscape:showpageshadow="0"
     inkscape:pageopacity="0"
     inkscape:pagecheckerboard="1"
     inkscape:deskcolor="#d1d1d1"
     inkscape:zoom="5.0938465"
     inkscape:cx="148.807"
     inkscape:cy="14.723648"
     inkscape:window-width="3440"
     inkscape:window-height="1377"
     inkscape:window-x="-8"
     inkscape:window-y="760"
     inkscape:window-maximized="1"
     inkscape:current-layer="svg24" />
  <path
     fill-rule="evenodd"
     stroke="#000"
     stroke-miterlimit="2.613"
     stroke-width="1.875"
     d="M32.084 119.727c-5.817 0-11.286-2.333-15.399-6.567-4.113-4.235-6.38-9.865-6.38-15.854 0-12.364 9.771-22.421 21.779-22.421h130.391c5.816 0 11.285 2.332 15.398 6.566 4.115 4.235 6.379 9.865 6.379 15.854 0 5.988-2.264 11.618-6.379 15.854-4.113 4.234-9.582 6.567-15.398 6.567H32.084v.001zm130.391-5.825c8.889 0 16.121-7.445 16.121-16.597 0-4.433-1.676-8.601-4.723-11.736-3.045-3.135-7.094-4.86-11.398-4.86H32.084c-4.306 0-8.354 1.725-11.399 4.86-3.044 3.136-4.722 7.304-4.722 11.736 0 4.434 1.678 8.601 4.722 11.735 3.045 3.135 7.093 4.861 11.399 4.861h130.391v.001z"
     clip-rule="evenodd"
     id="path1" />
  <path
     fill-rule="evenodd"
     stroke="#000"
     stroke-miterlimit="2.613"
     stroke-width="1.875"
     d="M26.499 108.007V86.896l6.409-.003 8.552 13.688.029-13.686h6.651l-.005 21.111h-6.646c-.577-1.295-8.239-13.61-8.239-13.61v13.613l-6.751-.002zm40.445-14.102c.213.271.567.561.725.692.619-.422 1.118-.809 1.787-1.045 5.055-1.78 7.681 1.214 8.19 1.702 2.309 2.197 1.603 8.166 1.744 12.753h-6.718s.11-8.593.013-9.759c-.083-1.016-1.498-2.253-2.322-2.286-1.389-.056-3.109.683-3.185 2.299-.154 3.285.049 9.746.049 9.746h-6.576V93.884l6.293.021zm15.628-1.62-.004-2.011h6.582l-.006 2.005 3.143.003-.027 1.895-3.11-.003-.002 13.833h-6.576l.002-13.834h-2.973l.002-1.891 2.969.003zm9.171 8.629c-.12-4.627 4.054-7.54 7.589-7.727 1.672-.089 3.395-.225 4.902.504.957.462 2.057.616 2.846 1.388 1.562 1.526 2.572 3.465 2.572 5.939l-11.242-.037c0 1.82-.99 5.969 2.096 6.039 1.18.026 1.846-.19 2.277-1.234.322-.775.328-1.692.258-2.585 1.133.074 5.904-.071 6.484-.05-1.287 3.689-5.176 5.291-8.924 5.291-1.556 0-8.683-.729-8.858-7.528zm6.665-2.21 4.531-.018c-.002-.8-.002-1.235-.09-1.887-.115-.875-.799-2.114-2.221-2.054-1.934.083-2.219 1.213-2.221 2.45.001.538.003 1.094.001 1.509zm54.528 5.222c-1.174-1.598-1.352-4.728-.25-7.058.957-2.028 3.434-3.525 4.736-3.959 1.764-.589 4.635-.751 7.049-.156 1.785.441 4.014 1.533 5.387 4.113 1.078 2.023.889 5.354-.326 7.067-.783 1.102-2.516 3.01-4.453 3.54-1.686.46-5.15.715-6.986.126-2.007-.644-3.55-1.485-5.157-3.673zm8.388 2.432c1.857.011 2.279-1.481 2.314-2.426.078-2.15-.043-4.814-.037-7.067.002-1.161-.633-2.689-2.32-2.691-2.426-.001-2.338 1.955-2.365 2.691-.049 1.24-.049 5.463-.025 7.062.009.534.259 2.418 2.433 2.431zm-17.629.83c-1.656 1.328-8.303 1.982-10.869-3.587-.23-.497-.9-4.113.066-6.338 1.566-3.605 5.186-4.399 7.764-4.244 1.031.062 3.012 1.158 3.012 1.158l.014-7.721 6.064.003v21.545h-5.914l-.137-.816zm-.125-2.73c.191-.62.094-4.665.094-6.643 0-.547-.424-1.456-.525-1.585-.498-.631-.887-.964-1.895-.919-1.291.057-2.033 1.23-2.092 1.976-.152 1.981-.26 4.018.041 6.542.07.603.34 1.171.871 1.561 1.446 1.05 3.141.251 3.506-.932zm-92.676 3.549h6.787V93.738h-6.787v14.269zm0-16.67h6.787v-4.441h-6.787v4.441zm67.385 2.459c.213.271.566.561.725.694.621-.424 1.119-.812 1.787-1.047 5.055-1.78 7.68 1.216 8.191 1.702 2.309 2.197 1.602 8.166 1.742 12.753h-6.717s.109-8.593.014-9.759c-.086-1.016-1.498-2.253-2.324-2.286-1.389-.057-3.107.683-3.182 2.299-.154 3.285-.094 9.855-.094 9.855h-6.365V93.774l6.223.022zm48.725-4.879c-.762 0-1.379.608-1.379 1.521 0 .911.617 1.525 1.379 1.519v.006c.744 0 1.375-.614 1.375-1.525 0-.913-.631-1.521-1.375-1.521zm0 3.501c-1.023 0-1.936-.729-1.936-1.98 0-1.253.912-1.981 1.936-1.981 1.02 0 1.93.728 1.93 1.981 0 1.251-.911 1.98-1.93 1.98zm.072-2.175c.199 0 .316-.041.316-.276 0-.221-.23-.236-.398-.236h-.311v.513h.393v-.001zm-.392 1.257h-.441v-2.133h.773c.533 0 .85.158.85.645 0 .393-.225.535-.5.555l.531.933h-.525l-.479-.895h-.209v.895z"
     clip-rule="evenodd"
     id="path2" />
  <path
     fill="none"
     stroke="#fff"
     stroke-miterlimit="2.613"
     stroke-width="1.875"
     d="M30.282 117.872c-5.816 0-11.286-2.333-15.399-6.568-4.113-4.234-6.379-9.864-6.379-15.853 0-12.363 9.769-22.42 21.778-22.42h130.39c5.816 0 11.287 2.331 15.4 6.566 4.113 4.234 6.379 9.864 6.379 15.854 0 5.989-2.266 11.619-6.381 15.853-4.111 4.235-9.582 6.568-15.398 6.568H30.282zm130.39-5.824c8.891 0 16.121-7.446 16.121-16.597 0-4.433-1.678-8.602-4.723-11.737-3.045-3.134-7.092-4.861-11.398-4.861H30.282c-4.306 0-8.354 1.727-11.399 4.861-3.045 3.135-4.722 7.304-4.722 11.737s1.677 8.601 4.722 11.736 7.093 4.861 11.399 4.861h130.39z"
     id="path3" />
  <path
     fill="#cb4842"
     fill-rule="evenodd"
     d="M30.282 117.872c-5.816 0-11.286-2.334-15.399-6.568s-6.379-9.864-6.379-15.853c0-12.363 9.769-22.42 21.778-22.42h130.39c5.816 0 11.287 2.331 15.4 6.566 4.113 4.234 6.379 9.864 6.379 15.854 0 5.989-2.266 11.619-6.381 15.853-4.111 4.234-9.582 6.568-15.398 6.568H30.282zm130.39-5.824c8.891 0 16.121-7.446 16.121-16.597 0-4.433-1.678-8.602-4.723-11.737-3.045-3.134-7.092-4.861-11.398-4.861H30.282c-4.306 0-8.354 1.727-11.399 4.861-3.045 3.135-4.722 7.304-4.722 11.737s1.677 8.601 4.722 11.736 7.093 4.861 11.399 4.861h130.39z"
     clip-rule="evenodd"
     id="path4" />
  <path
     fill="none"
     stroke="#fff"
     stroke-miterlimit="2.613"
     stroke-width="1.875"
     d="M24.697 106.152V85.041l6.408-.003 8.553 13.689.029-13.686h6.651l-.004 21.112h-6.647c-.577-1.296-8.239-13.612-8.239-13.612v13.613l-6.751-.002z"
     id="path5" />
  <path
     fill="#cb4842"
     fill-rule="evenodd"
     d="M24.697 106.152V85.041l6.408-.003 8.554 13.689.028-13.686h6.651l-.004 21.112h-6.647c-.577-1.296-8.239-13.612-8.239-13.612v13.613l-6.751-.002z"
     clip-rule="evenodd"
     id="path6" />
  <path
     fill="none"
     stroke="#fff"
     stroke-miterlimit="2.613"
     stroke-width="1.875"
     d="M65.142 92.051c.212.269.566.561.724.692.621-.424 1.119-.81 1.788-1.045 5.054-1.78 7.679 1.214 8.19 1.7 2.309 2.198 1.602 8.167 1.744 12.754H70.87s.109-8.594.014-9.759c-.085-1.016-1.498-2.253-2.324-2.286-1.389-.057-3.108.683-3.183 2.297-.153 3.284.048 9.748.048 9.748H58.85V92.029l6.292.022z"
     id="path7" />
  <path
     fill="#cb4842"
     fill-rule="evenodd"
     d="M65.142 92.051c.212.269.566.561.724.692.621-.424 1.119-.81 1.788-1.046 5.054-1.779 7.679 1.214 8.19 1.701 2.309 2.198 1.602 8.167 1.744 12.754H70.87s.109-8.594.014-9.759c-.085-1.016-1.498-2.253-2.324-2.286-1.389-.057-3.108.683-3.183 2.297-.153 3.284.048 9.748.048 9.748H58.85V92.029l6.292.022z"
     clip-rule="evenodd"
     id="path8" />
  <path
     fill="none"
     stroke="#fff"
     stroke-miterlimit="2.613"
     stroke-width="1.875"
     d="m80.77 90.43-.003-2.011h6.579l-.006 2.005 3.144.003-.026 1.896-3.11-.004-.003 13.833H80.77l.003-13.836h-2.974l.002-1.891 2.969.005z"
     id="path9" />
  <path
     fill="#cb4842"
     fill-rule="evenodd"
     d="m80.77 90.43-.004-2.011h6.58l-.006 2.005 3.144.003-.026 1.896-3.11-.004-.003 13.833H80.77l.003-13.836h-2.974l.002-1.891 2.969.005z"
     clip-rule="evenodd"
     id="path10" />
  <path
     fill="none"
     stroke="#fff"
     stroke-miterlimit="2.613"
     stroke-width="1.875"
     d="M89.94 99.058c-.12-4.627 4.054-7.538 7.589-7.726 1.674-.089 3.395-.226 4.904.503.957.464 2.055.617 2.846 1.389 1.561 1.527 2.572 3.464 2.572 5.938l-11.243-.036c0 1.821-.99 5.97 2.096 6.04 1.178.026 1.846-.19 2.277-1.234.32-.775.326-1.692.258-2.585 1.133.074 5.904-.073 6.484-.05-1.287 3.689-5.176 5.291-8.924 5.291-1.557 0-8.682-.731-8.859-7.53zm6.667-2.208 4.532-.018c-.006-.8-.006-1.236-.09-1.888-.117-.875-.799-2.114-2.223-2.053-1.934.083-2.217 1.212-2.219 2.449-.001.539.002 1.094 0 1.51z"
     id="path11" />
  <path
     fill="#cb4842"
     fill-rule="evenodd"
     d="M89.94 99.058c-.12-4.627 4.054-7.538 7.589-7.726 1.674-.089 3.395-.226 4.904.503.957.464 2.055.617 2.846 1.389 1.561 1.527 2.572 3.464 2.572 5.938l-11.243-.036c0 1.821-.99 5.97 2.096 6.04 1.178.026 1.846-.19 2.277-1.234.32-.775.326-1.692.258-2.585 1.133.074 5.904-.073 6.484-.05-1.287 3.689-5.176 5.291-8.924 5.291-1.557 0-8.682-.731-8.859-7.53zm6.667-2.208 4.532-.018c-.006-.8-.006-1.236-.09-1.888-.117-.875-.799-2.114-2.223-2.053-1.934.083-2.217 1.212-2.219 2.449-.001.539.002 1.094 0 1.51z"
     clip-rule="evenodd"
     id="path12" />
  <path
     fill="none"
     stroke="#fff"
     stroke-miterlimit="2.613"
     stroke-width="1.875"
     d="M151.133 102.07c-1.174-1.597-1.35-4.727-.25-7.057.959-2.028 3.436-3.525 4.736-3.96 1.766-.589 4.635-.752 7.049-.157 1.787.441 4.016 1.532 5.389 4.113 1.078 2.024.889 5.354-.326 7.066-.783 1.104-2.518 3.012-4.453 3.541-1.688.462-5.15.716-6.986.127-2.007-.642-3.55-1.484-5.159-3.673zm8.39 2.432c1.855.011 2.279-1.481 2.312-2.424.078-2.15-.043-4.816-.037-7.068.004-1.161-.633-2.691-2.32-2.691-2.426-.001-2.338 1.953-2.365 2.689-.047 1.242-.047 5.465-.023 7.063.008.533.256 2.418 2.433 2.431z"
     id="path13" />
  <path
     fill="#cb4842"
     fill-rule="evenodd"
     d="M151.133 102.07c-1.174-1.597-1.35-4.727-.25-7.057.959-2.028 3.436-3.525 4.736-3.96 1.766-.589 4.635-.752 7.049-.157 1.787.441 4.014 1.532 5.389 4.114 1.078 2.023.889 5.354-.326 7.065-.783 1.104-2.518 3.012-4.453 3.541-1.688.462-5.15.716-6.986.127-2.007-.642-3.55-1.484-5.159-3.673zm8.39 2.432c1.855.011 2.279-1.481 2.312-2.424.078-2.15-.043-4.816-.037-7.067.004-1.162-.633-2.691-2.32-2.691-2.426-.001-2.338 1.953-2.365 2.689-.047 1.242-.047 5.465-.023 7.063.008.532.256 2.417 2.433 2.43z"
     clip-rule="evenodd"
     id="path14" />
  <path
     fill="none"
     stroke="#fff"
     stroke-miterlimit="2.613"
     stroke-width="1.875"
     d="m147.945 106.149-5.916.001c-.025.002-.137-.817-.137-.817-1.656 1.328-8.303 1.983-10.869-3.586-.229-.497-.898-4.113.068-6.338 1.564-3.605 5.186-4.399 7.762-4.244 1.031.061 3.012 1.158 3.012 1.158l.016-7.721 6.064.002v21.545zm-6.177-3.547c.191-.618.096-4.663.096-6.642 0-.546-.424-1.456-.525-1.585-.5-.63-.889-.962-1.896-.917-1.291.056-2.033 1.229-2.09 1.975-.154 1.981-.262 4.018.039 6.542.072.602.34 1.171.873 1.56 1.44 1.051 3.137.251 3.503-.933z"
     id="path15" />
  <path
     fill="#cb4842"
     fill-rule="evenodd"
     d="m147.945 106.149-5.916.001c-.025.002-.137-.817-.137-.817-1.656 1.328-8.303 1.983-10.869-3.586-.229-.497-.898-4.113.068-6.338 1.564-3.605 5.186-4.399 7.762-4.244 1.031.061 3.012 1.158 3.012 1.158l.016-7.721 6.064.002v21.545zm-6.177-3.547c.191-.618.096-4.663.096-6.642 0-.546-.424-1.456-.525-1.586-.5-.629-.889-.962-1.896-.917-1.291.056-2.033 1.229-2.09 1.975-.154 1.981-.262 4.018.039 6.542.072.602.34 1.171.873 1.56 1.44 1.052 3.137.252 3.503-.932z"
     clip-rule="evenodd"
     id="path16" />
  <path
     fill="none"
     stroke="#fff"
     stroke-miterlimit="2.613"
     stroke-width="1.875"
     d="M49.092 106.152h6.787V91.883h-6.787v14.269z"
     id="path17" />
  <path
     fill="#cb4842"
     fill-rule="evenodd"
     d="M49.092 106.152h6.787V91.883h-6.787v14.269z"
     clip-rule="evenodd"
     id="path18" />
  <path
     fill="none"
     stroke="#fff"
     stroke-miterlimit="2.613"
     stroke-width="1.875"
     d="M49.092 89.481h6.787v-4.44h-6.787v4.44z"
     id="path19" />
  <path
     fill="#cb4842"
     fill-rule="evenodd"
     d="M49.092 89.481h6.787v-4.44h-6.787v4.44z"
     clip-rule="evenodd"
     id="path20" />
  <path
     fill="none"
     stroke="#fff"
     stroke-miterlimit="2.613"
     stroke-width="1.875"
     d="M116.477 91.941c.213.27.566.561.725.692.619-.422 1.117-.81 1.789-1.046 5.055-1.779 7.678 1.214 8.189 1.7 2.309 2.199 1.602 8.168 1.744 12.755h-6.719s.109-8.594.014-9.759c-.084-1.016-1.498-2.253-2.322-2.286-1.389-.057-3.109.683-3.184 2.299-.154 3.284-.094 9.855-.094 9.855h-6.363V91.919l6.221.022z"
     id="path21" />
  <path
     fill="#cb4842"
     fill-rule="evenodd"
     d="M116.477 91.941c.213.27.566.561.725.692.619-.422 1.117-.81 1.789-1.046 5.055-1.78 7.678 1.214 8.189 1.7 2.309 2.199 1.602 8.168 1.744 12.755h-6.719s.109-8.594.014-9.759c-.084-1.016-1.498-2.253-2.322-2.286-1.389-.057-3.109.683-3.184 2.298-.154 3.285-.094 9.856-.094 9.856h-6.363V91.919l6.221.022z"
     clip-rule="evenodd"
     id="path22" />
  <path
     fill="none"
     stroke="#fff"
     stroke-miterlimit="2.613"
     stroke-width="1.875"
     d="M164.881 89.646h-.443v-2.133h.775c.533 0 .85.158.85.646 0 .393-.223.534-.498.555l.529.933h-.525l-.479-.896h-.209v.895zm.392-1.258c.197 0 .316-.042.316-.278 0-.219-.229-.236-.398-.236h-.311v.514h.393zm-.07 2.175c-1.025 0-1.936-.728-1.936-1.981 0-1.251.91-1.981 1.936-1.981 1.016 0 1.93.73 1.93 1.981 0 1.253-.914 1.981-1.93 1.981zm0-3.501c-.766 0-1.381.608-1.381 1.519 0 .913.615 1.525 1.381 1.521v.004c.742 0 1.373-.612 1.373-1.525 0-.91-.631-1.519-1.373-1.519z"
     id="path23" />
  <path
     fill="#cb4842"
     fill-rule="evenodd"
     d="M164.881 89.646h-.443v-2.133h.775c.533 0 .85.158.85.646 0 .393-.223.534-.498.555l.529.933h-.525l-.479-.896h-.209v.895zm.392-1.258c.197 0 .316-.042.316-.278 0-.219-.229-.236-.398-.236h-.311v.514h.393zm-.07 2.175c-1.025 0-1.936-.728-1.936-1.981 0-1.251.91-1.981 1.936-1.981 1.016 0 1.93.73 1.93 1.981 0 1.253-.914 1.981-1.93 1.981zm0-3.501c-.766 0-1.381.608-1.381 1.519 0 .913.615 1.525 1.381 1.521v.004c.742 0 1.373-.612 1.373-1.525 0-.91-.631-1.519-1.373-1.519z"
     clip-rule="evenodd"
     id="path24" />
  <path
     style="fill:#ff0000;fill-opacity:1;stroke-width:0.0694079"
     d="M 27.938334,52.463464 C 24.047626,52.039944 20.131786,50.414954 17.004945,47.92634 15.570907,46.785006 13.859901,44.986314 12.798855,43.504695 7.8706324,36.623046 7.1659671,27.528138 10.973189,19.941363 c 2.138958,-4.26237 5.707766,-7.829421 9.881923,-9.877055 1.335786,-0.65527 2.106484,-0.9667482 3.242244,-1.3103547 1.541634,-0.4663969 3.010715,-0.7416226 4.664963,-0.8739593 1.25695,-0.1005537 132.149811,-0.099823 133.447511,7.448e-4 4.54914,0.352543 8.65001,2.0227291 12.14625,4.9468742 4.6353,3.876815 7.49363,9.44698 7.98363,15.558054 0.10234,1.276285 0.0501,3.559755 -0.10877,4.756624 -0.43094,3.246163 -1.56251,6.422318 -3.26409,9.161849 -1.75716,2.828985 -4.43704,5.473455 -7.30572,7.209171 -2.45098,1.482985 -4.83319,2.346595 -7.9278,2.874025 l -0.8676,0.14787 -67.013365,0.01315 c -57.315831,0.01125 -67.143701,-10e-4 -67.914031,-0.08489 z M 163.31688,46.629127 c 3.37254,-0.680134 5.99051,-2.010934 8.32774,-4.233263 4.35387,-4.139808 6.15499,-10.49001 4.6523,-16.40259 -1.40701,-5.536093 -5.50408,-9.962933 -10.78657,-11.65477 -0.86835,-0.278107 -1.59839,-0.448253 -2.60991,-0.608275 -0.76771,-0.12145 -3.34317,-0.126273 -67.429818,-0.126273 -63.901246,0 -66.664331,0.0051 -67.429814,0.125333 -1.770549,0.278013 -3.120984,0.701495 -4.70082,1.47413 -1.66446,0.81402 -3.051459,1.806392 -4.334391,3.101177 -2.710515,2.735558 -4.367942,6.237338 -4.780955,10.101115 -0.122985,1.150541 -0.05142,3.570725 0.136984,4.632469 0.318388,1.794264 0.749136,3.119795 1.533738,4.719739 2.192026,4.469935 6.357471,7.740019 11.139953,8.745423 1.482794,0.311722 -1.750193,0.298318 68.782345,0.285188 L 162.5881,46.7761 Z"
     id="path25"
     transform="translate(0,65.244)" />
  <path
     style="fill:#ff0000;fill-opacity:1;stroke-width:0.0694079"
     d="M 24.709227,30.33127 V 19.815967 h 3.180089 3.180089 l 4.263913,6.833747 c 2.345152,3.758561 4.287337,6.835068 4.315968,6.836683 0.02863,0.0016 0.05206,-3.073573 0.05206,-6.833748 V 19.815967 H 42.998223 46.2951 V 30.33127 40.846573 H 43.004193 39.713289 L 39.452505,40.378069 C 38.749992,39.115989 33.213251,30.008733 31.647539,27.53986 l -0.205742,-0.324421 v 6.815567 6.815567 h -3.366285 -3.366285 z"
     id="path26"
     transform="translate(0,65.244)" />
  <path
     style="fill:#ff0000;fill-opacity:1;stroke-width:0.0694079"
     d="m 49.140822,33.766963 v -7.07961 h 3.366285 3.366285 v 7.07961 7.07961 h -3.366285 -3.366285 z"
     id="path27"
     transform="translate(0,65.244)" />
  <path
     style="fill:#ff0000;fill-opacity:1;stroke-width:0.0694079"
     d="m 49.140822,22.002317 v -2.18635 h 3.366285 3.366285 v 2.18635 2.18635 h -3.366285 -3.366285 z"
     id="path28"
     transform="translate(0,65.244)" />
  <path
     style="fill:#ff0000;fill-opacity:1;stroke-width:0.0694079"
     d="m 58.857933,33.836371 v -7.010202 h 3.1126 c 3.078726,0 3.114039,0.0016 3.244821,0.146463 0.07272,0.08055 0.249923,0.239803 0.39378,0.353885 l 0.261559,0.207422 0.700493,-0.457202 c 0.742451,-0.484588 1.418949,-0.746253 2.560784,-0.990497 0.779748,-0.166791 2.398403,-0.168179 3.068759,-0.0026 1.255508,0.310055 2.335613,0.902057 3.289763,1.803109 0.910567,0.859894 1.288104,1.527654 1.617548,2.861 0.329748,1.334572 0.368847,1.931143 0.401447,6.12525 l 0.03089,3.973605 h -3.300958 -3.300958 l -0.01912,-4.98002 -0.01912,-4.98002 -0.192713,-0.392425 c -0.23548,-0.479511 -0.98311,-1.207135 -1.510217,-1.469803 -0.898566,-0.447774 -2.52754,-0.05191 -3.293894,0.800457 -0.578259,0.643163 -0.55601,0.400661 -0.554313,6.041791 l 0.0015,4.98002 h -3.246319 -3.246319 z"
     id="path29"
     transform="translate(0,65.244)" />
  <path
     style="fill:#ff0000;fill-opacity:1;stroke-width:0.0694079"
     d="m 80.790842,33.940483 v -6.90609 h -1.49227 -1.492271 V 26.13209 25.229786 h 1.492271 1.49227 v -1.006415 -1.006415 h 3.262174 3.262173 v 1.006415 1.006415 h 1.561678 1.561679 v 0.902304 0.902303 h -1.561679 -1.561678 v 6.90609 6.90609 h -3.262173 -3.262174 z"
     id="path30"
     transform="translate(0,65.244)" />
  <path
     style="fill:#ff0000;fill-opacity:1;stroke-width:0.0694079"
     d="m 97.8999,41.260259 c -2.759309,-0.308365 -5.106883,-1.442406 -6.435236,-3.108663 -1.662439,-2.085328 -1.959296,-5.307023 -0.7106,-7.711936 1.016793,-1.958283 3.008494,-3.491324 5.289211,-4.071182 1.286687,-0.327132 4.157005,-0.401188 5.222905,-0.134755 0.51054,0.127612 2.51049,0.898113 3.19277,1.230044 0.79593,0.387221 1.93728,1.700902 2.55164,2.936911 0.44583,0.896948 0.77994,2.22557 0.77994,3.101501 v 0.411113 l -5.61182,-0.04939 -5.611827,-0.04939 -0.06227,1.069396 c -0.167487,2.87611 0.01489,3.916518 0.805117,4.592921 0.3829,0.327748 0.859097,0.467432 1.593529,0.467432 1.007434,0 1.553251,-0.24956 1.922001,-0.878778 0.31439,-0.536466 0.44803,-1.14134 0.4598,-2.081104 l 0.0105,-0.842939 3.16071,-0.02833 c 1.73838,-0.01558 3.17019,-0.02239 3.18179,-0.01514 0.0645,0.04033 -0.37671,0.94156 -0.71505,1.460643 -1.20105,1.842569 -3.35852,3.12026 -6.00522,3.55639 -1.039621,0.171314 -2.259339,0.230012 -3.017925,0.145237 z m 3.29485,-9.835814 c -0.008,-0.798909 -0.14761,-1.984478 -0.27186,-2.316589 -0.4156,-1.110772 -1.277265,-1.618762 -2.465468,-1.453498 -0.935135,0.130065 -1.522073,0.563983 -1.743228,1.288753 -0.0665,0.217944 -0.121335,0.779509 -0.147402,1.509623 l -0.04151,1.162583 h 2.335746 2.335752 z"
     id="path31"
     transform="translate(0,65.244)" />
  <path
     style="fill:#ff0000;fill-opacity:1;stroke-width:0.0694079"
     d="m 110.28922,33.755654 v -7.090919 l 3.106,0.04632 c 1.70831,0.02548 3.11517,0.07367 3.12637,0.107092 0.0112,0.03342 0.16989,0.186855 0.35265,0.340962 l 0.33229,0.280194 0.44554,-0.312374 c 1.20415,-0.844243 2.72613,-1.288857 4.40171,-1.285859 1.89224,0.0034 3.40341,0.626988 4.80942,1.984675 0.93183,0.899795 1.32,1.613597 1.61831,2.975849 0.30393,1.387915 0.35155,2.140412 0.3886,6.140777 l 0.0355,3.834789 h -3.32815 -3.32815 l 0.006,-4.98002 0.006,-4.98002 -0.19162,-0.371585 c -0.38496,-0.746503 -1.17605,-1.450867 -1.85592,-1.652457 -0.32037,-0.09499 -0.47101,-0.101187 -0.937,-0.03852 -1.29976,0.174782 -2.19859,0.81197 -2.50943,1.778941 -0.0994,0.309123 -0.11747,0.972453 -0.14553,5.333053 l -0.032,4.98002 h -3.15066 -3.15066 z"
     id="path32"
     transform="translate(0,65.244)" />
  <path
     style="fill:#ff0000;fill-opacity:1;stroke-width:0.0694079"
     d="m 137.22636,40.907811 c -2.59257,-0.300637 -4.82414,-1.811824 -5.97171,-4.043964 -0.43629,-0.848628 -0.58031,-1.73966 -0.5847,-3.617444 -0.004,-1.581459 0.0623,-2.047134 0.41455,-2.92775 1.09572,-2.73888 3.6854,-4.333295 7.07201,-4.354111 0.83664,-0.0051 1.03716,0.01597 1.4426,0.151886 0.53493,0.179323 1.80736,0.732903 2.05117,0.892377 0.0892,0.05835 0.17393,0.09434 0.18829,0.07998 0.0144,-0.01436 0.0479,-1.750317 0.0746,-3.857686 l 0.0485,-3.831581 h 2.97336 2.97336 v 10.723527 10.723527 h -2.94184 -2.94184 l -0.0477,-0.381744 c -0.0262,-0.209959 -0.0615,-0.381744 -0.0785,-0.381744 -0.0169,0 -0.19427,0.09189 -0.3941,0.204202 -0.97114,0.545794 -2.72663,0.800426 -4.27803,0.620524 z m 3.51378,-2.358653 c 0.50873,-0.245172 0.88479,-0.66345 1.03625,-1.152605 0.13302,-0.429595 0.20403,-4.311113 0.11084,-6.058868 -0.0606,-1.136615 -0.0791,-1.248831 -0.28814,-1.746917 -0.16582,-0.395131 -0.31211,-0.615278 -0.56776,-0.854403 -0.46696,-0.436786 -0.70155,-0.522172 -1.43238,-0.521359 -0.73464,8.17e-4 -1.1664,0.170105 -1.62108,0.635609 -0.44648,0.457111 -0.61276,0.885122 -0.68733,1.769225 -0.17478,2.072267 -0.14564,4.537423 0.0721,6.09696 0.0861,0.616775 0.34163,1.143477 0.7061,1.455449 0.79052,0.676652 1.76433,0.814047 2.67141,0.376909 z"
     id="path33"
     transform="translate(0,65.244)" />
  <path
     style="fill:#ff0000;fill-opacity:1;stroke-width:0.0694079"
     d="m 157.59073,40.73038 c -1.27412,-0.159001 -2.89309,-0.785379 -4.05314,-1.56815 -0.90583,-0.61123 -2.12758,-1.899944 -2.62725,-2.771239 -0.43354,-0.756001 -0.71172,-1.996183 -0.71128,-3.171031 6.1e-4,-1.608798 0.42219,-3.106501 1.18757,-4.218936 0.75396,-1.095852 2.39711,-2.381478 3.79989,-2.973094 1.75709,-0.741047 4.60025,-0.924264 6.95765,-0.448359 2.60015,0.524911 4.59609,1.921066 5.7846,4.046315 0.84009,1.502235 1.03013,3.690744 0.48422,5.57635 -0.32549,1.124277 -0.84623,1.934664 -1.97033,3.066283 -1.24924,1.257596 -2.3846,1.916275 -3.78515,2.195961 -0.45809,0.09148 -1.13619,0.199257 -1.50689,0.239505 -0.6237,0.06772 -3.08265,0.08595 -3.55989,0.02639 z m 2.34558,-1.481716 c 0.54246,-0.07843 0.91175,-0.247242 1.22402,-0.55951 0.2686,-0.268601 0.53267,-0.776421 0.63032,-1.21216 0.0961,-0.428972 0.094,-7.587328 -0.002,-8.21462 -0.10402,-0.676571 -0.48339,-1.405792 -0.90454,-1.738686 -0.47127,-0.372523 -0.75044,-0.455023 -1.52967,-0.45205 -0.60821,0.0023 -0.70569,0.02208 -1.12348,0.227759 -0.51852,0.255266 -0.81643,0.598639 -1.00409,1.157309 -0.10314,0.307087 -0.11946,0.836111 -0.14004,4.540057 -0.0226,4.065567 -0.019,4.20667 0.11923,4.661666 0.26902,0.885702 0.92731,1.459785 1.82378,1.590497 0.20126,0.02934 0.38154,0.05663 0.40063,0.06064 0.0191,0.004 0.24691,-0.0234 0.50627,-0.0609 z"
     id="path34"
     transform="translate(0,65.244)" />
  <path
     style="fill:#ff0000;fill-opacity:1;stroke-width:0.0122697"
     d="m 165.03794,25.304927 c -0.34535,-0.02637 -0.66166,-0.135918 -0.95574,-0.331014 -0.14594,-0.09682 -0.37219,-0.321789 -0.46782,-0.465175 -0.2419,-0.362703 -0.35788,-0.796986 -0.33749,-1.263779 0.0417,-0.954612 0.6112,-1.644429 1.52165,-1.843094 0.10817,-0.0236 0.16134,-0.02721 0.40079,-0.02721 0.24024,0 0.29242,0.0036 0.40212,0.02749 0.37291,0.08131 0.67705,0.235549 0.92862,0.470924 0.15985,0.149555 0.2785,0.309165 0.37987,0.511013 0.14078,0.280296 0.19958,0.526306 0.21165,0.885423 0.0206,0.611832 -0.17884,1.137457 -0.57512,1.516011 -0.3948,0.377133 -0.93516,0.563192 -1.50853,0.519418 z m 0.39597,-0.458376 c 0.57599,-0.100874 1.00667,-0.560428 1.12228,-1.197509 0.0284,-0.156707 0.0285,-0.466909 5e-5,-0.624938 -0.0871,-0.484315 -0.36529,-0.875991 -0.76183,-1.072552 -0.60701,-0.300887 -1.35122,-0.09873 -1.72016,0.46727 -0.11716,0.179735 -0.19034,0.370264 -0.2325,0.605282 -0.0285,0.158972 -0.0282,0.467054 6.6e-4,0.63189 0.11191,0.639318 0.54976,1.097892 1.13606,1.189834 0.14149,0.02219 0.33115,0.02249 0.45544,7.23e-4 z"
     id="path35"
     transform="translate(0,65.244)" />
  <path
     style="fill:#ff0000;fill-opacity:1;stroke-width:0.0122697"
     d="m 164.4386,23.336981 v -1.061329 l 0.45092,3.4e-5 c 0.25207,2e-5 0.4996,0.006 0.56133,0.01351 0.2219,0.02708 0.39999,0.109292 0.48885,0.225664 0.0921,0.12067 0.13328,0.308753 0.10923,0.499291 -0.0321,0.254624 -0.16801,0.396508 -0.423,0.441731 l -0.0703,0.01247 0.0293,0.05088 c 0.0161,0.02798 0.13258,0.233081 0.25884,0.455776 0.12626,0.222695 0.23202,0.409041 0.23502,0.414103 0.003,0.0051 -0.10943,0.0091 -0.24986,0.0091 l -0.25532,-1.15e-4 -0.23892,-0.44773 -0.23892,-0.44773 h -0.1077 -0.1077 v 0.447845 0.447844 h -0.22085 -0.22086 z m 1.00297,-0.208786 c 0.10508,-0.03121 0.15023,-0.108554 0.15027,-0.257462 3e-5,-0.07488 -0.0262,-0.138627 -0.072,-0.174831 -0.0689,-0.05454 -0.23678,-0.0802 -0.48617,-0.07432 l -0.1595,0.0038 -0.003,0.260732 -0.003,0.260731 h 0.25568 c 0.19278,0 0.27109,-0.0046 0.31833,-0.01861 z"
     id="path36"
     transform="translate(0,65.244)" />
</svg>
