<?xml version="1.0" encoding="UTF-8" standalone="no"?>
<svg
   width="320.196"
   height="119.055"
   viewBox="0 0 84.718 31.5"
   version="1.1"
   id="svg13"
   sodipodi:docname="pet-w.svg"
   inkscape:version="1.1 (c68e22c387, 2021-05-23)"
   xmlns:inkscape="http://www.inkscape.org/namespaces/inkscape"
   xmlns:sodipodi="http://sodipodi.sourceforge.net/DTD/sodipodi-0.dtd"
   xmlns="http://www.w3.org/2000/svg"
   xmlns:svg="http://www.w3.org/2000/svg">
  <sodipodi:namedview
     id="namedview15"
     pagecolor="#ffffff"
     bordercolor="#666666"
     borderopacity="1.0"
     inkscape:pageshadow="2"
     inkscape:pageopacity="0.0"
     inkscape:pagecheckerboard="0"
     showgrid="false"
     inkscape:zoom="3.304226"
     inkscape:cx="159.94669"
     inkscape:cy="59.469298"
     inkscape:window-width="1920"
     inkscape:window-height="1017"
     inkscape:window-x="-8"
     inkscape:window-y="712"
     inkscape:window-maximized="1"
     inkscape:current-layer="svg13" />
  <defs
     id="defs3">
    <path
       id="a"
       d="M32.715 182.359h150.102v48.617H32.715z" />
  </defs>
  <g
     aria-label="2001 Series"
     style="font-style:normal;font-variant:normal;font-weight:400;font-stretch:normal;font-size:10.5833px;line-height:1.25;font-family:'Microgramma D Extended';-inkscape-font-specification:'Microgramma D Extended, Normal';font-variant-ligatures:normal;font-variant-caps:normal;font-variant-numeric:normal;font-variant-east-asian:normal;white-space:pre;shape-inside:url(#a);fill:#656565;fill-opacity:1;stroke-width:1;stroke-miterlimit:4;stroke-dasharray:none"
     transform="matrix(.71908 0 0 .71908 -9.024 -111.604)"
     id="g7">
    <path
       d="M35.36 187.418v-.243c.011-.53.054-.72.234-.783.222-.096.783-.127 2.148-.127 1.122 0 1.407.01 1.598.074.265.074.339.222.339.635 0 .571-.096.624-1.344.72-1.948.158-2.953.232-3.038.243-1.1.148-1.556.412-1.778 1.069-.116.328-.159.867-.159 2.042 0 .339 0 .455.032.805h8.414v-1.62H35.36v-.074c.01-.35.084-.487.349-.593.138-.063.55-.095 3.514-.285 1.195-.064 1.852-.297 2.159-.752.222-.338.306-.751.306-1.587 0-1.122-.148-1.588-.624-1.895-.466-.306-.815-.338-3.757-.338-3.577 0-4.022.264-4.022 2.402v.307zM47.119 184.709c-1.291 0-2.318.042-2.847.127-.836.116-1.365.603-1.503 1.365-.074.402-.085.593-.085 2.021 0 1.683 0 1.8.085 2.223.138.762.667 1.249 1.503 1.365.518.085 1.556.127 2.847.127 1.28 0 2.317-.042 2.836-.127.836-.116 1.365-.603 1.503-1.365.074-.413.085-.572.085-2.127 0-1.545-.011-1.704-.085-2.117-.138-.762-.667-1.249-1.503-1.365-.53-.085-1.556-.127-2.836-.127zm-.138 1.83c2.37 0 2.413.032 2.413 1.779 0 1.756-.032 1.788-2.423 1.788-2.064 0-2.138-.063-2.138-1.82 0-1.672.095-1.746 2.148-1.746zM56.718 184.709c-1.291 0-2.318.042-2.847.127-.836.116-1.365.603-1.503 1.365-.074.402-.085.593-.085 2.021 0 1.683 0 1.8.085 2.223.138.762.667 1.249 1.503 1.365.518.085 1.556.127 2.847.127 1.28 0 2.318-.042 2.836-.127.836-.116 1.365-.603 1.503-1.365.074-.413.085-.572.085-2.127 0-1.545-.011-1.704-.085-2.117-.138-.762-.667-1.249-1.503-1.365-.53-.085-1.556-.127-2.836-.127zm-.138 1.83c2.37 0 2.413.032 2.413 1.779 0 1.756-.032 1.788-2.423 1.788-2.064 0-2.138-.063-2.138-1.82 0-1.672.095-1.746 2.148-1.746zM64.803 184.793l-2.582 2.212 1.185 1.387 2.085-1.757h.561v5.218h2.149v-7.06zM73.609 189.514v.338c0 .974.158 1.387.645 1.694.498.317 1.355.412 3.546.412 2.106 0 2.995-.053 3.418-.211.73-.276 1.027-.879 1.027-2.106 0-.985-.18-1.46-.667-1.778-.455-.286-.91-.34-3.239-.413-1.492-.042-2.074-.074-2.264-.127-.223-.053-.318-.19-.318-.455 0-.519.148-.561 1.969-.561 1.524 0 1.788.021 1.968.127.159.095.19.19.212.582h2.074c.01-.138.01-.286.01-.328 0-.836-.169-1.28-.592-1.566-.497-.34-1.238-.434-3.291-.434-1.694 0-2.667.042-3.08.127-.974.211-1.355.815-1.355 2.159 0 1.555.487 2 2.233 2.053l.572.021 1.143.053 1.693.063c.688.011.847.117.847.54 0 .625 0 .625-2.307.625-1.514 0-1.747-.022-1.948-.149-.17-.105-.211-.243-.211-.666zM87.653 190.254c-.074.445-.297.53-1.493.53-.677 0-1.068-.064-1.27-.212-.18-.138-.232-.307-.232-.815h4.89c.01-.212.01-.445.01-.508 0-1.132-.17-1.693-.614-2.064-.455-.37-1.048-.476-2.741-.476-1.63 0-2.254.106-2.741.445-.53.37-.678.867-.678 2.211 0 1.281.149 1.778.635 2.149.455.339 1.143.466 2.593.466 2.678 0 3.366-.34 3.503-1.726zm-2.995-1.524c.02-.698.317-.857 1.577-.857.74 0 1.121.074 1.29.254.117.117.138.212.149.603zM90.256 186.847v5.005h1.873v-2.074c0-.772.053-1.048.233-1.291.18-.233.53-.36.953-.36.772 0 .984.201.984.942h1.767v-.339c0-1.502-.508-2.01-2.021-2.01-1.048 0-1.577.243-1.926.878h-.095v-.751zM96.596 186.847v5.005h1.873v-5.005zm0-2.054v1.408h1.873v-1.408zM104.046 190.254c-.074.445-.296.53-1.492.53-.677 0-1.069-.064-1.27-.212-.18-.138-.233-.307-.233-.815h4.89c.01-.212.01-.445.01-.508 0-1.132-.17-1.693-.614-2.064-.455-.37-1.047-.476-2.74-.476-1.63 0-2.255.106-2.742.445-.529.37-.677.867-.677 2.211 0 1.281.148 1.778.635 2.149.455.339 1.143.466 2.593.466 2.677 0 3.365-.34 3.503-1.726zm-2.995-1.524c.021-.698.318-.857 1.577-.857.74 0 1.122.074 1.291.254.117.117.138.212.148.603zM106.49 190.254c.012.583.139.932.445 1.207.445.413 1.07.518 2.89.518 2.9 0 3.577-.328 3.577-1.756 0-1.122-.55-1.545-2-1.556-1.927-.01-2.255-.021-2.562-.042-.296-.022-.444-.127-.444-.328 0-.318.36-.413 1.534-.413.635 0 1.016.042 1.175.148.064.042.085.074.127.233h1.905c-.042-.603-.137-.868-.402-1.08-.423-.36-1.048-.465-2.752-.465-1.312 0-2.19.074-2.593.232-.592.223-.867.688-.867 1.461 0 1.069.592 1.513 2.01 1.535 1.842 0 2.308.01 2.562.031.275.032.434.17.434.37 0 .36-.35.466-1.567.466-1.175 0-1.534-.127-1.566-.56z"
       style="fill:#656565;fill-opacity:1;stroke-width:1;stroke-miterlimit:4;stroke-dasharray:none"
       id="path5" />
  </g>
  <g
     aria-label="PET"
     style="font-style:normal;font-variant:normal;font-weight:400;font-stretch:normal;font-size:31.0205px;line-height:1.25;font-family:'Microgramma D Extended';-inkscape-font-specification:'Microgramma D Extended, Normal';font-variant-ligatures:normal;font-variant-caps:normal;font-variant-numeric:normal;font-variant-east-asian:normal;fill:#656565;fill-opacity:1;stroke-width:.36352"
     id="g11">
    <path
       d="M33.354 182.312h6.298v-5.056h7.94c4.468 0 5.864-.125 7.26-.59 2.481-.9 3.319-2.699 3.319-7.29 0-5.304-1.117-6.98-5.026-7.569-1.147-.155-1.706-.186-5.614-.186H33.354Zm6.298-10.237v-5.273h7.879c2.76.03 2.823.03 3.257.186.806.279 1.086.9 1.086 2.388 0 1.427-.186 1.986-.776 2.358-.527.31-.651.31-3.567.341zM60.25 161.621v20.69h23.016v-4.962H66.453v-3.289h15.852v-4.56H66.453v-3.009h16.69v-4.87zM83.794 161.621v5.274h9.213v15.417h6.607v-15.417h9.213v-5.274z"
       style="font-style:normal;font-variant:normal;font-weight:400;font-stretch:normal;font-size:31.0205px;font-family:'Microgramma D Extended';-inkscape-font-specification:'Microgramma D Extended, Normal';font-variant-ligatures:normal;font-variant-caps:normal;font-variant-numeric:normal;font-variant-east-asian:normal;fill:#656565;fill-opacity:1;stroke-width:.36352"
       transform="matrix(.75876 0 0 .71908 -10.348 -112.084)"
       id="path9" />
  </g>
  <path
     style="fill:#ffffff;fill-opacity:0.941176;stroke-width:0.302643"
     d="M 56.594192,43.713314 V 15.700299 l 27.767471,0.121228 c 26.966287,0.117731 27.853857,0.139855 30.761337,0.766811 5.63825,1.215807 8.50503,3.112249 10.32077,6.827454 1.65702,3.390452 2.05788,6.51303 1.88931,14.717193 -0.15231,7.412609 -0.40256,8.916693 -2.04551,12.294128 -1.97851,4.067271 -5.88402,6.212944 -12.912,7.093807 -1.30072,0.163028 -10.36605,0.381935 -20.145196,0.486456 L 74.450113,58.19742 v 6.764453 6.764455 h -8.927961 -8.92796 z m 48.657638,0.201044 c 1.82333,-0.259558 2.98021,-1.005781 3.85088,-2.483938 0.51101,-0.867563 0.60499,-1.569688 0.60337,-4.508006 -0.002,-4.048135 -0.49985,-5.474014 -2.26791,-6.498395 -1.02211,-0.592191 -1.61901,-0.61672 -17.023653,-0.699563 l -15.964404,-0.08585 v 7.273617 7.273618 l 14.602512,-0.02209 c 8.031382,-0.01215 15.321025,-0.124376 16.199205,-0.249387 z"
     id="path869"
     transform="matrix(0.2645836,0,0,0.2645836,-3.0632011e-4,0)" />
  <path
     style="fill:#ffffff;fill-opacity:0.941176;stroke-width:0.302643"
     d="M 133.76809,43.731875 V 15.737422 h 32.68541 32.68542 v 6.506819 6.506819 h -23.90878 -23.90877 v 4.236998 4.236998 h 22.6982 22.69821 v 6.052855 6.052855 h -22.69821 -22.6982 v 4.539641 4.539641 h 24.0601 24.06009 v 6.65814 6.65814 h -32.83673 -32.83674 z"
     id="path908"
     transform="matrix(0.2645836,0,0,0.2645836,-3.0632011e-4,0)" />
  <path
     style="fill:#ffffff;fill-opacity:0.941176;stroke-width:0.302643"
     d="M 227.88998,50.84398 V 29.961631 H 214.5737 201.25742 v -7.112104 -7.112105 h 35.71184 35.71184 v 7.112105 7.112104 H 259.51615 246.35119 V 50.84398 71.726328 h -9.23061 -9.2306 z"
     id="path947"
     transform="matrix(0.2645836,0,0,0.2645836,-3.0632011e-4,0)" />
  <path
     style="fill:#ffffff;fill-opacity:0.941176;stroke-width:0.302643"
     d="m 56.713723,98.793938 c -0.282195,-1.124351 0.168135,-6.165814 0.654991,-7.332667 0.702545,-1.683797 2.297035,-2.160616 9.0123,-2.695054 3.189603,-0.253846 6.139752,-0.617717 6.555885,-0.808602 0.598014,-0.274315 0.775607,-0.605824 0.847251,-1.581543 0.141722,-1.930124 -0.147164,-2.03384 -5.641139,-2.02528 -2.623485,0.0041 -5.062193,0.100179 -5.419352,0.213537 -0.487649,0.154773 -0.699674,0.541495 -0.851323,1.552763 l -0.201944,1.346659 h -2.5381 -2.5381 l 4.7e-4,-1.740196 c 5.77e-4,-2.135285 0.699645,-3.630736 2.066052,-4.419715 2.074613,-1.197906 16.003848,-1.373259 18.291693,-0.230272 1.471652,0.735225 2.036321,2.152852 2.036877,5.113672 7.07e-4,3.768584 -0.780878,5.126053 -3.351616,5.821144 -0.595247,0.160946 -3.720168,0.482006 -6.94427,0.713466 -5.432818,0.390025 -5.90199,0.470217 -6.408142,1.095288 -1.224964,1.512767 -1.211076,1.515324 8.230501,1.515324 h 8.77664 v 2.118499 2.118499 H 68.100381 56.908366 Z"
     id="path986"
     transform="matrix(0.2645836,0,0,0.2645836,-3.0632011e-4,0)" />
  <path
     style="fill:#ffffff;fill-opacity:0.941176;stroke-width:0.302643"
     d="m 85.987134,99.266073 c -1.591435,-0.375709 -2.421423,-0.928881 -3.14903,-2.098771 -0.634079,-1.01951 -0.670601,-1.407886 -0.670601,-7.131088 0,-5.542732 0.05192,-6.141224 0.615994,-7.101395 1.054541,-1.795031 2.042425,-2.149619 6.873275,-2.467073 2.595608,-0.170567 5.962269,-0.176221 8.452555,-0.01419 4.843743,0.31515 6.058193,0.770845 7.039493,2.641412 0.56761,1.081997 0.62482,1.717478 0.62482,6.94125 0,5.205912 -0.0573,5.847483 -0.60529,6.777826 -0.8129,1.380095 -1.93365,2.167141 -3.52332,2.474248 -1.658939,0.320491 -14.282115,0.302581 -15.657896,-0.02221 z m 12.443855,-4.553827 c 0.622242,-0.172808 1.26914,-0.571663 1.437553,-0.886344 0.392548,-0.73348 0.400568,-6.830903 0.0099,-7.560785 -0.162939,-0.304456 -0.728019,-0.704071 -1.255732,-0.888032 -1.174237,-0.409342 -8.408351,-0.444776 -9.45637,-0.04632 -1.22637,0.466265 -1.529868,1.399741 -1.529868,4.705449 0,3.446057 0.295543,4.243569 1.725733,4.656824 1.347419,0.389339 7.687627,0.402768 9.068735,0.01921 z"
     id="path1025"
     transform="matrix(0.2645836,0,0,0.2645836,-3.0632011e-4,0)" />
  <path
     style="fill:#ffffff;fill-opacity:0.941176;stroke-width:0.302643"
     d="m 112.18519,99.287884 c -1.4395,-0.292759 -2.59994,-1.140804 -3.38513,-2.473844 -0.54799,-0.930343 -0.60528,-1.571914 -0.60528,-6.777826 0,-5.223772 0.0572,-5.859253 0.62482,-6.94125 0.98815,-1.883619 2.18856,-2.327655 7.15939,-2.648268 2.63874,-0.170196 5.85125,-0.163399 8.45585,0.01789 4.70413,0.327424 5.70679,0.694354 6.75008,2.470232 0.56408,0.960171 0.61599,1.558663 0.61599,7.101395 0,5.763299 -0.0328,6.105605 -0.68572,7.155545 -1.2833,2.063658 -1.99261,2.219659 -10.36074,2.278652 -4.07811,0.02875 -7.93428,-0.05339 -8.56926,-0.182527 z m 12.27307,-4.575638 c 1.58438,-0.44001 1.87189,-1.155505 1.88436,-4.689342 0.0173,-4.896115 -0.35386,-5.138319 -7.5639,-4.936257 -4.99118,0.139878 -4.98505,0.133819 -4.98505,4.925251 0,3.718217 0.19059,4.255733 1.66488,4.695298 1.27368,0.379752 7.63764,0.383323 8.99971,0.0051 z"
     id="path1064"
     transform="matrix(0.2645836,0,0,0.2645836,-3.0632011e-4,0)" />
  <path
     style="fill:#ffffff;fill-opacity:0.941176;stroke-width:0.302643"
     d="m 145.57116,92.457356 v -7.112105 h -0.95249 c -0.74964,0 -1.53133,0.495053 -3.67048,2.324574 l -2.718,2.324573 -0.87632,-1.038341 C 136.8719,88.384968 136.21802,87.569723 135.9008,87.1444 l -0.57676,-0.773314 3.43737,-2.934059 3.43736,-2.934059 h 4.40998 4.40998 v 9.533246 9.533246 h -2.72379 -2.72378 z"
     id="path1103"
     transform="matrix(0.2645836,0,0,0.2645836,-3.0632011e-4,0)" />
  <path
     style="fill:#ffffff;fill-opacity:0.941176;stroke-width:0.302643"
     d="m 172.5051,99.588494 c -4.76939,-0.343833 -6.07675,-1.229885 -6.29646,-4.267373 l -0.13053,-1.804516 h 2.74006 2.74006 l 0.0958,0.814778 c 0.13613,1.158209 1.25813,1.363484 6.82515,1.248691 4.21006,-0.08681 4.712,-0.154124 5.09871,-0.68376 0.53536,-0.733229 0.5451,-1.4078 0.0305,-2.111581 -0.35009,-0.478776 -1.18581,-0.579208 -6.88512,-0.827414 -7.113,-0.309772 -8.32225,-0.511933 -9.3023,-1.555152 -1.34333,-1.42991 -1.51689,-5.472115 -0.33569,-7.818164 0.86945,-1.72686 2.16865,-2.086352 8.27211,-2.288917 5.72485,-0.19 9.98155,0.190541 11.38145,1.017482 1.11049,0.655979 1.80764,2.083014 1.80764,3.700118 v 1.240494 h -2.72378 c -2.50576,0 -2.72378,-0.0476 -2.72378,-0.594638 0,-1.077964 -0.98876,-1.267512 -6.083,-1.166128 -5.13894,0.102273 -5.40225,0.182443 -5.41279,1.648048 -0.009,1.216773 0.63071,1.366696 7.00723,1.64283 3.37038,0.145953 6.54219,0.354451 7.04846,0.463328 2.63848,0.567427 3.49295,1.881485 3.49295,5.371682 0,3.449624 -0.86946,5.078348 -3.00672,5.632357 -1.54539,0.400588 -9.89931,0.6075 -13.63989,0.337835 z"
     id="path1142"
     transform="matrix(0.2645836,0,0,0.2645836,-3.0632011e-4,0)" />
  <path
     style="fill:#ffffff;fill-opacity:0.941176;stroke-width:0.302643"
     d="m 196.8691,99.743339 c -0.16645,-0.06945 -0.95529,-0.214284 -1.75297,-0.321855 -2.04127,-0.275278 -3.39637,-1.51937 -3.82331,-3.510131 -0.64198,-2.993462 -0.23459,-7.061628 0.82718,-8.260087 0.28165,-0.317918 1.12495,-0.852762 1.87399,-1.188542 1.18299,-0.530306 2.0016,-0.610676 6.23141,-0.611788 4.36255,-0.0011 5.00916,0.06632 6.21079,0.648017 1.84575,0.893513 2.46305,2.057418 2.63113,4.960972 l 0.13658,2.359323 h -6.69702 -6.69703 v 0.723079 c 0,0.397693 0.26035,1.044592 0.57855,1.437553 0.54264,0.670132 0.77908,0.714474 3.80977,0.714474 3.00374,0 3.27079,-0.04886 3.79317,-0.693975 0.50912,-0.628727 0.77437,-0.685637 2.8212,-0.605286 l 2.25925,0.08869 -0.41543,1.210571 c -0.48608,1.416476 -1.26899,2.133124 -2.80786,2.570224 -1.12869,0.320593 -8.42597,0.709668 -8.9794,0.478761 z m 7.35826,-9.32192 c -0.14024,-1.444343 -1.03865,-1.785053 -4.43457,-1.681755 -2.55121,0.0776 -2.88284,0.15557 -3.40473,0.800453 -0.31802,0.392961 -0.57821,0.971765 -0.57821,1.286232 0,0.533477 0.28496,0.571757 4.25617,0.571757 h 4.25618 z"
     id="path1181"
     transform="matrix(0.2645836,0,0,0.2645836,-3.0632011e-4,0)" />
  <path
     style="fill:#ffffff;fill-opacity:0.941176;stroke-width:0.302643"
     d="m 211.24463,92.91132 v -6.65814 h 2.26982 2.26982 v 0.907928 c 0,0.963282 0.70131,1.277613 1.01671,0.455696 0.40103,-1.045063 2.07964,-1.663965 4.51624,-1.665136 4.04382,-0.0019 5.05299,0.82306 5.45905,4.462849 l 0.17726,1.588875 h -2.2469 -2.24691 l -0.25465,-0.983589 c -0.42125,-1.627137 -2.33403,-2.191358 -4.44244,-1.310408 -1.36124,0.568764 -1.67186,1.738479 -1.67403,6.304013 l -0.002,3.556052 h -2.42114 -2.42114 z"
     id="path1220"
     transform="matrix(0.2645836,0,0,0.2645836,-3.0632011e-4,0)" />
  <path
     style="fill:#ffffff;fill-opacity:0.941176;stroke-width:0.302643"
     d="m 228.49527,92.91132 v -6.65814 h 2.42114 2.42114 v 6.65814 6.65814 h -2.42114 -2.42114 z"
     id="path1259"
     transform="matrix(0.2645836,0,0,0.2645836,-3.0632011e-4,0)" />
  <path
     style="fill:#ffffff;fill-opacity:0.941176;stroke-width:0.302643"
     d="m 228.49527,82.318824 v -1.815856 h 2.42114 2.42114 v 1.815856 1.815857 h -2.42114 -2.42114 z"
     id="path1298"
     transform="matrix(0.2645836,0,0,0.2645836,-3.0632011e-4,0)" />
  <path
     style="fill:#ffffff;fill-opacity:0.941176;stroke-width:0.302643"
     d="m 239.99569,99.530037 c -1.90436,-0.310396 -2.92771,-0.958729 -3.76185,-2.383268 -0.47799,-0.816306 -0.5841,-1.582808 -0.5841,-4.21917 0,-3.724984 0.52259,-5.22692 2.14304,-6.159119 2.10074,-1.208498 10.68025,-1.330884 13.33398,-0.190209 1.70986,0.734964 2.47188,2.3314 2.48121,5.198139 l 0.007,2.042838 h -6.69597 -6.69597 l 0.19591,0.979536 c 0.34214,1.710703 0.76205,1.89557 4.30562,1.89557 2.94683,0 3.2363,-0.05263 3.74508,-0.680946 0.48438,-0.598191 0.83125,-0.680946 2.85413,-0.680946 h 2.30273 l -0.19309,0.832267 c -0.29045,1.251932 -0.9327,2.128815 -1.94113,2.650293 -1.79909,0.930346 -7.86171,1.307418 -11.49623,0.715015 z m 8.72015,-9.108618 c -0.13987,-1.44055 -1.04104,-1.785212 -4.39718,-1.681755 -3.01598,0.09297 -3.51447,0.327478 -3.8819,1.826175 l -0.20405,0.832267 h 4.28899 4.28898 z"
     id="path1337"
     transform="matrix(0.2645836,0,0,0.2645836,-3.0632011e-4,0)" />
  <path
     style="fill:#ffffff;fill-opacity:0.941176;stroke-width:0.302643"
     d="m 259.80709,99.594255 c -2.11577,-0.340963 -3.30168,-1.028758 -3.88185,-2.251361 -0.89531,-1.886729 -0.77905,-2.010432 1.88946,-2.010432 2.13695,0 2.43106,0.07062 2.83586,0.680946 0.41513,0.625904 0.72158,0.689165 3.79123,0.782621 3.68257,0.112117 4.6076,-0.14697 4.6076,-1.290515 0,-0.965824 -0.43969,-1.080005 -4.18609,-1.087066 -4.10611,-0.0077 -6.91988,-0.414029 -7.90361,-1.141232 -0.42494,-0.314128 -0.95165,-1.124634 -1.17047,-1.801125 -0.77019,-2.381088 0.48856,-4.685188 2.86541,-5.245017 1.60017,-0.376894 10.45196,-0.369958 11.8604,0.0093 1.31782,0.354853 2.30252,1.310429 2.58609,2.509614 l 0.1968,0.832268 h -2.55301 c -1.77349,0 -2.59145,-0.115508 -2.67891,-0.378304 -0.16487,-0.495385 -5.50706,-0.700269 -6.66609,-0.255658 -0.97442,0.373787 -1.3636,1.123614 -0.85013,1.637893 0.23362,0.233984 2.16046,0.413962 5.56342,0.519653 5.79231,0.179902 6.79345,0.460707 7.47055,2.095384 0.2279,0.550182 0.32514,1.61697 0.24046,2.638015 -0.16237,1.957976 -0.92039,2.857898 -2.8838,3.423637 -1.46351,0.421696 -9.15271,0.650567 -11.13332,0.331385 z"
     id="path1376"
     transform="matrix(0.2645836,0,0,0.2645836,-3.0632011e-4,0)" />
</svg>
