<?xml version="1.0" encoding="UTF-8" standalone="no"?>
<svg
   width="84.718475mm"
   height="31.500059mm"
   viewBox="0 0 84.718475 31.500059"
   version="1.1"
   id="svg8"
   inkscape:version="1.1 (c68e22c387, 2021-05-23)"
   sodipodi:docname="pet.svg"
   xmlns:inkscape="http://www.inkscape.org/namespaces/inkscape"
   xmlns:sodipodi="http://sodipodi.sourceforge.net/DTD/sodipodi-0.dtd"
   xmlns="http://www.w3.org/2000/svg"
   xmlns:svg="http://www.w3.org/2000/svg"
   xmlns:rdf="http://www.w3.org/1999/02/22-rdf-syntax-ns#"
   xmlns:cc="http://creativecommons.org/ns#"
   xmlns:dc="http://purl.org/dc/elements/1.1/">
  <defs
     id="defs2">
    <rect
       x="32.715382"
       y="182.35857"
       width="150.10153"
       height="48.617233"
       id="rect12" />
  </defs>
  <sodipodi:namedview
     id="base"
     pagecolor="#ffffff"
     bordercolor="#666666"
     borderopacity="1.0"
     inkscape:pageopacity="0.0"
     inkscape:pageshadow="2"
     inkscape:zoom="2.79"
     inkscape:cx="157.52688"
     inkscape:cy="96.953405"
     inkscape:document-units="mm"
     inkscape:current-layer="layer1"
     inkscape:document-rotation="0"
     showgrid="false"
     inkscape:window-width="1366"
     inkscape:window-height="705"
     inkscape:window-x="-8"
     inkscape:window-y="-8"
     inkscape:window-maximized="1"
     inkscape:pagecheckerboard="0" />
  <metadata
     id="metadata5">
    <rdf:RDF>
      <cc:Work
         rdf:about="">
        <dc:format>image/svg+xml</dc:format>
        <dc:type
           rdf:resource="http://purl.org/dc/dcmitype/StillImage" />
        <dc:title />
      </cc:Work>
    </rdf:RDF>
  </metadata>
  <g
     inkscape:label="Layer 1"
     inkscape:groupmode="layer"
     id="layer1"
     transform="translate(-33.286342,-160.47944)">
    <g
       aria-label="2001 Series"
       id="text10"
       style="font-style:normal;font-variant:normal;font-weight:normal;font-stretch:normal;font-size:10.5833px;line-height:1.25;font-family:'Microgramma D Extended';-inkscape-font-specification:'Microgramma D Extended, Normal';font-variant-ligatures:normal;font-variant-caps:normal;font-variant-numeric:normal;font-variant-east-asian:normal;white-space:pre;shape-inside:url(#rect12);fill:#656565;fill-opacity:1;stroke-width:1;stroke-miterlimit:4;stroke-dasharray:none"
       transform="matrix(0.71908477,0,0,0.71908477,24.26199,48.875898)">
      <path
         d="m 35.360669,187.41809 v -0.24341 c 0.01058,-0.52917 0.05292,-0.71967 0.232832,-0.78317 0.22225,-0.0953 0.783164,-0.127 2.14841,-0.127 1.12183,0 1.407579,0.0106 1.598078,0.0741 0.264583,0.0741 0.338666,0.22225 0.338666,0.635 0,0.57149 -0.09525,0.62441 -1.344079,0.71966 -1.947327,0.15875 -2.952741,0.23283 -3.037407,0.24342 -1.100663,0.14816 -1.555745,0.41274 -1.777994,1.06891 -0.116417,0.32808 -0.15875,0.86783 -0.15875,2.04258 0,0.33866 0,0.45508 0.03175,0.80433 h 8.413723 v -1.61925 h -6.445229 v -0.0741 c 0.01058,-0.34925 0.08467,-0.48683 0.349249,-0.59267 0.137582,-0.0635 0.550331,-0.0952 3.513655,-0.28575 1.195913,-0.0635 1.852077,-0.29633 2.158993,-0.75141 0.222249,-0.33866 0.306916,-0.75141 0.306916,-1.58749 0,-1.12183 -0.148166,-1.5875 -0.624415,-1.89441 -0.465665,-0.30692 -0.814914,-0.33867 -3.757071,-0.33867 -3.577155,0 -4.021654,0.26458 -4.021654,2.40241 v 0.30691 z"
         style="fill:#656565;fill-opacity:1;stroke-width:1;stroke-miterlimit:4;stroke-dasharray:none"
         id="path882" />
      <path
         d="m 47.11871,184.70877 c -1.291162,0 -2.317742,0.0423 -2.846907,0.127 -0.836081,0.11642 -1.365246,0.60325 -1.502829,1.36524 -0.07408,0.40217 -0.08467,0.59267 -0.08467,2.02142 0,1.68274 0,1.79916 0.08467,2.22249 0.137583,0.762 0.666748,1.24883 1.502829,1.36524 0.518581,0.0847 1.555745,0.127 2.846907,0.127 1.28058,0 2.317743,-0.0423 2.836325,-0.127 0.83608,-0.11641 1.365245,-0.60324 1.502828,-1.36524 0.07408,-0.41275 0.08467,-0.5715 0.08467,-2.12725 0,-1.54516 -0.01058,-1.70391 -0.08467,-2.11666 -0.137583,-0.76199 -0.666748,-1.24882 -1.502828,-1.36524 -0.529165,-0.0847 -1.555745,-0.127 -2.836325,-0.127 z m -0.137582,1.83091 c 2.370659,0 2.412992,0.0317 2.412992,1.77799 0,1.75683 -0.03175,1.78858 -2.423576,1.78858 -2.063743,0 -2.137826,-0.0635 -2.137826,-1.82033 0,-1.67216 0.09525,-1.74624 2.14841,-1.74624 z"
         style="fill:#656565;fill-opacity:1;stroke-width:1;stroke-miterlimit:4;stroke-dasharray:none"
         id="path884" />
      <path
         d="m 56.717759,184.70877 c -1.291163,0 -2.317743,0.0423 -2.846908,0.127 -0.83608,0.11642 -1.365245,0.60325 -1.502828,1.36524 -0.07408,0.40217 -0.08467,0.59267 -0.08467,2.02142 0,1.68274 0,1.79916 0.08467,2.22249 0.137583,0.762 0.666748,1.24883 1.502828,1.36524 0.518582,0.0847 1.555745,0.127 2.846908,0.127 1.280579,0 2.317743,-0.0423 2.836324,-0.127 0.836081,-0.11641 1.365246,-0.60324 1.502829,-1.36524 0.07408,-0.41275 0.08467,-0.5715 0.08467,-2.12725 0,-1.54516 -0.01058,-1.70391 -0.08467,-2.11666 -0.137583,-0.76199 -0.666748,-1.24882 -1.502829,-1.36524 -0.529165,-0.0847 -1.555745,-0.127 -2.836324,-0.127 z m -0.137583,1.83091 c 2.370659,0 2.412992,0.0317 2.412992,1.77799 0,1.75683 -0.03175,1.78858 -2.423575,1.78858 -2.063744,0 -2.137827,-0.0635 -2.137827,-1.82033 0,-1.67216 0.09525,-1.74624 2.14841,-1.74624 z"
         style="fill:#656565;fill-opacity:1;stroke-width:1;stroke-miterlimit:4;stroke-dasharray:none"
         id="path886" />
      <path
         d="m 64.803388,184.79344 -2.582325,2.21191 1.185329,1.38641 2.08491,-1.75683 h 0.560915 v 5.21757 h 2.14841 v -7.05906 z"
         style="fill:#656565;fill-opacity:1;stroke-width:1;stroke-miterlimit:4;stroke-dasharray:none"
         id="path888" />
      <path
         d="m 73.608669,189.51359 v 0.33866 c 0,0.97367 0.15875,1.38642 0.645582,1.69333 0.497415,0.3175 1.354662,0.41275 3.545405,0.41275 2.106077,0 2.995074,-0.0529 3.418406,-0.21167 0.730247,-0.27516 1.02658,-0.87841 1.02658,-2.10607 0,-0.98425 -0.179916,-1.4605 -0.666748,-1.778 -0.455082,-0.28575 -0.910164,-0.33866 -3.23849,-0.41275 -1.492245,-0.0423 -2.074326,-0.0741 -2.264826,-0.127 -0.222249,-0.0529 -0.317499,-0.19049 -0.317499,-0.45508 0,-0.51858 0.148166,-0.56091 1.968494,-0.56091 1.523995,0 1.788578,0.0212 1.968494,0.127 0.158749,0.0952 0.190499,0.1905 0.211666,0.58208 h 2.074326 c 0.01058,-0.13758 0.01058,-0.28575 0.01058,-0.32808 0,-0.83608 -0.169333,-1.28058 -0.592665,-1.56633 -0.497415,-0.33867 -1.238246,-0.43392 -3.291406,-0.43392 -1.693328,0 -2.666992,0.0423 -3.079741,0.127 -0.973663,0.21167 -1.354662,0.81492 -1.354662,2.159 0,1.55574 0.486832,2.00024 2.233076,2.05316 l 0.571499,0.0212 1.142996,0.0529 1.693328,0.0635 c 0.687914,0.0106 0.846664,0.11641 0.846664,0.53975 0,0.62441 0,0.62441 -2.30716,0.62441 -1.513411,0 -1.746244,-0.0212 -1.947327,-0.14816 -0.169332,-0.10584 -0.211666,-0.24342 -0.211666,-0.66675 z"
         style="fill:#656565;fill-opacity:1;stroke-width:1;stroke-miterlimit:4;stroke-dasharray:none"
         id="path890" />
      <path
         d="m 87.652697,190.25442 c -0.07408,0.4445 -0.296332,0.52916 -1.492245,0.52916 -0.677331,0 -1.068913,-0.0635 -1.269996,-0.21166 -0.179916,-0.13759 -0.232832,-0.30692 -0.232832,-0.81492 h 4.889484 c 0.01058,-0.21166 0.01058,-0.4445 0.01058,-0.50799 0,-1.13242 -0.169332,-1.69333 -0.613831,-2.06375 -0.455082,-0.37041 -1.047747,-0.47625 -2.741075,-0.47625 -1.629828,0 -2.254242,0.10584 -2.741074,0.4445 -0.529165,0.37042 -0.677331,0.86783 -0.677331,2.21191 0,1.28058 0.148166,1.778 0.634998,2.14841 0.455081,0.33867 1.142996,0.46567 2.592908,0.46567 2.677575,0 3.365489,-0.33867 3.503072,-1.72508 z m -2.995073,-1.524 c 0.02117,-0.69849 0.317499,-0.85724 1.576911,-0.85724 0.740831,0 1.12183,0.0741 1.291163,0.254 0.116416,0.11641 0.137583,0.21166 0.148166,0.60324 z"
         style="fill:#656565;fill-opacity:1;stroke-width:1;stroke-miterlimit:4;stroke-dasharray:none"
         id="path892" />
      <path
         d="m 90.256176,186.8466 v 5.0059 h 1.873244 v -2.07433 c 0,-0.77258 0.05292,-1.04775 0.232832,-1.29116 0.179916,-0.23284 0.529165,-0.35983 0.952497,-0.35983 0.772581,0 0.984247,0.20108 0.984247,0.94191 h 1.767411 v -0.33867 c 0,-1.50283 -0.507998,-2.01082 -2.02141,-2.01082 -1.047747,0 -1.576912,0.24341 -1.92616,0.87841 h -0.09525 v -0.75141 z"
         style="fill:#656565;fill-opacity:1;stroke-width:1;stroke-miterlimit:4;stroke-dasharray:none"
         id="path894" />
      <path
         d="m 96.595543,186.8466 v 5.0059 h 1.873244 v -5.0059 z m 0,-2.05316 v 1.40757 h 1.873244 v -1.40757 z"
         style="fill:#656565;fill-opacity:1;stroke-width:1;stroke-miterlimit:4;stroke-dasharray:none"
         id="path896" />
      <path
         d="m 104.04619,190.25442 c -0.0741,0.4445 -0.29634,0.52916 -1.49225,0.52916 -0.67733,0 -1.06891,-0.0635 -1.26999,-0.21166 -0.17992,-0.13759 -0.23284,-0.30692 -0.23284,-0.81492 h 4.88949 c 0.0106,-0.21166 0.0106,-0.4445 0.0106,-0.50799 0,-1.13242 -0.16933,-1.69333 -0.61383,-2.06375 -0.45508,-0.37041 -1.04775,-0.47625 -2.74107,-0.47625 -1.62983,0 -2.25425,0.10584 -2.741079,0.4445 -0.529165,0.37042 -0.677332,0.86783 -0.677332,2.21191 0,1.28058 0.148167,1.778 0.634998,2.14841 0.455083,0.33867 1.142993,0.46567 2.592913,0.46567 2.67757,0 3.36549,-0.33867 3.50307,-1.72508 z m -2.99508,-1.524 c 0.0212,-0.69849 0.3175,-0.85724 1.57692,-0.85724 0.74083,0 1.12182,0.0741 1.29116,0.254 0.11641,0.11641 0.13758,0.21166 0.14816,0.60324 z"
         style="fill:#656565;fill-opacity:1;stroke-width:1;stroke-miterlimit:4;stroke-dasharray:none"
         id="path898" />
      <path
         d="m 106.49092,190.25442 c 0.0106,0.58208 0.13758,0.93133 0.44449,1.20649 0.4445,0.41275 1.06892,0.51859 2.88925,0.51859 2.89982,0 3.57715,-0.32809 3.57715,-1.75683 0,-1.12183 -0.55033,-1.54516 -2.00024,-1.55575 -1.92616,-0.0106 -2.25425,-0.0212 -2.56116,-0.0423 -0.29633,-0.0212 -0.4445,-0.127 -0.4445,-0.32808 0,-0.3175 0.35983,-0.41275 1.53458,-0.41275 0.635,0 1.016,0.0423 1.17474,0.14817 0.0635,0.0423 0.0847,0.0741 0.127,0.23283 h 1.905 c -0.0423,-0.60325 -0.13758,-0.86783 -0.40217,-1.0795 -0.42333,-0.35983 -1.04774,-0.46566 -2.75166,-0.46566 -1.31232,0 -2.19074,0.0741 -2.5929,0.23283 -0.59267,0.22225 -0.86783,0.68791 -0.86783,1.46049 0,1.06892 0.59266,1.51342 2.01082,1.53458 1.8415,0 2.30716,0.0106 2.56116,0.0318 0.27517,0.0317 0.43392,0.16934 0.43392,0.37042 0,0.35983 -0.34925,0.46566 -1.56633,0.46566 -1.17475,0 -1.53458,-0.127 -1.56633,-0.56091 z"
         style="fill:#656565;fill-opacity:1;stroke-width:1;stroke-miterlimit:4;stroke-dasharray:none"
         id="path900" />
    </g>
    <g
       aria-label="PET"
       id="text20"
       style="font-style:normal;font-variant:normal;font-weight:normal;font-stretch:normal;font-size:31.0205px;line-height:1.25;font-family:'Microgramma D Extended';-inkscape-font-specification:'Microgramma D Extended, Normal';font-variant-ligatures:normal;font-variant-caps:normal;font-variant-numeric:normal;font-variant-east-asian:normal;fill:#656565;fill-opacity:1;stroke-width:0.36352"
       transform="matrix(0.75876221,0,0,0.71908477,22.938573,48.395345)">
      <path
         d="m 33.354391,182.3119 h 6.297161 v -5.05634 H 47.5928 c 4.466952,0 5.862875,-0.12408 7.258797,-0.58939 2.48164,-0.89959 3.319194,-2.69878 3.319194,-7.28981 0,-5.30451 -1.116738,-6.97962 -5.025321,-7.56901 -1.147759,-0.1551 -1.706128,-0.18612 -5.614711,-0.18612 H 33.354391 Z m 6.297161,-10.23676 v -5.27349 h 7.879207 c 2.760825,0.031 2.822866,0.031 3.257153,0.18613 0.806533,0.27918 1.085717,0.89959 1.085717,2.38858 0,1.42694 -0.186123,1.98531 -0.775512,2.35755 -0.527349,0.31021 -0.651431,0.31021 -3.567358,0.34123 z"
         style="font-style:normal;font-variant:normal;font-weight:normal;font-stretch:normal;font-size:31.0205px;font-family:'Microgramma D Extended';-inkscape-font-specification:'Microgramma D Extended, Normal';font-variant-ligatures:normal;font-variant-caps:normal;font-variant-numeric:normal;font-variant-east-asian:normal;fill:#656565;fill-opacity:1;stroke-width:0.36352"
         id="path903" />
      <path
         d="m 60.249124,161.62123 v 20.69067 h 23.017211 v -4.96328 H 66.453224 v -3.28817 H 82.3047 v -4.56001 H 66.453224 v -3.00899 h 16.689029 v -4.87022 z"
         style="font-style:normal;font-variant:normal;font-weight:normal;font-stretch:normal;font-size:31.0205px;font-family:'Microgramma D Extended';-inkscape-font-specification:'Microgramma D Extended, Normal';font-variant-ligatures:normal;font-variant-caps:normal;font-variant-numeric:normal;font-variant-east-asian:normal;fill:#656565;fill-opacity:1;stroke-width:0.36352"
         id="path905" />
      <path
         d="m 83.793674,161.62123 v 5.27349 h 9.213089 v 15.41718 h 6.607367 v -15.41718 h 9.21309 v -5.27349 z"
         style="font-style:normal;font-variant:normal;font-weight:normal;font-stretch:normal;font-size:31.0205px;font-family:'Microgramma D Extended';-inkscape-font-specification:'Microgramma D Extended, Normal';font-variant-ligatures:normal;font-variant-caps:normal;font-variant-numeric:normal;font-variant-east-asian:normal;fill:#656565;fill-opacity:1;stroke-width:0.36352"
         id="path907" />
    </g>
    <path
       style="fill:#ffffff;fill-opacity:1;stroke-width:0.714286"
       d="M 57.142857,43.928571 V 16.071429 h 27.349929 c 33.986894,0 37.049964,0.55885 40.726934,7.430539 1.40525,2.62619 1.56599,3.989756 1.56599,13.283746 0,9.72455 -0.10906,10.551114 -1.78571,13.532938 -1.28453,2.284474 -2.78199,3.687778 -5.33547,5 -3.53289,1.815536 -3.64916,1.825284 -24.464289,2.051161 l -20.914527,0.226956 v 7.094472 7.094473 h -8.571428 -8.571429 z m 47.736023,0.05429 c 1.70124,-0.328775 3.4691,-0.973705 3.92857,-1.433178 0.47925,-0.479246 0.83541,-2.97635 0.83541,-5.857265 0,-7.265392 0.58369,-7.049564 -19.065096,-7.049564 h -16.29205 v 7.5 7.5 l 13.75,-0.03111 c 7.5625,-0.01711 15.141926,-0.300106 16.843166,-0.628881 z"
       id="path8870"
       transform="matrix(0.26458333,0,0,0.26458333,33.286342,160.47944)" />
    <path
       style="fill:#ffffff;fill-opacity:1;stroke-width:0.714286"
       d="M 134.28571,43.928571 V 16.071429 h 32.5 32.5 v 6.071428 6.071429 H 175.35714 151.42857 V 32.857143 37.5 h 22.5 22.5 v 5.714286 5.714285 h -22.5 -22.5 v 5 5 h 23.92857 23.92857 v 6.428572 6.428571 h -32.5 -32.5 z"
       id="path8909"
       transform="matrix(0.26458333,0,0,0.26458333,33.286342,160.47944)" />
    <path
       style="fill:#ffffff;fill-opacity:1;stroke-width:0.714286"
       d="M 227.85714,50.714286 V 29.642857 h -13.21428 -13.21429 v -6.785714 -6.785714 h 35.71429 35.71428 v 6.785714 6.785714 h -13.21428 -13.21429 v 21.071429 21.071428 h -9.28571 -9.28572 z"
       id="path8948"
       transform="matrix(0.26458333,0,0,0.26458333,33.286342,160.47944)" />
    <path
       style="fill:#ffffff;fill-opacity:1;stroke-width:0.358423"
       d="m 56.646434,97.043011 c 0.03323,-5.149579 0.935794,-6.9157 3.874737,-7.581974 0.915865,-0.207632 4.003919,-0.559641 6.862342,-0.782242 2.858422,-0.222601 5.47939,-0.554327 5.824372,-0.737168 0.833105,-0.441549 0.879649,-3.001049 0.06029,-3.315466 -0.311823,-0.119657 -2.89753,-0.217559 -5.746016,-0.217559 -3.830692,0 -5.215003,0.116645 -5.317094,0.448029 -0.07591,0.246416 -0.235215,0.891577 -0.354002,1.433692 -0.210892,0.962457 -0.2759,0.985663 -2.761188,0.985663 h -2.545211 l 0.155201,-2.145629 c 0.305379,-4.221825 1.879469,-4.789522 12.774626,-4.607174 l 7.288113,0.121978 1.045221,1.17053 c 0.981583,1.099263 1.04522,1.356754 1.04522,4.229268 0,5.412332 -0.782601,5.964424 -9.332588,6.583751 -3.04808,0.220791 -5.91185,0.482545 -6.363932,0.581675 -0.787148,0.172601 -1.596586,1.477925 -1.265333,2.040511 0.08705,0.14785 4.019729,0.268817 8.739278,0.268817 h 8.580998 v 1.971326 1.971327 H 67.921147 56.630824 Z"
       id="path8987"
       transform="matrix(0.26458333,0,0,0.26458333,33.286342,160.47944)" />
    <path
       style="fill:#ffffff;fill-opacity:1;stroke-width:0.358423"
       d="m 89.004453,99.485788 c -4.087805,-0.227071 -5.168316,-0.72613 -6.314042,-2.916284 -0.555945,-1.062736 -0.628679,-2.013532 -0.537635,-7.028066 0.09488,-5.22581 0.179337,-5.899002 0.854369,-6.810036 1.459749,-1.970101 2.080042,-2.086241 11.142469,-2.086241 7.837766,0 8.364506,0.04196 9.318996,0.742325 1.95234,1.432538 2.26499,2.633366 2.2656,8.701715 6.8e-4,6.548686 -0.34334,7.668102 -2.6618,8.661708 -1.68676,0.722882 -8.178805,1.062012 -14.067957,0.734879 z m 10.24764,-5.02472 c 0.905567,-0.484645 1.227837,-2.165207 1.042887,-5.438381 -0.20929,-3.703969 -0.526091,-3.897239 -6.38817,-3.897239 -5.597016,0 -6.020645,0.219184 -6.335745,3.278094 -0.219747,2.133252 0.05214,4.805776 0.574105,5.643228 0.170847,0.274111 0.93227,0.629571 1.69205,0.789911 1.811532,0.382297 8.497085,0.115572 9.414873,-0.375613 z"
       id="path9026"
       transform="matrix(0.26458333,0,0,0.26458333,33.286342,160.47944)" />
    <path
       style="fill:#ffffff;fill-opacity:1;stroke-width:0.358423"
       d="m 115.23297,99.473799 c -6.42987,-0.38502 -6.98989,-1.151474 -6.9879,-9.563809 0.001,-4.998283 0.0852,-5.818177 0.69973,-6.825999 1.44205,-2.365022 1.77288,-2.43883 10.93159,-2.43883 9.01162,0 9.63701,0.117651 11.09496,2.087215 0.69217,0.935068 0.74908,1.484477 0.74908,7.231782 0,6.975849 -0.20174,7.633026 -2.7113,8.83204 -1.44018,0.688088 -8.11675,1.016485 -13.77616,0.677601 z m 9.94934,-4.865457 c 0.8734,-0.336661 1.16404,-1.636493 1.14815,-5.134916 -0.0192,-4.234778 -0.18721,-4.347978 -6.45168,-4.347978 h -4.77299 l -0.77444,0.984545 c -0.69098,0.878433 -0.76138,1.340125 -0.65326,4.28375 0.0709,1.929221 0.29967,3.477433 0.551,3.728414 0.23639,0.236064 1.04284,0.558997 1.79211,0.71763 1.50803,0.319272 8.16894,0.150992 9.16111,-0.231445 z"
       id="path9065"
       transform="matrix(0.26458333,0,0,0.26458333,33.286342,160.47944)" />
    <path
       style="fill:#ffffff;fill-opacity:1;stroke-width:0.358423"
       d="m 145.51971,92.293907 v -7.168459 l -0.80645,0.0036 c -0.46882,0.0021 -1.99154,1.003338 -3.63711,2.391548 l -2.83066,2.38796 -1.37011,-1.585096 c -0.75357,-0.871803 -1.37493,-1.682447 -1.38081,-1.801432 -0.006,-0.118983 1.51352,-1.530274 3.37645,-3.1362 l 3.38715,-2.919866 h 4.31894 4.31895 v 9.498208 9.498208 h -2.68817 -2.68818 z"
       id="path9104"
       transform="matrix(0.26458333,0,0,0.26458333,33.286342,160.47944)" />
    <path
       style="fill:#ffffff;fill-opacity:1;stroke-width:0.358423"
       d="m 171.08098,99.495767 c -3.49569,-0.439091 -4.49334,-1.340684 -4.89543,-4.424082 l -0.22202,-1.702509 h 2.68132 c 2.08486,0 2.68131,0.113901 2.68131,0.512032 0,0.281619 0.25346,0.765489 0.56324,1.075269 0.45969,0.459688 1.50861,0.563236 5.70545,0.563236 2.82822,0 5.39735,-0.0979 5.70917,-0.217559 0.64318,-0.246811 0.79778,-2.464858 0.19765,-2.835757 -0.20311,-0.125531 -3.42907,-0.37292 -7.16879,-0.549754 -7.61414,-0.360036 -8.66949,-0.657459 -9.51524,-2.681625 -0.70116,-1.678125 -0.64334,-4.735266 0.1184,-6.260108 1.16726,-2.336593 2.11066,-2.54823 10.84174,-2.432178 6.47991,0.08613 7.88526,0.200501 8.83211,0.718779 1.18321,0.64766 1.92058,2.151667 1.92058,3.917422 v 1.021784 h -2.60318 c -2.35582,0 -2.6368,-0.07663 -2.95699,-0.806452 -0.33916,-0.773046 -0.55963,-0.810593 -5.3225,-0.906435 -3.35825,-0.06758 -5.12987,0.03378 -5.46595,0.312705 -0.61914,0.513837 -0.64958,1.976137 -0.0492,2.364692 0.24641,0.159483 3.54307,0.466613 7.32589,0.68251 7.67404,0.437979 8.3644,0.655644 9.31797,2.937873 0.75669,1.810997 0.50094,5.473581 -0.4742,6.791175 -1.27317,1.720281 -2.20653,1.938989 -8.84707,2.073067 -3.38675,0.06838 -7.15515,-9.68e-4 -8.37423,-0.154085 z"
       id="path9143"
       transform="matrix(0.26458333,0,0,0.26458333,33.286342,160.47944)" />
    <path
       style="fill:#ffffff;fill-opacity:1;stroke-width:0.358423"
       d="m 195.22768,99.498187 c -3.22237,-0.680971 -4.3383,-2.715478 -4.10353,-7.481352 0.1611,-3.270556 0.74725,-4.4843 2.63568,-5.457695 1.62597,-0.838108 11.37771,-0.766089 12.95453,0.09567 1.58344,0.865375 2.24621,2.312491 2.24621,4.904449 v 2.168337 h -6.63082 c -7.01323,0 -6.87129,-0.03767 -6.40564,1.699756 0.42271,1.577196 6.39252,2.101525 7.94373,0.697699 0.764,-0.691409 5.09273,-0.886155 5.09273,-0.229119 0,1.020281 -1.24316,2.59789 -2.44179,3.098711 -1.50971,0.630796 -9.08939,0.968822 -11.2911,0.503541 z m 9.0734,-9.162996 c 0,-1.258881 -0.96479,-1.625514 -4.27752,-1.625514 -2.41305,0 -3.00944,0.118501 -3.60779,0.716846 -0.39426,0.394266 -0.71685,0.958782 -0.71685,1.254481 0,0.448028 0.71685,0.537634 4.30108,0.537634 h 4.30108 z"
       id="path9182"
       transform="matrix(0.26458333,0,0,0.26458333,33.286342,160.47944)" />
    <path
       style="fill:#ffffff;fill-opacity:1;stroke-width:0.358423"
       d="m 211.46953,92.831541 v -6.630824 h 2.15054 2.15054 v 1.075269 c 0,1.257153 0.35737,1.374771 1.00861,0.331959 1.42039,-2.274395 7.70898,-2.387858 9.16522,-0.165365 0.29904,0.456392 0.65304,1.654001 0.78667,2.661354 l 0.24296,1.83155 h -2.37592 c -2.24028,0 -2.37593,-0.04707 -2.37593,-0.824373 0,-1.243643 -0.67975,-1.684588 -2.59694,-1.684588 -1.36602,0 -1.9245,0.187781 -2.61648,0.879766 -0.83247,0.832471 -0.87977,1.102221 -0.87977,5.017921 v 4.138156 h -2.32975 -2.32975 z"
       id="path9221"
       transform="matrix(0.26458333,0,0,0.26458333,33.286342,160.47944)" />
    <path
       style="fill:#ffffff;fill-opacity:1;stroke-width:0.358423"
       d="m 228.67384,92.831541 v -6.630824 h 2.32974 2.32975 v 6.630824 6.630825 h -2.32975 -2.32974 z"
       id="path9260"
       transform="matrix(0.26458333,0,0,0.26458333,33.286342,160.47944)" />
    <path
       style="fill:#ffffff;fill-opacity:1;stroke-width:0.358423"
       d="M 228.67384,82.258065 V 80.46595 h 2.32974 2.32975 v 1.792115 1.792114 h -2.32975 -2.32974 z"
       id="path9299"
       transform="matrix(0.26458333,0,0,0.26458333,33.286342,160.47944)" />
    <path
       style="fill:#ffffff;fill-opacity:1;stroke-width:0.358423"
       d="m 239.67393,99.452106 c -3.28832,-0.832878 -3.9564,-1.986126 -3.96546,-6.845269 -0.007,-3.877723 0.38624,-4.8626 2.37734,-5.950633 1.71485,-0.937076 11.8408,-0.938958 13.26946,-0.0025 1.49614,0.980725 2.04863,2.113561 2.28967,4.694746 l 0.22216,2.379116 h -6.68265 -6.68266 v 1.031381 c 0,1.649269 0.79629,2.015214 4.38506,2.015214 2.63358,0 3.28075,-0.110964 3.65826,-0.627241 0.35059,-0.479463 0.97711,-0.62724 2.65928,-0.62724 1.86985,0 2.20063,0.09576 2.20063,0.637095 0,1.027787 -1.07105,2.265105 -2.46483,2.847463 -1.56432,0.653612 -9.24795,0.959038 -11.26626,0.447835 z m 9.07159,-9.116915 c 0,-1.237306 -0.95971,-1.625514 -4.01855,-1.625514 -2.86336,0 -4.22518,0.584167 -4.22518,1.812439 0,0.649369 0.27904,0.696522 4.12187,0.696522 h 4.12186 z"
       id="path9338"
       transform="matrix(0.26458333,0,0,0.26458333,33.286342,160.47944)" />
    <path
       style="fill:#ffffff;fill-opacity:1;stroke-width:0.358423"
       d="m 258.8879,99.429834 c -1.6297,-0.390968 -3.33234,-2.036608 -3.33234,-3.220775 0,-0.605711 0.26836,-0.689346 2.21192,-0.689346 1.6037,0 2.40243,0.172474 2.90475,0.62724 0.51117,0.462773 1.45839,0.658448 3.61246,0.746258 3.52058,0.143515 4.99111,-0.302468 4.82618,-1.463681 -0.11036,-0.777058 -0.29128,-0.814692 -5.05965,-1.052467 -2.71986,-0.135625 -5.50492,-0.431318 -6.18903,-0.657093 -2.89911,-0.956793 -3.1347,-5.626668 -0.35635,-7.063412 1.28084,-0.662348 8.25,-1.055444 11.50399,-0.648884 2.28761,0.285817 4.10845,1.629964 4.10845,3.032855 0,0.675791 -0.21073,0.744417 -2.28586,0.744417 -1.59462,0 -2.42079,-0.16258 -2.73206,-0.537634 -0.33396,-0.40239 -1.22939,-0.537635 -3.55961,-0.537635 -3.2609,0 -4.62823,0.486735 -4.23633,1.508023 0.26106,0.680318 2.55036,1.000938 7.14692,1.000938 5.0517,0 6.38379,0.814264 6.38379,3.902224 0,3.635581 -1.42611,4.408643 -8.41364,4.560848 -2.76497,0.06023 -5.70509,-0.05312 -6.53359,-0.251876 z"
       id="path9377"
       transform="matrix(0.26458333,0,0,0.26458333,33.286342,160.47944)" />
  </g>
</svg>
