<?xml version="1.0" encoding="UTF-8"?>
<svg xmlns="http://www.w3.org/2000/svg" xmlns:xlink="http://www.w3.org/1999/xlink" width="1501pt" height="312.44pt" viewBox="0 0 1501 312.44" version="1.1">
<defs>
<clipPath id="clip1">
  <path d="M 151 0 L 318 0 L 318 312.441406 L 151 312.441406 Z M 151 0 "/>
</clipPath>
</defs>
<g id="surface1">
<path style=" stroke:none;fill-rule:nonzero;fill:rgb(34.498596%,34.899902%,35.699463%);fill-opacity:1;" d="M 1468.128906 247.335938 L 1461 247.335938 L 1461 244.890625 L 1477.96875 244.890625 L 1477.96875 247.335938 L 1470.898438 247.335938 L 1470.898438 266.527344 L 1468.128906 266.527344 "/>
<path style=" stroke:none;fill-rule:nonzero;fill:rgb(34.498596%,34.899902%,35.699463%);fill-opacity:1;" d="M 1489.429688 266.527344 L 1483.558594 248.960938 L 1483.558594 266.527344 L 1480.730469 266.527344 L 1480.730469 244.890625 L 1484.660156 244.890625 L 1490.839844 263.28125 L 1497.089844 244.890625 L 1501 244.890625 L 1501 266.527344 L 1498.160156 266.527344 L 1498.160156 248.960938 L 1492.261719 266.527344 "/>
<path style=" stroke:none;fill-rule:nonzero;fill:rgb(34.498596%,34.899902%,35.699463%);fill-opacity:1;" d="M 1140.460938 73.96875 L 1014.539063 73.96875 C 978.023438 73.96875 960.152344 96.492188 960.152344 125.769531 L 960.152344 214.820313 C 960.152344 232.941406 951.550781 246.003906 933.402344 246.003906 L 815.050781 246.003906 C 814.320313 246.003906 813.710938 246.59375 813.710938 247.34375 L 813.710938 265.230469 C 813.710938 265.984375 814.335938 266.605469 815.0625 266.605469 L 947.078125 266.605469 C 983.601563 266.605469 1001.488281 244.132813 1001.488281 214.84375 L 1001.488281 125.742188 C 1001.488281 107.597656 1010.101563 94.539063 1028.238281 94.539063 L 1140.460938 94.539063 C 1141.199219 94.539063 1141.789063 93.925781 1141.789063 93.195313 L 1141.789063 75.320313 C 1141.789063 74.582031 1141.191406 73.96875 1140.460938 73.96875 "/>
<path style=" stroke:none;fill-rule:nonzero;fill:rgb(34.498596%,34.899902%,35.699463%);fill-opacity:1;" d="M 768.503906 74.015625 L 540.742188 74.003906 C 540 74.003906 539.386719 74.605469 539.386719 75.34375 L 539.386719 93.230469 C 539.386719 93.972656 540 94.585938 540.753906 94.585938 L 754.832031 94.585938 C 772.964844 94.585938 781.589844 107.644531 781.589844 125.789063 C 781.589844 143.910156 772.988281 156.960938 754.832031 156.960938 L 585.480469 156.960938 C 559.191406 156.960938 539.386719 179.050781 539.386719 208.359375 L 539.398438 265.242188 C 539.398438 266.007813 540 266.605469 540.753906 266.605469 L 579.359375 266.605469 C 580.113281 266.605469 580.726563 265.984375 580.726563 265.242188 L 580.726563 208.359375 C 580.726563 190.226563 591.175781 177.554688 606.179688 177.554688 L 768.503906 177.554688 C 805.027344 177.554688 822.914063 155.113281 822.914063 125.8125 C 822.914063 96.527344 805.027344 74.015625 768.503906 74.015625 "/>
<path style=" stroke:none;fill-rule:nonzero;fill:rgb(34.498596%,34.899902%,35.699463%);fill-opacity:1;" d="M 1357.921875 223.988281 C 1357.921875 224.753906 1357.28125 225.375 1356.570313 225.375 L 1175.839844 225.375 C 1174.378906 225.375 1173.609375 225.011719 1173.390625 224.445313 C 1173.191406 223.609375 1173.660156 223.011719 1174.71875 222.257813 L 1354.578125 111.527344 C 1355.820313 110.765625 1357.921875 110.894531 1357.921875 113.351563 Z M 1439.320313 225.433594 L 1399.320313 225.398438 L 1400.710938 225.398438 C 1399.929688 225.398438 1399.320313 224.773438 1399.320313 224.058594 L 1399.320313 94.480469 C 1399.320313 74.570313 1385.550781 68.050781 1366.199219 79.992188 L 1134.078125 222.539063 C 1124.960938 228.152344 1121.890625 234.484375 1124.089844 239.144531 C 1126.011719 243.191406 1131.011719 245.980469 1141.058594 245.980469 L 1356.648438 246.003906 C 1357.238281 246.050781 1357.71875 246.472656 1357.871094 247.027344 L 1357.871094 265.207031 C 1357.871094 265.960938 1358.488281 266.605469 1359.210938 266.605469 L 1397.96875 266.605469 C 1398.699219 266.605469 1399.339844 265.960938 1399.339844 265.207031 L 1399.339844 247.390625 C 1399.339844 246.640625 1399.960938 246.003906 1400.691406 246.003906 L 1439.320313 246.003906 C 1440.078125 246.003906 1440.710938 245.378906 1440.710938 244.636719 L 1440.710938 226.765625 C 1440.710938 226.058594 1440.078125 225.433594 1439.320313 225.433594 "/>
<g clip-path="url(#clip1)" clip-rule="nonzero">
<path style=" stroke:none;fill-rule:nonzero;fill:rgb(34.498596%,34.899902%,35.699463%);fill-opacity:1;" d="M 151.402344 0 L 151.402344 291.492188 L 217.367188 312.4375 L 217.367188 67.933594 C 217.367188 56.507813 222.476563 48.824219 230.714844 51.503906 C 241.480469 54.480469 243.574219 65.027344 243.574219 76.476563 L 243.574219 174.117188 C 284.710938 193.96875 317.058594 174.105469 317.058594 121.707031 C 317.058594 67.933594 298.125 44.082031 242.28125 24.863281 C 220.300781 17.5 179.46875 5.179688 151.402344 0 "/>
</g>
<path style=" stroke:none;fill-rule:nonzero;fill:rgb(34.498596%,34.899902%,35.699463%);fill-opacity:1;" d="M 229.867188 269.859375 L 335.96875 232.027344 C 347.996094 227.722656 349.855469 221.601563 340.074219 218.414063 C 330.308594 215.222656 312.609375 216.152344 300.585938 220.449219 L 229.867188 245.371094 L 229.867188 205.738281 L 233.9375 204.375 C 233.9375 204.375 254.375 197.125 283.074219 193.9375 C 311.8125 190.820313 346.996094 194.351563 374.589844 204.847656 C 405.722656 214.695313 409.21875 229.15625 401.324219 239.121094 C 393.390625 249.113281 374.035156 256.242188 374.035156 256.242188 L 229.867188 308.019531 "/>
<path style=" stroke:none;fill-rule:nonzero;fill:rgb(34.498596%,34.899902%,35.699463%);fill-opacity:1;" d="M 30.402344 265.820313 C -1.535156 256.820313 -6.863281 238.121094 7.679688 227.320313 C 21.175781 217.328125 44.050781 209.847656 44.050781 209.847656 L 138.613281 176.253906 L 138.613281 214.542969 L 70.5625 238.910156 C 58.527344 243.21875 56.714844 249.335938 66.445313 252.503906 C 76.246094 255.726563 93.921875 254.808594 105.96875 250.476563 L 138.613281 238.652344 L 138.613281 272.941406 C 136.527344 273.292969 134.234375 273.660156 132.117188 274 C 99.453125 279.332031 64.667969 277.117188 30.402344 265.820313 "/>
<path style=" stroke:none;fill-rule:nonzero;fill:rgb(34.498596%,34.899902%,35.699463%);fill-opacity:1;" d="M 380.332031 311.914063 C 384.449219 311.914063 388.355469 310.300781 391.265625 307.371094 C 394.15625 304.464844 395.746094 300.59375 395.746094 296.464844 C 395.746094 292.367188 394.15625 288.507813 391.265625 285.566406 C 388.355469 282.613281 384.449219 280.988281 380.332031 280.988281 C 371.800781 280.988281 364.894531 287.96875 364.894531 296.464844 C 364.894531 300.59375 366.507813 304.464844 369.410156 307.371094 C 372.332031 310.300781 376.179688 311.914063 380.332031 311.914063 M 367.492188 296.464844 C 367.492188 293.039063 368.8125 289.816406 371.246094 287.390625 C 373.648438 284.921875 376.882813 283.625 380.332031 283.625 C 383.769531 283.625 386.980469 284.921875 389.394531 287.390625 C 391.851563 289.816406 393.144531 293.039063 393.144531 296.464844 C 393.144531 303.570313 387.378906 309.300781 380.332031 309.300781 C 376.882813 309.300781 373.648438 307.984375 371.246094 305.535156 C 368.8125 303.136719 367.492188 299.898438 367.492188 296.464844 "/>
<path style=" stroke:none;fill-rule:nonzero;fill:rgb(34.498596%,34.899902%,35.699463%);fill-opacity:1;" d="M 387.921875 303.652344 C 387.710938 303.570313 387.519531 303.3125 387.390625 302.898438 C 387.378906 302.617188 387.308594 302.195313 387.285156 301.570313 L 387.179688 299.382813 C 387.144531 298.324219 386.96875 297.59375 386.578125 297.097656 C 386.308594 296.78125 385.957031 296.464844 385.566406 296.238281 C 386.097656 295.898438 386.519531 295.5 386.839844 294.992188 C 387.308594 294.300781 387.519531 293.429688 387.519531 292.367188 C 387.519531 290.308594 386.675781 288.910156 384.992188 288.15625 C 384.121094 287.730469 383.027344 287.578125 381.742188 287.578125 L 373.742188 287.578125 L 373.742188 304.761719 L 376.730469 304.761719 L 376.730469 297.6875 L 381.414063 297.6875 C 382.25 297.6875 382.910156 297.828125 383.273438 297.980469 C 383.863281 298.273438 384.203125 298.863281 384.226563 299.828125 L 384.378906 302.558594 C 384.414063 303.183594 384.449219 303.652344 384.484375 303.898438 C 384.519531 304.171875 384.605469 304.371094 384.699219 304.546875 L 384.816406 304.761719 L 388.144531 304.761719 L 388.144531 303.757813 L 387.921875 303.652344 M 384.507813 292.59375 C 384.507813 293.546875 384.261719 294.179688 383.757813 294.570313 C 383.226563 294.910156 382.460938 295.085938 381.496094 295.085938 L 376.730469 295.085938 L 376.730469 290.226563 L 381.789063 290.226563 C 382.472656 290.226563 383.027344 290.308594 383.460938 290.53125 C 384.15625 290.898438 384.507813 291.546875 384.507813 292.59375 "/>
</g>
</svg>
