<?xml version="1.0" encoding="UTF-8" standalone="no"?>
<svg
   version="1.0"
   width="1000px"
   height="501px"
   viewBox="0 0 10000 5010"
   preserveAspectRatio="xMidYMid meet"
   id="svg20246"
   sodipodi:docname="psikyo.svg"
   inkscape:version="1.1 (c68e22c387, 2021-05-23)"
   xmlns:inkscape="http://www.inkscape.org/namespaces/inkscape"
   xmlns:sodipodi="http://sodipodi.sourceforge.net/DTD/sodipodi-0.dtd"
   xmlns="http://www.w3.org/2000/svg"
   xmlns:svg="http://www.w3.org/2000/svg">
  <defs
     id="defs20250" />
  <sodipodi:namedview
     id="namedview20248"
     pagecolor="#ffffff"
     bordercolor="#666666"
     borderopacity="1.0"
     inkscape:pageshadow="2"
     inkscape:pageopacity="0.0"
     inkscape:pagecheckerboard="0"
     showgrid="false"
     inkscape:zoom="1.058"
     inkscape:cx="499.52741"
     inkscape:cy="250.94518"
     inkscape:window-width="1920"
     inkscape:window-height="1027"
     inkscape:window-x="-8"
     inkscape:window-y="712"
     inkscape:window-maximized="1"
     inkscape:current-layer="svg20246" />
  <g
     id="layer101"
     fill="#000000"
     stroke="none">
    <path
       d="M1940 4880 l0 -130 695 0 695 0 0 -40 0 -40 -603 0 -604 0 -55 -58 c-162 -170 -162 -366 1 -533 l57 -59 767 0 767 0 0 130 0 130 -640 0 -640 0 0 40 0 40 606 0 606 0 57 58 c31 32 69 85 86 117 26 53 30 71 30 145 0 76 -4 93 -32 150 -19 38 -56 89 -89 123 l-58 57 -823 0 -823 0 0 -130z"
       id="path20208" />
    <path
       d="M3830 4685 l0 -325 230 0 230 0 0 325 0 325 -230 0 -230 0 0 -325z"
       id="path20210" />
    <path
       d="M4350 4515 l0 -495 228 2 227 3 2 493 2 492 -229 0 -230 0 0 -495z"
       id="path20212" />
    <path
       d="M5233 4767 c-227 -133 -413 -245 -413 -248 0 -4 188 -117 418 -253 l419 -246 281 0 c155 0 282 3 282 8 -1 4 -176 115 -391 246 -214 132 -386 243 -382 247 5 4 168 105 363 225 195 119 371 227 390 240 l35 24 -295 -1 -295 -1 -412 -241z"
       id="path20214" />
    <path
       d="M6250 4875 l0 -135 673 0 c545 0 677 -3 691 -13 24 -18 35 -115 15 -128 -8 -5 -303 -9 -655 -9 l-641 0 -28 -22 c-50 -39 -55 -67 -55 -318 l0 -230 215 0 215 0 0 155 0 155 480 0 480 0 0 -155 0 -155 208 2 207 3 0 430 c0 414 -1 431 -21 470 -14 27 -34 47 -64 63 l-44 22 -838 0 -838 0 0 -135z"
       id="path20216" />
    <path
       d="M8253 5000 c-49 -11 -83 -38 -99 -77 -12 -29 -14 -99 -12 -411 3 -356 4 -379 23 -410 11 -19 38 -44 60 -55 40 -22 43 -22 803 -25 500 -2 783 1 820 8 69 12 101 34 127 86 19 37 20 59 20 404 0 345 -1 367 -20 405 -13 27 -33 47 -60 60 -39 19 -62 20 -835 22 -437 0 -810 -2 -827 -7z m1312 -314 c14 -21 16 -51 13 -181 -3 -141 -5 -158 -22 -171 -16 -12 -99 -14 -482 -14 -407 0 -464 2 -478 16 -23 23 -23 319 0 352 l15 22 469 0 470 0 15 -24z"
       id="path20218" />
  </g>
  <g
     id="layer102"
     fill="#ff2100"
     stroke="none">
    <path
       d="M0 4515 l0 -495 854 0 854 0 44 48 c173 193 171 466 -6 659 l-48 53 -619 0 -619 0 0 115 0 115 -230 0 -230 0 0 -495z m1471 -54 c39 -40 39 -82 0 -122 l-29 -29 -491 0 -491 0 0 90 0 90 491 0 491 0 29 -29z"
       id="path20221" />
    <path
       d="M3720 4311 c0 -5 27 -71 59 -148 l59 -138 226 -3 c124 -1 226 0 226 4 0 3 -28 71 -62 150 l-62 144 -223 0 c-127 0 -223 -4 -223 -9z"
       id="path20223" />
    <path
       d="M3690 3715 c0 -9 75 -94 168 -189 268 -276 404 -474 610 -886 184 -368 252 -547 238 -626 -23 -121 -288 -55 -486 121 -125 112 -153 101 -152 -59 2 -199 98 -427 276 -660 34 -43 89 -115 124 -160 123 -158 178 -277 154 -330 -27 -59 -158 -55 -288 9 -53 26 -89 54 -147 114 -85 90 -115 104 -155 74 -52 -39 -39 -144 43 -344 75 -182 284 -589 328 -637 24 -26 65 -29 106 -8 47 25 141 134 141 164 0 20 -35 70 -134 190 -173 209 -246 306 -270 360 -27 59 -12 69 44 31 96 -64 139 -81 236 -89 134 -12 198 6 261 72 37 39 53 76 53 124 0 46 -6 56 -117 201 -125 163 -313 445 -354 530 -18 37 -35 90 -37 117 l-5 49 29 -6 c16 -3 63 -13 104 -22 103 -23 245 -17 318 15 124 54 182 199 148 371 -30 158 -88 268 -368 704 -252 391 -481 623 -730 740 -94 43 -138 53 -138 30z"
       id="path20225" />
    <path
       d="M6434 3538 c-4 -6 -8 -68 -9 -137 -1 -103 -5 -138 -24 -191 -30 -86 -82 -163 -132 -197 -51 -34 -46 -39 86 -93 108 -44 145 -71 145 -106 0 -12 -9 -60 -20 -107 -47 -196 -45 -363 4 -559 12 -49 20 -91 16 -93 -11 -7 -115 -8 -135 -2 -28 9 -44 39 -55 100 -12 63 -38 101 -72 105 -38 5 -89 -61 -164 -213 -89 -181 -117 -291 -112 -445 6 -158 28 -193 85 -132 40 42 170 317 193 406 26 102 33 110 73 90 17 -9 88 -27 159 -40 148 -28 172 -38 246 -108 50 -47 237 -275 272 -332 19 -30 9 -47 -55 -94 -82 -58 -147 -47 -374 61 -137 66 -189 78 -255 59 -78 -22 -100 -70 -32 -70 60 0 131 -29 246 -101 161 -100 204 -119 305 -129 139 -14 242 12 354 90 81 57 141 138 141 190 0 40 -39 98 -140 206 -77 83 -110 129 -141 191 -71 146 -124 173 -329 173 l-108 0 -4 53 c-5 72 5 176 35 347 40 226 50 346 51 605 1 328 -3 339 -152 436 -80 53 -87 55 -98 37z"
       id="path20227" />
    <path
       d="M3202 3348 c-55 -69 -120 -285 -101 -335 11 -30 30 -29 69 4 42 35 53 19 46 -67 -3 -36 -9 -137 -12 -225 -4 -88 -10 -166 -13 -173 -5 -9 -48 26 -137 109 -354 335 -402 372 -429 336 -19 -26 -25 -123 -15 -220 l9 -88 275 -423 c212 -325 276 -431 276 -455 0 -18 -5 -31 -12 -31 -7 0 -156 124 -332 275 -217 187 -330 278 -355 286 -48 14 -276 8 -292 -8 -9 -9 -8 -18 4 -37 31 -46 388 -335 785 -633 147 -111 193 -152 197 -172 20 -100 62 -154 104 -132 11 7 27 24 35 39 11 22 25 30 69 39 77 16 167 62 167 84 0 10 -28 54 -62 99 -35 45 -84 111 -110 147 l-48 66 0 229 c0 125 3 228 6 228 3 0 62 -38 130 -85 69 -47 130 -85 135 -85 26 0 -2 32 -169 194 l-102 99 0 411 c0 428 -4 471 -43 514 -23 24 -59 29 -75 10z m-127 -893 c50 -30 95 -58 102 -62 9 -6 10 -49 5 -168 l-7 -160 -54 90 c-80 133 -171 312 -171 335 0 32 28 24 125 -35z"
       id="path20229" />
    <path
       d="M5567 3178 c-19 -7 -48 -40 -88 -100 -114 -170 -133 -241 -82 -314 15 -21 41 -60 59 -87 20 -29 35 -66 39 -95 9 -63 24 -112 36 -112 5 0 30 29 55 64 60 83 91 100 172 94 55 -4 70 -10 145 -61 82 -57 107 -67 107 -46 0 6 -43 78 -95 160 -106 165 -204 347 -230 426 -24 75 -55 94 -118 71z"
       id="path20231" />
    <path
       d="M7600 3010 c-156 -59 -172 -62 -260 -58 -65 4 -103 12 -163 36 -78 32 -179 44 -192 23 -7 -13 39 -46 153 -111 74 -42 105 -54 155 -59 105 -11 112 -29 35 -93 -29 -24 -91 -82 -138 -129 -77 -78 -90 -87 -132 -93 -31 -5 -48 -12 -48 -21 0 -24 79 -39 205 -40 99 0 133 4 195 23 151 48 341 167 397 251 46 67 23 178 -50 249 -44 42 -86 48 -157 22z"
       id="path20233" />
    <path
       d="M2705 1500 c-33 -13 -82 -72 -105 -122 -44 -99 -33 -242 26 -361 56 -111 84 -117 84 -19 0 54 4 72 19 86 22 20 37 15 112 -36 66 -45 109 -64 204 -90 92 -25 110 -38 141 -101 40 -78 104 -169 117 -164 7 2 10 25 8 59 -1 31 2 59 8 62 6 4 24 0 42 -9 17 -9 33 -15 35 -13 2 2 -12 26 -31 52 -44 62 -52 88 -65 216 -14 131 -29 171 -62 163 -13 -3 -64 -48 -113 -99 -56 -58 -98 -94 -111 -94 -42 0 -68 44 -134 225 -41 114 -85 201 -115 231 -26 26 -30 27 -60 14z"
       id="path20235" />
    <path
       d="M5555 1329 c-100 -12 -231 -44 -262 -64 -30 -20 -29 -49 2 -63 14 -6 152 -64 307 -128 882 -364 1390 -524 1663 -524 183 0 332 69 495 230 89 86 83 115 -34 189 -28 17 -61 31 -75 31 -13 0 -64 -18 -113 -41 -122 -56 -172 -53 -350 19 -188 76 -199 70 -83 -44 67 -66 74 -77 64 -95 -41 -77 -297 -59 -584 41 -186 65 -404 186 -630 351 -45 32 -102 68 -129 79 -57 26 -157 33 -271 19z"
       id="path20237" />
    <path
       d="M3450 1201 c0 -21 123 -274 166 -342 l27 -43 -72 -68 c-39 -37 -71 -70 -71 -73 0 -14 83 -1 164 26 131 44 206 95 206 142 0 8 -60 65 -132 128 -73 63 -165 144 -204 181 -39 38 -74 68 -78 68 -3 0 -6 -8 -6 -19z"
       id="path20239" />
    <path
       d="M2642 736 c3 -14 147 -181 451 -526 200 -226 204 -228 328 -114 45 42 109 99 142 127 114 100 105 113 -77 109 -99 -3 -141 0 -167 11 -19 8 -124 72 -234 142 -424 272 -452 287 -443 251z"
       id="path20241" />
    <path
       d="M6589 543 c-14 -16 -46 -57 -71 -93 -91 -130 -200 -230 -250 -230 -10 0 -27 -9 -38 -20 -16 -16 -18 -25 -11 -39 36 -66 321 -116 413 -73 49 22 246 214 263 255 28 66 2 103 -125 181 -92 57 -142 62 -181 19z"
       id="path20243" />
  </g>
  <path
     style="fill:#ffffff;stroke-width:0.94518"
     d="m 194.2344,488.18526 v -12.75993 h 69.4707 69.4707 v -4.25331 -4.25331 l -60.2552,-0.0317 -60.25519,-0.0317 -5.55987,-6.34826 c -3.05792,-3.49154 -6.8859,-9.11291 -8.50661,-12.49193 -2.54334,-5.30258 -2.94676,-7.18157 -2.94676,-13.72498 0,-6.64031 0.3777,-8.3414 3.04296,-13.7051 1.67363,-3.36809 5.42925,-8.78211 8.34582,-12.03116 l 5.30287,-5.90738 h 76.48404 76.48405 v 12.28734 12.28733 h -63.79962 -63.79962 v 4.7259 4.7259 h 60.88858 60.88858 l 5.29523,5.90737 c 2.91237,3.24906 6.56166,8.42096 8.10952,11.49312 2.47904,4.92033 2.8143,6.56602 2.8143,13.81441 0,7.51219 -0.28575,8.79522 -3.28187,14.73561 -1.80503,3.57883 -5.66698,9.16527 -8.58211,12.41433 l -5.30025,5.90737 H 276.38953 194.2344 Z"
     id="path20307"
     transform="scale(10)" />
  <path
     style="fill:#ffffff;stroke-width:0.94518"
     d="m 383.27032,468.80907 v -32.1361 h 22.68431 22.68431 v 32.1361 32.13611 h -22.68431 -22.68431 z"
     id="path20346"
     transform="scale(10)" />
  <path
     style="fill:#ffffff;stroke-width:0.94518"
     d="M 435.2552,451.79584 V 402.6465 h 22.06076 22.06076 l 0.62137,21.97543 c 0.34176,12.08648 0.62236,34.20368 0.62355,49.14934 l 0.002,27.17391 H 457.93951 435.2552 Z"
     id="path20385"
     transform="scale(10)" />
  <path
     style="fill:#ffffff;stroke-width:0.94518"
     d="m 580.81285,500.04097 -17.48582,-0.51356 -23.1569,-13.60563 c -38.19154,-22.4391 -56.71109,-33.5765 -56.70528,-34.10177 0.006,-0.52911 13.76974,-8.81428 56.02393,-33.7236 l 26.25627,-15.47837 27.56425,0.25053 27.56424,0.25052 -35.86316,22.36325 c -19.72475,12.29979 -37.05617,23.30166 -38.51428,24.44861 -2.4856,1.95517 -2.54454,2.15986 -0.94411,3.27877 0.93884,0.65637 18.08223,11.27965 38.0964,23.60729 20.01418,12.32763 36.79348,22.7996 37.28734,23.27102 0.93194,0.88962 -8.61233,0.87843 -40.12288,-0.0471 z"
     id="path20424"
     transform="scale(10)" />
  <path
     style="fill:#ffffff;stroke-width:0.94518"
     d="M 625.23629,487.71267 V 474.48015 H 685.11 c 32.93053,0 63.74103,-0.27451 68.46777,-0.61002 8.21365,-0.58303 8.64116,-0.7237 9.65771,-3.17786 0.585,-1.41231 0.92998,-4.43412 0.76663,-6.71512 l -0.29701,-4.14728 -9.92438,-0.59307 c -5.45841,-0.32618 -34.81059,-0.64518 -65.22705,-0.70888 l -55.30267,-0.11582 -2.64817,-2.45553 c -1.4565,-1.35054 -3.10884,-3.58353 -3.67187,-4.96219 -0.58784,-1.43941 -1.21599,-12.26553 -1.47534,-25.42727 l -0.45164,-22.92061 h 21.3827 21.3827 v 15.59547 15.59546 h 48.20415 48.20416 V 418.24197 402.6465 h 20.32136 20.32137 v 41.83044 c 0,24.37746 -0.38495,43.17265 -0.92261,45.04738 -1.13811,3.96836 -4.126,7.26253 -8.72783,9.62249 -3.36865,1.72754 -6.78433,1.79837 -86.72023,1.79837 h -83.21346 z"
     id="path20463"
     transform="scale(10)" />
  <path
     style="fill:#ffffff;stroke-width:0.94518"
     d="m 822.13262,498.18194 c -7.47991,-3.43152 -7.41129,-3.00149 -7.21716,-45.22784 0.11496,-25.00827 0.52554,-38.19683 1.25822,-40.41686 0.59816,-1.81244 2.57714,-4.43151 4.39775,-5.82015 2.8726,-2.19104 4.58049,-2.61996 12.91947,-3.24458 14.39179,-1.078 143.75619,-0.98106 150.43596,0.11273 5.99605,0.98182 9.05358,2.72764 12.23402,6.98547 1.88017,2.51708 1.95829,3.92896 2.21935,40.11173 0.3038,42.10761 0.22957,42.6557 -6.32878,46.73444 l -3.39361,2.11053 -81.28544,0.23431 c -78.41255,0.22604 -81.4252,0.1702 -85.23978,-1.57978 z m 134.70999,-28.94475 c 0.69041,-1.51529 1.0969,-8.17022 1.0969,-17.95841 0,-14.35964 -0.14677,-15.69776 -1.91582,-17.46681 -1.88034,-1.88035 -2.78897,-1.91098 -49.07119,-1.65407 -25.93544,0.14397 -47.50952,0.6162 -47.9424,1.04941 -1.34526,1.3463 -0.96209,33.87753 0.42769,36.31065 l 1.21473,2.12665 h 47.5466 47.5466 z"
     id="path20502"
     transform="scale(10)" />
</svg>
