<?xml version="1.0" encoding="UTF-8" standalone="no"?>
<svg
   version="1.0"
   width="1000"
   height="501"
   viewBox="0 0 10000 5010"
   id="svg42768"
   sodipodi:docname="psikyo-w.svg"
   inkscape:version="1.3 (0e150ed6c4, 2023-07-21)"
   xmlns:inkscape="http://www.inkscape.org/namespaces/inkscape"
   xmlns:sodipodi="http://sodipodi.sourceforge.net/DTD/sodipodi-0.dtd"
   xmlns="http://www.w3.org/2000/svg"
   xmlns:svg="http://www.w3.org/2000/svg">
  <defs
     id="defs42772" />
  <sodipodi:namedview
     id="namedview42770"
     pagecolor="#ffffff"
     bordercolor="#666666"
     borderopacity="1.0"
     inkscape:pageshadow="2"
     inkscape:pageopacity="0.0"
     inkscape:pagecheckerboard="0"
     showgrid="false"
     inkscape:zoom="1.282"
     inkscape:cx="500"
     inkscape:cy="250.39002"
     inkscape:window-width="3440"
     inkscape:window-height="1377"
     inkscape:window-x="-8"
     inkscape:window-y="760"
     inkscape:window-maximized="1"
     inkscape:current-layer="svg42768"
     inkscape:showpageshadow="0"
     inkscape:deskcolor="#d1d1d1" />
  <path
     d="M1940 4880v-130h1390v-80H2123l-55-58c-162-170-162-366 1-533l57-59h1534v260H2380v80h1212l57 58c31 32 69 85 86 117 26 53 30 71 30 145 0 76-4 93-32 150-19 38-56 89-89 123l-58 57H1940v-130zM3830 4685v-325h460v650h-460v-325zM4350 4515v-495l228 2 227 3 2 493 2 492h-459v-495zM5233 4767c-227-133-413-245-413-248 0-4 188-117 418-253l419-246h281c155 0 282 3 282 8-1 4-176 115-391 246-214 132-386 243-382 247 5 4 168 105 363 225 195 119 371 227 390 240l35 24-295-1-295-1-412-241zM6250 4875v-135h673c545 0 677-3 691-13 24-18 35-115 15-128-8-5-303-9-655-9h-641l-28-22c-50-39-55-67-55-318v-230h430v310h960v-310l208 2 207 3v430c0 414-1 431-21 470-14 27-34 47-64 63l-44 22H6250v-135zM8253 5000c-49-11-83-38-99-77-12-29-14-99-12-411 3-356 4-379 23-410 11-19 38-44 60-55 40-22 43-22 803-25 500-2 783 1 820 8 69 12 101 34 127 86 19 37 20 59 20 404s-1 367-20 405c-13 27-33 47-60 60-39 19-62 20-835 22-437 0-810-2-827-7zm1312-314c14-21 16-51 13-181-3-141-5-158-22-171-16-12-99-14-482-14-407 0-464 2-478 16-23 23-23 319 0 352l15 22h939l15-24z"
     id="path42762"
     style="fill:#4d4d4d" />
  <g
     fill="#ff2100"
     id="g42766">
    <path
       d="M0 4515v-495h1708l44 48c173 193 171 466-6 659l-48 53H460v230H0v-495zm1471-54c39-40 39-82 0-122l-29-29H460v180h982l29-29zM3720 4311c0-5 27-71 59-148l59-138 226-3c124-1 226 0 226 4 0 3-28 71-62 150l-62 144h-223c-127 0-223-4-223-9zM3690 3715c0-9 75-94 168-189 268-276 404-474 610-886 184-368 252-547 238-626-23-121-288-55-486 121-125 112-153 101-152-59 2-199 98-427 276-660 34-43 89-115 124-160 123-158 178-277 154-330-27-59-158-55-288 9-53 26-89 54-147 114-85 90-115 104-155 74-52-39-39-144 43-344 75-182 284-589 328-637 24-26 65-29 106-8 47 25 141 134 141 164 0 20-35 70-134 190-173 209-246 306-270 360-27 59-12 69 44 31 96-64 139-81 236-89 134-12 198 6 261 72 37 39 53 76 53 124 0 46-6 56-117 201-125 163-313 445-354 530-18 37-35 90-37 117l-5 49 29-6c16-3 63-13 104-22 103-23 245-17 318 15 124 54 182 199 148 371-30 158-88 268-368 704-252 391-481 623-730 740-94 43-138 53-138 30zM6434 3538c-4-6-8-68-9-137-1-103-5-138-24-191-30-86-82-163-132-197-51-34-46-39 86-93 108-44 145-71 145-106 0-12-9-60-20-107-47-196-45-363 4-559 12-49 20-91 16-93-11-7-115-8-135-2-28 9-44 39-55 100-12 63-38 101-72 105-38 5-89-61-164-213-89-181-117-291-112-445 6-158 28-193 85-132 40 42 170 317 193 406 26 102 33 110 73 90 17-9 88-27 159-40 148-28 172-38 246-108 50-47 237-275 272-332 19-30 9-47-55-94-82-58-147-47-374 61-137 66-189 78-255 59-78-22-100-70-32-70 60 0 131-29 246-101 161-100 204-119 305-129 139-14 242 12 354 90 81 57 141 138 141 190 0 40-39 98-140 206-77 83-110 129-141 191-71 146-124 173-329 173h-108l-4 53c-5 72 5 176 35 347 40 226 50 346 51 605 1 328-3 339-152 436-80 53-87 55-98 37zM3202 3348c-55-69-120-285-101-335 11-30 30-29 69 4 42 35 53 19 46-67-3-36-9-137-12-225-4-88-10-166-13-173-5-9-48 26-137 109-354 335-402 372-429 336-19-26-25-123-15-220l9-88 275-423c212-325 276-431 276-455 0-18-5-31-12-31s-156 124-332 275c-217 187-330 278-355 286-48 14-276 8-292-8-9-9-8-18 4-37 31-46 388-335 785-633 147-111 193-152 197-172 20-100 62-154 104-132 11 7 27 24 35 39 11 22 25 30 69 39 77 16 167 62 167 84 0 10-28 54-62 99-35 45-84 111-110 147l-48 66v229c0 125 3 228 6 228s62-38 130-85c69-47 130-85 135-85 26 0-2 32-169 194l-102 99v411c0 428-4 471-43 514-23 24-59 29-75 10zm-127-893c50-30 95-58 102-62 9-6 10-49 5-168l-7-160-54 90c-80 133-171 312-171 335 0 32 28 24 125-35zM5567 3178c-19-7-48-40-88-100-114-170-133-241-82-314 15-21 41-60 59-87 20-29 35-66 39-95 9-63 24-112 36-112 5 0 30 29 55 64 60 83 91 100 172 94 55-4 70-10 145-61 82-57 107-67 107-46 0 6-43 78-95 160-106 165-204 347-230 426-24 75-55 94-118 71zM7600 3010c-156-59-172-62-260-58-65 4-103 12-163 36-78 32-179 44-192 23-7-13 39-46 153-111 74-42 105-54 155-59 105-11 112-29 35-93-29-24-91-82-138-129-77-78-90-87-132-93-31-5-48-12-48-21 0-24 79-39 205-40 99 0 133 4 195 23 151 48 341 167 397 251 46 67 23 178-50 249-44 42-86 48-157 22zM2705 1500c-33-13-82-72-105-122-44-99-33-242 26-361 56-111 84-117 84-19 0 54 4 72 19 86 22 20 37 15 112-36 66-45 109-64 204-90 92-25 110-38 141-101 40-78 104-169 117-164 7 2 10 25 8 59-1 31 2 59 8 62 6 4 24 0 42-9 17-9 33-15 35-13s-12 26-31 52c-44 62-52 88-65 216-14 131-29 171-62 163-13-3-64-48-113-99-56-58-98-94-111-94-42 0-68 44-134 225-41 114-85 201-115 231-26 26-30 27-60 14zM5555 1329c-100-12-231-44-262-64-30-20-29-49 2-63 14-6 152-64 307-128 882-364 1390-524 1663-524 183 0 332 69 495 230 89 86 83 115-34 189-28 17-61 31-75 31-13 0-64-18-113-41-122-56-172-53-350 19-188 76-199 70-83-44 67-66 74-77 64-95-41-77-297-59-584 41-186 65-404 186-630 351-45 32-102 68-129 79-57 26-157 33-271 19zM3450 1201c0-21 123-274 166-342l27-43-72-68c-39-37-71-70-71-73 0-14 83-1 164 26 131 44 206 95 206 142 0 8-60 65-132 128-73 63-165 144-204 181-39 38-74 68-78 68-3 0-6-8-6-19zM2642 736c3-14 147-181 451-526 200-226 204-228 328-114 45 42 109 99 142 127 114 100 105 113-77 109-99-3-141 0-167 11-19 8-124 72-234 142-424 272-452 287-443 251zM6589 543c-14-16-46-57-71-93-91-130-200-230-250-230-10 0-27-9-38-20-16-16-18-25-11-39 36-66 321-116 413-73 49 22 246 214 263 255 28 66 2 103-125 181-92 57-142 62-181 19z"
       id="path42764" />
  </g>
  <path
     style="fill:#000000;fill-opacity:0;stroke-width:0.780031"
     d="m 194.22777,487.90952 v -12.4805 h 69.42278 69.42277 v -4.29017 -4.29018 l -60.25741,-0.006 -60.25741,-0.006 -5.46022,-6.20082 c -16.47892,-18.71407 -16.03128,-35.34768 1.44398,-53.6553 l 4.65354,-4.8752 h 76.31942 76.31941 v 12.87052 12.87051 h -63.96256 -63.96255 v 4.28542 4.28542 l 60.99628,0.19976 60.99627,0.19976 5.28813,6.11663 c 2.90847,3.36414 6.52489,8.58876 8.03648,11.61026 2.60838,5.21385 2.74836,5.90084 2.74836,13.48884 0,7.77686 -0.0857,8.16648 -3.13925,14.26724 -2.06761,4.13095 -5.02298,8.2891 -8.6574,12.1808 l -5.51814,5.90878 h -82.21624 -82.21624 z"
     id="path1"
     transform="scale(10)" />
  <path
     style="fill:#f9f9f9;fill-opacity:0;stroke-width:0.780031"
     d="m 194.22777,487.90952 v -12.4805 h 69.42278 69.42277 v -4.29017 -4.29018 l -60.25741,-0.006 -60.25741,-0.006 -5.46022,-6.20082 c -16.47892,-18.71407 -16.03128,-35.34768 1.44398,-53.6553 l 4.65354,-4.8752 h 76.31942 76.31941 v 12.87052 12.87051 h -63.96256 -63.96255 v 4.28542 4.28542 l 60.99628,0.19976 60.99627,0.19976 5.28813,6.11663 c 2.90847,3.36414 6.52489,8.58876 8.03648,11.61026 2.60838,5.21385 2.74836,5.90084 2.74836,13.48884 0,7.77686 -0.0857,8.16648 -3.13925,14.26724 -2.06761,4.13095 -5.02298,8.2891 -8.6574,12.1808 l -5.51814,5.90878 h -82.21624 -82.21624 z"
     id="path2"
     transform="scale(10)" />
  <path
     style="fill:#f9f9f9;fill-opacity:0;stroke-width:0.780031"
     d="m 194.22777,487.90952 v -12.4805 h 69.42278 69.42277 v -4.29017 -4.29018 l -60.25741,-0.006 -60.25741,-0.006 -5.46022,-6.20082 c -16.47892,-18.71407 -16.03128,-35.34768 1.44398,-53.6553 l 4.65354,-4.8752 h 76.31942 76.31941 v 12.87052 12.87051 h -63.96256 -63.96255 v 4.28542 4.28542 l 60.99628,0.19976 60.99627,0.19976 5.28813,6.11663 c 2.90847,3.36414 6.52489,8.58876 8.03648,11.61026 2.60838,5.21385 2.74836,5.90084 2.74836,13.48884 0,7.77686 -0.0857,8.16648 -3.13925,14.26724 -2.06761,4.13095 -5.02298,8.2891 -8.6574,12.1808 l -5.51814,5.90878 h -82.21624 -82.21624 z"
     id="path3"
     transform="scale(10)" />
  <path
     style="fill:#f9f9f9;fill-opacity:0;stroke-width:0.780031"
     d="m 194.22777,487.90952 v -12.4805 h 69.42278 69.42277 v -4.29017 -4.29018 l -60.25741,-0.006 -60.25741,-0.006 -5.46022,-6.20082 c -16.47892,-18.71407 -16.03128,-35.34768 1.44398,-53.6553 l 4.65354,-4.8752 h 76.31942 76.31941 v 12.87052 12.87051 h -63.96256 -63.96255 v 4.28542 4.28542 l 60.99628,0.19976 60.99627,0.19976 5.28813,6.11663 c 2.90847,3.36414 6.52489,8.58876 8.03648,11.61026 2.60838,5.21385 2.74836,5.90084 2.74836,13.48884 0,7.77686 -0.0857,8.16648 -3.13925,14.26724 -2.06761,4.13095 -5.02298,8.2891 -8.6574,12.1808 l -5.51814,5.90878 h -82.21624 -82.21624 z"
     id="path4"
     transform="scale(10)" />
  <path
     style="fill:#f9f9f9;fill-opacity:0;stroke-width:0.780031"
     d="m 194.22777,487.90952 v -12.4805 h 69.42278 69.42277 v -4.29017 -4.29018 l -60.25741,-0.006 -60.25741,-0.006 -5.46022,-6.20082 c -16.47892,-18.71407 -16.03128,-35.34768 1.44398,-53.6553 l 4.65354,-4.8752 h 76.31942 76.31941 v 12.87052 12.87051 h -63.96256 -63.96255 v 4.28542 4.28542 l 60.99628,0.19976 60.99627,0.19976 5.28813,6.11663 c 2.90847,3.36414 6.52489,8.58876 8.03648,11.61026 2.60838,5.21385 2.74836,5.90084 2.74836,13.48884 0,7.77686 -0.0857,8.16648 -3.13925,14.26724 -2.06761,4.13095 -5.02298,8.2891 -8.6574,12.1808 l -5.51814,5.90878 h -82.21624 -82.21624 z"
     id="path5"
     transform="scale(10)" />
  <path
     style="fill:#f9f9f9;fill-opacity:0;stroke-width:0.780031"
     d="m 194.22777,487.90952 v -12.4805 h 69.42278 69.42277 v -4.29017 -4.29018 l -60.25741,-0.006 -60.25741,-0.006 -5.46022,-6.20082 c -16.47892,-18.71407 -16.03128,-35.34768 1.44398,-53.6553 l 4.65354,-4.8752 h 76.31942 76.31941 v 12.87052 12.87051 h -63.96256 -63.96255 v 4.28542 4.28542 l 60.99628,0.19976 60.99627,0.19976 5.28813,6.11663 c 2.90847,3.36414 6.52489,8.58876 8.03648,11.61026 2.60838,5.21385 2.74836,5.90084 2.74836,13.48884 0,7.77686 -0.0857,8.16648 -3.13925,14.26724 -2.06761,4.13095 -5.02298,8.2891 -8.6574,12.1808 l -5.51814,5.90878 h -82.21624 -82.21624 z"
     id="path6"
     transform="scale(10)" />
  <path
     style="fill:#f9f9f9;fill-opacity:0;stroke-width:0.780031"
     d="m 382.99532,468.40874 v -31.98128 h 22.6209 22.62091 v 31.98128 31.98128 h -22.62091 -22.6209 z"
     id="path7"
     transform="scale(10)" />
  <path
     style="fill:#f9f9f9;fill-opacity:0;stroke-width:0.780031"
     d="m 435.25741,451.12671 v -49.2633 l 11.11544,0.5085 c 6.1135,0.27967 16.29291,0.50978 22.62091,0.51135 l 11.50546,0.003 v 48.75195 48.75195 h -22.6209 -22.62091 z"
     id="path8"
     transform="scale(10)" />
  <path
     style="fill:#f9f9f9;fill-opacity:0;stroke-width:0.780031"
     d="m 540.17161,486.08021 c -32.61617,-19.19592 -54.31237,-32.14211 -55.97719,-33.40177 -1.58425,-1.1987 -3.27293,-0.13147 49.94067,-31.5622 l 32.18501,-19.01016 20.4671,0.0774 c 11.2569,0.0426 23.45071,0.30584 27.09736,0.58503 l 6.63026,0.5076 -4.68019,3.05257 c -2.5741,1.67891 -14.85959,9.35085 -27.30109,17.04876 -26.61452,16.46715 -44.07176,27.81625 -44.07176,28.65143 0,0.32829 2.01833,1.81513 4.48518,3.3041 14.35341,8.66358 70.90798,43.70755 71.52886,44.32276 0.46335,0.45912 -9.91324,0.71959 -27.69111,0.69509 l -28.43214,-0.0392 z"
     id="path9"
     transform="scale(10)" />
  <path
     style="fill:#f9f9f9;fill-opacity:0;stroke-width:0.780031"
     d="m 369.73479,371.80669 c 0,-1.13898 2.77718,-4.31995 17.45626,-19.99436 28.44759,-30.37648 40.60823,-48.44529 62.48439,-92.84197 14.71874,-29.87105 20.39871,-44.21054 21.22265,-53.57812 0.44153,-5.01979 0.37136,-5.30364 -1.8635,-7.5385 -3.06621,-3.06621 -7.47208,-3.70929 -14.84434,-2.16667 -10.41185,2.17863 -21.64865,8.35712 -34.12189,18.76171 -10.13691,8.45575 -12.20658,7.92953 -12.73167,-3.2371 -0.75966,-16.15493 5.27588,-35.21388 17.29061,-54.6 2.4525,-3.95719 9.18731,-13.35087 14.96626,-20.87485 17.18519,-22.37454 22.37305,-30.96673 23.45252,-38.842353 1.15042,-8.393192 -7.96159,-11.128622 -22.27327,-6.68645 -9.41843,2.923361 -13.24809,5.440943 -24.25396,15.944333 -3.65645,3.4895 -7.47203,6.60605 -8.47908,6.92567 -2.53479,0.80452 -5.66863,-1.67037 -6.94468,-5.48443 -2.5851,-7.726767 5.58784,-30.010861 24.1556,-65.861931 15.25522,-29.45514 17.00992,-31.493367 24.2735,-28.195653 3.48187,1.580793 10.00059,7.872929 13.32881,12.865511 l 2.00029,3.00059 -1.46653,2.849644 c -0.8066,1.567304 -8.37036,11.449487 -16.80835,21.960407 -16.85309,20.993324 -20.6425,26.274716 -22.67985,31.609426 -1.97579,5.173539 -0.77709,5.921713 4.482,2.797447 12.59776,-7.483947 18.85791,-9.432576 30.33122,-9.441356 8.24565,-0.0063 12.98823,1.589178 17.9295,6.031805 6.48364,5.829356 8.60963,12.674005 5.70844,18.37839 -0.6983,1.373 -5.70025,8.46198 -11.11545,15.75329 -13.57751,18.28149 -29.85736,42.86505 -34.03534,51.39545 -3.08428,6.29733 -5.78932,16.39322 -4.68753,17.495 0.18453,0.18453 5.3533,-0.62974 11.48616,-1.80951 17.17111,-3.30318 30.18817,-2.09841 37.93124,3.51064 10.15377,7.35535 13.46435,21.42229 9.11053,38.71138 -3.31688,13.17135 -14.93364,34.24834 -38.21057,69.32779 -24.80254,37.37861 -45.20276,57.78001 -69.44342,69.44744 -8.80055,4.23585 -13.65055,5.79466 -13.65055,4.38733 z"
     id="path10"
     transform="scale(10)" />
  <path
     style="fill:#ff2100;fill-opacity:1;stroke-width:0.780031"
     d="m 369.73479,371.80669 c 0,-1.13898 2.77718,-4.31995 17.45626,-19.99436 28.44759,-30.37648 40.60823,-48.44529 62.48439,-92.84197 14.71874,-29.87105 20.39871,-44.21054 21.22265,-53.57812 0.44153,-5.01979 0.37136,-5.30364 -1.8635,-7.5385 -3.06621,-3.06621 -7.47208,-3.70929 -14.84434,-2.16667 -10.41185,2.17863 -21.64865,8.35712 -34.12189,18.76171 -10.13691,8.45575 -12.20658,7.92953 -12.73167,-3.2371 -0.75966,-16.15493 5.27588,-35.21388 17.29061,-54.6 2.4525,-3.95719 9.18731,-13.35087 14.96626,-20.87485 17.18519,-22.37454 22.37305,-30.96673 23.45252,-38.842353 1.15042,-8.393192 -7.96159,-11.128622 -22.27327,-6.68645 -9.41843,2.923361 -13.24809,5.440943 -24.25396,15.944333 -3.65645,3.4895 -7.47203,6.60605 -8.47908,6.92567 -2.53479,0.80452 -5.66863,-1.67037 -6.94468,-5.48443 -2.5851,-7.726767 5.58784,-30.010861 24.1556,-65.861931 15.25522,-29.45514 17.00992,-31.493367 24.2735,-28.195653 3.48187,1.580793 10.00059,7.872929 13.32881,12.865511 l 2.00029,3.00059 -1.46653,2.849644 c -0.8066,1.567304 -8.37036,11.449487 -16.80835,21.960407 -16.85309,20.993324 -20.6425,26.274716 -22.67985,31.609426 -1.97579,5.173539 -0.77709,5.921713 4.482,2.797447 12.59776,-7.483947 18.85791,-9.432576 30.33122,-9.441356 8.24565,-0.0063 12.98823,1.589178 17.9295,6.031805 6.48364,5.829356 8.60963,12.674005 5.70844,18.37839 -0.6983,1.373 -5.70025,8.46198 -11.11545,15.75329 -13.57751,18.28149 -29.85736,42.86505 -34.03534,51.39545 -3.08428,6.29733 -5.78932,16.39322 -4.68753,17.495 0.18453,0.18453 5.3533,-0.62974 11.48616,-1.80951 17.17111,-3.30318 30.18817,-2.09841 37.93124,3.51064 10.15377,7.35535 13.46435,21.42229 9.11053,38.71138 -3.31688,13.17135 -14.93364,34.24834 -38.21057,69.32779 -24.80254,37.37861 -45.20276,57.78001 -69.44342,69.44744 -8.80055,4.23585 -13.65055,5.79466 -13.65055,4.38733 z"
     id="path11"
     transform="scale(10)" />
  <path
     style="fill:#f9f9f9;fill-opacity:1;stroke-width:0.780031"
     d="m 194.22777,487.90952 v -12.4805 h 69.42278 69.42277 v -4.29017 -4.29018 l -60.25741,-0.006 -60.25741,-0.006 -5.46022,-6.20082 c -16.47892,-18.71407 -16.03128,-35.34768 1.44398,-53.6553 l 4.65354,-4.8752 h 76.31942 76.31941 v 12.87052 12.87051 h -63.96256 -63.96255 v 4.28542 4.28542 l 60.99628,0.19976 60.99627,0.19976 5.28813,6.11663 c 2.90847,3.36414 6.52489,8.58876 8.03648,11.61026 2.60838,5.21385 2.74836,5.90084 2.74836,13.48884 0,7.77686 -0.0857,8.16648 -3.13925,14.26724 -2.06761,4.13095 -5.02298,8.2891 -8.6574,12.1808 l -5.51814,5.90878 h -82.21624 -82.21624 z"
     id="path12"
     transform="scale(10)" />
  <path
     style="fill:#f9f9f9;fill-opacity:1;stroke-width:0.780031"
     d="m 382.99532,468.40874 v -31.98128 h 22.6209 22.62091 v 31.98128 31.98128 h -22.62091 -22.6209 z"
     id="path13"
     transform="scale(10)" />
  <path
     style="fill:#f9f9f9;fill-opacity:1;stroke-width:0.780031"
     d="m 435.25741,451.12671 v -49.2633 l 11.11544,0.5085 c 6.1135,0.27967 16.29291,0.50978 22.62091,0.51135 l 11.50546,0.003 v 48.75195 48.75195 h -22.6209 -22.62091 z"
     id="path14"
     transform="scale(10)" />
  <path
     style="fill:#f9f9f9;fill-opacity:1;stroke-width:0.780031"
     d="m 540.17161,486.08021 c -32.61617,-19.19592 -54.31237,-32.14211 -55.97719,-33.40177 -1.58425,-1.1987 -3.27293,-0.13147 49.94067,-31.5622 l 32.18501,-19.01016 20.4671,0.0774 c 11.2569,0.0426 23.45071,0.30584 27.09736,0.58503 l 6.63026,0.5076 -4.68019,3.05257 c -2.5741,1.67891 -14.85959,9.35085 -27.30109,17.04876 -26.61452,16.46715 -44.07176,27.81625 -44.07176,28.65143 0,0.32829 2.01833,1.81513 4.48518,3.3041 14.35341,8.66358 70.90798,43.70755 71.52886,44.32276 0.46335,0.45912 -9.91324,0.71959 -27.69111,0.69509 l -28.43214,-0.0392 z"
     id="path15"
     transform="scale(10)" />
  <path
     style="fill:#f9f9f9;fill-opacity:1;stroke-width:0.780031"
     d="m 625.58502,487.5195 v -12.87051 l 49.72699,-0.0778 c 27.34985,-0.0428 57.9168,-0.30607 67.92656,-0.58502 20.62378,-0.57475 19.86343,-0.31334 20.80405,-7.15244 0.57945,-4.21313 0.078,-6.65801 -1.48895,-7.2593 -0.57062,-0.21897 -30.03133,-0.65506 -65.46825,-0.9691 l -64.43075,-0.57099 -2.65039,-2.42765 c -3.91286,-3.58405 -4.41926,-7.26097 -4.41926,-32.0881 v -21.41247 h 21.06085 21.06084 v 15.60063 15.60062 h 48.36193 48.36194 v -15.721 -15.721 l 9.9454,0.50723 c 5.46996,0.27898 14.61032,0.50865 20.31191,0.51039 l 10.36651,0.003 -0.22611,43.09672 -0.22611,43.09672 -2.08669,3.5494 c -1.4331,2.43767 -3.29855,4.20897 -5.95579,5.65523 l -3.86911,2.10583 h -83.55278 -83.55279 z"
     id="path16"
     transform="scale(10)" />
  <path
     style="fill:#f9f9f9;fill-opacity:1;stroke-width:0.780031"
     d="m 830.34321,499.66814 c -8.23509,-0.52572 -11.86497,-2.29436 -14.15252,-6.89572 -1.35288,-2.7213 -1.44242,-5.32342 -1.36177,-39.57429 0.059,-25.0416 0.37146,-37.68962 0.98592,-39.90535 0.93182,-3.36013 4.70051,-7.35928 8.56979,-9.09386 2.8526,-1.27881 155.22626,-1.76976 161.24853,-0.51954 5.65122,1.17319 8.93886,3.56384 11.24672,8.17822 l 1.95007,3.89903 v 36.27145 36.27145 l -1.81041,3.67574 c -3.12363,6.34197 -5.19884,7.10117 -21.17742,7.74762 -15.99799,0.64722 -135.20545,0.60237 -145.49891,-0.0548 z m 126.44593,-30.63576 c 1.08118,-2.09078 1.27295,-4.89747 1.18002,-17.2705 -0.13277,-17.67585 -0.39043,-18.53171 -5.8549,-19.44783 -6.27514,-1.05204 -91.48503,-0.35491 -92.59677,0.75756 -2.67764,2.67938 -2.53872,32.41907 0.17171,36.75915 l 1.06048,1.6981 h 47.37424 47.37424 z"
     id="path17"
     transform="scale(10)" />
</svg>
