<?xml version="1.0" encoding="UTF-8" standalone="no"?>
<svg
   width="568.399"
   height="175.933"
   viewBox="0 0 744.094 230.315"
   version="1.1"
   id="svg10"
   sodipodi:docname="sammy-w.svg"
   inkscape:version="1.1 (c68e22c387, 2021-05-23)"
   xmlns:inkscape="http://www.inkscape.org/namespaces/inkscape"
   xmlns:sodipodi="http://sodipodi.sourceforge.net/DTD/sodipodi-0.dtd"
   xmlns="http://www.w3.org/2000/svg"
   xmlns:svg="http://www.w3.org/2000/svg">
  <defs
     id="defs14" />
  <sodipodi:namedview
     id="namedview12"
     pagecolor="#ffffff"
     bordercolor="#666666"
     borderopacity="1.0"
     inkscape:pageshadow="2"
     inkscape:pageopacity="0.0"
     inkscape:pagecheckerboard="0"
     showgrid="false"
     inkscape:zoom="1.8613686"
     inkscape:cx="283.93087"
     inkscape:cy="87.838596"
     inkscape:window-width="1920"
     inkscape:window-height="1017"
     inkscape:window-x="-8"
     inkscape:window-y="712"
     inkscape:window-maximized="1"
     inkscape:current-layer="svg10" />
  <path
     style="fill:#217821;fill-rule:evenodd;stroke:#217821;stroke-width:1.91995001px;stroke-linecap:butt;stroke-linejoin:miter;stroke-opacity:1"
     d="m12.757 947.037 51.299-43.542c4.102 15.31 14.941 19.075 30.413 19.075 14.683.22 28.685-8.822 28.685-24.218-.29-14.36-13.205-21.497-25.927-23.742l16.8-15.085c32.625 5.5 62.612 35.014 62.612 71.055 0 47.878-44.8 75.77-82.627 75.77-39.837 0-75.26-25.345-81.255-59.313z"
     transform="translate(0 -822.048)"
     id="path2" />
  <path
     style="fill:#55d400;fill-rule:evenodd;stroke:none;stroke-width:1px;stroke-linecap:butt;stroke-linejoin:miter;stroke-opacity:1"
     d="m95.298 875.167-30.77 26.614c-12.428-5.015-26.057-12.04-26.057-26.4 0-24.94 27.102-34.627 56.227-34.627 16.473 0 31.847 7.359 31.847 7.359l-12.99 10.469c-8.44-5.146-17.183-6.021-18.9-5.828-2.663-.3-20.485 3.252-20.485 12 0 11.412 19.116 10.413 21.128 10.413z"
     transform="translate(0 -822.048)"
     id="path4" />
  <g
     style="font-style:normal;font-weight:400;font-size:99.77178192px;line-height:125%;font-family:sans-serif;letter-spacing:0;word-spacing:0;fill:#000;fill-opacity:1;stroke:none;stroke-width:1px;stroke-linecap:butt;stroke-linejoin:miter;stroke-opacity:1"
     id="g8">
    <path
       d="M219.37 595.154v-.798q0-4.29-.5-7.882-.498-3.592-2.594-7.283-1.995-3.692-6.584-6.086-4.49-2.495-12.073-2.495-10.975 0-16.462 5.089-5.488 4.988-5.488 14.666 0 6.186 3.592 11.474 2.594 3.292 5.787 5.886 3.292 2.595 8.68 6.087 5.188 3.392 7.583 5.287 2.793 1.896 4.19 4.29 1.397 2.395 1.397 5.588 0 8.78-8.68 8.78-4.69 0-6.785-3.193-1.995-3.193-1.995-9.378v-4.39H175.47v5.487q0 5.188 1.197 9.379 1.297 4.09 3.991 7.083 2.694 2.994 7.084 4.59 4.39 1.696 10.476 1.696 10.476 0 16.761-5.587 6.286-5.587 6.286-15.964 0-4.988-1.397-8.58-1.397-3.692-4.889-7.084-1.396-1.397-3.691-3.093-2.195-1.696-4.39-3.192-2.195-1.597-4.29-2.994-2.095-1.396-4.59-2.993l-.2-.1q-4.09-2.693-5.986-4.689-1.795-2.095-1.795-5.886 0-3.692 1.995-5.288 1.995-1.696 5.687-1.696 4.989 0 6.585 3.392t1.596 9.877h13.47zM264.018 647.235q-1.098-4.09-1.098-7.882V606.13q0-3.691-.698-6.485-.599-2.893-2.495-5.188-1.895-2.295-5.687-3.592-3.691-1.397-9.677-1.397-5.787 0-9.678 1.297-3.891 1.198-6.086 3.592-2.195 2.395-3.093 5.687-.798 3.193-.798 7.583h12.371q0-4.29 1.397-6.186 1.397-1.996 5.388-1.996 2.893 0 4.29.6 1.397.498 1.796 2.294.3 1.197.3 2.195 0 2.394-1.597 4.09-1.597 1.597-5.089 3.093-.898.4-1.396.599-4.69 1.896-7.483 3.292-2.794 1.397-5.288 3.492-2.395 2.096-3.792 5.288-1.297 3.093-1.297 7.483 0 8.68 3.592 12.771 3.592 4.09 11.474 4.09 3.193 0 6.186-1.895 2.793-1.696 5.188-5.388h.2v.799q-.1.698-.1.798 0 2.394.898 4.19h12.272zM249.95 623.69q0 .698-.1 2.794 0 2.693-.2 4.689-.1 1.896-.698 3.691-.599 1.697-1.995 2.794-1.297 1.098-3.592 1.098-3.392 0-4.79-1.796-1.296-1.896-1.296-5.388 0-2.195.399-3.891.499-1.796 1.796-2.894 2.394-1.895 7.183-4.988l3.293-2.195v6.086zM282.195 590.964h-12.97v56.271h12.97V610.22q0-5.587 1.097-8.082 1.198-2.594 5.288-2.694 4.091 0 5.189 2.295 1.197 2.295 1.197 6.785v38.711h12.97V610.22q0-5.388 1.297-7.982 1.397-2.594 5.288-2.794 3.891 0 4.989 2.594 1.197 2.495 1.197 7.184v38.013h12.97V601.44q0-4.989-3.492-8.48-3.492-3.493-10.276-3.493-9.28 0-12.97 7.284h-.2q-.499-3.592-4.09-5.388-3.593-1.896-7.883-1.896-4.09.2-7.283 1.696-3.093 1.397-5.088 5.588h-.2v-5.787zM353.116 590.964h-12.97v56.271h12.97V610.22q0-5.587 1.098-8.082 1.197-2.594 5.288-2.694 4.09 0 5.188 2.295 1.197 2.295 1.197 6.785v38.711h12.97V610.22q0-5.388 1.297-7.982 1.397-2.594 5.288-2.794 3.891 0 4.989 2.594 1.197 2.495 1.197 7.184v38.013h12.97V601.44q0-4.989-3.492-8.48-3.492-3.493-10.276-3.493-9.279 0-12.97 7.284h-.2q-.499-3.592-4.09-5.388-3.592-1.896-7.883-1.896-4.09.2-7.283 1.696-3.093 1.397-5.088 5.588h-.2v-5.787zM411.617 590.964l13.569 55.473q.499 1.896.798 3.791.399 1.996.399 3.393 0 1.496-1.197 2.095-1.198.598-3.093.598-.699 0-2.095-.1-1.198-.1-1.297-.1v10.078q3.392.499 6.086.499 3.89 0 6.385-1.098 2.594-.998 3.99-2.993 1.497-1.996 2.296-4.39.898-2.395 1.995-7.084.2-.798.798-3.093l13.669-57.07h-13.17l-5.687 30.232q-1.397 7.582-1.995 14.566h-.2q-.998-9.977-1.896-14.965l-5.687-29.832h-13.668z"
       style="font-style:normal;font-variant:normal;font-weight:700;font-stretch:expanded;font-family:Helvetica-Condensed;-inkscape-font-specification:'Helvetica-Condensed Bold Expanded'"
       transform="translate(-138.782 -1057.573) scale(1.91995)"
       id="path6" />
  </g>
  <path
     style="fill:#ffffff;fill-opacity:0.941176;stroke-width:0.537239"
     d="m 179.04738,143.42644 c -8.12841,-0.85548 -15.59562,-4.21014 -19.83711,-8.91187 -5.10715,-5.66132 -7.09302,-11.96131 -7.55817,-23.97762 l -0.30675,-7.92428 h 9.93791 9.93792 l 0.29254,6.34946 c 0.52921,11.48625 2.94637,16.43669 8.86582,18.15752 5.47961,1.59296 11.7406,0.11027 14.77818,-3.49968 2.80057,-3.32829 3.28435,-11.58675 0.96001,-16.3882 -1.91136,-3.94833 -5.6594,-6.99188 -23.22049,-18.855935 -15.27657,-10.320664 -20.87245,-18.632048 -20.85063,-30.968797 0.0254,-14.361608 6.8448,-23.36526 20.33004,-26.841788 5.32289,-1.372255 16.37719,-1.496549 21.77443,-0.24483 7.81782,1.813095 14.25442,6.588428 17.45513,12.950003 2.30575,4.582792 3.27172,8.727854 3.65682,15.69157 l 0.33422,6.04394 h -9.67296 -9.67297 l -0.32022,-4.700842 c -0.64717,-9.500119 -2.93341,-13.39549 -8.6072,-14.665228 -5.43611,-1.216549 -10.75037,0.318446 -13.40303,3.871389 -1.34935,1.807313 -1.79903,7.036468 -0.92015,10.700061 0.93994,3.918127 3.57402,6.401604 14.49573,13.666948 25.55529,16.999894 29.78804,22.076229 30.45478,36.524379 0.48797,10.57409 -2.02579,18.14178 -8.01575,24.1315 -6.95147,6.95119 -18.29705,10.21744 -30.8881,8.8923 z"
     id="path868"
     transform="scale(1.3091057)" />
  <path
     style="fill:#ffffff;fill-opacity:0.941176;stroke-width:0.537239"
     d="m 238.70003,142.66624 c -6.44937,-1.46345 -9.99306,-4.00185 -12.44961,-8.91783 -2.29407,-4.59084 -2.90141,-8.21786 -2.63951,-15.76307 0.30278,-8.72313 1.41376,-11.63887 6.2783,-16.4772 4.11092,-4.088781 6.20671,-5.333509 16.43493,-9.760989 12.44632,-5.387633 14.37593,-7.068685 14.65823,-12.770058 0.24707,-4.989981 -0.88233,-6.67197 -5.06273,-7.53982 -3.54389,-0.735707 -8.12214,-0.357244 -10.48985,0.867148 -1.80013,0.930881 -3.63767,4.407023 -3.66772,6.938349 -0.0105,0.886444 -0.16491,2.155672 -0.34308,2.820505 -0.3187,1.189225 -0.46204,1.208788 -8.85711,1.208788 h -8.53317 v -3.196991 c 0,-9.758705 4.70866,-17.613365 12.27748,-20.480444 5.2374,-1.983936 11.456,-2.808479 18.61377,-2.468057 13.09066,0.622589 20.09239,4.648658 22.94948,13.196189 1.15208,3.446677 1.19536,4.449504 1.52121,35.24473 0.20741,19.60244 0.55228,32.46583 0.90382,33.71175 l 0.56844,2.01465 h -8.78262 -8.78262 l -0.55949,-2.01465 c -0.30773,-1.10805 -0.56085,-3.04212 -0.56249,-4.29791 -0.002,-1.2558 -0.24476,-2.28327 -0.54024,-2.28327 -0.29548,0 -0.53724,0.1935 -0.53724,0.43 0,0.2365 -1.21918,1.79789 -2.7093,3.46976 -5.0725,5.69122 -11.97522,7.81875 -19.68888,6.06842 z m 18.11599,-15.7435 c 2.89903,-2.75097 3.57214,-5.91207 4.02015,-18.87963 0.32807,-9.496232 0.28247,-10.388387 -0.51539,-10.08222 -1.45139,0.556951 -15.03569,9.87221 -16.08118,11.02747 -2.42917,2.6842 -3.21794,9.75448 -1.6698,14.96762 1.13656,3.82721 3.0069,4.96034 8.20736,4.97236 3.7944,0.009 3.9816,-0.0534 6.03886,-2.0056 z"
     id="path907"
     transform="scale(1.3091057)" />
  <path
     style="fill:#ffffff;fill-opacity:0.941176;stroke-width:0.537239"
     d="M 289.03465,100.1951 V 59.096303 h 9.37995 9.37996 l 0.15604,4.389722 0.15603,4.389723 1.67151,-2.693826 c 0.91933,-1.481604 2.52592,-3.345513 3.57019,-4.14202 2.55762,-1.950789 7.3591,-3.570877 11.64619,-3.92959 7.88636,-0.659874 16.97834,3.63258 18.05241,8.522804 0.484,2.203631 1.09419,2.286898 2.31811,0.316333 1.78984,-2.88174 4.98748,-5.630972 8.40692,-7.227998 2.95835,-1.381678 3.73152,-1.50349 9.40168,-1.481231 5.12457,0.02012 6.70405,0.232467 9.26129,1.245108 3.64438,1.443148 7.27741,4.851659 9.08606,8.524569 l 1.26188,2.562569 0.14896,35.860714 0.14896,35.86071 h -9.14772 -9.14771 l -0.0106,-28.60799 c -0.006,-15.829886 -0.24637,-30.238321 -0.53841,-32.258039 -1.01826,-7.042292 -3.21529,-9.26041 -9.13913,-9.226824 -4.02513,0.02282 -6.32225,1.401911 -8.04071,4.827309 l -1.3431,2.677185 -0.15853,31.294179 -0.15854,31.29418 h -9.36127 -9.36127 l -0.1505,-32.10004 c -0.14156,-30.195019 -0.21059,-32.221003 -1.16311,-34.138349 -1.67645,-3.374566 -6.05316,-4.807482 -11.03421,-3.612549 -3.3603,0.806125 -5.09667,2.708598 -5.9028,6.467479 -0.38288,1.785264 -0.58513,13.211206 -0.58513,33.055889 v 30.32757 h -9.40168 -9.40168 z"
     id="path946"
     transform="scale(1.3091057)" />
  <path
     style="fill:#ffffff;fill-opacity:0.941176;stroke-width:0.537239"
     d="M 393.25903,100.1951 V 59.096303 h 9.13307 9.13306 v 4.297913 c 0,2.363852 0.18679,4.297913 0.41507,4.297913 0.22829,0 0.87535,-0.854693 1.43792,-1.899317 1.55357,-2.884796 5.12789,-5.874687 8.6668,-7.249691 4.57675,-1.778251 12.60846,-1.790261 17.08401,-0.02555 3.99808,1.576453 7.11993,4.36368 7.93514,7.084599 0.34439,1.149475 0.76922,2.085611 0.94405,2.080302 0.17484,-0.0053 1.104,-1.211893 2.06481,-2.681297 3.59423,-5.496849 10.55401,-8.403241 18.97583,-7.924282 7.99194,0.454512 13.83737,4.115697 16.79756,10.520855 1.1474,2.482713 1.16273,2.926261 1.31685,38.104052 l 0.15595,35.59209 h -9.42332 -9.42332 v -30.45308 c 0,-33.816812 -0.13423,-35.363076 -3.30112,-38.027842 -3.03762,-2.555992 -9.37079,-2.209737 -12.42575,0.679357 -3.16969,2.997586 -3.25048,3.862593 -3.4849,37.313245 l -0.21367,30.48832 h -9.09065 -9.09065 l -0.008,-30.2197 c -0.009,-32.458526 -0.19896,-35.102446 -2.71419,-37.77979 -3.40561,-3.625101 -12.58698,-2.777187 -14.7264,1.360006 -1.57009,3.036207 -1.87041,9.06553 -1.88098,37.762884 l -0.0106,28.8766 h -9.13306 -9.13307 z"
     id="path985"
     transform="scale(1.3091057)" />
  <path
     style="fill:#ffffff;fill-opacity:0.941176;stroke-width:0.537239"
     d="m 510.9144,169.31925 -2.41757,-0.35755 -0.14991,-7.11842 -0.1499,-7.11841 h 4.24105 c 7.09417,0 8.01945,-1.51181 6.30066,-10.2946 -0.66698,-3.4082 -19.72031,-81.835304 -20.5029,-84.393799 -0.26649,-0.871228 0.42152,-0.940168 9.38273,-0.940168 8.7446,0 9.6972,0.09 9.95131,0.940168 1.06526,3.564014 9.0099,47.571109 9.72308,53.858219 0.95648,8.43209 1.56443,11.51781 2.0111,10.20755 0.15109,-0.44323 0.66088,-4.06959 1.13287,-8.05859 0.472,-3.989 2.92085,-18.229447 5.4419,-31.645435 2.52105,-13.415989 4.58373,-24.597278 4.58373,-24.84731 0,-0.250031 4.23076,-0.454602 9.40169,-0.454602 5.17092,0 9.40168,0.0842 9.40168,0.187108 0,0.537775 -20.18705,84.419089 -21.78017,90.501059 -3.05324,11.65619 -5.9587,16.14032 -11.89852,18.36358 -3.35124,1.25436 -10.33905,1.81213 -14.67283,1.1712 z"
     id="path1024"
     transform="scale(1.3091057)" />
</svg>
