<?xml version="1.0" encoding="UTF-8" standalone="no"?>
<!-- Created with Inkscape (http://www.inkscape.org/) -->

<svg
   width="568.398560059"
   height="175.932887637"
   viewBox="0 0 744.09449 230.31484"
   id="svg2"
   version="1.1"
   inkscape:version="1.1 (c68e22c387, 2021-05-23)"
   sodipodi:docname="sammy.svg"
   xmlns:inkscape="http://www.inkscape.org/namespaces/inkscape"
   xmlns:sodipodi="http://sodipodi.sourceforge.net/DTD/sodipodi-0.dtd"
   xmlns="http://www.w3.org/2000/svg"
   xmlns:svg="http://www.w3.org/2000/svg"
   xmlns:rdf="http://www.w3.org/1999/02/22-rdf-syntax-ns#"
   xmlns:cc="http://creativecommons.org/ns#"
   xmlns:dc="http://purl.org/dc/elements/1.1/">
  <defs
     id="defs4" />
  <sodipodi:namedview
     id="base"
     pagecolor="#ffffff"
     bordercolor="#666666"
     borderopacity="1.0"
     inkscape:pageopacity="0.0"
     inkscape:pageshadow="2"
     inkscape:zoom="1.979899"
     inkscape:cx="333.0978"
     inkscape:cy="120.96577"
     inkscape:document-units="px"
     inkscape:current-layer="layer1"
     showgrid="false"
     inkscape:window-width="1920"
     inkscape:window-height="1027"
     inkscape:window-x="-8"
     inkscape:window-y="712"
     inkscape:window-maximized="1"
     inkscape:pagecheckerboard="0" />
  <metadata
     id="metadata7">
    <rdf:RDF>
      <cc:Work
         rdf:about="">
        <dc:format>image/svg+xml</dc:format>
        <dc:type
           rdf:resource="http://purl.org/dc/dcmitype/StillImage" />
        <dc:title />
      </cc:Work>
    </rdf:RDF>
  </metadata>
  <g
     inkscape:label="Layer 1"
     inkscape:groupmode="layer"
     id="layer1"
     transform="translate(0,-822.04784)">
    <path
       style="fill:#217821;fill-rule:evenodd;stroke:#217821;stroke-width:1.91995001px;stroke-linecap:butt;stroke-linejoin:miter;stroke-opacity:1"
       d="m 12.757338,947.0368 51.298679,-43.54164 c 4.102069,15.30913 14.94105,19.0747 30.413063,19.0747 14.68247,0.21984 28.68538,-8.82161 28.68538,-24.21744 -0.29084,-14.35994 -13.20534,-21.49708 -25.92789,-23.74223 l 16.79956,-15.08532 c 32.62587,5.49964 62.61264,35.0143 62.61264,71.05528 0,47.87817 -44.79936,75.76955 -82.626408,75.76955 -39.837829,0 -75.260718,-25.34514 -81.255024,-59.3129 z"
       id="path3347"
       inkscape:connector-curvature="0"
       sodipodi:nodetypes="ccccccccc" />
    <path
       style="fill:#55d400;fill-rule:evenodd;stroke:none;stroke-width:1px;stroke-linecap:butt;stroke-linejoin:miter;stroke-opacity:1"
       d="M 95.298038,875.16732 64.527422,901.7809 C 52.09987,896.7662 38.470953,889.74037 38.470953,875.38158 c 0,-24.93997 27.102362,-34.62766 56.22712,-34.62766 16.473287,0 31.846847,7.35906 31.846847,7.35906 l -12.99021,10.46904 c -8.43876,-5.14642 -17.182998,-6.02125 -18.89951,-5.82841 -2.662721,-0.29999 -20.485175,3.25278 -20.485175,11.99969 0,11.4132 19.116059,10.41402 21.128013,10.41402 z"
       id="path3353"
       inkscape:connector-curvature="0"
       sodipodi:nodetypes="ccccccccc" />
    <g
       style="font-style:normal;font-weight:normal;font-size:99.77178192px;line-height:125%;font-family:sans-serif;letter-spacing:0px;word-spacing:0px;fill:#000000;fill-opacity:1;stroke:none;stroke-width:1px;stroke-linecap:butt;stroke-linejoin:miter;stroke-opacity:1"
       id="text3357"
       transform="matrix(1.91995,0,0,1.91995,-138.78157,-235.5249)">
      <path
         d="m 219.36943,595.15424 0,-0.79818 q 0,-4.29018 -0.49886,-7.88197 -0.49886,-3.59178 -2.59407,-7.28334 -1.99544,-3.69155 -6.58494,-6.08608 -4.48973,-2.49429 -12.07238,-2.49429 -10.9749,0 -16.46235,5.08836 -5.48744,4.98859 -5.48744,14.66645 0,6.18585 3.59178,11.47376 2.59407,3.29247 5.78676,5.88653 3.29247,2.59407 8.68015,6.08608 5.18813,3.39224 7.58265,5.2879 2.79361,1.89567 4.19042,4.29019 1.3968,2.39452 1.3968,5.58722 0,8.77992 -8.68014,8.77992 -4.68928,0 -6.78448,-3.1927 -1.99544,-3.1927 -1.99544,-9.37855 l 0,-4.38995 -13.96805,0 0,5.48744 q 0,5.18814 1.19726,9.37855 1.29704,4.09064 3.99087,7.0838 2.69384,2.99315 7.0838,4.5895 4.38996,1.69612 10.47604,1.69612 10.47603,0 16.76166,-5.58722 6.28562,-5.58722 6.28562,-15.96349 0,-4.98858 -1.39681,-8.58037 -1.3968,-3.69155 -4.88881,-7.0838 -1.39681,-1.3968 -3.69156,-3.09292 -2.19498,-1.69612 -4.38996,-3.1927 -2.19498,-1.59635 -4.29018,-2.99315 -2.09521,-1.39681 -4.58951,-2.99315 l -0.19954,-0.0998 q -4.09064,-2.69383 -5.98631,-4.68927 -1.79589,-2.09521 -1.79589,-5.88654 0,-3.69155 1.99544,-5.2879 1.99543,-1.69612 5.68699,-1.69612 4.98859,0 6.58494,3.39224 1.59634,3.39224 1.59634,9.87741 l 13.4692,0 z"
         style="font-style:normal;font-variant:normal;font-weight:bold;font-stretch:expanded;font-family:Helvetica-Condensed;-inkscape-font-specification:'Helvetica-Condensed Bold Expanded'"
         id="path3362"
         inkscape:connector-curvature="0" />
      <path
         d="m 264.01763,647.23511 q -1.09749,-4.09065 -1.09749,-7.88197 l 0,-33.22401 q 0,-3.69155 -0.6984,-6.48516 -0.59863,-2.89338 -2.49429,-5.18814 -1.89567,-2.29475 -5.68699,-3.59178 -3.69156,-1.3968 -9.67787,-1.3968 -5.78676,0 -9.67786,1.29703 -3.8911,1.19726 -6.08608,3.59178 -2.19498,2.39453 -3.09292,5.68699 -0.79818,3.1927 -0.79818,7.58266 l 12.3717,0 q 0,-4.29019 1.39681,-6.18585 1.3968,-1.99544 5.38767,-1.99544 2.89339,0 4.29019,0.59863 1.39681,0.49886 1.79589,2.29476 0.29932,1.19726 0.29932,2.19497 0,2.39453 -1.59635,4.09065 -1.59635,1.59635 -5.08836,3.09292 -0.89795,0.39909 -1.39681,0.59863 -4.68927,1.89567 -7.48288,3.29247 -2.79361,1.39681 -5.2879,3.49201 -2.39453,2.09521 -3.79133,5.28791 -1.29704,3.09292 -1.29704,7.48288 0,8.68015 3.59179,12.77079 3.59178,4.09064 11.47375,4.09064 3.1927,0 6.18585,-1.89566 2.79361,-1.69612 5.18814,-5.38768 l 0.19954,0 q 0,0.29932 0,0.79818 -0.0998,0.6984 -0.0998,0.79817 0,2.39453 0.89794,4.19042 l 12.27193,0 z m -14.06782,-23.54614 q 0,0.6984 -0.0998,2.79361 0,2.69383 -0.19954,4.68927 -0.0998,1.89566 -0.69841,3.69156 -0.59863,1.69612 -1.99543,2.79361 -1.29703,1.09749 -3.59179,1.09749 -3.39224,0 -4.78904,-1.7959 -1.29703,-1.89566 -1.29703,-5.38767 0,-2.19498 0.39908,-3.8911 0.49886,-1.79589 1.7959,-2.89338 2.39452,-1.89567 7.18356,-4.98859 2.09521,-1.39681 3.29247,-2.19498 l 0,6.08608 z"
         style="font-style:normal;font-variant:normal;font-weight:bold;font-stretch:expanded;font-family:Helvetica-Condensed;-inkscape-font-specification:'Helvetica-Condensed Bold Expanded'"
         id="path3364"
         inkscape:connector-curvature="0" />
      <path
         d="m 282.19499,590.96382 -12.97034,0 0,56.27129 12.97034,0 0,-37.01533 q 0,-5.58722 1.09749,-8.08152 1.19726,-2.59406 5.2879,-2.69384 4.09064,0 5.18813,2.29475 1.19726,2.29476 1.19726,6.78449 l 0,38.71145 12.97034,0 0,-37.01533 q 0,-5.38768 1.29703,-7.98175 1.3968,-2.59406 5.2879,-2.79361 3.8911,0 4.98859,2.59407 1.19726,2.49429 1.19726,7.18357 l 0,38.01305 12.97034,0 0,-45.79525 q 0,-4.98859 -3.49202,-8.4806 -3.49201,-3.49201 -10.27649,-3.49201 -9.27878,0 -12.97033,7.28334 l -0.19955,0 q -0.49885,-3.59179 -4.09064,-5.38768 -3.59178,-1.89566 -7.88197,-1.89566 -4.09064,0.19954 -7.28334,1.69612 -3.09292,1.3968 -5.08836,5.58722 l -0.19954,0 0,-5.78677 z"
         style="font-style:normal;font-variant:normal;font-weight:bold;font-stretch:expanded;font-family:Helvetica-Condensed;-inkscape-font-specification:'Helvetica-Condensed Bold Expanded'"
         id="path3366"
         inkscape:connector-curvature="0" />
      <path
         d="m 353.11618,590.96382 -12.97033,0 0,56.27129 12.97033,0 0,-37.01533 q 0,-5.58722 1.09749,-8.08152 1.19726,-2.59406 5.28791,-2.69384 4.09064,0 5.18813,2.29475 1.19726,2.29476 1.19726,6.78449 l 0,38.71145 12.97033,0 0,-37.01533 q 0,-5.38768 1.29704,-7.98175 1.3968,-2.59406 5.2879,-2.79361 3.8911,0 4.98859,2.59407 1.19726,2.49429 1.19726,7.18357 l 0,38.01305 12.97033,0 0,-45.79525 q 0,-4.98859 -3.49201,-8.4806 -3.49201,-3.49201 -10.27649,-3.49201 -9.27878,0 -12.97034,7.28334 l -0.19954,0 q -0.49886,-3.59179 -4.09064,-5.38768 -3.59179,-1.89566 -7.88197,-1.89566 -4.09065,0.19954 -7.28334,1.69612 -3.09293,1.3968 -5.08836,5.58722 l -0.19955,0 0,-5.78677 z"
         style="font-style:normal;font-variant:normal;font-weight:bold;font-stretch:expanded;font-family:Helvetica-Condensed;-inkscape-font-specification:'Helvetica-Condensed Bold Expanded'"
         id="path3368"
         inkscape:connector-curvature="0" />
      <path
         d="m 411.61675,590.96382 13.56896,55.47311 q 0.49886,1.89567 0.79817,3.79133 0.39909,1.99544 0.39909,3.39224 0,1.49658 -1.19726,2.09521 -1.19726,0.59863 -3.09292,0.59863 -0.69841,0 -2.09521,-0.0998 -1.19726,-0.0998 -1.29704,-0.0998 l 0,10.07695 q 3.39225,0.49885 6.08608,0.49885 3.8911,0 6.3854,-1.09748 2.59406,-0.99772 3.99087,-2.99316 1.49658,-1.99543 2.29475,-4.38996 0.89795,-2.39452 1.99544,-7.08379 0.19954,-0.79818 0.79817,-3.09293 l 13.66873,-57.06946 -13.16987,0 -5.68699,30.23085 q -1.39681,7.58266 -1.99544,14.56668 l -0.19954,0 q -0.99772,-9.97718 -1.89567,-14.96576 l -5.68699,-29.83177 -13.66873,0 z"
         style="font-style:normal;font-variant:normal;font-weight:bold;font-stretch:expanded;font-family:Helvetica-Condensed;-inkscape-font-specification:'Helvetica-Condensed Bold Expanded'"
         id="path3370"
         inkscape:connector-curvature="0" />
    </g>
    <path
       style="fill:#ffffff;stroke-width:2.02031"
       d="m 171.72593,141.11292 c -12.52381,-4.62675 -19.1929,-15.02716 -19.1929,-29.93125 v -8.14611 h 9.09138 9.09137 v 7.8574 c 0,10.52167 5.41989,17.05969 14.14213,17.05969 8.91138,0 14.94675,-7.1453 13.30362,-15.75023 -1.29256,-6.76905 -6.23921,-11.67159 -25.73458,-25.505076 -15.29768,-10.854897 -20.92621,-20.338113 -19.29396,-32.507394 2.12362,-15.832783 12.5241,-23.885374 30.84963,-23.885374 18.073,0 27.49696,8.083994 30.37014,26.051889 l 1.32615,8.293297 h -9.09137 c -9.03231,0 -9.0997,-0.05209 -10.37342,-8.017459 -0.81706,-5.10963 -2.77879,-8.818497 -5.40888,-10.226078 -6.3541,-3.400608 -14.62742,-1.590003 -17.29225,3.784386 -4.19374,8.457876 -0.55906,14.760379 14.49368,25.131908 22.79073,15.703102 27.67238,21.528462 28.60473,34.134501 1.43425,19.39205 -8.92502,31.16736 -29.03312,33.00177 -5.38529,0.49129 -12.51885,-0.11435 -15.85235,-1.34587 z"
       id="path20670"
       transform="matrix(1.3091066,0,0,1.3091066,0,822.04784)" />
    <path
       style="fill:#ffffff;stroke-width:0.505076"
       d="m 239.83379,142.91927 c -11.46845,-2.05061 -16.36563,-9.05953 -16.39773,-23.46873 -0.0327,-14.69669 4.76881,-20.186592 25.14609,-28.751079 10.06518,-4.23035 12.55131,-6.64537 12.51816,-12.160101 -0.0352,-5.849873 -1.89402,-7.315243 -9.28659,-7.320789 -6.80872,-0.0051 -9.56039,2.382632 -10.03725,8.709749 l -0.21889,2.904188 h -8.77813 -8.77812 v -2.685157 c 0,-9.406554 3.7741,-16.345498 10.76015,-19.783273 4.67734,-2.301681 10.02061,-3.292646 17.69482,-3.28169 12.64737,0.01806 21.08668,3.624509 24.32089,10.393286 2.32385,4.863508 2.40046,5.937876 2.7878,39.095416 0.20281,17.362 0.53837,32.1923 0.74569,32.95623 l 0.37695,1.38896 h -8.65768 -8.65768 l -0.49257,-1.29557 c -0.27092,-0.71256 -0.49258,-2.53084 -0.49258,-4.04061 0,-1.50977 -0.13926,-2.74504 -0.30946,-2.74504 -0.17021,0 -1.77607,1.58407 -3.56859,3.52016 -5.37896,5.80977 -11.28464,7.88552 -18.67528,6.56405 z m 13.92498,-14.11276 c 2.13412,-0.61206 3.88216,-2.20722 5.16907,-4.71701 1.24432,-2.42672 2.04356,-11.20126 1.83871,-20.18625 l -0.14719,-6.455916 -6.566,4.439106 c -9.25404,6.25643 -9.83134,6.72577 -10.94279,8.89638 -2.11662,4.13367 -1.62852,12.96404 0.88147,15.94699 1.83419,2.17982 6.183,3.1045 9.76673,2.0767 z"
       id="path20709"
       transform="matrix(1.3091066,0,0,1.3091066,0,822.04784)" />
    <path
       style="fill:#ffffff;stroke-width:0.505076"
       d="M 289.15616,100.0051 V 59.093924 h 9.32425 9.32425 l 0.14593,4.419417 0.14593,4.419417 0.91246,-1.671669 c 1.37443,-2.518038 4.34901,-5.610065 6.40699,-6.659968 5.39765,-2.753675 13.21567,-3.280103 18.9042,-1.272919 4.49591,1.58637 6.7861,3.431994 8.44291,6.803971 l 1.33152,2.709952 1.24853,-1.9778 c 1.77027,-2.804284 5.09587,-5.656912 8.40218,-7.207209 2.61297,-1.225196 3.3603,-1.330572 9.40453,-1.326081 5.67169,0.0042 6.95955,0.163192 9.45552,1.167226 3.66088,1.472633 7.13143,4.817181 8.88829,8.565595 l 1.35416,2.889207 0.13941,35.481607 0.13942,35.48161 h -9.33894 -9.33893 l -0.14439,-31.441 c -0.14281,-31.097702 -0.15642,-31.467045 -1.24645,-33.826637 -1.45973,-3.159876 -3.55699,-4.428523 -7.32509,-4.431001 -5.07459,-0.0033 -7.89752,1.892556 -9.36734,6.291167 -0.75136,2.248533 -0.87128,6.0989 -1.02703,32.976621 l -0.17634,30.43085 h -9.02808 -9.02807 l -0.17562,-30.93592 c -0.16618,-29.273828 -0.22909,-31.082954 -1.17096,-33.67254 -1.47851,-4.064984 -2.80992,-4.839528 -8.31896,-4.839528 -5.16226,0 -6.62778,0.716286 -8.33376,4.073205 -0.97343,1.915441 -1.0154,3.140029 -1.15442,33.681243 l -0.14426,31.69354 h -9.32592 -9.32592 z"
       id="path20748"
       transform="matrix(1.3091066,0,0,1.3091066,0,822.04784)" />
    <path
       style="fill:#ffffff;stroke-width:0.505076"
       d="M 393.20188,100.0051 V 59.093924 h 9.09137 9.09137 v 4.293148 c 0,2.361231 0.20569,4.293148 0.45708,4.293148 0.2514,0 1.03432,-0.984969 1.73982,-2.18882 1.81,-3.088526 4.75795,-5.57791 8.21736,-6.939109 4.32155,-1.700435 12.76038,-1.727852 17.16477,-0.05577 4.07367,1.546528 6.6556,3.752873 8.0263,6.858729 l 1.11927,2.536131 1.28219,-1.999619 c 1.97279,-3.076605 4.87708,-5.597828 8.19236,-7.111799 2.45918,-1.123021 3.94983,-1.418474 8.08442,-1.602358 10.14433,-0.451166 16.38626,2.685811 19.89302,9.997535 l 1.33231,2.777919 0.13942,35.481611 0.13941,35.48161 h -9.33893 -9.33894 l -0.14439,-31.441 c -0.14281,-31.097706 -0.15642,-31.467049 -1.24645,-33.826641 -1.47711,-3.197501 -3.54719,-4.428542 -7.45104,-4.431001 -6.07379,-0.0038 -8.73136,2.583794 -9.85394,9.594561 -0.31869,1.990268 -0.52719,14.470063 -0.5295,31.693541 l -0.004,28.41054 h -9.09137 -9.09137 l -0.009,-27.65293 c -0.005,-15.20911 -0.2203,-29.66163 -0.47858,-32.116711 -0.84255,-8.008618 -2.90613,-10.098128 -9.70614,-9.828063 -6.60811,0.262443 -8.25156,2.377719 -9.0147,11.602763 -0.26023,3.145748 -0.47684,17.481511 -0.48136,31.857241 l -0.008,26.1377 h -9.09137 -9.09137 z"
       id="path20787"
       transform="matrix(1.3091066,0,0,1.3091066,0,822.04784)" />
    <path
       style="fill:#ffffff;stroke-width:0.505076"
       d="m 510.50584,169.36874 -2.14657,-0.22627 v -7.25808 -7.25806 l 2.65165,0.27165 c 3.00454,0.30781 6.49008,-0.46716 7.74492,-1.72199 1.62827,-1.62828 0.55857,-6.98626 -10.0982,-50.58046 -5.71995,-23.398856 -10.3999,-42.758977 -10.3999,-43.022491 0,-0.285275 3.87863,-0.479115 9.58683,-0.479115 9.52575,0 9.58853,0.0072 9.85486,1.136421 1.39259,5.904185 8.9423,47.638795 9.57073,52.906735 0.44737,3.7502 0.94245,7.89813 1.10018,9.21765 0.15772,1.31951 0.46009,2.39911 0.67192,2.39911 0.21183,0 0.53704,-1.64781 0.72268,-3.6618 0.60068,-6.51668 1.8195,-13.84833 6.15041,-36.996841 2.33877,-12.500638 4.37285,-23.239822 4.52017,-23.864854 0.2659,-1.128038 0.33698,-1.136421 9.6362,-1.136421 8.68618,0 9.34907,0.06436 9.10403,0.883883 -0.14536,0.486136 -4.82356,19.975766 -10.39601,43.310293 -10.90581,45.66791 -12.90993,53.37107 -14.91474,57.32737 -3.07009,6.05853 -7.69943,8.58876 -16.16182,8.83347 -2.77792,0.0803 -6.01672,0.0443 -7.19734,-0.0802 z"
       id="path20826"
       transform="matrix(1.3091066,0,0,1.3091066,0,822.04784)" />
  </g>
</svg>
