<?xml version="1.0" encoding="UTF-8" standalone="no"?>
<svg
   height="300"
   width="600"
   version="1.1"
   id="svg26"
   sodipodi:docname="semicom-w.svg"
   inkscape:version="1.1 (c68e22c387, 2021-05-23)"
   xmlns:inkscape="http://www.inkscape.org/namespaces/inkscape"
   xmlns:sodipodi="http://sodipodi.sourceforge.net/DTD/sodipodi-0.dtd"
   xmlns="http://www.w3.org/2000/svg"
   xmlns:svg="http://www.w3.org/2000/svg">
  <defs
     id="defs30" />
  <sodipodi:namedview
     id="namedview28"
     pagecolor="#ffffff"
     bordercolor="#666666"
     borderopacity="1.0"
     inkscape:pageshadow="2"
     inkscape:pageopacity="0.0"
     inkscape:pagecheckerboard="0"
     showgrid="false"
     inkscape:zoom="1.7633333"
     inkscape:cx="299.71645"
     inkscape:cy="150"
     inkscape:window-width="1920"
     inkscape:window-height="1017"
     inkscape:window-x="-8"
     inkscape:window-y="712"
     inkscape:window-maximized="1"
     inkscape:current-layer="svg26" />
  <text
     fill="#ef00eb"
     font-family="TrasksHand"
     font-size="2"
     stroke="#0105ff"
     stroke-width="2.5"
     x="209.505"
     y="146.872"
     id="text4"><tspan
       fill="#fafafa"
       fill-opacity=".4"
       stroke="none"
       x="209.505"
       y="146.872"
       id="tspan2">John Loreth 2022</tspan></text>
  <g
     fill-opacity=".948"
     id="g12">
    <path
       d="M242.137 142.059h-9.6c-4.044-3.532-7.44-4.657-16.901-4.483-8.587.505-10.758 1.413-16.434 6.64-1.538 1.399 1.48 2.898 2.966 2.883h41.648c3.856.103 6.26 3.18 4.665 7.992-4.262 12.404-13.498 20.038-27.544 21.55h-9.794c-7.416-.626-20.158-3.81-24.821-12.774-1.076-2.397.359-3.732 1.944-3.742l7.126.24c3.437.287 13.017 6.849 15.913 6.716l10.044-.092c1.679.086 9.55-3.993 12.946-7.608 2.124-2.066.74-3.75-.616-3.94l-46.036.41c-3.952-.139-3.76-2.094-3.816-5.37-.072-15.017 18.149-21.425 24.122-22.673 7.957-1.185 13.11-.778 17.459-.157 6.91 1.705 12.672 5.096 18.748 10.777 1.675 1.373-.35 3.832-2.019 3.63zM256.134 132.587v35.783c-.024 3.503.593 4.759 4.298 4.598h40.004c3.923.027 3.646-7.75 0-7.65h-28.299c-3.409.607-4.966-9.627 0-10.705h28.3c3.812.176 3.54-7.753 0-7.645h-28.773c-2.43.035-4.776-6.822 0-9.384h28.772c3.702.49 4.683-8.573 0-8.63h-40.748c-1.929.144-3.48.516-3.554 3.633zM308.945 168.853V132.73c-.031-2.893.805-3.848 4.17-3.755 1.06.029 5.577-.042 7.023-.054 4.704-.039 5.06 1.107 6.636 3.809l11.236 23.719c1.128 1.054 2.297.944 2.978-.181l11.442-24.697c.892-1.443 1.908-2.447 3.48-2.436h9.694c2.583.048 3.15 1.357 3.172 2.436v38.056c-.04 2.409-.789 3.443-3.456 3.443h-5.216s-3.854 0-4.174-3.443v-15.333c-.14-2.364-1.296-1.461-2.174.45L346.463 170c-2.047 4.006-2.124 3.07-3.443 3.07h-7.726c-1.163 0-2.467 0-3.85-2.616l-7.37-16.117c-.748-1.305-2.203-2.105-2.372 0V168.9c.047 2.339-.485 4.18-2.484 4.168-2.012-.003-3.946 0-6.037-.008-1.97-.008-4.243.928-4.237-4.207z"
       id="path6" />
    <rect
       height="44.188"
       ry="4.501"
       width="14.176"
       x="376.728"
       y="128.881"
       id="rect8" />
    <path
       d="M409.538 150.804c-1.263 5.81 16.352 27.317 39.507 4.678 5.224-5.108 12.628.366 11.926 2.124-3.993 10.014-16.118 18.462-31.123 18.462-18.053 0-32.688-11.31-32.688-25.264s14.635-25.264 32.688-25.264c15.127 0 29.241 7.556 31.583 18.722.455 2.173-7.752 7.73-12.543 2.065-17.037-20.15-37.286-5.024-39.35 4.477zM499.188 125.305a32.251 25.04 0 0 0-32.252 25.04 32.251 25.04 0 0 0 32.252 25.04 32.251 25.04 0 0 0 32.25-25.04 32.251 25.04 0 0 0-32.25-25.04zm.218 10.822a19.627 14.323 0 0 1 19.625 14.322 19.627 14.323 0 0 1-19.625 14.322 19.627 14.323 0 0 1-19.627-14.322 19.627 14.323 0 0 1 19.627-14.322zM538.36 168.853V132.73c-.031-2.893.805-3.848 4.17-3.755 1.06.029 5.577-.042 7.024-.054 4.703-.039 5.059 1.107 6.635 3.809l11.237 23.719c1.127 1.054 2.296.944 2.977-.181l11.442-24.697c.892-1.443 1.909-2.447 3.48-2.436h9.694c2.584.048 3.15 1.357 3.172 2.436v38.056c-.04 2.409-.788 3.443-3.456 3.443h-5.216s-3.853 0-4.173-3.443v-15.333c-.14-2.364-1.296-1.461-2.174.45L575.879 170c-2.048 4.006-2.124 3.07-3.443 3.07h-7.727c-1.163 0-2.466 0-3.849-2.616l-7.37-16.117c-.749-1.305-2.204-2.105-2.373 0l.001 14.564c.047 2.339-.485 4.18-2.485 4.168-2.012-.003-3.946 0-6.037-.008-1.97-.008-4.242.928-4.236-4.207z"
       id="path10" />
  </g>
  <path
     d="M88.66 76.645c-40.419 0-73.09 32.9-73.09 73.75s32.671 73.75 73.09 73.75c40.42 0 73.088-32.902 73.088-73.75 0-2.43-.124-4.831-.35-7.2h-23.101v-14.513h20.244c-9.162-30.19-36.946-52.037-69.88-52.037z"
     fill="#3939ff"
     id="path14" />
  <path
     d="M88.66 62.145c-48.32 0-87.59 39.628-87.59 88.25 0 2.394.122 4.76.309 7.107h14.535a75.737 75.737 0 0 1-.344-7.107c0-40.85 32.671-73.75 73.09-73.75 32.935 0 60.72 21.847 69.881 52.037h15.016c-9.627-38.174-44.02-66.537-84.897-66.537zm87.272 81.05h-14.534c.226 2.369.35 4.77.35 7.2 0 40.848-32.669 73.75-73.088 73.75-32.967 0-60.773-21.892-69.908-52.127H3.742c9.597 38.218 44.01 66.627 84.918 66.627 48.32 0 87.588-39.63 87.588-88.25 0-2.426-.125-4.823-.316-7.2zm-160.01 14.307h-.008c.29 2.471.207 2.088.008 0z"
     id="path16" />
  <path
     d="M138.654 143.353v14.444l30.344-.152c4.004-.02 7.25-3.246 7.25-7.25s-3.246-7.25-7.25-7.25m-128.748 0H8.021a7.25 7.25 0 0 0 0 14.5h32.137"
     fill-opacity=".992"
     id="path18" />
  <g
     stroke-linejoin="round"
     id="g24">
    <circle
       cx="89.525"
       cy="150.891"
       fill="#ffc600"
       r="49.75"
       stroke="#000"
       stroke-linecap="round"
       stroke-opacity=".992"
       stroke-width="12.5"
       id="circle20" />
    <path
       d="M72.531 137.65c-9.522 0-17.412 7.747-17.412 17.25h10c0-4.027 3.223-7.25 7.412-7.25s7.414 3.223 7.414 7.25h10c0-9.503-7.891-17.25-17.414-17.25zm33.95.104c-9.523 0-17.415 7.746-17.415 17.25h10c0-4.027 3.226-7.25 7.414-7.25 4.19 0 7.413 3.223 7.413 7.25h10c0-9.504-7.89-17.25-17.413-17.25z"
       fill-opacity=".992"
       id="path22" />
  </g>
  <path
     style="fill:#ffffff;fill-opacity:0.941176;stroke-width:0.567108"
     d="m 205.86011,175.4944 c -8.51077,-1.81459 -15.17866,-5.59254 -18.15565,-10.28677 -1.28013,-2.01855 -1.52343,-2.83934 -1.08465,-3.6592 0.47704,-0.89136 1.25104,-1.05652 4.94079,-1.05428 4.18739,0.003 4.67582,0.14855 11.38233,3.40265 l 7.0072,3.39999 h 6.23324 c 6.18081,0 6.26973,-0.0192 10.57314,-2.2815 6.50908,-3.42185 9.65481,-6.61671 8.51694,-8.64997 -0.50487,-0.90215 -2.44477,-0.9778 -25.07479,-0.9778 -18.32086,0 -24.69979,-0.1722 -25.20811,-0.68053 -0.39266,-0.39265 -0.68053,-2.2735 -0.68053,-4.44628 0,-7.185 4.85549,-13.76816 13.50865,-18.31527 6.0012,-3.15354 11.41376,-4.3462 19.72407,-4.3462 6.06915,0 7.49717,0.1902 11.10966,1.47972 4.30141,1.53542 12.18358,6.37976 14.61785,8.98404 1.10452,1.18166 1.27084,1.69991 0.7906,2.46343 -0.48588,0.77249 -1.6369,0.99956 -5.72346,1.12908 -4.84317,0.1535 -5.26231,0.0708 -7.87945,-1.55413 -3.66227,-2.27386 -8.23422,-3.07229 -15.24055,-2.66155 -7.28462,0.42706 -9.09146,0.98026 -13.28514,4.06747 -3.72458,2.74188 -4.13472,3.69166 -2.18414,5.0579 1.08865,0.76251 4.28533,0.88282 23.4585,0.88282 21.59849,0 22.23845,0.0317 23.69234,1.17537 5.14311,4.04558 -3.63242,19.38688 -13.86768,24.24337 -2.05492,0.97503 -5.3725,2.15848 -7.3724,2.62988 -4.52752,1.06721 -14.78831,1.06604 -19.79876,-0.002 z"
     id="path884" />
  <path
     style="fill:#ffffff;fill-opacity:0.941176;stroke-width:0.567108"
     d="m 258.60113,172.5743 c -2.18907,-0.78235 -2.26843,-1.5318 -2.26843,-21.42229 0,-16.57789 0.12572,-19.51013 0.88282,-20.59104 l 0.88282,-1.2604 h 21.78842 21.78842 l 0.9333,1.42439 c 0.98716,1.5066 0.78613,4.30749 -0.41286,5.75218 -0.50165,0.60445 -3.79092,0.76294 -15.83448,0.76294 h -15.20131 l -1.17538,1.49424 c -1.38697,1.76325 -1.58472,5.66814 -0.37119,7.32931 0.75355,1.03151 1.79737,1.11869 16.57486,1.38439 l 15.77066,0.28355 0.54785,1.55955 c 0.3524,1.00314 0.3524,2.11595 2e-5,3.11909 l -0.54784,1.55954 -15.49159,0.28356 c -15.43946,0.2826 -15.49525,0.28806 -16.57487,1.62237 -1.33376,1.64839 -1.44295,5.67793 -0.21805,8.04662 l 0.86522,1.67316 h 15.25684 c 16.94846,0 17.03918,0.0197 17.03918,3.69455 0,3.6718 -0.0722,3.68322 -22.95227,3.63308 -11.23731,-0.0246 -20.81427,-0.18158 -21.28214,-0.34879 z"
     id="path923" />
  <path
     style="fill:#ffffff;fill-opacity:0.941176;stroke-width:0.567108"
     d="m 309.95654,171.70746 c -0.75785,-1.08198 -0.88282,-4.0465 -0.88282,-20.94248 0,-17.13665 0.11526,-19.79733 0.89117,-20.57324 0.70007,-0.70007 2.20379,-0.89117 7.01237,-0.89117 5.16365,0 6.33634,0.16923 7.4965,1.08181 0.83355,0.65567 3.70756,6.03681 7.29595,13.66054 5.91392,12.56442 7.25492,14.52899 8.8373,12.94662 0.42743,-0.42743 3.31366,-6.25811 6.41384,-12.95707 3.10019,-6.69895 6.14657,-12.75411 6.76974,-13.45591 1.03924,-1.17036 1.62619,-1.27599 7.09007,-1.27599 4.65935,0 6.15118,0.19413 6.84821,0.89117 0.77614,0.77613 0.89117,3.44806 0.89117,20.69943 0,19.38687 -0.0254,19.83368 -1.19479,21.00305 -1.04043,1.04043 -1.70865,1.16576 -5.17221,0.97005 -5.94428,-0.33589 -6.10937,-0.65007 -6.10937,-11.62652 0,-7.75349 -0.10558,-8.7477 -0.9117,-8.58557 -0.54222,0.10905 -2.89797,4.20538 -5.81286,10.10774 l -4.90115,9.92439 -4.95833,0.1638 c -2.72708,0.0901 -5.43513,-0.0914 -6.01788,-0.40326 -0.59237,-0.31702 -2.86486,-4.51522 -5.1538,-9.52108 -6.20944,-13.57994 -6.83786,-13.6817 -6.83786,-1.10722 0,11.09092 -0.0338,11.15131 -6.23818,11.15131 -3.97892,0 -4.56998,-0.1391 -5.35537,-1.2604 z"
     id="path962" />
  <path
     style="fill:#ffffff;fill-opacity:0.941176;stroke-width:0.567108"
     d="m 379.57393,172.3968 c -0.6814,-0.27455 -1.5108,-1.00719 -1.8431,-1.6281 -0.3929,-0.73414 -0.60418,-7.75097 -0.60418,-20.06546 v -18.93653 l 1.31255,-1.23307 c 1.0978,-1.03133 1.98347,-1.23307 5.4133,-1.23307 3.59775,0 4.2715,0.17074 5.49275,1.39199 l 1.39199,1.39199 v 18.78396 18.78395 l -1.6577,1.6577 c -1.46509,1.4651 -2.04164,1.65353 -4.96219,1.62176 -1.81747,-0.0198 -3.86201,-0.26058 -4.54342,-0.53512 z"
     id="path1001" />
  <path
     style="fill:#ffffff;fill-opacity:0.941176;stroke-width:0.567108"
     d="m 421.86783,174.98946 c -10.22758,-2.14509 -18.89093,-8.32879 -22.52186,-16.07562 -1.2749,-2.72007 -1.51988,-4.01975 -1.51988,-8.06318 0,-4.24422 0.21299,-5.26103 1.78185,-8.50661 6.91401,-14.30335 27.56949,-20.45187 45.73548,-13.61409 7.09201,2.66947 13.41855,8.37356 15.16857,13.67619 0.68301,2.06955 0.64242,2.3148 -0.60255,3.64 -1.61849,1.72282 -5.00197,2.82322 -7.07833,2.30209 -0.83872,-0.21051 -3.4155,-2.17216 -5.72619,-4.35923 -7.32243,-6.9307 -14.90922,-9.29083 -22.66728,-7.05143 -4.08358,1.17875 -6.471,2.58636 -10.07733,5.94153 -5.50297,5.11973 -6.28923,9.26835 -2.70245,14.25919 2.36058,3.28465 4.00275,4.68177 8.01927,6.82264 2.232,1.18969 3.28555,1.35097 8.82493,1.35097 6.1492,0 6.38464,-0.0479 10.49254,-2.13292 2.3112,-1.17311 5.98039,-3.67051 8.15375,-5.54978 2.17336,-1.87927 4.53516,-3.56332 5.24844,-3.74235 2.03536,-0.51084 5.10845,0.28976 6.81648,1.77584 l 1.56178,1.35884 -1.63241,3.15911 c -3.05259,5.90755 -10.82095,11.67942 -19.06797,14.16744 -4.30059,1.29744 -13.5288,1.62252 -18.20684,0.64137 z"
     id="path1040" />
  <path
     style="fill:#ffffff;fill-opacity:0.941176;stroke-width:0.567108"
     d="m 494.2344,174.86836 c -11.46033,-1.83611 -20.80369,-7.85676 -24.80442,-15.9834 -1.65053,-3.35269 -1.84964,-4.27861 -1.84964,-8.60141 0,-4.32466 0.19877,-5.24802 1.85314,-8.60852 3.36787,-6.84113 11.09076,-12.53102 20.26406,-14.92969 4.41735,-1.15507 13.68294,-1.20023 18.431,-0.0898 15.00941,3.51013 24.786,15.11841 22.61658,26.85391 -1.7363,9.39252 -10.29212,17.37676 -21.76591,20.31182 -3.59089,0.91856 -11.87517,1.50689 -14.74481,1.04713 z m 14.50625,-11.47878 c 7.37714,-2.81144 11.88171,-9.69524 10.23853,-15.64634 -1.30375,-4.7218 -5.69635,-8.7559 -11.54469,-10.60245 -5.32344,-1.68082 -13.6426,-1.29003 -18.30406,0.85983 -6.31098,2.91062 -9.35727,7.05049 -9.35727,12.71642 0,2.68463 0.31315,3.80801 1.64851,5.91365 1.98829,3.1352 5.55962,5.70106 9.72802,6.98918 1.69659,0.52428 3.33991,1.05201 3.65182,1.17274 1.66662,0.64509 11.04076,-0.29845 13.93914,-1.40303 z"
     id="path1079" />
  <path
     style="fill:#ffffff;fill-opacity:0.941176;stroke-width:0.567108"
     d="m 539.64353,172.07669 c -0.77689,-0.77689 -0.89117,-3.4893 -0.89117,-21.15311 0,-15.00316 0.17663,-20.43858 0.68053,-20.94248 0.44821,-0.44821 2.84678,-0.68053 7.02602,-0.68053 5.21305,0 6.55734,0.17711 7.53254,0.99244 0.65288,0.54584 3.8954,6.73434 7.20561,13.75223 5.51244,11.68675 6.58408,13.57655 7.71328,13.60203 1.00413,0.0227 2.35772,-2.44185 7.5119,-13.67704 3.05747,-6.66472 6.18229,-12.69187 6.94406,-13.39367 1.23385,-1.13671 1.97374,-1.27599 6.77822,-1.27599 2.96625,0 5.8868,0.26417 6.49012,0.58706 1.05369,0.56391 1.09693,1.40153 1.09693,21.24659 0,23.62958 0.44315,21.83364 -5.38752,21.83364 -3.12099,0 -5.25075,-0.6745 -6.08773,-1.92799 -0.22915,-0.3432 -0.42446,-4.32437 -0.43401,-8.84705 -0.0171,-8.08153 -0.38247,-10.17238 -1.64172,-9.39412 -0.34887,0.21561 -2.78287,4.84188 -5.40889,10.28059 l -4.77459,9.88857 h -5.08317 c -4.00799,0 -5.33585,-0.20992 -6.27772,-0.99243 -0.657,-0.54585 -2.87304,-4.69282 -4.92454,-9.21551 -3.99295,-8.80276 -5.55399,-11.12062 -6.49293,-9.64083 -0.29687,0.46787 -0.54366,4.86106 -0.54844,9.76266 -0.0101,10.41311 0.18985,10.08611 -6.16908,10.08611 -2.84979,0 -4.21743,-0.2509 -4.8577,-0.89117 z"
     id="path1118" />
  <path
     style="fill:#ffffff;fill-opacity:0.941176;stroke-width:0.567108"
     d="M 75.708885,237.35696 C 42.430328,232.10445 15.29881,208.41895 5.1282554,175.74089 l -1.0395665,-3.34013 h 7.2080581 7.208057 l 1.319663,3.7381 c 6.071775,17.19904 20.331107,32.97404 37.112329,41.05711 10.375673,4.99769 19.533771,7.01174 31.815567,6.99687 6.536858,-0.008 9.850474,-0.29525 14.310207,-1.24086 26.1268,-5.53975 46.56428,-23.64361 55.14673,-48.8499 1.16352,-3.4172 3.41641,-13.71461 3.41641,-15.61557 0,-0.69189 -1.39656,-0.83021 -8.36484,-0.82847 l -8.36484,0.002 -1.22198,5.61196 c -3.53989,16.25696 -14.79309,30.28001 -30.28087,37.73419 -7.25344,3.49105 -12.9259,4.89588 -21.238171,5.25984 -8.214725,0.35967 -13.395924,-0.36255 -20.848287,-2.90611 -8.120569,-2.77183 -13.852333,-6.41497 -20.602892,-13.09553 -8.543734,-8.45514 -13.470266,-17.38112 -15.705626,-28.45573 l -0.781023,-3.86941 -14.981937,-0.35157 C 10.995179,157.39457 3.7041687,157.20317 3.0329982,157.1626 1.9803821,157.09898 1.7623677,156.64074 1.4465042,153.82798 1.0143515,149.97966 1.9179856,138.91628 3.1653308,132.78403 7.7733017,110.13015 22.234187,88.9715 41.68242,76.427216 50.83578,70.523217 63.049333,65.682381 73.724008,63.727549 c 7.433546,-1.361291 22.780502,-1.370706 29.773152,-0.01827 28.11972,5.438602 51.25553,23.001856 63.52576,48.224791 2.20192,4.52629 5.94494,14.45632 5.94494,15.77155 0,0.25339 -3.19798,0.46072 -7.10664,0.46072 -6.26159,0 -7.14678,-0.11801 -7.44414,-0.99243 C 149.35847,100.5365 127.5671,81.799428 100.46652,77.345758 93.105947,76.136132 78.799457,76.560579 72.306238,78.18122 58.094665,81.728285 47.209516,87.759058 37.385155,97.528782 28.779667,106.08641 22.95076,115.37741 19.301114,126.35387 c -1.802649,5.42154 -3.422097,12.70892 -3.422097,15.39916 v 1.72523 h 9.284217 9.284217 l 0.362113,-2.69376 c 0.599798,-4.4619 4.011101,-13.49487 6.946645,-18.39439 3.202676,-5.34537 9.940669,-12.73551 14.9213,-16.36549 16.292489,-11.87425 37.994018,-14.07469 55.960771,-5.67417 11.4383,5.34808 21.01247,14.52076 26.51772,25.40569 1.46076,2.8882 1.47107,2.97732 0.34461,2.97732 -1.1157,0 -1.15499,0.27237 -1.002,6.94707 l 0.15923,6.94707 3.40265,0.36378 c 1.87146,0.20008 10.26404,0.39148 18.65018,0.42533 l 15.24754,0.0616 -0.31904,9.78261 c -0.44596,13.67406 -2.64428,22.87077 -8.32645,34.83373 -12.72673,26.79425 -38.01497,45.42587 -67.15683,49.47913 -5.761417,0.80133 -18.724814,0.68639 -24.447005,-0.21677 z m 27.221175,-44.77612 c 23.39099,-7.92178 35.77664,-32.40229 28.06293,-55.46704 -6.34121,-18.96084 -23.76438,-30.84141 -43.6324,-29.75221 -7.204571,0.39497 -11.306303,1.43304 -17.322783,4.38409 -24.104188,11.82296 -31.681422,42.79291 -15.885702,64.92862 4.566748,6.39972 11.459041,11.76517 19.053867,14.83285 5.950542,2.40353 9.794665,3.00786 17.814822,2.80065 6.197393,-0.16012 8.09548,-0.43536 11.909266,-1.72696 z"
     id="path1157" />
  <path
     style="fill:#ffffff;fill-opacity:0.941176;stroke-width:0.567108"
     d="m 55.57656,152.92612 c 0,-2.65905 3.088829,-8.5395 5.55207,-10.56991 4.75104,-3.91621 10.357848,-5.27998 15.528069,-3.77695 5.660055,1.64542 10.246755,5.81389 12.014033,10.91855 l 0.744126,2.14936 1.421207,-3.09202 c 2.04626,-4.45189 4.009953,-6.49639 8.239517,-8.5786 6.570708,-3.23475 13.367858,-2.26393 18.854528,2.69294 2.71211,2.45023 4.93051,6.43616 5.47411,9.83563 l 0.37023,2.3153 h -4.82201 c -4.81786,0 -4.82228,-0.001 -5.13693,-1.5746 -1.11086,-5.55433 -8.6825,-7.62996 -12.8028,-3.50966 -0.92286,0.92286 -1.846261,2.44435 -2.052003,3.38109 l -0.374078,1.70317 h -9.312218 -9.312218 v -1.4261 c 0,-0.82137 -0.789815,-2.28794 -1.86258,-3.45853 -1.473318,-1.60766 -2.404701,-2.09353 -4.456578,-2.3248 -3.930548,-0.44303 -6.615272,1.04928 -8.066256,4.48366 l -1.151601,2.72577 H 60.000869 55.57656 Z"
     id="path1196" />
  <path
     style="fill:#ffffff;fill-opacity:0.941176;stroke-width:0.567108"
     d="m 140.19976,142.50862 c -1.26995,-0.24354 -1.29071,-0.36932 -1.13422,-6.86984 0.12859,-5.34127 0.31884,-6.62177 0.98386,-6.62177 0.82422,0 3.42277,7.22093 4.23469,11.76749 0.36653,2.05245 0.32447,2.12396 -1.20546,2.04942 -0.87189,-0.0425 -2.16738,-0.18886 -2.87887,-0.3253 z"
     id="path1235" />
</svg>
