<?xml version="1.0" encoding="UTF-8" standalone="no"?>
<svg
   height="300"
   viewBox="0 0 600 300"
   width="600"
   version="1.1"
   id="svg36"
   sodipodi:docname="semicom.svg"
   inkscape:version="1.1 (c68e22c387, 2021-05-23)"
   xmlns:inkscape="http://www.inkscape.org/namespaces/inkscape"
   xmlns:sodipodi="http://sodipodi.sourceforge.net/DTD/sodipodi-0.dtd"
   xmlns="http://www.w3.org/2000/svg"
   xmlns:svg="http://www.w3.org/2000/svg">
  <defs
     id="defs40" />
  <sodipodi:namedview
     id="namedview38"
     pagecolor="#ffffff"
     bordercolor="#666666"
     borderopacity="1.0"
     inkscape:pageshadow="2"
     inkscape:pageopacity="0.0"
     inkscape:pagecheckerboard="0"
     showgrid="false"
     inkscape:zoom="1.7333333"
     inkscape:cx="517.21154"
     inkscape:cy="150.28846"
     inkscape:window-width="1366"
     inkscape:window-height="705"
     inkscape:window-x="-8"
     inkscape:window-y="-8"
     inkscape:window-maximized="1"
     inkscape:current-layer="svg36" />
  <text
     fill="#ef00eb"
     font-family="TrasksHand"
     font-size="2"
     stroke="#0105ff"
     stroke-width="2.5"
     x="209.50528"
     y="146.8723"
     id="text4"><tspan
       fill="#fafafa"
       fill-opacity=".4"
       font-size="2"
       stroke="none"
       stroke-width="2.5"
       x="209.50528"
       y="146.8723"
       id="tspan2">John Loreth 2022</tspan></text>
  <g
     fill-opacity=".947941"
     id="g20">
    <path
       d="m242.137 142.05867h-9.5992c-4.04466-3.53193-7.44173-4.65704-16.90182-4.48235-8.58733.50461-10.75797 1.41275-16.43366 6.64023-1.53853 1.39802 1.47911 2.89747 2.96547 2.88253h41.64858c3.85577.10248 6.26006 3.17958 4.66437 7.99234-4.26143 12.4036-13.49768 20.03801-27.54409 21.54863h-9.79333c-7.4164-.62459-20.15792-3.80918-24.82162-12.77297-1.07571-2.39664.35892-3.73213 1.94458-3.74162l7.12538.2394c3.43729.28692 13.01774 6.84911 15.91356 6.71632l10.04426-.0917c1.67815.0851 9.54995-3.99361 12.94533-7.60875 2.1246-2.06583.74043-3.74956-.61612-3.93974l-46.03522.40955c-3.95258-.13811-3.75957-2.09327-3.81693-5.36882-.072-15.01744 18.14899-21.42595 24.12196-22.67331 7.95708-1.18511 13.10977-.77884 17.45911-.15715 6.91104 1.70511 12.67247 5.09532 18.74799 10.7765 1.67545 1.37329-.34905 3.83232-2.0186 3.63094z"
       id="path6" />
    <path
       d="m256.13447 132.5868v35.78308c-.0248 3.50297.59292 4.75864 4.29799 4.59766h40.00398c3.92279.0273 3.64533-7.75 0-7.64869h-28.29931c-3.40883.60595-4.96597-9.62753 0-10.70577h28.29931c3.81304.17583 3.54001-7.75279 0-7.64534h-28.77195c-2.43069.0353-4.77623-6.82151 0-9.38372h28.77195c3.70186.49032 4.68283-8.57325 0-8.63017h-40.74814c-1.92932.14414-3.48076.51587-3.55383 3.63295z"
       id="path8" />
    <path
       d="m308.9446 168.85324v-36.12432c-.031-2.89256.80499-3.84779 4.17049-3.75535 1.06023.0291 5.57698-.0417 7.02305-.0536 4.70395-.0388 5.05914 1.10686 6.63592 3.80895l11.23612 23.71907c1.12742 1.05409 2.29638.94448 2.97762-.18118l11.44221-24.69635c.89201-1.44386 1.90839-2.44766 3.4802-2.43686h9.69339c2.58351.0479 3.1496 1.35751 3.17232 2.43686v38.05576c-.0402 2.40858-.78856 3.44323-3.45612 3.44323h-5.21595s-3.85374 0-4.17363-3.44323v-15.33292c-.13977-2.36427-1.2958-1.4615-2.17381.45051l-7.29304 15.25667c-2.04735 4.00505-2.12412 3.06897-3.44322 3.06897h-7.72647c-1.16275 0-2.46629 0-3.84881-2.61594l-7.37115-16.11663c-.74793-1.30537-2.20265-2.10511-2.37191 0l.001 14.56426c.0466 2.33836-.48548 4.18046-2.48483 4.16831-2.01237-.003-3.94597 0-6.03711-.008-1.97041-.008-4.24263.92728-4.23664-4.20783z"
       id="path10" />
    <rect
       height="44.18832"
       ry="4.501126"
       width="14.17647"
       x="376.7283"
       y="128.88113"
       id="rect12" />
    <path
       d="m409.53754 150.80415c-1.26223 5.80935 16.35249 27.31686 39.50719 4.67789 5.22393-5.10757 12.62793.36606 11.92666 2.12437-3.99368 10.01349-16.1187 18.46177-31.12291 18.46177-18.05353 0-32.68881-11.31109-32.68881-25.26403s14.63528-25.26403 32.68881-25.26403c15.12615 0 29.24066 7.55636 31.58223 18.72196.45562 2.17261-7.75182 7.73084-12.54232 2.06519-17.03733-20.14977-37.28642-5.02461-39.35085 4.47688z"
       stroke-linejoin="round"
       stroke-opacity=".992157"
       stroke-width="10"
       id="path14" />
    <path
       d="m499.1875 125.30469a32.251369 25.039442 0 0 0 -32.25195 25.04101 32.251369 25.039442 0 0 0 32.25195 25.03907 32.251369 25.039442 0 0 0 32.25-25.03907 32.251369 25.039442 0 0 0 -32.25-25.04101zm.21875 10.82226a19.626562 14.322617 0 0 1 19.625 14.32227 19.626562 14.322617 0 0 1 -19.625 14.32226 19.626562 14.322617 0 0 1 -19.62695-14.32226 19.626562 14.322617 0 0 1 19.62695-14.32227z"
       id="path16" />
    <path
       d="m538.36 168.85324v-36.12432c-.031-2.89256.80499-3.84779 4.17049-3.75535 1.06023.0291 5.57698-.0417 7.02305-.0536 4.70395-.0388 5.05914 1.10686 6.63592 3.80895l11.23612 23.71907c1.12742 1.05409 2.29638.94448 2.97762-.18118l11.44221-24.69635c.89201-1.44386 1.90839-2.44766 3.4802-2.43686h9.69339c2.58351.0479 3.1496 1.35751 3.17232 2.43686v38.05576c-.0402 2.40858-.78856 3.44323-3.45612 3.44323h-5.21595s-3.85374 0-4.17363-3.44323v-15.33292c-.13977-2.36427-1.2958-1.4615-2.17381.45051l-7.29304 15.25667c-2.04735 4.00505-2.12412 3.06897-3.44322 3.06897h-7.72647c-1.16275 0-2.46629 0-3.84881-2.61594l-7.37115-16.11663c-.74793-1.30537-2.20265-2.10511-2.37191 0l.001 14.56426c.0466 2.33836-.48548 4.18046-2.48483 4.16831-2.01237-.003-3.94597 0-6.03711-.008-1.97041-.008-4.24263.92728-4.23664-4.20783z"
       id="path18" />
  </g>
  <g
     id="g34">
    <path
       d="m88.660156 76.644531c-40.419116 0-73.089844 32.901159-73.089844 73.749999s32.670728 73.75 73.089844 73.75c40.419114 0 73.087894-32.90116 73.087894-73.75 0-2.43024-.1236-4.83049-.34961-7.19922h-23.10156v-14.51367h20.24414c-9.16188-30.189695-36.94592-52.037107-69.880864-52.037109z"
       fill="#3939ff"
       id="path22" />
    <path
       d="m88.660156 62.144531c-48.320033 0-87.5898429 39.628799-87.5898435 88.249999 0 2.39456.1217068 4.76015.3085937 7.10742h14.5351558c-.22033-2.33918-.34375-4.70835-.34375-7.10742 0-40.84884 32.670728-73.749999 73.089844-73.749999 32.934944.000002 60.718984 21.847414 69.880864 52.037109h15.01562c-9.62712-38.173669-44.01919-66.537106-84.896484-66.537109zm87.271484 81.050779h-14.5332c.22601 2.36873.34961 4.76898.34961 7.19922 0 40.84884-32.66878 73.75-73.087894 73.75-32.967343 0-60.773537-21.89113-69.908203-52.12695h-15.0097655c9.5965275 38.21854 44.0089405 66.62695 84.9179685 66.62695 48.320034 0 87.587894-39.6288 87.587894-88.25 0-2.42576-.12468-4.82203-.31641-7.19922zm-160.009765 14.30664h-.0078c.289076 2.47154.207214 2.0878.0078 0z"
       id="path24" />
    <path
       d="m138.65434 143.35342v14.44396l30.34375-.15285c4.00401-.0202 7.25-3.24594 7.25-7.25s-3.24594-7.25-7.25-7.25m-128.748007 0h-32.2285986c-4.0040644 0-7.25000002 3.24594-7.25000002 7.25s3.24593562 7.25 7.25000002 7.25h32.1367586"
       fill-opacity=".992157"
       id="path26" />
    <g
       stroke-linejoin="round"
       id="g32">
      <circle
         cx="89.525352"
         cy="150.89058"
         fill="#ffc600"
         r="49.75"
         stroke="#000"
         stroke-linecap="round"
         stroke-opacity=".992157"
         stroke-width="12.5"
         id="circle28" />
      <path
         d="m72.53125 137.65039c-9.52228 0-17.412109 7.74632-17.412109 17.25h10c0-4.02729 3.223175-7.25 7.412109-7.25s7.414062 3.22271 7.414062 7.25h10c0-9.50368-7.891782-17.25-17.414062-17.25zm33.94922.10352c-9.52228 0-17.414064 7.74632-17.414064 17.25h10c0-4.02729 3.225134-7.25 7.414064-7.25 4.18894 0 7.41211 3.22271 7.41211 7.25h10c0-9.50368-7.88983-17.25-17.41211-17.25z"
         fill-opacity=".992157"
         id="path30" />
    </g>
  </g>
  <path
     style="fill:#ffffff;stroke-width:0.576923"
     d="m 204.10379,175.0714 c -7.85878,-1.93221 -14.45958,-6.0562 -16.87636,-10.54389 -1.74211,-3.23491 -1.0593,-3.85443 4.24814,-3.85443 4.41194,0 4.8511,0.12779 11.3999,3.3173 l 6.81119,3.31731 6.64705,-0.14397 c 6.17829,-0.13381 6.90415,-0.27355 10.29259,-1.98149 6.61172,-3.33264 10.56106,-7.94229 8.10505,-9.46018 -0.3593,-0.22206 -11.4674,-0.35048 -24.68468,-0.28538 -23.58526,0.11616 -24.05131,0.0964 -25.10379,-1.06662 -0.9026,-0.99736 -1.01729,-1.77505 -0.72436,-4.91197 0.624,-6.68224 4.54795,-12.09863 12.05221,-16.63615 7.27976,-4.40178 18.05248,-6.43367 27.01427,-5.09528 5.54652,0.82835 13.4876,4.67369 18.0101,8.7211 2.82726,2.53026 3.227,3.12933 2.72008,4.07651 -0.51876,0.96931 -1.25234,1.11036 -5.77499,1.11036 -4.70249,0 -5.46689,-0.16149 -8.2804,-1.74934 -3.92575,-2.21556 -10.58587,-3.09505 -17.48191,-2.30854 -5.21532,0.59482 -8.10457,1.76113 -11.64275,4.69986 -2.69613,2.23933 -2.88535,2.9726 -1.09138,4.22915 1.10565,0.77442 4.28746,0.8981 23.10558,0.8981 18.38636,0 22.09011,0.13794 23.51711,0.87587 3.03528,1.56961 2.98823,4.75197 -0.16496,11.15817 -3.84006,7.80168 -11.54995,13.90802 -20.10712,15.92513 -5.28651,1.24613 -16.33184,1.09966 -21.99057,-0.29162 z"
     id="path968" />
  <path
     style="fill:#ffffff;stroke-width:0.576923"
     d="m 257.56219,171.96975 c -1.07115,-0.78308 -1.11988,-1.68598 -1.11988,-20.74836 0,-18.36314 0.081,-20.01066 1.03022,-20.96014 0.95204,-0.95228 2.65239,-1.03048 22.40674,-1.03048 h 21.37652 l 1.15046,1.42075 c 1.40261,1.73215 1.06504,4.43542 -0.74113,5.93502 -1.08894,0.9041 -2.77357,1.00961 -16.1194,1.00961 -14.74671,0 -14.91281,0.0135 -15.80147,1.28222 -1.12178,1.60157 -1.16706,5.62906 -0.08,7.11713 0.76577,1.04826 1.82574,1.13833 16.57328,1.40835 l 15.75519,0.28846 0.55733,1.58654 c 0.35847,1.02049 0.35847,2.15258 0,3.17307 l -0.55733,1.58654 -15.66085,0.28846 c -8.61347,0.15866 -15.77666,0.41827 -15.91821,0.57693 -1.91565,2.14717 -2.11559,7.22453 -0.37178,9.44142 l 1.19572,1.52011 h 15.22629 c 14.46333,0 15.25622,0.0559 15.82351,1.11592 0.91142,1.703 0.71437,3.79155 -0.45782,4.85236 -0.94114,0.85172 -3.32714,0.9548 -22.10127,0.9548 -17.26378,0 -21.24749,-0.14714 -22.16611,-0.81871 z"
     id="path1007" />
  <path
     style="fill:#ffffff;stroke-width:0.576923"
     d="m 309.82799,171.67254 c -0.94485,-1.76548 -0.80687,-40.68419 0.14705,-41.47587 1.19097,-0.98842 10.75921,-1.38233 13.07231,-0.53817 2.25449,0.82277 2.81503,1.78521 10.44164,17.9281 6.26075,13.25186 5.68037,13.4075 13.58952,-3.64429 3.31149,-7.13943 6.45488,-13.30529 6.9853,-13.70193 0.63205,-0.47262 3.1065,-0.72115 7.18,-0.72115 5.62935,0 6.27395,0.10905 6.83437,1.15619 0.41572,0.77678 0.56437,7.69413 0.45299,21.0792 -0.14111,16.95762 -0.29459,20.00435 -1.03117,20.46959 -0.47596,0.30062 -2.62959,0.55056 -4.78584,0.55542 -3.39974,0.008 -4.10854,-0.17925 -5.33654,-1.40725 -1.37869,-1.3787 -1.41608,-1.64654 -1.41608,-10.14423 0,-6.70661 -0.16703,-8.68094 -0.72116,-8.52433 -0.39663,0.1121 -2.92788,4.6121 -5.625,10 l -4.90384,9.79618 -5.36063,0.1662 c -6.62627,0.20544 -6.36858,0.44314 -11.28201,-10.4074 -5.82968,-12.87395 -6.72275,-12.86549 -6.72275,0.0637 0,6.29403 -0.21248,9.29382 -0.6923,9.77364 -0.42678,0.42678 -2.52113,0.69231 -5.46047,0.69231 -4.12369,0 -4.84889,-0.15083 -5.36539,-1.11592 z"
     id="path1046" />
  <path
     style="fill:#ffffff;stroke-width:0.576923"
     d="m 378.41787,171.29938 -1.39864,-1.48909 V 150.8344 c 0,-18.69299 0.0186,-18.99452 1.24993,-20.22559 0.83345,-0.8333 2.21672,-1.3426 4.15141,-1.5285 3.54731,-0.34085 5.52101,0.11127 7.01718,1.60744 1.08832,1.08832 1.13917,1.99027 1.13917,20.20386 v 19.06468 l -1.41608,1.41609 c -1.22871,1.22871 -1.94062,1.41608 -5.3802,1.41608 -3.51574,0 -4.12233,-0.16843 -5.36277,-1.48908 z"
     id="path1085" />
  <path
     style="fill:#ffffff;stroke-width:0.576923"
     d="m 421.44231,174.81932 c -10.38094,-2.28529 -18.15693,-7.85686 -22.06125,-15.80712 -1.36053,-2.7704 -1.5926,-3.95932 -1.5926,-8.15895 0,-4.38581 0.20331,-5.32896 1.88522,-8.74539 8.41516,-17.09361 36.47312,-21.54741 54.21383,-8.60566 2.79301,2.03748 6.29705,6.98613 6.82829,9.64338 0.43549,2.17834 -1.15274,3.93954 -4.44109,4.92476 -3.17769,0.95206 -4.76974,0.26273 -8.91116,-3.85836 -8.24323,-8.20274 -17.82288,-10.20498 -27.09752,-5.66363 -4.15192,2.033 -9.11874,6.96159 -10.40211,10.32206 -0.93139,2.4388 -0.92851,2.71254 0.0557,5.2897 2.29739,6.01562 9.70697,11.0493 17.03654,11.57373 6.9594,0.49794 13.21799,-2.12397 21.16678,-8.86741 3.0059,-2.55009 4.0623,-3.11643 5.8131,-3.11643 2.7839,0 6.10562,1.78331 6.34784,3.40792 0.26627,1.78591 -2.94352,6.51247 -6.69058,9.85217 -8.07909,7.20078 -20.83774,10.29975 -32.15101,7.80923 z"
     id="path1124" />
  <path
     style="fill:#ffffff;stroke-width:0.576923"
     d="m 491.25,174.23115 c -10.56078,-2.35917 -18.47809,-7.99604 -22.10766,-15.73996 -1.29696,-2.76714 -1.54619,-4.08932 -1.54619,-8.20273 0,-4.25433 0.22435,-5.36233 1.69383,-8.36538 3.29882,-6.74153 11.14933,-12.66816 19.94079,-15.05402 5.0277,-1.36443 14.56846,-1.38048 19.61538,-0.033 13.65637,3.64615 22.07344,12.76989 22.05998,23.91208 -0.004,3.56847 -0.28774,4.78385 -1.8608,7.97919 -5.86035,11.90405 -22.80134,18.85332 -37.79533,15.50381 z m 11.89155,-9.51742 c 4.91122,-0.71052 8.46258,-2.25528 11.51766,-5.0099 6.3529,-5.72811 6.01159,-14.07842 -0.78623,-19.23519 -3.61789,-2.74451 -7.33993,-4.0565 -12.59034,-4.43803 -16.4797,-1.19752 -27.48693,11.89707 -18.66457,22.20402 3.17459,3.70879 8.98798,6.22069 16.13193,6.97043 0.31731,0.0333 2.29351,-0.1878 4.39155,-0.49133 z"
     id="path1163" />
  <path
     style="fill:#ffffff;stroke-width:0.576923"
     d="m 539.48635,171.99931 c -0.46819,-0.56413 -0.61171,-6.69175 -0.50334,-21.49038 l 0.15161,-20.70124 5.1923,-0.49637 c 3.58797,-0.343 5.95489,-0.29022 7.66034,0.17081 l 2.46803,0.66717 5.16605,10.79074 c 7.88284,16.46553 7.594,15.96106 9.24955,16.15406 1.38581,0.16155 1.79597,-0.54134 7.4064,-12.69231 3.26664,-7.07483 6.34622,-13.31766 6.84352,-13.87294 0.74979,-0.83723 1.9152,-1.00962 6.82527,-1.00962 3.2566,0 6.33174,0.15758 6.83366,0.35019 0.80855,0.31027 0.91257,2.69719 0.91257,20.9423 0,15.24687 -0.17971,20.77183 -0.69231,21.28443 -0.41202,0.41202 -2.39744,0.69231 -4.90385,0.69231 -6.42426,0 -6.51923,-0.16388 -6.51923,-11.25 0,-7.57509 -0.13267,-8.94231 -0.86778,-8.94231 -0.55428,0 -2.62312,3.64747 -5.72652,10.09616 l -4.85874,10.09615 h -5.43406 c -4.46102,0 -5.59914,-0.18241 -6.35595,-1.01867 -0.50704,-0.56027 -2.6437,-4.77902 -4.74815,-9.375 -5.89527,-12.87491 -6.62418,-12.96953 -6.62418,-0.85984 0,4.56158 -0.25319,8.95972 -0.56265,9.77365 -0.54234,1.42648 -0.73751,1.47986 -5.41012,1.47986 -3.39693,0 -5.04347,-0.23614 -5.50242,-0.78915 z"
     id="path1202" />
</svg>
