<?xml version="1.0" encoding="UTF-8" standalone="no"?>
<svg
   height="152.047"
   viewBox="0 0 797.554 136.842"
   width="886.171"
   version="1.1"
   id="svg2"
   sodipodi:docname="socrates-white.svg"
   inkscape:version="1.3 (0e150ed6c4, 2023-07-21)"
   xmlns:inkscape="http://www.inkscape.org/namespaces/inkscape"
   xmlns:sodipodi="http://sodipodi.sourceforge.net/DTD/sodipodi-0.dtd"
   xmlns="http://www.w3.org/2000/svg"
   xmlns:svg="http://www.w3.org/2000/svg">
  <defs
     id="defs2" />
  <sodipodi:namedview
     id="namedview2"
     pagecolor="#ffffff"
     bordercolor="#111111"
     borderopacity="1"
     inkscape:showpageshadow="0"
     inkscape:pageopacity="0"
     inkscape:pagecheckerboard="1"
     inkscape:deskcolor="#d1d1d1"
     inkscape:zoom="6.2516149"
     inkscape:cx="222.34255"
     inkscape:cy="101.25384"
     inkscape:window-width="3440"
     inkscape:window-height="1377"
     inkscape:window-x="-8"
     inkscape:window-y="760"
     inkscape:window-maximized="1"
     inkscape:current-layer="svg2" />
  <g
     fill="#636365"
     id="g2">
    <path
       d="M92.98 20.374H39.262q-8.648 0-12.726 3.22-4.007 3.22-4.007 10.222 0 5.601 3.445 8.402 3.445 2.8 10.265 2.8h28.756q17.859 0 25.382 6.721 7.593 6.722 7.593 22.405 0 15.893-8.718 23.384-8.719 7.421-27.42 7.421H3.967V86.606h54.42q9.28 0 13.077-2.66 3.796-2.731 3.796-8.962 0-6.441-3.515-9.172-3.445-2.73-11.882-2.73H34.2q-17.858 0-26.155-7.072Q-.18 48.87-.18 33.536q0-16.383 8.648-23.944Q17.186 2.03 36.099 2.03h56.88zM107.603 52.44q0-26.535 12.726-39.488Q133.125 0 159.21 0q26.296 0 38.882 13.092 12.655 13.093 12.655 40.398 0 27.305-12.655 40.467-12.586 13.163-38.881 13.163-26.577 0-39.092-13.233-12.515-13.232-12.515-41.447zm51.607-34.797q-13.992 0-20.952 8.682-6.89 8.681-6.89 26.255 0 19.043 6.679 27.935 6.75 8.821 21.163 8.821 14.202 0 21.022-8.751 6.89-8.822 6.89-27.095 0-18.344-6.89-27.095-6.82-8.752-21.022-8.752zM268.188 19.604q-13.499 0-19.475 8.541-5.906 8.542-5.906 28.075 0 16.943 5.695 23.875 5.695 6.931 19.686 6.931h35.717v17.923h-36.771q-12.164 0-19.124-2.03-6.96-2.1-13.078-7.001-7.944-6.302-11.952-16.383-3.937-10.152-3.937-24.225 0-27.305 11.882-40.257Q242.807 2.03 267.767 2.03h36.138v17.574zM368.238 20.374H341.59v25.904h26.647q10.827 0 15.046-2.94 4.218-2.94 4.218-10.082 0-7.071-4.148-9.942-4.078-2.94-15.116-2.94zM319.865 2.03h53.505q18.702 0 27.42 7.492 8.72 7.491 8.72 23.454 0 11.832-5.415 19.324-5.343 7.491-15.468 9.661l25.804 42.988h-24.468l-22.78-40.467h-25.592v40.467h-21.726z"
       id="path1" />
    <path
       d="M468.147 22.474 453.03 62.101h30.795zM457.46 2.03h23.06l44.084 102.92h-24.186l-9.491-24.505h-44.928l-9.21 24.504h-23.061zM541.197 20.094h-33.396V2.17h89.432v17.924h-33.537v84.855h-22.499zM650.387 19.954q-11.812 0-17.859 5.88-5.976 5.882-6.609 17.994l60.185.07v17.923h-60.325q.07 13.443 5.695 19.324 5.695 5.881 18.913 5.881h35.717v17.923h-36.772q-12.163 0-19.124-2.03-6.96-2.1-13.077-7.001-7.945-6.302-11.953-16.383-3.937-10.152-3.937-24.225 0-27.305 11.882-40.257Q625.005 2.03 649.965 2.03h36.139v17.924zM792.48 20.374h-53.715q-8.648 0-12.726 3.22-4.008 3.22-4.008 10.222 0 5.601 3.446 8.402 3.445 2.8 10.265 2.8h28.756q17.858 0 25.381 6.721 7.594 6.722 7.594 22.405 0 15.893-8.719 23.384-8.718 7.421-27.42 7.421H703.47V86.606h54.419q9.28 0 13.077-2.66 3.797-2.731 3.797-8.962 0-6.441-3.515-9.172-3.446-2.73-11.883-2.73h-25.662q-17.859 0-26.155-7.072-8.226-7.141-8.226-22.474 0-16.383 8.648-23.944Q716.688 2.03 735.6 2.03h56.88zM3.776 136.842v-23.053h23.686v3.926h-18.3v5.147h10.682v3.926H9.161v5.714h18.52v4.34zM43.005 132.502h6.961q5.56 0 7.881-1.723 2.32-1.723 2.32-5.693 0-3.533-1.926-5.343-1.926-1.832-5.692-1.832h-9.544zm-5.385 4.34v-23.053h14.886q6.37 0 9.785 2.966 3.437 2.966 3.437 8.419 0 3.228-1.336 5.823-1.335 2.574-3.765 4.057-1.51.937-3.765 1.374-2.233.414-5.736.414zM80.986 113.789v18.713H96.33v-18.713h5.364v17.6q0 3.163-1.182 4.319-1.183 1.134-4.554 1.134H81.336q-3.35 0-4.553-1.134-1.182-1.156-1.182-4.318v-17.601zM132.955 117.911h-14.514v14.59h14.514v-4.95l5.385 1.112v2.727q0 3.162-1.204 4.318-1.182 1.134-4.531 1.134h-13.813q-3.372 0-4.554-1.134-1.182-1.156-1.182-4.318V119.24q0-3.14 1.182-4.296 1.182-1.156 4.554-1.156h13.813q3.35 0 4.531 1.156 1.204 1.156 1.204 4.296v2.181l-5.385.851zM154.583 127.638h10.136l-4.991-9.378zm-10.354 9.204 13.09-23.053h5.189l13.266 23.053h-6.042l-2.78-5.038h-14.667l-2.693 5.038zM190.944 117.911v18.931h-5.385v-18.931h-10.617v-4.122h26.663v4.122zM208.194 136.842v-23.053h5.386v23.053zM224.92 119.241q0-3.14 1.181-4.296 1.182-1.156 4.554-1.156h17.03q3.372 0 4.554 1.156 1.182 1.156 1.182 4.296v12.149q0 3.162-1.182 4.318-1.182 1.134-4.553 1.134h-17.031q-3.372 0-4.554-1.134-1.182-1.156-1.182-4.318zm5.384 13.26h17.754v-14.59h-17.754zM264.717 136.842v-23.053h3.678l16.287 13.588q.831.676 1.466 1.286.635.59 1.16 1.222-.13-1.941-.175-2.748-.043-.807-.043-1.244V113.79h4.838v23.053h-3.678L271.262 122.6q-.613-.545-1.072-.981-.46-.436-.854-.894.11 1.068.153 2.028.066.938.066 1.636v12.453zM309.66 127.638h10.135l-4.991-9.378zm-10.355 9.204 13.09-23.053h5.189l13.266 23.053h-6.042l-2.78-5.038H307.36l-2.693 5.038zM338.293 136.842v-23.053h5.385v18.713h17.36v4.34zM414.41 136.842l-13.445-23.053h6.183l9.418 16.663 8.978-16.663h5.391l-12.785 23.053zM437.25 136.842v-23.053h5.414v23.053zM459.96 132.502h6.997q5.59 0 7.922-1.723t2.332-5.693q0-3.533-1.936-5.343-1.936-1.832-5.721-1.832h-9.594zm-5.414 4.34v-23.053h14.964q6.403 0 9.836 2.966 3.455 2.966 3.455 8.419 0 3.228-1.343 5.823-1.342 2.574-3.784 4.057-1.519.937-3.785 1.374-2.245.414-5.766.414zM492.725 136.842v-23.053h23.81v3.926h-18.397v5.147h10.738v3.926h-10.738v5.714h18.616v4.34zM526.26 119.241q0-3.14 1.188-4.296 1.189-1.156 4.577-1.156h17.12q3.389 0 4.577 1.156 1.188 1.156 1.188 4.296v12.149q0 3.162-1.188 4.318-1.188 1.134-4.577 1.134h-17.12q-3.388 0-4.577-1.134-1.188-1.156-1.188-4.318zm5.413 13.26h17.846v-14.59h-17.846zM623.881 117.824H608.82v4.95h14.344q3.374 0 4.549 1.157 1.197 1.155 1.197 4.296v3.163q0 3.14-1.197 4.296-1.175 1.156-4.55 1.156H608.95q-3.373 0-4.57-1.156-1.176-1.156-1.176-4.296v-.633l4.723-.981v2.726h16.26v-5.256h-14.344q-3.352 0-4.527-1.156-1.176-1.156-1.176-4.297v-2.552q0-3.14 1.176-4.296 1.175-1.156 4.527-1.156h13.06q3.243 0 4.462 1.112 1.24 1.113 1.24 3.948v.48l-4.723 1.112zM646.43 136.842v-10.316l-11.949-12.737h7.14l7.9 8.855 7.924-8.855h6.29l-11.906 12.606v10.447zM689.898 117.824h-15.062v4.95h14.344q3.374 0 4.549 1.157 1.197 1.155 1.197 4.296v3.163q0 3.14-1.197 4.296-1.175 1.156-4.55 1.156h-14.213q-3.373 0-4.57-1.156-1.176-1.156-1.176-4.296v-.633l4.723-.981v2.726h16.26v-5.256h-14.344q-3.352 0-4.528-1.156-1.175-1.156-1.175-4.297v-2.552q0-3.14 1.175-4.296 1.176-1.156 4.528-1.156h13.06q3.243 0 4.462 1.112 1.24 1.113 1.24 3.948v.48l-4.723 1.112zM716.736 117.911v18.931h-5.355v-18.931h-10.556v-4.122h26.51v4.122zM733.888 136.842v-23.053h23.55v3.926h-18.196v5.147h10.622v3.926h-10.622v5.714h18.414v4.34zM767.495 136.842v-23.053h4.331l10.84 13.936 10.6-13.936h4.288v23.053h-4.963V122.6q0-.414.044-1.047.065-.632.152-1.417-.435.894-.762 1.483-.326.567-.588.938l-8.64 11.515h-1.067l-8.663-11.56q-.48-.653-.827-1.22-.327-.59-.544-1.135.065.72.087 1.309.043.589.043 1.134v14.242z"
       id="path2" />
  </g>
  <path
     style="fill:#f9f9f9;stroke-width:0.319917"
     d="M 4.4788427,106.57285 V 96.485261 L 37.830225,96.364838 c 36.476447,-0.131707 35.615901,-0.08804 39.935799,-2.026693 3.570924,-1.602533 5.587958,-4.894332 5.936802,-9.688859 0.236752,-3.253912 -0.283798,-6.15171 -1.556522,-8.664862 C 80.806212,73.338247 78.707189,71.813658 75.020615,70.808811 72.551365,70.135765 71.701143,70.103556 50.866856,69.893799 27.952846,69.6631 27.226427,69.616309 20.96204,67.967475 11.928582,65.589798 5.7165143,60.490229 2.6720996,52.953021 0.61549507,47.86138 -0.15680246,42.458213 0.11042241,35.030948 0.6908563,18.898332 6.7917827,9.6334119 19.710069,5.2667536 23.121414,4.1136457 28.029707,3.1590191 32.791527,2.7225069 34.888796,2.5302519 49.7856,2.3998068 69.662,2.3996474 L 103.01338,2.39938 v 10.077396 10.077396 l -31.751793,0.01116 c -33.782247,0.01187 -34.309212,0.03338 -38.356432,1.565445 -3.4802,1.317418 -5.634221,3.46037 -7.051063,7.014831 -0.619218,1.553444 -0.72129,2.409587 -0.730211,6.124761 -0.009,3.764867 0.07831,4.510767 0.680936,5.814712 0.877252,1.898171 3.07033,4.288562 4.694994,5.117404 3.295466,1.68122 2.657442,1.636089 26.605433,1.881939 22.0716,0.226588 24.186823,0.329521 29.687072,1.444635 10.347147,2.097768 16.822804,7.374747 19.741854,16.087536 3.23929,9.668621 2.76747,23.526749 -1.08487,31.86463 -4.30875,9.325735 -12.309443,14.319545 -26.238827,16.377545 -3.075224,0.45435 -8.310118,0.54303 -39.140827,0.66309 l -35.5908033,0.13858 z"
     id="path3"
     transform="matrix(0.90000009,0,0,0.90000009,0,-1.5567711e-4)" />
  <path
     style="fill:#f9f9f9;stroke-width:0.319917"
     d="m 41.909171,139.18701 v -12.6597 l 8.877706,0.006 c 4.882738,0.003 9.885446,0.14808 11.117128,0.32132 3.025459,0.42554 6.446073,2.12243 8.126326,4.0313 4.639482,5.27073 3.316973,15.17044 -2.51424,18.82048 -2.879171,1.80221 -3.52262,1.889 -14.969669,2.01909 l -10.637251,0.12089 z m 18.406321,7.78588 c 4.761829,-0.88027 6.553348,-3.08221 6.540205,-8.03851 -0.0084,-3.15987 -0.629466,-4.79215 -2.369037,-6.22605 -1.83325,-1.51112 -2.980148,-1.70218 -10.217809,-1.70218 h -6.601168 v 8.15789 8.15789 h 5.379839 c 2.958911,0 6.229498,-0.15706 7.26797,-0.34904 z"
     id="path4"
     transform="matrix(0.90000009,0,0,0.90000009,0,-1.5567711e-4)" />
  <path
     style="fill:#f9f9f9;stroke-width:0.319917"
     d="M 4.4788427,139.16404 V 126.52731 H 17.435495 30.392147 v 2.07946 2.07946 H 20.154792 9.9174374 v 3.03922 3.03921 h 5.9184706 5.918471 v 1.91951 1.9195 H 15.835908 9.9174374 v 3.35913 3.35913 H 20.314751 30.712064 v 2.23942 2.23943 H 17.595453 4.4788427 Z"
     id="path5"
     transform="matrix(0.90000009,0,0,0.90000009,0,-1.5567711e-4)" />
  <path
     style="fill:#f9f9f9;stroke-width:0.319917"
     d="m 169.55619,118.65458 c -18.59866,-1.63009 -30.88313,-7.34716 -38.8977,-18.1026 -5.41896,-7.272153 -8.73395,-16.772313 -10.24852,-29.370373 -0.75939,-6.316483 -0.76131,-19.307721 -0.004,-25.083144 3.573,-27.238074 17.20803,-41.2787087 43.87129,-45.17633324 4.84037,-0.70756367 18.78099,-0.81405612 23.83384,-0.18206694 12.35726,1.54559148 21.84971,5.26374748 29.22455,11.44713818 4.17409,3.499743 8.56357,9.636175 11.14392,15.579055 3.98864,9.186365 5.59181,19.612586 5.28848,34.393609 -0.22793,11.106544 -1.08935,16.791735 -3.75616,24.789828 -5.99159,17.969527 -19.02959,28.032837 -40.3012,31.106287 -3.51997,0.50858 -16.71163,0.90038 -20.15479,0.5986 z M 183.9278,98.824615 c 6.51936,-1.119871 10.37013,-3.044263 14.59808,-7.295283 2.55272,-2.566642 3.11311,-3.348812 4.72242,-6.591279 2.14603,-4.323881 3.4092,-8.905587 4.22715,-15.332423 0.76509,-6.011541 0.53104,-18.330018 -0.45268,-23.824947 -2.10544,-11.76075 -6.94458,-19.303231 -14.88598,-23.201926 -5.07066,-2.489357 -12.20181,-3.594015 -19.02156,-2.946555 -14.31438,1.358992 -22.49448,8.800313 -25.75134,23.425626 -1.87886,8.437285 -2.02972,20.686239 -0.37394,30.363201 1.09866,6.42098 3.71338,12.925994 6.71788,16.71306 3.58662,4.520813 9.87876,7.847614 16.74859,8.855376 3.18696,0.467508 10.29657,0.380507 13.47138,-0.16485 z"
     id="path6"
     transform="matrix(0.90000009,0,0,0.90000009,0,-1.5567711e-4)" />
  <path
     style="fill:#f9f9f9;stroke-width:0.319917"
     d="m 290.6449,116.27326 c -6.38558,-0.27885 -12.16753,-1.18936 -16.26039,-2.5606 -9.59499,-3.21461 -18.20477,-10.30129 -23.52964,-19.367166 -6.24486,-10.63219 -8.6463,-27.415217 -6.56455,-45.878018 0.95599,-8.478615 2.73733,-15.126266 5.72257,-21.355585 2.26831,-4.733302 4.48555,-7.906379 8.00044,-11.449376 6.74759,-6.8015435 15.59098,-10.7321633 28.47264,-12.6552319 1.74036,-0.2598129 10.31409,-0.4250897 26.79308,-0.516493 L 337.51279,2.356374 v 9.601374 9.601373 l -22.63415,0.109484 -22.63415,0.109483 -3.11083,0.847367 c -9.43349,2.569622 -14.69457,8.33903 -17.33231,19.006972 -1.5144,6.124769 -2.11038,11.939366 -2.11077,20.593456 -8.6e-4,19.151781 4.33419,28.793766 14.6252,32.529201 5.07143,1.84083 4.42537,1.79894 29.76306,1.929725 l 23.43395,0.120958 v 9.902053 9.90205 l -20.71465,-0.0496 c -11.39305,-0.0273 -23.16201,-0.15643 -26.15324,-0.28705 z"
     id="path7"
     transform="matrix(0.90000009,0,0,0.90000009,0,-1.5567711e-4)" />
  <path
     style="fill:#f9f9f9;stroke-width:0.319917"
     d="M 355.42816,59.489723 V 2.369576 l 33.83126,0.1122169 c 30.34867,0.1006653 34.16933,0.1695423 37.11539,0.6690982 9.78581,1.6593538 15.09263,4.0390178 20.08397,9.0059679 2.49541,2.483222 3.12385,3.341296 4.56892,6.238388 2.08273,4.175507 3.13108,8.241117 3.63142,14.083035 1.09432,12.777068 -2.81963,24.226749 -10.39275,30.402501 -2.41203,1.96697 -6.88223,4.246211 -10.21362,5.207665 l -2.47094,0.713125 14.14882,23.584229 c 7.78185,12.971328 14.22119,23.582088 14.30964,23.579468 0.0884,-0.003 9.58747,-22.208888 21.10893,-49.347252 11.52147,-27.138366 22.37491,-52.689617 24.11876,-56.7805599 L 508.43861,2.39938 h 12.67888 12.67889 l 24.26708,56.705348 c 13.34689,31.187941 24.33624,56.885302 24.42077,57.105242 0.12145,0.316 -2.62226,0.39892 -13.07712,0.39522 l -13.23082,-0.005 -5.27864,-13.67178 -5.27863,-13.671783 h -25.09925 -25.09924 l -5.13294,13.674963 -5.13295,13.67497 -25.86495,-0.0785 -25.86495,-0.0785 -12.65576,-22.474193 -12.65576,-22.474192 h -14.34563 -14.34563 v 22.554172 22.554173 h -11.9969 -11.9969 z m 182.21298,9.212525 c -1.66133,-4.463973 -17.33946,-43.892228 -17.45555,-43.89823 -0.14601,-0.0075 -16.6602,43.010498 -16.8991,44.020694 -0.0865,0.3658 2.73362,0.437391 17.22978,0.437391 16.37393,0 17.32169,-0.03098 17.12487,-0.559855 z M 414.69335,51.330215 c 8.83583,-0.775192 13.09971,-3.031857 14.99166,-7.934359 0.97015,-2.513895 1.21379,-8.329518 0.47141,-11.252415 -1.38686,-5.4603 -4.80434,-7.948755 -12.50434,-9.105073 -2.54558,-0.382274 -6.77756,-0.480809 -20.71465,-0.48231 l -17.51547,-0.0019 V 37.110411 51.66665 l 15.75593,-0.0033 c 8.66576,-0.0018 17.44772,-0.151724 19.51546,-0.333133 z"
     id="path8"
     transform="matrix(0.90000009,0,0,0.90000009,0,-1.5567711e-4)" />
  <path
     style="fill:#f9f9f9;stroke-width:0.319917"
     d="M 601.44459,69.422062 V 22.234255 h -18.5552 -18.55521 V 12.476776 2.7192974 h 49.58719 49.58718 v 9.7574786 9.757479 h -18.71516 -18.71516 v 47.187807 47.187808 h -12.31682 -12.31682 z"
     id="path9"
     transform="matrix(0.90000009,0,0,0.90000009,0,-1.5567711e-4)" />
  <path
     style="fill:#f9f9f9;stroke-width:0.319917"
     d="m 715.49512,116.27027 c -13.5569,-0.593 -21.32311,-3.18637 -29.67851,-9.91053 -9.99672,-8.045048 -15.58648,-19.72132 -17.21172,-35.953008 -0.55488,-5.541685 -0.21744,-18.961068 0.61252,-24.359101 2.10136,-13.667201 6.13041,-22.899005 13.12563,-30.074884 5.42585,-5.56598 12.88781,-9.5613896 21.69789,-11.6178579 7.2671,-1.696302 7.88059,-1.7302537 33.76843,-1.8688109 L 762.04309,2.356374 v 9.778982 9.778982 l -20.23477,0.0083 c -25.67792,0.01047 -27.76996,0.200008 -33.72909,3.055763 -4.90014,2.348265 -8.28129,6.066596 -10.3272,11.357048 -1.0078,2.606046 -2.111,7.63188 -2.32949,10.612467 l -0.13485,1.839525 h 33.3777 33.3777 v 9.917437 9.917438 h -33.48024 -33.48024 l 0.19854,3.439111 c 0.88595,15.346111 6.84026,22.415619 20.53389,24.379732 1.32205,0.189628 11.24929,0.323805 24.23374,0.327545 l 21.99431,0.0063 v 9.917436 9.91744 l -20.55468,-0.0508 c -11.30508,-0.028 -23.00206,-0.15791 -25.99329,-0.28875 z"
     id="path10"
     transform="matrix(0.90000009,0,0,0.90000009,0,-1.5567711e-4)" />
  <path
     style="fill:#f9f9f9;stroke-width:0.319917"
     d="M 781.87797,106.55786 V 96.455077 l 30.952,-2.69e-4 c 18.45446,-1.57e-4 32.33321,-0.131246 34.37276,-0.324655 7.16457,-0.679412 10.68416,-2.541462 12.6892,-6.713258 0.79021,-1.64418 0.84566,-2.053203 0.84566,-6.238388 0,-4.271469 -0.0431,-4.572284 -0.93182,-6.496951 -1.50952,-3.269274 -4.13554,-5.115661 -8.82123,-6.202308 -0.87162,-0.202137 -9.94085,-0.424767 -22.87852,-0.561618 -20.05841,-0.212173 -21.67795,-0.271322 -25.22732,-0.921352 -16.47098,-3.016495 -24.05707,-11.20691 -25.50049,-27.531926 -0.85973,-9.723532 1.10297,-19.546463 5.13173,-25.683275 4.9607,-7.5564108 13.85259,-11.8199876 27.20084,-13.042548 2.2967,-0.2103538 16.27044,-0.3373733 37.19039,-0.3380558 l 33.51134,-0.00109 V 12.466801 22.534219 l -33.03147,0.102485 c -30.64945,0.09509 -33.16843,0.143801 -34.93083,0.675415 -2.73293,0.824369 -5.27147,2.19119 -6.70221,3.608663 -4.21587,4.176756 -4.90877,13.825368 -1.32982,18.517614 1.13764,1.491522 3.18576,2.842991 5.63904,3.720978 2.0437,0.731405 2.15366,0.735641 24.44715,0.941651 24.03049,0.222061 25.60637,0.321668 31.99609,2.022361 5.37952,1.431816 9.7062,3.880904 12.64894,7.159849 2.28948,2.55105 4.57468,7.342196 5.60298,11.747202 1.13169,4.84794 1.42279,13.363379 0.63947,18.706379 -1.98666,13.550834 -9.0495,21.446464 -22.156,24.768444 -7.35021,1.86298 -7.4121,1.8657 -45.92704,2.01658 l -35.43084,0.13879 z"
     id="path11"
     transform="matrix(0.90000009,0,0,0.90000009,0,-1.5567711e-4)" />
  <path
     style="fill:#f9f9f9;stroke-width:0.159959"
     d="m 674.88246,151.86767 c -1.59248,-0.15352 -2.88926,-0.73094 -3.56303,-1.5865 -0.51085,-0.64868 -0.8662,-1.96873 -0.99408,-3.69281 l -0.09,-1.21344 2.43512,-0.50782 c 1.33931,-0.2793 2.48909,-0.50705 2.55508,-0.50611 0.066,9.4e-4 0.11997,0.64954 0.11997,1.44134 v 1.43962 h 9.11764 9.11764 v -2.9508 -2.95081 l -9.15763,-0.0563 c -10.42739,-0.0641 -10.43589,-0.0651 -11.72969,-1.31075 -1.03343,-0.99499 -1.22005,-1.78627 -1.30375,-5.528 -0.12464,-5.57224 0.54775,-7.03688 3.53501,-7.7002 0.76414,-0.16968 2.99351,-0.21775 10.09828,-0.21775 9.05809,0 9.12526,0.002 10.28395,0.36652 2.01304,0.6326 2.81846,1.80096 3.02176,4.38342 0.0946,1.20183 0.0879,1.23297 -0.28604,1.32057 -0.21062,0.0493 -1.29678,0.30525 -2.41371,0.56868 -1.11692,0.26343 -2.10666,0.47897 -2.19943,0.47897 -0.10575,0 -0.16866,-0.53697 -0.16866,-1.43963 v -1.43963 h -8.39783 -8.39783 v 2.87204 2.87205 l 9.31759,0.0472 c 9.29074,0.0471 9.32021,0.0483 10.22492,0.41395 1.11575,0.45099 1.90777,1.29063 2.31175,2.45075 0.26177,0.75173 0.30001,1.36109 0.30001,4.78054 0,3.45323 -0.0371,4.03209 -0.31187,4.87069 -0.59667,1.82081 -1.77558,2.54151 -4.60519,2.81529 -1.81287,0.17541 -16.95783,0.15847 -18.81996,-0.0211 z"
     id="path12"
     transform="matrix(0.90000009,0,0,0.90000009,0,-1.5567711e-4)" />
  <path
     style="fill:#f9f9f9;stroke-width:0.159959"
     d="m 718.37438,146.30344 v -5.73727 l -6.55831,-6.98708 c -3.60707,-3.84289 -6.5583,-7.01963 -6.5583,-7.05942 0,-0.0398 1.70956,-0.0674 3.79902,-0.0613 l 3.79901,0.0111 4.39101,4.94335 c 4.22894,4.7609 4.40217,4.93325 4.69343,4.66966 0.16634,-0.15054 2.18336,-2.38003 4.48227,-4.95444 l 4.17983,-4.68073 h 3.35146 3.35147 l -0.38779,0.4203 c -0.21329,0.23117 -3.17707,3.37808 -6.58619,6.99313 l -6.1984,6.57282 v 5.80357 5.80356 h -2.87926 -2.87925 z"
     id="path13"
     transform="matrix(0.90000009,0,0,0.90000009,0,-1.5567711e-4)" />
  <path
     style="fill:#f9f9f9;stroke-width:0.159959"
     d="m 748.43172,151.87957 c -3.34164,-0.32023 -4.50403,-1.56242 -4.73369,-5.05868 -0.0541,-0.82414 -0.0628,-1.49844 -0.0193,-1.49844 0.0435,0 1.14533,-0.21594 2.44846,-0.47988 1.30312,-0.26393 2.43006,-0.47987 2.50431,-0.47987 0.0743,0 0.13501,0.64783 0.13501,1.43963 v 1.43962 h 9.11764 9.11764 v -2.95923 -2.95924 l -8.5178,-0.003 c -4.8038,-0.002 -9.00602,-0.0729 -9.63751,-0.16306 -1.46328,-0.20896 -2.70515,-0.81769 -3.20113,-1.56908 -0.75293,-1.14069 -0.90919,-2.27141 -0.85095,-6.15777 l 0.0531,-3.54396 0.47987,-0.95281 c 0.58433,-1.16019 1.29383,-1.74485 2.55934,-2.109 0.83965,-0.24161 2.0007,-0.28404 9.27761,-0.33907 8.84581,-0.0669 10.71138,0.0294 12.09459,0.62447 1.53946,0.66226 2.26544,1.95485 2.42919,4.32513 l 0.0738,1.06884 -2.42008,0.5724 c -1.33104,0.31482 -2.47406,0.57165 -2.54005,0.57074 -0.066,-9.2e-4 -0.11996,-0.64951 -0.11996,-1.4413 v -1.43963 h -8.47781 -8.47781 v 2.87926 2.87925 l 8.83771,0.003 c 9.69987,0.003 10.48018,0.0641 11.71698,0.91609 0.91062,0.62733 1.4769,1.84044 1.69962,3.641 0.25024,2.02309 0.10296,6.43988 -0.25711,7.71076 -0.56023,1.9773 -1.79525,2.82017 -4.52073,3.0853 -1.79312,0.17443 -16.94867,0.17356 -18.77103,-0.001 z"
     id="path14"
     transform="matrix(0.90000009,0,0,0.90000009,0,-1.5567711e-4)" />
  <path
     style="fill:#f9f9f9;stroke-width:0.159959"
     d="m 790.51574,141.48344 v -10.55727 h -5.83849 -5.8385 v -2.23942 -2.23942 h 14.63622 14.63622 v 2.23942 2.23942 h -5.91847 -5.91847 v 10.55727 10.55727 h -2.87926 -2.87925 z"
     id="path15"
     transform="matrix(0.90000009,0,0,0.90000009,0,-1.5567711e-4)" />
  <path
     style="fill:#f9f9f9;stroke-width:0.159959"
     d="m 815.46929,139.24402 v -12.79669 h 13.03663 13.03663 v 2.15944 2.15944 H 831.38518 821.2278 v 2.87926 2.87925 h 5.91847 5.91847 v 2.15945 2.15944 h -5.91847 -5.91847 v 3.19917 3.19917 h 10.23736 10.23735 v 2.39938 2.39938 H 828.5859 815.46929 Z"
     id="path16"
     transform="matrix(0.90000009,0,0,0.90000009,0,-1.5567711e-4)" />
  <path
     style="fill:#f9f9f9;stroke-width:0.159959"
     d="m 852.89962,139.24402 v -12.79669 h 2.28915 2.28914 l 6.03348,7.75799 c 3.31841,4.2669 6.08532,7.75365 6.14867,7.74835 0.0634,-0.005 2.74327,-3.47842 5.95535,-7.71801 l 5.84015,-7.70835 2.35773,-0.0443 2.35773,-0.0443 v 12.80097 12.80097 h -2.72977 -2.72978 l 0.0505,-9.27766 c 0.0278,-5.10272 0.0335,-9.27764 0.0127,-9.2776 -0.0208,3e-5 -0.27866,0.47786 -0.57306,1.06184 -0.29441,0.58397 -2.76076,4.03625 -5.48079,7.67173 -4.91666,6.57138 -4.94891,6.60999 -5.52787,6.61624 l -0.58236,0.006 -5.11737,-6.83823 c -2.81455,-3.76103 -5.31332,-7.21614 -5.55282,-7.67802 -0.2395,-0.46188 -0.44591,-0.83981 -0.45868,-0.83984 -0.0128,-3e-5 -7e-5,4.17489 0.0282,9.2776 l 0.0515,9.27766 h -2.33088 -2.33088 z"
     id="path17"
     transform="matrix(0.90000009,0,0,0.90000009,0,-1.5567711e-4)" />
  <path
     style="fill:#f9f9f9;stroke-width:0.159959"
     d="m 453.31519,139.60854 c -3.98748,-6.84277 -7.35282,-12.60336 -7.47855,-12.80131 l -0.22858,-0.3599 h 3.34219 3.34219 l 5.20469,9.21417 c 2.86258,5.0678 5.27187,9.20967 5.35396,9.20415 0.0821,-0.006 2.3807,-4.15111 5.10799,-9.21245 l 4.95872,-9.20244 2.83927,-0.002 c 1.56159,-9.4e-4 2.83679,0.0523 2.83375,0.11826 -0.003,0.066 -3.16345,5.8065 -7.02315,12.7567 l -7.01764,12.63673 -1.99244,0.0446 -1.99244,0.0446 z"
     id="path18"
     transform="matrix(0.90000009,0,0,0.90000009,0,-1.5567711e-4)" />
  <path
     style="fill:#f9f9f9;stroke-width:0.159959"
     d="m 485.95443,139.24402 v -12.79669 h 2.87926 2.87926 v 12.79669 12.79669 h -2.87926 -2.87926 z"
     id="path19"
     transform="matrix(0.90000009,0,0,0.90000009,0,-1.5567711e-4)" />
  <path
     style="fill:#f9f9f9;stroke-width:0.159959"
     d="m 505.14947,139.23027 v -12.81045 l 9.71749,0.0727 c 9.05888,0.0678 9.82048,0.0951 11.2371,0.40258 3.41228,0.74063 5.69375,1.9505 7.50037,3.97748 2.66936,2.99496 3.50031,8.33867 1.99822,12.85023 -0.95729,2.87524 -3.06024,5.33023 -5.67501,6.625 -2.86666,1.4195 -5.6081,1.68481 -17.46006,1.68978 l -7.31811,0.003 z m 19.37175,7.49546 c 1.88185,-0.50625 2.68528,-0.90476 3.6575,-1.81417 1.44786,-1.3543 2.07954,-3.14874 2.07954,-5.90748 0,-1.74334 -0.2839,-3.23693 -0.81205,-4.27219 -0.50098,-0.98201 -1.83263,-2.30837 -2.78573,-2.77468 -1.83275,-0.89668 -2.0488,-0.92023 -9.07422,-0.9893 l -6.51832,-0.0641 v 8.18249 8.18249 l 5.95846,-0.0649 c 5.80069,-0.0632 5.99915,-0.0758 7.49482,-0.47819 z"
     id="path20"
     transform="matrix(0.90000009,0,0,0.90000009,0,-1.5567711e-4)" />
  <path
     style="fill:#f9f9f9;stroke-width:0.159959"
     d="m 547.53852,139.24402 v -12.79669 h 13.11661 13.11661 v 2.15944 2.15944 h -10.15737 -10.15738 v 2.87926 2.87925 h 5.91847 5.91847 v 2.15945 2.15944 h -5.91847 -5.91847 v 3.19917 3.19917 h 10.31734 10.31733 v 2.39938 2.39938 h -13.27657 -13.27657 z"
     id="path21"
     transform="matrix(0.90000009,0,0,0.90000009,0,-1.5567711e-4)" />
  <path
     style="fill:#f9f9f9;stroke-width:0.159959"
     d="m 590.08753,151.93934 c -3.07582,-0.2445 -4.23594,-0.93945 -4.90438,-2.93784 -0.27163,-0.81206 -0.29428,-1.56308 -0.29428,-9.75748 0,-8.1944 0.0226,-8.94542 0.29428,-9.75748 0.5414,-1.61859 1.28998,-2.27023 3.14483,-2.73757 1.2928,-0.32573 23.34084,-0.32573 24.63364,0 1.81446,0.45717 2.56274,1.09012 3.14185,2.65759 0.27107,0.73372 0.2995,1.50134 0.34408,9.29081 0.041,7.16517 0.0101,8.67627 -0.198,9.6775 -0.27888,1.34184 -0.84789,2.28434 -1.66842,2.76356 -1.31883,0.77024 -1.64951,0.79115 -13.05656,0.82568 -5.89448,0.0178 -11.04115,0.007 -11.43704,-0.0248 z m 20.63466,-12.85528 v -8.15789 h -9.99741 -9.99742 v 8.15789 8.15789 h 9.99742 9.99741 z"
     id="path22"
     transform="matrix(0.90000009,0,0,0.90000009,0,-1.5567711e-4)" />
  <path
     style="fill:#f9f9f9;stroke-width:0.159959"
     d="m 375.90287,139.24402 v -12.79669 h 2.95924 2.95923 v 10.39731 10.39731 h 9.59752 9.59752 v 2.39938 2.39938 h -12.55675 -12.55676 z"
     id="path23"
     transform="matrix(0.90000009,0,0,0.90000009,0,-1.5567711e-4)" />
  <path
     style="fill:#f9f9f9;stroke-width:0.159959"
     d="m 333.30166,150.94438 c 0.33663,-0.60298 3.59929,-6.36059 7.25034,-12.7947 l 6.63829,-11.69837 2.79928,8e-4 2.79927,8.1e-4 7.27812,12.65278 c 4.00297,6.95903 7.30262,12.71779 7.33256,12.79725 0.0316,0.0839 -1.30655,0.12631 -3.19236,0.10113 l -3.24679,-0.0433 -1.52327,-2.75928 -1.52328,-2.75929 h -8.25838 -8.25839 l -1.48488,2.79928 -1.48488,2.79927 h -2.86885 -2.86884 z m 22.09984,-9.13511 c -0.2258,-0.65236 -5.52322,-10.38757 -5.63362,-10.35305 -0.17539,0.0548 -5.68364,10.03052 -5.69127,10.30715 -0.004,0.15632 1.23655,0.19995 5.68635,0.19995 3.57918,0 5.67207,-0.0572 5.63854,-0.15405 z"
     id="path24"
     transform="matrix(0.90000009,0,0,0.90000009,0,-1.5567711e-4)" />
  <path
     style="fill:#f9f9f9;stroke-width:0.159959"
     d="m 294.16399,139.24402 v -12.79669 l 1.95949,0.003 1.9595,0.003 9.51754,7.92807 c 5.23465,4.36043 9.98542,8.38849 10.55727,8.95125 l 1.03973,1.02319 -0.0538,-8.9538 -0.0537,-8.95379 h 2.5731 2.57311 v 12.79669 12.79669 h -1.90934 -1.90933 l -9.5677,-8.01335 c -5.26223,-4.40735 -10.01561,-8.45227 -10.56307,-8.98872 -0.54745,-0.53645 -1.02097,-0.9434 -1.05227,-0.90434 -0.0313,0.0391 -0.003,0.68286 0.0629,1.43067 0.0659,0.74781 0.12551,4.76077 0.13251,8.9177 l 0.0127,7.55804 h -2.63932 -2.63932 z"
     id="path25"
     transform="matrix(0.90000009,0,0,0.90000009,0,-1.5567711e-4)" />
  <path
     style="fill:#f9f9f9;stroke-width:0.159959"
     d="m 255.13408,151.94101 c -2.80647,-0.21656 -4.10784,-0.98862 -4.74427,-2.81458 -0.2725,-0.78181 -0.29443,-1.5181 -0.29443,-9.88241 0,-8.36431 0.0219,-9.1006 0.29443,-9.88241 0.51854,-1.48774 1.31879,-2.15259 3.14468,-2.61264 0.70902,-0.17864 3.09948,-0.22166 12.31682,-0.22166 10.60517,0 11.50685,0.0212 12.39679,0.29134 1.98479,0.6025 2.74676,1.53061 3.10959,3.7876 0.22257,1.3845 0.22257,15.89104 0,17.27554 -0.24016,1.49392 -0.79384,2.6117 -1.5358,3.1005 -1.43637,0.94628 -1.53529,0.95364 -13.25077,0.9853 -5.89448,0.0159 -11.04115,0.004 -11.43704,-0.0266 z m 20.63466,-12.85695 v -8.15789 h -9.99741 -9.99742 v 8.15789 8.15789 h 9.99742 9.99741 z"
     id="path26"
     transform="matrix(0.90000009,0,0,0.90000009,0,-1.5567711e-4)" />
  <path
     style="fill:#f9f9f9;stroke-width:0.159959"
     d="m 231.46019,139.24402 v -12.79669 h 2.87926 2.87925 v 12.79669 12.79669 h -2.87925 -2.87926 z"
     id="path27"
     transform="matrix(0.90000009,0,0,0.90000009,0,-1.5567711e-4)" />
  <path
     style="fill:#f9f9f9;stroke-width:0.159959"
     d="m 206.18672,141.48344 v -10.55727 h -5.83849 -5.83849 v -2.23942 -2.23942 h 14.7162 14.7162 v 2.23942 2.23942 h -5.91848 -5.91847 v 10.55727 10.55727 h -2.95923 -2.95924 z"
     id="path28"
     transform="matrix(0.90000009,0,0,0.90000009,0,-1.5567711e-4)" />
  <path
     style="fill:#f9f9f9;stroke-width:0.159959"
     d="m 160.4652,151.90072 c 0.0293,-0.077 3.28939,-5.8371 7.24457,-12.80025 l 7.19126,-12.66026 2.8056,0.0436 2.80561,0.0435 7.00583,12.15686 c 3.85321,6.68627 7.14807,12.42678 7.32192,12.7567 l 0.31609,0.59984 -3.24242,-0.004 -3.24241,-0.004 -1.51961,-2.7919 -1.51961,-2.7919 -8.26673,-0.004 -8.26674,-0.004 -1.49074,2.79828 -1.49074,2.79828 -2.8526,10e-4 c -1.56893,5.4e-4 -2.8286,-0.062 -2.79928,-0.139 z m 22.68747,-9.98186 c 0,-0.23094 -5.5585,-10.42653 -5.67853,-10.41575 -0.12632,0.0114 -5.83849,10.19086 -5.83849,10.40463 0,0.0306 2.59133,0.0556 5.75851,0.0556 3.16718,0 5.75851,-0.02 5.75851,-0.0445 z"
     id="path29"
     transform="matrix(0.90000009,0,0,0.90000009,0,-1.5567711e-4)" />
  <path
     style="fill:#f9f9f9;stroke-width:0.159959"
     d="m 130.84619,151.93514 c -2.77204,-0.19131 -4.10757,-0.98197 -4.74427,-2.80871 -0.27249,-0.78181 -0.29443,-1.5181 -0.29443,-9.88241 0,-8.39934 0.021,-9.09801 0.29763,-9.89204 0.59861,-1.71837 1.73049,-2.45633 4.20172,-2.73945 1.89385,-0.21697 17.03386,-0.21405 18.76979,0.004 2.3077,0.28936 3.32244,0.9115 4.02946,2.4705 0.31528,0.69517 0.37081,1.12517 0.42454,3.28728 l 0.0618,2.48749 -2.29547,0.35432 c -1.26252,0.19487 -2.56541,0.39858 -2.89533,0.45268 l -0.59984,0.0984 v -2.42031 -2.42031 h -8.15789 -8.15789 v 8.15789 8.15789 h 8.15789 8.15789 v -2.73641 c 0,-2.12288 0.0448,-2.71943 0.19995,-2.66067 0.10997,0.0417 1.41221,0.31929 2.89386,0.61696 l 2.6939,0.54122 -0.0602,2.79928 c -0.0536,2.49337 -0.10018,2.88899 -0.42611,3.62025 -0.70429,1.58016 -1.81556,2.21638 -4.29199,2.45725 -1.39627,0.1358 -16.14097,0.1812 -17.96505,0.0553 z"
     id="path30"
     transform="matrix(0.90000009,0,0,0.90000009,0,-1.5567711e-4)" />
  <path
     style="fill:#f9f9f9;stroke-width:0.159959"
     d="m 88.665587,151.87674 c -2.213974,-0.22535 -3.386807,-0.93154 -4.075833,-2.45416 l -0.371515,-0.82098 -0.04521,-11.07714 -0.04521,-11.07713 h 2.884473 2.884472 v 10.39731 10.39731 h 8.637769 8.637767 v -10.39731 -10.39731 h 2.88557 2.88557 l -0.0499,10.8372 c -0.0448,9.73948 -0.0777,10.91964 -0.32475,11.65113 -0.55527,1.64416 -1.17653,2.22417 -2.91793,2.72423 -0.85085,0.24433 -2.01413,0.27961 -10.316564,0.31285 -5.14667,0.0206 -9.947606,-0.0226 -10.668746,-0.096 z"
     id="path31"
     transform="matrix(0.90000009,0,0,0.90000009,0,-1.5567711e-4)" />
</svg>
