<?xml version="1.0" encoding="utf-8"?>
<!-- Generator: Adobe Illustrator 16.0.0, SVG Export Plug-In . SVG Version: 6.00 Build 0)  -->
<!DOCTYPE svg PUBLIC "-//W3C//DTD SVG 1.1//EN" "http://www.w3.org/Graphics/SVG/1.1/DTD/svg11.dtd">
<svg version="1.1" id="Layer_1" xmlns="http://www.w3.org/2000/svg" xmlns:xlink="http://www.w3.org/1999/xlink" x="0px" y="0px"
	 width="1000px" height="449.401px" viewBox="0 0 1000 449.401" enable-background="new 0 0 1000 449.401" xml:space="preserve">
<g>
	<polygon fill="#231F20" points="962.287,242.585 977.861,242.585 977.861,245.476 971.744,245.476 971.744,261.81 968.378,261.81 
		968.378,245.476 962.287,245.476 	"/>
	<polygon fill="#231F20" points="980.054,242.585 984.789,242.585 990.091,257.63 990.156,257.63 995.33,242.585 1000,242.585 
		1000,261.81 996.812,261.81 996.812,246.972 996.761,246.972 991.419,261.81 988.646,261.81 983.304,246.972 983.253,246.972 
		983.253,261.81 980.054,261.81 	"/>
	<g>
		<path fill="#231F20" d="M104.442,249.036c-15.271,0-30.099-1.1-44.438-2.162l-0.474-0.035c-0.001,0-4.452-0.338-4.646-0.348
			c-6.878-0.516-14.169-1.623-20.602-2.602l-31.066-4.955c-0.184-0.029-0.347-0.135-0.45-0.289
			c-0.104-0.156-0.137-0.348-0.092-0.529c0.808-3.281,19.403-78.855,21.595-86.844c-13.532-11.243-21.07-27.431-23.037-49.47
			c-0.335-3.797-0.506-7.485-0.506-10.961c0-19.997,5.262-37.4,15.641-51.728C36.994,10.472,71.709,4.447,99.649,2.398
			c4.431-0.327,9.073-0.492,13.797-0.492c17.139,0,34.208,2.188,48.646,4.33c10.555,1.552,28.276,5.827,28.451,5.869l22.077,5.458
			c0.175,0.043,0.325,0.156,0.417,0.312c0.091,0.156,0.115,0.342,0.065,0.516c0,0-4.235,15.095-9.09,32.447
			c20.715-28.051,55.788-46.947,92.507-49.614c4.377-0.321,8.761-0.484,13.029-0.484c40.655,0,75.481,14.831,98.301,41.809V2.657
			c0-0.368,0.299-0.667,0.667-0.667h119.097c0.246,0,0.471,0.135,0.586,0.351c0,0,12.148,22.525,17.635,32.697V2.657
			c0-0.368,0.299-0.667,0.668-0.667h213.73c0.178,0,0.348,0.07,0.473,0.195c0.123,0.125,0.195,0.295,0.195,0.472l-0.025,49.117
			c15.154-20.624,42.953-45.24,90.619-49.388c4.189-0.369,9.215-0.556,14.934-0.556c26.957,0,62.16,4.149,63.646,4.326l26.268,3.135
			c0.197,0.023,0.375,0.134,0.482,0.301c0.107,0.167,0.135,0.374,0.074,0.563l-7.998,25.23c-0.006,0.021-0.117,0.374-0.314,1.001
			c-4.273,13.636-14.721,47.373-19.375,66.112c0,0-3.078,12.375-6.082,24.52c0.25,0.763,0.996,2.995,0.996,2.995
			c9.297,27.59,17.41,54.79,24.92,80.285l6.443,23.936c0.049,0.182,0.018,0.375-0.084,0.535c-0.104,0.158-0.268,0.266-0.453,0.295
			l-43.518,7.074c-15.785,2.736-33.678,5.838-51.814,5.838c-0.002,0,0,0-0.002,0c-10.115,0-19.359-0.93-28.256-2.842
			c-29.412-6.344-53.758-21.13-70.539-42.815l-0.025,45.467c0,0.369-0.299,0.666-0.668,0.666H530.296
			c-0.254,0-0.486-0.145-0.6-0.373l-12.68-25.866v25.573c0,0.367-0.299,0.666-0.668,0.666H408.516c-0.368,0-0.667-0.299-0.667-0.666
			v-44.157c-23.453,27.85-60.631,44.625-99.864,44.965c-0.409,0.004-0.813,0.004-1.221,0.004c-21.291,0-42.12-4.707-60.233-13.611
			c-17.48-8.592-32.607-21.163-43.811-36.394c-2.626,5.358-5.684,10.289-9.099,14.67c-15.774,20.194-40.833,32.968-68.753,35.046
			C118.313,248.798,111.633,249.036,104.442,249.036z M54.964,245.159c0.012,0,0.347,0.021,4.666,0.348l0.473,0.035
			c14.315,1.063,29.118,2.16,44.339,2.16c7.157,0,13.805-0.236,20.326-0.725c27.546-2.051,52.258-14.639,67.8-34.535
			c3.567-4.577,6.741-9.769,9.432-15.429c0.101-0.213,0.308-0.357,0.542-0.378c0.234-0.022,0.463,0.083,0.602,0.275
			c23.056,32,60.824,50.354,103.619,50.354c0.404,0,0.805-0.002,1.209-0.004c39.508-0.344,76.9-17.504,100.026-45.905
			c0.178-0.219,0.473-0.304,0.741-0.207c0.266,0.094,0.444,0.346,0.444,0.628v45.341h106.5v-27.782c0-0.31,0.213-0.58,0.516-0.65
			c0.305-0.07,0.613,0.078,0.75,0.356l13.764,28.075h228.75l0.025-46.78c0-0.288,0.186-0.542,0.457-0.633
			c0.273-0.092,0.574,0.003,0.746,0.234c16.615,22.286,41.15,37.463,70.951,43.889c8.803,1.893,17.953,2.813,27.975,2.813
			c18.025,0,35.855-3.092,51.588-5.818l0.174-0.031l42.629-6.926l-6.246-23.207c-7.504-25.468-15.611-52.654-24.9-80.223
			c-0.002-0.002-0.906-2.709-1.061-3.188c-0.039-0.119-0.043-0.246-0.014-0.366c3.02-12.206,6.129-24.708,6.129-24.708
			c4.664-18.774,15.119-52.542,19.398-66.189c0.186-0.597,0.293-0.939,0.309-0.989l7.76-24.478l-25.467-3.04
			c-1.482-0.176-36.611-4.316-63.488-4.316c-5.68,0-10.666,0.186-14.816,0.551c-48.459,4.218-76.158,29.795-90.859,50.51
			c-0.168,0.237-0.467,0.34-0.748,0.249c-0.275-0.088-0.463-0.345-0.463-0.636l0.023-50.514H547.167v34.354
			c0,0.306-0.207,0.572-0.502,0.647c-0.301,0.074-0.605-0.062-0.752-0.331c-4.258-7.891-16.996-31.513-18.699-34.671H409.183v41.07
			c0,0.282-0.177,0.534-0.443,0.628c-0.266,0.093-0.562,0.012-0.741-0.207c-22.531-27.563-57.495-42.742-98.451-42.742
			c-4.235,0-8.587,0.161-12.932,0.48c-37.672,2.736-73.585,22.724-93.727,52.164c-0.184,0.271-0.536,0.366-0.833,0.228
			c-0.296-0.138-0.448-0.47-0.36-0.784c4.664-16.675,9-32.133,9.936-35.469L190.225,13.4c-0.171-0.042-17.831-4.301-28.327-5.845
			c-14.39-2.134-31.399-4.315-48.451-4.315c-4.692,0-9.301,0.164-13.7,0.488C72.096,5.757,37.754,11.7,17.449,39.895
			C7.237,53.991,2.06,71.132,2.06,90.841c0,3.437,0.168,7.085,0.5,10.843c1.95,21.846,9.438,37.82,22.891,48.833
			c0.208,0.17,0.293,0.447,0.218,0.705c-1.408,4.791-19.547,78.47-21.526,86.509l30.345,4.84c6.404,0.973,13.669,2.078,20.478,2.588
			C54.964,245.159,54.963,245.159,54.964,245.159z"/>
		<path fill="#FBAF33" d="M923.466,130.224c0,0-0.916-2.703-1.084-3.18c3.031-12.192,6.143-24.707,6.143-24.707
			c5.637-22.681,19.559-66.676,19.713-67.115l7.986-25.216L929.943,6.87c-2.09-0.251-51.762-6.116-78.43-3.774
			c-42.24,3.684-72.496,24.243-91.332,50.769l0.025-51.155H546.488v35.009c-4.555-8.463-18.875-35.009-18.875-35.009H408.529v41.724
			C383.603,13.939,344.033-1.542,296.593,1.941c-38.009,2.761-74.134,23.069-94.215,52.427
			c5.276-18.831,10.108-36.119,10.108-36.119l-22.063-5.458c-1.851-0.452-18.391-4.374-28.39-5.838
			c-19.663-2.936-40.854-5.419-62.296-3.832c-27.791,2.019-62.316,7.993-82.791,36.422C6.65,53.761,1.444,70.985,1.444,90.86
			c0,3.535,0.174,7.173,0.503,10.896c2.168,24.269,11.115,39.435,23.12,49.278c-1.49,5.103-21.694,87.217-21.694,87.217
			l31.048,4.928c6.793,1.033,13.818,2.09,20.546,2.594c0.052,0.014,4.651,0.361,4.651,0.361c20.875,1.561,42.447,3.16,65.238,1.484
			c27.745-2.092,52.62-14.76,68.276-34.803c3.761-4.826,6.896-10.044,9.496-15.541c22.83,31.662,61.29,50.961,105.376,50.602
			c35.764-0.311,75.133-14.953,100.524-46.125v45.968h107.82v-28.422l13.947,28.422h229.807l0.025-47.407
			c15.443,20.701,38.861,37.125,71.348,44.131c27.945,6.012,55.58,1.199,79.979-3.047l43.363-7.018l-6.451-23.92
			C940.871,185.018,932.781,157.853,923.466,130.224"/>
		<path fill="#231F20" d="M104.351,249.778c-15.462,0-30.436-1.121-44.917-2.203c-2.996-0.219-4.146-0.303-4.654-0.367l-0.001,0.006
			c-6.254-0.457-12.76-1.422-19.052-2.355l-1.594-0.236l-32.516-5.188l0.351-1.43c0.794-3.232,18.808-76.512,21.472-86.476
			c-13.472-11.381-20.977-27.64-22.931-49.666C0.17,98.047,0,94.33,0,90.815c0-20.136,5.299-37.68,15.751-52.142
			C36.559,9.79,71.47,3.722,99.561,1.661c4.45-0.328,9.111-0.494,13.854-0.494c17.189,0,34.291,2.192,48.752,4.337
			c10.591,1.556,28.351,5.839,28.525,5.882l23.436,5.8l-0.377,1.345c0,0-3.689,13.153-8.128,29.023
			c21.061-26.648,55.184-44.478,90.846-47.066C300.865,0.164,305.268,0,309.556,0c40.135,0,74.641,14.413,97.619,40.671V1.264
			h121.272l16.725,31.012V1.264h216.467l-0.023,48.414c15.49-20.382,43.209-43.952,89.883-48.028
			c4.195-0.368,9.217-0.554,14.93-0.554c24.361,0,54.801,3.289,63.549,4.296l0.248,0.029l27.928,3.336l-8.508,26.809
			c-0.133,0.413-14.006,44.297-19.678,67.084c0,0.001-3.057,12.257-6.047,24.338c0.295,0.881,0.945,2.799,0.945,2.8
			c9.262,27.494,17.387,54.771,24.918,80.353l6.85,25.414l-44.846,7.258c-15.848,2.764-33.828,5.9-52.125,5.9
			c-10.164,0-19.451-0.934-28.393-2.857c-28.877-6.238-52.891-20.563-69.711-41.529l-0.023,44.852H529.478l-11.748-23.975v23.975
			H407.175v-43.658c-23.647,27.172-60.423,43.479-99.186,43.799c-21.85,0.193-43.229-4.549-61.797-13.682
			c-17.229-8.475-32.185-20.792-43.379-35.706c-2.517,4.998-5.425,9.625-8.663,13.78c-15.886,20.35-41.128,33.229-69.256,35.334
			C118.299,249.538,111.58,249.778,104.351,249.778z M55.255,244.54c0.694,0.061,2.947,0.229,4.378,0.334
			c14.434,1.08,29.357,2.195,44.718,2.195c7.161,0,13.814-0.236,20.341-0.725c27.368-2.049,51.906-14.551,67.322-34.299
			c3.549-4.553,6.691-9.7,9.339-15.299l0.981-2.075l1.341,1.863c22.922,31.828,60.481,50.082,103.044,50.082
			c0.418,0,0.828,0,1.247-0.004c39.303-0.326,76.504-17.395,99.512-45.658l2.404-2.954v48.469h105.138v-27.107l2.57-0.596
			l13.574,27.703h227.662l0.027-50.188l2.438,3.273c16.5,22.153,40.896,37.249,70.547,43.655c8.752,1.881,17.854,2.795,27.822,2.795
			c18.063,0,35.92-3.115,51.676-5.863l41.898-6.781l-6.061-22.483c-7.514-25.527-15.633-52.775-24.877-80.221l0,0
			c0,0-0.92-2.716-1.076-3.196l-0.117-0.367l0.092-0.375c3.02-12.207,6.143-24.723,6.143-24.723
			c5.627-22.617,19.596-66.849,19.725-67.255l7.516-23.683l-24.914-2.976c-8.711-1.003-39.02-4.278-63.238-4.278
			c-5.633,0-10.576,0.183-14.693,0.543c-48.225,4.211-75.762,29.65-90.371,50.249l-2.461,3.47l0.027-54.093H547.88V37.64
			l-2.547,0.643l-18.502-34.31H409.883v44.192l-2.402-2.939c-22.414-27.417-57.191-42.517-97.924-42.517
			c-4.222,0-8.559,0.162-12.89,0.48c-37.474,2.721-73.194,22.604-93.223,51.892l-2.421-1.129c4.4-15.742,8.508-30.396,9.745-34.807
			l-20.72-5.128c-0.168-0.041-17.801-4.293-28.274-5.832c-14.366-2.13-31.344-4.308-48.357-4.308c-4.677,0-9.271,0.164-13.656,0.486
			c-27.503,2.017-61.658,7.92-81.811,35.895C7.835,54.25,2.708,71.26,2.708,90.815c0,3.436,0.167,7.072,0.498,10.809
			c1.919,21.631,9.322,37.455,22.63,48.376l0.692,0.568l-0.252,0.86c-1.363,4.646-18.632,74.833-21.328,85.795l31.175,4.955
			c6.243,0.928,12.698,1.885,18.852,2.334L55.255,244.54z"/>
		<path fill="#133C8A" d="M856.712,24.906c24.693-2.167,48.227-1.174,70.275,1.877c0,0,6.283,2.432,3.652,1.819
			c-6.605,22.437-14.205,44.814-20.076,68.463c-33.391-44.124-114.258,36.37-67.553,61.155c14.063,7.438,34.291,6.187,45.646-2.735
			c6.387-5.057,12.41-11.786,17.34-18.256c8.875,26.288,16.682,52.355,24.643,79.411c-27.301,3.677-60.381,13.042-91.268,6.386
			C727.011,198.81,740.029,35.079,856.712,24.906"/>
		<path fill="#133C8A" d="M104.626,24.958c20.423-1.503,41.396,1.258,57.51,3.658c9.328,1.361,28.461,5.986,26.462,5.47
			c-4.451,15.089-8.689,30.203-12.773,45.634c-13.237-1.967-67.58-7.915-73.934,1.838c-2.193,3.303-1.542,7.315-0.91,11.863
			c2.936,9.909,53.968,6.593,71.199,19.166c9.574,6.993,16.669,17.366,19.166,31.952c8.051,47.214-24.133,78.185-64.812,81.249
			c-22.816,1.676-45.317-0.265-66.625-1.838c-8.644-0.658-18.92-2.51-27.39-3.658c0-0.052,0.122-2.709,0-2.735
			c3.967-14.611,8.341-31.468,12.779-46.556c15.102,2.232,63.348,6.509,71.192-3.651c1.774-2.335,4.548-8.237,0.916-11.863
			c-6.516-6.522-16.65-5.309-26.159-6.522c-34.867-4.425-60.574-8.457-64.199-49.162c-1.793-20.056,2.419-35.687,10.954-47.453
			C51.465,33.654,74.481,27.151,104.626,24.958"/>
		<path fill="#133C8A" d="M433.713,24.603h84.093l53.854,99.828V24.603h62.986v201.442l-87.396-0.064l-49.518-101.55v101.615
			l-64.019-0.064C433.713,225.981,433.816,44.046,433.713,24.603"/>
	</g>
	<polygon fill="#133C8A" points="667.558,24.603 741.576,24.603 741.486,225.336 667.558,225.336 	"/>
	<g>
		<path fill="#133C8A" d="M353.98,122.58c-3.128,17.965-26.274,40.595-44.492,43.608c-15.127,2.471-25.475-1.503-32.939-8.902
			c-26.532-26.307,15.999-69.231,40.944-72.979C340.11,80.881,357.934,99.762,353.98,122.58 M410.948,86.97
			c-14.424-39.802-50.865-67.496-109.472-63.199c-35.996,2.613-66.703,23.313-80.998,48.059
			c-11.676,20.178-19.05,51.749-11.573,81.004c25.236,98.756,180.709,97.44,204.713-3.555
			C418.218,129.882,417.315,104.542,410.948,86.97"/>
		<path fill="#FFFFFF" d="M549.753,208.321c-0.754,0-1.479-0.42-1.83-1.144c-5.201-10.676-50.238-101.66-50.692-102.577
			c-0.499-1.007-0.086-2.228,0.92-2.726c1.007-0.499,2.228-0.086,2.727,0.92c0.453,0.918,45.496,91.913,50.703,102.601
			c0.492,1.01,0.07,2.228-0.939,2.72C550.355,208.255,550.052,208.321,549.753,208.321z M261.382,205.586
			c-0.319,0-0.643-0.076-0.945-0.234c-21.978-11.553-36.86-30.454-43.04-54.66c-7.323-28.714,1.166-58.079,10.661-74.501
			c14.047-24.329,43.099-41.496,74.013-43.735c29.112-2.148,53.208,3.708,71.619,17.408c0.901,0.671,1.088,1.945,0.417,2.847
			c-0.67,0.902-1.945,1.089-2.847,0.417c-17.604-13.1-40.781-18.689-68.892-16.614c-29.61,2.145-57.394,18.517-70.786,41.712
			c-9.113,15.761-17.262,43.931-10.241,71.459c5.886,23.059,20.061,41.063,40.99,52.064c0.995,0.523,1.377,1.753,0.854,2.748
			C262.821,205.19,262.113,205.586,261.382,205.586z M444.596,205.108C444.595,205.108,444.595,205.108,444.596,205.108
			c-1.125,0-2.035-0.912-2.035-2.035c0.013-28.391,0.033-77.759,0.033-117.67c0-20.596,0-38.684-0.02-50.056
			c-0.001-0.54,0.213-1.058,0.595-1.441c0.381-0.382,0.899-0.597,1.44-0.597h66.721c1.125,0,2.035,0.911,2.035,2.034
			s-0.91,2.035-2.035,2.035h-64.683c0.016,11.435,0.016,28.616,0.016,48.024c0,39.912-0.02,89.281-0.032,117.672
			C446.63,204.198,445.719,205.108,444.596,205.108z M678.511,202.979c-1.123,0-2.033-0.911-2.033-2.035V35.344
			c0-1.124,0.91-2.034,2.033-2.034h44.641c1.125,0,2.035,0.911,2.035,2.034s-0.91,2.035-2.035,2.035h-42.605v163.566
			C680.546,202.069,679.636,202.979,678.511,202.979z M84.608,186.842c-0.396,0-0.794-0.001-1.196-0.003
			c-7.063-0.035-14.671-0.389-22.615-1.052c-1.12-0.093-1.952-1.077-1.858-2.197c0.093-1.12,1.076-1.951,2.197-1.858
			c7.838,0.654,15.34,1.004,22.296,1.038c22.551,0.091,34.482-2.855,39.943-9.924c0.129-0.163,0.229-0.308,0.329-0.451l0.185-0.262
			c0.656-0.913,1.928-1.12,2.84-0.462c0.912,0.656,1.119,1.928,0.463,2.839l-0.153,0.218c-0.147,0.21-0.297,0.422-0.461,0.627
			C120.379,183.381,107.79,186.842,84.608,186.842z M300.85,179.929c-10.543,0-19.826-2.847-27.695-8.51
			c-0.912-0.656-1.119-1.928-0.463-2.839c0.657-0.912,1.928-1.12,2.84-0.463c9.518,6.849,21.404,9.168,35.332,6.894
			c16.685-2.758,36.687-18.465,46.523-36.535c0.537-0.987,1.772-1.352,2.76-0.814c0.987,0.537,1.352,1.773,0.814,2.76
			c-10.548,19.377-31.339,35.613-49.437,38.604C307.836,179.628,304.276,179.929,300.85,179.929z M785.238,176.151
			c-0.691,0-1.365-0.352-1.746-0.987c-9.297-15.478-13.771-34.531-12.594-53.651c2.531-40.229,30.32-83.021,86.695-87.944
			c18.92-1.656,38.395-1.455,57.881,0.597c1.117,0.118,1.928,1.119,1.809,2.236c-0.117,1.118-1.113,1.935-2.236,1.811
			c-19.229-2.026-38.439-2.224-57.1-0.59c-53.965,4.713-80.566,45.657-82.988,84.144c-1.127,18.303,3.143,36.523,12.021,51.303
			c0.578,0.963,0.266,2.213-0.695,2.792C785.955,176.057,785.595,176.151,785.238,176.151z M863.958,176.094
			c-9.348,0-18.783-2.099-26.881-6.393c-0.762-0.395-1.457-0.788-2.107-1.191c-0.955-0.593-1.248-1.847-0.654-2.802
			c0.592-0.955,1.846-1.248,2.801-0.656c0.561,0.349,1.166,0.69,1.852,1.045c17.285,9.165,41.051,7.616,55.295-3.592
			c0.883-0.695,2.162-0.542,2.855,0.34c0.695,0.883,0.543,2.162-0.34,2.857C888.066,172.56,876.085,176.094,863.958,176.094z
			 M582.599,148.482c-1.123,0-2.033-0.911-2.033-2.034V35.344c0-1.124,0.91-2.034,2.033-2.034h36.514
			c1.123,0,2.033,0.911,2.033,2.034s-0.91,2.035-2.033,2.035h-34.479v109.069C584.634,147.571,583.724,148.482,582.599,148.482z
			 M51.146,129.621c-0.398,0-0.8-0.117-1.152-0.36c-8.546-5.889-12.951-15.229-14.284-30.287c-1.51-16.933,1.624-30.916,9.312-41.56
			c10.332-14.352,28.313-21.466,60.121-23.784c0.021-0.001,0.042-0.003,0.063-0.004c18.521-1.359,37.626,0.92,55.514,3.588
			c0.764,0.12,1.59,0.256,2.521,0.413c1.108,0.186,1.856,1.235,1.669,2.343c-0.186,1.108-1.234,1.854-2.343,1.669
			c-0.915-0.153-1.727-0.288-2.462-0.403c-17.657-2.633-36.51-4.887-54.651-3.548c-0.022,0.002-0.043,0.003-0.065,0.004
			c-30.448,2.225-47.516,8.836-57.065,22.102c-7.1,9.83-9.979,22.889-8.56,38.819c1.233,13.926,4.982,22.088,12.54,27.296
			c0.925,0.638,1.158,1.904,0.521,2.83C52.429,129.313,51.793,129.621,51.146,129.621z M171.11,128.271
			c-0.552,0-1.102-0.223-1.503-0.663c-1.502-1.644-3.191-3.153-5.165-4.613c-6.092-4.452-23.986-6.779-35.827-8.319l-0.112-0.015
			c-21.016-2.717-36.202-4.68-40.039-17.624l-0.236-0.785c-0.324-1.076,0.285-2.211,1.361-2.535
			c1.078-0.324,2.211,0.285,2.535,1.361l0.239,0.793c3.087,10.413,17.171,12.234,36.664,14.754l0.114,0.015
			c13.708,1.783,30.769,4.001,37.712,9.075c2.167,1.603,4.102,3.333,5.759,5.148c0.758,0.83,0.699,2.116-0.13,2.874
			C172.091,128.096,171.6,128.271,171.11,128.271z"/>
	</g>
	<polygon fill="#231F20" points="941.994,34.499 947.451,14.643 927.75,12.353 943.773,16.082 	"/>
	<polygon fill="#231F20" points="942.986,228.808 932.111,232.923 946.638,229.942 942.201,214.976 	"/>
	<polygon fill="#231F20" points="749.046,239.206 726.714,242.741 752.929,242.741 752.929,217.382 	"/>
	<polygon fill="#231F20" points="538.232,239.013 525.755,225.072 536.076,242.585 563.751,242.585 	"/>
	<g>
		<path fill="#231F20" d="M159.453,232.923c16.385-6.955,32.093-26.359,40.706-40.654l-0.368-8.322
			C192.708,208.77,159.453,232.923,159.453,232.923"/>
	</g>
	<polygon fill="#231F20" points="14.591,231.478 17.313,209.467 10.392,233.374 33.918,237.013 	"/>
	<polygon fill="#231F20" points="197.307,46.769 205.125,22.249 180.767,16.449 200.835,24.242 	"/>
	<g>
		<path fill="#231F20" d="M407.729,62.825l0.039-10.521c-11.089-14.831-34.841-31.771-29.81-26.739
			C377.958,25.564,406.987,50.562,407.729,62.825"/>
	</g>
	<polygon fill="#231F20" points="416.87,239.013 412.903,216.369 412.903,242.585 439.119,242.585 	"/>
	<polygon fill="#231F20" points="439.674,8.192 413.457,8.192 413.457,34.402 417.076,12.037 	"/>
	<polygon fill="#231F20" points="552.435,23.706 556.332,12.037 579.89,8.192 552.435,8.192 	"/>
	<polygon fill="#231F20" points="753.652,33.292 753.652,7.728 727.435,7.728 750.259,10.914 	"/>
	<polygon fill="#231F20" points="511.666,216.95 507.873,239.36 485.462,242.612 511.666,242.612 	"/>
	<g>
		<path fill="#133C8A" d="M946.767,293.935c6.398-46.291,8.617-50.563-36.357-57.734c-49.311-7.883-53.543,4.527-70.135,75.578
			c-11.275,48.277-9.572,76.186,26.861,83.41c35.248,6.992,43.453,6.695,49.311,7.045c6.994,0.451,9.084,1.211,11.045-10.051
			c0.504-2.916,14.939-73.309,14.939-73.309l-48.691-7.768l-5.082,24.359l16.371,2.619l-1.045,5.006
			c-8.152,35.584-4.98,33.881-22.758,30.088c-13.74-2.916-13.393-16.309-4.258-58.691c12.012-55.711,13.443-56.316,27.738-54.02
			c12.85,2.039,15.547,2.605,11.689,27.945L946.767,293.935z M767.148,306.204c8.424-42.021,13.057-55.49,25.803-55.09
			c13.135,0.398,12.361,13.959,3.922,56.006c-8.412,42.021-13.055,55.479-26.189,55.066
			C757.949,361.798,758.736,348.226,767.148,306.204 M830.47,308.153c8.516-42.473,13.443-79.645-32.514-81.049
			c-42.666-1.304-54.65,29.391-64.404,78.068c-9.768,48.678-10.168,79.732,32.512,81.035
			C812.021,387.628,821.968,350.601,830.47,308.153 M628.738,378.946l29.441-3.42l9.908-57.168l23.301-1.871l-9.83,57.336
			l30.422-1.033l22.629-137.791l-29.982,2.285l-8.619,51.541l-23.289,1.859l8.916-52.293l-29.764,3.549L628.738,378.946z
			 M555.455,386.958l67.064-8.141l3.689-25.883l-40.512,5.65l4.361-29.66l36.434-6.297l3.664-24.682l-36.486,6.078l3.793-26.242
			l39.609-7.832l3.65-26.049l-66.379,11.973L555.455,386.958z M560.125,296.489c2.195-14.514,4.852-41.156-29.48-35.66
			c-37.641,5.986-44.298,33.621-50.652,75.527c-6.064,39.943-4.929,63,23.365,58.484c10.283-1.639,20.746-6.465,26.604-18.58
			l0.311-0.051l-1.227,12.076l18.191-2.891l10.412-68.598l-37.156,5.934l-3.045,20.051l12.488-1.988l-0.619,4.129
			c-2.672,17.547-7.25,27.365-16.256,28.797c-10.594,1.703-10.477-9.342-5.162-44.266c5.148-34.021,8.322-46.77,19.225-48.498
			c9.805-1.574,8.619,11.379,7.367,19.611L560.125,296.489z M428.849,306.683l7.425-2.064c14.082-3.896,15.024,3.432,10.295,32.887
			c-5.819,36.215-10.928,42.627-23.269,46.047l-7.122,1.986L428.849,306.683z M386.241,413.87l36.692-10.154
			c34.958-9.689,43.466-31.621,50.504-75.436c6.742-41.971-2.167-53.414-28.416-46.137l-39.37,10.914L386.241,413.87z
			 M314.688,429.714l60.368-14.412l4.225-22.693l-29.965,7.16l5.064-27.184l25.255-6.039l4.232-22.682l-25.262,6.039l4.438-23.869
			l27.984-6.682l4.226-22.682l-58.368,13.934L314.688,429.714z M227.787,449.401l25.894-6.219l9.67-49.697L284,388.53l-9.657,49.699
			l25.881-6.219l22.63-116.322l-25.894,6.217l-8.457,43.506l-20.663,4.955l8.47-43.506l-25.894,6.219L227.787,449.401z
			 M231.18,250.067l-59.625,10.762l-5.006,20.191l22.262-4.219l-13.289,54.832l19.501-4.773l12.851-53.879l18.314-3.328
			L231.18,250.067z M267.75,243.554l-5.999,26.396l-12.831,2.748l5.96-26.977l-18.191,3.057l-16.101,72.637l18.584-4.295
			l5.419-24.695l12.747-2.953l-5.348,24.693l18.03-4.064l15.856-69.514L267.75,243.554z M327.125,257.849l-2.483,11.986
			l-18.178,3.174l-2.646,12.541l17.508-3.355l-2.974,17.262l-37.944,8.322l12.986-68.418l37.944-5.961l-2.761,12.902l-16.553,3.045
			l-2.645,10.941L327.125,257.849z"/>
		<path fill="#EC1651" d="M938.742,289.962c6.4-46.318,8.605-50.576-36.357-57.75c-49.336-7.882-53.529,4.543-70.135,75.592
			c-11.275,48.268-9.572,76.186,26.863,83.41c35.221,6.98,43.451,6.684,49.309,7.045c6.994,0.451,9.084,1.213,11.045-10.051
			c0.49-2.928,14.939-73.307,14.939-73.307l-48.703-7.781l-5.07,24.371l16.359,2.619l-1.031,5.006
			c-8.168,35.584-4.98,33.881-22.76,30.088c-13.754-2.916-13.393-16.307-4.258-58.689c11.998-55.725,13.443-56.316,27.74-54.02
			c12.85,2.037,15.533,2.605,11.674,27.943L938.742,289.962z M759.109,302.218c8.426-42.008,13.07-55.477,25.818-55.09
			c13.133,0.412,12.359,13.973,3.92,56.02c-8.424,42.008-13.055,55.465-26.189,55.064
			C749.91,357.825,750.685,344.251,759.109,302.218 M822.445,304.153c8.516-42.447,13.443-79.624-32.512-81.023
			c-42.68-1.31-54.652,29.391-64.406,78.068c-9.754,48.68-10.166,79.721,32.5,81.023
			C803.996,383.628,813.929,346.626,822.445,304.153 M620.687,374.972l29.467-3.445l9.896-57.143l23.313-1.869l-9.83,57.334
			l30.436-1.031l22.615-137.791l-29.982,2.27l-8.633,51.557l-23.287,1.857l8.928-52.305l-29.777,3.561L620.687,374.972z
			 M547.429,382.983l67.064-8.154l3.689-25.881l-40.512,5.664l4.361-29.662l36.436-6.295l3.65-24.693l-36.475,6.088l3.793-26.268
			l39.596-7.805l3.652-26.049l-66.381,11.973L547.429,382.983z M552.087,292.503c2.193-14.516,4.852-41.143-29.48-35.648
			c-37.635,5.986-44.292,33.623-50.659,75.527c-6.051,39.932-4.916,63,23.384,58.484c10.296-1.639,20.746-6.463,26.578-18.578
			l0.322-0.051l-1.199,12.074l18.166-2.902l10.424-68.586l-37.17,5.936l-3.059,20.049l12.502-1.986l-0.617,4.115
			c-2.672,17.547-7.238,27.365-16.27,28.811c-10.593,1.676-10.458-9.342-5.161-44.268c5.161-34.035,8.335-46.768,19.249-48.498
			c9.807-1.574,8.619,11.379,7.354,19.611L552.087,292.503z M420.817,302.708l7.425-2.064c14.083-3.896,15.024,3.432,10.289,32.875
			c-5.812,36.229-10.921,42.641-23.262,46.059l-7.122,1.975L420.817,302.708z M378.209,409.896l36.693-10.166
			c34.958-9.689,43.459-31.609,50.504-75.438c6.741-41.969-2.167-53.4-28.416-46.123l-39.37,10.914L378.209,409.896z
			 M306.656,425.739l60.367-14.41l4.226-22.695l-29.964,7.148l5.058-27.172l25.262-6.037l4.231-22.695l-25.262,6.039l4.438-23.855
			l27.984-6.684l4.226-22.682l-58.368,13.934L306.656,425.739z M219.756,445.429l25.894-6.219l9.67-49.699l20.649-4.953
			l-9.657,49.697l25.881-6.219l22.629-116.322l-25.894,6.207l-8.458,43.516l-20.649,4.955l8.458-43.518l-25.894,6.232
			L219.756,445.429z M223.162,246.095l-59.639,10.76l-5.006,20.191l22.262-4.219l-13.289,54.834l19.501-4.775l12.85-53.877
			l18.314-3.328L223.162,246.095z M259.719,239.579l-6,26.385l-12.831,2.762l5.96-26.992l-18.191,3.07l-16.108,72.611l18.591-4.283
			l5.418-24.693l12.748-2.941l-5.354,24.693l18.037-4.064l15.856-69.527L259.719,239.579z M319.087,253.874l-2.484,11.986
			l-18.178,3.174l-2.639,12.541l17.501-3.367l-2.967,17.248l-37.944,8.336l12.985-68.406l37.944-5.961l-2.761,12.902l-16.553,3.045
			l-2.645,10.941L319.087,253.874z"/>
	</g>
</g>
</svg>
