<?xml version="1.0" encoding="UTF-8" standalone="no"?>
<svg
   width="587.869"
   height="162.097"
   version="1.1"
   id="svg20"
   sodipodi:docname="sufami.svg"
   inkscape:version="1.1 (c68e22c387, 2021-05-23)"
   xmlns:inkscape="http://www.inkscape.org/namespaces/inkscape"
   xmlns:sodipodi="http://sodipodi.sourceforge.net/DTD/sodipodi-0.dtd"
   xmlns="http://www.w3.org/2000/svg"
   xmlns:svg="http://www.w3.org/2000/svg">
  <defs
     id="defs24" />
  <sodipodi:namedview
     id="namedview22"
     pagecolor="#ffffff"
     bordercolor="#666666"
     borderopacity="1.0"
     inkscape:pageshadow="2"
     inkscape:pageopacity="0.0"
     inkscape:pagecheckerboard="0"
     showgrid="false"
     inkscape:zoom="1.7997206"
     inkscape:cx="294.21233"
     inkscape:cy="80.845881"
     inkscape:window-width="1920"
     inkscape:window-height="1017"
     inkscape:window-x="-8"
     inkscape:window-y="712"
     inkscape:window-maximized="1"
     inkscape:current-layer="svg20" />
  <g
     style="fill:#2930b4"
     id="g8">
    <path
       d="M100.841 53.151V47.67h10.038c8.331 0 10.185-.075 10.887-.441l1.33-.447c.26 0 1.352-.462 2.42-1.017 2.436-1.266 7.62-6.333 7.62-7.44l.606-2.25c.405-1.017.582-2.043.522-3.045l-.09-1.509-15.405-.075c-14.06-.069-15.438-.12-15.774-.576-.26-.351-.372-1.899-.372-5.166 0-3.843.081-4.743.465-5.124.411-.417 2.631-.465 19.962-.465 16.587 0 19.548.06 19.848.426.261.312.327 2.634.255 8.826-.08 7.404-.156 8.496-.612 9.192l-.525 1.317-.74 2.013-.733 2.025c0 .297 1.098 1.719 2.445 3.162 4.458 4.785 6.441 7.098 6.441 7.533l.372.672 1.086 1.047.375 1.557-.342.741h-10.008l-2.124-2.235c-1.167-1.233-2.268-2.556-2.445-2.94-.426-.936-1.266-1.113-2.058-.42l-.95.561-.78.432-4.86 2.529-1.513.591-2.145.771-1.143.45c-.09.144-5.064.261-11.106.261h-10.947z"
       id="path2" />
    <path
       d="M149.057 43.908c-1.077-.171-1.146-.561-1.047-5.865l.084-4.443 17.592-.081c12.75-.054 17.71.021 18 .261.312.255.405 1.404.405 4.854 0 3.843-.075 4.578-.492 4.923-.402.336-3.498.417-17.112.441-9.135.021-16.98-.021-17.43-.09zm245.172 0-.987-.927.13-9.162c.188-.291 4.088-.372 17.837-.372 17.097 0 17.61.015 17.91.576l-.114 9.369c-.405.555-.957.576-17.259.612-9.255.018-17.142-.021-17.517-.096zM189.76 58.164c-.358-.927-.202-10.656.173-11.031.267-.261 3.33-.357 11.973-.357 9.468 0 11.778-.075 12.46-.42.461-.231 1.838-.732 3.06-1.113 2.798-.867 4.622-2.1 5.855-3.963l.966-1.464-.075-4.593-.08-4.593-18.6-.075-18.6-.075-.286-.756c-.159-.417-.29-2.484-.29-4.59 0-3.441.06-3.897.596-4.428.582-.582.987-.591 22.938-.591 19.917 0 22.398.051 22.812.465.402.405.462 1.773.462 10.536 0 9.492-.036 10.185-.636 12.054a38.718 38.718 0 0 1-2.274 5.625c-.627 1.248-5.445 5.982-6.087 5.982l-.48.276c0 .612-3.057 2.055-5.775 2.724l-1.467.576c-.165.165-5.577.276-13.374.276-11.67.003-13.113-.048-13.272-.465zm49.616.057c-.23-.276-.315-1.779-.26-4.653l.083-4.242.741-.204c.405-.111 3.06-.216 5.895-.234l5.16-.03.987-1.107c.912-1.023.993-1.272.993-3.057 0-3.051-.36-2.91 7.746-3.012 6.528-.075 7.053-.126 7.665-.675l1.023-2.556c-.17-.531-.807-.555-15.834-.555-8.61 0-15.87-.081-16.125-.18V29.19c.255-.099 9.228-.18 19.938-.18 14.748 0 19.557.084 19.827.357.495.495.465 12.039-.039 13.866-.846 3.06-2.19 4.71-5.1 6.267l-1.764.948-5.556.126-5.556.12v1.509c0 2.559-1.314 4.629-3.723 5.85-1.047.537-1.764.585-8.45.585-5.872-.006-7.375-.087-7.65-.417zm89.241-24.633-45.546-3.987-1.422-1.557V21.36l1.422-1.311 45.546 3.981 1.428 1.563v6.684zm0 12.561-45.546-3.99-1.422-1.557v-6.687l1.422-1.308 45.546 3.981 1.428 1.563v6.684zm0 12.558L283.07 54.72l-1.422-1.56v-6.687l1.422-1.311 45.546 3.987 1.428 1.563v6.681zm49.305-36.897h-34.398c.045.822-.606 3.318-2.382 5.817a10.485 10.485 0 0 1-3.963 3.321v10.947c.837-.018 7.146-.255 11.148-5.535 2.8-3.696 2.83-7.695 2.787-8.967H377.6c-.006.921-.012 1.974-.012 3.168 0 1.173 0 2.112-.006 2.886-.012 2.127-26.469 1.653-26.469 1.653l-.039 6.948s24.294-.297 24.873.693c.303.519-.47 1.974-1.068 2.622-2.27 2.466-3.276 2.244-5.223 2.802-2.3.657-5 .552-15.54.615-11.463.075-13.335.144-13.563.531l.075 10.179c.192.09 7 .129 15.13.09 16.517-.069 14.942.114 19.847-2.343 1.878-.942 2.748-1.623 4.725-3.723 2.28-2.424 3.177-4.488 4.098-6.657.606-1.869.495-1.647.576-12.729.075-9.873.024-12.204-.276-12.408zm87.687 12.678h18.936c.561 0 1.02-.459 1.02-1.02V26.28a1.023 1.023 0 0 0-1.02-1.02h-18.936v-5.145a1.083 1.083 0 0 0-1.08-1.08h-10.824a1.083 1.083 0 0 0-1.08 1.08v5.145h-18.402a1.023 1.023 0 0 0-1.02 1.02v7.188c0 .561.46 1.02 1.02 1.02h18.402v25.209c0 .594.486 1.08 1.08 1.08h10.824c.594 0 1.08-.486 1.08-1.08z"
       id="path4" />
    <path
       d="M438.806 37.524s8.49.159 8.484 0l-.162 11.877c0 5.898-6.516 11.229-15.672 11.229 0 0-1.704-6.57-1.05-10.905 0 0 4.527.45 6.516-1.32 2.586-2.301 1.884-10.881 1.884-10.881zm41.127 0s-8.49.159-8.484 0l.162 11.877c0 5.898 6.516 11.229 15.672 11.229 0 0 1.704-6.57 1.05-10.905 0 0-4.527.45-6.516-1.32-2.586-2.301-1.884-10.881-1.884-10.881zm-6.495-14.088h-2.36a3.012 3.012 0 0 1-3.004-3.003 3.012 3.012 0 0 1 3.003-3.003h2.361a3.012 3.012 0 0 1 3.003 3.003 3.01 3.01 0 0 1-3.003 3.003zm10.098 0h-2.36a3.012 3.012 0 0 1-3.004-3.003 3.012 3.012 0 0 1 3.003-3.003h2.361a3.012 3.012 0 0 1 3.003 3.003 3.01 3.01 0 0 1-3.003 3.003z"
       id="path6" />
  </g>
  <g
     style="fill:#cb4414"
     id="g16">
    <path
       d="M99.386 50.721V45.24h10.038c8.331 0 10.185-.075 10.887-.441l1.33-.447c.26 0 1.352-.462 2.42-1.017 2.436-1.266 7.62-6.333 7.62-7.44l.606-2.25c.405-1.017.582-2.043.522-3.045l-.09-1.509-15.405-.075c-14.06-.069-15.438-.12-15.774-.576-.26-.351-.372-1.899-.372-5.166 0-3.843.081-4.743.465-5.124.411-.417 2.631-.465 19.962-.465 16.587 0 19.548.06 19.848.426.261.312.327 2.634.255 8.826-.08 7.404-.156 8.496-.612 9.192l-.525 1.317-.74 2.013-.733 2.025c0 .297 1.098 1.719 2.445 3.162 4.458 4.785 6.441 7.098 6.441 7.533l.372.672 1.086 1.047.375 1.557-.342.741h-10.008l-2.124-2.235c-1.167-1.233-2.268-2.556-2.445-2.94-.426-.936-1.266-1.113-2.058-.42l-.95.561-.78.432-4.86 2.529-1.513.591-2.145.771-1.143.45c-.09.144-5.064.261-11.106.261H99.386z"
       id="path10" />
    <path
       d="M147.602 41.481c-1.077-.171-1.146-.561-1.047-5.865l.084-4.443 17.595-.081c12.75-.054 17.71.021 18 .261.312.255.405 1.404.405 4.854 0 3.843-.075 4.578-.492 4.923-.402.336-3.498.417-17.112.441-9.135.018-16.98-.021-17.433-.09zm245.175 0-.987-.927.13-9.162c.188-.291 4.088-.372 17.837-.372 17.097 0 17.61.015 17.91.576l-.114 9.369c-.405.555-.957.576-17.259.612-9.258.018-17.142-.021-17.517-.096zM188.303 55.737c-.357-.927-.2-10.656.174-11.031.267-.261 3.33-.357 11.973-.357 9.468 0 11.778-.075 12.46-.42.461-.231 1.838-.732 3.06-1.113 2.798-.867 4.622-2.1 5.855-3.963l.966-1.464-.075-4.593-.08-4.593-18.6-.075-18.6-.075-.286-.756c-.159-.417-.29-2.484-.29-4.59 0-3.441.06-3.897.596-4.428.582-.582.987-.591 22.938-.591 19.917 0 22.398.051 22.812.465.402.405.462 1.773.462 10.536 0 9.492-.036 10.185-.636 12.054a38.718 38.718 0 0 1-2.274 5.625c-.627 1.248-5.445 5.982-6.087 5.982l-.48.276c0 .612-3.057 2.055-5.775 2.724l-1.467.576c-.165.165-5.577.276-13.374.276-11.67 0-13.11-.048-13.272-.465zm49.62.054c-.23-.276-.315-1.779-.26-4.653l.083-4.242.741-.204c.405-.111 3.06-.216 5.895-.234l5.16-.03.987-1.107c.912-1.023.993-1.272.993-3.057 0-3.051-.36-2.91 7.746-3.012 6.528-.075 7.053-.126 7.665-.675l1.023-2.556c-.17-.531-.807-.555-15.834-.555-8.61 0-15.87-.081-16.125-.18V26.76c.255-.099 9.228-.18 19.938-.18 14.748 0 19.557.084 19.827.357.495.495.465 12.039-.039 13.866-.846 3.06-2.19 4.71-5.1 6.267l-1.764.948-5.556.126-5.556.12v1.509c0 2.559-1.314 4.629-3.723 5.85-1.047.537-1.764.585-8.45.585-5.872-.006-7.375-.087-7.65-.417zm89.241-24.63-45.549-3.99-1.422-1.557v-6.681l1.422-1.314 45.55 3.984 1.424 1.563v6.681zm0 12.558-45.549-3.987-1.422-1.56v-6.687l1.422-1.308 45.55 3.984 1.424 1.563v6.681zm0 12.558-45.549-3.987-1.422-1.557v-6.69l1.422-1.311 45.55 3.987 1.424 1.563v6.684zm49.302-36.894h-34.398c.045.822-.606 3.318-2.382 5.817a10.485 10.485 0 0 1-3.963 3.321v10.947c.837-.018 7.146-.255 11.148-5.535 2.8-3.696 2.83-7.695 2.787-8.967h26.487c-.006.921-.012 1.974-.012 3.168 0 1.173 0 2.112-.006 2.886-.012 2.127-26.469 1.653-26.469 1.653l-.039 6.948s24.294-.297 24.873.693c.303.519-.47 1.974-1.068 2.622-2.27 2.466-3.276 2.244-5.223 2.802-2.3.657-5 .552-15.54.615-11.463.075-13.335.144-13.563.531l.075 10.179c.192.09 7 .129 15.13.09 16.517-.069 14.942.114 19.847-2.343 1.878-.942 2.748-1.623 4.725-3.723 2.28-2.424 3.177-4.488 4.098-6.657.606-1.869.495-1.647.576-12.729.075-9.873.024-12.204-.276-12.408zm87.687 12.675h18.936c.561 0 1.02-.459 1.02-1.02V23.85a1.023 1.023 0 0 0-1.02-1.02h-18.936v-5.145a1.083 1.083 0 0 0-1.08-1.08H452.25a1.083 1.083 0 0 0-1.08 1.08v5.145h-18.402a1.023 1.023 0 0 0-1.02 1.02v7.188c0 .561.46 1.02 1.02 1.02h18.402v25.209c0 .594.486 1.08 1.08 1.08h10.824c.594 0 1.08-.486 1.08-1.08z"
       id="path12" />
    <path
       d="M437.354 35.094s8.49.159 8.484 0l-.162 11.877c0 5.898-6.516 11.229-15.672 11.229 0 0-1.704-6.57-1.05-10.905 0 0 4.527.45 6.516-1.32 2.586-2.298 1.884-10.881 1.884-10.881zm41.124 0s-8.49.159-8.484 0l.162 11.877c0 5.898 6.516 11.229 15.672 11.229 0 0 1.704-6.57 1.05-10.905 0 0-4.527.45-6.516-1.32-2.586-2.298-1.884-10.881-1.884-10.881zm-6.492-14.088h-2.36a3.012 3.012 0 0 1-3.004-3.003A3.012 3.012 0 0 1 469.625 15h2.361a3.012 3.012 0 0 1 3.003 3.003 3.01 3.01 0 0 1-3.003 3.003zm10.098 0h-2.36a3.012 3.012 0 0 1-3.004-3.003A3.012 3.012 0 0 1 479.723 15h2.361a3.012 3.012 0 0 1 3.003 3.003 3.01 3.01 0 0 1-3.003 3.003z"
       id="path14" />
  </g>
  <path
     d="M98.43 40.561c-1.61 6.729-4.768 10.094-9.476 10.094-4.51 0-5.992-3.237-4.444-9.709l3.506-14.656h2.939l-3.31 13.837c-1.125 4.701-.338 7.052 2.362 7.052 2.6 0 4.443-2.267 5.528-6.801l3.37-14.087h2.938zm16.322-10.895h-6.617l-1.723 7.202h6.098l-.803 3.358h-6.098l-2.399 10.027h-2.939l5.733-23.963h9.556zm11.756 20.587h-3.223l-.133-6.099h-6.963l-2.99 6.099h-3.21l12.362-23.963h3.31zm-3.359-9.342-.169-9.558c0-.311.042-.813.125-1.503h-.05a15.595 15.595 0 0 1-.606 1.503l-4.719 9.558zm24.803 9.342h-2.913l3.71-15.508a86.02 86.02 0 0 1 1.287-4.662h-.049c-.432 1.047-.771 1.799-1.022 2.256l-9.569 17.914h-2.025l-1.043-17.78c-.023-.524.011-1.32.102-2.389h-.049c-.163.958-.505 2.523-1.024 4.696l-3.702 15.474h-2.717l5.733-23.963h4.136l.838 15.959c.061 1.225.073 2.139.035 2.74h.062a66.386 66.386 0 0 1 1.412-2.807l8.543-15.892h3.988zm7.372 0h-3.026l5.733-23.963h3.026zm29.48-20.587h-5.092l-4.931 20.587h-2.942l4.931-20.587h-5.081l.809-3.376h13.114zm13.62 10.895c-1.612 6.729-4.774 10.094-9.488 10.094-4.517 0-5.998-3.237-4.448-9.709l3.51-14.656h2.942l-3.314 13.837c-1.126 4.701-.337 7.052 2.364 7.052 2.605 0 4.45-2.267 5.536-6.801l3.374-14.087h2.942zm15.542 9.692h-3.437l-1.294-6.417a11.3 11.3 0 0 0-.386-1.513 4.08 4.08 0 0 0-.496-1.027 1.676 1.676 0 0 0-.681-.584c-.267-.123-.587-.184-.959-.184h-1.187l-2.329 9.725h-2.929l5.74-23.963h5.835c.832 0 1.566.134 2.202.401a3.564 3.564 0 0 1 1.54 1.211c.389.541.635 1.214.734 2.022.099.808.019 1.753-.24 2.832a10.904 10.904 0 0 1-.836 2.332 9.163 9.163 0 0 1-1.244 1.888 7.997 7.997 0 0 1-1.575 1.412 7.245 7.245 0 0 1-1.842.903l-.016.067c.263.245.478.515.648.81.167.295.32.599.461.911.141.311.267.665.383 1.061.114.396.238.855.368 1.379zm-5.801-20.738-1.865 7.787h2.449c.453 0 .894-.095 1.322-.285a4.04 4.04 0 0 0 1.193-.818c.365-.357.687-.791.966-1.304a6.99 6.99 0 0 0 .648-1.721c.275-1.147.22-2.044-.16-2.691-.38-.646-1.074-.969-2.079-.969h-2.474zm7.863 20.738 5.74-23.963h5.624c1.715 0 2.95.508 3.71 1.521.758 1.014.943 2.334.554 3.96-.326 1.36-.895 2.54-1.703 3.543-.808 1.003-1.767 1.716-2.873 2.139l-.016.067c1.175.19 2.002.8 2.487 1.83.482 1.031.525 2.37.13 4.019-.491 2.05-1.486 3.709-2.985 4.98-1.499 1.27-3.16 1.905-4.98 1.905h-5.688zm7.904-20.771-1.633 6.818h1.905c1.022 0 1.9-.326 2.637-.977.737-.652 1.248-1.573 1.534-2.765.491-2.05-.277-3.075-2.303-3.075h-2.14zm-2.397 10.009-1.817 7.587h2.509c1.097 0 2.025-.342 2.787-1.027.762-.685 1.287-1.63 1.575-2.832.595-2.484-.38-3.727-2.927-3.727h-2.127zm16.995 11.163c-2.555 0-4.332-1.12-5.334-3.359-.999-2.239-1.07-5.153-.211-8.739.923-3.854 2.443-6.93 4.558-9.225 2.115-2.295 4.516-3.442 7.203-3.442 2.488 0 4.227 1.114 5.212 3.342.987 2.228 1.05 5.141.188 8.739-.937 3.911-2.456 7.002-4.557 9.275-2.103 2.273-4.456 3.409-7.059 3.409zm5.231-21.273c-1.623 0-3.14.819-4.55 2.456-1.41 1.638-2.436 3.794-3.076 6.468-.638 2.662-.656 4.807-.057 6.433.598 1.627 1.699 2.44 3.297 2.44 1.697 0 3.221-.774 4.574-2.323 1.351-1.548 2.361-3.715 3.028-6.5.686-2.863.739-5.074.16-6.635-.577-1.559-1.703-2.339-3.376-2.339zm-158.85-.951c-.018.097-.045.21-.079.338a4.274 4.274 0 0 1-.137.403c-.056.14-.117.287-.186.439a2.823 2.823 0 0 1-.227.402 1.386 1.386 0 0 1-.259.284.446.446 0 0 1-.28.11c-.134 0-.301-.079-.507-.237a5.832 5.832 0 0 0-.809-.504 8.097 8.097 0 0 0-1.215-.503c-.475-.158-1.043-.238-1.703-.238-.734 0-1.396.113-1.988.338a5.109 5.109 0 0 0-1.554.915 4.942 4.942 0 0 0-1.629 2.826c-.097.537-.065 1.006.096 1.409.162.403.4.768.719 1.097.319.328.694.64 1.127.933.434.292.876.592 1.325.896.448.306.888.632 1.318.979.427.348.791.75 1.086 1.208.296.457.505.982.632 1.573.127.592.122 1.278-.02 2.058a7.983 7.983 0 0 1-1.159 2.918 9.238 9.238 0 0 1-2.225 2.378c-.896.677-1.928 1.213-3.091 1.609-1.164.397-2.42.595-3.764.595a9.744 9.744 0 0 1-3.626-.667 7.06 7.06 0 0 1-1.173-.585c-.311-.202-.531-.381-.657-.54-.129-.159-.164-.391-.108-.696.013-.073.041-.176.082-.31.042-.135.097-.281.161-.44.066-.158.131-.314.203-.466.069-.153.15-.292.239-.42s.18-.232.27-.311a.46.46 0 0 1 .302-.119c.193 0 .414.097.667.292.252.195.573.406.957.632a8.31 8.31 0 0 0 1.408.631c.553.195 1.225.293 2.018.293a7.18 7.18 0 0 0 2.316-.357 6.198 6.198 0 0 0 1.843-.969 5.45 5.45 0 0 0 1.295-1.436 5.05 5.05 0 0 0 .678-1.757c.1-.549.072-1.027-.081-1.436a3.24 3.24 0 0 0-.7-1.107 6.168 6.168 0 0 0-1.121-.915c-.436-.28-.876-.572-1.319-.878-.441-.304-.873-.63-1.29-.978a5.136 5.136 0 0 1-1.06-1.208 4.797 4.797 0 0 1-.623-1.573c-.128-.591-.12-1.284.023-2.076a7.637 7.637 0 0 1 1.05-2.707 8.68 8.68 0 0 1 1.986-2.214 9.49 9.49 0 0 1 2.757-1.5c1.039-.365 2.158-.548 3.36-.548.576 0 1.117.049 1.62.147.506.097.955.216 1.35.356.395.14.727.293.996.457.27.165.451.302.539.412.088.11.146.222.173.339.027.114.025.257-.006.428z"
     style="fill:#1e2881"
     transform="matrix(3 0 0 3 -179.377 -4.872)"
     id="path18" />
  <path
     style="fill:#0000ff;stroke-width:0.555642"
     d="m 82.231388,146.20134 c -7.262229,-2.37106 -9.845672,-7.34235 -9.26329,-17.82529 0.267037,-4.8067 1.355904,-10.14167 6.071896,-29.749631 l 5.746508,-23.892598 4.002839,-0.163253 c 2.581247,-0.105274 4.002839,0.0485 4.002839,0.432985 0,0.32793 -2.417439,10.652985 -5.372086,22.944566 -4.778336,19.878281 -5.375982,22.931751 -5.407341,27.626931 -0.05471,8.19223 2.231982,11.10657 8.717906,11.11075 3.812186,0.002 6.435657,-1.18676 9.391251,-4.25706 4.05235,-4.20963 5.6007,-8.73729 11.71449,-34.255342 l 5.68184,-23.715148 4.0284,-0.0011 c 2.21562,-6.18e-4 4.02841,0.153078 4.02841,0.341548 0,0.936465 -10.81157,45.265112 -11.75723,48.205982 -3.40413,10.58628 -9.19353,18.21607 -16.372951,21.57772 -3.281137,1.53634 -4.523784,1.8084 -8.820003,1.93098 -2.750427,0.0785 -5.627492,-0.0619 -6.393478,-0.31201 z"
     id="path896" />
  <path
     style="fill:#0000ff;stroke-width:0.555642"
     d="m 24.448239,145.87329 c -6.061365,-1.73758 -8.890269,-3.55578 -8.890269,-5.71396 0,-2.04727 2.148962,-6.24966 3.195862,-6.24966 0.480789,0 2.031901,0.74292 3.446916,1.65094 4.09847,2.62998 7.056276,3.49105 11.971222,3.48507 9.839484,-0.012 17.594228,-5.97311 18.440798,-14.17558 0.496435,-4.80999 -1.200919,-7.03021 -9.950903,-13.01624 -6.265547,-4.28638 -8.690477,-8.04257 -8.743327,-13.543323 -0.0959,-9.981441 8.61832,-20.111084 19.8083,-23.025703 8.524979,-2.220476 21.284804,0.484937 21.284804,4.512928 0,1.754742 -1.247504,4.732547 -2.37399,5.666733 -0.741471,0.614896 -1.211961,0.512339 -3.003193,-0.654635 -5.456496,-3.554861 -12.825262,-4.076304 -18.304125,-1.29527 -4.698541,2.384948 -7.954139,7.259111 -7.978071,11.944481 -0.02146,4.201642 1.787437,6.410729 9.808204,11.978099 7.2144,5.00766 9.209549,8.05067 9.175261,13.99415 -0.06301,10.92273 -9.718105,21.41661 -22.471376,24.42357 -4.199378,0.99013 -11.993884,0.99944 -15.416113,0.0184 z"
     id="path935" />
  <path
     style="fill:#0000ff;stroke-width:0.555642"
     d="m 122.0409,144.60578 c 0.13822,-0.53481 3.956,-16.47478 8.48395,-35.42217 l 8.23265,-34.449789 13.96752,-0.148451 c 10.98784,-0.116782 13.96481,0.0018 13.95483,0.555642 -0.007,0.387251 -0.46027,2.454365 -1.00732,4.593586 l -0.99462,3.889492 -9.97432,0.150938 -9.97431,0.150937 -2.44348,10.406257 c -1.34391,5.723438 -2.55488,10.718808 -2.69104,11.100808 -0.19168,0.53777 1.84383,0.69455 9.01742,0.69455 8.56425,0 9.24296,0.0735 8.97389,0.97238 -0.1601,0.5348 -0.70743,2.66013 -1.21628,4.72295 l -0.92519,3.75058 h -9.07912 -9.07912 l -0.55717,2.08366 c -0.30644,1.14601 -1.82621,7.45949 -3.37725,14.02996 -1.55105,6.57046 -2.95206,12.38386 -3.11337,12.91867 -0.24463,0.8111 -0.96961,0.97237 -4.37113,0.97237 -3.60897,0 -4.04895,-0.11181 -3.82654,-0.97237 z"
     id="path974" />
  <path
     style="fill:#0000ff;stroke-width:0.555642"
     d="m 157.77523,132.65948 c 3.66538,-7.10527 11.88994,-23.04524 18.27679,-35.422166 l 11.61245,-22.503493 4.74076,-0.159764 4.74077,-0.159764 0.32662,5.16054 c 0.17964,2.838297 0.70101,16.912365 1.15859,31.275707 0.45759,14.36334 0.96559,28.05296 1.12891,30.42139 l 0.29693,4.30622 h -4.73596 -4.73595 v -9.16809 -9.16809 H 179.75832 168.9315 l -4.41215,9.16809 -4.41214,9.16809 h -4.49816 -4.49816 z m 32.6109,-16.39143 c -0.18942,-1.14602 -0.34716,-8.81638 -0.35052,-17.045267 l -0.006,-14.961607 -8.33462,16.810364 c -4.58405,9.2457 -8.33463,16.91607 -8.33463,17.04527 0,0.12919 3.90832,0.23489 8.68515,0.23489 h 8.68515 z"
     id="path1013" />
  <path
     style="fill:#0000ff;stroke-width:0.555642"
     d="m 208.11017,144.29796 c 0.17671,-0.7041 3.99643,-16.64408 8.48825,-35.42216 l 8.16695,-34.141979 5.92283,-0.15724 5.92283,-0.15724 0.32162,3.491091 c 0.1769,1.9201 0.83124,13.992721 1.45409,26.828048 0.62286,12.83532 1.19129,23.96205 1.26319,24.72606 0.11101,1.1795 0.36662,0.92798 1.69406,-1.66693 0.85983,-1.68081 7.60611,-14.36599 14.99172,-28.189274 l 13.42838,-25.133246 5.76013,-0.0095 c 5.21364,-0.0086 5.73632,0.08271 5.50908,0.962829 -0.13809,0.534805 -3.96967,16.537289 -8.51463,35.561081 l -8.26357,34.58869 h -4.08956 c -3.63228,0 -4.05789,-0.10873 -3.80634,-0.97237 0.15577,-0.53481 2.69073,-11.09895 5.63324,-23.47587 4.66011,-19.6016 8.03409,-32.870843 8.99442,-35.37341 0.15688,-0.408815 0.071,-0.737407 -0.19095,-0.730205 -0.2619,0.0072 -1.04601,1.319906 -1.74247,2.917119 -0.69647,1.597214 -7.82257,15.216106 -15.83579,30.264216 l -14.5695,27.3602 -2.91712,0.005 c -2.89944,0.005 -2.91712,-0.006 -2.91712,-1.73569 0,-0.95748 -0.62274,-12.27173 -1.38387,-25.1428 -0.76113,-12.8709 -1.44874,-25.777136 -1.52802,-28.680364 l -0.14414,-5.278597 -0.69327,3.05603 c -0.3813,1.680816 -3.61763,15.370431 -7.19185,30.421381 l -6.49859,27.36536 h -3.79265 c -3.682,0 -3.78329,-0.0373 -3.47135,-1.28019 z"
     id="path1052" />
  <path
     style="fill:#0000ff;stroke-width:0.555642"
     d="m 278.19341,144.07381 c 0.22306,-0.85343 4.05978,-16.80406 8.52605,-35.44584 l 8.12048,-33.894149 4.27024,-0.162283 c 2.34863,-0.08926 4.26305,-0.08926 4.25427,0 -0.009,0.08926 -3.82376,16.039748 -8.47773,35.445542 l -8.46177,35.28325 -4.31855,0.16258 -4.31856,0.16258 z"
     id="path1091" />
  <path
     style="fill:#0000ff;stroke-width:0.555642"
     d="m 336.71893,145.1372 c 0,-0.24252 3.2505,-13.99838 7.22334,-30.56858 3.97284,-16.570196 7.22334,-30.248924 7.22334,-30.397171 0,-0.148246 -3.37552,-0.269538 -7.50116,-0.269538 -4.12564,0 -7.49977,-0.187529 -7.49807,-0.416731 0.002,-0.229203 0.23574,-1.291868 0.52008,-2.361478 0.28433,-1.06961 0.79265,-3.007411 1.1296,-4.306224 L 338.42869,74.456 h 19.14822 c 12.02164,0 19.14823,0.200922 19.14823,0.53985 0,0.296918 -0.41363,2.422248 -0.91917,4.722956 l -0.91917,4.183105 h -7.66716 -7.66716 l -0.48024,1.805836 c -0.26413,0.99321 -3.5889,14.869253 -7.38837,30.835653 l -6.90814,29.02981 -4.0284,0.002 c -2.21562,0.002 -4.0284,-0.19571 -4.0284,-0.43823 z"
     id="path1130" />
  <path
     style="fill:#0000ff;stroke-width:0.555642"
     d="m 381.48022,145.8964 c -2.85683,-1.06472 -4.74072,-2.49151 -6.28428,-4.75949 -1.93844,-2.84819 -2.49371,-5.85441 -2.2573,-12.22107 0.18785,-5.05904 0.99529,-9.0961 6.0301,-30.149573 l 5.8132,-24.30839 4.02841,-9.38e-4 c 2.21562,-5.16e-4 4.0284,0.167843 4.0284,0.374131 0,0.206288 -2.38489,10.354883 -5.29976,22.552433 -2.98497,12.490867 -5.44045,24.036837 -5.62186,26.434647 -0.38741,5.12063 0.37698,8.35488 2.54917,10.786 1.43011,1.60056 1.92902,1.78226 5.43842,1.98055 4.61175,0.26059 7.16948,-0.80036 10.31012,-4.27668 4.30871,-4.76922 5.41416,-8.06436 12.09174,-36.043079 L 417.51164,74.456 h 4.05499 c 2.23024,0 4.05498,0.102671 4.05498,0.228157 0,0.934227 -10.82773,45.275283 -11.74873,48.112683 -2.52352,7.77439 -6.9303,15.05457 -11.26054,18.60287 -4.13046,3.38461 -8.17475,4.87095 -13.89248,5.10572 -3.52431,0.14471 -5.71073,-0.0392 -7.23964,-0.60903 z"
     id="path1169" />
  <path
     style="fill:#0000ff;stroke-width:0.555642"
     d="m 422.10966,144.05014 c 0.21929,-0.84041 4.05957,-16.78039 8.53397,-35.42217 l 8.13525,-33.894149 h 11.34082 c 10.34177,0 11.50694,0.0979 13.22665,1.111284 2.91221,1.71611 4.99325,4.682164 5.72169,8.154991 0.84468,4.027075 -0.40465,10.779148 -2.95699,15.981175 -2.15363,4.389389 -7.41444,9.845279 -11.17933,11.593879 -1.45161,0.67421 -2.6393,1.36283 -2.6393,1.53028 0,0.16745 0.623,1.22128 1.38444,2.34184 1.90393,2.80188 3.19398,6.95622 6.03509,19.43478 l 2.43528,10.6961 h -4.8471 -4.84709 l -2.08008,-10.41828 c -2.44947,-12.2684 -3.25325,-14.89581 -5.18448,-16.94708 -1.26927,-1.34816 -1.84437,-1.52801 -4.88608,-1.52801 -3.12016,0 -3.47458,0.1187 -3.73292,1.25019 -0.15699,0.68761 -1.70823,7.18862 -3.44719,14.44669 l -3.16174,13.19649 h -4.1248 -4.1248 z m 29.43872,-37.96585 c 1.31177,-0.63501 3.05593,-1.94772 3.87592,-2.91712 3.77485,-4.46269 5.64194,-12.277908 3.84028,-16.074617 -1.40322,-2.95706 -3.69341,-3.824177 -9.58511,-3.629138 l -4.85366,0.160675 -2.63233,10.835015 c -1.44778,5.959255 -2.64324,11.272585 -2.65657,11.807385 -0.0382,1.53255 8.74448,1.39933 12.01147,-0.1822 z"
     id="path1208" />
  <path
     style="fill:#0000ff;stroke-width:0.555642"
     d="m 469.22066,144.92529 c 0.14086,-0.40494 3.77411,-15.48853 8.0739,-33.51911 4.29978,-18.030576 8.06913,-33.720512 8.37632,-34.866523 l 0.55852,-2.083657 10.39687,0.0122 c 11.76032,0.0138 13.43477,0.422316 16.6252,4.056006 2.08965,2.379981 2.63336,4.723725 2.23811,9.647717 -0.54128,6.743237 -5.92466,15.099867 -11.58897,17.989587 -1.18584,0.60497 -2.15607,1.21652 -2.15607,1.35901 0,0.14249 0.9285,0.64702 2.06332,1.12119 4.25408,1.77746 6.24341,5.13202 6.25251,10.54345 0.0167,9.93533 -5.98665,19.63594 -14.87138,24.03009 l -4.21592,2.08508 -11.00426,0.1806 c -8.95237,0.14692 -10.9565,0.0433 -10.74815,-0.55564 z m 22.16377,-8.83833 c 4.8276,-1.34048 9.07501,-7.43291 9.65707,-13.85197 0.58345,-6.4344 -2.79372,-9.0514 -11.3135,-8.76693 l -4.81232,0.16069 -2.68038,11.11283 c -1.47421,6.11206 -2.6885,11.30037 -2.69841,11.52957 -0.0275,0.63673 9.42005,0.48985 11.84754,-0.18419 z m 5.23681,-32.27901 c 5.37655,-1.35383 9.56843,-7.57305 9.56843,-14.196038 0,-5.037856 -2.44047,-6.505091 -10.24407,-6.158837 l -3.8542,0.171015 -2.37021,9.723731 c -1.30361,5.348053 -2.38216,10.036279 -2.39677,10.418289 -0.0347,0.90816 5.75288,0.93421 9.29682,0.0418 z"
     id="path1247" />
  <path
     style="fill:#0000ff;stroke-width:0.555642"
     d="m 529.86847,145.77862 c -3.78985,-1.1637 -8.10297,-5.54877 -9.72693,-9.88918 -1.75714,-4.69639 -2.38436,-10.64568 -1.72552,-16.36696 2.33824,-20.305038 12.42748,-37.663066 25.49977,-43.871071 3.64406,-1.730556 4.84608,-2.016832 9.28312,-2.210893 5.61212,-0.245454 8.18544,0.323818 11.4678,2.53691 8.18723,5.520149 10.01369,21.205205 4.50124,38.655184 -6.22484,19.70513 -19.02374,32.16351 -32.89324,32.01812 -2.03063,-0.0213 -4.91343,-0.41373 -6.40624,-0.87211 z m 16.209,-10.78621 c 4.55829,-2.2778 8.37522,-6.56368 11.51544,-12.93022 4.75724,-9.64491 7.07249,-23.592981 5.0634,-30.504035 -1.66512,-5.727785 -4.95731,-8.331866 -10.60065,-8.384957 -12.21592,-0.114925 -23.37122,16.114957 -24.56119,35.734142 -0.50912,8.394 1.50644,14.06539 5.90572,16.61756 3.14399,1.82393 8.40378,1.60301 12.67728,-0.53249 z"
     id="path1286" />
  <path
     style="fill:#0000ff;stroke-width:0.555642"
     d="m 80.250933,145.10686 c -2.722722,-1.26648 -5.406129,-4.37453 -6.27199,-7.26451 -0.989933,-3.30411 -0.755055,-11.53976 0.510576,-17.90259 0.997166,-5.01315 8.491043,-37.067937 10.016323,-42.844461 l 0.550186,-2.083657 h 3.590255 c 2.364053,0 3.590255,0.221298 3.590255,0.647948 0,0.356372 -2.11452,9.670318 -4.698934,20.697657 -5.618807,23.974683 -6.097241,26.622833 -5.689198,31.489973 0.565153,6.74114 2.654075,8.84066 8.796005,8.84066 4.356799,0 7.572565,-1.47464 10.195159,-4.67517 3.88848,-4.74539 5.49948,-9.77488 12.47377,-38.942709 2.19217,-9.16809 4.12483,-17.139594 4.2948,-17.714453 0.27418,-0.927316 0.6888,-1.005505 3.67623,-0.693256 1.85196,0.193568 3.48312,0.467866 3.62481,0.609551 0.29187,0.291875 -2.11957,10.676218 -7.74593,33.356127 -3.23783,13.05174 -4.30065,16.46674 -6.59765,21.19932 -3.30244,6.8041 -7.91564,11.88159 -13.084444,14.40131 -2.894554,1.41105 -4.016481,1.62839 -9.134111,1.7695 -4.791801,0.13213 -6.238381,-0.0271 -8.096112,-0.89124 z"
     id="path1399" />
</svg>
