<?xml version="1.0" encoding="UTF-8" standalone="no"?>
<svg
   enable-background="new 0 0 288.308 34.592"
   viewBox="0 0 288.308 34.592"
   version="1.1"
   id="svg33278"
   sodipodi:docname="supervision.svg"
   inkscape:version="1.1 (c68e22c387, 2021-05-23)"
   xmlns:inkscape="http://www.inkscape.org/namespaces/inkscape"
   xmlns:sodipodi="http://sodipodi.sourceforge.net/DTD/sodipodi-0.dtd"
   xmlns="http://www.w3.org/2000/svg"
   xmlns:svg="http://www.w3.org/2000/svg">
  <defs
     id="defs33282" />
  <sodipodi:namedview
     id="namedview33280"
     pagecolor="#ffffff"
     bordercolor="#666666"
     borderopacity="1.0"
     inkscape:pageshadow="2"
     inkscape:pageopacity="0.0"
     inkscape:pagecheckerboard="0"
     showgrid="false"
     inkscape:zoom="0.64871504"
     inkscape:cx="-227.37256"
     inkscape:cy="-111.75939"
     inkscape:window-width="1920"
     inkscape:window-height="1027"
     inkscape:window-x="-8"
     inkscape:window-y="712"
     inkscape:window-maximized="1"
     inkscape:current-layer="svg33278" />
  <path
     d="m237.745 34.592h7.01v-22.619l18.104 22.619h5.262v-34.592h-7.009v23.197l-18.109-23.197h-5.258z"
     fill="rgba(0, 0, 0, 0)"
     id="path33246" />
  <text
     fill="#ed1c24"
     font-family="ArialMT"
     font-size="1"
     transform="translate(213.4077 31.4396)"
     id="text33248">I don’t like bugs!</text>
  <path
     d="m218.031 10.405 12.57 24.032h-25.138z"
     fill="#ed2224"
     id="path33250" />
  <g
     fill="rgba(0, 0, 0, 0)"
     id="g33272">
    <path
       d="m200.652 18.757c0 4.502 1.457 8.631 3.884 11.864l4.378-8.369c-.433-1.266-.668-2.64-.668-4.082 0-6.149 4.314-11.136 9.638-11.136s9.638 4.987 9.638 11.136c0 1.31-.193 2.568-.554 3.735l4.438 8.485c2.323-3.197 3.71-7.238 3.71-11.632.001-10.361-7.715-18.758-17.232-18.758s-17.232 8.397-17.232 18.757z"
       id="path33252" />
    <path
       d="m190.43 0h7.009v34.583h-7.009z"
       id="path33254" />
    <path
       d="m4.088 24.255-4.088 4.162c7.2 9.724 21.888 7.732 21.888-4.456 0-6.633-4.482-8.814-10.228-10.974-8.452-3.176-1.694-11.447 5.28-5.178l3.445-4.214c-2.342-2.18-6.002-3.745-9.285-3.583-6.14.309-10.206 3.637-10.206 10.024 0 10.518 14.57 8.29 14.57 14.48 0 5.866-7.773 5.264-11.376-.261z"
       id="path33256" />
    <path
       d="m154.799 0h7.009v34.583h-7.009z"
       id="path33258" />
    <path
       d="m153.629 0h-7.594l-7.886 22.231-7.884-22.231h-7.594l13.434 34.583h4.09z"
       id="path33260" />
    <path
       d="m115.576 21.259c3.106-1.056 5.729-3.942 6.364-7.15.096-.483.405-2.116.405-3.266s-.314-2.753-.417-3.225c-.876-4.06-5.32-7.618-9.441-7.618h-11.431v34.583h7.009v-12.896h.67l7.509 12.896h8.764zm-5.172-5.434h-2.339v-9.963h2.339c2.902 0 5.255 1.776 5.255 4.689s-2.353 5.274-5.255 5.274z"
       id="path33262" />
    <path
       d="m78.858 0v34.583h18.11v-5.862h-11.1v-9.379h10.515v-5.861h-10.515v-7.619h10.515v-5.862z"
       id="path33264" />
    <path
       d="m54.91 0v34.583h7.009v-12.896h5.004c4.11 0 8.071-3.534 8.868-7.577.097-.483.408-2.116.408-3.266s-.314-2.753-.417-3.225c-.876-4.061-5.32-7.619-9.444-7.619zm7.009 15.825v-9.963h2.336c2.902 0 5.258 1.776 5.258 4.689s-2.356 5.274-5.258 5.274z"
       id="path33266" />
    <path
       d="m169.319 24.255-4.088 4.162c7.2 9.724 21.888 7.732 21.888-4.456 0-6.633-4.482-8.814-10.228-10.974-8.452-3.176-1.694-11.448 5.28-5.179l3.445-4.214c-2.342-2.18-6.002-3.745-9.285-3.583-6.14.309-10.206 3.638-10.206 10.025 0 10.518 14.57 8.29 14.57 14.48 0 5.866-7.773 5.264-11.376-.261z"
       id="path33268" />
    <path
       d="m43.575 0v22.359c0 3.323-2.694 6.016-6.016 6.016-3.323 0-6.016-2.693-6.016-6.016v-22.359h-7.009v21.554c0 7.195 5.833 13.029 13.029 13.029s13.029-5.833 13.029-13.029v-21.554z"
       id="path33270" />
  </g>
  <path
     d="m277.991 1.203h-2.43v6.132h-1.712v-6.132h-2.43v-1.161h6.573v1.161z"
     id="path33274" />
  <path
     d="m288.308 7.336h-1.599v-6.062l-2.086 6.062h-1.644l-2.089-6.062v6.062h-1.597v-7.294h2.739l1.769 5.273 1.769-5.315h2.739v7.336z"
     id="path33276" />
  <path
     style="fill:#ffffff;stroke-width:0.272503"
     d="M 7.711203,33.824326 C 5.5003545,33.095923 3.7981199,32.031786 1.8299768,30.147723 L 0.11741655,28.508324 2.0810611,26.531487 4.0447058,24.554649 5.1023545,25.756202 c 1.4736714,1.67418 4.1084879,2.939937 6.1506325,2.954742 2.813614,0.02041 4.224186,-1.335858 4.260918,-4.096855 0.03202,-2.407175 -0.362219,-2.716594 -8.0976577,-6.355372 C 2.6390151,16.01149 1.1132698,13.999523 1.1126883,9.946354 1.1122704,7.032563 1.7289778,5.2934063 3.4179258,3.4454279 5.3148909,1.3698459 7.3956505,0.47537678 10.678579,0.32424542 c 2.005223,-0.0923115 2.873004,-0.00161 4.360046,0.45571518 2.18089,0.6707121 5.067854,2.4400121 4.860988,2.9790971 -0.07692,0.2004621 -0.778607,1.1407196 -1.559294,2.0894611 L 16.920889,7.5735035 16.022952,6.8886134 C 12.257629,4.0166617 6.9168747,5.7671977 7.6875743,9.6206956 c 0.2913328,1.4566634 1.8883543,2.7056084 5.1209137,4.0047904 6.849814,2.752975 9.075482,5.57052 8.804175,11.145492 -0.196322,4.034129 -1.974458,6.87601 -5.338453,8.532097 -1.579794,0.777731 -2.093281,0.889427 -4.398846,0.956861 -1.9812077,0.05795 -2.9847466,-0.04703 -4.164161,-0.43561 z"
     id="path36570" />
  <path
     style="fill:#ffffff;stroke-width:0.272503"
     d="M 34.062856,33.952716 C 29.631848,32.545443 26.280139,29.106738 25.16108,24.819883 24.755618,23.266654 24.690822,21.484686 24.677216,11.513245 L 24.661508,0 h 3.406285 3.406286 v 11.862626 c 0,12.928738 0.0083,13.005843 1.581347,14.663233 1.211455,1.276421 2.715142,1.906963 4.549967,1.907936 2.454942,0.0014 4.246129,-1.067517 5.408451,-3.227281 0.571474,-1.061883 0.588646,-1.401183 0.665442,-13.148263 L 43.758116,0 h 3.395581 3.395581 l -0.0021,10.831988 c -0.0011,5.959801 -0.126296,11.628699 -0.278266,12.603257 -0.745846,4.782981 -4.333059,8.939448 -8.945351,10.364883 -2.006068,0.619979 -5.554309,0.694547 -7.260747,0.152588 z"
     id="path36609" />
  <path
     style="fill:#ffffff;stroke-width:0.272503"
     d="M 54.909324,17.139339 V -0.05668093 l 6.471943,0.11604385 c 7.680659,0.13771648 8.554827,0.35896609 11.239779,2.84475828 2.823986,2.614513 3.881952,6.0364983 3.151372,10.1930978 -0.448657,2.552614 -1.195608,4.050376 -2.834601,5.683851 -2.132917,2.125736 -3.386727,2.569861 -7.605259,2.693933 l -3.610663,0.106195 v 6.377079 6.377082 H 58.31561 54.909324 Z m 12.147363,-2.013323 c 1.442662,-0.845456 2.344309,-2.26845 2.506431,-3.955688 C 69.728444,9.4497494 69.250386,8.1091054 68.116523,7.1135604 66.980618,6.1162223 65.663319,5.7260767 63.425038,5.7240796 l -1.703143,-0.00152 V 10.9401 16.15764 l 2.088473,-0.176541 c 1.501463,-0.12692 2.413911,-0.367259 3.246319,-0.855083 z"
     id="path36648" />
  <path
     style="fill:#ffffff;stroke-width:0.272503"
     d="M 78.889575,17.167679 V 0 h 8.720091 8.720091 v 2.8612799 2.8612799 h -5.313806 -5.313805 v 3.9512913 3.9512909 h 5.313805 5.313806 v 2.719145 2.719144 l -5.24568,0.07401 -5.24568,0.07401 -0.07441,4.836925 -0.07441,4.836926 h 5.592597 5.592596 v 2.725028 2.725029 h -8.992594 -8.992594 z"
     id="path36687" />
  <path
     style="fill:#ffffff;stroke-width:0.272503"
     d="M 101.23481,17.167679 V 0 h 5.40001 c 6.0462,0 8.01839,0.26044114 9.98043,1.3179825 4.09159,2.2053788 6.13232,6.5287651 5.3765,11.3903885 -0.17703,1.138739 -0.55786,2.603912 -0.84629,3.255941 -0.70453,1.592706 -2.73176,3.710197 -4.31357,4.505628 -0.70988,0.356967 -1.33564,0.673549 -1.39059,0.703517 -0.0549,0.02997 1.93774,2.930124 4.42818,6.444791 2.49044,3.514668 4.52807,6.463839 4.52807,6.55371 0,0.08987 -1.82714,0.163401 -4.06032,0.163401 h -4.06032 l -3.67308,-6.335691 c -2.05589,-3.54621 -3.86754,-6.374483 -4.11476,-6.423798 -0.39725,-0.07924 -0.44169,0.558193 -0.44169,6.335692 v 6.423797 h -3.40629 -3.40628 z m 10.34964,-1.384628 c 2.68496,-0.61866 4.22406,-2.731978 4.04441,-5.553331 -0.19123,-3.0032101 -1.74529,-4.2698857 -5.46958,-4.4581252 l -2.1119,-0.1067429 v 5.2064081 5.206408 l 1.15814,-0.0067 c 0.63697,-0.0037 1.70749,-0.133243 2.37893,-0.287955 z"
     id="path36726" />
  <path
     style="fill:#ffffff;stroke-width:0.272503"
     d="m 135.14403,31.678456 c -0.5651,-1.461296 -3.56536,-9.186752 -6.66725,-17.167679 L 122.83698,0 h 3.6085 3.60851 l 0.29866,0.74938283 c 0.16427,0.41216057 1.89937,5.28655527 3.85579,10.83198817 1.95641,5.545433 3.61786,10.25344 3.6921,10.462237 0.0742,0.208797 0.20913,0.305484 0.29975,0.21486 0.0906,-0.09062 1.9159,-5.105197 4.05616,-11.143494 l 3.89139,-10.97872258 3.60142,-0.07627131 c 3.33961,-0.0707267 3.59212,-0.04101192 3.47349,0.40875427 -0.0704,0.26676408 -3.04723,7.99588532 -6.61528,17.17582462 l -6.48736,16.6908 h -1.97431 -1.97432 z"
     id="path36765" />
  <path
     style="fill:#ffffff;stroke-width:0.272503"
     d="M 154.91787,17.167679 V 0 h 3.40629 3.40628 v 17.167679 17.16768 h -3.40628 -3.40629 z"
     id="path36804" />
  <path
     style="fill:#ffffff;stroke-width:0.272503"
     d="m 173.65525,34.055076 c -1.71523,-0.42926 -4.6468,-2.051772 -6.15148,-3.404612 -2.3035,-2.071038 -2.30405,-2.084309 -0.17757,-4.227213 l 1.8358,-1.84997 1.31169,1.311691 c 1.78024,1.780245 3.94084,2.811183 5.92752,2.828337 2.6589,0.02294 4.10525,-1.170261 4.33656,-3.57762 0.24466,-2.546225 -0.88425,-3.716417 -5.4176,-5.615726 -4.02259,-1.685313 -5.02925,-2.236996 -6.41846,-3.517531 -2.0162,-1.858463 -2.40247,-2.854076 -2.40247,-6.1923294 0,-2.5772227 0.0752,-3.0144151 0.7575,-4.4037943 1.76424,-3.5925687 5.34758,-5.35661283 10.31372,-5.07735125 2.45829,0.13823693 4.95585,1.05727115 6.89712,2.53794815 l 0.95775,0.7305087 -1.54669,1.8800814 c -1.51505,1.8416323 -2.03599,2.1832018 -2.40905,1.5795717 -0.10215,-0.1652803 -0.81449,-0.5932744 -1.58298,-0.9510978 -3.36667,-1.5675929 -6.98355,-0.1811608 -6.98355,2.6769521 0,2.1305387 0.97483,3.0261477 5.36663,4.9304967 3.78509,1.641271 4.98716,2.388379 6.43649,4.000377 2.01409,2.240153 2.70756,5.267096 1.98873,8.68061 -0.50607,2.403211 -1.33319,3.897123 -3.017,5.449202 -1.89413,1.745947 -3.35367,2.288601 -6.41481,2.384991 -1.42382,0.04483 -3.04736,-0.03325 -3.60785,-0.173522 z"
     id="path36843" />
  <path
     style="fill:#ffffff;stroke-width:0.272503"
     d="M 190.61574,17.167679 V 0 h 3.40629 3.40628 v 17.167679 17.16768 h -3.40628 -3.40629 z"
     id="path36882" />
  <path
     style="fill:#ffffff;stroke-width:0.272503"
     d="m 204.03361,29.634685 c -0.6815,-0.847182 -2.01429,-3.898461 -2.49375,-5.709158 -0.73121,-2.761488 -0.91479,-5.176332 -0.57589,-7.575356 0.88966,-6.297547 4.39885,-11.5835498 9.45309,-14.2394778 2.58993,-1.36096998 4.64241,-1.86198707 7.64584,-1.86637445 8.64841,-0.0126336 15.87409,7.25980475 16.85716,16.96622325 0.34874,3.443353 -0.89473,8.739565 -2.73715,11.658154 l -0.75165,1.190684 -2.15663,-4.106449 c -2.10908,-4.01589 -2.15064,-4.132498 -1.88423,-5.287713 1.17404,-5.091071 -1.50035,-10.9446272 -5.92618,-12.9708352 -2.1638,-0.990622 -5.01422,-0.9997372 -7.14284,-0.022842 -4.19913,1.927114 -6.84902,7.2398242 -6.06887,12.1673032 0.15894,1.003823 0.33293,1.947759 0.38665,2.097635 0.11668,0.325547 -3.85028,8.038834 -4.13439,8.038834 -0.10843,0 -0.32046,-0.153282 -0.47116,-0.340628 z"
     id="path36921" />
  <path
     style="fill:#ffffff;stroke-width:0.272503"
     d="M 237.75874,17.167679 V 0 l 2.52065,8.3658375e-4 2.52065,8.3658625e-4 9.12884,11.70573383 9.12885,11.705734 0.071,-11.70657 L 261.19977,0 h 3.40339 3.40339 v 17.167679 17.16768 h -2.56313 -2.56314 l -8.93413,-11.172617 c -4.91378,-6.144939 -9.0333,-11.172617 -9.15449,-11.172617 -0.12119,0 -0.22035,5.027678 -0.22035,11.172617 v 11.172617 h -3.40629 -3.40628 z"
     id="path36960" />
  <path
     style="fill:#ffffff;stroke-width:0.0340629"
     d="M 273.88239,4.257857 V 1.1922 h -1.22626 -1.22626 V 0.63016284 0.06812571 h 3.27003 3.27004 V 0.63016284 1.1922 h -1.20923 -1.20924 v 3.065657 3.0656571 h -0.83454 -0.83454 z"
     id="path36999" />
  <path
     style="fill:#ffffff;stroke-width:0.0340629"
     d="M 279.29839,3.6958199 V 0.06812571 h 1.35841 1.35841 l 0.51025,1.50728139 c 0.28064,0.8290048 0.67702,2.0092827 0.88083,2.6228399 0.20382,0.6135572 0.38097,1.1155586 0.39368,1.1155586 0.0127,0 0.42036,-1.1917742 0.90589,-2.6483871 l 0.88279,-2.64838707 1.35117,-0.00890656 1.35116,-0.008906568 V 3.6613663 7.3235141 h -0.78344 -0.78345 l -10e-4,-3.0401099 c -6e-4,-1.7347743 -0.0137,-3.0181715 -0.0306,-2.9890157 -0.0223,0.03849 -1.27988,3.6710555 -2.01952,5.8332641 l -0.067,0.1958615 -0.80586,-2.044e-4 -0.80587,-2.044e-4 -1.0341,-3.0058525 c -0.56875,-1.6531993 -1.04776,-3.0203947 -1.06446,-3.0381926 -0.0178,-0.018966 -0.0304,1.2252535 -0.0304,3.0060471 v 3.0384068 h -0.78345 -0.78344 z"
     id="path37038" />
</svg>
