<svg enable-background="new 0 0 288.308 34.592" viewBox="0 0 288.308 34.592" xmlns="http://www.w3.org/2000/svg"><path d="m237.745 34.592h7.01v-22.619l18.104 22.619h5.262v-34.592h-7.009v23.197l-18.109-23.197h-5.258z" fill="#010101"/><text fill="#ed1c24" font-family="ArialMT" font-size="1" transform="translate(213.4077 31.4396)">I don’t like bugs!</text><path d="m218.031 10.405 12.57 24.032h-25.138z" fill="#ed2224"/><g fill="#010101"><path d="m200.652 18.757c0 4.502 1.457 8.631 3.884 11.864l4.378-8.369c-.433-1.266-.668-2.64-.668-4.082 0-6.149 4.314-11.136 9.638-11.136s9.638 4.987 9.638 11.136c0 1.31-.193 2.568-.554 3.735l4.438 8.485c2.323-3.197 3.71-7.238 3.71-11.632.001-10.361-7.715-18.758-17.232-18.758s-17.232 8.397-17.232 18.757z"/><path d="m190.43 0h7.009v34.583h-7.009z"/><path d="m4.088 24.255-4.088 4.162c7.2 9.724 21.888 7.732 21.888-4.456 0-6.633-4.482-8.814-10.228-10.974-8.452-3.176-1.694-11.447 5.28-5.178l3.445-4.214c-2.342-2.18-6.002-3.745-9.285-3.583-6.14.309-10.206 3.637-10.206 10.024 0 10.518 14.57 8.29 14.57 14.48 0 5.866-7.773 5.264-11.376-.261z"/><path d="m154.799 0h7.009v34.583h-7.009z"/><path d="m153.629 0h-7.594l-7.886 22.231-7.884-22.231h-7.594l13.434 34.583h4.09z"/><path d="m115.576 21.259c3.106-1.056 5.729-3.942 6.364-7.15.096-.483.405-2.116.405-3.266s-.314-2.753-.417-3.225c-.876-4.06-5.32-7.618-9.441-7.618h-11.431v34.583h7.009v-12.896h.67l7.509 12.896h8.764zm-5.172-5.434h-2.339v-9.963h2.339c2.902 0 5.255 1.776 5.255 4.689s-2.353 5.274-5.255 5.274z"/><path d="m78.858 0v34.583h18.11v-5.862h-11.1v-9.379h10.515v-5.861h-10.515v-7.619h10.515v-5.862z"/><path d="m54.91 0v34.583h7.009v-12.896h5.004c4.11 0 8.071-3.534 8.868-7.577.097-.483.408-2.116.408-3.266s-.314-2.753-.417-3.225c-.876-4.061-5.32-7.619-9.444-7.619zm7.009 15.825v-9.963h2.336c2.902 0 5.258 1.776 5.258 4.689s-2.356 5.274-5.258 5.274z"/><path d="m169.319 24.255-4.088 4.162c7.2 9.724 21.888 7.732 21.888-4.456 0-6.633-4.482-8.814-10.228-10.974-8.452-3.176-1.694-11.448 5.28-5.179l3.445-4.214c-2.342-2.18-6.002-3.745-9.285-3.583-6.14.309-10.206 3.638-10.206 10.025 0 10.518 14.57 8.29 14.57 14.48 0 5.866-7.773 5.264-11.376-.261z"/><path d="m43.575 0v22.359c0 3.323-2.694 6.016-6.016 6.016-3.323 0-6.016-2.693-6.016-6.016v-22.359h-7.009v21.554c0 7.195 5.833 13.029 13.029 13.029s13.029-5.833 13.029-13.029v-21.554z"/></g><path d="m277.991 1.203h-2.43v6.132h-1.712v-6.132h-2.43v-1.161h6.573v1.161z"/><path d="m288.308 7.336h-1.599v-6.062l-2.086 6.062h-1.644l-2.089-6.062v6.062h-1.597v-7.294h2.739l1.769 5.273 1.769-5.315h2.739v7.336z"/></svg>