<?xml version="1.0" encoding="UTF-8" standalone="no"?>
<svg
   height="183.359"
   viewBox="0 0 110.912 36.672"
   width="554.563"
   version="1.1"
   id="svg12"
   sodipodi:docname="taito-w.svg"
   inkscape:version="1.1 (c68e22c387, 2021-05-23)"
   xmlns:inkscape="http://www.inkscape.org/namespaces/inkscape"
   xmlns:sodipodi="http://sodipodi.sourceforge.net/DTD/sodipodi-0.dtd"
   xmlns="http://www.w3.org/2000/svg"
   xmlns:svg="http://www.w3.org/2000/svg">
  <defs
     id="defs16" />
  <sodipodi:namedview
     id="namedview14"
     pagecolor="#ffffff"
     bordercolor="#666666"
     borderopacity="1.0"
     inkscape:pageshadow="2"
     inkscape:pageopacity="0.0"
     inkscape:pagecheckerboard="0"
     showgrid="false"
     inkscape:zoom="1.9078085"
     inkscape:cx="277.01941"
     inkscape:cy="91.466202"
     inkscape:window-width="1920"
     inkscape:window-height="1017"
     inkscape:window-x="-8"
     inkscape:window-y="712"
     inkscape:window-maximized="1"
     inkscape:current-layer="svg12" />
  <path
     d="M24.625 11.328H0v4.803h9.357v19.822h5.91V16.131h9.358zM81.363 11.328H56.737v4.803h9.358v19.822h5.91V16.131h9.358zM48.959 35.954h5.91V11.329h-5.91z"
     fill="#4f4c4d"
     id="path2" />
  <g
     fill="#127bca"
     id="g8">
    <path
       d="M32.628 35.953h16.009l-10.659-19.61a28.706 28.706 0 0 0-5.35 19.61M17.854 35.953h8.371c.905-8.613 4.845-16.157 10.635-21.666l-3.615-6.652zM51.914 0a4.433 4.433 0 1 0 0 8.867 4.433 4.433 0 0 0 0-8.867"
       id="path4" />
    <path
       d="m45.346 9.258-.39-.716a34.772 34.772 0 0 0-8.096 5.745l1.118 2.057a28.94 28.94 0 0 1 7.368-7.086"
       id="path6" />
  </g>
  <path
     d="M96.138 32.12c-4.707 0-8.518-3.39-8.518-8.515s3.811-8.512 8.518-8.512 8.517 3.387 8.517 8.512-3.811 8.514-8.517 8.514m0-21.58c-8.468 0-14.775 5.256-14.775 13.066s6.307 13.067 14.775 13.067 14.775-5.257 14.775-13.067-6.307-13.066-14.775-13.066"
     fill="#4f4c4d"
     id="path10" />
  <path
     style="fill:#ffffff;fill-opacity:0.941176;stroke-width:0.524162"
     d="M 47.174545,129.73 V 80.196727 H 23.587273 0 V 68.665172 57.133616 H 61.326909 122.65382 V 68.665172 80.196727 H 99.328626 76.003434 V 129.73 179.26327 H 61.58899 47.174545 Z"
     id="path870"
     transform="matrix(0.2000011,0,0,0.2000011,-6.0323144e-4,0)" />
  <path
     style="fill:#ffffff;fill-opacity:0.941176;stroke-width:0.524162"
     d="M 245.30764,118.19844 V 57.133616 h 14.41444 14.41444 v 61.064824 61.06483 h -14.41444 -14.41444 z"
     id="path909"
     transform="matrix(0.2000011,0,0,0.2000011,-6.0323144e-4,0)" />
  <path
     style="fill:#ffffff;fill-opacity:0.941176;stroke-width:0.524162"
     d="M 330.74598,129.73 V 80.196727 H 307.42079 284.0956 V 68.665172 57.133616 h 61.3269 61.32691 V 68.665172 80.196727 H 383.16214 359.57487 V 129.73 179.26327 h -14.41445 -14.41444 z"
     id="path948"
     transform="matrix(0.2000011,0,0,0.2000011,-6.0323144e-4,0)" />
  <path
     style="fill:#ffffff;fill-opacity:0.941176;stroke-width:0.524162"
     d="m 468.60048,182.39593 c -32.8887,-4.54737 -55.55518,-24.60887 -60.60864,-53.64313 -1.24058,-7.12765 -0.75986,-19.84399 1.0048,-26.57995 7.63612,-29.148051 33.11947,-47.535697 67.99043,-49.058853 23.59807,-1.030758 45.17102,6.596563 59.49234,21.034086 11.85801,11.954214 17.58832,26.220177 17.58876,43.788277 2.8e-4,11.01173 -1.88682,19.48499 -6.31669,28.36252 -3.17268,6.3581 -5.99473,10.21822 -11.48875,15.71479 -7.70802,7.7116 -16.13756,12.85963 -26.96041,16.46509 -9.59048,3.19492 -14.59524,3.98626 -26.54947,4.19796 -5.90993,0.10466 -12.27849,-0.0217 -14.15237,-0.28079 z m 23.84936,-23.0424 c 17.72758,-4.56019 29.46813,-19.00041 30.92848,-38.04029 1.65647,-21.596964 -11.30772,-39.866472 -31.77055,-44.771937 -6.09392,-1.46087 -15.82616,-1.455951 -21.95896,0.0111 -8.54418,2.043884 -16.58726,6.940909 -22.15101,13.486623 -3.17713,3.737875 -6.86543,11.114134 -8.31433,16.627864 -1.58583,6.03481 -1.5897,16.06992 -0.009,22.53895 4.03845,16.52425 17.21333,28.53132 34.16378,31.13552 4.93253,0.75782 14.18412,0.27962 19.11129,-0.98783 z"
     id="path987"
     transform="matrix(0.2000011,0,0,0.2000011,-6.0323144e-4,0)" />
</svg>
