<?xml version="1.0" encoding="UTF-8" standalone="no"?>
<!-- Created with Inkscape (http://www.inkscape.org/) -->

<svg
   version="1.1"
   width="131.94724"
   height="47.6717"
   id="svg4426"
   sodipodi:docname="taito.svg"
   inkscape:version="1.1 (c68e22c387, 2021-05-23)"
   xmlns:inkscape="http://www.inkscape.org/namespaces/inkscape"
   xmlns:sodipodi="http://sodipodi.sourceforge.net/DTD/sodipodi-0.dtd"
   xmlns="http://www.w3.org/2000/svg"
   xmlns:svg="http://www.w3.org/2000/svg"
   xmlns:rdf="http://www.w3.org/1999/02/22-rdf-syntax-ns#"
   xmlns:cc="http://creativecommons.org/ns#"
   xmlns:dc="http://purl.org/dc/elements/1.1/">
  <sodipodi:namedview
     id="namedview20913"
     pagecolor="#ffffff"
     bordercolor="#666666"
     borderopacity="1.0"
     inkscape:pageshadow="2"
     inkscape:pageopacity="0.0"
     inkscape:pagecheckerboard="0"
     showgrid="false"
     inkscape:zoom="32.073427"
     inkscape:cx="106.86417"
     inkscape:cy="17.288455"
     inkscape:window-width="1920"
     inkscape:window-height="1027"
     inkscape:window-x="-8"
     inkscape:window-y="712"
     inkscape:window-maximized="1"
     inkscape:current-layer="svg4426" />
  <defs
     id="defs4428" />
  <metadata
     id="metadata4431">
    <rdf:RDF>
      <cc:Work
         rdf:about="">
        <dc:format>image/svg+xml</dc:format>
        <dc:type
           rdf:resource="http://purl.org/dc/dcmitype/StillImage" />
      </cc:Work>
    </rdf:RDF>
  </metadata>
  <g
     transform="translate(-537.24991,-199.59776)"
     id="layer1">
    <path
       d="m 571.87491,213.92596 -24.625,0 0,4.8025 9.3575,0 0,19.8225 5.91,0 0,-19.8225 9.3575,0 0,-4.8025 z"
       id="path3027"
       style="fill:#4f4c4d;fill-opacity:1;fill-rule:nonzero;stroke:none" />
    <path
       d="m 628.61328,213.92596 -24.62625,0 0,4.8025 9.3575,0 0,19.8225 5.91125,0 0,-19.8225 9.3575,0 0,-4.8025 z"
       id="path3031"
       style="fill:#4f4c4d;fill-opacity:1;fill-rule:nonzero;stroke:none" />
    <path
       d="m 596.20853,238.55146 5.91,0 0,-24.625 -5.91,0 0,24.625 z"
       id="path3033"
       style="fill:#4f4c4d;fill-opacity:1;fill-rule:nonzero;stroke:none" />
    <path
       d="m 579.87791,238.55116 0,0 16.00875,0 -10.65875,-19.61 c -3.96625,5.4725 -6.035,12.35375 -5.35,19.61"
       id="path3037"
       style="fill:#127bca;fill-opacity:1;fill-rule:nonzero;stroke:none" />
    <path
       d="m 565.10378,238.55116 8.37125,0 c 0.905,-8.61375 4.845,-16.1575 10.635,-21.66625 l -3.615,-6.6525 -15.39125,28.31875 z"
       id="path3041"
       style="fill:#127bca;fill-opacity:1;fill-rule:nonzero;stroke:none" />
    <path
       d="m 599.16378,202.59776 c -2.44875,0 -4.43375,1.985 -4.43375,4.4325 0,2.4475 1.985,4.4325 4.43375,4.4325 2.4475,0 4.4325,-1.985 4.4325,-4.4325 0,-2.4475 -1.985,-4.4325 -4.4325,-4.4325"
       id="path3045"
       style="fill:#127bca;fill-opacity:1;fill-rule:nonzero;stroke:none" />
    <path
       d="m 592.59641,211.85566 -0.39125,-0.71625 c -2.96125,1.51875 -5.6875,3.455 -8.095,5.745 l 1.1175,2.0575 c 2.0075,-2.7675 4.50125,-5.175 7.36875,-7.08625"
       id="path3049"
       style="fill:#127bca;fill-opacity:1;fill-rule:nonzero;stroke:none" />
    <path
       d="m 643.38741,234.71696 c -4.70625,0 -8.5175,-3.38875 -8.5175,-8.51375 0,-5.125 3.81125,-8.5125 8.5175,-8.5125 4.70625,0 8.5175,3.3875 8.5175,8.5125 0,5.125 -3.81125,8.51375 -8.5175,8.51375 m 0,-21.58 c -8.4675,0 -14.775,5.25625 -14.775,13.06625 0,7.81 6.3075,13.06625 14.775,13.06625 8.46875,0 14.775,-5.25625 14.775,-13.06625 0,-7.81 -6.30625,-13.06625 -14.775,-13.06625"
       id="path3053"
       style="fill:#4f4c4d;fill-opacity:1;fill-rule:nonzero;stroke:none" />
    <path
       d="m 658.4909,208.74057 c -1.79125,0.001 -3.24375,1.45375 -3.24375,3.245 0,1.79 1.4525,3.24125 3.245,3.24125 1.79125,-0.001 3.24375,-1.4525 3.2425,-3.2425 0,-1.79125 -1.4525,-3.24375 -3.24375,-3.24375 l 0,-0.4625 c 2.0475,-0.001 3.70625,1.6575 3.70625,3.70625 0.001,2.045 -1.6575,3.70625 -3.705,3.70625 -2.0475,0 -3.70625,-1.66 -3.7075,-3.705 0,-2.0475 1.65875,-3.7075 3.70625,-3.7075 l 0,0.4625 z"
       id="path3019-1"
       style="fill:#000000;fill-opacity:1;fill-rule:nonzero;stroke:none" />
    <path
       d="m 657.66202,211.79717 -10e-4,-1.04875 c 0,0 1.26875,-0.001 1.54,-0.001 0.32375,0 0.50625,0.28625 0.505,0.53125 0.001,0.25875 -0.23375,0.5175 -0.53,0.5175 -0.2975,0 -1.51375,0.001 -1.51375,0.001 l 0,0.62 0.90625,-0.001 1.0275,1.44375 0.77,0.006 -1.035,-1.4875 c 0.55625,0 1.01875,-0.54375 1.01875,-1.13875 0,-0.595 -0.515,-1.09875 -0.98125,-1.09875 l -2.3925,0 0,3.765 0.68625,0 0,-1.48875 0,-0.62 z"
       id="path3023-7"
       style="fill:#000000;fill-opacity:1;fill-rule:nonzero;stroke:none" />
  </g>
  <path
     style="fill:#ffffff;stroke-width:0.124714"
     d="m 19.393001,28.995966 v -9.91475 h -4.676769 -4.676768 v -2.369562 -2.369563 h 12.284312 12.284313 v 2.369563 2.369562 H 29.93132 25.254551 v 9.91475 9.91475 h -2.930775 -2.930775 z"
     id="path20970" />
  <path
     style="fill:#ffffff;stroke-width:0.124714"
     d="M 59.052,26.626403 V 14.342091 h 2.868418 2.868418 V 26.626403 38.910716 H 61.920418 59.052 Z"
     id="path21009" />
  <path
     style="fill:#ffffff;stroke-width:0.124714"
     d="m 76.137795,28.995966 v -9.91475 H 71.461026 66.784257 V 16.711654 14.342091 H 79.06857 91.352883 v 2.369563 2.369562 h -4.676769 -4.676769 v 9.91475 9.91475 H 79.06857 76.137795 Z"
     id="path21048" />
  <path
     style="fill:#ffffff;stroke-width:0.124714"
     d="m 104.26976,39.525773 c -3.90985,-0.402095 -7.206573,-1.941233 -9.574667,-4.470116 -1.60594,-1.71498 -2.745913,-4.056006 -3.102619,-6.371475 -0.214348,-1.391392 -0.08298,-4.187561 0.254877,-5.425052 1.410217,-5.16529 5.826196,-8.688004 11.900579,-9.493324 1.75811,-0.233085 4.14463,-0.174027 5.80395,0.143628 6.42202,1.229408 10.73444,5.650734 11.20983,11.492912 0.18833,2.314506 -0.18175,4.637921 -1.03178,6.477702 -1.22237,2.645663 -3.57725,4.95353 -6.33834,6.211801 -2.61086,1.189808 -6.12462,1.742161 -9.12183,1.433924 z m 3.76886,-4.547046 c 0.57519,-0.114035 1.43495,-0.421891 2.14066,-0.766514 2.85519,-1.394287 4.49879,-4.165226 4.49292,-7.57458 -0.004,-2.607218 -0.7291,-4.4458 -2.41763,-6.134331 -1.68727,-1.687269 -3.53321,-2.415465 -6.1231,-2.415465 -2.57086,0 -4.41465,0.726501 -6.11249,2.408491 -1.774879,1.758295 -2.52038,3.793717 -2.400072,6.552843 0.07873,1.80556 0.490756,3.145139 1.373174,4.464466 0.816129,1.220212 1.793198,2.065272 3.148548,2.723156 1.84516,0.89564 3.85035,1.147881 5.89799,0.741934 z"
     id="path21087" />
  <path
     style="fill:#ffffff;stroke-width:0.0311785"
     d="m 119.74087,12.424616 v -1.855119 l 1.27052,3.05e-4 1.27052,3.05e-4 0.16327,0.07601 c 0.20602,0.09592 0.41572,0.310179 0.52866,0.540164 0.0762,0.155264 0.0875,0.214471 0.0875,0.458871 0,0.250185 -0.0107,0.303114 -0.0983,0.488212 -0.1604,0.338555 -0.5134,0.61751 -0.78244,0.618319 -0.0557,1.67e-4 -0.10133,0.01452 -0.10133,0.03189 0,0.02489 0.84632,1.263161 0.97464,1.426008 0.0242,0.0307 -0.0459,0.03897 -0.33044,0.03897 h -0.36114 l -0.50788,-0.715601 -0.50787,-0.715601 -0.47547,-0.0015 -0.47547,-0.0015 v 0.732694 0.732694 h -0.32738 -0.32737 z m 2.34607,-0.235449 c 0.0643,-0.01784 0.1644,-0.08143 0.22255,-0.141318 0.23723,-0.244261 0.198,-0.624848 -0.0863,-0.837267 -0.0813,-0.06077 -0.13368,-0.06479 -0.95682,-0.07347 l -0.87077,-0.0092 v 0.547012 0.547013 l 0.78725,-1.75e-4 c 0.44904,-10e-5 0.83744,-0.01411 0.90407,-0.03261 z"
     id="path21126" />
  <path
     style="fill:#ffffff;stroke-width:0.0311785"
     d="m 120.83211,16.054974 c -1.26208,-0.156148 -2.32615,-0.907512 -2.89434,-2.043751 -0.47247,-0.944828 -0.50544,-2.103847 -0.0874,-3.070879 0.36172,-0.836649 1.10091,-1.5802232 1.9209,-1.9322849 2.08543,-0.8953859 4.44894,0.2552064 5.04317,2.4550999 0.0756,0.279718 0.083,0.35884 0.0846,0.8991 0.002,0.646106 -0.0241,0.814508 -0.2005,1.297935 -0.43715,1.197836 -1.51133,2.108327 -2.76878,2.346861 -0.32708,0.06205 -0.81233,0.08323 -1.09773,0.04792 z m 1.19548,-0.51049 c 0.73788,-0.187177 1.35847,-0.593373 1.79825,-1.177009 1.30056,-1.725971 0.63646,-4.174093 -1.35604,-4.9988906 -0.52324,-0.2165982 -1.21762,-0.2890511 -1.79729,-0.1875332 -1.24103,0.2173443 -2.25418,1.1466048 -2.58456,2.3705678 -0.0957,0.35451 -0.11914,1.052071 -0.0481,1.43023 0.26146,1.391364 1.37053,2.444324 2.77666,2.636183 0.32842,0.04481 0.87543,0.01159 1.21106,-0.07355 z"
     id="path21165" />
</svg>
