<?xml version="1.0" encoding="UTF-8" standalone="no"?>
<svg
   height="154.34302"
   viewBox="0 0 399.60679 30.868604"
   width="1998.0339"
   version="1.1"
   id="svg72"
   sodipodi:docname="tandy1k.svg"
   inkscape:version="1.1 (c68e22c387, 2021-05-23)"
   xmlns:inkscape="http://www.inkscape.org/namespaces/inkscape"
   xmlns:sodipodi="http://sodipodi.sourceforge.net/DTD/sodipodi-0.dtd"
   xmlns="http://www.w3.org/2000/svg"
   xmlns:svg="http://www.w3.org/2000/svg">
  <defs
     id="defs76" />
  <sodipodi:namedview
     id="namedview74"
     pagecolor="#ffffff"
     bordercolor="#666666"
     borderopacity="1.0"
     inkscape:pageshadow="2"
     inkscape:pageopacity="0.0"
     inkscape:pagecheckerboard="0"
     showgrid="false"
     inkscape:zoom="0.52952054"
     inkscape:cx="998.07272"
     inkscape:cy="76.484286"
     inkscape:window-width="1920"
     inkscape:window-height="1017"
     inkscape:window-x="-8"
     inkscape:window-y="712"
     inkscape:window-maximized="1"
     inkscape:current-layer="svg72" />
  <g
     fill="#646464"
     stroke-width="2.5"
     id="g60">
    <g
       transform="translate(-.22622 -12.791656)"
       id="g10">
      <path
         d="m268.25028 28.927518q0 7.497914-3.50822 11.137252-3.46436 3.595491-10.96318 3.595491-8.24432 0-12.01566-3.551643-3.90289-3.683186-3.90289-11.926506 0-7.58561 3.50822-11.400338 3.68363-3.990118 11.18245-3.990118 8.41973 0 12.0595 3.814728 3.63978 3.814729 3.63978 12.321134zm-14.99763 8.067931q3.85904 0 5.87626-2.630847 1.84182-2.41161 1.84182-6.401728 0-4.12166-1.92952-6.357881-2.06108-2.411609-6.13939-2.411609-3.81519 0-5.74471 2.543152-1.71026 2.23622-1.71026 6.18249 0 4.209356 1.71026 6.489423 1.97338 2.587 6.09554 2.587z"
         id="path2" />
      <path
         d="m234.20165 29.044802q0 7.429477-3.50259 11.035598-3.45882 3.562673-10.94561 3.562673-8.23108 0-11.99637-3.519226-3.89664-3.649568-3.89664-11.817648 0-7.516372 3.50259-11.296281 3.67773-3.953698 11.16452-3.953698 8.40622 0 12.04016 3.779909 3.63394 3.779909 3.63394 12.208673zm-14.97358 7.994291q3.85284 0 5.86684-2.606834 1.83886-2.389597 1.83886-6.343296 0-4.08404-1.92643-6.299849-2.05777-2.389598-6.12954-2.389598-3.80906 0-5.73549 2.519939-1.70751 2.21581-1.70751 6.126061 0 4.170935 1.70751 6.43019 1.9702 2.563387 6.08576 2.563387z"
         id="path4" />
      <path
         d="m200.33355 29.063619q0 7.400946-3.51781 10.993218-3.47383 3.548993-10.99313 3.548993-8.26685 0-12.04849-3.505712-3.91355-3.635553-3.91355-11.772265 0-7.487507 3.51781-11.2529 3.69368-3.938515 11.213-3.938515 8.44272 0 12.09245 3.765393 3.64972 3.765394 3.64972 12.161788zm-15.03861 7.963592q3.86958 0 5.89232-2.596823 1.84684-2.380422 1.84684-6.318937 0-4.068356-1.93479-6.275656-2.06671-2.380421-6.15615-2.380421-3.82562 0-5.76041 2.510262-1.71493 2.2073-1.71493 6.102535 0 4.154917 1.71493 6.405497 1.97877 2.553543 6.11219 2.553543z"
         id="path6" />
      <path
         d="m165.74915 43.648059h-7.67551v-24.153295h-6.47332l3.88399-6.423282h10.26484z"
         id="path8" />
    </g>
    <g
       transform="translate(-.22622 -12.791656)"
       id="g22">
      <path
         d="m125.98009 12.989989 6.74869 9.635394 6.21236-9.635394h8.75989l-11.21801 17.037128v13.620943h-7.46378v-13.533348l-11.57557-17.124723z"
         id="path12" />
      <path
         d="m116.30479 28.450409q0 2.759228-.48779 5.168078-.48779 2.365053-1.68509 4.423524-2.03985 3.416188-5.18832 4.642512-2.4833.96354-7.0508.96354h-14.855446v-30.658091l10.687055-.08759q1.108616 0 3.680601.08759 2.57199.0876 2.74937.0876 6.38562 0 9.48975 4.598713 2.66067 3.941754 2.66067 10.774129zm-17.516119-8.715657h-4.345774v17.387517l4.168394.0438q5.232669 0 7.361209-1.620499 2.4833-1.883283 2.4833-7.007563 0-5.124281-2.30592-7.051361-2.0842-1.751891-7.361209-1.751891z"
         id="path14" />
      <path
         d="m76.684975 38.47998v-25.490021h6.754431v30.658101h-11.622885l-8.771987-24.789265v24.789265h-6.754431v-30.658101h11.096565z"
         id="path16" />
      <path
         d="m27.466624 12.989964-3.426199 6.044024h-7.19079v24.614071h-7.0638943v-24.614071h-9.55952078v-6.044024z"
         id="path18" />
      <path
         d="m54.146743 43.64806h-7.719349l-2.105277-5.562256h-7.061451l-3.552654-6.044025-4.473714 11.606281h-7.938649l11.359724-30.658101h10.307086zm-12.017623-12.131848-4.122834-11.562485-4.166695 11.562485z"
         id="path20" />
    </g>
    <g
       stroke="none"
       transform="matrix(1.0031401 0 0 .99686975 -.22622 -11.269724)"
       id="g40">
      <path
         d="m340.39566 35.730342-1.31447-.02247q-1.30324 0-1.85375.404453-.66285.483097-.66285 1.752629 0 1.011132.35951 1.617811.43816.752732 1.34818.752732.17976.02247.5168.0337.33705 0 .53927 0l1.73016-.02247v1.64028l-2.17955.02247q-.33704 0-.67409-.01123-.33704-.01123-.67409-.02247-1.53916 0-2.25819-1.213359-.59545-.999897-.59545-2.685117 0-1.932386.80891-2.898579.87631-1.056071 2.76376-1.056071h3.07834z"
         id="path24" />
      <path
         d="m349.72053 38.06718q0 1.921151-.83137 2.876109-.88755 1.022367-2.76376 1.022367-1.26954 0-2.05597-.224696-.65162-.179757-1.06731-.550505-.57297-.505566-.86508-1.505463-.24716-.853845-.24716-1.775099 0-1.954855.94372-2.954752.94372-.999898 2.86487-.999898 2.10091 0 3.05587.999898.96619.988662.96619 3.112039zm-3.89847 2.168317q.96619 0 1.49422-.640384.49434-.595444.49434-1.572872 0-1.112245-.47187-1.696455-.5168-.640383-1.61781-.640383-.99989 0-1.48299.651618-.42692.572975-.42692 1.606577 0 1.033601.47186 1.629046.52803.662853 1.53917.662853z"
         id="path26" />
      <path
         d="m353.78752 34.022652 1.46053 6.313958 1.47176-6.313958h3.05586v7.86436h-1.73016v-6.370131l-1.52793 6.370131h-2.59524l-1.43805-6.561123v6.561123h-1.73016v-7.86436z"
         id="path28" />
      <path
         d="m362.66301 41.887012h-1.87621v-7.86436h4.43774q2.52783 0 2.52783 2.584004 0 1.40435-.7752 2.022264-.69656.56174-2.13461.56174l-.9999-.01123-1.17965-1.42682zm3.12327-5.358999q0-.505566-.44939-.696558-.30334-.123583-.94372-.123583h-.41569l-1.31447.01123v1.786333l1.7751.01123q.67408 0 .95495-.157287.39322-.213461.39322-.831375z"
         id="path30" />
      <path
         d="m370.58354 34.022652-.0225 3.145744q0 .157288-.0112.505566-.0112.337044-.0112.505566 0 1.033602.2584 1.494229.37075.662853 1.37064.662853.93249 0 1.29201-.651618.26963-.494332.26963-1.505464v-4.156876h1.88745v4.505155q0 1.876212-.82014 2.651413-.80891.763966-2.70759.763966-1.65151 0-2.42672-.56174-.67408-.494331-.86508-1.595341-.11234-.651619-.11234-2.471656l.0225-3.291797z"
         id="path32" />
      <path
         d="m383.72825 34.022652-.91002 1.550403h-1.90992v6.313957h-1.87621v-6.313957h-2.53907v-1.550403z"
         id="path34" />
      <path
         d="m390.23319 34.022652-.84261 1.550403h-3.19069v1.752629h3.85354v1.539167h-3.85354v1.471759h3.85354v1.550402h-5.74098v-7.86436z"
         id="path36" />
      <path
         d="m398.03013 36.640361q0 1.078541-.52804 1.707689-.5168.617914-1.56164.617914l1.95486 2.921048h-2.17955l-2.79747-4.257989v4.257989h-1.88744v-7.86436h4.44898q1.292 0 1.92115.662853.62915.651619.62915 1.954856zm-3.76366-1.089776-1.34818.02247v1.831272h1.87621q.76397 0 1.02237-.224696.2584-.235931.2584-.662853 0-.471862-.2921-.719027-.28087-.247166-1.14595-.247166z"
         id="path38" />
    </g>
    <g
       stroke="none"
       transform="matrix(1.0036462 0 0 .99636701 -.22622 -11.269724)"
       id="g58">
      <path
         d="m272.98819 41.908146h-1.87717v-7.86835h4.44q2.52912 0 2.52912 2.585315 0 1.405062-.7756 2.02329-.69691.562025-2.13569.562025l-1.00041-.01124-1.18025-1.427543zm3.12486-5.361719q0-.505822-.44962-.696911-.3035-.123645-.9442-.123645h-.4159l-1.31514.01124v1.78724l1.776.01124q.67443 0 .95544-.157367.39342-.213569.39342-.831797z"
         id="path42" />
      <path
         d="m284.89187 34.039796-.84303 1.551189h-3.1923v1.753518h3.85549v1.539948h-3.85549v1.472506h3.85549v1.551189h-5.7439v-7.86835z"
         id="path44" />
      <path
         d="m292.69277 36.658832q0 1.079088-.5283 1.708556-.51707.618228-1.56243.618228l1.95584 2.92253h-2.18065l-2.79889-4.26015v4.26015h-1.8884v-7.86835h4.45124q1.29265 0 1.92212.663189.62947.651949.62947 1.955847zm-3.76557-1.090328-1.34886.02248v1.832201h1.87717q.76435 0 1.02288-.22481.25853-.23605.25853-.663189 0-.472101-.29225-.719392-.28101-.247291-1.14653-.247291z"
         id="path46" />
      <path
         d="m299.68436 35.590985-3.16983-.01124q-.65194 0-.86551.191089-.20233.179848-.20233.550784 0 .404658.44962.573266.33721.123645.96668.123645.26977 0 .48334-.01124.22481-.01124.42714-.02248 1.3039 0 2.00081.550784.77559.618228.77559 1.899645 0 1.34886-.71939 1.933366-.66319.539544-2.02329.539544h-4.27139v-1.551189h3.552q.70815 0 .96668-.07868.52831-.157367.52831-.696911 0-.404658-.4159-.573265-.31474-.123646-.92172-.123646-.29226 0-.52831.01124-.23605.01124-.44962.02248-1.31513 0-2.02329-.606987-.75311-.651949-.75311-1.955847 0-1.360101.91048-1.899645.70815-.415898 2.16942-.415898h4.06906z"
         id="path48" />
      <path
         d="m309.21629 38.086376q0 1.922125-.83179 2.877568-.888 1.022885-2.76517 1.022885-1.27017 0-2.05701-.22481-.65195-.179848-1.06785-.550784-.57326-.505823-.86552-1.506227-.24729-.854278-.24729-1.775999 0-1.955847.94421-2.956252.9442-1.000404 2.86632-1.000404 2.10198 0 3.05742 1.000404.96668.989164.96668 3.113619zm-3.90045 2.169416q.96668 0 1.49499-.640708.49458-.595747.49458-1.57367 0-1.11281-.4721-1.697316-.51707-.640708-1.61864-.640708-1.0004 0-1.48374.651949-.42714.573265-.42714 1.607391 0 1.034126.4721 1.629873.5283.663189 1.53995.663189z"
         id="path50" />
      <path
         d="m315.4098 40.581767v-6.541971h1.73104v7.86835h-2.97873l-2.2481-6.362123v6.362123h-1.73104v-7.86835h2.84385z"
         id="path52" />
      <path
         d="m326.15571 41.908146h-1.97832l-.53955-1.427544h-1.80972l-.91048-1.551189-1.14653 2.978733h-2.03453l2.91129-7.86835h2.64152zm-3.07989-3.113619-1.05661-2.967492-1.06785 2.967492z"
         id="path54" />
      <path
         d="m328.69606 40.356957h3.43959l-.87676 1.551189h-4.43999v-7.86835h1.87716z"
         id="path56" />
    </g>
  </g>
  <path
     d="m359.60678 9.563277h40v8h-40z"
     fill="#4c8cc4"
     id="path62" />
  <path
     d="m315.60678 9.563277h40v8h-40z"
     fill="#1c7424"
     id="path64" />
  <path
     d="m271.60678 9.563277h40v8h-40z"
     fill="#ac1c1c"
     id="path66" />
  <text
     fill="#ef00eb"
     font-family="TrasksHand"
     font-size=".4"
     stroke="#0105ff"
     stroke-width=".5"
     x="301.8494"
     y="9.436379"
     id="text70"><tspan
       fill="#fafafa"
       fill-opacity=".4"
       font-size=".4"
       stroke="none"
       stroke-width=".5"
       x="301.8494"
       y="9.436379"
       id="tspan68">John Loreth 2022</tspan></text>
  <path
     style="fill:#ffffff;fill-opacity:0.941176;stroke-width:1.8885"
     d="M 49.101023,91.592293 V 30.216014 H 24.550511 0 V 16.052258 1.8885009 h 67.105875 67.105875 l -7.55546,13.6916311 -7.55546,13.691632 -18.0034,0.540511 -18.003391,0.540512 V 91.660679 152.96857 H 66.097531 49.101023 Z"
     id="path967"
     transform="scale(0.2)" />
  <path
     style="fill:#ffffff;fill-opacity:0.941176;stroke-width:1.8885"
     d="m 108.07378,150.60795 c 0.45833,-1.29835 12.99917,-35.29136 27.86854,-75.54004 L 162.97755,1.8885009 h 24.92879 24.92879 l 22.2511,60.9041531 c 12.23811,33.497285 24.66643,67.490296 27.6185,75.540036 l 5.36739,14.63588 h -18.43398 -18.43398 l -4.58405,-13.2195 -4.58406,-13.21951 -18.00936,-0.0448 -18.00935,-0.0448 -8.49826,-15.05915 c -4.67404,-8.28253 -9.22444,-14.818919 -10.11201,-14.525298 -0.88758,0.29362 -6.39842,13.039168 -12.24634,28.323448 l -10.63256,27.78959 h -18.64386 c -14.10052,0 -18.44078,-0.57526 -17.81053,-2.36062 z M 209.6556,93.008669 c 0.0714,-3.163086 -19.48035,-57.127152 -20.69783,-57.127152 -1.23407,0 -21.04566,54.066199 -20.93322,57.127152 0.068,1.852071 41.58921,1.852071 41.63105,0 z"
     id="path1006"
     transform="scale(0.2)" />
  <path
     style="fill:#ffffff;fill-opacity:0.941176;stroke-width:1.8885"
     d="M 281.38663,77.428536 V 1.8885009 l 26.91114,0.00636 26.91114,0.00636 22.66201,62.4937881 c 12.4641,34.371602 23.29938,62.888041 24.07838,63.369881 0.77901,0.48184 1.41638,-27.64324 1.41638,-62.500165 V 1.8885009 h 16.05226 16.05225 V 77.477724 153.06695 l -28.57133,-0.52132 -28.57134,-0.52131 -21.30929,-60.110007 c -11.72011,-33.060505 -21.8083,-60.609012 -22.41819,-61.218905 -0.60989,-0.609891 -1.10889,26.652069 -1.10889,60.582134 v 61.691028 h -16.05226 -16.05226 z"
     id="path1045"
     transform="scale(0.2)" />
  <path
     style="fill:#ffffff;fill-opacity:0.941176;stroke-width:1.8885"
     d="M 434.3552,77.405695 V 1.5687314 l 50.5174,0.6451589 c 46.89937,0.5989532 51.14719,0.9353281 59.31089,4.6966968 25.91309,11.9392799 39.48714,46.5016299 34.09391,86.8101709 -3.59745,26.887012 -15.39002,45.582872 -34.2572,54.311102 -7.9807,3.69199 -12.43209,4.03831 -59.1476,4.60163 l -50.5174,0.60917 z m 89.69913,39.591735 c 13.61171,-6.81602 17.00117,-14.51647 17.00117,-38.624643 0,-23.257731 -3.47503,-31.541914 -16.21036,-38.644148 -7.2911,-4.066098 -11.25004,-4.748013 -31.47428,-5.421358 l -23.13414,-0.770225 v 44.840516 44.840518 l 22.28408,-0.79451 c 18.89532,-0.67369 23.69065,-1.49885 31.53353,-5.42615 z"
     id="path1084"
     transform="scale(0.2)" />
  <path
     style="fill:#ffffff;fill-opacity:0.941176;stroke-width:1.8885"
     d="M 643.9788,118.81829 V 84.668002 L 616.59554,44.090851 C 601.53474,21.773418 589.21228,3.1480301 589.21228,2.7011003 c 0,-0.4469296 8.76022,-0.8125994 19.46716,-0.8125994 h 19.46717 L 644.6618,25.494762 c 9.08335,12.983444 17.17053,23.606261 17.97151,23.606261 0.80098,0 8.19157,-10.615284 16.42354,-23.589523 l 14.96722,-23.5895222 20.41284,-0.016739 c 15.77556,-0.012936 20.11443,0.5195368 19.09926,2.3438878 C 732.8137,5.5474709 720.44108,24.49884 706.04145,46.363278 l -26.18113,39.753526 v 33.425886 33.42588 H 661.91956 643.9788 Z"
     id="path1123"
     transform="scale(0.2)" />
  <path
     style="fill:#ffffff;fill-opacity:0.941176;stroke-width:1.8885"
     d="M 789.39337,92.612918 V 32.257266 l -14.95242,-0.548501 -14.95243,-0.5485 8.80365,-14.635882 8.80364,-14.6358821 h 25.03379 25.03379 V 77.428536 152.96857 h -18.88501 -18.88501 z"
     id="path1162"
     transform="scale(0.2)" />
  <path
     style="fill:#ffffff;fill-opacity:0.941176;stroke-width:1.8885"
     d="m 898.47337,150.14926 c -15.55006,-3.94492 -24.45514,-9.02576 -33.16814,-18.92425 -10.71543,-12.17337 -13.86808,-22.36622 -14.98848,-48.459245 -0.81032,-18.871735 -0.36768,-23.952082 3.07424,-35.283856 5.48335,-18.052743 13.52228,-28.075211 28.62267,-35.685092 33.15111,-16.7065864 85.08836,-9.5129137 103.21165,14.295535 9.79379,12.866045 12.84741,25.741103 12.84741,54.168936 0,19.255357 -0.77504,26.777732 -3.59339,34.876812 -4.70549,13.52215 -19.20099,28.30781 -32.30416,32.95078 -12.99011,4.60291 -49.07864,5.77017 -63.7018,2.06038 z m 45.90243,-32.18278 c 2.86012,-1.47903 7.77214,-5.80932 10.9156,-9.62288 14.64586,-17.76797 11.89702,-56.400806 -4.86058,-68.311723 -16.13003,-11.464855 -40.40947,-10.024136 -53.61508,3.181467 -8.126,8.125998 -11.08381,17.280873 -11.09829,34.350902 -0.0201,23.653704 8.54627,37.756714 25.86918,42.589124 10.22808,2.85324 24.94012,1.87201 32.78917,-2.18689 z"
     id="path1201"
     transform="scale(0.2)" />
  <path
     style="fill:#ffffff;fill-opacity:0.941176;stroke-width:1.8885"
     d="m 1071.2893,150.97798 c -21.6726,-4.27747 -39.2605,-17.90219 -46.1081,-35.71823 -5.1434,-13.38212 -6.9613,-46.082004 -3.475,-62.509849 4.8595,-22.899 20.0726,-40.102322 41.1731,-46.5594389 14.3463,-4.3902079 46.3558,-4.3754269 61.0128,0.028174 32.0205,9.6203769 46.8432,36.4719649 44.5221,80.6524049 -1.9055,36.269559 -15.5684,55.828929 -44.2095,63.288999 -11.5552,3.00974 -39.6128,3.44344 -52.9154,0.81794 z m 42.8639,-32.91446 c 13.1765,-6.81383 19.846,-21.136367 19.8018,-42.523485 -0.062,-29.869906 -16.251,-45.475127 -44.5178,-42.911986 -22.658,2.054557 -33.7213,16.126825 -33.7362,42.911986 -0.01,17.883598 2.4385,26.704655 9.712,34.988755 10.0769,11.47686 33.9733,15.17101 48.7402,7.53473 z"
     id="path1240"
     transform="scale(0.2)" />
  <path
     style="fill:#ffffff;fill-opacity:0.941176;stroke-width:1.8885"
     d="m 1237.4415,150.15993 c -15.0126,-4.20817 -23.7807,-9.3632 -32.2061,-18.93492 -10.6818,-12.13512 -13.8686,-22.38567 -14.9785,-48.179677 -1.1537,-26.810341 2.0493,-41.540057 12.3067,-56.595161 13.1393,-19.2849388 38.5865,-27.6642116 73.7042,-24.2693446 43.2323,4.1793129 62.5635,27.8054696 62.6514,76.5711306 0.067,37.070082 -12.6116,60.616382 -37.4901,69.626672 -12.2732,4.44497 -50.6716,5.51391 -63.9876,1.7813 z m 44.2841,-31.4587 c 23.3118,-7.11627 31.1513,-53.363254 12.6998,-74.919649 -7.5971,-8.875537 -15.7308,-12.065036 -30.6746,-12.02861 -19.1237,0.04661 -30.0654,7.311049 -35.4557,23.539627 -4.0015,12.047338 -2.9545,36.932977 1.9885,47.265172 8.1131,16.95848 28.1616,23.2501 51.442,16.14346 z"
     id="path1279"
     transform="scale(0.2)" />
</svg>
