<?xml version="1.0" encoding="UTF-8" standalone="no"?>
<svg
   width="1000.948"
   height="193.59"
   viewBox="-250.43 -48.398 1000.948 193.59"
   xml:space="preserve"
   version="1.1"
   id="svg6"
   sodipodi:docname="tecmo.svg"
   inkscape:version="1.1 (c68e22c387, 2021-05-23)"
   xmlns:inkscape="http://www.inkscape.org/namespaces/inkscape"
   xmlns:sodipodi="http://sodipodi.sourceforge.net/DTD/sodipodi-0.dtd"
   xmlns="http://www.w3.org/2000/svg"
   xmlns:svg="http://www.w3.org/2000/svg"><defs
   id="defs10" /><sodipodi:namedview
   id="namedview8"
   pagecolor="#ffffff"
   bordercolor="#666666"
   borderopacity="1.0"
   inkscape:pageshadow="2"
   inkscape:pageopacity="0.0"
   inkscape:pagecheckerboard="0"
   showgrid="false"
   inkscape:zoom="1.056998"
   inkscape:cx="500.00096"
   inkscape:cy="96.97275"
   inkscape:window-width="1920"
   inkscape:window-height="1017"
   inkscape:window-x="-8"
   inkscape:window-y="712"
   inkscape:window-maximized="1"
   inkscape:current-layer="svg6" />
    <g
   fill="#DA2128"
   stroke="#E3232E"
   stroke-width=".039"
   id="g4">
        <path
   d="M294.949-47.886c20.081-1.75 41.396.721 58.8 11.534 15.962-9.886 35.424-11.843 53.857-11.534 17.917.618 36.452 4.634 51.282 15.137 14.21 9.68 23.786 26.671 22.859 44.074-.104 43.354.206 86.706-.104 130.061-19.771-.205-39.439.205-59.106-.205-.104-43.663.205-87.223-.207-130.884.207-10.503-12.975-12.46-21.007-12.255-7.311.207-19.462 2.471-18.434 12.255 0 43.456.104 87.016-.102 130.471-20.184-.205-40.366.413-60.552.206-.205-43.56-.309-87.117.207-130.677.411-3.398-1.545-6.694-4.737-8.032-8.032-3.811-17.813-4.016-26.156-.927-3.398 1.235-7.311 3.809-7.002 7.928-.412 44.073-.207 88.046-.207 132.119-19.462-.722-39.027 0-58.49-.412.722-46.34-.205-92.68.516-139.018.411-12.359 7.311-23.892 16.888-31.408 14.726-11.533 33.364-16.785 51.696-18.433h-.001zM621.534-48.123c-4.208.025-8.454.241-12.639.563-27.701 2.162-55.298 11.099-77.644 28.092-13.593 10.607-25.292 24.209-31.471 40.48-8.032 19.875-6.677 43.055 3.003 62.002 13.696 26.567 39.728 44.766 67.634 53.932 37.689 12.356 80.105 10.916 116.56-4.942 23.891-10.503 45.728-28.209 56.747-52.305 8.649-18.639 9.055-40.803 1.126-59.75-7.621-18.846-22.34-34.03-39.229-45.047-24.959-15.949-54.634-23.201-84.087-23.025zm-.626 47.3c18.387-.27 37.125 4.558 51.992 15.642 10.503 7.827 18.912 20.005 18.707 33.598.31 12.356-6.704 23.581-15.767 31.408-23.786 19.771-58.647 22.74-86.966 11.824-14.623-5.973-28.739-16.608-33.786-32.158-4.221-12.255-.623-26.358 7.821-36.038C575.267 8.83 594.282 1.57 613.025-.385a100.38 100.38 0 0 1 7.883-.438zM-250.312-44.797H-94.2V1.955c-16.682.309-33.364-.104-50.047.205-.205 46.133.104 92.267-.205 138.401-19.36 0-38.823-.104-58.182 0-.412-41.706 0-83.412-.207-125.118-.103-4.634.515-9.268-.514-13.798-15.653.309-31.305.102-46.958.102-.101-15.549-.205-31.098.001-46.544zM101.045-18.228c31.922-22.141 72.186-28.01 110.184-26.981 0 15.035-.103 30.07 0 45.104-25.332.104-53.136 2.575-73.113 19.978-9.165 8.135-15.447 20.183-14.108 32.643 1.338 14.107 11.43 25.744 23.17 32.85 17.917 10.915 39.542 13.078 60.139 12.769v45.104c-35.424 1.03-72.496-4.839-102.565-24.716-22.758-15.033-40.264-40.159-40.779-68.066-1.339-27.599 14.931-53.342 37.072-68.685zM-70.618-27.189c12.564-11.43 29.657-18.123 46.751-17.403 26.672.207 53.24-.309 79.91.413a3261.9 3261.9 0 0 0 0 44.898C31.432.821 6.82.719-17.791.821c-2.883-.206-5.354 1.339-7.62 2.884-.514 7.518-.205 15.035-.309 22.551h81.043c.205 15.139.205 30.276 0 45.312h-81.249c-.207 5.662-.413 11.43-.207 17.094 0 5.148 6.076 7.724 10.503 7.619h70.952c.205 15.036.205 30.069 0 45.104-26.774-.205-53.549.309-80.219-.309-16.167-1.03-32.334-6.591-44.691-17.095-8.444-7.313-14.932-17.815-14.726-29.245-.104-31.203 0-62.507 0-93.708-.103-10.915 5.973-20.904 13.696-28.217z"
   id="path2" />
    </g>
<path
   style="fill:#ff0000;stroke-width:0.946076"
   d="m 48.249856,120.22898 c 0,-37.422037 -0.21747,-68.607054 -0.483267,-69.300039 -0.389071,-1.014383 -4.983748,-1.195168 -23.57269,-0.927504 L 1.1044757,50.333905 0.78875677,38.379575 C 0.61511131,31.804693 0.61512606,21.331032 0.7887895,15.104774 L 1.1045412,3.7843025 H 78.603509 156.10248 V 26.963155 50.142007 h -25.07101 -25.071 v 69.063523 69.06352 H 77.105162 48.249856 Z"
   id="path940"
   transform="translate(-250.43,-48.398)" /><path
   style="fill:#ff0000;stroke-width:0.946076"
   d="m 218.54347,188.2152 c -8.08456,-1.19511 -19.64367,-5.22444 -27.4362,-9.56385 -9.28312,-5.16948 -16.76264,-12.73129 -20.88016,-21.10986 l -3.24476,-6.60265 V 96.519606 42.100365 l 3.0674,-6.476537 C 175.5654,23.978033 188.66535,13.036435 203.0897,8.0275397 212.87417,4.629853 220.21294,4.2153561 264.66465,4.5497587 L 305.58242,4.857576 V 26.401883 47.94619 l -24.83448,0.622934 c -13.65897,0.342614 -31.01934,0.623806 -38.57859,0.624871 -18.55799,0.0026 -17.94943,-0.480407 -17.94943,14.246717 v 11.299261 h 40.68125 40.68125 v 22.232777 22.23278 h -40.68125 -40.68125 v 9.85641 c 0,5.42103 0.26446,10.54558 0.58768,11.3879 1.5555,4.05357 4.03775,4.29973 43.35785,4.29973 h 37.41697 v 22.23278 22.23277 l -40.91777,-0.11536 c -22.50477,-0.0635 -43.2593,-0.46151 -46.12118,-0.88456 z"
   id="path979"
   transform="translate(-250.43,-48.398)" /><path
   style="fill:#ff0000;stroke-width:0.946076"
   d="M 425.73403,190.05194 C 389.57422,185.92479 359.42769,173.06912 339.96918,153.47843 306.35929,119.64023 306.66937,72.863189 340.72048,40.139941 349.0131,32.1707 356.02506,27.309473 367.63657,21.479642 390.34293,10.079374 419.46071,3.7843025 449.48615,3.7843025 h 11.25267 V 26.017079 48.249856 l -9.22423,0.0056 c -17.05354,0.01031 -34.09278,3.429008 -47.06727,9.44342 -27.74827,12.862892 -37.99579,37.444619 -24.79922,59.488294 10.56661,17.65057 37.8166,29.43828 68.08218,29.45077 l 9.22424,0.004 v 22.23278 22.23277 l -12.06246,-0.12274 c -6.63436,-0.0675 -15.25547,-0.48717 -19.15803,-0.93259 z"
   id="path1018"
   transform="translate(-250.43,-48.398)" /><path
   style="fill:#ff0000;stroke-width:0.946076"
   d="m 476.82759,120.86116 c 0.003,-39.85377 0.39004,-70.720762 0.92779,-74.030417 2.43296,-14.973832 12.76023,-27.272916 29.81419,-35.506713 16.91166,-8.1650911 31.27265,-10.87283554 53.72559,-10.1298821 16.39261,0.5424211 25.22338,2.4819003 36.05768,7.9192564 l 6.57245,3.2984827 7.18851,-3.285954 c 16.51131,-7.5475265 39.06386,-10.06015552 60.83786,-6.7780796 29.01104,4.3729439 49.60396,18.8375296 57.11642,40.1189036 l 2.20846,6.256137 0.02,70.246116 0.0199,70.24611 h -28.85531 -28.8553 l -0.002,-65.98877 c -9.4e-4,-60.941354 -0.128,-66.23959 -1.65563,-69.267856 -2.6014,-5.156816 -6.77629,-6.995367 -16.88908,-7.437665 -10.15177,-0.444003 -17.19486,1.380197 -20.23092,5.239928 -1.86694,2.373969 -1.90373,3.71284 -1.90373,69.315933 v 66.89521 l -15.76134,0.62161 c -8.66874,0.34189 -22.07936,0.62161 -29.80138,0.62161 h -14.04004 v -67.04378 c 0,-76.813975 0.79789,-70.32904 -9.03356,-73.421409 -10.20674,-3.210416 -25.80546,-0.436654 -28.77783,5.117273 -0.6464,1.207805 -0.97771,24.449618 -0.97771,68.587396 v 66.76052 H 505.6773 476.822 Z"
   id="path1057"
   transform="translate(-250.43,-48.398)" /><path
   style="fill:#ff0000;stroke-width:0.946076"
   d="m 850.52198,191.56818 c -44.7917,-6.16113 -80.83597,-29.00597 -97.30644,-61.67277 -5.36194,-10.63463 -7.20868,-19.09172 -7.18918,-32.92266 0.0204,-14.463246 1.37724,-20.457705 7.4951,-33.112646 30.57755,-63.25049065 135.34308,-83.464854 203.43402,-39.252316 4.5519,2.955624 11.71657,9.126045 17.97544,15.480973 11.59424,11.772188 16.69733,19.669046 21.64495,33.494811 2.83976,7.935488 2.95301,8.832513 2.95301,23.389178 0,14.59036 -0.10783,15.43865 -2.98477,23.48134 -8.27397,23.13038 -27.95946,43.87729 -53.77976,56.67951 -26.73992,13.25819 -61.38298,18.67932 -92.24237,14.43458 z m 45.76534,-47.73001 c 20.27724,-5.48292 35.65687,-16.76989 42.58832,-31.25517 2.68977,-5.62108 2.94263,-6.96665 2.94263,-15.659313 0,-9.077808 -0.16075,-9.835078 -3.5385,-16.669489 -6.75436,-13.666526 -22.40037,-24.989856 -41.87313,-30.30441 -6.41929,-1.751972 -10.01088,-2.062062 -23.65189,-2.042055 -19.11208,0.02803 -26.07432,1.515412 -40.20821,8.589895 -20.50645,10.26416 -31.72182,28.272703 -28.67721,46.047042 2.85976,16.69518 16.70813,31.00109 37.27577,38.50735 11.92626,4.35255 20.33516,5.59816 34.92092,5.17285 9.09456,-0.26519 14.91689,-0.9524 20.2213,-2.3867 z"
   id="path1096"
   transform="translate(-250.43,-48.398)" /></svg>
