<?xml version="1.0" encoding="UTF-8" standalone="no"?>
<svg
   viewBox="-150.014 -50.023 96.681 19.483"
   version="1.1"
   id="svg1"
   sodipodi:docname="tecmo.svg"
   inkscape:version="1.3 (0e150ed6c4, 2023-07-21)"
   xmlns:inkscape="http://www.inkscape.org/namespaces/inkscape"
   xmlns:sodipodi="http://sodipodi.sourceforge.net/DTD/sodipodi-0.dtd"
   xmlns="http://www.w3.org/2000/svg"
   xmlns:svg="http://www.w3.org/2000/svg">
  <defs
     id="defs1" />
  <sodipodi:namedview
     id="namedview1"
     pagecolor="#ffffff"
     bordercolor="#111111"
     borderopacity="1"
     inkscape:showpageshadow="0"
     inkscape:pageopacity="0"
     inkscape:pagecheckerboard="1"
     inkscape:deskcolor="#d1d1d1"
     inkscape:zoom="14.325462"
     inkscape:cx="45.44356"
     inkscape:cy="32.738909"
     inkscape:window-width="3440"
     inkscape:window-height="1377"
     inkscape:window-x="-8"
     inkscape:window-y="760"
     inkscape:window-maximized="1"
     inkscape:current-layer="svg1" />
  <g
     transform="translate(-135.066 -44.57) scale(.10022)"
     id="g1">
    <path
       fill="#e3232e"
       d="M543.647 6.547c19.5-1.7 40.2.7 57.1 11.2 15.5-9.6 34.4-11.5 52.3-11.2 17.4.6 35.4 4.5 49.8 14.7 13.8 9.4 23.1 25.9 22.2 42.8-.1 42.1.2 84.2-.1 126.3-19.2-.2-38.3.2-57.4-.2-.1-42.4.2-84.7-.2-127.1.2-10.2-12.6-12.1-20.4-11.9-7.1.2-18.9 2.4-17.9 11.9 0 42.2.1 84.5-.1 126.7-19.6-.2-39.2.4-58.8.2-.2-42.3-.3-84.6.2-126.9.4-3.3-1.5-6.5-4.6-7.8-7.8-3.7-17.3-3.9-25.4-.9-3.3 1.2-7.1 3.7-6.8 7.7-.4 42.8-.2 85.5-.2 128.3-18.9-.7-37.9 0-56.8-.4.7-45-.2-90 .5-135 .4-12 7.1-23.2 16.4-30.5 14.3-11.2 32.4-16.3 50.2-17.9zm-529.5 3h151.6v45.4c-16.2.3-32.4-.1-48.6.2-.2 44.8.1 89.6-.2 134.4-18.8 0-37.7-.1-56.5 0-.4-40.5 0-81-.2-121.5-.1-4.5.5-9-.5-13.4-15.2.3-30.4.1-45.6.1-.1-15.1-.2-30.2 0-45.2zm341.2 25.8c31-21.5 70.1-27.2 107-26.2 0 14.6-.1 29.2 0 43.8-24.6.1-51.6 2.5-71 19.4-8.9 7.9-15 19.6-13.7 31.7 1.3 13.7 11.1 25 22.5 31.9 17.4 10.6 38.4 12.7 58.4 12.4v43.8c-34.4 1-70.4-4.7-99.6-24-22.1-14.6-39.1-39-39.6-66.1-1.3-26.8 14.5-51.8 36-66.7zm-166.7-8.7c12.2-11.1 28.8-17.6 45.4-16.9 25.9.2 51.7-.3 77.6.4-.1 14.5-.1 29.1 0 43.6-23.9.1-47.8 0-71.7.1-2.8-.2-5.2 1.3-7.4 2.8-.5 7.3-.2 14.6-.3 21.9h78.7c.2 14.7.2 29.4 0 44h-78.9c-.2 5.5-.4 11.1-.2 16.6 0 5 5.9 7.5 10.2 7.4h68.9c.2 14.6.2 29.2 0 43.8-26-.2-52 .3-77.9-.3-15.7-1-31.4-6.4-43.4-16.6-8.2-7.1-14.5-17.3-14.3-28.4-.1-30.3 0-60.7 0-91-.1-10.6 5.8-20.3 13.3-27.4z"
       clip-path="url(#a)"
       transform="translate(-163.185 -56.025)"
       id="path1" />
    <ellipse
       cx="695.122"
       cy="42.792"
       fill="none"
       stroke="#e3232e"
       stroke-linecap="round"
       stroke-linejoin="round"
       stroke-width="53.054"
       paint-order="fill markers stroke"
       rx="93.878"
       ry="70.675"
       id="ellipse1" />
  </g>
  <path
     style="fill:#ff0000;fill-opacity:1;stroke-width:0.0349029"
     d="M 4.6651999,17.966262 C 4.6525693,17.491146 4.6420286,14.503023 4.6417756,11.325987 4.6415229,8.1489518 4.6322195,5.4945871 4.6211019,5.4273991 L 4.6008882,5.305239 2.3178955,5.3174867 0.03490289,5.3297342 0.02661801,4.2354971 C 0.02206133,3.6336667 0.01941703,3.0156095 0.02074179,2.8620368 0.02206655,2.7084641 0.02579474,2.1862296 0.02902667,1.7015158 L 0.03490289,0.82021787 H 7.6088296 15.182756 V 3.0679121 5.3156062 l -2.405398,0.012268 c -1.322969,0.00675 -2.418483,0.025354 -2.434476,0.041348 -0.01599,0.015994 -0.03445,3.0512366 -0.04101,6.7449838 l -0.01193,6.715902 H 7.4890537 4.6881646 Z"
     id="path3"
     transform="translate(-150.014,-50.023)" />
  <path
     style="fill:#ff0000;fill-opacity:1;stroke-width:0.0349029"
     d="m 22.145882,18.864066 c -0.345538,-0.01331 -0.785315,-0.05122 -0.97728,-0.08425 -2.307065,-0.396971 -4.122886,-1.629536 -4.759308,-3.230581 -0.224072,-0.563699 -0.214415,-0.304747 -0.213748,-5.7313282 5.02e-4,-4.0822432 0.009,-4.9705737 0.04924,-5.1583733 0.274452,-1.2803311 1.278395,-2.4151828 2.794741,-3.1591582 0.740035,-0.3630884 1.43471,-0.56529826 2.211306,-0.64367866 0.409702,-0.0413504 4.656675,-0.049409 7.032233,-0.0133435 l 1.524002,0.0231373 V 3.0417719 5.2170512 l -3.725883,0.00919 -3.725883,0.00919 -0.20149,0.1020941 c -0.110819,0.056152 -0.220763,0.1253122 -0.24432,0.15369 -0.03122,0.037603 -0.04619,0.3483245 -0.05521,1.1456841 l -0.01238,1.0940883 h 3.946719 3.946718 l 0.0097,1.1081667 c 0.0053,0.6094917 0.0055,1.5910686 4.63e-4,2.1812816 l -0.0092,1.073115 -3.952256,0.0089 -3.952255,0.0089 -0.01015,0.855121 c -0.0056,0.470316 -6.83e-4,0.907576 0.01089,0.971688 0.0289,0.160037 0.258724,0.398972 0.479976,0.499005 l 0.182439,0.08249 3.620217,0.0094 3.620216,0.0094 0.0097,1.107535 c 0.0053,0.609144 0.0055,1.590503 4.61e-4,2.180798 l -0.0092,1.073264 -3.481066,-0.0058 c -1.914586,-0.0032 -3.763779,-0.01671 -4.109318,-0.03002 z"
     id="path4"
     transform="translate(-150.014,-50.023)" />
  <path
     style="fill:#ff0000;fill-opacity:1;stroke-width:0.0349029"
     d="m 42.441912,19.051352 c -2.634427,-0.182496 -4.681166,-0.692452 -6.562068,-1.634974 -1.156859,-0.579703 -2.019318,-1.189406 -2.809358,-1.986036 -1.306149,-1.317044 -2.101665,-2.809578 -2.373639,-4.453384 -0.07644,-0.461988 -0.1051,-1.4025304 -0.05627,-1.8465164 0.153657,-1.3971515 0.734046,-2.7677317 1.678951,-3.9648142 0.311119,-0.3941503 1.106721,-1.1731546 1.519347,-1.4876495 2.155306,-1.642732 5.050859,-2.6137399 8.515782,-2.85572111 0.754176,-0.0526697 2.068641,-0.08458 2.330207,-0.0565686 l 0.235155,0.025183 V 2.9490943 5.1073174 l -0.253046,0.019143 c -0.139175,0.010528 -0.543613,0.027391 -0.898749,0.037473 -3.768415,0.1069816 -6.437764,1.4958125 -7.186559,3.7390819 -0.35953,1.0770947 -0.142083,2.2459037 0.601685,3.2341387 0.251919,0.334722 0.807486,0.868879 1.163747,1.118901 0.350985,0.246318 1.033601,0.605604 1.4771,0.777452 1.116528,0.432633 2.250206,0.631938 3.795689,0.667298 l 0.916201,0.02096 v 2.17633 2.17633 l -0.968555,-0.0061 c -0.532705,-0.0034 -1.039234,-0.01099 -1.125618,-0.01698 z"
     id="path5"
     transform="translate(-150.014,-50.023)" />
  <path
     style="fill:#ff0000;fill-opacity:1;stroke-width:0.0349029"
     d="m 48.942575,18.87374 -2.556637,-0.0092 0.0026,-5.872184 c 0.0014,-3.2297019 0.01524,-6.3669333 0.03066,-6.9716258 0.02598,-1.0183431 0.03467,-1.124613 0.117775,-1.4406987 0.55026,-2.0927835 2.7871,-3.5685087 6.096561,-4.02212448 0.544612,-0.0746479 1.96068,-0.10606267 2.513008,-0.0557498 1.297703,0.11821067 2.385096,0.43173121 3.351607,0.96634568 l 0.287892,0.1592436 0.492567,-0.2459979 c 0.965952,-0.48241619 2.014188,-0.7432989 3.372055,-0.83922984 2.913528,-0.20583577 5.466598,0.50938784 7.000177,1.96104744 0.829254,0.7849589 1.403568,1.8620304 1.548503,2.9040715 0.02556,0.1837682 0.03743,2.3659006 0.03743,6.8806863 v 6.611572 l -2.678796,-3.03e-4 c -1.473338,-1.67e-4 -2.76049,-0.01012 -2.860338,-0.02211 l -0.18154,-0.02181 -0.01142,-6.461099 C 65.493877,6.2684683 65.490022,5.9249617 65.430351,5.7689779 65.299771,5.427634 64.883954,5.146227 64.326023,5.021616 64.007275,4.9504253 63.151072,4.939907 62.84265,5.0033929 62.25984,5.1233586 61.866942,5.3488788 61.710335,5.6533321 l -0.08929,0.1735787 -0.0051,6.4863802 c -0.0028,3.56751 -0.01068,6.491566 -0.01745,6.497902 -0.0068,0.0063 -1.329376,0.02309 -2.939123,0.03724 l -2.926814,0.02571 0.01085,-6.522681 c 0.01,-6.0133351 0.0063,-6.5311352 -0.04687,-6.6309351 C 55.497398,5.3471427 54.761616,5.075534 53.942613,5.0730971 53.07018,5.070501 52.330888,5.3405056 52.121268,5.7382889 l -0.08106,0.1538271 v 6.503899 6.503899 l -0.270497,-0.0085 c -0.148774,-0.0047 -1.420984,-0.01263 -2.827134,-0.01768 z"
     id="path6"
     transform="translate(-150.014,-50.023)" />
  <path
     style="fill:#ff0000;fill-opacity:1;stroke-width:0.0349029"
     d="m 83.609868,19.434218 c -1.40751,-0.09323 -2.989682,-0.441944 -4.275604,-0.942344 -0.523967,-0.203895 -1.491186,-0.67826 -1.958967,-0.96076 -2.322849,-1.402803 -3.949607,-3.469791 -4.553918,-5.786292 -0.304787,-1.168337 -0.333051,-2.446872 -0.08117,-3.6719589 0.334333,-1.626144 1.3325,-3.3627686 2.654246,-4.6178937 3.381349,-3.21091722 8.968054,-4.30478411 13.819911,-2.70591388 2.577704,0.84945068 4.735683,2.43034328 6.057839,4.43785188 0.68861,1.0455565 1.168602,2.3349438 1.322833,3.5534832 0.0877,0.6929009 0.05806,1.8022734 -0.06535,2.4459854 -0.657304,3.428434 -3.378843,6.235196 -7.322289,7.551583 -1.051969,0.351164 -2.279838,0.592392 -3.484148,0.684498 -0.428683,0.03279 -1.689999,0.0398 -2.113374,0.01176 z m 2.268688,-5.333279 c 2.434907,-0.320446 4.476967,-1.546808 5.217694,-3.133493 0.07373,-0.157939 0.159583,-0.3814 0.190779,-0.49658 0.08189,-0.302337 0.107141,-0.8352742 0.05492,-1.1589954 -0.288512,-1.788476 -2.32445,-3.3695747 -4.952152,-3.8458162 -0.528008,-0.095695 -0.589718,-0.1029265 -1.21964,-0.1429127 -1.207282,-0.076636 -2.521188,0.096175 -3.608327,0.4745833 -1.084244,0.3774004 -1.90204,0.8704082 -2.599414,1.5670549 -0.546857,0.5462864 -0.89746,1.1328001 -1.04661,1.7508454 -0.08376,0.3470796 -0.07482,0.9625657 0.01917,1.3203387 0.458356,1.744689 2.576195,3.231613 5.168803,3.62899 0.856986,0.131352 1.943103,0.145438 2.77478,0.03599 z"
     id="path7"
     transform="translate(-150.014,-50.023)" />
</svg>
