<?xml version="1.0" encoding="UTF-8" standalone="no"?>
<svg
   width="1897.3"
   height="456.5"
   xml:space="preserve"
   version="1.1"
   id="svg22"
   sodipodi:docname="ti99-w.svg"
   inkscape:version="1.1 (c68e22c387, 2021-05-23)"
   xmlns:inkscape="http://www.inkscape.org/namespaces/inkscape"
   xmlns:sodipodi="http://sodipodi.sourceforge.net/DTD/sodipodi-0.dtd"
   xmlns="http://www.w3.org/2000/svg"
   xmlns:svg="http://www.w3.org/2000/svg"><defs
   id="defs26" /><sodipodi:namedview
   id="namedview24"
   pagecolor="#ffffff"
   bordercolor="#666666"
   borderopacity="1.0"
   inkscape:pageshadow="2"
   inkscape:pageopacity="0.0"
   inkscape:pagecheckerboard="0"
   showgrid="false"
   inkscape:zoom="0.55763452"
   inkscape:cx="947.75338"
   inkscape:cy="228.64438"
   inkscape:window-width="1920"
   inkscape:window-height="1017"
   inkscape:window-x="-8"
   inkscape:window-y="712"
   inkscape:window-maximized="1"
   inkscape:current-layer="svg22" />
    <switch
   id="switch20">
        <g
   id="g18">
            <path
   fill="#919191"
   d="M223.087 24.132h206.366v61.634h-70.44v181.052h-68.788V85.766h-67.688zM448.714 24.132h67.688v243.236h-68.789zM537.313 113.282h61.084v47.877h-61.084z"
   id="path2" />
            <g
   fill="#919191"
   id="g6">
                <path
   d="m614.022 213.782 71.331-8.391c1.877 9.324 5.047 15.905 9.511 19.743 4.461 3.84 9.921 5.758 16.379 5.758 11.506 0 20.489-5.43 26.947-16.288 4.695-8.005 8.217-24.951 10.568-50.837-8.573 8.226-17.379 14.259-26.419 18.098-9.043 3.84-19.492 5.758-31.35 5.758-23.133 0-42.652-7.676-58.562-23.033-15.912-15.354-23.865-34.768-23.865-58.241 0-16.012 4.051-30.601 12.153-43.763s19.255-23.116 33.464-29.861c14.205-6.746 32.055-10.118 53.542-10.118 25.83 0 46.555 4.141 62.172 12.421 15.614 8.283 28.092 21.444 37.427 39.485 9.334 18.043 14.001 41.871 14.001 71.485 0 43.544-9.805 75.434-29.413 95.67-19.611 20.235-46.792 30.354-81.546 30.354-20.549 0-36.752-2.222-48.61-6.663-11.861-4.442-21.724-10.941-29.589-19.496-7.868-8.554-13.913-19.248-18.141-32.081zm132.094-107.597c0-13.051-3.522-23.28-10.567-30.684-7.045-7.403-15.618-11.105-25.714-11.105-9.511 0-17.409 3.347-23.689 10.036-6.283 6.691-9.422 16.727-9.422 30.107 0 13.491 3.258 23.802 9.775 30.93 6.516 7.131 14.646 10.694 24.394 10.694 10.097 0 18.493-3.455 25.186-10.365 6.691-6.909 10.037-16.78 10.037-29.613zM836.574 213.782l71.33-8.391c1.876 9.324 5.047 15.905 9.511 19.743 4.46 3.84 9.921 5.758 16.379 5.758 11.506 0 20.489-5.43 26.948-16.288 4.695-8.005 8.218-24.951 10.567-50.837-8.572 8.226-17.378 14.259-26.418 18.098-9.043 3.84-19.493 5.758-31.351 5.758-23.132 0-42.652-7.676-58.561-23.033-15.912-15.354-23.865-34.768-23.865-58.241 0-16.012 4.051-30.601 12.152-43.763 8.102-13.162 19.256-23.116 33.464-29.861 14.205-6.746 32.054-10.118 53.542-10.118 25.829 0 46.555 4.141 62.172 12.421 15.615 8.283 28.092 21.444 37.427 39.485 9.335 18.043 14.002 41.871 14.002 71.485 0 43.544-9.806 75.434-29.412 95.67-19.611 20.235-46.793 30.354-81.547 30.354-20.548 0-36.752-2.222-48.61-6.663-11.861-4.442-21.724-10.941-29.589-19.496-7.868-8.554-13.914-19.248-18.141-32.081zm132.093-107.597c0-13.051-3.522-23.28-10.566-30.684-7.046-7.403-15.618-11.105-25.714-11.105-9.511 0-17.409 3.347-23.689 10.036-6.283 6.691-9.423 16.727-9.423 30.107 0 13.491 3.258 23.802 9.775 30.93 6.517 7.131 14.646 10.694 24.393 10.694 10.097 0 18.493-3.455 25.186-10.365 6.692-6.909 10.038-16.78 10.038-29.613z"
   id="path4" />
            </g>
            <path
   fill="#919191"
   d="M1132.198 23.581h33.664L1055.8 273.972h-29.811z"
   id="path8" />
            <g
   fill="#919191"
   id="g12">
                <path
   d="M1255.066 278.075v-45.079h-130.684v-66.538l135.265-150.195h74.453v148.235h32.408v68.498H1334.1v45.079h-79.034zm16.512-61.588-.003 45.078h46.017v-45.078l32.406-.002v-35.478h-32.406l-.002-148.235-50.594.002-126.104 140.021v43.692m130.686-35.48H1175.6l95.978-105.5m-58.639 88.992h42.127V118.19l-42.127 46.309zM1564.834 278.076l-12.916-39.816h-78.534l-12.583 39.816h-99.732l103.687-257.701h98.183l103.664 257.701h-101.769zm-.917-56.324 12.919 39.813h65.328l-90.38-224.68h-75.874l-90.401 224.68h63.196l12.586-39.813h96.628v8.255l-7.853 2.547 7.853-2.547v-8.255h5.998zm-11.148-35.644H1473.3l39.523-121.522m-16.793 105.012h33.937l-17.057-51.89-16.88 51.89z"
   id="path10" />
            </g>
            <g
   fill="#919191"
   id="g16">
                <path
   d="m368.916 381.396 16.977 1.699c-1.855 9.015-6.603 16.072-14.243 21.172-7.641 5.099-17.024 7.647-28.15 7.647-13.94 0-25.146-3.51-33.617-10.53-8.473-7.021-12.708-17.082-12.708-30.187 0-8.473 1.822-15.888 5.467-22.242 3.645-6.355 9.191-11.122 16.641-14.3 7.448-3.178 15.552-4.767 24.313-4.767 11.062 0 20.109 2.155 27.143 6.467 7.033 4.311 11.541 10.432 13.523 18.362l-16.785 1.996c-1.599-5.271-4.428-9.238-8.488-11.897-4.061-2.661-8.967-3.99-14.722-3.99-8.697 0-15.763 2.401-21.196 7.205-5.436 4.803-8.153 12.402-8.153 22.796 0 10.544 2.621 18.204 7.865 22.982 5.242 4.779 12.085 7.168 20.525 7.168 6.776 0 12.435-1.601 16.976-4.803 4.539-3.2 7.416-8.128 8.632-14.778zM394.237 370.902c0-14.532 5.242-25.297 15.729-32.292 8.759-5.813 19.437-8.721 32.035-8.721 14.003 0 25.447 3.536 34.335 10.604 8.887 7.069 13.332 16.837 13.332 29.3 0 10.1-1.966 18.044-5.898 23.832-3.932 5.789-9.656 10.284-17.168 13.486-7.514 3.202-15.714 4.803-24.601 4.803-14.26 0-25.785-3.521-34.577-10.567-8.792-7.044-13.187-17.191-13.187-30.445zm17.743 0c0 10.05 2.844 17.576 8.536 22.575 5.69 5.001 12.852 7.501 21.484 7.501 8.567 0 15.696-2.513 21.388-7.538 5.69-5.024 8.536-12.685 8.536-22.981 0-9.705-2.862-17.057-8.584-22.059-5.723-4.999-12.837-7.5-21.34-7.5-8.632 0-15.794 2.488-21.484 7.464-5.692 4.977-8.536 12.489-8.536 22.538zM509.905 410.142v-78.478h15.442v11.011c3.196-3.843 7.448-6.934 12.756-9.274 5.307-2.34 11.349-3.511 18.127-3.511 7.544 0 13.73 1.208 18.56 3.621 4.827 2.414 8.231 5.789 10.214 10.124 8.056-9.163 18.542-13.745 31.458-13.745 10.103 0 17.871 2.155 23.306 6.467 5.434 4.311 8.153 10.949 8.153 19.914v53.871h-17.168v-49.438c0-5.32-.561-9.15-1.679-11.49-1.119-2.34-3.15-4.224-6.09-5.653-2.942-1.429-6.395-2.143-10.358-2.143-7.162 0-13.108 1.836-17.839 5.505-4.732 3.671-7.097 9.546-7.097 17.625v45.594h-17.264v-50.989c0-5.911-1.407-10.345-4.22-13.3-2.814-2.957-7.418-4.435-13.811-4.435-4.86 0-9.352.985-13.476 2.955-4.124 1.972-7.114 4.854-8.968 8.646-1.855 3.795-2.782 9.263-2.782 16.405v40.717h-17.264zM673.529 440.218V331.664h15.73v10.197c3.707-3.99 7.896-6.983 12.564-8.979 4.666-1.995 10.325-2.993 16.976-2.993 8.695 0 16.368 1.726 23.019 5.173 6.649 3.449 11.668 8.313 15.058 14.595 3.388 6.281 5.083 13.167 5.083 20.654 0 8.03-1.87 15.26-5.61 21.688-3.741 6.429-9.176 11.356-16.305 14.779-7.13 3.424-14.626 5.136-22.491 5.136-5.755 0-10.919-.937-15.49-2.809-4.572-1.871-8.329-4.235-11.27-7.094v38.205h-17.264zm15.634-68.872c0 10.1 2.653 17.563 7.961 22.391 5.306 4.829 11.732 7.242 19.278 7.242 7.673 0 14.243-2.5 19.71-7.501 5.467-4.999 8.2-12.746 8.2-23.24 0-10-2.67-17.487-8.009-22.465-5.339-4.975-11.717-7.463-19.134-7.463-7.354 0-13.859 2.648-19.518 7.943-5.658 5.297-8.488 12.995-8.488 23.093zM849.526 410.142v-11.527c-7.929 8.867-18.703 13.301-32.321 13.301-6.011 0-11.622-.887-16.833-2.66-5.212-1.773-9.08-4.002-11.605-6.688-2.526-2.685-4.301-5.974-5.323-9.865-.705-2.61-1.055-6.749-1.055-12.415v-48.623h17.264v43.524c0 6.946.351 11.627 1.055 14.041 1.086 3.498 3.389 6.244 6.906 8.238 3.516 1.996 7.865 2.993 13.044 2.993s10.038-1.021 14.578-3.066c4.54-2.044 7.752-4.827 9.639-8.351 1.885-3.521 2.83-8.633 2.83-15.333v-42.047h17.264v78.478h-15.443zM929.708 398.244l2.494 11.75c-4.86.787-9.207 1.183-13.043 1.183-6.268 0-11.126-.766-14.579-2.291-3.453-1.526-5.883-3.535-7.289-6.023-1.407-2.486-2.109-7.722-2.109-15.702V342.01H882.52v-10.345h12.661v-19.436l17.167-7.98v27.416h17.36v10.345h-17.36v45.891c0 3.794.303 6.232.911 7.315.606 1.084 1.597 1.946 2.974 2.586 1.374.641 3.34.961 5.898.961 1.918-.001 4.444-.173 7.577-.519zM1016.315 384.869l17.841 1.699c-2.815 8.031-8.026 14.263-15.634 18.696-7.61 4.435-17.328 6.65-29.157 6.65-14.899 0-26.711-3.534-35.439-10.604-8.727-7.067-13.092-16.983-13.092-29.742 0-13.202 4.412-23.45 13.236-30.741 8.823-7.29 20.27-10.938 34.337-10.938 13.619 0 24.744 3.573 33.377 10.715 8.632 7.144 12.948 17.194 12.948 30.15 0 .789-.033 1.971-.097 3.547h-75.962c.64 8.622 3.804 15.223 9.496 19.805 5.689 4.582 12.787 6.872 21.292 6.872 6.331 0 11.733-1.28 16.209-3.843 4.474-2.56 8.023-6.65 10.645-12.266zm-56.683-21.504h56.876c-.769-6.601-2.943-11.552-6.523-14.854-5.5-5.123-12.628-7.685-21.388-7.685-7.929 0-14.595 2.044-19.997 6.133-5.404 4.091-8.392 9.56-8.968 16.406zM1055.639 410.142v-78.478h15.538v11.896c3.964-5.566 7.625-9.237 10.981-11.01 3.356-1.774 7.05-2.661 11.078-2.661 5.817 0 11.732 1.43 17.743 4.287l-5.946 12.34c-4.22-1.921-8.44-2.882-12.66-2.882-3.774 0-7.162.875-10.167 2.623-3.007 1.75-5.147 4.176-6.426 7.279-1.918 4.729-2.878 9.902-2.878 15.519v41.086h-17.263z"
   id="path14" />
            </g>
        </g>
    </switch>
<path
   style="fill:#ffffff;fill-opacity:1;stroke-width:1.79329"
   d="M 290.51286,174.8457 V 84.284596 H 257.33701 224.16116 V 54.695323 25.10605 H 326.37865 428.59614 V 54.695323 84.284596 H 393.627 358.65785 v 90.561104 90.56111 h -34.07249 -34.0725 z"
   id="path4271" /><path
   style="fill:#ffffff;fill-opacity:1;stroke-width:1.79329"
   d="m 448.32232,205.62436 c 0,-33.86665 0.534,-88.33782 1.18668,-121.047024 l 1.18668,-59.471286 h 31.98917 31.98917 V 146.15308 267.2001 h -33.17585 -33.17585 z"
   id="path4310" /><path
   style="fill:#ffffff;fill-opacity:1;stroke-width:1.79329"
   d="m 537.98678,137.18663 v -22.41612 h 29.58927 29.58928 v 22.41612 22.41612 h -29.58928 -29.58927 z"
   id="path4349" /><path
   style="fill:#ffffff;fill-opacity:1;stroke-width:1.79329"
   d="m 675.64454,268.04555 c -15.62394,-3.10892 -31.55648,-11.68827 -41.55314,-22.3755 -9.50565,-10.1623 -20.26865,-30.18949 -16.79699,-31.2549 1.25787,-0.38602 14.39174,-2.01937 29.18637,-3.62969 14.79464,-1.6103 29.37561,-3.35677 32.40217,-3.88105 5.11474,-0.88599 5.64942,-0.46393 7.58145,5.98462 1.14325,3.81581 4.51676,9.27372 7.4967,12.12868 4.43573,4.2497 7.28793,5.30634 15.73131,5.8279 21.67607,1.33896 32.32318,-11.96117 37.3992,-46.71826 1.55915,-10.67604 2.38385,-19.86196 1.83265,-20.41316 -0.5512,-0.55119 -4.01723,1.64508 -7.7023,4.88061 -22.68833,19.92062 -59.20507,23.52841 -88.71988,8.76538 -19.31609,-9.66173 -34.63118,-28.44866 -40.00054,-49.06844 -7.62004,-29.263009 0.66054,-60.075014 21.42172,-79.710072 19.12352,-18.086224 37.96298,-24.229124 74.426,-24.267753 40.68186,-0.0431 62.96005,7.705921 82.05027,28.539531 23.28464,25.41109 32.1486,59.520604 28.90574,111.232524 -3.63661,57.99044 -30.96629,93.68306 -79.62489,103.99026 -15.33417,3.24819 -47.6356,3.23271 -64.03584,-0.0307 z m 46.96075,-122.76322 c 7.91412,-2.26974 19.17199,-13.2622 21.82965,-21.31502 2.98997,-9.05969 2.43848,-28.760751 -1.03807,-37.083234 -6.17828,-14.790114 -17.59492,-22.656949 -33.08532,-22.79802 -21.85698,-0.199053 -34.22149,14.226083 -34.22149,39.924724 0,31.14366 19.98889,48.8792 46.51523,41.27155 z"
   id="path4388" /><path
   style="fill:#ffffff;fill-opacity:1;stroke-width:1.79329"
   d="m 898.01241,268.04555 c -23.42395,-4.66099 -43.86853,-19.77188 -54.11893,-40.00007 -2.54876,-5.02973 -4.6341,-10.21671 -4.6341,-11.52662 0,-1.75007 7.72795,-3.23658 29.14095,-5.60537 16.02752,-1.77303 31.20775,-3.62293 33.73384,-4.11089 4.0539,-0.78307 4.87333,-0.0375 6.98266,6.3539 1.31437,3.9826 4.74768,9.50011 7.62957,12.26113 4.67046,4.47459 6.54223,5.02004 17.22674,5.02004 14.92627,0 21.44603,-4.08561 27.97063,-17.52784 4.22681,-8.70823 10.91067,-41.45144 9.6569,-47.30767 -0.36662,-1.71243 -3.91448,0.046 -11.29427,5.59776 -15.42953,11.60753 -24.80511,14.42805 -47.52216,14.29641 -22.36713,-0.12962 -33.45025,-3.71596 -50.05294,-16.19643 -18.29196,-13.75031 -28.63796,-33.37341 -30.16806,-57.21932 -2.80708,-43.746745 25.25047,-78.050036 70.42181,-86.098047 29.94257,-5.334757 63.69908,-1.804165 86.19285,9.014906 22.2954,10.72366 41.1769,35.268806 48.2606,62.736826 6.8565,26.587055 6.8328,71.183145 -0.052,97.932615 -9.9404,38.62091 -36.5459,64.1921 -75.33816,72.40935 -15.33417,3.24819 -47.6356,3.23271 -64.03584,-0.0307 z m 55.91974,-126.9948 c 10.16132,-6.72445 15.11046,-18.25925 15.08161,-35.1503 -0.025,-14.64863 -2.67411,-22.05667 -11.15369,-31.190721 -7.04348,-7.587102 -14.0057,-10.521545 -25.21377,-10.62712 -21.54605,-0.202952 -34.22678,14.889299 -34.19837,40.701971 0.0204,18.547 6.76259,31.65518 19.73065,38.36039 10.59578,5.47862 25.642,4.5973 35.75357,-2.09422 z"
   id="path4427" /><path
   style="fill:#ffffff;fill-opacity:1;stroke-width:1.79329"
   d="m 1034.3931,256.83365 c 3.6362,-8.66046 27.1893,-64.33032 52.3402,-123.71079 l 45.7289,-107.964492 15.7971,-0.02616 c 8.6884,-0.01439 15.4866,0.579076 15.1072,1.318808 -0.3795,0.739732 -24.8383,56.419498 -54.3529,123.732814 l -53.6629,122.38785 -13.7844,0.004 -13.7845,0.004 z"
   id="path4466" /><path
   style="fill:#ffffff;fill-opacity:1;stroke-width:1.79329"
   d="m 324.05985,407.9141 c -10.24148,-3.75874 -17.08999,-9.32463 -21.06808,-17.12232 -10.94339,-21.45082 -3.30037,-45.43637 17.51495,-54.96594 19.91464,-9.11722 50.09517,-3.93012 58.33973,10.0268 4.54545,7.69484 3.92626,9.21864 -3.74596,9.21864 -5.3597,0 -7.36191,-0.91891 -9.10698,-4.17959 -3.62221,-6.76817 -11.26897,-10.16743 -22.8553,-10.16002 -18.12256,0.0116 -27.1514,8.32489 -28.80116,26.51868 -2.0126,22.1954 11.07555,36.02946 32.16926,34.00263 10.25724,-0.98559 17.3207,-5.50814 21.11799,-13.52127 2.45663,-5.18404 3.23432,-5.58164 8.96645,-4.58419 3.45208,0.6007 6.6607,1.43657 7.13027,1.85749 0.46958,0.42092 -0.74089,3.71854 -2.68993,7.32806 -4.0221,7.44871 -12.62957,13.86021 -22.16229,16.50813 -9.0572,2.51585 -26.70892,2.04571 -34.80895,-0.9271 z"
   id="path4505" /><path
   style="fill:#ffffff;fill-opacity:1;stroke-width:1.79329"
   d="m 424.99795,408.9877 c -11.60578,-3.53032 -21.78718,-11.68679 -27.00888,-21.63722 -3.86574,-7.36652 -2.96064,-26.55555 1.67493,-35.51001 14.31272,-27.64771 68.86707,-27.83032 84.3499,-0.28235 4.66032,8.29193 5.62847,25.27514 1.98928,34.89572 -5.50557,14.55451 -23.56535,24.32298 -44.47297,24.05526 -6.62059,-0.0848 -14.0601,-0.7694 -16.53226,-1.5214 z m 35.70362,-12.26474 c 8.06799,-6.0131 11.60599,-14.15861 11.60599,-26.72042 0,-12.71458 -2.8759,-18.21121 -13.20727,-25.24268 -8.05386,-5.4814 -24.51169,-5.61657 -34.00809,-0.27929 -20.97216,11.78701 -17.95586,48.25132 4.58766,55.46075 8.12029,2.59687 25.66083,0.77712 31.02171,-3.21836 z"
   id="path4544" /><path
   style="fill:#ffffff;fill-opacity:1;stroke-width:1.79329"
   d="m 511.08744,370.31423 v -38.55571 h 6.27651 c 5.77838,0 6.27652,0.42697 6.27652,5.37986 0,2.95893 0.42079,5.37987 0.93509,5.37987 0.5143,0 3.96282,-2.00365 7.66337,-4.45256 15.62415,-10.33958 41.21882,-8.88147 49.41129,2.81492 2.59407,3.70355 2.62361,3.69861 10.04587,-1.67804 9.47642,-6.86469 21.46836,-9.50831 33.14158,-7.30605 20.01525,3.77605 22.53976,9.17717 22.53976,48.22321 v 28.75022 h -8.0698 -8.06981 v -28.54596 c 0,-15.70027 -0.50128,-29.85227 -1.11395,-31.44888 -2.98054,-7.76715 -20.12742,-10.52312 -31.16525,-5.00911 -10.46603,5.22837 -12.54703,11.91832 -12.55024,40.34623 l -0.003,24.65772 h -7.17316 -7.17315 l -0.01,-24.65772 c -0.011,-27.25666 -1.76812,-36.63736 -7.63183,-40.74446 -5.12986,-3.5931 -18.01923,-3.49867 -25.79028,0.18894 -9.91027,4.70273 -11.83583,10.6589 -12.82024,39.65571 l -0.86766,25.55753 h -6.92589 -6.9259 z"
   id="path4583" /><path
   style="fill:#ffffff;fill-opacity:1;stroke-width:1.79329"
   d="m 674.27677,385.55719 v -53.79867 h 7.17315 c 6.7524,0 7.17316,0.31122 7.17316,5.30579 v 5.3058 l 8.93759,-5.55592 c 7.80006,-4.84877 10.51642,-5.54603 21.34232,-5.47825 15.88725,0.0994 27.53123,5.52668 35.17515,16.39503 4.92309,6.99981 5.37987,8.90339 5.37987,22.42038 0,13.08247 -0.55919,15.61612 -4.89139,22.16251 -7.28178,11.00352 -18.68074,16.94942 -34.30222,17.89268 -11.1938,0.67591 -13.88753,0.19379 -21.32991,-3.81761 l -8.51812,-4.59122 v 18.77908 18.77908 h -8.0698 -8.0698 z m 58.80459,11.31522 c 8.23682,-6.13936 11.5431,-13.76302 11.46992,-26.44747 -0.10593,-18.36169 -7.55498,-27.87756 -23.99718,-30.65545 -8.45726,-1.42884 -21.70921,4.52749 -27.35459,12.29503 -5.34005,7.34743 -5.31889,30.99522 0.0343,38.29272 8.45252,11.52259 28.69008,14.83148 39.84758,6.51517 z"
   id="path4622" /><path
   style="fill:#ffffff;fill-opacity:1;stroke-width:1.79329"
   d="m 798.91037,407.38496 c -13.98955,-6.60816 -14.27654,-7.44615 -14.90784,-43.53047 l -0.56152,-32.09597 h 7.0721 7.0721 l 0.72316,28.41563 c 0.57823,22.72076 1.32724,29.33757 3.73732,33.01581 8.13661,12.41804 36.31309,9.83281 43.45985,-3.98749 2.06584,-3.99491 2.72029,-11.53756 2.72029,-31.35221 v -26.09174 h 8.0698 8.0698 v 38.55571 38.55572 h -7.17316 c -6.75239,0 -7.17316,-0.31122 -7.17316,-5.30579 v -5.3058 l -9.22106,5.73213 c -11.8132,7.34349 -30.34783,8.84549 -41.88768,3.39447 z"
   id="path4661" /><path
   style="fill:#ffffff;fill-opacity:1;stroke-width:1.79329"
   d="m 906.2006,408.04906 c -3.12784,-1.3606 -6.55751,-4.10039 -7.62148,-6.08843 -1.15352,-2.15538 -1.93448,-15.2456 -1.93448,-32.42515 v -28.81052 h -6.27652 c -5.49942,0 -6.27651,-0.55506 -6.27651,-4.48322 0,-3.92816 0.77709,-4.48322 6.27651,-4.48322 h 6.27652 v -9.53096 c 0,-9.14431 0.25708,-9.65354 6.33735,-12.55302 3.48554,-1.66214 6.71346,-3.02207 7.17316,-3.02207 0.45969,0 0.8358,5.64886 0.8358,12.55302 v 12.55303 h 8.96645 c 8.36868,0 8.96644,0.29888 8.96644,4.48322 0,4.18434 -0.59776,4.48322 -8.96644,4.48322 h -8.96645 v 26.77125 c 0,29.96705 0.87826,32.4073 11.66363,32.4073 4.57065,0 6.31989,0.92102 7.23697,3.81046 0.75877,2.39069 0.30267,4.38499 -1.22413,5.35241 -3.67861,2.33087 -16.05838,1.7703 -22.46682,-1.01732 z"
   id="path4700" /><path
   style="fill:#ffffff;fill-opacity:1;stroke-width:1.79329"
   d="m 969.9584,408.18747 c -13.15137,-4.69965 -19.79286,-10.25058 -24.45897,-20.4427 -11.43669,-24.98103 3.78569,-51.27384 32.37966,-55.92763 28.87151,-4.69896 53.35331,10.32997 55.40771,34.01387 l 0.5445,6.27651 -38.242,0.48438 -38.24196,0.48438 1.16902,5.79213 c 2.55929,12.6804 12.1426,20.7895 26.29519,22.25018 12.85149,1.32639 21.62365,-1.63474 28.09285,-9.48305 4.7804,-5.79939 5.617,-6.13143 12.6257,-5.0107 l 7.506,1.20027 -2.9863,4.69423 c -4.7419,7.45403 -11.6672,12.49222 -21.2017,15.42429 -10.70506,3.29204 -30.02079,3.41315 -38.8897,0.24384 z m 46.1428,-49.86027 c -2.2696,-11.34807 -11.9305,-17.60224 -27.19042,-17.60224 -12.33306,0 -21.58598,4.07847 -26.11945,11.51286 -7.07295,11.59881 -6.63779,11.7999 25.53522,11.7999 h 28.91675 z"
   id="path4739" /><path
   style="fill:#ffffff;fill-opacity:1;stroke-width:1.79329"
   d="m 1056.2474,370.31423 v -38.55571 h 7.1731 c 7.0749,0 7.1732,0.0908 7.1732,6.62829 v 6.6283 l 5.8282,-5.62166 c 7.9529,-7.6711 14.2083,-9.7795 23.0924,-7.78337 9.1449,2.05473 9.7652,2.74507 7.3095,8.13481 -1.8281,4.01214 -2.7955,4.3326 -10.6027,3.51226 -19.0907,-2.00592 -23.8274,6.13433 -23.8313,40.95508 v 24.65772 h -8.0698 -8.0698 z"
   id="path4778" /><path
   style="fill:#ffffff;fill-opacity:1;stroke-width:1.79329"
   d="m 1255.3025,254.64708 v -23.31276 h -65.4551 -65.455 l 0.069,-31.83089 0.069,-31.83088 67.5349,-74.86983 67.535,-74.869827 h 36.4067 36.4066 v 73.52486 73.524857 h 17.0363 17.0362 v 33.10855 33.10857 l -16.5879,0.51561 -16.5879,0.51562 -0.5019,22.86444 -0.5019,22.86444 h -38.5022 -38.5021 z m 62.7651,-15.24296 V 216.988 h 16.1396 16.1396 v -18.82954 -18.82953 h -16.1396 -16.1396 V 105.80407 32.279207 h -25.9654 -25.9654 l -62.7299,69.489963 -62.73,69.48996 -0.072,22.86443 -0.072,22.86444 h 65.455 65.4551 v 22.41612 22.41611 h 23.3128 23.3127 z"
   id="path4817" /><path
   style="fill:#ffffff;fill-opacity:1;stroke-width:1.79329"
   d="m 1181.2402,176.96278 c 1.8446,-3.04352 88.5657,-98.058052 89.4989,-98.058052 0.3866,0 0.703,22.595442 0.703,50.212102 v 50.2121 h -45.818 c -37.4695,0 -45.5567,-0.43113 -44.3839,-2.36615 z m 73.9761,-35.74125 -0.086,-23.76108 -16.1345,17.03625 c -8.874,9.36993 -18.5868,20.06242 -21.584,23.76108 l -5.4493,6.72483 h 21.6701 21.6702 z"
   id="path4856" /><path
   style="fill:#ffffff;fill-opacity:1;stroke-width:1.79329"
   d="m 1476.698,179.77725 c 0.6083,-2.71235 8.9794,-29.00281 18.6025,-58.42324 l 17.4966,-53.491699 18.5371,56.181629 c 10.1955,30.8999 18.9214,57.19036 19.391,58.42324 0.6664,1.74962 -7.4851,2.24161 -37.1397,2.24161 h -37.9934 z m 45.9384,-35.37073 c -4.6249,-14.27577 -8.8344,-26.38139 -9.3544,-26.90136 -0.812,-0.81195 -17.6787,48.5186 -17.6787,51.7053 0,0.63361 7.9745,1.15202 17.7211,1.15202 h 17.7211 z"
   id="path4895" /><path
   style="fill:#ffffff;fill-opacity:1;stroke-width:1.79329"
   d="m 1362.8998,277.07069 c 0,-0.66682 87.6103,-218.919394 101.6942,-253.33806 0.724,-1.769272 11.6437,-2.164884 49.4986,-1.793289 l 48.5698,0.476775 12.9815,32.279207 c 7.1398,17.753564 30.2635,75.250897 51.3859,127.771857 l 38.4044,95.49266 h -49.8746 -49.8747 l -6.6109,-20.62283 -6.6108,-20.62283 h -39.7557 -39.7557 l -6.4493,20.17451 -6.4492,20.1745 -48.5768,0.47714 c -26.7171,0.26243 -48.5767,0.0511 -48.5767,-0.46964 z m 93.1123,-35.00445 6.1378,-19.69837 h 50.4119 50.4119 l 6.3342,19.27786 6.3342,19.27786 33.7128,0.48865 c 31.6282,0.45844 33.6403,0.29211 32.5409,-2.68993 -0.6446,-1.74823 -21.0207,-52.60612 -45.2803,-113.01756 l -44.1084,-109.838965 -38.7634,0.04029 -38.7633,0.04029 -42.9265,107.108755 c -23.6095,58.90981 -43.9966,109.73143 -45.3046,112.93693 l -2.3781,5.82819 32.7516,-0.0278 32.7516,-0.0278 6.1377,-19.69838 z"
   id="path4934" /><path
   style="fill:#cccccc;fill-opacity:1;stroke-width:1.79329"
   d="m 1498.1516,165.43094 c 0.5483,-1.72605 4.102,-12.41246 7.8973,-23.7476 l 6.9004,-20.60933 7.4666,22.40526 c 4.1066,12.32289 7.4666,23.00931 7.4666,23.74759 0,0.73828 -6.9138,1.34233 -15.3638,1.34233 -13.8164,0 -15.2635,-0.31608 -14.3671,-3.13825 z"
   id="path5047" /><path
   style="fill:#cccccc;fill-opacity:1;stroke-width:1.79329"
   d="m 1224.027,153.77455 c 4.7673,-5.17812 13.351,-14.48791 19.075,-20.68843 l 10.4072,-11.27367 v 20.68844 20.68843 h -19.0749 -19.075 z"
   id="path5086" /></svg>
