<svg id="svg" version="1.1" xmlns="http://www.w3.org/2000/svg" xmlns:xlink="http://www.w3.org/1999/xlink" width="400" height="197.6" viewBox="0, 0, 400,197.6"><g id="svgg"><path id="path0" d="M5.962 10.392 C 5.415 11.011,5.336 12.151,5.336 19.408 C 5.336 26.464,5.356 26.881,5.710 27.216 C 5.916 27.410,6.117 27.747,6.157 27.964 C 6.223 28.324,6.409 28.365,8.233 28.416 C 10.380 28.476,11.053 29.022,9.369 29.338 C 8.999 29.408,8.696 29.552,8.696 29.658 C 8.696 29.765,8.473 29.936,8.202 30.040 C 7.855 30.171,7.708 30.376,7.708 30.725 C 7.708 31.008,7.537 31.328,7.312 31.469 C 7.020 31.651,6.917 31.930,6.917 32.534 C 6.917 33.187,6.837 33.374,6.522 33.456 C 6.165 33.550,6.126 33.726,6.126 35.245 C 6.126 36.756,6.167 36.943,6.522 37.055 C 6.825 37.152,6.917 37.354,6.917 37.927 C 6.917 38.423,7.050 38.794,7.312 39.032 C 7.530 39.228,7.708 39.598,7.708 39.853 C 7.708 40.175,7.821 40.316,8.080 40.316 C 8.284 40.316,8.497 40.488,8.552 40.698 C 8.617 40.947,8.894 41.126,9.347 41.211 C 9.796 41.295,10.078 41.475,10.141 41.718 C 10.297 42.315,16.190 42.297,16.346 41.700 C 16.405 41.475,16.615 41.304,16.834 41.304 C 17.374 41.304,17.984 40.946,17.984 40.629 C 17.984 40.482,18.162 40.316,18.379 40.259 C 18.635 40.192,18.775 39.989,18.775 39.687 C 18.775 39.429,18.953 39.089,19.170 38.933 C 19.441 38.737,19.565 38.421,19.565 37.924 C 19.565 37.367,19.656 37.176,19.960 37.097 C 20.351 36.995,20.354 37.120,20.404 56.689 L 20.455 76.383 21.047 76.448 C 21.374 76.484,21.725 76.595,21.828 76.695 C 22.076 76.936,39.582 76.938,39.832 76.697 C 39.935 76.597,40.242 76.486,40.514 76.450 L 41.008 76.383 41.058 52.421 L 41.108 28.458 43.133 28.474 C 44.247 28.483,45.047 28.535,44.911 28.589 C 44.775 28.644,44.664 28.815,44.664 28.969 C 44.664 29.136,44.464 29.249,44.170 29.249 C 43.808 29.249,43.676 29.354,43.676 29.644 C 43.676 29.908,43.544 30.040,43.281 30.040 C 43.017 30.040,42.885 30.171,42.885 30.435 C 42.885 30.698,42.754 30.830,42.490 30.830 C 42.229 30.830,42.095 30.962,42.095 31.218 C 42.095 31.432,41.917 31.702,41.700 31.818 C 41.091 32.144,41.091 38.203,41.700 38.583 C 41.917 38.719,42.095 38.987,42.095 39.178 C 42.095 39.394,42.245 39.526,42.490 39.526 C 42.754 39.526,42.885 39.657,42.885 39.921 C 42.885 40.184,43.017 40.316,43.281 40.316 C 43.570 40.316,43.676 40.448,43.676 40.810 C 43.676 41.173,43.781 41.304,44.071 41.304 C 44.289 41.304,44.466 41.427,44.466 41.578 C 44.466 42.245,50.514 42.371,51.168 41.718 C 51.375 41.510,51.709 41.309,51.909 41.271 C 52.109 41.233,52.301 41.002,52.336 40.759 C 52.376 40.475,52.536 40.316,52.781 40.316 C 53.030 40.316,53.162 40.180,53.162 39.921 C 53.162 39.657,53.294 39.526,53.557 39.526 C 53.857 39.526,53.953 39.394,53.953 38.980 C 53.953 38.649,54.108 38.338,54.348 38.188 C 54.953 37.810,54.953 32.638,54.348 32.259 C 54.096 32.102,53.953 31.798,53.953 31.421 C 53.953 30.962,53.864 30.830,53.557 30.830 C 53.294 30.830,53.162 30.698,53.162 30.435 C 53.162 30.171,53.030 30.040,52.767 30.040 C 52.503 30.040,52.372 29.908,52.372 29.644 C 52.372 29.343,52.240 29.249,51.818 29.249 C 51.285 29.249,50.791 28.945,50.791 28.617 C 50.791 28.530,51.717 28.458,52.849 28.458 C 53.982 28.458,55.049 28.405,55.221 28.339 C 55.500 28.232,55.534 27.237,55.534 19.149 L 55.534 10.079 30.879 10.087 C 9.155 10.093,6.194 10.130,5.962 10.392 M58.985 10.324 C 58.933 10.461,58.913 25.380,58.941 43.478 L 58.992 76.383 59.486 76.450 C 59.758 76.486,60.065 76.597,60.168 76.697 C 60.560 77.074,77.908 76.912,78.410 76.526 L 78.855 76.183 78.805 43.181 L 78.755 10.178 68.917 10.127 C 61.153 10.086,59.060 10.128,58.985 10.324 M108.749 10.473 C 108.461 10.811,108.167 10.870,106.774 10.870 C 105.402 10.870,105.075 10.933,104.743 11.265 C 104.451 11.557,104.084 11.660,103.341 11.660 C 102.501 11.660,102.317 11.725,102.231 12.055 C 102.150 12.365,101.962 12.451,101.362 12.451 C 100.810 12.451,100.527 12.561,100.349 12.846 C 100.191 13.099,99.889 13.241,99.506 13.241 C 99.123 13.241,98.821 13.383,98.662 13.636 C 98.519 13.866,98.202 14.032,97.905 14.032 C 97.560 14.032,97.360 14.160,97.290 14.427 C 97.224 14.683,97.021 14.822,96.716 14.822 C 96.457 14.822,96.067 15.000,95.850 15.217 C 95.632 15.435,95.321 15.613,95.158 15.613 C 94.993 15.613,94.862 15.788,94.862 16.008 C 94.862 16.225,94.732 16.403,94.574 16.403 C 94.314 16.403,94.075 16.584,92.787 17.754 C 92.569 17.952,92.236 18.171,92.045 18.240 C 91.855 18.310,91.700 18.503,91.700 18.670 C 91.700 18.836,91.563 18.972,91.397 18.972 C 91.231 18.972,91.036 19.128,90.965 19.318 C 90.894 19.508,90.675 19.780,90.477 19.922 C 90.280 20.064,90.119 20.295,90.119 20.435 C 90.119 20.575,89.941 20.851,89.723 21.047 C 89.506 21.244,89.328 21.569,89.328 21.770 C 89.328 22.003,89.185 22.134,88.933 22.134 C 88.669 22.134,88.538 22.266,88.538 22.530 C 88.538 22.793,88.406 22.925,88.142 22.925 C 87.813 22.925,87.747 23.057,87.747 23.715 C 87.747 24.427,87.698 24.506,87.253 24.506 C 86.900 24.506,86.759 24.613,86.759 24.880 C 86.759 25.086,86.630 25.303,86.473 25.364 C 86.316 25.424,86.130 25.783,86.059 26.162 C 85.988 26.540,85.813 26.895,85.671 26.949 C 85.529 27.004,85.348 27.342,85.269 27.701 C 85.191 28.060,84.993 28.452,84.830 28.571 C 84.661 28.694,84.491 29.228,84.435 29.809 C 84.374 30.449,84.244 30.830,84.087 30.830 C 83.748 30.830,83.597 31.288,83.597 32.315 C 83.597 33.001,83.517 33.200,83.202 33.300 C 82.853 33.411,82.806 33.599,82.806 34.895 C 82.806 36.100,82.735 36.435,82.411 36.759 C 82.034 37.136,82.016 37.418,82.016 42.887 C 82.016 48.376,82.033 48.635,82.411 48.959 C 82.758 49.256,82.806 49.542,82.806 51.312 C 82.806 53.491,82.896 53.953,83.322 53.953 C 83.526 53.953,83.597 54.253,83.597 55.112 C 83.597 55.972,83.699 56.401,83.992 56.773 C 84.214 57.056,84.387 57.575,84.387 57.959 C 84.387 58.335,84.552 58.854,84.754 59.114 C 84.956 59.373,85.182 59.918,85.257 60.326 C 85.341 60.780,85.505 61.067,85.681 61.067 C 85.869 61.067,85.968 61.273,85.968 61.660 C 85.968 61.986,86.133 62.418,86.335 62.620 C 86.537 62.821,86.763 63.231,86.838 63.530 C 86.913 63.829,87.148 64.119,87.361 64.174 C 87.608 64.239,87.747 64.445,87.747 64.746 C 87.747 65.086,87.858 65.217,88.142 65.217 C 88.389 65.217,88.538 65.349,88.538 65.569 C 88.538 65.762,88.715 66.049,88.933 66.206 C 89.150 66.362,89.328 66.651,89.328 66.848 C 89.328 67.045,89.468 67.260,89.640 67.326 C 89.811 67.391,90.031 67.655,90.129 67.912 C 90.227 68.169,90.442 68.379,90.608 68.379 C 90.773 68.379,90.909 68.516,90.909 68.682 C 90.909 68.849,91.065 69.043,91.255 69.114 C 91.445 69.185,91.717 69.404,91.859 69.602 C 92.001 69.799,92.270 69.960,92.458 69.960 C 92.645 69.960,92.926 70.138,93.083 70.356 C 93.240 70.573,93.526 70.751,93.720 70.751 C 93.939 70.751,94.071 70.899,94.071 71.146 C 94.071 71.410,94.203 71.542,94.466 71.542 C 94.684 71.542,95.040 71.719,95.257 71.937 C 95.474 72.154,95.824 72.332,96.034 72.332 C 96.244 72.332,96.473 72.510,96.542 72.727 C 96.634 73.019,96.841 73.123,97.332 73.123 C 97.824 73.123,98.030 73.226,98.123 73.518 C 98.222 73.831,98.422 73.913,99.088 73.913 C 99.738 73.913,100.026 74.025,100.358 74.407 C 100.692 74.790,100.978 74.901,101.635 74.901 C 102.237 74.901,102.579 75.015,102.820 75.296 C 103.100 75.623,103.403 75.692,104.571 75.692 C 105.689 75.692,106.037 75.764,106.237 76.038 C 106.672 76.634,144.193 77.263,145.356 76.692 C 145.573 76.586,145.973 76.473,146.245 76.441 L 146.739 76.383 146.739 55.237 L 146.739 34.091 146.245 34.033 C 145.973 34.002,145.573 33.888,145.356 33.782 C 144.820 33.519,113.393 33.642,112.451 33.910 L 111.759 34.107 111.707 42.844 L 111.656 51.581 118.871 51.581 L 126.087 51.581 126.087 55.237 L 126.087 58.893 120.455 58.893 C 115.086 58.893,114.804 58.875,114.427 58.498 C 114.095 58.166,113.768 58.103,112.396 58.103 C 111.004 58.103,110.709 58.044,110.421 57.708 C 110.190 57.438,109.838 57.312,109.314 57.312 C 108.710 57.312,108.522 57.227,108.441 56.917 C 108.373 56.658,108.171 56.522,107.855 56.522 C 107.590 56.522,107.213 56.344,107.016 56.126 C 106.819 55.909,106.494 55.731,106.293 55.731 C 106.061 55.731,105.929 55.588,105.929 55.336 C 105.929 55.072,105.797 54.941,105.534 54.941 C 105.270 54.941,105.138 54.809,105.138 54.545 C 105.138 54.282,105.007 54.150,104.743 54.150 C 104.474 54.150,104.348 54.018,104.348 53.736 C 104.348 53.489,104.189 53.281,103.953 53.219 C 103.735 53.162,103.557 52.970,103.557 52.791 C 103.557 52.613,103.379 52.356,103.162 52.220 C 102.932 52.076,102.767 51.759,102.767 51.462 C 102.767 51.117,102.638 50.918,102.372 50.848 C 102.045 50.762,101.976 50.578,101.976 49.786 C 101.976 49.030,101.893 48.783,101.581 48.617 C 101.206 48.416,101.186 48.203,101.186 44.384 C 101.186 40.529,101.202 40.358,101.581 40.259 C 101.917 40.171,101.976 39.989,101.976 39.050 C 101.976 38.076,102.023 37.945,102.372 37.945 C 102.701 37.945,102.767 37.813,102.767 37.154 C 102.767 36.495,102.833 36.364,103.162 36.364 C 103.423 36.364,103.557 36.232,103.557 35.975 C 103.557 35.762,103.735 35.492,103.953 35.375 C 104.211 35.237,104.348 34.962,104.348 34.578 C 104.348 34.124,104.437 33.992,104.743 33.992 C 105.007 33.992,105.138 33.860,105.138 33.597 C 105.138 33.333,105.270 33.202,105.534 33.202 C 105.797 33.202,105.929 33.070,105.929 32.806 C 105.929 32.561,106.061 32.411,106.277 32.411 C 106.468 32.411,106.735 32.233,106.871 32.016 C 107.009 31.795,107.332 31.621,107.603 31.621 C 107.887 31.621,108.177 31.456,108.300 31.225 C 108.417 31.008,108.687 30.830,108.900 30.830 C 109.114 30.830,109.466 30.652,109.684 30.435 C 109.901 30.217,110.250 30.040,110.458 30.040 C 111.047 30.040,111.462 29.826,111.462 29.524 C 111.462 29.322,111.752 29.249,112.548 29.249 C 113.419 29.249,113.682 29.171,113.880 28.854 C 114.123 28.464,114.341 28.458,129.975 28.458 C 139.838 28.458,146.016 28.385,146.333 28.265 L 146.842 28.071 146.791 19.125 L 146.739 10.178 127.914 10.127 C 109.286 10.078,109.085 10.081,108.749 10.473 M163.241 10.474 C 162.937 10.778,162.582 10.870,161.708 10.870 C 160.783 10.870,160.523 10.944,160.323 11.265 C 160.154 11.535,159.862 11.660,159.402 11.660 C 158.549 11.660,158.103 11.830,158.103 12.153 C 158.103 12.293,157.800 12.463,157.430 12.533 C 157.060 12.602,156.707 12.790,156.646 12.950 C 156.584 13.110,156.353 13.241,156.133 13.241 C 155.863 13.241,155.731 13.371,155.731 13.636 C 155.731 13.900,155.599 14.032,155.336 14.032 C 155.072 14.032,154.941 14.163,154.941 14.427 C 154.941 14.696,154.809 14.822,154.527 14.822 C 154.279 14.822,154.072 14.981,154.010 15.217 C 153.953 15.435,153.775 15.613,153.615 15.613 C 153.454 15.613,153.278 15.782,153.224 15.990 C 153.170 16.197,152.956 16.411,152.749 16.465 C 152.529 16.523,152.372 16.737,152.372 16.978 C 152.372 17.205,152.245 17.391,152.091 17.391 C 151.935 17.391,151.747 17.677,151.669 18.034 C 151.591 18.387,151.362 18.792,151.159 18.934 C 150.921 19.101,150.791 19.433,150.791 19.873 C 150.791 20.320,150.697 20.553,150.517 20.553 C 150.177 20.553,150.006 21.161,150.003 22.380 C 150.001 23.101,149.909 23.374,149.605 23.564 C 149.015 23.932,148.992 31.050,149.579 31.461 C 149.860 31.659,149.968 32.041,150.034 33.074 C 150.098 34.078,150.206 34.475,150.455 34.615 C 150.672 34.736,150.791 35.050,150.791 35.503 C 150.791 36.037,150.884 36.228,151.186 36.306 C 151.485 36.385,151.581 36.576,151.581 37.097 C 151.581 37.618,151.677 37.809,151.976 37.887 C 152.227 37.953,152.372 38.157,152.372 38.446 C 152.372 39.106,152.572 39.526,152.887 39.526 C 153.038 39.526,153.162 39.694,153.162 39.900 C 153.162 40.106,153.293 40.324,153.452 40.385 C 153.612 40.447,153.874 40.812,154.035 41.197 C 154.196 41.582,154.466 41.897,154.634 41.897 C 154.805 41.897,154.941 42.066,154.941 42.276 C 154.941 42.484,155.052 42.700,155.188 42.754 C 155.385 42.834,155.385 42.857,155.188 42.870 C 155.052 42.878,154.941 43.063,154.941 43.281 C 154.941 43.540,154.809 43.676,154.559 43.676 C 154.349 43.676,154.120 43.854,154.051 44.071 C 153.982 44.289,153.840 44.466,153.735 44.466 C 153.631 44.466,153.488 44.622,153.418 44.812 C 153.348 45.002,153.084 45.354,152.831 45.593 C 152.578 45.833,152.372 46.211,152.372 46.433 C 152.372 46.664,152.242 46.838,152.070 46.838 C 151.904 46.838,151.684 47.060,151.581 47.332 C 151.478 47.604,151.306 47.826,151.200 47.826 C 151.093 47.826,150.948 48.137,150.876 48.518 C 150.805 48.898,150.633 49.209,150.493 49.209 C 150.197 49.209,150.000 49.644,150.000 50.299 C 150.000 50.590,149.852 50.811,149.605 50.889 C 149.283 50.991,149.209 51.188,149.209 51.942 C 149.209 52.655,149.118 52.926,148.814 53.116 C 148.473 53.329,148.419 53.577,148.419 54.933 C 148.419 56.222,148.357 56.537,148.073 56.696 C 147.784 56.858,147.727 57.179,147.727 58.661 C 147.727 60.071,147.798 60.511,148.073 60.815 C 148.340 61.110,148.419 61.548,148.419 62.732 C 148.419 64.100,148.462 64.277,148.814 64.370 C 149.124 64.451,149.209 64.639,149.209 65.240 C 149.209 65.744,149.345 66.144,149.605 66.403 C 149.822 66.621,150.000 66.940,150.000 67.113 C 150.000 67.287,150.168 67.472,150.373 67.526 C 150.627 67.592,150.785 67.870,150.869 68.397 C 150.943 68.860,151.101 69.170,151.264 69.170 C 151.413 69.170,151.581 69.348,151.638 69.565 C 151.695 69.783,151.883 69.960,152.057 69.960 C 152.240 69.960,152.372 70.126,152.372 70.356 C 152.372 70.619,152.503 70.751,152.767 70.751 C 153.030 70.751,153.162 70.883,153.162 71.146 C 153.162 71.402,153.294 71.542,153.534 71.542 C 153.740 71.542,153.953 71.718,154.010 71.937 C 154.072 72.173,154.279 72.332,154.527 72.332 C 154.809 72.332,154.941 72.458,154.941 72.727 C 154.941 73.010,155.072 73.123,155.404 73.123 C 155.659 73.123,156.029 73.300,156.225 73.518 C 156.422 73.735,156.737 73.913,156.925 73.913 C 157.112 73.913,157.311 74.085,157.366 74.295 C 157.433 74.550,157.713 74.724,158.207 74.816 C 158.614 74.893,159.113 75.121,159.316 75.324 C 159.556 75.564,159.967 75.692,160.502 75.692 C 161.053 75.692,161.403 75.805,161.573 76.038 C 162.011 76.637,165.489 76.716,195.449 76.800 C 223.927 76.879,224.206 76.876,225.043 76.483 L 225.889 76.085 225.889 67.609 C 225.889 60.062,225.855 59.120,225.577 59.013 C 225.405 58.947,213.898 58.893,200.007 58.893 C 174.916 58.893,174.749 58.891,174.646 58.498 C 174.567 58.195,174.377 58.103,173.833 58.103 C 173.254 58.103,173.123 58.029,173.123 57.708 C 173.123 57.444,172.991 57.312,172.727 57.312 C 172.373 57.312,172.332 57.181,172.332 56.051 C 172.332 54.955,172.384 54.776,172.727 54.686 C 172.945 54.629,173.123 54.441,173.123 54.268 C 173.123 54.084,173.288 53.953,173.518 53.953 C 173.781 53.953,173.913 53.821,173.913 53.559 C 173.913 53.170,174.077 53.164,187.105 53.114 L 200.296 53.063 200.296 43.972 L 200.296 34.881 187.952 34.831 C 177.402 34.787,175.584 34.738,175.446 34.493 C 175.358 34.335,174.983 34.149,174.613 34.079 C 174.243 34.010,173.893 33.829,173.834 33.676 C 173.776 33.524,173.592 33.399,173.425 33.399 C 173.250 33.399,173.123 33.225,173.123 32.985 C 173.123 32.738,172.964 32.530,172.727 32.468 C 172.418 32.388,172.332 32.199,172.332 31.604 C 172.332 31.046,172.437 30.788,172.727 30.632 C 172.945 30.516,173.123 30.257,173.123 30.057 C 173.123 29.615,173.438 29.346,174.160 29.174 C 174.459 29.102,174.704 28.912,174.704 28.751 C 174.704 28.496,176.285 28.458,187.105 28.456 C 193.925 28.454,199.706 28.399,199.951 28.334 L 200.395 28.215 200.395 19.147 L 200.395 10.079 182.016 10.079 C 163.900 10.079,163.631 10.085,163.241 10.474 M204.677 10.211 C 204.355 10.533,204.532 55.689,204.856 56.014 C 205.130 56.288,206.328 56.324,215.039 56.324 L 224.911 56.324 225.104 55.817 C 225.222 55.506,225.296 50.130,225.296 41.884 L 225.296 28.458 232.905 28.458 C 240.382 28.458,240.514 28.465,240.514 28.854 C 240.514 29.117,240.646 29.249,240.909 29.249 C 241.167 29.249,241.304 29.381,241.304 29.628 C 241.304 30.217,241.517 30.632,241.820 30.632 C 241.981 30.632,242.095 30.836,242.095 31.126 C 242.095 31.489,241.989 31.621,241.700 31.621 C 241.465 31.621,241.304 31.752,241.304 31.944 C 241.304 32.266,240.437 33.202,240.139 33.202 C 240.053 33.202,239.821 33.379,239.625 33.597 C 239.283 33.974,239.016 33.992,233.863 33.992 L 228.458 33.992 228.458 43.182 L 228.458 52.372 232.016 52.372 C 235.139 52.372,235.573 52.410,235.573 52.686 C 235.573 52.860,235.751 53.048,235.968 53.105 C 236.186 53.162,236.364 53.340,236.364 53.500 C 236.364 53.661,236.542 53.838,236.759 53.895 C 237.148 53.997,237.154 54.166,237.157 64.697 C 237.159 75.192,237.201 76.285,237.592 76.285 C 237.699 76.285,238.068 76.418,238.412 76.582 C 239.078 76.898,347.541 76.900,350.664 76.584 C 351.556 76.494,352.093 76.520,352.235 76.662 C 352.497 76.923,354.786 76.951,355.049 76.695 C 355.153 76.595,356.289 76.484,357.576 76.448 C 359.434 76.397,359.961 76.319,360.145 76.068 C 360.277 75.888,360.794 75.706,361.352 75.644 C 361.912 75.581,362.426 75.399,362.559 75.218 C 362.686 75.044,362.985 74.901,363.223 74.901 C 363.461 74.901,363.861 74.679,364.113 74.407 C 364.365 74.135,364.695 73.913,364.847 73.913 C 364.998 73.913,365.233 73.735,365.369 73.518 C 365.527 73.266,365.830 73.123,366.207 73.123 C 366.667 73.123,366.798 73.034,366.798 72.727 C 366.798 72.504,366.930 72.332,367.102 72.332 C 367.269 72.332,367.628 72.132,367.899 71.887 C 369.031 70.868,369.176 70.751,369.313 70.751 C 369.528 70.751,370.751 69.329,370.751 69.079 C 370.751 68.960,370.929 68.734,371.146 68.577 C 371.364 68.420,371.542 68.134,371.542 67.941 C 371.542 67.721,371.690 67.589,371.937 67.589 C 372.182 67.589,372.332 67.457,372.332 67.241 C 372.332 67.050,372.510 66.782,372.727 66.647 C 372.976 66.491,373.123 66.186,373.123 65.822 C 373.123 65.418,373.241 65.206,373.518 65.119 C 373.835 65.018,373.913 64.820,373.913 64.119 C 373.913 63.458,374.010 63.184,374.308 62.998 C 374.630 62.796,374.704 62.537,374.704 61.595 C 374.704 60.634,374.779 60.378,375.148 60.079 C 375.579 59.730,375.593 59.608,375.593 56.259 C 375.593 52.942,375.574 52.779,375.148 52.325 C 374.779 51.932,374.704 51.629,374.704 50.531 C 374.704 49.473,374.625 49.131,374.308 48.814 C 374.045 48.551,373.913 48.155,373.913 47.628 C 373.913 46.970,373.847 46.838,373.518 46.838 C 373.188 46.838,373.123 46.706,373.123 46.047 C 373.123 45.389,373.057 45.257,372.727 45.257 C 372.405 45.257,372.332 45.125,372.332 44.547 C 372.332 44.003,372.240 43.812,371.937 43.733 C 371.718 43.676,371.542 43.464,371.542 43.258 C 371.542 43.017,371.402 42.885,371.146 42.885 C 370.883 42.885,370.751 42.754,370.751 42.490 C 370.751 42.227,370.619 42.095,370.356 42.095 C 370.092 42.095,369.960 41.963,369.960 41.700 C 369.960 41.436,369.829 41.304,369.565 41.304 C 369.302 41.304,369.170 41.173,369.170 40.909 C 369.170 40.646,369.038 40.514,368.775 40.514 C 368.511 40.514,368.379 40.382,368.379 40.119 C 368.379 39.818,368.248 39.723,367.830 39.723 C 367.508 39.723,367.163 39.560,366.996 39.328 C 366.829 39.096,366.484 38.933,366.164 38.933 C 365.830 38.933,365.520 38.778,365.369 38.538 C 364.984 37.921,356.522 37.921,356.522 38.538 C 356.522 38.867,356.390 38.933,355.731 38.933 C 355.072 38.933,354.941 38.999,354.941 39.328 C 354.941 39.618,354.809 39.723,354.447 39.723 C 354.084 39.723,353.953 39.829,353.953 40.119 C 353.953 40.342,353.821 40.514,353.650 40.514 C 353.483 40.514,353.289 40.669,353.218 40.860 C 353.146 41.050,352.969 41.295,352.824 41.404 C 352.679 41.513,352.506 41.958,352.439 42.392 C 352.373 42.826,352.174 43.347,351.999 43.550 C 351.524 44.097,351.546 47.439,352.028 47.972 C 352.218 48.182,352.372 48.664,352.372 49.050 C 352.372 49.435,352.537 49.961,352.738 50.220 C 352.940 50.480,353.167 51.030,353.243 51.443 C 353.319 51.857,353.510 52.244,353.667 52.304 C 354.165 52.495,354.069 56.050,353.557 56.370 C 353.340 56.506,353.162 56.773,353.162 56.965 C 353.162 57.228,353.000 57.312,352.493 57.312 C 351.991 57.312,351.799 57.411,351.721 57.708 C 351.631 58.055,351.452 58.103,350.243 58.103 C 349.167 58.103,348.758 58.189,348.365 58.498 C 347.866 58.891,347.563 58.893,303.378 58.893 L 258.893 58.893 258.893 56.052 C 258.893 52.738,258.779 51.961,258.270 51.828 C 257.992 51.755,257.905 51.545,257.905 50.947 C 257.905 50.327,257.822 50.139,257.510 50.057 C 257.215 49.980,257.115 49.788,257.115 49.299 C 257.115 48.817,257.010 48.610,256.719 48.518 C 256.502 48.449,256.324 48.263,256.324 48.104 C 256.324 47.946,256.102 47.732,255.830 47.628 C 255.558 47.525,255.336 47.356,255.336 47.253 C 255.336 47.149,255.180 47.024,254.990 46.974 C 254.730 46.906,254.754 46.878,255.089 46.861 C 255.394 46.845,255.534 46.714,255.534 46.443 C 255.534 46.179,255.665 46.047,255.929 46.047 C 256.192 46.047,256.324 45.916,256.324 45.652 C 256.324 45.389,256.456 45.257,256.719 45.257 C 256.975 45.257,257.115 45.125,257.115 44.885 C 257.115 44.679,257.291 44.466,257.510 44.409 C 257.727 44.352,257.905 44.170,257.905 44.004 C 257.905 43.838,258.061 43.649,258.251 43.584 C 258.582 43.471,259.491 42.177,259.747 41.453 C 259.814 41.262,259.960 41.107,260.071 41.107 C 260.181 41.107,260.329 40.751,260.398 40.316 C 260.469 39.877,260.636 39.526,260.775 39.526 C 261.092 39.526,261.265 39.078,261.265 38.256 C 261.265 37.862,261.419 37.471,261.660 37.253 C 261.966 36.976,262.055 36.644,262.055 35.784 C 262.055 34.917,262.142 34.598,262.451 34.334 C 262.818 34.020,262.846 33.751,262.846 30.517 C 262.846 27.204,262.827 27.033,262.451 26.935 C 262.108 26.845,262.055 26.665,262.055 25.586 C 262.055 24.163,261.932 23.715,261.540 23.715 C 261.354 23.715,261.265 23.476,261.265 22.972 C 261.265 22.443,261.151 22.158,260.870 21.983 C 260.619 21.826,260.474 21.522,260.474 21.152 C 260.474 20.778,260.338 20.494,260.095 20.364 C 259.887 20.253,259.657 19.894,259.585 19.567 C 259.514 19.240,259.335 18.972,259.188 18.972 C 259.041 18.972,258.892 18.772,258.858 18.528 C 258.817 18.242,258.636 18.060,258.350 18.020 C 258.064 17.979,257.905 17.820,257.905 17.575 C 257.905 17.325,257.769 17.194,257.510 17.194 C 257.246 17.194,257.115 17.062,257.115 16.798 C 257.115 16.535,256.983 16.403,256.719 16.403 C 256.456 16.403,256.324 16.271,256.324 16.008 C 256.324 15.744,256.192 15.613,255.929 15.613 C 255.665 15.613,255.534 15.481,255.534 15.217 C 255.534 14.954,255.402 14.822,255.138 14.822 C 254.921 14.822,254.743 14.698,254.743 14.547 C 254.743 14.228,254.322 14.032,253.640 14.032 C 253.294 14.032,253.162 13.923,253.162 13.636 C 253.162 13.329,253.030 13.241,252.571 13.241 C 252.194 13.241,251.890 13.098,251.733 12.846 C 251.559 12.568,251.272 12.451,250.766 12.451 C 250.212 12.451,250.022 12.359,249.943 12.055 C 249.856 11.722,249.673 11.660,248.781 11.660 C 247.938 11.660,247.674 11.580,247.477 11.265 C 247.259 10.917,247.016 10.870,245.435 10.870 C 243.939 10.870,243.556 10.804,243.137 10.474 C 242.629 10.075,205.070 9.818,204.677 10.211 M20.356 30.929 C 20.356 32.288,20.319 33.399,20.273 33.399 C 19.795 33.399,19.565 33.072,19.565 32.390 C 19.565 31.884,19.430 31.485,19.170 31.225 C 18.953 31.008,18.775 30.694,18.775 30.527 C 18.775 30.361,18.619 30.167,18.429 30.096 C 18.239 30.025,17.967 29.805,17.825 29.608 C 17.680 29.407,17.321 29.249,17.008 29.249 C 16.615 29.249,16.419 29.131,16.346 28.854 C 16.247 28.477,16.340 28.458,18.299 28.458 L 20.356 28.458 20.356 30.929 M385.672 59.486 C 385.605 59.595,384.776 59.684,383.830 59.684 C 382.325 59.684,382.080 59.733,381.864 60.079 C 381.707 60.331,381.403 60.474,381.026 60.474 C 380.567 60.474,380.435 60.562,380.435 60.870 C 380.435 61.133,380.303 61.265,380.040 61.265 C 379.776 61.265,379.644 61.397,379.644 61.660 C 379.644 61.924,379.513 62.055,379.249 62.055 C 378.994 62.055,378.854 62.187,378.854 62.428 C 378.854 62.634,378.677 62.846,378.458 62.903 C 378.162 62.981,378.063 63.173,378.063 63.669 C 378.063 64.118,377.936 64.412,377.668 64.579 C 377.300 64.808,377.273 65.040,377.273 67.887 C 377.273 70.685,377.307 70.983,377.668 71.344 C 377.885 71.561,378.063 71.910,378.063 72.118 C 378.063 72.707,378.276 73.123,378.578 73.123 C 378.730 73.123,378.854 73.300,378.854 73.518 C 378.854 73.781,378.986 73.913,379.249 73.913 C 379.501 73.913,379.644 74.045,379.644 74.277 C 379.644 74.477,379.867 74.741,380.138 74.865 C 380.410 74.989,380.632 75.177,380.632 75.283 C 380.632 75.389,380.966 75.539,381.374 75.615 C 381.781 75.691,382.218 75.895,382.345 76.068 C 382.809 76.702,389.130 76.623,389.130 75.984 C 389.130 75.780,389.345 75.692,389.841 75.692 C 390.371 75.692,390.576 75.597,390.649 75.318 C 390.705 75.101,390.986 74.896,391.315 74.830 C 391.699 74.753,392.048 74.456,392.387 73.919 C 392.664 73.481,392.978 73.123,393.085 73.123 C 393.193 73.123,393.281 72.977,393.281 72.798 C 393.281 72.620,393.426 72.368,393.603 72.239 C 393.808 72.089,393.957 71.615,394.012 70.932 C 394.060 70.343,394.174 69.684,394.267 69.466 C 394.614 68.654,394.657 67.488,394.363 66.920 C 394.202 66.611,394.071 65.886,394.071 65.310 C 394.071 64.101,393.935 63.636,393.581 63.636 C 393.443 63.636,393.274 63.355,393.205 63.012 C 393.136 62.668,392.903 62.263,392.686 62.111 C 392.470 61.959,392.292 61.707,392.292 61.550 C 392.292 61.393,392.115 61.265,391.897 61.265 C 391.680 61.265,391.502 61.141,391.502 60.990 C 391.502 60.674,391.082 60.474,390.422 60.474 C 390.133 60.474,389.929 60.330,389.864 60.079 C 389.771 59.723,389.594 59.684,388.074 59.684 C 387.146 59.684,386.332 59.595,386.265 59.486 C 386.198 59.377,386.064 59.289,385.968 59.289 C 385.873 59.289,385.739 59.377,385.672 59.486 M390.575 67.289 C 391.049 67.636,391.010 68.505,390.514 68.634 C 390.178 68.722,390.119 68.904,390.119 69.834 L 390.119 70.931 389.625 70.437 C 388.972 69.785,388.905 68.379,389.526 68.379 C 389.887 68.379,389.923 68.239,389.947 66.749 C 389.971 65.305,389.989 65.229,390.107 66.082 C 390.184 66.631,390.385 67.150,390.575 67.289 M382.016 67.885 C 382.016 70.026,381.993 70.158,381.621 70.158 C 381.250 70.158,381.225 70.026,381.225 68.083 C 381.225 66.370,381.277 66.008,381.522 66.008 C 381.685 66.008,381.818 65.919,381.818 65.810 C 381.818 65.702,381.863 65.613,381.917 65.613 C 381.971 65.613,382.016 66.635,382.016 67.885 M385.731 70.988 C 385.862 71.119,385.968 71.438,385.968 71.698 C 385.968 72.005,386.107 72.208,386.364 72.275 C 387.212 72.497,386.862 73.320,385.919 73.321 L 385.079 73.321 385.145 72.036 C 385.213 70.731,385.307 70.563,385.731 70.988 " stroke="none" fill="#fc0404" fill-rule="evenodd"></path><path id="path1" d="M198.949 80.564 C 198.875 80.638,198.813 84.930,198.811 90.102 C 198.810 95.274,198.742 99.402,198.661 99.275 C 198.580 99.147,198.248 98.977,197.923 98.897 C 197.598 98.816,197.216 98.587,197.074 98.387 C 196.893 98.133,196.566 98.024,195.985 98.024 C 195.368 98.024,195.091 97.922,194.908 97.628 C 194.470 96.928,183.794 97.043,183.794 97.748 C 183.794 97.943,183.534 98.024,182.905 98.024 C 182.279 98.024,181.899 98.141,181.621 98.419 C 181.403 98.636,181.104 98.814,180.956 98.814 C 180.807 98.814,180.460 98.992,180.183 99.209 C 179.907 99.427,179.531 99.605,179.348 99.605 C 179.164 99.605,178.968 99.783,178.911 100.000 C 178.854 100.217,178.693 100.395,178.552 100.395 C 178.062 100.395,175.692 102.793,175.692 103.288 C 175.692 103.623,175.580 103.755,175.296 103.755 C 175.033 103.755,174.901 103.887,174.901 104.150 C 174.901 104.414,174.769 104.545,174.506 104.545 C 174.223 104.545,174.111 104.677,174.111 105.009 C 174.111 105.264,173.933 105.633,173.715 105.830 C 173.498 106.027,173.320 106.316,173.320 106.472 C 173.320 106.628,173.142 106.982,172.925 107.258 C 172.684 107.564,172.530 108.060,172.530 108.525 C 172.530 109.157,172.461 109.289,172.134 109.289 C 171.780 109.289,171.739 109.420,171.739 110.573 C 171.739 111.539,171.671 111.858,171.464 111.858 C 170.982 111.858,170.949 112.346,170.949 119.501 C 170.949 126.353,170.958 126.522,171.344 126.623 C 171.684 126.711,171.739 126.892,171.739 127.907 C 171.739 128.922,171.795 129.103,172.134 129.192 C 172.442 129.272,172.530 129.461,172.530 130.046 C 172.530 130.990,172.692 131.423,173.045 131.423 C 173.200 131.423,173.320 131.620,173.320 131.873 C 173.320 132.121,173.498 132.452,173.715 132.609 C 173.948 132.776,174.111 133.120,174.111 133.443 C 174.111 133.860,174.205 133.992,174.506 133.992 C 174.769 133.992,174.901 134.124,174.901 134.387 C 174.901 134.651,175.033 134.783,175.296 134.783 C 175.582 134.783,175.692 134.914,175.692 135.258 C 175.692 135.711,176.772 137.154,177.111 137.154 C 177.200 137.154,177.451 137.332,177.668 137.549 C 177.885 137.767,178.241 137.945,178.458 137.945 C 178.722 137.945,178.854 138.076,178.854 138.340 C 178.854 138.601,178.986 138.735,179.242 138.735 C 179.456 138.735,179.726 138.913,179.842 139.130 C 179.970 139.370,180.256 139.526,180.567 139.526 C 180.862 139.526,181.277 139.737,181.539 140.020 C 181.874 140.381,182.200 140.514,182.753 140.514 C 183.264 140.514,183.618 140.642,183.847 140.909 C 184.169 141.285,184.430 141.304,189.229 141.304 C 194.028 141.304,194.289 141.285,194.611 140.909 C 194.823 140.661,195.194 140.514,195.606 140.514 C 196.043 140.514,196.428 140.349,196.757 140.020 C 197.029 139.748,197.425 139.526,197.637 139.526 C 197.892 139.526,198.024 139.391,198.024 139.130 C 198.024 138.824,198.155 138.735,198.610 138.735 C 198.993 138.735,199.269 138.599,199.407 138.340 C 199.523 138.123,199.793 137.945,200.007 137.945 C 200.264 137.945,200.395 137.811,200.395 137.549 C 200.395 136.749,201.138 137.079,201.285 137.945 C 201.364 138.412,201.528 138.735,201.686 138.735 C 201.860 138.735,201.975 139.030,202.014 139.575 L 202.075 140.415 206.643 140.468 C 210.325 140.511,211.254 140.468,211.436 140.249 C 211.603 140.048,211.648 132.289,211.611 110.256 L 211.561 80.534 205.322 80.481 C 201.891 80.453,199.023 80.490,198.949 80.564 M219.755 80.948 C 219.514 81.583,219.586 140.008,219.829 140.250 C 219.919 140.341,222.765 140.415,226.153 140.415 L 232.312 140.415 232.363 127.223 C 232.408 115.583,232.449 114.032,232.714 114.032 C 232.879 114.032,233.098 113.809,233.202 113.538 C 233.305 113.266,233.483 113.043,233.598 113.043 C 233.713 113.043,233.864 112.895,233.934 112.713 C 234.234 111.932,235.991 110.224,236.739 109.986 C 236.968 109.914,237.154 109.727,237.154 109.572 C 237.154 109.382,237.373 109.289,237.815 109.289 C 238.225 109.289,238.612 109.138,238.834 108.893 C 239.142 108.552,239.443 108.498,241.015 108.498 C 242.673 108.498,242.849 108.534,242.943 108.893 C 243.022 109.196,243.212 109.289,243.756 109.289 C 244.335 109.289,244.466 109.362,244.466 109.684 C 244.466 109.947,244.598 110.079,244.862 110.079 C 245.168 110.079,245.257 110.211,245.257 110.665 C 245.257 111.049,245.393 111.324,245.652 111.462 C 246.042 111.671,246.047 111.878,246.050 125.748 C 246.052 134.266,246.127 139.939,246.241 140.119 C 246.401 140.372,247.330 140.415,252.611 140.415 L 258.794 140.415 258.852 124.506 C 258.913 107.495,258.895 106.917,258.288 106.917 C 257.952 106.917,257.905 106.773,257.905 105.731 C 257.905 104.677,257.861 104.545,257.510 104.545 C 257.182 104.545,257.115 104.414,257.115 103.768 C 257.115 103.165,257.026 102.963,256.719 102.866 C 256.502 102.797,256.324 102.568,256.324 102.358 C 256.324 102.108,256.188 101.976,255.929 101.976 C 255.665 101.976,255.534 101.845,255.534 101.579 C 255.534 101.361,255.340 101.027,255.104 100.838 C 254.867 100.649,254.463 100.294,254.205 100.049 C 253.948 99.805,253.618 99.605,253.473 99.605 C 253.327 99.605,253.162 99.427,253.105 99.209 C 253.026 98.910,252.835 98.814,252.314 98.814 C 251.793 98.814,251.602 98.719,251.524 98.419 C 251.440 98.099,251.254 98.024,250.543 98.024 C 249.917 98.024,249.564 97.911,249.308 97.628 C 248.970 97.255,248.700 97.233,244.337 97.233 C 239.987 97.233,239.701 97.256,239.328 97.628 C 239.062 97.895,238.669 98.024,238.124 98.024 C 237.481 98.024,237.294 98.105,237.211 98.419 C 237.133 98.719,236.942 98.814,236.421 98.814 C 235.911 98.814,235.708 98.912,235.635 99.191 C 235.572 99.431,235.292 99.613,234.863 99.694 C 234.493 99.763,234.190 99.940,234.190 100.086 C 234.190 100.233,233.967 100.408,233.696 100.476 C 233.424 100.545,233.202 100.722,233.202 100.870 C 233.202 101.018,233.024 101.186,232.806 101.243 C 232.415 101.345,232.411 101.249,232.411 90.891 L 232.411 80.435 226.181 80.435 L 219.951 80.435 219.755 80.948 M312.499 110.425 L 312.549 140.415 318.429 140.467 L 324.308 140.520 324.308 110.477 L 324.308 80.435 318.379 80.435 L 312.449 80.435 312.499 110.425 M360.474 90.020 C 360.474 99.275,360.462 99.605,360.102 99.605 C 359.896 99.605,359.684 99.428,359.627 99.209 C 359.570 98.992,359.373 98.814,359.190 98.814 C 359.007 98.814,358.631 98.636,358.354 98.419 C 358.049 98.179,357.553 98.024,357.088 98.024 C 356.567 98.024,356.324 97.936,356.324 97.748 C 356.324 97.043,345.790 96.930,345.158 97.628 C 344.903 97.911,344.549 98.024,343.923 98.024 C 343.212 98.024,343.026 98.099,342.943 98.419 C 342.877 98.670,342.673 98.814,342.384 98.814 C 341.724 98.814,341.304 99.014,341.304 99.329 C 341.304 99.481,341.148 99.605,340.957 99.605 C 340.765 99.605,340.503 99.775,340.373 99.982 C 340.244 100.190,339.866 100.419,339.535 100.492 C 339.204 100.565,338.933 100.740,338.933 100.882 C 338.933 101.024,338.755 101.186,338.538 101.243 C 338.320 101.300,338.142 101.488,338.142 101.661 C 338.142 101.835,338.024 101.976,337.880 101.976 C 337.736 101.976,337.358 102.299,337.040 102.694 C 336.722 103.089,336.307 103.553,336.117 103.726 C 335.928 103.898,335.719 104.323,335.654 104.669 C 335.581 105.060,335.393 105.337,335.159 105.398 C 334.911 105.463,334.783 105.671,334.783 106.007 C 334.783 106.304,334.617 106.622,334.387 106.765 C 334.110 106.939,333.992 107.226,333.992 107.732 C 333.992 108.286,333.901 108.476,333.597 108.555 C 333.262 108.643,333.202 108.825,333.202 109.741 C 333.202 110.657,333.141 110.839,332.806 110.927 C 332.445 111.021,332.411 111.196,332.411 112.944 C 332.411 114.559,332.349 114.937,332.016 115.361 C 331.655 115.820,331.621 116.163,331.621 119.295 C 331.621 122.464,331.651 122.758,332.016 123.123 C 332.355 123.462,332.411 123.781,332.411 125.388 C 332.411 127.057,332.454 127.282,332.806 127.470 C 333.129 127.643,333.202 127.884,333.202 128.780 C 333.202 129.713,333.261 129.895,333.597 129.982 C 333.887 130.058,333.992 130.252,333.992 130.710 C 333.992 131.091,334.147 131.468,334.387 131.674 C 334.605 131.860,334.783 132.243,334.783 132.526 C 334.783 132.866,334.910 133.074,335.159 133.139 C 335.399 133.202,335.582 133.482,335.662 133.911 C 335.732 134.282,335.875 134.585,335.982 134.585 C 336.088 134.585,336.276 134.807,336.400 135.079 C 336.523 135.351,336.733 135.573,336.866 135.573 C 336.999 135.573,337.155 135.751,337.211 135.968 C 337.273 136.205,337.481 136.364,337.729 136.364 C 338.011 136.364,338.142 136.489,338.142 136.759 C 338.142 137.022,338.274 137.154,338.538 137.154 C 338.801 137.154,338.933 137.286,338.933 137.549 C 338.933 137.795,339.065 137.945,339.281 137.945 C 339.472 137.945,339.739 138.123,339.875 138.340 C 340.033 138.592,340.336 138.735,340.713 138.735 C 341.173 138.735,341.304 138.823,341.304 139.130 C 341.304 139.460,341.436 139.526,342.095 139.526 C 342.739 139.526,342.885 139.595,342.885 139.900 C 342.885 140.335,343.254 140.514,344.155 140.514 C 344.549 140.514,344.940 140.668,345.158 140.909 C 345.700 141.508,355.205 141.521,355.963 140.924 C 356.229 140.715,356.752 140.515,357.126 140.480 C 357.657 140.429,357.820 140.317,357.869 139.970 C 357.922 139.598,358.055 139.526,358.686 139.526 C 359.274 139.526,359.463 139.439,359.543 139.130 C 359.605 138.894,359.813 138.735,360.061 138.735 C 360.343 138.735,360.474 138.609,360.474 138.340 C 360.474 138.094,360.606 137.945,360.822 137.945 C 361.013 137.945,361.281 137.767,361.417 137.549 C 362.004 136.610,362.846 137.028,362.846 138.260 C 362.846 139.188,362.907 139.381,363.230 139.466 C 363.441 139.521,363.641 139.757,363.675 139.991 C 363.734 140.408,363.806 140.416,368.034 140.468 L 372.332 140.522 372.332 110.478 L 372.332 80.435 366.403 80.435 L 360.474 80.435 360.474 90.020 M22.925 112.451 L 22.925 140.519 29.200 140.467 L 35.474 140.415 35.525 129.200 L 35.576 117.984 47.233 117.984 L 58.890 117.984 58.941 129.200 L 58.992 140.415 65.267 140.467 L 71.542 140.519 71.542 112.451 L 71.542 84.382 65.267 84.434 L 58.992 84.486 58.941 95.702 L 58.890 106.917 47.233 106.917 L 35.576 106.917 35.525 95.702 L 35.474 84.486 29.200 84.434 L 22.925 84.382 22.925 112.451 M91.502 97.377 C 91.339 97.438,91.134 97.609,91.047 97.756 C 90.945 97.930,90.505 98.024,89.794 98.024 C 88.887 98.024,88.681 98.088,88.601 98.395 C 88.527 98.680,88.268 98.790,87.499 98.864 C 86.941 98.917,86.400 99.090,86.281 99.252 C 86.163 99.412,85.734 99.605,85.326 99.682 C 84.873 99.766,84.585 99.932,84.585 100.108 C 84.585 100.266,84.419 100.395,84.216 100.395 C 84.014 100.395,83.636 100.561,83.376 100.763 C 83.117 100.966,82.705 101.194,82.460 101.271 C 82.216 101.347,82.016 101.527,82.016 101.670 C 82.016 101.813,81.838 101.977,81.621 102.034 C 81.384 102.095,81.225 102.303,81.225 102.551 C 81.225 102.778,81.098 102.964,80.942 102.964 C 80.602 102.964,80.377 103.572,80.550 104.024 C 80.619 104.202,80.799 104.348,80.950 104.348 C 81.101 104.348,81.225 104.526,81.225 104.743 C 81.225 104.960,81.403 105.316,81.621 105.534 C 81.838 105.751,82.016 106.107,82.016 106.324 C 82.016 106.588,82.148 106.719,82.411 106.719 C 82.697 106.719,82.806 106.851,82.806 107.197 C 82.806 107.880,83.003 108.300,83.322 108.300 C 83.473 108.300,83.597 108.487,83.597 108.714 C 83.597 108.962,83.756 109.169,83.992 109.231 C 84.244 109.297,84.387 109.501,84.387 109.792 C 84.387 110.808,86.455 111.418,86.702 110.474 C 86.767 110.223,86.971 110.079,87.260 110.079 C 87.920 110.079,88.340 109.879,88.340 109.564 C 88.340 109.404,88.541 109.289,88.818 109.289 C 89.500 109.289,89.921 109.092,89.921 108.773 C 89.921 108.587,90.162 108.497,90.662 108.495 C 91.694 108.492,92.292 108.303,92.292 107.981 C 92.292 107.481,99.496 107.593,100.144 108.103 C 100.420 108.320,100.763 108.498,100.906 108.498 C 101.233 108.498,102.174 109.358,102.174 109.657 C 102.174 109.780,102.296 109.881,102.444 109.881 C 102.610 109.881,102.756 110.185,102.820 110.667 C 102.878 111.098,103.068 111.594,103.241 111.768 C 103.484 112.010,103.557 112.495,103.557 113.848 L 103.557 115.613 101.823 115.613 C 100.488 115.613,99.975 115.533,99.599 115.267 C 99.183 114.972,98.641 114.921,95.920 114.921 C 93.159 114.921,92.678 114.967,92.347 115.267 C 92.054 115.533,91.616 115.613,90.458 115.613 C 89.021 115.613,87.945 115.880,87.945 116.237 C 87.945 116.329,87.590 116.403,87.156 116.403 C 86.581 116.403,86.300 116.510,86.120 116.798 C 85.953 117.066,85.659 117.194,85.211 117.194 C 84.725 117.194,84.522 117.294,84.449 117.570 C 84.387 117.810,84.106 117.993,83.677 118.073 C 83.307 118.143,83.004 118.287,83.004 118.393 C 83.004 118.499,82.782 118.687,82.510 118.811 C 82.238 118.934,82.016 119.199,82.016 119.399 C 82.016 119.599,81.880 119.763,81.713 119.763 C 81.547 119.763,81.353 119.912,81.284 120.094 C 81.214 120.276,80.994 120.587,80.796 120.785 C 80.597 120.984,80.435 121.358,80.435 121.617 C 80.435 121.922,80.295 122.125,80.040 122.192 C 79.717 122.276,79.644 122.461,79.644 123.201 C 79.644 123.893,79.551 124.166,79.249 124.354 C 78.878 124.586,78.854 124.815,78.854 128.111 C 78.854 131.357,78.883 131.650,79.249 132.016 C 79.513 132.279,79.644 132.675,79.644 133.202 C 79.644 133.729,79.776 134.124,80.040 134.387 C 80.257 134.605,80.435 134.939,80.435 135.130 C 80.435 135.322,80.600 135.581,80.802 135.707 C 81.004 135.834,81.224 136.211,81.291 136.546 C 81.363 136.906,81.536 137.154,81.714 137.154 C 81.880 137.154,82.016 137.296,82.016 137.469 C 82.016 137.642,82.191 137.830,82.405 137.886 C 82.618 137.942,82.847 138.156,82.912 138.361 C 82.985 138.593,83.213 138.735,83.510 138.735 C 83.775 138.735,84.099 138.912,84.236 139.130 C 84.371 139.348,84.651 139.526,84.857 139.526 C 85.063 139.526,85.437 139.748,85.689 140.020 C 86.018 140.375,86.352 140.514,86.876 140.514 C 87.342 140.514,87.696 140.639,87.858 140.860 C 88.089 141.176,88.622 141.206,94.071 141.206 C 99.520 141.206,100.054 141.176,100.285 140.860 C 100.430 140.660,100.795 140.514,101.144 140.514 C 101.555 140.514,101.875 140.355,102.139 140.020 C 102.376 139.719,102.728 139.526,103.042 139.526 C 103.426 139.526,103.557 139.425,103.557 139.130 C 103.557 138.809,103.689 138.735,104.268 138.735 C 104.812 138.735,105.002 138.643,105.081 138.340 C 105.148 138.084,105.351 137.945,105.655 137.945 C 105.995 137.945,106.126 138.055,106.126 138.340 C 106.126 138.603,106.258 138.735,106.522 138.735 C 106.785 138.735,106.917 138.867,106.917 139.130 C 106.917 139.389,107.049 139.526,107.299 139.526 C 107.544 139.526,107.703 139.685,107.743 139.970 C 107.794 140.325,107.952 140.427,108.527 140.475 C 109.045 140.518,109.276 140.644,109.349 140.920 C 109.506 141.522,116.747 141.512,117.292 140.909 C 117.491 140.690,117.901 140.514,118.212 140.514 C 118.680 140.514,118.775 140.431,118.775 140.020 C 118.775 139.657,118.880 139.526,119.170 139.526 C 119.546 139.526,119.565 139.394,119.565 136.806 C 119.565 134.301,119.596 134.068,119.960 133.840 C 120.598 133.442,120.508 132.038,119.801 131.361 C 119.305 130.885,119.099 130.830,117.825 130.830 L 116.403 130.830 116.403 130.169 C 116.403 129.762,116.253 129.372,116.013 129.154 C 115.634 128.812,115.621 128.469,115.568 117.647 C 115.518 107.263,115.490 106.480,115.168 106.300 C 114.930 106.167,114.822 105.864,114.822 105.326 C 114.822 104.677,114.755 104.545,114.427 104.545 C 114.108 104.545,114.032 104.414,114.032 103.865 C 114.032 103.434,113.900 103.090,113.673 102.926 C 113.475 102.784,113.256 102.512,113.185 102.322 C 113.114 102.132,112.930 101.976,112.776 101.976 C 112.623 101.976,112.450 101.798,112.393 101.581 C 112.336 101.364,112.148 101.186,111.975 101.186 C 111.802 101.186,111.660 101.050,111.660 100.883 C 111.660 100.717,111.504 100.522,111.314 100.451 C 111.124 100.381,110.852 100.161,110.710 99.964 C 110.565 99.762,110.206 99.605,109.893 99.605 C 109.501 99.605,109.304 99.487,109.231 99.209 C 109.149 98.895,108.962 98.814,108.319 98.814 C 107.642 98.814,107.510 98.750,107.510 98.419 C 107.510 98.069,107.378 98.024,106.347 98.024 C 105.351 98.024,105.170 97.967,105.081 97.628 C 104.979 97.239,92.479 97.007,91.502 97.377 M144.269 97.377 C 144.106 97.438,143.901 97.609,143.814 97.756 C 143.727 97.905,143.330 98.024,142.923 98.024 C 142.404 98.024,142.118 98.139,141.943 98.419 C 141.800 98.649,141.482 98.814,141.185 98.814 C 140.841 98.814,140.641 98.943,140.571 99.209 C 140.514 99.427,140.334 99.605,140.171 99.605 C 139.739 99.605,138.158 100.648,138.150 100.939 C 138.146 101.075,138.031 101.186,137.894 101.186 C 137.758 101.186,137.180 101.677,136.610 102.277 L 135.573 103.368 135.573 102.357 C 135.573 101.513,135.508 101.329,135.178 101.243 C 134.831 101.152,134.783 100.973,134.783 99.786 C 134.783 97.960,134.915 98.005,129.699 98.069 L 125.395 98.123 125.345 119.215 L 125.295 140.308 125.740 140.417 C 125.985 140.477,128.809 140.501,132.016 140.470 L 137.846 140.415 137.897 127.422 C 137.946 114.686,137.955 114.424,138.341 114.182 C 138.558 114.047,138.735 113.780,138.735 113.589 C 138.735 113.373,138.885 113.241,139.130 113.241 C 139.394 113.241,139.526 113.109,139.526 112.846 C 139.526 112.582,139.657 112.451,139.921 112.451 C 140.184 112.451,140.316 112.319,140.316 112.055 C 140.316 111.792,140.448 111.660,140.711 111.660 C 140.966 111.660,141.107 111.528,141.107 111.290 C 141.107 111.011,141.301 110.889,141.897 110.794 C 142.376 110.717,142.688 110.560,142.688 110.395 C 142.688 110.240,142.989 110.066,143.390 109.991 C 143.776 109.919,144.141 109.731,144.201 109.574 C 144.362 109.156,149.171 109.155,149.331 109.573 C 149.391 109.729,149.706 109.916,150.030 109.987 C 150.631 110.119,150.669 110.169,150.877 111.117 C 150.942 111.416,151.125 111.660,151.283 111.660 C 151.532 111.660,151.578 113.589,151.625 125.873 C 151.655 133.690,151.754 140.160,151.844 140.250 C 151.935 140.341,154.781 140.415,158.168 140.415 L 164.328 140.415 164.379 124.111 C 164.428 108.061,164.423 107.799,164.033 107.272 C 163.757 106.899,163.636 106.426,163.636 105.721 C 163.636 104.872,163.572 104.689,163.241 104.603 C 162.945 104.525,162.846 104.333,162.846 103.838 C 162.846 103.378,162.725 103.111,162.451 102.964 C 162.233 102.848,162.055 102.654,162.055 102.534 C 162.055 102.318,161.808 102.021,160.723 100.937 C 159.671 99.884,159.344 99.605,159.167 99.605 C 159.069 99.605,158.877 99.427,158.742 99.209 C 158.602 98.987,158.281 98.814,158.004 98.814 C 157.727 98.814,157.406 98.642,157.266 98.419 C 157.102 98.155,156.806 98.024,156.375 98.024 C 155.995 98.024,155.570 97.862,155.336 97.628 C 154.946 97.238,145.220 97.017,144.269 97.377 M279.545 97.628 C 279.286 97.915,278.937 98.024,278.278 98.024 C 277.582 98.024,277.310 98.117,277.121 98.419 C 276.985 98.636,276.666 98.814,276.412 98.814 C 276.158 98.814,275.790 98.992,275.593 99.209 C 275.396 99.427,275.018 99.605,274.753 99.605 C 274.438 99.605,274.236 99.741,274.168 100.000 C 274.111 100.217,273.946 100.395,273.800 100.395 C 273.655 100.395,273.313 100.618,273.042 100.889 C 272.770 101.161,272.413 101.383,272.249 101.383 C 272.085 101.383,271.855 101.561,271.739 101.779 C 271.623 101.996,271.397 102.174,271.238 102.174 C 271.079 102.174,270.949 102.352,270.949 102.569 C 270.949 102.792,270.817 102.964,270.646 102.964 C 270.480 102.964,270.286 103.120,270.217 103.310 C 270.148 103.500,269.884 103.868,269.630 104.128 C 269.377 104.387,269.170 104.755,269.170 104.945 C 269.170 105.135,268.992 105.336,268.775 105.393 C 268.557 105.450,268.379 105.642,268.379 105.820 C 268.379 105.998,268.202 106.334,267.984 106.567 C 267.767 106.801,267.589 107.183,267.589 107.418 C 267.589 107.652,267.411 108.005,267.194 108.202 C 266.929 108.441,266.798 108.810,266.798 109.319 C 266.798 109.837,266.711 110.079,266.523 110.079 C 266.131 110.079,266.008 110.527,266.008 111.950 C 266.008 113.029,265.955 113.209,265.613 113.298 C 264.907 113.483,265.025 125.889,265.733 125.889 C 265.936 125.889,266.009 126.187,266.011 127.026 C 266.014 128.435,266.170 129.051,266.525 129.051 C 266.695 129.051,266.798 129.269,266.798 129.628 C 266.798 130.404,266.981 130.830,267.314 130.830 C 267.498 130.830,267.589 131.065,267.589 131.540 C 267.589 132.073,267.683 132.275,267.966 132.349 C 268.205 132.411,268.388 132.691,268.468 133.116 C 268.537 133.483,268.707 133.853,268.847 133.937 C 268.987 134.022,269.158 134.247,269.228 134.437 C 269.298 134.627,269.481 134.783,269.635 134.783 C 269.789 134.783,269.961 134.960,270.018 135.178 C 270.080 135.414,270.287 135.573,270.535 135.573 C 270.817 135.573,270.949 135.699,270.949 135.968 C 270.949 136.232,271.080 136.364,271.344 136.364 C 271.607 136.364,271.739 136.495,271.739 136.759 C 271.739 137.022,271.871 137.154,272.134 137.154 C 272.398 137.154,272.530 137.286,272.530 137.549 C 272.530 137.795,272.661 137.945,272.877 137.945 C 273.069 137.945,273.336 138.123,273.472 138.340 C 273.626 138.586,273.933 138.735,274.287 138.735 C 274.689 138.735,274.885 138.851,274.958 139.130 C 275.038 139.433,275.228 139.526,275.772 139.526 C 276.277 139.526,276.482 139.613,276.482 139.827 C 276.482 140.201,277.267 140.514,278.203 140.514 C 278.647 140.514,279.003 140.642,279.162 140.860 C 279.587 141.442,292.726 141.495,293.221 140.917 C 293.473 140.622,293.807 140.513,294.461 140.511 C 295.692 140.507,296.211 140.339,296.351 139.900 C 296.439 139.622,296.657 139.526,297.199 139.526 C 297.715 139.526,298.001 139.410,298.175 139.130 C 298.333 138.878,298.636 138.735,299.014 138.735 C 299.473 138.735,299.605 138.647,299.605 138.340 C 299.605 138.011,299.736 137.945,300.395 137.945 C 301.054 137.945,301.186 137.879,301.186 137.549 C 301.186 137.286,301.318 137.154,301.581 137.154 C 301.845 137.154,301.976 137.022,301.976 136.759 C 301.976 136.453,302.108 136.364,302.562 136.364 C 303.528 136.364,304.062 134.482,303.162 134.247 C 302.922 134.184,302.767 133.977,302.767 133.720 C 302.767 133.487,302.589 133.186,302.372 133.050 C 302.119 132.892,301.976 132.589,301.976 132.212 C 301.976 131.752,301.888 131.621,301.581 131.621 C 301.263 131.621,301.186 131.489,301.186 130.942 C 301.186 130.437,301.085 130.232,300.791 130.138 C 300.573 130.069,300.395 129.862,300.395 129.678 C 300.395 129.495,300.224 129.237,300.014 129.106 C 299.804 128.975,299.604 128.620,299.569 128.317 C 299.483 127.565,297.292 127.364,296.701 128.054 C 296.511 128.276,296.197 128.458,296.004 128.458 C 295.784 128.458,295.652 128.607,295.652 128.854 C 295.652 129.176,295.520 129.249,294.942 129.249 C 294.398 129.249,294.208 129.342,294.128 129.644 C 294.045 129.964,293.859 130.040,293.159 130.040 C 292.556 130.040,292.172 130.160,291.897 130.435 C 291.529 130.803,291.238 130.830,287.648 130.830 C 284.058 130.830,283.767 130.803,283.399 130.435 C 283.182 130.217,282.803 130.040,282.557 130.040 C 282.312 130.040,282.000 129.862,281.864 129.644 C 281.728 129.427,281.503 129.249,281.363 129.249 C 280.983 129.249,279.644 127.804,279.644 127.394 C 279.644 127.198,279.466 126.992,279.249 126.935 C 278.998 126.869,278.854 126.665,278.854 126.377 C 278.854 125.716,278.654 125.296,278.339 125.296 C 278.149 125.296,278.063 125.050,278.063 124.507 L 278.063 123.718 291.156 123.667 L 304.249 123.617 304.307 122.306 C 304.351 121.305,304.456 120.912,304.752 120.644 C 305.352 120.101,305.344 113.761,304.743 113.439 C 304.400 113.255,304.348 113.025,304.348 111.701 C 304.348 110.388,304.292 110.140,303.953 109.927 C 303.643 109.734,303.557 109.466,303.557 108.694 C 303.557 107.839,303.505 107.708,303.162 107.708 C 302.833 107.708,302.767 107.576,302.767 106.917 C 302.767 106.258,302.701 106.126,302.372 106.126 C 302.050 106.126,301.976 105.995,301.976 105.416 C 301.976 104.872,301.884 104.682,301.581 104.603 C 301.362 104.546,301.186 104.333,301.186 104.127 C 301.186 103.887,301.046 103.755,300.791 103.755 C 300.501 103.755,300.395 103.623,300.395 103.261 C 300.395 102.909,300.288 102.767,300.023 102.767 C 299.817 102.767,299.605 102.590,299.547 102.372 C 299.491 102.154,299.302 101.976,299.129 101.976 C 298.956 101.976,298.814 101.835,298.814 101.661 C 298.814 101.488,298.636 101.300,298.419 101.243 C 298.202 101.186,298.024 101.008,298.024 100.848 C 298.024 100.687,297.852 100.511,297.642 100.456 C 297.432 100.401,297.216 100.240,297.161 100.098 C 297.107 99.956,296.767 99.775,296.407 99.696 C 296.046 99.616,295.635 99.386,295.493 99.183 C 295.343 98.968,294.997 98.814,294.666 98.814 C 294.271 98.814,294.059 98.694,293.972 98.419 C 293.866 98.083,293.673 98.024,292.697 98.024 C 291.714 98.024,291.533 97.967,291.445 97.628 C 291.344 97.245,291.175 97.233,285.622 97.233 C 280.154 97.233,279.887 97.251,279.545 97.628 M286.957 107.090 C 286.957 107.475,287.628 107.708,288.737 107.708 C 289.116 107.708,289.313 107.828,289.385 108.103 C 289.442 108.320,289.621 108.498,289.782 108.498 C 289.944 108.498,290.127 108.631,290.190 108.794 C 290.253 108.958,290.440 109.091,290.606 109.091 C 290.777 109.091,290.909 109.263,290.909 109.486 C 290.909 109.750,291.041 109.881,291.304 109.881 C 291.574 109.881,291.700 110.013,291.700 110.295 C 291.700 110.543,291.858 110.750,292.095 110.812 C 292.422 110.898,292.490 111.082,292.490 111.879 C 292.490 112.628,292.578 112.897,292.885 113.089 C 293.167 113.265,293.281 113.550,293.281 114.079 L 293.281 114.822 285.623 114.822 L 277.964 114.823 278.032 113.624 C 278.077 112.822,278.192 112.389,278.379 112.317 C 278.533 112.258,278.712 111.872,278.779 111.458 C 278.860 110.951,279.020 110.675,279.272 110.609 C 279.535 110.540,279.644 110.333,279.644 109.900 C 279.644 109.420,279.729 109.289,280.040 109.289 C 280.257 109.289,280.435 109.159,280.435 109.000 C 280.435 108.830,280.761 108.623,281.225 108.498 C 281.690 108.373,282.016 108.166,282.016 107.996 C 282.016 107.799,282.231 107.708,282.695 107.708 C 283.605 107.708,284.387 107.390,284.387 107.021 C 284.387 106.782,284.653 106.719,285.672 106.719 C 286.796 106.719,286.957 106.766,286.957 107.090 M194.017 108.893 C 194.294 109.111,194.775 109.289,195.086 109.289 C 195.397 109.289,195.830 109.466,196.047 109.684 C 196.265 109.901,196.621 110.079,196.838 110.079 C 197.068 110.079,197.233 110.211,197.233 110.394 C 197.233 110.567,197.411 110.755,197.628 110.812 C 197.846 110.869,198.024 111.047,198.024 111.208 C 198.024 111.368,198.202 111.546,198.419 111.603 C 198.926 111.735,199.056 126.087,198.550 126.087 C 198.404 126.087,198.183 126.309,198.060 126.581 C 197.936 126.853,197.744 127.075,197.633 127.075 C 197.522 127.075,197.431 127.208,197.431 127.372 C 197.431 127.535,197.298 127.668,197.136 127.668 C 196.974 127.668,196.730 127.846,196.594 128.063 C 196.459 128.281,196.191 128.458,196.000 128.458 C 195.784 128.458,195.652 128.608,195.652 128.854 C 195.652 129.183,195.520 129.249,194.862 129.249 C 194.335 129.249,193.939 129.381,193.676 129.644 C 193.175 130.145,189.921 130.249,189.921 129.764 C 189.921 129.445,189.500 129.249,188.812 129.249 C 188.545 129.249,188.277 129.118,188.216 128.958 C 188.154 128.798,187.801 128.610,187.432 128.541 C 186.948 128.450,186.759 128.309,186.759 128.041 C 186.759 127.800,186.619 127.668,186.364 127.668 C 186.100 127.668,185.968 127.536,185.968 127.273 C 185.968 127.009,185.837 126.877,185.573 126.877 C 185.251 126.877,185.178 126.746,185.178 126.167 C 185.178 125.623,185.085 125.433,184.783 125.354 C 184.473 125.273,184.387 125.084,184.387 124.483 C 184.387 123.847,184.319 123.715,183.992 123.715 C 183.608 123.715,183.597 123.584,183.597 119.170 C 183.597 115.416,183.645 114.625,183.872 114.625 C 184.205 114.625,184.387 114.199,184.387 113.424 C 184.387 113.063,184.534 112.757,184.783 112.602 C 185.000 112.467,185.178 112.209,185.178 112.031 C 185.178 111.852,185.356 111.660,185.573 111.603 C 185.791 111.546,185.968 111.364,185.968 111.198 C 185.968 111.032,186.146 110.840,186.364 110.771 C 186.581 110.702,186.759 110.528,186.759 110.385 C 186.759 110.242,186.937 110.079,187.154 110.022 C 187.372 109.965,187.549 109.777,187.549 109.603 C 187.549 109.371,187.744 109.289,188.292 109.289 C 188.821 109.289,189.106 109.175,189.282 108.893 C 189.503 108.540,189.743 108.498,191.522 108.498 C 193.215 108.498,193.590 108.557,194.017 108.893 M355.381 108.893 C 355.652 109.145,356.079 109.289,356.559 109.289 C 357.102 109.289,357.312 109.373,357.312 109.590 C 357.312 109.768,357.560 109.941,357.921 110.013 C 358.256 110.080,358.633 110.300,358.759 110.502 C 358.885 110.704,359.145 110.870,359.336 110.870 C 359.552 110.870,359.684 111.019,359.684 111.265 C 359.684 111.528,359.816 111.660,360.079 111.660 C 360.467 111.660,360.474 111.792,360.474 118.674 C 360.474 125.474,360.462 125.696,360.079 125.935 C 359.862 126.071,359.684 126.339,359.684 126.530 C 359.684 126.746,359.534 126.877,359.289 126.877 C 359.025 126.877,358.893 127.009,358.893 127.273 C 358.893 127.536,358.762 127.668,358.498 127.668 C 358.235 127.668,358.103 127.800,358.103 128.063 C 358.103 128.353,357.971 128.458,357.609 128.458 C 357.337 128.458,356.937 128.636,356.719 128.854 C 356.494 129.079,356.061 129.249,355.713 129.249 C 355.268 129.249,355.073 129.356,354.998 129.644 C 354.905 130.000,354.728 130.040,353.238 130.040 C 351.845 130.040,351.518 129.977,351.186 129.644 C 350.922 129.381,350.527 129.249,350.000 129.249 C 349.422 129.249,349.209 129.168,349.209 128.946 C 349.209 128.780,349.067 128.589,348.893 128.522 C 348.486 128.366,347.721 127.601,347.565 127.194 C 347.498 127.020,347.307 126.877,347.141 126.877 C 346.970 126.877,346.838 126.705,346.838 126.482 C 346.838 126.219,346.706 126.087,346.443 126.087 C 346.121 126.087,346.047 125.955,346.047 125.377 C 346.047 124.849,345.952 124.642,345.678 124.570 C 345.373 124.490,345.290 124.226,345.207 123.072 C 345.138 122.095,345.010 121.599,344.787 121.436 C 344.338 121.108,344.318 117.290,344.762 116.799 C 344.925 116.619,345.117 115.909,345.189 115.220 C 345.274 114.405,345.447 113.842,345.684 113.605 C 345.884 113.405,346.047 113.085,346.047 112.893 C 346.047 112.702,346.225 112.435,346.443 112.299 C 346.661 112.162,346.838 111.838,346.838 111.573 C 346.838 111.267,346.981 111.048,347.233 110.968 C 347.451 110.899,347.628 110.722,347.628 110.575 C 347.628 110.428,347.946 110.203,348.334 110.074 C 348.722 109.946,349.087 109.717,349.146 109.565 C 349.204 109.413,349.457 109.289,349.709 109.289 C 350.371 109.289,350.791 109.089,350.791 108.773 C 350.791 108.283,354.840 108.389,355.381 108.893 M103.113 124.191 C 103.693 124.803,103.804 128.458,103.242 128.458 C 103.069 128.458,102.881 128.636,102.824 128.854 C 102.767 129.071,102.604 129.249,102.461 129.249 C 102.318 129.249,102.144 129.427,102.075 129.644 C 102.006 129.862,101.814 130.040,101.648 130.040 C 101.482 130.040,101.300 130.217,101.243 130.435 C 101.165 130.734,100.973 130.830,100.453 130.830 C 99.932 130.830,99.740 130.926,99.662 131.225 C 99.564 131.600,99.392 131.621,96.427 131.621 C 93.497 131.621,93.281 131.595,93.083 131.225 C 92.967 131.008,92.690 130.830,92.469 130.830 C 91.956 130.830,91.502 130.379,91.502 129.869 C 91.502 129.647,91.329 129.418,91.107 129.348 C 90.755 129.236,90.711 129.049,90.711 127.636 C 90.711 126.216,90.753 126.039,91.107 125.947 C 91.325 125.889,91.502 125.677,91.502 125.471 C 91.502 125.266,91.638 125.099,91.805 125.099 C 91.971 125.099,92.158 124.965,92.221 124.802 C 92.284 124.639,92.493 124.506,92.687 124.506 C 92.881 124.506,93.249 124.331,93.506 124.117 C 94.298 123.457,102.477 123.520,103.113 124.191 M104.006 154.545 C 103.722 154.877,103.423 154.941,102.153 154.941 C 100.805 154.941,100.628 154.984,100.536 155.336 C 100.453 155.650,100.266 155.731,99.623 155.731 C 98.946 155.731,98.814 155.796,98.814 156.126 C 98.814 156.432,98.682 156.522,98.233 156.522 C 97.897 156.522,97.542 156.674,97.393 156.881 C 97.251 157.078,96.979 157.298,96.789 157.368 C 96.598 157.439,96.443 157.623,96.443 157.777 C 96.443 157.931,96.265 158.103,96.047 158.160 C 95.781 158.230,95.652 158.430,95.652 158.774 C 95.652 159.071,95.487 159.389,95.257 159.532 C 95.040 159.668,94.862 159.891,94.862 160.028 C 94.862 160.165,94.684 160.455,94.466 160.672 C 94.155 160.983,94.071 161.331,94.071 162.304 C 94.071 163.327,94.003 163.584,93.676 163.788 C 93.322 164.009,93.281 164.249,93.281 166.078 C 93.281 167.870,93.329 168.165,93.676 168.478 C 93.998 168.770,94.071 169.087,94.071 170.189 C 94.071 171.410,94.110 171.542,94.466 171.542 C 94.795 171.542,94.862 171.673,94.862 172.319 C 94.862 172.922,94.950 173.124,95.257 173.221 C 95.474 173.290,95.652 173.519,95.652 173.729 C 95.652 173.979,95.789 174.111,96.047 174.111 C 96.298 174.111,96.443 174.242,96.443 174.471 C 96.443 174.904,97.233 175.692,97.668 175.692 C 97.838 175.692,98.024 175.870,98.081 176.087 C 98.138 176.304,98.326 176.482,98.499 176.482 C 98.673 176.482,98.992 176.660,99.209 176.877 C 99.443 177.111,99.868 177.273,100.249 177.273 C 100.679 177.273,100.975 177.404,101.140 177.668 C 101.575 178.365,110.672 178.251,110.672 177.548 C 110.672 177.386,110.875 177.273,111.166 177.273 L 111.660 177.273 111.660 173.715 L 111.660 170.158 110.555 170.158 C 109.615 170.158,109.434 170.218,109.346 170.553 C 109.251 170.917,109.076 170.949,107.190 170.949 C 105.270 170.949,105.138 170.923,105.138 170.553 C 105.138 170.290,105.007 170.158,104.743 170.158 C 104.480 170.158,104.348 170.026,104.348 169.763 C 104.348 169.499,104.216 169.368,103.953 169.368 C 103.700 169.368,103.557 169.236,103.557 169.003 C 103.557 168.802,103.379 168.477,103.162 168.281 C 102.825 167.976,102.767 167.672,102.767 166.222 C 102.767 164.736,102.817 164.491,103.162 164.275 C 103.414 164.118,103.557 163.814,103.557 163.437 C 103.557 162.978,103.645 162.846,103.953 162.846 C 104.170 162.846,104.526 162.668,104.743 162.451 C 105.007 162.187,105.402 162.055,105.929 162.055 C 106.456 162.055,106.851 161.924,107.115 161.660 C 107.332 161.443,107.544 161.265,107.586 161.265 C 107.627 161.265,107.708 161.443,107.765 161.660 C 107.859 162.021,108.034 162.055,109.769 162.055 L 111.669 162.055 111.615 158.547 L 111.561 155.040 109.902 154.982 C 108.614 154.937,108.132 154.837,107.751 154.537 C 107.030 153.970,104.493 153.976,104.006 154.545 M177.911 154.545 C 177.565 154.868,177.214 154.941,175.998 154.941 C 174.723 154.941,174.474 154.998,174.262 155.336 C 174.113 155.576,173.802 155.731,173.472 155.731 C 173.142 155.731,172.831 155.887,172.681 156.126 C 172.546 156.344,172.278 156.522,172.087 156.522 C 171.871 156.522,171.739 156.672,171.739 156.917 C 171.739 157.181,171.607 157.312,171.344 157.312 C 171.080 157.312,170.949 157.444,170.949 157.708 C 170.949 157.970,170.817 158.103,170.556 158.103 C 170.252 158.103,170.135 158.278,170.039 158.876 C 169.955 159.403,169.797 159.681,169.543 159.747 C 169.263 159.820,169.170 160.025,169.170 160.573 C 169.170 161.002,169.008 161.508,168.775 161.804 C 168.408 162.270,168.379 162.606,168.379 166.448 C 168.379 170.424,168.395 170.595,168.775 170.694 C 169.101 170.779,169.170 170.963,169.170 171.754 C 169.170 172.444,169.276 172.811,169.549 173.065 C 169.758 173.260,169.993 173.675,170.071 173.988 C 170.150 174.301,170.379 174.601,170.581 174.654 C 170.783 174.706,170.949 174.917,170.949 175.122 C 170.949 175.327,171.079 175.494,171.238 175.494 C 171.397 175.494,171.621 175.668,171.735 175.881 C 171.850 176.096,172.247 176.325,172.631 176.397 C 173.129 176.490,173.320 176.630,173.320 176.899 C 173.320 177.199,173.467 177.273,174.063 177.273 C 174.592 177.273,174.877 177.387,175.053 177.668 C 175.288 178.044,175.514 178.063,179.714 178.063 C 183.877 178.063,184.149 178.041,184.486 177.668 C 184.683 177.451,185.083 177.273,185.375 177.273 C 185.668 177.273,186.068 177.095,186.265 176.877 C 186.462 176.660,186.795 176.482,187.006 176.482 C 187.223 176.482,187.434 176.311,187.492 176.087 C 187.549 175.868,187.762 175.692,187.968 175.692 C 188.200 175.692,188.340 175.552,188.340 175.319 C 188.340 175.113,188.516 174.901,188.735 174.844 C 188.962 174.785,189.130 174.574,189.130 174.350 C 189.130 174.125,189.299 173.915,189.526 173.856 C 189.825 173.777,189.921 173.586,189.921 173.065 C 189.921 172.544,190.017 172.353,190.316 172.275 C 190.667 172.183,190.711 172.005,190.711 170.680 C 190.711 169.466,190.776 169.154,191.057 168.996 C 191.716 168.628,191.666 163.834,191.004 163.834 C 190.770 163.834,190.711 163.515,190.711 162.234 C 190.711 160.801,190.670 160.624,190.316 160.532 C 190.007 160.451,189.921 160.262,189.921 159.661 C 189.921 159.025,189.853 158.893,189.526 158.893 C 189.262 158.893,189.130 158.762,189.130 158.498 C 189.130 158.235,188.999 158.103,188.735 158.103 C 188.472 158.103,188.340 157.971,188.340 157.708 C 188.340 157.444,188.208 157.312,187.945 157.312 C 187.681 157.312,187.549 157.181,187.549 156.917 C 187.549 156.653,187.418 156.522,187.154 156.522 C 186.891 156.522,186.759 156.390,186.759 156.126 C 186.759 155.799,186.627 155.731,185.991 155.731 C 185.390 155.731,185.202 155.646,185.121 155.336 C 185.029 154.984,184.851 154.941,183.517 154.941 C 182.279 154.941,181.946 154.871,181.621 154.545 C 181.297 154.222,180.962 154.150,179.780 154.150 C 178.609 154.150,178.255 154.225,177.911 154.545 M249.654 154.281 C 249.518 154.336,249.407 154.507,249.407 154.661 C 249.407 154.880,249.051 154.941,247.771 154.941 C 246.361 154.941,246.095 154.995,245.850 155.336 C 245.683 155.568,245.338 155.731,245.016 155.731 C 244.714 155.731,244.289 155.909,244.071 156.126 C 243.854 156.344,243.498 156.522,243.281 156.522 C 243.017 156.522,242.885 156.653,242.885 156.917 C 242.885 157.181,242.754 157.312,242.490 157.312 C 242.227 157.312,242.095 157.444,242.095 157.708 C 242.095 157.971,241.963 158.103,241.700 158.103 C 241.436 158.103,241.304 158.235,241.304 158.498 C 241.304 158.762,241.173 158.893,240.909 158.893 C 240.580 158.893,240.514 159.025,240.514 159.684 C 240.514 160.343,240.448 160.474,240.119 160.474 C 239.782 160.474,239.723 160.606,239.723 161.364 C 239.723 161.992,239.643 162.253,239.448 162.253 C 238.749 162.253,238.632 169.721,239.328 169.903 C 239.663 169.991,239.723 170.173,239.723 171.089 C 239.723 172.005,239.784 172.187,240.119 172.275 C 240.359 172.338,240.514 172.544,240.514 172.802 C 240.514 173.035,240.692 173.336,240.909 173.472 C 241.126 173.608,241.304 173.930,241.304 174.188 C 241.304 174.491,241.444 174.694,241.700 174.761 C 241.917 174.818,242.095 175.006,242.095 175.179 C 242.095 175.352,242.215 175.494,242.362 175.494 C 242.510 175.494,242.870 175.716,243.163 175.988 C 243.456 176.260,243.859 176.482,244.058 176.482 C 244.257 176.482,244.467 176.660,244.524 176.877 C 244.605 177.188,244.793 177.273,245.405 177.273 C 245.933 177.273,246.299 177.400,246.542 177.668 C 246.879 178.041,247.150 178.063,251.315 178.063 C 255.468 178.063,255.755 178.040,256.126 177.668 C 256.344 177.451,256.655 177.273,256.818 177.273 C 257.071 177.273,257.115 176.746,257.115 173.715 L 257.115 170.158 256.028 170.158 C 255.072 170.158,254.941 170.206,254.941 170.553 C 254.941 170.924,254.809 170.949,252.866 170.949 C 250.922 170.949,250.791 170.924,250.791 170.553 C 250.791 170.250,250.659 170.158,250.222 170.158 C 249.577 170.158,249.301 169.902,249.105 169.119 C 249.030 168.821,248.845 168.577,248.694 168.577 C 248.474 168.577,248.419 168.085,248.419 166.107 C 248.419 163.768,248.440 163.636,248.814 163.636 C 249.078 163.636,249.209 163.505,249.209 163.241 C 249.209 162.978,249.341 162.846,249.605 162.846 C 249.868 162.846,250.000 162.714,250.000 162.451 C 250.000 162.102,250.132 162.055,251.105 162.055 C 252.042 162.055,252.227 161.995,252.313 161.663 C 252.416 161.272,252.417 161.272,252.914 161.663 C 253.331 161.991,253.717 162.055,255.264 162.055 L 257.115 162.055 257.115 158.498 L 257.115 154.941 255.145 154.941 C 253.378 154.941,253.154 154.900,252.964 154.545 C 252.757 154.158,250.421 153.972,249.654 154.281 M270.310 154.545 C 270.092 154.894,269.849 154.941,268.240 154.941 C 266.619 154.941,266.394 154.985,266.206 155.336 C 266.055 155.618,265.792 155.731,265.291 155.731 C 264.754 155.731,264.563 155.825,264.484 156.126 C 264.427 156.345,264.215 156.522,264.009 156.522 C 263.768 156.522,263.636 156.662,263.636 156.917 C 263.636 157.181,263.505 157.312,263.241 157.312 C 262.951 157.312,262.846 157.444,262.846 157.806 C 262.846 158.097,262.732 158.300,262.571 158.300 C 262.114 158.300,262.055 158.776,262.055 162.467 C 262.055 165.797,262.077 166.008,262.426 166.008 C 262.676 166.008,262.833 166.193,262.910 166.575 C 262.985 166.949,263.262 167.284,263.725 167.557 C 264.111 167.785,264.427 168.063,264.427 168.175 C 264.427 168.288,264.649 168.379,264.921 168.379 C 265.212 168.379,265.415 168.493,265.415 168.655 C 265.415 169.016,265.851 169.170,266.869 169.170 C 267.454 169.170,267.799 169.287,268.037 169.565 C 268.311 169.885,268.620 169.960,269.662 169.960 C 270.686 169.960,270.949 170.022,270.949 170.263 C 270.949 170.430,271.149 170.647,271.393 170.745 L 271.838 170.924 271.393 170.936 C 271.085 170.945,270.949 171.069,270.949 171.344 C 270.949 171.708,270.817 171.739,269.269 171.739 C 267.852 171.739,267.527 171.677,267.194 171.344 C 266.888 171.038,266.535 170.949,265.636 170.949 C 264.639 170.949,264.458 170.892,264.370 170.553 C 264.282 170.218,264.100 170.158,263.161 170.158 L 262.055 170.158 262.055 173.715 L 262.055 177.273 262.846 177.273 C 263.373 177.273,263.768 177.404,264.032 177.668 C 264.408 178.044,264.690 178.063,269.880 178.063 C 275.167 178.063,275.337 178.051,275.437 177.668 C 275.518 177.359,275.706 177.273,276.301 177.273 C 276.859 177.273,277.117 177.168,277.273 176.877 C 277.389 176.660,277.642 176.482,277.834 176.482 C 278.393 176.482,279.644 175.216,279.644 174.651 C 279.644 174.323,279.777 174.122,280.040 174.053 C 280.417 173.955,280.435 173.784,280.435 170.158 C 280.435 166.532,280.417 166.362,280.040 166.263 C 279.812 166.203,279.644 165.993,279.644 165.769 C 279.644 165.551,279.478 165.334,279.267 165.279 C 279.060 165.225,278.846 165.011,278.792 164.804 C 278.734 164.584,278.520 164.427,278.279 164.427 C 278.052 164.427,277.866 164.303,277.866 164.152 C 277.866 163.797,277.432 163.636,276.479 163.636 C 275.892 163.636,275.690 163.546,275.593 163.241 C 275.482 162.890,275.294 162.846,273.923 162.846 C 272.544 162.846,272.367 162.803,272.275 162.451 C 272.196 162.148,272.005 162.055,271.461 162.055 L 270.751 162.055 271.146 161.660 C 271.491 161.315,271.805 161.265,273.617 161.265 C 275.428 161.265,275.742 161.315,276.087 161.660 C 276.416 161.989,276.746 162.055,278.063 162.055 L 279.644 162.055 279.644 158.811 C 279.644 154.586,279.878 154.941,277.098 154.941 C 275.036 154.941,274.756 154.899,274.453 154.545 C 274.161 154.205,273.870 154.150,272.336 154.150 C 270.771 154.150,270.527 154.198,270.310 154.545 M23.715 166.502 L 23.715 178.063 32.785 178.063 C 40.873 178.063,41.868 178.029,41.975 177.751 C 42.041 177.579,42.095 176.119,42.095 174.506 C 42.095 172.893,42.041 171.433,41.975 171.261 C 41.870 170.988,41.256 170.949,37.133 170.949 L 32.411 170.949 32.411 170.455 L 32.411 169.960 36.759 169.960 L 41.107 169.960 41.107 166.403 L 41.107 162.846 36.759 162.846 L 32.411 162.846 32.411 162.059 L 32.411 161.272 37.204 161.219 L 41.996 161.166 42.053 158.498 C 42.084 157.031,42.060 155.630,42.000 155.385 L 41.890 154.941 32.803 154.941 L 23.715 154.941 23.715 166.502 M47.676 166.453 L 47.727 177.964 56.423 177.964 L 65.119 177.964 65.180 177.534 C 65.214 177.297,65.369 176.998,65.526 176.868 C 65.975 176.495,65.931 171.510,65.471 170.732 L 65.132 170.158 60.728 170.158 L 56.324 170.158 56.324 162.549 L 56.324 154.941 51.975 154.941 L 47.625 154.941 47.676 166.453 M70.469 155.251 C 70.194 155.526,70.158 156.799,70.158 166.269 L 70.159 176.976 70.631 177.526 L 71.104 178.075 79.927 178.020 C 90.283 177.955,89.123 178.411,89.127 174.397 C 89.131 170.611,89.618 170.949,84.150 170.949 L 79.644 170.949 79.644 170.458 L 79.644 169.968 83.943 169.915 L 88.241 169.862 88.241 166.403 L 88.241 162.945 83.943 162.891 L 79.644 162.838 79.644 162.051 L 79.644 161.265 83.992 161.265 L 88.340 161.265 88.340 158.103 L 88.340 154.941 79.560 154.941 C 71.841 154.941,70.742 154.978,70.469 155.251 M115.804 155.348 C 115.663 155.611,115.608 156.902,115.649 159.020 C 115.727 163.106,115.478 162.846,119.307 162.846 L 122.134 162.846 122.134 169.800 C 122.134 176.686,122.139 176.761,122.579 177.407 L 123.024 178.061 127.085 178.062 C 129.982 178.063,131.214 177.995,131.383 177.826 C 131.559 177.650,131.621 175.687,131.621 170.217 L 131.621 162.846 134.783 162.846 L 137.945 162.846 137.945 158.893 L 137.945 154.941 126.983 154.941 C 116.120 154.941,116.020 154.944,115.804 155.348 M142.885 166.506 L 142.885 178.071 147.184 178.018 L 151.482 177.964 151.536 174.358 L 151.590 170.751 152.475 170.751 C 153.138 170.751,153.360 170.827,153.360 171.054 C 153.360 171.220,153.493 171.407,153.656 171.470 C 153.876 171.554,153.953 171.904,153.953 172.823 C 153.953 174.547,154.139 175.330,154.575 175.445 C 154.883 175.525,154.941 175.741,154.941 176.806 L 154.941 178.071 159.239 178.018 L 163.538 177.964 163.538 175.132 C 163.538 172.662,163.493 172.267,163.192 172.047 C 162.927 171.854,162.846 171.509,162.846 170.581 C 162.846 169.527,162.797 169.368,162.476 169.368 C 162.197 169.368,162.075 169.173,161.979 168.577 C 161.894 168.041,161.752 167.787,161.540 167.787 C 161.368 167.787,161.183 167.613,161.127 167.402 C 161.072 167.190,160.880 166.978,160.701 166.931 C 160.480 166.872,160.519 166.837,160.820 166.821 C 161.447 166.789,162.846 165.340,162.846 164.723 C 162.846 164.434,162.959 164.229,163.119 164.229 C 163.794 164.229,163.902 159.159,163.241 158.498 C 163.024 158.281,162.846 157.925,162.846 157.708 C 162.846 157.444,162.714 157.312,162.451 157.312 C 162.187 157.312,162.055 157.181,162.055 156.917 C 162.055 156.662,161.924 156.522,161.683 156.522 C 161.477 156.522,161.265 156.345,161.208 156.126 C 161.125 155.812,160.938 155.731,160.295 155.731 C 159.618 155.731,159.486 155.667,159.486 155.336 C 159.486 154.947,159.354 154.941,151.186 154.941 L 142.885 154.941 142.885 166.506 M196.491 166.450 L 196.542 177.964 200.000 178.021 C 201.902 178.052,203.659 178.028,203.903 177.968 L 204.348 177.858 204.388 172.674 C 204.410 169.823,204.458 168.224,204.495 169.121 C 204.555 170.585,204.601 170.751,204.949 170.751 C 205.300 170.751,205.336 170.893,205.336 172.301 C 205.336 173.601,205.400 173.910,205.731 174.209 C 206.047 174.495,206.126 174.818,206.126 175.812 C 206.126 176.884,206.197 177.127,206.633 177.563 L 207.139 178.069 212.907 178.017 L 218.676 177.964 218.727 166.453 L 218.778 154.941 214.824 154.941 L 210.870 154.941 210.854 158.449 C 210.845 160.378,210.787 161.825,210.723 161.664 C 210.660 161.503,210.489 161.252,210.344 161.106 C 210.179 160.941,210.079 160.373,210.079 159.598 C 210.079 158.665,209.983 158.232,209.695 157.865 C 209.436 157.536,209.291 156.995,209.250 156.208 L 209.190 155.040 202.815 154.987 L 196.440 154.935 196.491 166.450 M224.743 155.178 C 224.564 155.357,224.507 158.067,224.512 166.196 L 224.518 176.976 224.997 177.520 L 225.475 178.063 229.496 178.063 C 232.361 178.063,233.586 177.995,233.755 177.826 C 233.934 177.647,233.992 174.809,233.992 166.265 L 233.992 154.941 229.486 154.941 C 226.245 154.941,224.914 155.007,224.743 155.178 M153.953 161.539 C 153.953 161.689,154.175 161.958,154.447 162.136 C 155.044 162.527,155.074 162.765,154.545 162.903 C 154.328 162.960,154.150 163.148,154.150 163.321 C 154.150 163.495,154.020 163.636,153.861 163.636 C 153.701 163.636,153.476 163.814,153.360 164.032 C 153.203 164.325,152.946 164.427,152.365 164.427 L 151.581 164.427 151.581 162.846 L 151.581 161.265 152.767 161.265 C 153.645 161.265,153.953 161.336,153.953 161.539 M180.492 161.660 C 180.549 161.877,180.737 162.055,180.910 162.055 C 181.136 162.055,181.225 162.243,181.225 162.716 C 181.225 163.126,181.375 163.513,181.621 163.735 C 181.975 164.056,182.016 164.344,182.016 166.502 C 182.016 168.660,181.975 168.948,181.621 169.269 C 181.375 169.491,181.225 169.877,181.225 170.288 C 181.225 170.817,181.147 170.949,180.830 170.949 C 180.567 170.949,180.435 171.080,180.435 171.344 C 180.435 171.603,180.303 171.739,180.053 171.739 C 179.843 171.739,179.614 171.561,179.545 171.344 C 179.476 171.126,179.248 170.949,179.038 170.949 C 178.788 170.949,178.656 170.812,178.656 170.553 C 178.656 170.336,178.536 170.158,178.389 170.158 C 177.704 170.158,177.795 162.953,178.487 162.326 C 178.689 162.143,178.854 161.830,178.854 161.629 C 178.854 161.075,180.346 161.103,180.492 161.660 " stroke="none" fill="#2f5a5a" fill-rule="evenodd"></path></g></svg>