<?xml version="1.0" encoding="UTF-8" standalone="no"?>
<svg
   height="147.866"
   width="595.854"
   version="1.1"
   id="svg6"
   sodipodi:docname="universal.svg"
   inkscape:version="1.1 (c68e22c387, 2021-05-23)"
   xmlns:inkscape="http://www.inkscape.org/namespaces/inkscape"
   xmlns:sodipodi="http://sodipodi.sourceforge.net/DTD/sodipodi-0.dtd"
   xmlns="http://www.w3.org/2000/svg"
   xmlns:svg="http://www.w3.org/2000/svg">
  <defs
     id="defs10" />
  <sodipodi:namedview
     id="namedview8"
     pagecolor="#ffffff"
     bordercolor="#666666"
     borderopacity="1.0"
     inkscape:pageshadow="2"
     inkscape:pageopacity="0.0"
     inkscape:pagecheckerboard="0"
     showgrid="false"
     inkscape:zoom="1.7756027"
     inkscape:cx="297.64541"
     inkscape:cy="74.059359"
     inkscape:window-width="1920"
     inkscape:window-height="1017"
     inkscape:window-x="-8"
     inkscape:window-y="712"
     inkscape:window-maximized="1"
     inkscape:current-layer="svg6" />
  <g
     fill="red"
     stroke-width="2.5"
     id="g4">
    <path
       d="M61.88 39.059V2.361H35.513v36.698h4.04v47.643c0 7.726 0 11.804-.425 14.38-.425 4.077-2.764 6.437-6.166 6.437s-5.53-2.575-6.167-6.867c-.213-2.575-.426-7.297-.426-13.306V39.06h5.53V2.361H0v36.698h6.805V116.533c0 12.018 1.701 18.671 6.167 23.607 4.465 4.936 11.27 7.726 18.5 7.726 15.098 0 23.179-10.516 23.179-29.616V39.059zM142.48 39.059V2.361h-28.495v36.698h7.655v63.095L101.226 2.361H69.328v36.698h7.23v67.817h-7.23v38.63h29.346v-38.63H90.38V32.62l23.604 112.884h21.477V39.06zM184.157 145.505v-38.63h-6.805V39.06h6.805V2.361h-34.024v36.698h7.017v67.817h-7.017v38.63zM254.438 39.059V2.361h-27.645v36.698h8.294l-8.294 74.255-10.207-74.255h6.167V2.361h-31.685v36.698h6.167l14.673 106.446h23.179L249.12 39.06zM318.712 145.505V86.488h-18.287v20.388h-13.61v-27.47h17.863V64.598h-17.863V39.059h13.61v20.602h16.799v-57.3h-56.99v36.698h7.017v67.817h-7.017v38.63zM399.2 112.455c0-6.009-.212-11.588-1.063-20.387h-4.891v2.36c0 10.302-1.063 13.735-4.04 13.735-2.34 0-3.403-1.717-3.615-5.794l-.426-7.726-.425-9.658c-.213-6.223-3.19-10.086-8.506-11.589-1.488-.429-1.914-.643-6.38-1.287 1.064-.215 1.702-.43 2.34-.644 13.184-3.005 16.586-9.443 16.586-31.118 0-30.26-5.954-37.986-29.345-37.986h-31.897v36.698h7.017v67.817h-7.017v38.63h34.023v-38.63h-6.804V79.62c.85 0 1.488-.214 1.913-.214 9.57 0 11.483 2.36 11.483 14.378 0 1.288-.212 3.863-.212 7.941v9.228c0 16.31.425 21.247 2.339 26.612 2.126 5.794 6.592 9.013 12.972 9.013 11.695 0 15.948-9.442 15.948-34.123zm-30.409-59.232c0 9.872-2.339 12.233-12.12 12.233h-1.914V39.059h2.339c9.569 0 11.695 2.575 11.695 14.164zM459.029 109.236c0-16.954-1.701-26.397-6.167-32.406-3.828-5.365-8.08-8.799-18.075-15.237-7.443-4.721-9.995-8.799-9.995-14.808 0-4.722 2.127-7.511 5.742-7.511 4.04 0 5.316 2.146 5.741 9.872l.213 3.648h18.5V2.361h-17.437v10.086C433.724 3.22 429.896 0 423.091 0c-13.397 0-19.776 12.662-19.776 38.415 0 18.886 3.827 27.9 15.948 36.27l10.208 7.081c5.316 3.649 7.655 8.37 7.655 15.667 0 6.653-2.127 10.086-6.38 10.086-5.316 0-7.23-3.863-7.23-14.164V91.21h-18.5v54.296h18.5V135.42c4.253 8.584 9.357 12.447 16.374 12.447 12.972 0 19.139-12.662 19.139-38.63zM531.04 145.505v-38.63h-6.379L509.988 2.362h-26.156l-14.247 104.515h-6.805v38.63h29.133v-38.63h-8.08l2.339-18.886h15.098l2.126 18.886h-7.443v38.63zm-31.684-72.323h-11.27l5.74-43.995zM595.854 145.505v-66.1H577.78v27.47h-13.397V39.06h7.23V2.361h-34.449v36.698h7.018v67.817h-7.018v38.63z"
       id="path2" />
  </g>
  <path
     style="fill:#ff0000;stroke-width:0.563189"
     d="M 24.921495,146.68532 C 18.605783,144.98465 12.901554,140.62765 10.319361,135.53193 7.4023472,129.77549 7.3417808,128.69216 7.3312367,82.084803 L 7.3214575,38.860044 H 3.6607288 0 V 20.837994 2.8159452 h 15.769293 15.769293 v 18.0220488 18.02205 h -2.877097 -2.877097 l 0.224561,31.116194 c 0.218172,30.230742 0.25847,31.190942 1.416151,33.743182 1.367109,3.01393 2.591689,3.84969 5.640711,3.84969 2.693941,0 4.513978,-1.23497 5.711002,-3.87513 0.813869,-1.79508 0.945734,-5.785711 1.104858,-33.436147 L 40.062364,38.860044 H 38.053231 36.044099 V 20.837994 2.8159452 h 12.671753 12.671753 v 18.0220488 18.02205 h -3.379134 -3.379134 l -0.01453,39.282435 c -0.01437,38.848221 -0.332817,47.788281 -1.888872,53.028081 -1.703338,5.73576 -5.202194,10.66248 -9.49829,13.37449 -4.501974,2.84197 -12.310118,3.75486 -18.30615,2.14027 z"
     id="path864" />
  <path
     style="fill:#ff0000;stroke-width:0.563189"
     d="m 69.835441,126.15434 v -19.14842 h 3.379134 3.379134 V 72.932981 38.860044 H 73.214575 69.835441 V 20.829085 2.7981273 l 15.62206,0.1497062 15.622059,0.1497062 3.22301,15.7692933 c 1.77265,8.673111 6.37932,31.102115 10.23705,49.84223 l 7.01404,34.072937 0.0476,-31.960978 0.0476,-31.960978 h -3.66073 -3.66072 V 20.837994 2.8159452 h 13.79813 13.79813 v 18.0220488 18.02205 h -3.37914 -3.37913 v 53.221364 53.221362 h -10.38105 c -9.39734,0 -10.40938,-0.0934 -10.68006,-0.98558 -0.16446,-0.54207 -5.38791,-25.44206 -11.60767,-55.333322 C 96.276833,59.09261 90.962611,34.129256 90.68721,33.509748 90.38827,32.837291 90.171119,47.419496 90.148363,69.694644 l -0.03812,37.311276 h 4.223918 4.223918 v 19.14842 19.14843 H 84.196761 69.835441 Z"
     id="path903" />
  <path
     style="fill:#ff0000;stroke-width:0.563189"
     d="m 150.37147,126.15434 v -19.14842 h 3.66073 3.66073 V 72.932981 38.860044 h -3.66073 -3.66073 V 20.837994 2.8159452 h 16.61408 16.61408 v 18.0220488 18.02205 h -3.37914 -3.37913 v 34.072937 34.072939 h 3.37913 3.37914 v 19.14842 19.14843 h -16.61408 -16.61408 z"
     id="path942" />
  <path
     style="fill:#ff0000;stroke-width:0.563189"
     d="m 212.05327,144.0356 c -0.33082,-1.44327 -14.37392,-103.584663 -14.37392,-104.547578 0,-0.385726 -1.19492,-0.627978 -3.09754,-0.627978 h -3.09754 V 20.837994 2.8159452 h 15.4877 15.4877 v 18.0220488 18.02205 h -3.16022 -3.16021 l 0.32724,1.830364 c 0.17999,1.006701 2.50055,17.660381 5.15681,37.008177 2.65626,19.347802 4.93251,35.280755 5.05832,35.406565 0.4432,0.4432 0.83864,-2.74667 4.49133,-36.229846 2.02747,-18.585238 3.83318,-34.741724 4.01269,-35.903301 l 0.32639,-2.111959 h -4.27342 -4.27342 V 20.837994 2.8159452 h 13.51654 13.51654 v 18.0220488 18.02205 h -2.50884 c -2.38872,0 -2.52429,0.08762 -2.83198,1.830364 -0.17774,1.006701 -3.22847,24.005933 -6.7794,51.109405 -3.55094,27.103477 -6.60721,50.229427 -6.79173,51.390997 l -0.33549,2.11196 h -11.20354 c -11.15698,0 -11.20476,-0.005 -11.49401,-1.26717 z"
     id="path981" />
  <path
     style="fill:#ff0000;stroke-width:0.563189"
     d="m 260.75653,126.15434 v -19.14842 h 3.37913 3.37913 V 72.932981 38.860044 h -3.37913 -3.37913 V 20.837994 2.8159452 h 28.15945 28.15945 V 30.975397 59.134849 h -8.16624 -8.16624 V 48.997446 38.860044 h -7.03987 -7.03986 V 51.813392 64.76674 h 8.72943 8.72943 v 7.321457 7.321458 h -8.72943 -8.72943 v 13.798131 13.798134 h 7.03986 7.03987 V 96.868515 86.731112 h 8.72943 8.72943 v 29.285828 29.28583 h -28.72264 -28.72264 z"
     id="path1020" />
  <path
     style="fill:#ff0000;stroke-width:0.563189"
     d="m 379.87101,145.93304 c -3.96518,-1.03692 -6.62247,-3.17831 -8.46969,-6.82535 -2.46535,-4.86743 -2.6452,-6.70261 -3.00805,-30.6938 -0.31462,-20.802102 -0.45123,-23.295763 -1.37833,-25.159192 -1.38786,-2.789515 -3.79565,-3.845043 -8.77103,-3.845043 h -3.998 v 13.798131 13.798134 h 3.37913 3.37913 v 19.14842 19.14843 H 344.3901 327.77602 v -19.14843 -19.14842 h 3.66073 3.66073 V 72.932981 38.860044 h -3.66073 -3.66073 V 20.837994 2.8159452 l 19.57082,0.00978 c 14.65095,0.00732 20.51147,0.2091542 23.31264,0.8028763 9.77523,2.0719102 14.36443,7.2194525 16.59798,18.6173665 1.39963,7.142384 1.43085,28.673904 0.0496,34.225743 -2.09486,8.420288 -5.40159,11.867101 -13.63858,14.216365 -4.56364,1.301587 -4.82017,1.738295 -1.29513,2.204745 6.55301,0.867125 10.62908,4.173636 11.63664,9.439684 0.31472,1.64485 0.73778,7.155447 0.94013,12.245774 0.41748,10.501451 0.99208,13.015351 3.10292,13.575271 3.69243,0.97945 4.80879,-1.1422 5.41931,-10.299453 l 0.36609,-5.491094 h 2.08376 2.08376 l 0.36593,5.155219 c 0.20126,2.835378 0.36444,9.741478 0.36261,15.346898 -0.006,19.23696 -2.6602,28.63621 -8.99865,31.86985 -2.47393,1.2621 -7.35373,1.85475 -9.86486,1.19807 z M 364.68928,64.511254 c 1.49667,-0.625348 2.2821,-1.485749 3.15248,-3.453385 1.01229,-2.288445 1.13187,-3.486301 0.94362,-9.452435 -0.32867,-10.41617 -1.7245,-12.214025 -9.81241,-12.638532 l -4.72706,-0.248108 v 13.669802 13.669801 l 4.22504,-0.357147 c 2.32377,-0.196429 5.12202,-0.731926 6.21833,-1.189996 z"
     id="path1059" />
  <path
     style="fill:#ff0000;stroke-width:0.563189"
     d="m 435.90467,147.02932 c -4.25497,-1.29431 -7.99491,-4.53884 -10.75412,-9.3296 l -1.62182,-2.81595 -0.005,5.2095 -0.005,5.2095 h -9.01103 -9.01102 V 118.2697 91.236624 h 9.01102 9.01103 v 4.256121 c 0,8.603465 2.08968,12.076365 7.26649,12.076365 2.05619,0 2.94142,-0.29299 3.82874,-1.26718 2.22038,-2.43778 2.65178,-3.94423 2.62075,-9.151821 -0.0529,-8.880595 -1.93476,-11.715261 -12.77125,-19.237636 -12.5307,-8.698461 -16.37258,-13.180274 -18.9931,-22.156758 -1.01191,-3.466285 -1.28331,-6.152314 -1.51306,-14.975023 -0.49109,-18.857812 2.01101,-29.81081 8.19848,-35.8889904 3.38138,-3.3216649 5.97896,-4.37942913 10.792,-4.39464087 6.24714,-0.0197442 8.96499,1.89690537 12.95543,9.13624727 l 1.67484,3.038445 0.0102,-4.9279037 0.0102,-4.9279041 h 8.44784 8.44783 V 27.596263 52.376581 h -9.01102 -9.01102 v -3.129743 c 0,-4.106066 -0.96781,-7.815961 -2.37001,-9.084934 -1.81371,-1.641382 -5.69839,-1.374106 -7.59505,0.522558 -1.31968,1.319678 -1.57449,2.103094 -1.76171,5.416522 -0.39114,6.922193 1.83673,10.245764 11.03241,16.458274 11.64198,7.865222 16.68835,12.834065 19.38736,19.089524 2.72751,6.321515 4.11083,21.467728 3.23641,35.436178 -0.83441,13.32942 -3.4449,21.61164 -8.31418,26.37813 -3.51793,3.44366 -9.57655,4.96717 -14.18207,3.56623 z"
     id="path1098" />
  <path
     style="fill:#ff0000;stroke-width:0.563189"
     d="m 462.94139,126.15434 v -19.14842 h 3.31888 c 2.14472,0 3.40838,-0.24906 3.57187,-0.70399 0.13914,-0.38719 3.39466,-23.829935 7.2345,-52.094985 l 6.98152,-51.3909998 h 12.77421 12.77421 l 0.31893,1.5487699 C 510.19075,5.7012886 524.329,106.15828 524.329,106.77733 c 0,0.12572 1.39389,0.22859 3.09754,0.22859 h 3.09754 v 19.14842 19.14843 h -17.17727 -17.17727 v -19.14843 -19.14842 h 3.66073 c 2.54511,0 3.66531,-0.21454 3.67576,-0.70399 0.008,-0.38719 -0.42388,-4.69559 -0.96032,-9.574212 l -0.97534,-8.870228 h -7.75839 c -7.58994,0 -7.76426,0.02748 -8.02948,1.267176 -0.39896,1.86478 -2.00311,15.189024 -2.00311,16.638054 0,1.16374 0.25197,1.2432 3.94232,1.2432 h 3.94232 v 19.14842 19.14843 h -14.36132 -14.36132 z m 36.43327,-55.051724 c -0.17488,-1.161577 -1.36754,-10.728751 -2.65035,-21.260386 -2.25433,-18.50771 -2.71367,-21.476312 -3.13717,-20.274805 -0.10919,0.309754 -1.34363,9.433416 -2.74322,20.274805 -1.39959,10.841389 -2.68613,20.53528 -2.85898,21.541981 l -0.31427,1.830364 h 6.01098 6.01099 z"
     id="path1137" />
  <path
     style="fill:#ff0000;stroke-width:0.563189"
     d="m 537.28234,126.15434 v -19.14842 h 3.66073 3.66073 V 72.932981 38.860044 h -3.66073 -3.66073 V 20.837994 2.8159452 h 16.89567 16.89568 v 18.0220488 18.02205 h -3.37914 -3.37913 v 34.072937 34.072939 h 6.75827 6.75826 V 93.207786 79.409655 h 9.01103 9.01102 v 32.946555 32.94656 h -29.28583 -29.28583 z"
     id="path1176" />
</svg>
