<?xml version="1.0" encoding="UTF-8" standalone="no"?>
<svg
   version="1.2"
   width="417.86774"
   height="97.966606"
   xml:space="preserve"
   id="svg20"
   sodipodi:docname="vemulator-w.svg"
   inkscape:version="1.3 (0e150ed6c4, 2023-07-21)"
   xmlns:inkscape="http://www.inkscape.org/namespaces/inkscape"
   xmlns:sodipodi="http://sodipodi.sourceforge.net/DTD/sodipodi-0.dtd"
   xmlns="http://www.w3.org/2000/svg"
   xmlns:svg="http://www.w3.org/2000/svg"><sodipodi:namedview
   id="namedview1"
   pagecolor="#ffffff"
   bordercolor="#111111"
   borderopacity="1"
   inkscape:showpageshadow="0"
   inkscape:pageopacity="0"
   inkscape:pagecheckerboard="1"
   inkscape:deskcolor="#d1d1d1"
   inkscape:zoom="18.749337"
   inkscape:cx="397.53406"
   inkscape:cy="86.269717"
   inkscape:window-width="1449"
   inkscape:window-height="1246"
   inkscape:window-x="660"
   inkscape:window-y="1333"
   inkscape:window-maximized="0"
   inkscape:current-layer="svg20" /><defs
   id="defs24" />&#10;    <g
   fill="#666666"
   id="g16"
   transform="translate(-2.2713542,4.5407831)">&#10;        <path
   d="m 117.85208,5.5031086 c 0,-1.6863 -0.3206,-3.8703 -1.0654,-4.78869997 4.8811,0 15.4273,0.0322 19.9479,0.0322 10.4013,0 26.0939,5.77289997 26.0939,25.23640037 0,14.4445 -11.0782,25.2056 -26.0939,25.2056 -3.2935,0 -15.869,-0.0406 -20.3308,-0.0406 0.9142,-1.6877 1.4483,-3.9795 1.4483,-5.7883 z m 7.4809,40.7393004 c 4.8006,0.6244 9.2323,0.8155 13.2419,0.2429 3.8794,-0.5551 16.9155,-3.3635 16.8343,-20.6703 -0.0763,-16.4017004 -10.2067,-20.1516004 -18.0117,-20.6101004 -4.0733,-0.2401 -8.0052,-0.0861 -12.0652,0.6167 z m 41.7809,-30.0307 7.4732,-1.1669 v 6.58 c 1.9166,-4.7369 7.8813,-8.5435 16.3562,-5.2451 l -1.9866,5.2031 c -7.7574,-3.682 -14.3696,-0.4522 -14.3696,8.1627 v 17.7758 c 0,0.8463 0.1848,2.5536 0.6895,3.6491 h -7.7623 c 0.784,-0.9667 1.148,-2.8028 1.148,-3.6491 v -25.641 c -0.002,-1.8599 -0.3815,-4.739 -1.5484,-5.6686 z m 236.2724,3.5672 v 22.7038 c 0,7.1281 4.9133,9.0335 8.5533,9.0335 1.5379,0.0749 3.7191,-0.2842 5.2416,-0.6223 l 0.9366,-4.3995 c -1.7745,0.679 -3.8367,0.8379 -5.075,0.8379 -2.282,0 -3.9319,-1.5148 -3.9319,-3.8843 0,-2.1259 -0.0539,-22.9663 0,-23.6327 h -0.0238 c 0.3024,0 5.0372,-0.0168 5.5153,0 1.5519,0.0546 2.744,0.1491 3.7709,0.5621 l 0.006,-4.1433 -9.2673,-0.0119 0.0371,-10.6267004 -6.8866,1.9033 c 0.9492,0.8883 1.2579,3.4874004 1.2579,5.2017004 l -0.006,3.5581 c -0.3087,0 -3.8066,0.0175 -4.3855,0.0175 v 3.5007 z m -29.7682,24.0086 c 2.9603,2.1147 7.6062,3.9921 11.0131,3.9921 4.7264,0 8.1116,-2.2995 8.1116,-6.6283 0,-7.9898 -18.2154,-6.6654 -18.2154,-16.8028 0,-6.8544 6.1292,-9.4332 11.97,-9.4332 1.8781,0 6.1642,0.4074 8.8879,1.4616 l -0.0217,4.6816 c -2.4213,-2.0685 -6.1145,-2.5683 -8.5491,-2.5683 -3.8647,0 -6.7676,1.918 -6.7676,5.6784 0,5.5209 18.2014,5.201 18.2014,16.5347 0,7.3297 -6.349,10.7478 -13.3385,10.7478 -3.4055,0 -6.9573,-0.6034 -9.912,-1.4497 z m -109.9602,-23.9379 c 0,-0.4144 0.0147,-4.1265 0.0147,-4.6018 l -7.5663,1.1697 c 0.9121,0.9555 1.6121,3.9361 1.6121,6.0669 v 24.7898 c 0,0.8463 -0.3633,2.9001 -1.1487,3.8647 h 8.2488 c -0.7826,-0.9667 -1.1459,-3.0191 -1.1459,-3.8647 v -18.6515 c 0,-6.825 4.2217,-9.2148 8.4245,-9.2148 3.8038,0 7.2408,1.6464 7.2408,9.2148 v 18.6522 c 0,0.8463 -0.364,2.8994 -1.1459,3.8647 h 7.9996 c -0.7861,-0.9667 -1.1459,-3.0191 -1.1459,-3.8647 v -18.6522 c 0,-7.5677 4.6746,-9.2148 8.4861,-9.2148 3.801,0 7.7777,2.3877 7.7777,9.2148 v 18.6522 c 0,0.8463 -0.3605,2.8994 -1.1494,3.8647 h 7.7056 c -0.7889,-0.9667 -1.1473,-3.0191 -1.1473,-3.8647 v -22.1942 c 0,-3.7828 -3.8612,-9.8441 -12.8737,-9.8441 -5.2444,0 -8.2726,2.3331 -10.5721,4.34 -1.9551,-2.282 -5.138,-4.4219 -10.2529,-4.4219 -4.9812,-0.0021 -7.9233,2.919 -9.3618,4.6949 z m -17.8402,11.6298 c -1.0801,1.0171 -3.3411,1.8053 -5.6749,2.1133 -6.1334,0.8029 -11.4464,1.8228 -11.4464,7.7959 0,3.5441 3.864,6.3336 6.9237,6.3336 8.1046,0 10.199,-5.8471 10.199,-10.4545 v -5.7883 z m -19.1464,-14.6181 c 3.0933,-1.2397 8.0843,-1.8081 11.2147,-1.8081 7.994,0 13.3056,3.9935 13.3056,13.265 v 15.3804 c 0,2.8483 0.0434,5.5468 1.0584,7.4417 h -6.4246 l -0.2324,-4.046 c -2.4311,3.1409 -5.3389,4.5465 -10.2732,4.5465 -9.737,0 -11.8622,-6.6521 -11.8622,-9.8483 0,-11.4079 10.8584,-11.5395 15.5743,-12.2129 2.6096,-0.3682 5.9647,-1.106 6.4708,-3.5518 0.8316,-4.046 -2.0594,-7.0798 -7.9695,-7.0798 -4.3379,0 -7.8911,1.3195 -10.8598,3.0954 z m 138.1121,14.6181 c -1.0787,1.0171 -3.3411,1.8053 -5.6763,2.1133 -6.132,0.8029 -11.4436,1.8228 -11.4436,7.7959 0,3.5441 3.8612,6.3336 6.9209,6.3336 8.1032,0 10.199,-5.8471 10.199,-10.4545 z m -19.1443,-14.6181 c 3.0926,-1.2397 8.0892,-1.8081 11.2161,-1.8081 7.9898,0 13.3014,3.9935 13.3014,13.265 v 15.3804 c 0,2.8483 -0.6209,5.4887 1.0556,7.4417 h -6.4232 l -0.2338,-4.046 c -2.4346,3.1409 -5.3375,4.5465 -10.2718,4.5465 -9.7314,0 -11.8601,-6.6521 -11.8601,-9.8483 0,-11.4079 10.8584,-11.5395 15.5722,-12.2129 2.6103,-0.3682 5.9689,-1.106 6.4694,-3.5518 0.833,-4.046 -2.0587,-7.0798 -7.9695,-7.0798 -4.3365,0 -7.8897,1.3195 -10.8591,3.0954 v -5.18 z m -6.8404,4.7166 c -2.4101,-1.4084 -6.2153,-2.5235 -8.869,-2.5235 -9.3184,0 -13.5884,5.7295 -13.5884,13.9832 0,8.176 4.1755,14.4375 13.2881,14.4375 3.1234,0 7.3745,-1.4042 10.675,-3.4314 l -1.3426,6.0151 c -3.3593,0.9996 -6.1894,1.4756 -9.9358,1.4756 -12.8065,0 -18.8097,-9.0839 -18.8097,-18.5353 0,-10.4447 8.0528,-17.7919 18.9504,-17.7919 4.7635,0 8.2397,1.1676 9.6432,1.5666 z m -143.3635,11.8972 c 0.006,-0.8638 0.1204,-1.687 0.217,-2.485 h 24.7807 c 0,-8.5183 -4.2609,-15.8256 -14.3535,-15.8256 -10.4755,0 -16.695,8.1921 -16.695,18.641 0,9.4486 6.9237,17.892 18.7824,17.892 3.7492,0 6.8838,-0.9233 10.2683,-2.1084 l 1.1907,-6.041 c -2.8945,2.3828 -7.5719,3.7926 -11.7943,3.7926 -7.5887,0 -12.4292,-5.4943 -12.3963,-13.8656 z m 1.0017,-6.2636 c 0.8043,-4.144 4.6396,-8.3664 9.2288,-8.3664 7.0126,0 9.0419,5.4719 9.0419,8.3664 -0.001,0 -18.2707,0.0133 -18.2707,0 z"
   id="path14"
   style="stroke-width:0.7" />&#10;    </g>&#10;    <path
   fill="#CF3311"
   d="m 65.058,1.2860748 c 3.969,0.596 8.026,1.984 10.141,2.63 4.261,1.302 11.177,5.351 13.621,7.2910002 1.157,0.918 3.585,3.323 4.528,4.533 0.917,1.179 2.667,3.733 3.783,5.308 1.781,2.597 3.874,6.466 5.648,10.025 1.984,3.978 2.12,5.13 2.721,8.455 l 1.311,5.862 c 0.123,1.014 0.227,4.731 -1.957,5.251 -2.181,0.521 -4.199,-0.483 -5.15,-1.955 -1.316,-2.036 -1.133,-4.926 -2.623,-8.234 -1.161,-2.674 -1.666,-6.561 -3.521,-9.355 l -1.453,-2.458 c -2.573,-3.96 -5.253,-7.103 -6.851,-9.153 -1.411,-1.723 -4.04,-4.064 -6.531,-5.729 -2.306,-1.398 -6.032,-2.993 -8.719,-3.8130002 -0.856,-0.279 -4.524,-1.357 -6.8,-1.66 -3.093,-0.347 -5.126,-0.836 -8.063,-1.043 -3.63,-0.256 -5.367,-0.578 -10.074,-0.028 -1.783,0.484 -4.605,0.676 -7.147,1.647 -2.053,0.837 -4.906,2.1890002 -7.703,3.8320002 -3.012,1.651 -7.578,5.026 -10.609,7.907 -3.054,3.263 -4.582,5.014 -6.687,9.15 -0.931,2.046 -2.736,5.213 -3.464,7.447 -0.497,2.269 -1.443,6.5 -1.286,8.556 0.073,3.681 -0.25,4.44 0.027,7.45 0.01,2.71 0.899,4.588 1.27,6.806 0.315,1.53 1.787,6.828 2.694,8.062 4.129,8.9 9.675,12.755 15.856,15.537 1.742,0.888 7.191,2.346 8.767,2.763 2.69,0.485 6.227,0.81 9.633,0.875 3.583,0.069 8.522,-0.414 11.517,-1.519 3.244,-1.193 6.997,-2.891 6.953,-2.84 1.504,-0.832 3.802,-2.187 4.516,-2.781 1.383,-0.885 2.217,-1.228 3.034,-2.08 1.184,-1.033 1.898,-1.629 2.794,-2.91 a 61.17,61.17 0 0 1 2.059,-2.805 c 0.83,-1.36 1.307,-2.793 2.116,-4.564 0.968,-2.623 0.818,-2.496 1.003,-5.277 0.175,-0.807 -0.02,-3.519 -0.164,-3.979 -0.437,-2.502 -0.283,-4.709 -0.856,-7.139 -0.771,-3.287 -1.417,-5.747 -2.402,-8.899 -0.929,-3.549 -3.656,-6.838 -5.702,-9.188 -1.268,-1.457 -5.201,-4.895 -10.658,-7.043 -1.538,-0.517 -4.05,-1.103 -5.647,-1.395 -3.41,-0.356 -3.965,-0.127 -7.229,0.111 -1.124,0.196 -3.731,0.729 -4.692,1.066 -2.804,0.985 -3.835,1.611 -6.702,3.366 -1.334,0.775 -2.34,1.368 -3.705,2.646 -1.089,1.008 -1.868,2.72 -2.748,3.725 -1.209,1.644 -2.554,3.836 -3.456,6.201 -0.978,2.353 -1.293,5.664 -1.143,7.795 0,1.621 0.441,4.598 0.616,5.246 0.176,0.65 0.616,2.67 0.71,3.076 0.097,0.405 1.145,2.541 1.292,2.853 0.593,1.261 1.726,3.069 3.633,4.919 1.411,1.54 4.133,3.05 6.174,3.635 1.828,1.006 4.912,1.174 6.62,1.178 0.839,-0.053 2.984,-0.184 4.103,-0.451 2.271,-0.545 2.688,-0.56 5.028,-1.575 2.1,-0.974 3.523,-1.325 4.986,-2.403 0,0 2.007,-1.572 2.919,-2.724 0.481,-0.604 1.306,-3.5 1.161,-5.293 -0.069,-2.453 0.289,-3.845 -0.214,-5.863 -0.5,-2.019 -1.354,-4.358 -2.281,-5.8 -0.939,-1.46 -2.956,-2.882 -5.251,-4.017 -1.288,-0.636 -4.333,-1.224 -5.627,-1.376 -2.453,-0.292 -4.506,0.823 -5.753,2.097 -1.082,1.236 -3.22,3.803 -2.369,6.457 0.771,2.4 1.703,4.959 5.304,4.77 2.473,0.516 5.33,-0.229 6.283,0.207 1.413,0.803 1.955,2.573 1.443,3.811 -0.359,2.383 -2.643,2.668 -5.076,2.852 -2.18,0.365 -7.715,-0.702 -8.93,-1.613 -0.816,-0.484 -2.067,-1.647 -2.946,-2.435 -0.633,-0.568 -1.346,-1.828 -1.837,-2.734 -0.598,-1.114 -0.903,-1.933 -1.057,-2.657 -0.185,-0.86 -0.562,-2.506 -0.419,-4.149 0.099,-1.108 0.394,-1.582 0.688,-3.203 0.589,-1.84 1.32,-3.239 2.498,-4.834 1.532,-1.556 3.479,-3.408 5.38,-4.269 1.676,-0.886 4.613,-1.211 7.268,-1.056 2.156,0.206 4.702,0.469 6.389,1.033 2.884,1.03 3.708,1.236 6.077,2.73 1.999,1.237 4.012,3.516 5.136,5.402 2.39,4.89 3.76,10.328 2.764,17.653 -0.081,1.236 -0.466,2.443 -1.237,4.084 -0.714,1.511 -1.96,3.35 -3.838,4.732 -0.754,0.699 -1.946,1.561 -2.915,2.063 -1.375,0.834 -2.299,1.269 -3.733,1.989 -1.26,0.594 -2.73,1.27 -4.646,1.802 -2.076,0.821 -3.67,0.854 -6.281,1.243 -2.568,0.646 -9.602,0.187 -13.792,-1.662 -2.857,-1.203 -6.064,-3.321 -8.505,-5.904 -1.354,-1.422 -2.681,-3.996 -3.069,-4.523 -1.94,-3.729 -2.319,-7.233 -2.631,-7.973 -0.422,-1 -0.631,-3.244 -0.916,-4.779 -0.319,-1.724 -0.122,-8.941 1.617,-13.573 0.981,-1.845 1.555,-3.49 2.217,-4.353 1.193,-1.696 1.769,-2.755 2.782,-3.957 1.528,-1.852 2.64,-3.364 4.127,-4.431 3.793,-3.083 6.959,-4.711 11.245,-6.746 5.324,-2.168 6.923,-1.72 11.964,-1.639 2.267,0.02 5.566,0.733 7.189,1.027 3.012,0.401 4.738,1.127 6.773,1.695 2.178,0.608 3.436,1.58 5.226,2.659 1.47,0.949 3.202,2.251 4.345,3.308 2.927,2.146 4.337,4.401 6.131,7.171 0.327,0.464 2.455,5.002 2.794,6.266 0.158,0.633 0.638,2.449 0.949,3.511 0.396,1.685 0.591,3.176 1.036,5.078 0.396,1.957 1.072,5.652 1.364,9.107 0.495,2.965 -0.296,9.016 -0.76,10.871 -1.035,3.463 -2.85,7.69 -6.428,11.762 -1.519,1.804 -3.135,3.199 -5.003,4.717 -1.427,1.189 -2.653,1.886 -4.861,3.202 -2.996,1.788 -5.276,2.931 -9.477,4.573 -1.71,0.549 -3.866,1.271 -6.188,1.75 -4.499,0.408 -9.123,0.805 -14.169,0.206 -5.047,-0.602 -10.102,-2.023 -13.089,-2.939 -1.649,-0.618 -4.841,-1.955 -6.178,-2.68 -0.872,-0.44 -3.793,-2.438 -4.288,-2.918 -2,-1.237 -6.479,-5.449 -9.371,-9.375 -0.633,-1.217 -2.911,-4.854 -3.406,-6.448 -1.313,-2.697 -2.229,-5.96 -2.766,-7.354 -0.568,-3.254 -1.528,-5.348 -1.902,-8.611 0.042,-0.768 -0.154,-2.577 -0.33,-3.578 0.254,-2.235 -0.086,-4.339 0.358,-6.773 0.39,-2.053 0.904,-2.91 1.028,-4.766 0.121,-0.794 1.141,-3.182 1.415,-4.245 0.826,-1.75 1.03,-3.191 2.107,-5.147 1.549,-3.048 3.172,-6.554 5.662,-9.617 0.712,-0.95 2.729,-3.228 3.416,-4.017 1.625,-1.625 2.578,-1.881 4.421,-3.51 0.19,-0.12 1.409,-1.508 2.685,-1.985 2.111,-1.6320002 3.937,-2.2300002 5.948,-3.7150002 4.029,-2.008 5.497,-2.686 9.497,-4.351 2.313,-0.825 5.534,-1.28 6.694,-1.72999999 2.209,-0.137 4.451,-0.841 6.773,-0.702 2.607,-0.024 5.234,0.162 7.855,0.4 1.766,0.102 4.072,0.188 7.199,0.86799999 z"
   style="display:inline;fill:#4365a2;fill-opacity:0.941176"
   id="path18" />&#10;<g
   id="layer1"
   transform="translate(0,-0.00192519)"><g
     aria-label="Visual Memory System"
     id="text185"
     style="letter-spacing:-1.75px;fill:#666666"><path
       d="m 124.83439,85.857178 h -1.664 l -8.80535,-23.885356 h 2.08001 l 7.62667,21.63202 h 0.0347 q 0.0693,-0.242667 0.208,-0.589334 0.13866,-0.381333 0.416,-1.178667 0.312,-0.832001 0.832,-2.218669 0.52,-1.421335 1.352,-3.709337 0.86667,-2.322669 2.11467,-5.720005 1.28267,-3.397336 3.08533,-8.216008 h 1.90667 z"
       style="font-size:34.6667px;font-family:Segan;-inkscape-font-specification:'Segan, Normal'"
       id="path169" /><path
       d="m 138.37239,62.769157 q 0,0.485333 -0.38133,0.866667 -0.34667,0.346667 -0.86667,0.346667 -0.45066,0 -0.79733,-0.312 -0.34667,-0.312001 -0.34667,-0.901334 0,-0.554668 0.38133,-0.866668 0.38134,-0.312 0.83201,-0.312 0.52,0 0.832,0.312 0.34666,0.312 0.34666,0.866668 z m -2.04533,23.088021 V 68.558495 h 1.69867 v 17.298683 z"
       style="font-size:34.6667px;font-family:Segan;-inkscape-font-specification:'Segan, Normal'"
       id="path171" /><path
       d="m 151.94507,81.246507 q 0,0.936001 -0.416,1.837335 -0.416,0.901334 -1.21334,1.594668 -0.79733,0.693334 -2.04533,1.109334 -1.21334,0.416001 -2.80801,0.416001 -1.144,0 -2.25333,-0.277334 -1.10934,-0.242667 -1.73334,-0.554667 0.0347,-0.485334 0.0693,-0.936001 0.0347,-0.450667 0.104,-0.936001 0.79733,0.554667 1.94133,0.901334 1.144,0.312001 2.14934,0.312001 2.14933,0 3.29333,-0.936001 1.14401,-0.936001 1.14401,-2.392002 0,-0.970668 -0.65867,-1.629335 -0.624,-0.658667 -1.59467,-1.144001 -0.97067,-0.485334 -2.11467,-0.936001 -1.144,-0.485334 -2.11467,-1.074668 -0.97066,-0.589334 -1.62933,-1.421334 -0.624,-0.866668 -0.624,-2.184002 0,-2.184002 1.664,-3.46667 1.664,-1.317335 4.43734,-1.317335 1.00533,0 1.976,0.242667 0.97067,0.208 1.62933,0.485334 -0.0347,0.416 -0.0693,0.832001 -0.0347,0.416 -0.0693,0.866667 -0.79734,-0.450667 -1.76801,-0.693334 -0.97066,-0.277333 -1.976,-0.277333 -1.976,0 -3.016,0.866667 -1.04,0.866667 -1.04,2.288002 0,1.074668 0.624,1.768002 0.65867,0.658667 1.62933,1.178667 0.97067,0.485334 2.11467,0.901335 1.144,0.416 2.11467,1.005334 0.97067,0.589334 1.59467,1.421335 0.65867,0.832 0.65867,2.149335 z"
       style="font-size:34.6667px;font-family:Segan;-inkscape-font-specification:'Segan, Normal'"
       id="path173" /><path
       d="m 166.5924,85.857178 q 0,-0.208 0,-0.728001 0.0347,-0.52 0.0347,-1.074668 0.0347,-0.589333 0.0693,-1.074667 0.0347,-0.520001 0.0693,-0.693334 l -0.0693,-0.03467 q -0.79733,1.941335 -2.35733,2.946669 -1.56001,1.005335 -3.64001,1.005335 -1.56,0 -2.63467,-0.485334 -1.07466,-0.485334 -1.73333,-1.352001 -0.65867,-0.901334 -0.97067,-2.149336 -0.27733,-1.282667 -0.27733,-2.808002 V 68.558495 h 1.73333 v 10.29601 q 0,2.877336 0.90134,4.40267 0.90133,1.490668 3.25867,1.490668 1.28266,0 2.32267,-0.52 1.04,-0.520001 1.768,-1.421335 0.76266,-0.936001 1.144,-2.218668 0.416,-1.317335 0.416,-2.877336 v -9.152009 h 1.73333 v 17.298683 z"
       style="font-size:34.6667px;font-family:Segan;-inkscape-font-specification:'Segan, Normal'"
       id="path175" /><path
       d="m 182.73043,85.857178 v -3.640004 h -0.0693 q -0.69333,1.768002 -2.32267,2.877336 -1.59466,1.109335 -3.744,1.109335 -1.17867,0 -2.11467,-0.381334 -0.90133,-0.381334 -1.56,-1.005334 -0.624,-0.624001 -0.97067,-1.456002 -0.312,-0.866667 -0.312,-1.802668 0,-1.525335 0.624,-2.530669 0.65867,-1.040001 2.01067,-1.733335 1.352,-0.693334 3.432,-1.109334 2.08001,-0.416001 4.92268,-0.693334 0,-2.981336 -0.90134,-4.368004 -0.86667,-1.421335 -3.29333,-1.421335 -1.42134,0 -2.84267,0.520001 -1.38667,0.52 -2.49601,1.352001 -0.0693,-0.416 -0.13866,-0.866667 -0.0693,-0.450668 -0.13867,-0.866668 1.07467,-0.624001 2.63467,-1.109334 1.56,-0.520001 3.18934,-0.520001 3.05067,0 4.40267,1.594668 1.352,1.560002 1.31733,4.472004 l -0.0693,6.51734 q -0.0347,1.248001 -0.0347,2.634669 0,1.386668 0.13867,2.426669 z m -0.104,-8.944008 q -2.70401,0.277333 -4.47201,0.624 -1.768,0.312 -2.808,0.832001 -1.04,0.485334 -1.49067,1.213334 -0.416,0.728001 -0.416,1.768002 0,1.352001 0.86667,2.392002 0.90133,1.005334 2.6,1.005334 1.248,0 2.288,-0.52 1.07467,-0.520001 1.80267,-1.421335 0.76267,-0.936001 1.17867,-2.149335 0.45067,-1.213334 0.45067,-2.600002 z"
       style="font-size:34.6667px;font-family:Segan;-inkscape-font-specification:'Segan, Normal'"
       id="path177" /><path
       d="M 188.84974,85.857178 V 60.689155 l 1.69867,-0.346667 v 25.51469 z"
       style="font-size:34.6667px;font-family:Segan;-inkscape-font-specification:'Segan, Normal'"
       id="path179" /><path
       d="m 224.3498,85.857178 -1.31734,-16.605349 q -0.17333,-1.525335 -0.24267,-2.704002 -0.0693,-1.178668 -0.104,-1.872002 h -0.0693 q -0.17333,0.52 -0.416,1.213334 -0.24267,0.693334 -0.58933,1.456002 l -7.24534,18.512017 h -1.59467 l -7.07201,-17.992017 q -0.34666,-0.797334 -0.65867,-1.629335 -0.27733,-0.866667 -0.52,-1.629334 h -0.0347 q -0.0693,0.901334 -0.13867,2.045335 -0.0347,1.144001 -0.208,2.426669 l -1.04,16.778682 h -1.872 l 1.872,-23.885356 h 2.14934 l 7.24534,18.616018 q 0.24266,0.589333 0.55466,1.456001 0.312,0.866667 0.55467,1.560001 h 0.0693 q 0.27734,-0.762667 0.52,-1.525334 0.24267,-0.762668 0.52,-1.456002 l 7.28001,-18.650684 h 2.21867 l 1.976,23.885356 z"
       style="font-size:34.6667px;font-family:Segan;-inkscape-font-specification:'Segan, Normal'"
       id="path181" /><path
       d="m 242.74118,76.011835 q 0,0.173334 0,0.381334 0,0.208 -0.0347,0.485334 h -12.23734 v 0.381334 q 0,3.709336 1.56,5.581338 1.59467,1.872002 4.54133,1.872002 1.45601,0 2.77334,-0.416001 1.31734,-0.450667 2.46134,-1.248001 0.0693,0.416001 0.104,0.832001 0.0693,0.416 0.13866,0.797334 -1.144,0.658667 -2.6,1.109334 -1.456,0.416001 -3.224,0.416001 -1.69867,0 -3.08534,-0.520001 -1.38667,-0.52 -2.392,-1.594668 -1.00533,-1.109334 -1.56,-2.808002 -0.55467,-1.698669 -0.55467,-4.090671 0,-1.837335 0.52,-3.46667 0.52,-1.629335 1.456,-2.842669 0.97067,-1.248001 2.35734,-1.941335 1.42133,-0.728001 3.18933,-0.728001 1.76801,0 3.01601,0.658667 1.28267,0.624001 2.04533,1.698669 0.79734,1.074667 1.144,2.496002 0.38134,1.421335 0.38134,2.946669 z m -1.83734,-0.589334 q -0.0347,-2.738669 -1.31733,-4.264003 -1.28267,-1.525335 -3.53601,-1.525335 -1.144,0 -2.08,0.450667 -0.936,0.416 -1.664,1.178668 -0.69333,0.762667 -1.144,1.837335 -0.416,1.074667 -0.58933,2.322668 z"
       style="font-size:34.6667px;font-family:Segan;-inkscape-font-specification:'Segan, Normal'"
       id="path183" /><path
       d="m 245.8792,68.593162 h 1.768 q 0,0.832001 -0.0693,1.733335 -0.0347,0.901334 -0.104,1.664001 0.0347,0 0.0347,0.03467 0,0 0.0347,0 0.76266,-1.733335 2.25333,-2.773336 1.49067,-1.040001 3.57067,-1.040001 1.38667,0 2.288,0.416001 0.936,0.416 1.49067,1.040001 0.55467,0.624 0.79734,1.352001 0.27733,0.728 0.34666,1.352001 0.27734,-0.762667 0.79734,-1.525335 0.52,-0.762667 1.248,-1.317334 0.76267,-0.589334 1.73333,-0.936001 0.97067,-0.381334 2.18401,-0.381334 2.73866,0 4.02133,1.698668 1.28267,1.664002 1.28267,4.714671 v 11.232011 h -1.73333 V 75.110501 q 0,-1.282668 -0.17334,-2.288002 -0.17333,-1.005334 -0.58933,-1.698668 -0.416,-0.693334 -1.17867,-1.074668 -0.728,-0.381333 -1.872,-0.381333 -1.248,0 -2.25334,0.624 -1.00533,0.589334 -1.69867,1.698668 -0.69333,1.074668 -1.07466,2.634669 -0.38134,1.525335 -0.38134,3.397337 v 7.834674 h -1.73333 v -10.81601 q 0,-2.634669 -0.86667,-3.986671 -0.86667,-1.386667 -3.016,-1.386667 -1.28267,0 -2.288,0.624 -1.00534,0.589334 -1.69867,1.698668 -0.65867,1.109335 -1.04,2.669336 -0.34667,1.560002 -0.34667,3.46667 v 7.730674 h -1.73333 z"
       style="font-size:34.6667px;font-family:Segan;-inkscape-font-specification:'Segan, Normal'"
       id="path185" /><path
       d="m 288.22522,77.12117 q 0,1.837335 -0.52,3.501336 -0.52,1.629335 -1.52534,2.877336 -1.00533,1.248001 -2.53067,1.976002 -1.52533,0.728001 -3.50133,0.728001 -1.83734,0 -3.29334,-0.624001 -1.42134,-0.658667 -2.42667,-1.837335 -0.97067,-1.178668 -1.49067,-2.808002 -0.52,-1.664002 -0.52,-3.640004 0,-2.184002 0.58934,-3.848003 0.624,-1.698669 1.69866,-2.84267 1.07467,-1.178667 2.56534,-1.768001 1.49067,-0.624001 3.29334,-0.624001 1.59466,0 2.98133,0.554667 1.42134,0.520001 2.46134,1.629335 1.04,1.074668 1.62933,2.773336 0.58934,1.664002 0.58934,3.952004 z m -1.76801,0.03467 q 0,-3.67467 -1.59466,-5.581338 -1.56,-1.906668 -4.47201,-1.906668 -1.28267,0 -2.42667,0.485333 -1.10933,0.485334 -1.94133,1.456002 -0.832,0.936001 -1.31734,2.357335 -0.48533,1.386668 -0.48533,3.25867 0,3.432003 1.59467,5.477338 1.62933,2.045335 4.576,2.045335 1.352,0 2.46134,-0.485333 1.10933,-0.520001 1.90667,-1.490668 0.832,-0.970668 1.248,-2.392003 0.45066,-1.421334 0.45066,-3.224003 z"
       style="font-size:34.6667px;font-family:Segan;-inkscape-font-specification:'Segan, Normal'"
       id="path187" /><path
       d="m 299.26724,68.454495 q -0.0347,0.450667 -0.0347,0.866668 0,0.416 0,0.866667 -0.38133,-0.104 -0.76267,-0.208 -0.38133,-0.104 -0.79733,-0.104 -2.01067,0 -3.36267,2.045335 -1.352,2.010668 -1.352,6.344006 v 7.592007 h -1.69867 V 68.593162 h 1.73334 q 0,0.936001 -0.0693,2.045335 -0.0347,1.074668 -0.17333,2.149335 h 0.0693 q 0.48534,-1.906668 1.73334,-3.189336 1.28266,-1.317334 3.25867,-1.317334 0.38133,0 0.728,0.06933 0.38133,0.03467 0.728,0.104 z"
       style="font-size:34.6667px;font-family:Segan;-inkscape-font-specification:'Segan, Normal'"
       id="path189" /><path
       d="m 305.97591,88.699847 q -0.65867,1.629335 -1.352,2.704002 -0.69334,1.109335 -1.49067,1.768002 -0.76267,0.658667 -1.69867,0.936001 -0.90134,0.277334 -2.01067,0.277334 -0.38133,0 -0.832,-0.104001 -0.416,-0.06933 -0.69333,-0.138666 l 0.13866,-1.629335 q 0.312,0.104 0.79734,0.173333 0.48533,0.06933 0.90133,0.06933 1.352,0 2.392,-0.832001 1.04,-0.832001 2.01067,-2.981336 l 1.17867,-3.15467 -6.62134,-17.229349 h 1.976 l 5.51201,15.253348 h 0.0693 q 0.0693,-0.138667 0.13867,-0.381334 0.104,-0.242667 0.312,-0.797334 0.208,-0.589334 0.58933,-1.560002 0.38133,-1.005334 0.97067,-2.634669 0.58933,-1.664001 1.456,-4.056003 0.90133,-2.426669 2.11467,-5.824006 h 1.872 z"
       style="font-size:34.6667px;font-family:Segan;-inkscape-font-specification:'Segan, Normal'"
       id="path191" /><path
       d="m 334.2306,79.721172 q 0,1.352001 -0.52,2.530669 -0.52,1.178668 -1.52533,2.080002 -1.00534,0.866667 -2.496,1.386668 -1.49067,0.485334 -3.39734,0.485334 -1.31733,0 -2.73867,-0.312001 -1.38667,-0.277333 -2.32267,-0.693334 0.0347,-0.485333 0.0693,-0.936 0.0693,-0.450667 0.104,-0.936001 1.17866,0.624 2.46133,0.970667 1.31734,0.346667 2.496,0.346667 2.77334,0 4.40267,-1.213334 1.62934,-1.213335 1.62934,-3.432003 0,-1.040001 -0.312,-1.802669 -0.312,-0.762667 -0.936,-1.352001 -0.624,-0.624 -1.52534,-1.144001 -0.90133,-0.52 -2.04533,-1.144001 -1.31734,-0.693334 -2.46134,-1.317335 -1.144,-0.658667 -2.01067,-1.386667 -0.86666,-0.762668 -1.38666,-1.733335 -0.48534,-0.970668 -0.48534,-2.288002 0,-1.248002 0.48534,-2.357336 0.48533,-1.144001 1.42133,-1.976002 0.936,-0.866667 2.32267,-1.352001 1.38667,-0.52 3.224,-0.52 1.144,0 2.288,0.208 1.17867,0.173333 1.97601,0.381333 -0.0693,0.450667 -0.104,0.901335 0,0.416 -0.0693,0.866667 -0.832,-0.346667 -1.94133,-0.589334 -1.10934,-0.242667 -2.32267,-0.242667 -2.77334,0 -4.12534,1.282668 -1.352,1.282668 -1.352,3.189336 0,1.040001 0.34667,1.802669 0.38133,0.728 1.00533,1.317334 0.65867,0.589334 1.52534,1.109335 0.90133,0.52 1.94133,1.109334 1.248,0.658667 2.392,1.282668 1.17867,0.624 2.04534,1.386668 0.90133,0.762667 1.42133,1.768001 0.52,0.970668 0.52,2.322669 z"
       style="font-size:34.6667px;font-family:Segan;-inkscape-font-specification:'Segan, Normal'"
       id="path193" /><path
       d="m 342.29126,88.699847 q -0.65867,1.629335 -1.352,2.704002 -0.69334,1.109335 -1.49067,1.768002 -0.76267,0.658667 -1.69867,0.936001 -0.90133,0.277334 -2.01067,0.277334 -0.38133,0 -0.832,-0.104001 -0.416,-0.06933 -0.69333,-0.138666 l 0.13867,-1.629335 q 0.312,0.104 0.79733,0.173333 0.48533,0.06933 0.90133,0.06933 1.35201,0 2.39201,-0.832001 1.04,-0.832001 2.01067,-2.981336 l 1.17866,-3.15467 -6.62134,-17.229349 h 1.97601 l 5.512,15.253348 h 0.0693 q 0.0693,-0.138667 0.13867,-0.381334 0.104,-0.242667 0.312,-0.797334 0.208,-0.589334 0.58933,-1.560002 0.38134,-1.005334 0.97067,-2.634669 0.58934,-1.664001 1.456,-4.056003 0.90134,-2.426669 2.11467,-5.824006 h 1.872 z"
       style="font-size:34.6667px;font-family:Segan;-inkscape-font-specification:'Segan, Normal'"
       id="path195" /><path
       d="m 361.13325,81.246507 q 0,0.936001 -0.416,1.837335 -0.416,0.901334 -1.21334,1.594668 -0.79733,0.693334 -2.04533,1.109334 -1.21334,0.416001 -2.808,0.416001 -1.14401,0 -2.25334,-0.277334 -1.10933,-0.242667 -1.73334,-0.554667 0.0347,-0.485334 0.0693,-0.936001 0.0347,-0.450667 0.104,-0.936001 0.79733,0.554667 1.94133,0.901334 1.144,0.312001 2.14934,0.312001 2.14933,0 3.29334,-0.936001 1.144,-0.936001 1.144,-2.392002 0,-0.970668 -0.65867,-1.629335 -0.624,-0.658667 -1.59467,-1.144001 -0.97067,-0.485334 -2.11467,-0.936001 -1.144,-0.485334 -2.11467,-1.074668 -0.97066,-0.589334 -1.62933,-1.421334 -0.624,-0.866668 -0.624,-2.184002 0,-2.184002 1.664,-3.46667 1.664,-1.317335 4.43734,-1.317335 1.00533,0 1.976,0.242667 0.97067,0.208 1.62933,0.485334 -0.0347,0.416 -0.0693,0.832001 -0.0347,0.416 -0.0693,0.866667 -0.79734,-0.450667 -1.768,-0.693334 -0.97067,-0.277333 -1.97601,-0.277333 -1.976,0 -3.016,0.866667 -1.04,0.866667 -1.04,2.288002 0,1.074668 0.624,1.768002 0.65867,0.658667 1.62934,1.178667 0.97066,0.485334 2.11466,0.901335 1.144,0.416 2.11467,1.005334 0.97067,0.589334 1.59467,1.421335 0.65867,0.832 0.65867,2.149335 z"
       style="font-size:34.6667px;font-family:Segan;-inkscape-font-specification:'Segan, Normal'"
       id="path197" /><path
       d="m 371.96725,85.683844 q -0.58933,0.173334 -1.352,0.312001 -0.76267,0.173333 -1.456,0.173333 -2.25334,0 -3.15467,-1.109334 -0.90134,-1.144001 -0.90134,-3.640004 V 70.014497 h -3.67467 v -1.456002 h 3.67467 v -5.096004 q 0.17334,-0.06933 0.65867,-0.173334 0.48534,-0.138667 1.04,-0.346667 v 5.616005 h 5.09601 v 1.456002 h -5.09601 v 10.816009 q 0,2.149336 0.55467,2.981337 0.58933,0.832 2.14934,0.832 0.58933,0 1.21333,-0.138667 0.65867,-0.173333 1.10933,-0.346666 l 0.13867,1.525334 z"
       style="font-size:34.6667px;font-family:Segan;-inkscape-font-specification:'Segan, Normal'"
       id="path199" /><path
       d="m 386.92657,76.011835 q 0,0.173334 0,0.381334 0,0.208 -0.0347,0.485334 h -12.23734 v 0.381334 q 0,3.709336 1.56,5.581338 1.59467,1.872002 4.54134,1.872002 1.456,0 2.77334,-0.416001 1.31733,-0.450667 2.46133,-1.248001 0.0693,0.416001 0.104,0.832001 0.0693,0.416 0.13867,0.797334 -1.144,0.658667 -2.6,1.109334 -1.45601,0.416001 -3.22401,0.416001 -1.69867,0 -3.08533,-0.520001 -1.38667,-0.52 -2.39201,-1.594668 -1.00533,-1.109334 -1.56,-2.808002 -0.55466,-1.698669 -0.55466,-4.090671 0,-1.837335 0.52,-3.46667 0.52,-1.629335 1.456,-2.842669 0.97066,-1.248001 2.35733,-1.941335 1.42134,-0.728001 3.18934,-0.728001 1.768,0 3.016,0.658667 1.28267,0.624001 2.04534,1.698669 0.79733,1.074667 1.144,2.496002 0.38133,1.421335 0.38133,2.946669 z m -1.83733,-0.589334 q -0.0347,-2.738669 -1.31734,-4.264003 -1.28267,-1.525335 -3.536,-1.525335 -1.144,0 -2.08,0.450667 -0.936,0.416 -1.664,1.178668 -0.69334,0.762667 -1.14401,1.837335 -0.416,1.074667 -0.58933,2.322668 z"
       style="font-size:34.6667px;font-family:Segan;-inkscape-font-specification:'Segan, Normal'"
       id="path201" /><path
       d="m 390.0646,68.593162 h 1.76801 q 0,0.832001 -0.0693,1.733335 -0.0347,0.901334 -0.104,1.664001 0.0347,0 0.0347,0.03467 0,0 0.0347,0 0.76266,-1.733335 2.25333,-2.773336 1.49067,-1.040001 3.57067,-1.040001 1.38667,0 2.288,0.416001 0.936,0.416 1.49067,1.040001 0.55467,0.624 0.79734,1.352001 0.27733,0.728 0.34666,1.352001 0.27734,-0.762667 0.79734,-1.525335 0.52,-0.762667 1.248,-1.317334 0.76267,-0.589334 1.73333,-0.936001 0.97067,-0.381334 2.184,-0.381334 2.73867,0 4.02134,1.698668 1.28267,1.664002 1.28267,4.714671 v 11.232011 h -1.73334 V 75.110501 q 0,-1.282668 -0.17333,-2.288002 -0.17333,-1.005334 -0.58933,-1.698668 -0.416,-0.693334 -1.17867,-1.074668 -0.728,-0.381333 -1.872,-0.381333 -1.248,0 -2.25334,0.624 -1.00533,0.589334 -1.69867,1.698668 -0.69333,1.074668 -1.07466,2.634669 -0.38134,1.525335 -0.38134,3.397337 v 7.834674 h -1.73333 v -10.81601 q 0,-2.634669 -0.86667,-3.986671 -0.86667,-1.386667 -3.016,-1.386667 -1.28267,0 -2.288,0.624 -1.00534,0.589334 -1.69867,1.698668 -0.65867,1.109335 -1.04,2.669336 -0.34667,1.560002 -0.34667,3.46667 v 7.730674 h -1.73334 z"
       style="font-size:34.6667px;font-family:Segan;-inkscape-font-specification:'Segan, Normal'"
       id="path203" /></g></g><path
   style="fill:#f9f9f9;fill-opacity:1;stroke-width:0.150855"
   d="m 114.34792,55.548068 c 0,-0.03131 0.16228,-0.458961 0.36063,-0.950343 0.19834,-0.491384 0.48685,-1.436501 0.64113,-2.100262 0.26656,-1.14683 0.28045,-2.283243 0.2794,-22.854499 -0.001,-21.5080908 -0.003,-21.654469 -0.31591,-22.7036442 -0.17314,-0.5807909 -0.36658,-1.1747816 -0.42988,-1.3199793 -0.10899,-0.2500202 0.4468,-0.2639303 10.4986,-0.2627581 5.97379,6.966e-4 11.20723,0.066476 11.97139,0.1504696 9.46966,1.0408655 16.86502,5.698435 20.4784,12.897231 2.94796,5.873083 3.46965,13.897376 1.32128,20.322958 -1.23539,3.69495 -3.07146,6.652631 -5.8845,9.479205 -3.47373,3.490437 -7.64673,5.693716 -13.04894,6.889638 l -1.81026,0.400749 -12.03067,0.05408 c -6.61687,0.02974 -12.03067,0.02846 -12.03067,-0.0028 z m 21.47243,-4.408262 c 9.1583,-1.200549 15.11155,-6.505455 16.84472,-15.010234 0.91243,-4.477394 0.58673,-10.604503 -0.7808,-14.68856 -2.12194,-6.337035 -6.71173,-10.140176 -13.79848,-11.43354 -1.56378,-0.2853955 -2.34766,-0.3272888 -6.23871,-0.3334169 -3.40408,-0.00536 -4.91123,0.054569 -6.41133,0.2549408 -1.07861,0.1440721 -2.07991,0.2986111 -2.22511,0.3434191 -0.24971,0.07706 -0.264,1.177883 -0.264,20.342443 v 20.260973 l 1.99883,0.182138 c 1.09935,0.100177 2.10065,0.202601 2.22511,0.227611 0.79158,0.159075 7.14047,0.05208 8.64977,-0.145774 z"
   id="path1" /><path
   style="fill:#f9f9f9;fill-opacity:1;stroke-width:0.150855"
   d="m 165.92008,54.647144 0.39731,-0.942843 0.0436,-14.406631 c 0.0299,-9.874577 -0.008,-14.708227 -0.12033,-15.365353 -0.20324,-1.18855 -0.55213,-2.239155 -0.91234,-2.747368 l -0.27451,-0.387283 3.19631,-0.494361 c 1.75797,-0.271899 3.38164,-0.530116 3.60816,-0.573817 l 0.41186,-0.07946 0.0407,3.29935 0.0407,3.299349 0.43271,-0.853953 c 1.30045,-2.566454 3.75388,-4.463074 6.80832,-5.263176 1.40726,-0.368626 3.94976,-0.437597 5.49954,-0.149189 0.79769,0.148447 3.30717,0.860319 3.43554,0.974571 0.0314,0.02792 -1.42756,3.929046 -1.76264,4.71326 l -0.13957,0.326642 -1.04375,-0.424754 c -2.2692,-0.92346 -5.20082,-1.241185 -7.12053,-0.771715 -2.81266,0.687845 -4.94948,2.903577 -5.83393,6.049385 -0.25569,0.909448 -0.27569,1.790092 -0.27569,12.14381 0,9.990038 0.0262,11.238562 0.24924,11.879814 l 0.24923,0.71656 h -3.66364 -3.66365 z"
   id="path2" /><path
   style="fill:#f9f9f9;fill-opacity:1;stroke-width:0.150855"
   d="m 203.88023,56.099578 c -1.35729,-0.145383 -3.92989,-0.696667 -4.94824,-1.060358 -5.74381,-2.051339 -9.73836,-6.462156 -11.23505,-12.405842 -0.36584,-1.452841 -0.40338,-1.865926 -0.40592,-4.467119 -0.002,-2.438714 0.0497,-3.112538 0.34952,-4.517482 1.25296,-5.872286 4.48106,-10.235675 9.17798,-12.405788 1.96671,-0.908673 3.71579,-1.28301 6.38287,-1.366054 3.54392,-0.110347 6.11019,0.488091 8.51166,1.984863 3.80065,2.368837 5.84735,6.395025 6.35199,12.495378 l 0.0967,1.169124 h -12.4369 -12.4369 l -0.0969,0.927258 c -0.5145,4.922542 1.03446,9.707636 4.0267,12.43936 1.81246,1.654659 3.88965,2.591662 6.51165,2.93736 3.99774,0.52708 9.58072,-0.804512 12.88608,-3.073443 0.36676,-0.251762 0.63076,-0.361672 0.58666,-0.244245 -0.0441,0.117427 -0.30615,1.419399 -0.58235,2.893271 l -0.50218,2.679768 -1.36675,0.434875 c -2.14828,0.683543 -3.52072,1.040314 -4.98727,1.29646 -1.36876,0.239065 -4.76625,0.402267 -5.88334,0.282614 z m 8.59612,-25.061207 c -0.14825,-1.100549 -0.50703,-2.27278 -0.98607,-3.221741 -0.5238,-1.037655 -1.84788,-2.504251 -2.82457,-3.1286 -1.78822,-1.143122 -4.96543,-1.677867 -6.97287,-1.173581 -2.78016,0.698399 -5.23128,2.735776 -6.63151,5.512127 -0.47081,0.933514 -0.90622,2.149264 -0.9096,2.539786 -10e-4,0.148814 1.94035,0.188569 9.20975,0.188569 h 9.21139 z"
   id="path3" /><path
   style="fill:#f9f9f9;fill-opacity:1;stroke-width:0.150855"
   d="m 230.11277,55.878398 c -3.52237,-0.589212 -6.39967,-2.559845 -7.74472,-5.304282 -0.91581,-1.868614 -1.11694,-2.85693 -1.02078,-5.015973 0.12157,-2.729343 0.71143,-4.499315 2.1115,-6.335901 2.03599,-2.670778 5.15128,-3.959091 11.66013,-4.821996 5.28432,-0.700564 7.03544,-1.397084 7.94206,-3.159024 0.42568,-0.82727 0.45782,-2.697202 0.0657,-3.825107 -0.40063,-1.1525 -1.52798,-2.321124 -2.86662,-2.971555 -1.62605,-0.790081 -3.17703,-1.042086 -5.82316,-0.946155 -3.24315,0.117576 -5.77475,0.770211 -8.56149,2.207111 l -1.41062,0.727349 0.0413,-2.505743 0.0413,-2.505743 1.05598,-0.343979 c 1.42461,-0.464054 4.5533,-1.029696 6.91885,-1.250873 9.1606,-0.856507 14.38715,2.181524 15.97624,9.286487 0.28432,1.271253 0.31071,2.095245 0.4059,12.67376 0.10608,11.788967 0.10113,11.700038 0.74542,13.388361 l 0.15832,0.414851 h -3.0673 -3.0673 l -0.0969,-0.927258 c -0.0533,-0.509991 -0.0969,-1.319056 -0.0969,-1.797919 0,-0.478864 -0.035,-0.961776 -0.0777,-1.073135 -0.0507,-0.132031 -0.53614,0.248731 -1.39541,1.094427 -2.37156,2.33411 -4.74373,3.166833 -8.93588,3.136832 -1.20306,-0.0086 -2.5341,-0.07365 -2.95786,-0.144535 z m 6.38939,-3.907602 c 3.82676,-0.917433 6.16181,-3.549812 6.89907,-7.777567 0.16008,-0.91797 0.22924,-2.355377 0.22924,-4.764465 0,-3.173384 -0.0714,-3.79369 -0.37946,-3.295288 -0.19065,0.308478 -2.18898,1.201863 -3.3422,1.49418 -0.64962,0.164667 -2.13151,0.440145 -3.29309,0.612176 -5.14736,0.762325 -7.70626,1.790082 -9.06481,3.640791 -1.27867,1.741895 -1.54428,4.587715 -0.60144,6.443862 0.77539,1.526475 2.39475,2.911333 4.17914,3.573946 1.28058,0.475527 3.56365,0.506273 5.37355,0.07236 z"
   id="path4" /><path
   style="fill:#f9f9f9;fill-opacity:1;stroke-width:0.150855"
   d="m 254.77831,55.016768 c 0.74519,-1.460694 0.7699,-1.968187 0.7667,-15.750452 -0.002,-7.748974 -0.063,-13.286748 -0.15373,-13.922713 -0.21393,-1.498618 -0.54822,-2.752105 -0.95618,-3.585395 l -0.35209,-0.719153 0.31764,-0.07545 c 0.17471,-0.0415 1.77716,-0.29856 3.56102,-0.57125 l 3.24338,-0.495798 0.0754,2.313131 0.0754,2.31313 1.05599,-1.078266 c 1.58047,-1.613827 2.92751,-2.471993 4.97821,-3.171512 0.94568,-0.322583 1.31598,-0.360165 3.54508,-0.35979 1.90956,3.21e-4 2.71316,0.06222 3.45141,0.26586 2.34764,0.647572 3.94205,1.518609 5.55212,3.033159 l 1.10199,1.036615 0.56658,-0.511835 c 3.37544,-3.04928 7.94165,-4.400919 12.48411,-3.69541 4.8998,0.761009 8.2984,3.282122 9.86838,7.320467 l 0.38822,0.998593 0.0762,12.596374 c 0.0751,12.414088 0.0808,12.60729 0.39632,13.350648 0.17607,0.414851 0.37002,0.873072 0.43099,1.01827 0.1038,0.24717 -0.11981,0.263996 -3.50826,0.263996 h -3.61912 l 0.34944,-0.867415 c 0.66246,-1.644418 0.69096,-2.240433 0.63672,-13.312934 -0.0499,-10.186027 -0.0606,-10.517268 -0.37557,-11.639067 -0.44845,-1.597167 -0.99293,-2.604143 -1.95138,-3.608985 -1.44122,-1.510968 -3.29895,-2.253218 -5.62758,-2.248483 -4.71784,0.0096 -7.6415,2.491118 -8.29994,7.044774 -0.085,0.58785 -0.14924,5.39452 -0.15096,11.295045 -0.003,9.794485 0.0111,10.326693 0.29971,11.455232 0.16648,0.650938 0.40564,1.340643 0.53147,1.532678 l 0.22877,0.349155 h -3.83134 -3.83135 l 0.27792,-0.565705 c 0.75272,-1.53213 0.7584,-1.642678 0.70077,-13.646343 -0.0472,-9.834248 -0.0843,-11.320329 -0.30306,-12.132342 -0.79377,-2.946822 -2.40184,-4.640033 -4.90713,-5.166973 -1.12277,-0.236152 -3.2481,-0.205267 -4.38952,0.06379 -1.43014,0.337113 -2.90624,1.174804 -3.82669,2.171654 -0.98765,1.069633 -1.53346,2.069127 -1.95591,3.581651 -0.3216,1.151446 -0.33097,1.433097 -0.38247,11.495448 -0.0559,10.912062 -0.0178,11.715275 0.63174,13.323295 l 0.35364,0.875525 h -3.90776 -3.90775 z"
   id="path5" /><path
   style="fill:#f9f9f9;fill-opacity:1;stroke-width:0.150855"
   d="m 324.3391,55.889048 c -6.61923,-0.693015 -11.66351,-4.058873 -14.33711,-9.566614 -3.04226,-6.267206 -2.50492,-14.033229 1.32703,-19.179067 5.02164,-6.743443 13.96838,-8.954839 24.28515,-6.002639 l 0.79199,0.226632 v 2.252117 c 0,1.238665 -0.0362,2.252118 -0.0804,2.252118 -0.0442,0 -0.40063,-0.161295 -0.79198,-0.358433 -1.70179,-0.857255 -4.45151,-1.652802 -6.52305,-1.887246 -1.48505,-0.168069 -4.21902,0.01046 -5.62647,0.367406 -3.17518,0.805261 -5.45044,2.318846 -7.02533,4.673499 -1.7991,2.689881 -2.60224,6.472342 -2.26406,10.66281 0.47158,5.843609 3.17638,10.047627 7.54951,11.734086 1.92463,0.742216 3.12477,0.94652 5.55968,0.946452 1.94507,-5.4e-5 2.37959,-0.05025 3.92223,-0.453059 2.02354,-0.528384 3.27856,-1.00674 5.33827,-2.034695 0.82032,-0.4094 1.45783,-0.654227 1.41671,-0.544061 -0.0411,0.110168 -0.33333,1.388285 -0.64937,2.840262 -0.31604,1.451978 -0.59197,2.663052 -0.61319,2.691277 -0.1017,0.135297 -3.63707,0.936847 -5.04593,1.144028 -2.00392,0.29469 -5.56052,0.410297 -7.23363,0.235127 z"
   id="path6" /><path
   style="fill:#f9f9f9;fill-opacity:1;stroke-width:0.150855"
   d="m 348.77625,55.815941 c -2.45651,-0.496682 -4.19798,-1.387766 -5.73252,-2.933242 -1.22237,-1.231088 -1.87846,-2.316017 -2.42237,-4.005751 -0.46104,-1.432281 -0.46311,-4.11417 -0.005,-5.883336 1.26707,-4.888439 4.78639,-7.356135 11.9308,-8.365699 5.64156,-0.7972 6.609,-1.021246 7.98943,-1.85025 0.4531,-0.272107 1.02705,-0.784725 1.27543,-1.139152 0.40634,-0.579807 0.45751,-0.783976 0.51047,-2.036539 0.0775,-1.83349 -0.28095,-2.854399 -1.39253,-3.965974 -1.47977,-1.479771 -3.67167,-2.17855 -6.83018,-2.177473 -3.14471,0.0011 -6.06616,0.682984 -8.94451,2.087792 -0.78821,0.384697 -1.48403,0.722744 -1.54626,0.751216 -0.0622,0.02847 -0.11314,-1.064096 -0.11314,-2.427931 v -2.4797 l 1.0937,-0.318058 c 3.3089,-0.962265 5.82121,-1.294842 9.76785,-1.293063 3.01603,0.0014 3.34495,0.02891 4.69254,0.392993 4.57195,1.235235 7.21963,3.975635 8.38798,8.681719 0.22272,0.897106 0.25634,2.346136 0.28787,12.405289 0.0196,6.264245 0.0708,11.706696 0.11362,12.094337 0.0428,0.387639 0.25331,1.050927 0.46768,1.47397 l 0.38977,0.769171 -3.05894,-0.04085 -3.05894,-0.04085 -0.0358,-0.60342 c -0.0197,-0.33188 -0.0772,-1.234035 -0.12767,-2.00479 l -0.0918,-1.401372 -0.8993,0.981422 c -1.64145,1.791359 -3.79969,2.941061 -6.3781,3.397644 -1.222,0.21639 -5.07013,0.174597 -6.27048,-0.0681 z m 7.47914,-4.052334 c 2.28656,-0.73987 4.11705,-2.305344 5.10984,-4.370062 0.67167,-1.396881 0.96621,-2.534273 1.13944,-4.399933 0.13541,-1.458497 0.20913,-7.014747 0.0931,-7.014747 -0.0314,0 -0.45571,0.240002 -0.94285,0.533339 -1.29014,0.776893 -2.89362,1.227531 -6.19978,1.742385 -4.47149,0.696323 -6.76941,1.49285 -8.25362,2.860944 -1.77063,1.632115 -2.39035,4.814045 -1.37116,7.04024 0.49414,1.079353 1.97574,2.600604 3.13415,3.218029 1.53325,0.817215 1.9486,0.902104 4.11113,0.840237 1.59916,-0.04575 2.18603,-0.128883 3.17978,-0.450432 z"
   id="path7" /><path
   style="fill:#f9f9f9;fill-opacity:1;stroke-width:0.150855"
   d="m 379.09806,55.722464 c -1.43834,-0.16538 -3.33526,-0.511851 -4.9949,-0.912313 l -1.29896,-0.313432 -0.63677,-2.860415 c -0.35022,-1.573228 -0.61097,-2.886205 -0.57945,-2.917728 0.0315,-0.03152 0.46135,0.188391 0.95517,0.488697 3.40645,2.071561 7.76423,3.365531 10.61776,3.152767 4.09444,-0.305288 6.64298,-2.17881 7.25852,-5.33599 0.45926,-2.35557 -0.35967,-4.216845 -2.56884,-5.838523 -0.87733,-0.644025 -3.07099,-1.741551 -5.73544,-2.869542 -5.85995,-2.480805 -8.3702,-4.346062 -9.34107,-6.940947 -0.95337,-2.548128 -0.26559,-6.06963 1.60256,-8.205203 1.29668,-1.482305 3.67031,-2.730212 6.2521,-3.28697 2.70445,-0.583207 7.94634,-0.242125 11.25426,0.732299 l 1.0937,0.322174 v 2.165419 c 0,1.19098 -0.0404,2.165418 -0.0899,2.165418 -0.0494,0 -0.27004,-0.127063 -0.49027,-0.282362 -1.64338,-1.158839 -4.06356,-1.825345 -7.03804,-1.93824 -3.05799,-0.116064 -4.71853,0.362342 -6.11443,1.761587 -0.93571,0.937946 -1.36779,1.919662 -1.46424,3.326908 -0.066,0.962413 -0.0285,1.238822 0.23926,1.763617 0.62072,1.216711 2.02182,2.084037 6.28343,3.889659 5.07279,2.149316 7.12196,3.328423 8.90136,5.121898 1.16547,1.174695 2.03265,2.647421 2.40846,4.09026 0.29566,1.135114 0.29346,3.477718 -0.004,4.741747 -0.80989,3.436292 -3.60617,6.178025 -7.53399,7.387027 -2.26966,0.69861 -5.94269,0.94094 -8.97586,0.592188 z"
   id="path8" /><path
   style="fill:#f9f9f9;fill-opacity:1;stroke-width:0.150855"
   d="m 408.2931,55.884556 c -1.46045,-0.228886 -2.70382,-0.715883 -3.80205,-1.489168 -1.46604,-1.032272 -2.48768,-2.579656 -3.01909,-4.572707 -0.22344,-0.838025 -0.25868,-2.350233 -0.30943,-13.278111 l -0.0573,-12.332378 h -2.10316 -2.10317 v -1.659403 -1.659402 h 2.20425 2.20424 l -0.0717,-3.205664 c -0.073,-3.265955 -0.23657,-4.310744 -0.81661,-5.217579 -0.12402,-0.193881 -0.20308,-0.372048 -0.17571,-0.395925 0.0274,-0.02388 1.53699,-0.452106 3.35471,-0.951619 l 3.30494,-0.908204 -0.10342,5.339495 -0.10343,5.339496 h 4.68064 4.68065 v 1.940917 1.940917 l -0.94284,-0.221658 c -0.67722,-0.15921 -1.98411,-0.227896 -4.63879,-0.243801 l -3.69594,-0.02214 v 12.294665 c 0,13.918151 -0.0652,13.142572 1.20317,14.311715 0.93575,0.862548 1.98205,1.143224 3.77191,1.011842 1.21727,-0.08936 2.67253,-0.338079 3.64858,-0.623598 l 0.32665,-0.09555 -0.44016,2.076301 c -0.24208,1.141964 -0.45695,2.091711 -0.4775,2.110548 -0.0205,0.01884 -0.68225,0.143024 -1.47047,0.275968 -1.87181,0.315706 -3.92457,0.41127 -5.04899,0.235049 z"
   id="path9" /><path
   style="fill:#f9f9f9;fill-opacity:1;stroke-width:0.0533352"
   d="m 123.16571,85.751093 c -0.02,-0.0521 -1.99609,-5.41092 -4.39131,-11.908483 l -4.35495,-11.813751 0.98668,-0.01454 c 0.54268,-0.008 0.99764,-0.0036 1.01102,0.0098 0.0134,0.01339 1.73199,4.866278 3.81912,10.784205 2.08713,5.917926 3.81878,10.767519 3.84812,10.776871 0.0293,0.0094 0.18253,-0.348839 0.34044,-0.79598 0.15792,-0.447141 0.50218,-1.389005 0.76504,-2.093029 0.26286,-0.704025 0.71341,-1.928069 1.00124,-2.720097 0.95533,-2.628846 2.11558,-5.758724 4.03833,-10.893718 l 1.90221,-5.080179 h 0.92154 c 0.85563,0 0.91899,0.0067 0.886,0.09334 -0.0195,0.05134 -2.08005,5.409525 -4.57891,11.907088 l -4.54339,11.813751 -0.8074,0.01473 c -0.73223,0.01336 -0.8108,0.0059 -0.84378,-0.08 z"
   id="path10" /><path
   style="fill:#f9f9f9;fill-opacity:1;stroke-width:0.0533352"
   d="m 136.37815,77.202729 v -8.640306 h 0.80003 0.80003 v 8.640306 8.640305 h -0.80003 -0.80003 z"
   id="path11" /><path
   style="fill:#f9f9f9;fill-opacity:1;stroke-width:0.0533352"
   d="m 136.86474,63.92378 c -0.45151,-0.110681 -0.80095,-0.526467 -0.84723,-1.008093 -0.0509,-0.529764 0.18,-0.9409 0.65181,-1.160604 0.51502,-0.239827 1.04698,-0.137866 1.40437,0.269176 0.39364,0.448338 0.36245,1.058079 -0.0782,1.529199 -0.30989,0.3313 -0.72941,0.468696 -1.13072,0.370322 z"
   id="path12" /><path
   style="fill:#f9f9f9;fill-opacity:1;stroke-width:0.0533352"
   d="m 144.12373,86.07624 c -0.84677,-0.130663 -2.28218,-0.525397 -2.55978,-0.703933 -0.0653,-0.04203 -0.032,-0.742195 0.0743,-1.562411 l 0.0319,-0.246409 0.35406,0.207265 c 1.03295,0.604675 2.41566,0.951507 3.79419,0.951714 1.5811,2.37e-4 2.65921,-0.362992 3.47286,-1.170057 0.67259,-0.667136 0.93211,-1.340105 0.88783,-2.30218 -0.0283,-0.61558 -0.19633,-1.03039 -0.59666,-1.473294 -0.60013,-0.663956 -1.36801,-1.117024 -3.25735,-1.921922 -1.22394,-0.521424 -1.62109,-0.712794 -2.34675,-1.130783 -0.92069,-0.530335 -1.70919,-1.232937 -2.05405,-1.830299 -0.63622,-1.102038 -0.58505,-2.9472 0.1145,-4.129225 0.41505,-0.701301 1.31262,-1.470893 2.1941,-1.881266 0.98267,-0.457481 1.79783,-0.611028 3.23891,-0.610092 0.98975,6.44e-4 1.15752,0.01455 1.77029,0.146778 0.62895,0.135714 1.25864,0.309178 1.69024,0.465617 l 0.18041,0.06539 -0.0351,0.485668 c -0.0193,0.267117 -0.0497,0.63441 -0.0675,0.816207 l -0.0323,0.33054 -0.32114,-0.162112 c -1.12847,-0.569648 -2.89225,-0.885617 -4.14589,-0.742709 -1.16706,0.133037 -1.87749,0.430052 -2.48315,1.03816 -0.59108,0.593467 -0.82261,1.189571 -0.82261,2.117938 0,1.134896 0.41991,1.799088 1.64035,2.59461 0.55089,0.359088 1.39725,0.760078 2.4398,1.15593 0.99057,0.376119 2.05106,0.888457 2.61342,1.262587 0.52967,0.352378 1.27552,1.090227 1.53127,1.51485 0.32109,0.533094 0.42662,0.923262 0.45445,1.68006 0.0284,0.773631 -0.0437,1.202563 -0.30971,1.841558 -0.49187,1.181521 -1.5121,2.148411 -2.83865,2.690232 -0.58912,0.240624 -1.42237,0.456215 -2.06274,0.533703 -0.62802,0.07599 -1.95743,0.05925 -2.54952,-0.03212 z"
   id="path13" /><path
   style="fill:#f9f9f9;fill-opacity:1;stroke-width:0.0533352"
   d="m 159.49357,86.085371 c -1.25804,-0.195428 -2.44704,-0.835835 -3.06057,-1.648462 -0.75638,-1.001815 -1.13671,-2.160997 -1.27984,-3.900729 -0.0302,-0.367399 -0.053,-3.05388 -0.0535,-6.30689 l -8.4e-4,-5.666867 h 0.85336 0.85336 v 5.590935 c 0,3.632534 0.0203,5.795015 0.058,6.173552 0.16105,1.618477 0.58785,2.802246 1.24853,3.462932 0.70533,0.705333 1.82659,1.047174 3.17366,0.967564 2.65189,-0.156721 4.55708,-2.013224 5.17132,-5.039156 0.18829,-0.927579 0.21554,-1.752203 0.21554,-6.523408 v -4.632419 h 0.82669 0.8267 v 8.640306 8.640305 h -0.86139 -0.86139 l 0.0372,-1.133373 c 0.0205,-0.623356 0.0602,-1.420038 0.0884,-1.770406 0.0284,-0.353804 0.0308,-0.657355 0.005,-0.68274 -0.0254,-0.02538 -0.14209,0.155165 -0.26249,0.406089 -0.91042,1.897349 -2.5,3.073002 -4.62596,3.421358 -0.57594,0.09437 -1.74919,0.09507 -2.35215,0.0014 z"
   id="path15" /><path
   style="fill:#f9f9f9;fill-opacity:1;stroke-width:0.0533352"
   d="m 175.76621,86.125347 c -1.87643,-0.254671 -3.39288,-1.47346 -3.90158,-3.135747 -0.13742,-0.44905 -0.14698,-0.543671 -0.14818,-1.466718 -0.001,-1.039702 0.0432,-1.325146 0.30406,-1.946736 0.36157,-0.861669 1.12421,-1.635066 2.17231,-2.202931 1.45944,-0.79073 3.95954,-1.377001 7.44027,-1.744733 0.44001,-0.04649 0.85206,-0.09528 0.91565,-0.108417 0.11253,-0.02326 0.11492,-0.04065 0.0895,-0.650668 -0.11124,-2.668798 -0.73715,-4.144465 -2.01851,-4.758877 -0.71208,-0.341441 -1.02784,-0.398855 -2.18675,-0.397605 -1.11589,0.0012 -1.65552,0.08416 -2.61342,0.401787 -0.62764,0.208112 -1.67479,0.714783 -2.24376,1.085655 -0.29329,0.191177 -0.46057,0.271852 -0.47432,0.22875 -0.0246,-0.07694 -0.24203,-1.460598 -0.24203,-1.539804 0,-0.07043 1.17328,-0.629014 1.83083,-0.871633 1.35311,-0.499262 2.38131,-0.7157 3.60963,-0.759838 3.89877,-0.140098 5.87941,1.674159 6.0096,5.504775 0.0169,0.498685 0.003,2.982772 -0.0318,5.520195 -0.0454,3.347409 -0.0468,4.855005 -0.005,5.493528 0.0318,0.484017 0.0705,0.922032 0.086,0.973368 0.026,0.08601 -0.0349,0.09334 -0.77542,0.09334 h -0.80363 v -1.813397 c 0,-1.415291 -0.0146,-1.813344 -0.0667,-1.813154 -0.0367,1.34e-4 -0.18438,0.231593 -0.32826,0.514353 -0.90454,1.777691 -2.63299,3.027564 -4.63609,3.352443 -0.44644,0.07241 -1.58155,0.09649 -1.98256,0.04207 z m 2.42676,-1.509715 c 0.60102,-0.146654 1.41745,-0.544277 1.96016,-0.954654 0.92498,-0.699434 1.6395,-1.772989 2.09319,-3.144998 0.27629,-0.835537 0.37102,-1.444485 0.41058,-2.639407 l 0.0333,-1.006215 -0.26189,0.03259 c -0.14403,0.01793 -0.7659,0.09319 -1.38192,0.167256 -1.28131,0.154053 -2.76176,0.394529 -3.6509,0.593033 -1.72191,0.38442 -2.94935,1.012988 -3.47508,1.779569 -0.52993,0.772702 -0.65492,2.111256 -0.29406,3.148932 0.4224,1.214599 1.27302,1.922173 2.56653,2.134927 0.43213,0.07107 1.49573,0.01203 2.00008,-0.111035 z"
   id="path16" /><path
   style="fill:#f9f9f9;fill-opacity:1;stroke-width:0.0533352"
   d="m 188.86001,73.286185 c 0,-11.912875 0.005,-12.55826 0.0933,-12.584344 0.17457,-0.05142 1.40138,-0.299706 1.4809,-0.299706 0.0698,0 0.0791,1.509579 0.0791,12.72045 v 12.720449 h -0.8267 -0.82669 z"
   id="path17" /><path
   style="fill:#f9f9f9;fill-opacity:1;stroke-width:0.0533352"
   d="m 201.27413,85.643027 c 0.1421,-1.721922 1.82638,-23.387473 1.82638,-23.493366 v -0.147469 h 1.06251 1.0625 l 0.26723,0.680024 c 1.71984,4.376557 7.48606,19.253706 7.74171,19.974039 0.19043,0.536577 0.36461,0.9467 0.40207,0.9467 0.0652,0 0.17621,-0.290978 0.73285,-1.920068 0.15536,-0.454683 1.93757,-5.068541 3.96047,-10.253017 l 3.678,-9.426322 1.07902,-6.78e-4 c 1.07621,-6.77e-4 1.07909,-3.66e-4 1.10423,0.119326 0.0255,0.121585 1.95222,23.455444 1.95093,23.627502 -6.4e-4,0.08508 -0.0782,0.09334 -0.8769,0.09334 h -0.87619 l -0.0317,-0.28001 c -0.0175,-0.154005 -0.30686,-3.772133 -0.64311,-8.040284 -0.33625,-4.268151 -0.65901,-8.252292 -0.71724,-8.853646 -0.1106,-1.142173 -0.18739,-2.171398 -0.24772,-3.320118 -0.0248,-0.471857 -0.0552,-0.680024 -0.0995,-0.680024 -0.0351,0 -0.18912,0.363431 -0.34237,0.807624 -0.15325,0.444192 -0.40558,1.110216 -0.56073,1.480052 -0.15515,0.369836 -1.88557,4.771195 -3.84538,9.780797 l -3.56329,9.108367 -0.77469,-0.01471 -0.77469,-0.01471 -3.61004,-9.173658 c -1.98552,-5.045512 -3.73014,-9.473668 -3.87693,-9.840348 -0.14679,-0.366679 -0.37903,-1.021526 -0.51608,-1.455215 -0.13706,-0.433688 -0.26851,-0.776584 -0.29212,-0.76199 -0.0236,0.01459 -0.0714,0.501434 -0.10616,1.081868 -0.0955,1.593669 -0.16861,2.5765 -0.21776,2.926689 -0.0243,0.173464 -0.2807,4.125524 -0.56968,8.782355 l -0.52541,8.466966 h -0.90836 -0.90837 z"
   id="path19" /><path
   style="fill:#f9f9f9;fill-opacity:1;stroke-width:0.0533352"
   d="m 234.84344,86.082563 c -2.75053,-0.420227 -4.54831,-1.888967 -5.51592,-4.506346 -0.68213,-1.845141 -0.86194,-4.595585 -0.43811,-6.701362 0.70389,-3.497225 2.82684,-5.863694 5.83889,-6.508656 0.64192,-0.137453 2.23985,-0.137247 2.8801,3.72e-4 0.85892,0.184622 1.71857,0.554532 2.37451,1.021758 1.53365,1.092417 2.45827,3.062521 2.69127,5.734326 0.0599,0.68722 0.0693,1.405543 0.0208,1.586723 l -0.0322,0.120004 h -6.10845 -6.10845 l 0.0304,1.026703 c 0.11953,4.032298 1.77069,6.313428 4.91866,6.795287 1.122,0.171745 2.85338,0.02685 3.9477,-0.330367 0.6731,-0.219724 1.65352,-0.698515 2.27864,-1.112783 0.17855,-0.118324 0.16504,-0.152542 0.28213,0.714744 0.0495,0.36668 0.0993,0.682295 0.11074,0.701366 0.0316,0.05282 -0.83726,0.483607 -1.5257,0.756486 -1.40633,0.557431 -2.31541,0.730947 -3.97347,0.75842 -0.83617,0.01385 -1.31656,-0.0024 -1.67159,-0.05668 z m 6.05528,-11.239918 c -0.15315,-2.803869 -1.51122,-4.670695 -3.73142,-5.12929 -0.5346,-0.110425 -1.62067,-0.110627 -2.16124,-4.02e-4 -1.86787,0.380869 -3.36052,1.801625 -4.03046,3.836313 -0.16506,0.501298 -0.40628,1.536623 -0.40697,1.746729 l -4.8e-4,0.146672 h 5.18167 5.18168 z"
   id="path20" /><path
   style="fill:#f9f9f9;fill-opacity:1;stroke-width:0.0533352"
   d="m 245.92869,77.229396 v -8.613637 h 0.85337 0.85336 l -0.001,0.146671 c -6.4e-4,0.08067 -0.0361,0.758694 -0.0788,1.50672 -0.093,1.627629 -0.0951,1.760063 -0.0282,1.760063 0.0285,0 0.11589,-0.135533 0.19425,-0.301185 0.73641,-1.556633 2.2911,-2.863997 3.89303,-3.2737 0.98441,-0.251772 2.37166,-0.274966 3.26483,-0.05459 1.40959,0.3478 2.48943,1.259676 2.99307,2.527499 0.15099,0.3801 0.34855,1.079756 0.38646,1.368648 0.0135,0.103214 0.0852,-0.0052 0.31709,-0.480017 0.49029,-1.003762 1.02648,-1.685966 1.75887,-2.237837 1.12005,-0.843988 2.27003,-1.263119 3.62121,-1.31982 1.16683,-0.04897 1.9873,0.09969 2.85519,0.517315 1.31941,0.634903 2.17164,1.907428 2.53362,3.783169 0.17758,0.920203 0.2093,2.100905 0.21037,7.830809 l 0.001,5.453526 h -0.85085 -0.85085 l -0.0194,-6.093549 c -0.0174,-5.470512 -0.0289,-6.152861 -0.11218,-6.673649 -0.22756,-1.423169 -0.6746,-2.29125 -1.45428,-2.823986 -1.10469,-0.754798 -2.88698,-0.819361 -4.21291,-0.152613 -1.54323,0.776011 -2.5467,2.264039 -3.11515,4.619361 -0.32974,1.366247 -0.33345,1.433781 -0.35686,6.497606 l -0.0214,4.62683 h -0.81942 -0.81943 l -0.0215,-5.986878 c -0.0232,-6.445272 -0.019,-6.34431 -0.3091,-7.480264 -0.23886,-0.935235 -0.80225,-1.806911 -1.42528,-2.205183 -0.37014,-0.236612 -1.00056,-0.428439 -1.63605,-0.497828 -2.17422,-0.237403 -4.07259,0.975742 -5.0095,3.201307 -0.50086,1.189742 -0.77027,2.377115 -0.88532,3.901859 -0.0303,0.401152 -0.0544,2.568309 -0.0545,4.893506 l -1.3e-4,4.173481 h -0.82669 -0.8267 z"
   id="path21" /><path
   style="fill:#f9f9f9;fill-opacity:1;stroke-width:0.0533352"
   d="m 278.94319,86.108061 c -1.64454,-0.225504 -2.88078,-0.814969 -4.01917,-1.916439 -1.11762,-1.081374 -1.87162,-2.570565 -2.24237,-4.428803 -0.34345,-1.721385 -0.30473,-3.821209 0.10032,-5.440192 0.38557,-1.54114 1.10398,-2.836399 2.16051,-3.895287 0.84915,-0.851036 1.7335,-1.385379 2.94704,-1.780653 0.92636,-0.301734 1.47099,-0.377946 2.6804,-0.375075 1.20487,0.0029 1.7026,0.08183 2.6968,0.427893 1.08884,0.378999 1.85688,0.857356 2.61933,1.631391 1.22426,1.242867 1.99806,3.049659 2.231,5.209299 0.0663,0.614795 0.0827,2.272247 0.0272,2.759553 -0.26726,2.349772 -1.04983,4.197106 -2.36217,5.576149 -1.06773,1.122005 -2.45436,1.872265 -3.9855,2.156436 -0.55583,0.103157 -2.31326,0.149799 -2.85344,0.07573 z m 2.24008,-1.384602 c 1.34288,-0.154016 2.36123,-0.653592 3.28336,-1.61073 0.73711,-0.765093 1.1516,-1.46094 1.48712,-2.496546 0.38113,-1.176376 0.51045,-2.06968 0.50805,-3.509523 -0.005,-2.750765 -0.62299,-4.638512 -1.94995,-5.952477 -0.891,-0.882271 -1.97075,-1.342851 -3.47184,-1.480953 -1.42452,-0.131057 -2.7739,0.178048 -3.89087,0.891292 -0.713,0.455281 -1.5507,1.41613 -2.01007,2.30555 -0.57051,1.104615 -0.87456,2.395377 -0.92637,3.932643 -0.15209,4.513097 1.8128,7.481949 5.23718,7.913113 0.52246,0.06578 1.20034,0.06877 1.73339,0.0076 z"
   id="path22" /><path
   style="fill:#f9f9f9;fill-opacity:1;stroke-width:0.0533352"
   d="m 298.69323,94.272844 c -0.8169,-0.151111 -0.78037,-0.130411 -0.74424,-0.421735 0.0169,-0.13629 0.0471,-0.483712 0.0671,-0.772047 0.0347,-0.50006 0.0415,-0.522778 0.14875,-0.492399 0.0618,0.01752 0.3404,0.06728 0.61907,0.110585 1.95507,0.303806 3.30703,-0.301865 4.42215,-1.981099 0.53264,-0.802085 0.89231,-1.576252 1.55185,-3.340254 l 0.59346,-1.58725 -3.05705,-7.955817 c -1.91626,-4.986957 -3.06314,-7.90474 -3.07337,-7.818945 l -0.0163,0.136871 -0.4637,-0.135202 c -0.64898,-0.189223 -1.5151,-0.197954 -2.09043,-0.02107 -0.92951,0.285768 -1.67358,0.881062 -2.33602,1.868936 -0.65754,0.980567 -1.04216,2.213985 -1.27399,4.085533 -0.071,0.573481 -0.09,1.491311 -0.10925,5.293924 l -0.0233,4.600162 h -0.82215 -0.82214 v -8.613638 -8.613637 h 0.85336 0.85337 l -3.5e-4,0.333345 c -8.8e-4,0.852337 -0.17595,3.534147 -0.2472,3.7868 -0.0159,0.05654 0.003,0.09334 0.0473,0.09334 0.0461,0 0.11898,-0.156885 0.19498,-0.419887 0.28829,-0.997718 0.90375,-2.058456 1.60974,-2.77437 0.78999,-0.801103 1.68681,-1.210444 2.88512,-1.316879 0.44312,-0.03936 1.82371,0.115839 1.77218,0.199216 -0.0153,0.02481 0.2952,0.0451 0.69008,0.0451 h 0.71795 l 0.0527,0.146672 c 0.35403,0.985356 5.31827,14.71414 5.3807,14.880526 0.0468,0.124671 0.11554,0.226675 0.1528,0.226675 0.0373,0 0.10372,-0.102004 0.14769,-0.226675 0.044,-0.124671 0.41511,-1.114706 0.82474,-2.200078 0.40964,-1.085371 1.11091,-2.993439 1.5584,-4.240149 0.44748,-1.246711 1.15526,-3.20278 1.57284,-4.346821 0.41758,-1.14404 0.93377,-2.56609 1.14709,-3.160111 l 0.38786,-1.080039 h 0.90541 c 0.70285,0 0.89951,0.01492 0.87902,0.06667 -0.0145,0.03667 -1.7348,4.518827 -3.82287,9.960352 -2.08807,5.441526 -3.92864,10.205695 -4.09016,10.587041 -0.98416,2.323567 -2.17674,3.867284 -3.53906,4.581053 -0.95939,0.502659 -2.41517,0.716742 -3.50412,0.515306 z"
   id="path23" /><path
   style="fill:#f9f9f9;fill-opacity:1;stroke-width:0.0533352"
   d="m 324.78481,86.076014 c -0.79403,-0.10161 -2.13772,-0.406819 -2.80918,-0.638081 -0.30301,-0.104365 -0.59105,-0.202223 -0.64009,-0.217464 -0.0649,-0.02017 -0.0836,-0.07348 -0.0689,-0.195923 0.0111,-0.09252 0.0498,-0.499052 0.0859,-0.903411 0.0427,-0.47812 0.0855,-0.726185 0.12228,-0.709423 1.83772,0.837023 3.06402,1.172297 4.53675,1.240361 2.35584,0.108876 4.39494,-0.584455 5.46686,-1.858832 0.63736,-0.757733 0.92494,-1.637546 0.9208,-2.817081 -0.005,-1.421431 -0.3286,-2.242917 -1.24114,-3.150534 -0.70194,-0.698151 -1.52499,-1.209448 -4.47983,-2.782972 -2.81633,-1.499768 -3.85702,-2.277736 -4.64311,-3.47097 -0.46386,-0.704107 -0.65216,-1.260049 -0.7495,-2.212874 -0.17575,-1.720218 0.48003,-3.488275 1.74383,-4.701572 1.2093,-1.160973 2.80516,-1.809189 4.86025,-1.974173 1.14837,-0.09219 2.87819,0.07493 4.51182,0.435893 l 0.5231,0.115583 -0.0312,0.190503 c -0.0172,0.104776 -0.052,0.473926 -0.0773,0.820332 -0.0254,0.346406 -0.0554,0.639132 -0.0668,0.650502 -0.0114,0.01137 -0.22959,-0.04953 -0.48495,-0.135341 -1.13977,-0.383008 -2.14159,-0.570069 -3.31934,-0.61979 -2.38348,-0.100623 -4.08963,0.509192 -5.05999,1.808549 -0.36181,0.484487 -0.52739,0.814267 -0.70793,1.409985 -0.1272,0.419726 -0.14231,0.55494 -0.14187,1.269776 7.2e-4,1.17122 0.17708,1.736352 0.79059,2.533423 0.7189,0.933988 1.69902,1.582071 5.35921,3.543663 2.56352,1.373856 3.46932,2.077788 4.26245,3.312503 0.96656,1.504696 1.01104,3.611659 0.1148,5.437602 -0.87536,1.783386 -2.62936,3.03576 -4.88394,3.487176 -1.15319,0.230895 -2.71077,0.283937 -3.89347,0.13259 z"
   id="path24" /><path
   style="fill:#f9f9f9;fill-opacity:1;stroke-width:0.0533352"
   d="m 334.94517,94.260023 c -0.33734,-0.05896 -0.6333,-0.125983 -0.65769,-0.148947 -0.0354,-0.03338 0.0537,-1.487412 0.0941,-1.533705 0.006,-0.0069 0.1773,0.02343 0.38062,0.06743 0.20332,0.044 0.64578,0.09502 0.98326,0.113389 0.81517,0.04437 1.34112,-0.05698 2.0265,-0.390507 0.4306,-0.209542 0.57937,-0.319487 0.99072,-0.732178 0.87905,-0.881898 1.40175,-1.844501 2.29559,-4.227537 l 0.60749,-1.619603 -3.28545,-8.5463 c -1.807,-4.700464 -3.29769,-8.5763 -3.31266,-8.612968 -0.0212,-0.05187 0.18599,-0.06667 0.93353,-0.06667 h 0.96072 l 0.0787,0.226675 c 0.096,0.276431 5.34826,14.802492 5.39969,14.933861 0.0831,0.212143 0.18381,0.04666 0.51961,-0.853363 0.19426,-0.520685 0.51338,-1.366715 0.70916,-1.880067 0.19577,-0.513351 0.86665,-2.349416 1.49083,-4.080144 0.96063,-2.663601 2.03295,-5.62419 2.83492,-7.826943 l 0.18932,-0.520019 h 0.90032 0.90032 l -0.126,0.333346 c -1.34067,3.546911 -7.69902,20.037188 -7.91241,20.520725 -1.11972,2.537217 -2.44546,4.055726 -4.01187,4.595231 -0.46878,0.161456 -0.91381,0.251487 -1.53368,0.310269 -0.71606,0.0679 -0.7114,0.0681 -1.45566,-0.06197 z"
   id="path25" /><path
   style="fill:#f9f9f9;fill-opacity:1;stroke-width:0.0533352"
   d="m 353.66583,86.129444 c -0.78688,-0.09886 -2.06376,-0.408263 -2.64479,-0.640868 l -0.34404,-0.137727 0.0265,-0.247258 c 0.0146,-0.135992 0.0533,-0.535269 0.086,-0.887281 0.0327,-0.352012 0.0637,-0.644462 0.0688,-0.649887 0.005,-0.0054 0.14093,0.07172 0.30173,0.171443 0.97916,0.607207 2.44988,0.984392 3.83916,0.9846 1.54557,2.32e-4 2.60406,-0.343413 3.42137,-1.110761 0.69882,-0.656107 0.98318,-1.365374 0.94293,-2.351941 -0.0178,-0.435392 -0.0455,-0.562847 -0.18902,-0.868833 -0.33734,-0.719187 -1.07672,-1.326632 -2.38855,-1.962335 -0.46935,-0.227444 -1.10537,-0.515164 -1.41338,-0.639377 -1.15221,-0.464658 -2.31003,-1.070349 -2.98414,-1.561097 -0.49716,-0.36193 -1.13093,-1.045915 -1.32257,-1.427352 -0.48941,-0.974141 -0.52586,-2.44123 -0.0876,-3.523683 0.53377,-1.318203 1.88396,-2.364023 3.60148,-2.789599 1.62837,-0.403488 3.38992,-0.304489 5.24036,0.294507 l 0.48853,0.15814 -0.064,0.731177 c -0.0352,0.402147 -0.0658,0.773523 -0.068,0.825281 -0.003,0.08276 -0.043,0.07438 -0.32817,-0.06955 -0.17831,-0.09001 -0.56832,-0.245003 -0.8667,-0.344429 -2.2944,-0.764553 -4.595,-0.522751 -5.73931,0.603223 -0.59351,0.584007 -0.85673,1.234347 -0.85673,2.116737 0,0.886867 0.21897,1.417861 0.81756,1.98254 0.69536,0.655971 1.78098,1.250141 3.34259,1.829441 0.83037,0.308039 1.92819,0.837232 2.47141,1.191317 0.74313,0.484401 1.45116,1.222531 1.76501,1.840052 0.30707,0.60417 0.39511,1.800032 0.1912,2.596984 -0.42673,1.66783 -1.67744,2.90796 -3.54887,3.518858 -0.85122,0.277865 -1.3644,0.354336 -2.50548,0.373354 -0.58669,0.0098 -1.15071,0.0072 -1.25338,-0.0057 z"
   id="path26" /><path
   style="fill:#f9f9f9;fill-opacity:1;stroke-width:0.0533352"
   d="m 368.46636,86.109151 c -1.42511,-0.146697 -2.31308,-0.665475 -2.77192,-1.619446 -0.23914,-0.497196 -0.43325,-1.24805 -0.50606,-1.957502 -0.0349,-0.339863 -0.0555,-2.766577 -0.0555,-6.535167 v -5.994562 h -1.84007 -1.84006 v -0.720025 -0.720026 h 1.83954 1.83955 l 0.0138,-2.54569 0.0138,-2.54569 0.53749,-0.144461 c 0.29562,-0.07945 0.66163,-0.191632 0.81336,-0.249285 l 0.27588,-0.104823 v 2.794975 2.794974 h 2.53342 2.53342 v 0.720026 0.720025 h -2.53342 -2.53342 l 10e-4,5.853541 c 8.5e-4,4.770658 0.0151,5.957141 0.0772,6.41356 0.16736,1.230567 0.45764,1.767481 1.13975,2.108174 0.79547,0.397311 2.21599,0.367164 3.48376,-0.07393 l 0.30161,-0.104939 0.0287,0.168723 c 0.0158,0.0928 0.044,0.38473 0.0626,0.648739 0.0186,0.26401 0.0442,0.517673 0.0569,0.563697 0.0184,0.06696 -0.097,0.111832 -0.57753,0.224589 -1.24605,0.292367 -2.11935,0.384263 -2.89396,0.304527 z"
   id="path27" /><path
   style="fill:#f9f9f9;fill-opacity:1;stroke-width:0.0533352"
   d="m 379.40008,86.130764 c -1.53539,-0.220834 -2.57378,-0.588316 -3.49346,-1.236323 -0.48822,-0.343996 -1.15903,-1.030369 -1.49145,-1.526039 -0.79547,-1.186129 -1.2685,-2.585509 -1.47119,-4.352276 -0.12364,-1.077729 -0.0859,-3.027525 0.0748,-3.866803 0.21972,-1.147427 0.49181,-1.959347 0.97839,-2.919533 0.76301,-1.50568 1.8201,-2.581161 3.21617,-3.272127 1.09984,-0.54435 2.12622,-0.75066 3.46679,-0.696849 1.206,0.04841 2.05386,0.277415 2.97688,0.804048 1.45638,0.830943 2.39009,2.165591 2.88732,4.127156 0.22493,0.887335 0.30326,1.49311 0.33414,2.583994 l 0.0298,1.05337 h -6.14914 -6.14915 l 0.0343,0.920033 c 0.11701,3.143164 1.02117,5.117368 2.83577,6.191819 0.83628,0.495174 1.70464,0.720601 2.94871,0.765482 1.87265,0.06756 3.42133,-0.320829 4.957,-1.243147 0.31194,-0.187347 0.5731,-0.340631 0.58037,-0.340631 0.007,0 0.0287,0.138005 0.0477,0.306678 0.0351,0.31232 0.11364,0.830463 0.16534,1.091018 0.0272,0.137064 9.7e-4,0.158203 -0.52177,0.420532 -1.69709,0.851659 -3.0086,1.168576 -4.95056,1.196263 -0.63069,0.009 -1.21871,0.006 -1.30671,-0.0067 z m 5.70489,-11.128113 c -0.17018,-2.404807 -0.97272,-3.977477 -2.45833,-4.817339 -0.75792,-0.428478 -1.51573,-0.58357 -2.64341,-0.540995 -0.87534,0.03305 -1.1887,0.105291 -1.88974,0.435669 -0.94905,0.447257 -1.64691,1.042512 -2.17363,1.854044 -0.39816,0.613458 -0.5469,0.925693 -0.78191,1.641374 -0.167,0.508585 -0.4247,1.610881 -0.4247,1.816635 0,0.0316 1.95481,0.05063 5.20143,0.05063 h 5.20143 z"
   id="path28" /><path
   style="fill:#f9f9f9;fill-opacity:1;stroke-width:0.0533352"
   d="m 390.09379,77.229396 v -8.613637 h 0.85336 0.85337 l -0.001,0.413348 c -8.1e-4,0.227341 -0.0361,0.953367 -0.0785,1.61339 -0.0424,0.660023 -0.0777,1.242044 -0.0785,1.293379 -0.003,0.180357 0.10523,0.09024 0.26038,-0.217106 1.11164,-2.202159 3.18144,-3.477385 5.64191,-3.476043 2.11537,0.0012 3.64871,0.847892 4.3945,2.426731 0.22032,0.466428 0.47545,1.283446 0.47545,1.522579 0,0.257764 0.0837,0.218848 0.21188,-0.09848 0.79834,-1.976921 2.63489,-3.422656 4.79942,-3.778104 0.62525,-0.102675 1.8006,-0.07401 2.42897,0.05923 2.1046,0.446284 3.2898,1.898011 3.76734,4.614561 0.0425,0.241728 0.0675,2.239822 0.0827,6.600233 l 0.0217,6.253554 h -0.85374 -0.85374 l -0.02,-6.226887 c -0.0213,-6.624672 -0.0147,-6.448099 -0.27778,-7.427517 -0.34092,-1.269165 -1.1359,-2.103528 -2.28403,-2.397171 -0.55033,-0.140751 -1.30145,-0.18617 -1.83987,-0.111255 -2.22513,0.309607 -3.83198,2.15713 -4.51161,5.187362 -0.28147,1.254997 -0.29785,1.611424 -0.29785,6.481649 v 4.493819 h -0.85336 -0.85337 l -1.8e-4,-5.693534 c -1.1e-4,-3.596535 -0.0211,-5.919441 -0.0568,-6.30689 -0.19028,-2.059759 -0.84758,-3.318091 -2.01078,-3.849419 -0.56134,-0.256405 -0.96671,-0.329131 -1.82567,-0.327531 -1.0728,0.002 -1.64902,0.169231 -2.53342,0.735254 -1.13059,0.723586 -1.98334,2.116112 -2.47534,4.042206 -0.36634,1.434165 -0.42917,2.551102 -0.43047,7.653115 l -9.6e-4,3.746799 h -0.8267 -0.82669 z"
   id="path29" /></svg>
