<?xml version="1.0" encoding="UTF-8" standalone="no"?>
<svg
   width="345"
   height="70"
   viewBox="0 0 345 70"
   fill="none"
   version="1.1"
   id="svg60"
   sodipodi:docname="wasm4-w.svg"
   inkscape:version="1.3 (0e150ed6c4, 2023-07-21)"
   xmlns:inkscape="http://www.inkscape.org/namespaces/inkscape"
   xmlns:sodipodi="http://sodipodi.sourceforge.net/DTD/sodipodi-0.dtd"
   xmlns="http://www.w3.org/2000/svg"
   xmlns:svg="http://www.w3.org/2000/svg">
  <defs
     id="defs64" />
  <sodipodi:namedview
     id="namedview62"
     pagecolor="#ffffff"
     bordercolor="#666666"
     borderopacity="1.0"
     inkscape:pageshadow="2"
     inkscape:pageopacity="0.0"
     inkscape:pagecheckerboard="0"
     showgrid="false"
     inkscape:lockguides="true"
     inkscape:zoom="4"
     inkscape:cx="251.75"
     inkscape:cy="94.5"
     inkscape:window-width="3440"
     inkscape:window-height="1377"
     inkscape:window-x="-8"
     inkscape:window-y="760"
     inkscape:window-maximized="1"
     inkscape:current-layer="svg60"
     inkscape:showpageshadow="0"
     inkscape:deskcolor="#d1d1d1" />
  <g
     id="g887"
     transform="matrix(0.73571429,0,0,0.65714285,27.750001,13)">
    <path
       id="rect885"
       style="fill:#688535;fill-opacity:1;fill-rule:evenodd;stroke-width:16.0135;stroke-linecap:square;paint-order:markers stroke fill;stop-color:#000000"
       d="M 3.4771106e-6,-4.7814478e-8 V 70 H 70.000003 V -4.7814478e-8 H 43.028365 A 8.0568492,8.0568484 0 0 1 43.047829,0.39957974 8.0568492,8.0568484 0 0 1 34.991021,8.4563848 8.0568492,8.0568484 0 0 1 26.93422,0.39957974 8.0568492,8.0568484 0 0 1 26.986929,-4.7814478e-8 Z" />
    <rect
       style="fill:#353985;fill-opacity:0.650425;fill-rule:evenodd;stroke-width:9.23473;stroke-linecap:square;paint-order:markers stroke fill;stop-color:#000000"
       id="rect5404"
       width="0.13218075"
       height="0.062055942"
       x="67.762474"
       y="39.274487" />
    <path
       id="rect5406"
       style="fill:#d3e3b7;fill-opacity:1;fill-rule:evenodd;stroke-width:9.23473;stroke-linecap:square;paint-order:markers stroke fill;stop-color:#000000"
       d="m 15.788955,33.636849 v 8.209423 H 7.579532 v 6.511208 h 8.209423 v 8.209422 h 6.511212 V 48.35748 h 8.209422 v -6.511208 h -8.209422 v -8.209423 z" />
    <ellipse
       style="fill:#d3e3b7;fill-opacity:1;fill-rule:evenodd;stroke-width:9.23473;stroke-linecap:square;paint-order:markers stroke fill;stop-color:#000000"
       id="path5553"
       cx="45.893055"
       cy="51.484741"
       rx="5.9514499"
       ry="5.9514494" />
    <ellipse
       style="fill:#d3e3b7;fill-opacity:1;fill-rule:evenodd;stroke-width:9.23473;stroke-linecap:square;paint-order:markers stroke fill;stop-color:#000000"
       id="path5553-6"
       cx="56.566952"
       cy="38.696362"
       rx="5.9514499"
       ry="5.9514494" />
  </g>
  <g
     aria-label="WASM-4"
     transform="matrix(0.95579752,0,0,1.0253363,-25.68996,-12.999999)"
     id="text13293"
     style="font-weight:bold;font-size:62.6307px;line-height:1.25;font-family:Cantarell;-inkscape-font-specification:'Cantarell Bold';text-align:center;letter-spacing:0px;word-spacing:0px;text-anchor:middle;fill:#1a1a1a;fill-opacity:1;stroke-width:2.9358">
    <path
       d="m 128.04523,68.546761 h 8.5804 l 9.45724,-32.818487 10.2088,32.818487 h 8.39252 l 12.6514,-43.465706 h -8.14199 l -8.51778,32.755856 -9.70776,-32.505333 h -8.89356 l -9.3946,33.194271 -8.26725,-33.444794 h -9.20672 z"
       id="path828"
       style="fill:#1a1a1a;fill-opacity:1" />
    <path
       d="m 177.58599,68.546761 h 8.58041 l 3.56995,-10.897742 h 16.65976 l 3.50732,10.897742 h 8.95619 L 203.82826,25.081055 h -10.3967 z m 14.46769,-18.100272 6.01255,-18.413426 6.01255,18.413426 z"
       id="path830"
       style="fill:#1a1a1a;fill-opacity:1" />
    <path
       d="m 235.83245,69.173068 c 10.58458,0 16.97291,-5.260979 16.97291,-13.40297 0,-15.720306 -22.8602,-10.271435 -22.8602,-19.039733 0,-3.319427 3.00627,-5.198348 8.45514,-5.198348 3.56995,0 7.51569,0.688938 10.64722,1.878921 l 2.31734,-6.388331 c -3.69521,-1.628398 -8.20462,-2.567859 -12.52614,-2.567859 -10.33407,0 -17.28607,5.32361 -17.28607,13.528231 0,14.843476 22.79757,9.958282 22.79757,18.78921 0,3.194166 -2.81838,5.135717 -8.14199,5.135717 -3.94573,0 -8.7683,-0.876829 -13.08982,-2.69312 l -2.31733,6.513593 c 4.63467,2.129444 10.02091,3.444689 15.03137,3.444689 z"
       id="path832"
       style="fill:#1a1a1a;fill-opacity:1" />
    <path
       d="m 259.82,68.546761 h 7.82884 V 39.360855 l 11.46142,22.484421 h 6.20044 l 11.64931,-23.29862 v 30.000105 h 7.82883 V 25.081055 h -7.82883 L 282.61758,53.26487 267.7741,25.081055 H 259.82 Z"
       id="path834"
       style="fill:#1a1a1a;fill-opacity:1" />
    <path
       d="m 313.49446,55.707467 h 18.47605 v -6.513592 h -18.47605 z"
       id="path836"
       style="fill:#1a1a1a;fill-opacity:1" />
    <path
       d="m 357.64906,68.985175 h 7.82884 V 59.52794 h 7.70358 v -6.701485 h -7.70358 v -27.7454 h -7.64095 l -20.98128,30.250628 v 4.196257 h 20.79339 z M 345.43608,52.763824 357.64906,34.41303 v 18.350794 z"
       id="path838"
       style="fill:#1a1a1a;fill-opacity:1" />
  </g>
  <path
     style="fill:#ffffff;stroke-width:0.25"
     d="M 96.553812,56.193495 C 95.764408,53.523232 84.75,13.331446 84.75,13.121156 84.75,12.969402 86.35762,12.875 88.941936,12.875 h 4.191936 l 3.847954,16.8125 c 3.307404,14.450732 4.198184,18.09192 4.265904,17.4375 0.007,-0.06875 2.01882,-7.71875 4.47046,-17 l 4.45752,-16.875 4.15342,-0.06851 4.15341,-0.06851 0.37775,1.318505 c 0.20776,0.725178 2.13005,7.618505 4.27175,15.318505 4.99485,17.95784 4.64239,16.77284 4.86412,16.353453 0.10277,-0.1944 1.97291,-7.750328 4.15586,-16.790953 l 3.96901,-16.4375 h 3.68948 c 2.02922,0 3.69145,0.08437 3.69385,0.1875 0.002,0.103125 -2.66948,10.05873 -5.9375,22.123566 l -5.94186,21.936066 -3.92065,0.0014 c -3.51875,0.0013 -3.93391,-0.04342 -4.04998,-0.436067 -0.0711,-0.240625 -2.22742,-7.69375 -4.79175,-16.5625 -2.56433,-8.86875 -4.74817,-16.216324 -4.85296,-16.327943 -0.21271,-0.226551 -0.0726,-0.722272 -5.35597,18.952943 l -3.82652,14.25 -3.99722,0.06849 -3.997214,0.06849 z"
     id="path1" />
  <path
     style="fill:#ffffff;stroke-width:0.25"
     d="m 146.36729,50.9375 c 1.14358,-3.403125 4.12863,-12.20625 6.63345,-19.5625 2.50483,-7.35625 4.94636,-14.530467 5.42563,-15.942705 l 0.87141,-2.567706 4.88898,0.06771 4.88898,0.06771 7.08713,21.995858 c 3.89792,12.097722 7.08713,22.025847 7.08713,22.062499 0,0.03665 -1.84944,0.06664 -4.10987,0.06664 h -4.10987 l -0.62402,-2.0625 c -0.34321,-1.134375 -1.10213,-3.665625 -1.68649,-5.625 l -1.06247,-3.5625 h -8.03659 -8.0366 l -1.71739,5.625 -1.71738,5.625 h -3.93063 -3.93063 z m 23.00001,-12.625 c -0.7354,-2.908438 -5.55055,-18.112124 -5.7423,-18.131106 -0.19582,-0.01938 -5.82628,17.745574 -5.86536,18.506106 -0.005,0.103125 2.63625,0.1875 5.87012,0.1875 h 5.87976 z"
     id="path2" />
  <path
     style="fill:#ffffff;stroke-width:0.25"
     d="m 196.65761,57.609907 c -3.00494,-0.348855 -5.95254,-1.147929 -9.30981,-2.523829 l -1.77719,-0.728343 1.01917,-3.189223 1.01916,-3.189222 2.38303,0.809007 c 3.61636,1.227708 6.21551,1.679636 9.75803,1.696673 3.4768,0.01672 5.1413,-0.38006 6.54333,-1.559797 1.59736,-1.344088 2.11917,-3.742891 1.23675,-5.685516 -0.91059,-2.004664 -2.77961,-3.056017 -8.82211,-4.962567 -9.28854,-2.930758 -12.44503,-6.076364 -12.455,-12.412065 -0.01,-6.337675 4.08585,-11.204971 10.96759,-13.033382 2.32525,-0.617797 7.22884,-0.732809 10.02944,-0.235237 1.89541,0.336751 6.07366,1.583086 6.73296,2.008383 0.40702,0.262559 0.27476,0.835377 -1.01958,4.41602 l -0.7305,2.02081 -1.30394,-0.437665 c -2.51021,-0.842547 -5.28279,-1.277999 -8.30394,-1.30419 -4.58252,-0.03973 -6.9472,0.86002 -8.0625,3.067726 -0.98002,1.939925 -0.65382,4.118249 0.83808,5.596494 1.08447,1.074558 2.53257,1.710146 7.47442,3.280621 6.79709,2.160054 9.76597,3.943637 11.45281,6.880395 1.93209,3.36373 1.8811,8.786862 -0.11789,12.537342 -2.76571,5.18902 -9.55431,7.876088 -17.55231,6.947565 z"
     id="path3" />
  <path
     style="fill:#ffffff;stroke-width:0.25"
     d="M 222.75,35 V 12.875 h 3.70773 3.70774 l 7.01742,14.30422 c 3.85959,7.86732 7.11298,14.334418 7.22977,14.371325 0.11679,0.03691 3.26012,-6.371866 6.98518,-14.24172 L 258.17069,13 261.83535,12.930817 265.5,12.861633 V 34.993317 57.125 h -3.62309 -3.62309 L 258.18941,41.6875 258.125,26.25 252.5,38.316542 246.875,50.383082 244.02356,50.316542 241.17212,50.25 235.8282,39.004637 c -2.93916,-6.184949 -5.45289,-11.354324 -5.58606,-11.4875 C 230.08595,27.360954 230,32.573095 230,42.2 v 14.925 h -3.625 -3.625 z"
     id="path4" />
  <path
     style="fill:#ffffff;stroke-width:0.25"
     d="m 274,40.75 v -3.125 h 8.75 8.75 v 3.125 3.125 H 282.75 274 Z"
     id="path5" />
  <path
     style="fill:#ffffff;stroke-width:0.25"
     d="m 316.25,52.75 v -4.875 h -9.875 -9.875 v -2.107483 -2.107485 l 9.9375,-15.385303 9.9375,-15.385304 3.5625,-0.0072 3.5625,-0.0072 v 14.25 14.25 h 3.625 3.625 v 3.25 3.25 h -3.625 -3.625 v 4.875 4.875 h -3.625 -3.625 z m 0,-21.175 c 0,-5.497187 -0.0932,-9.44921 -0.21955,-9.3125 -0.12075,0.130625 -2.72316,4.2875 -5.78314,9.2375 -3.05997,4.95 -5.67495,9.140625 -5.81106,9.3125 -0.19656,0.248203 0.99333,0.3125 5.78314,0.3125 H 316.25 Z"
     id="path6" />
</svg>
