<?xml version="1.0" encoding="UTF-8" standalone="no"?>
<svg
   width="492"
   height="95"
   version="1"
   viewBox="0 0 114 22"
   id="svg28"
   sodipodi:docname="wiiware-w.svg"
   inkscape:version="1.2.1 (9c6d41e410, 2022-07-14)"
   xmlns:inkscape="http://www.inkscape.org/namespaces/inkscape"
   xmlns:sodipodi="http://sodipodi.sourceforge.net/DTD/sodipodi-0.dtd"
   xmlns="http://www.w3.org/2000/svg"
   xmlns:svg="http://www.w3.org/2000/svg">
  <defs
     id="defs32" />
  <sodipodi:namedview
     id="namedview30"
     pagecolor="#ffffff"
     bordercolor="#000000"
     borderopacity="0.25"
     inkscape:showpageshadow="2"
     inkscape:pageopacity="0.0"
     inkscape:pagecheckerboard="0"
     inkscape:deskcolor="#d1d1d1"
     showgrid="false"
     inkscape:zoom="2.4593496"
     inkscape:cx="246"
     inkscape:cy="47.573554"
     inkscape:window-width="1920"
     inkscape:window-height="1027"
     inkscape:window-x="-8"
     inkscape:window-y="760"
     inkscape:window-maximized="1"
     inkscape:current-layer="svg28" />
  <style
     id="style2">.s0{fill:#9f9fa0;stroke-width:1;}.s1{fill:#22b2e9;stroke-width:1;}</style>
  <g
     transform="matrix(.024049 0 0 .024049 1.1579 .69474)"
     id="g24">
    <path
       class="A s0"
       d="m1215 96c0 53 45 96 99 96 57 0 102-42 102-96s-45-96-102-96c-55 0-99 43-99 96"
       id="path4" />
    <rect
       class="A s0"
       x="1231"
       y="288"
       width="170"
       height="549"
       id="rect6" />
    <path
       class="A s0"
       d="m1560 96c0 53 45 96 99 96 57 0 102-42 102-96s-45-96-102-96c-55 0-99 43-99 96"
       id="path8" />
    <rect
       class="A s0"
       x="1576"
       y="288"
       width="170"
       height="549"
       id="rect10" />
    <path
       class="A s0"
       d="m962 46-149 583s-114-437-132-499c-18-63-57-90-110-90-54 0-93 27-111 90-19 62-132 499-132 499l-149-583h-179s172 622 195 694c18 56 61 102 125 102 73 0 107-53 123-102s127-459 127-459 111 411 127 459c16 49 50 102 123 102 64 0 107-46 125-102 23-72 195-694 195-694zM2480 577 2480 577"
       id="path12" />
    <path
       class="B s1"
       d="m2480 577c-23 110-124 274-305 273-90 0-139-40-164-73-57-76-40-180-37-200l94-532 169 1-94 533v2c-2 13-5 54 11 76 4 4 14 18 51 19 74 1 99-72 107-105l49-280 43-246h169l-94 532v-2l51-287v-2"
       id="path14" />
    <path
       class="B s1"
       d="m2311 577c-15 110 27 274 209 273 90 0 153-40 189-73 83-76 104-180 107-200l94-532-169 1-94 533v2c-2 13-14 54-38 76-5 4-20 18-58 19-74 1-74-72-70-105l49-279 43-245h-169l-94 532v-2l51-287 1-2"
       id="path16" />
    <path
       class="B s1"
       d="m3215 820c-36 22-73 30-119 30-111 0-237-106-200-309 32-177 179-311 348-311 165 0 284 100 250 287l-58 318h-175l49-272c19-104 4-168-90-168-82 0-136 71-149 141-16 92 26 136 91 136 32 0 61-7 82-15z"
       id="path18" />
    <path
       class="B s1"
       d="m3920 280c-48 0-91 13-131 38l15-84h-175l-110 603h175l58-320c13-33 47-82 139-82h124l28-155h-123"
       id="path20" />
    <path
       class="B s1"
       d="m4205 535c-23 132 42 176 112 176 60 0 105-30 143-72l111 94c-71 74-175 117-270 117-182 0-307-121-273-310 33-188 180-310 362-310 146 0 276 121 243 310l-10 57h-373l22-124h192c12-61-26-112-92-112-80 0-142 42-165 174"
       id="path22" />
  </g>
  <style
     type="text/css"
     id="style26">.A{fill:#9F9FA0;}.B{fill:#22B2E9;}</style>
  <path
     style="fill:#ffffff;stroke-width:0.406612"
     d="M 34.466041,89.68313 C 31.525906,88.735644 28.079179,85.545959 26.529913,82.338843 25.48937,80.184826 22.106564,68.521645 12.613676,34.358678 8.7919436,20.605041 5.5674391,9.0318595 5.4481104,8.6404959 5.245981,7.9775695 5.8521415,7.9289256 14.315115,7.9289256 h 9.083965 l 7.716163,30.2882234 c 4.243889,16.658522 7.80765,30.289252 7.919468,30.290505 0.111818,0.0012 1.370891,-4.525433 2.797941,-10.059298 3.74058,-14.505366 10.04693,-38.283581 11.019627,-41.549712 1.093085,-3.670378 2.979043,-6.411435 5.463961,-7.9413405 1.724903,-1.0619829 2.468762,-1.2515021 5.398899,-1.3755254 3.035648,-0.1284891 3.639014,-0.026104 5.653039,0.9592667 2.322622,1.1363532 4.179015,3.1792092 5.329393,5.8646972 0.572814,1.337192 5.854511,20.892294 11.731313,43.434335 1.530392,5.870227 2.901259,10.536095 3.04637,10.368595 0.232741,-0.268644 15.430536,-59.3915103 15.430536,-60.0282794 0,-0.1383069 4.08951,-0.251467 9.0878,-0.251467 h 9.08782 l -6.25599,22.4652894 c -10.61118,38.10479 -13.94475,49.629028 -14.9706,51.753691 -1.51924,3.146515 -3.595508,5.295014 -6.497734,6.723778 -2.38459,1.173928 -2.867649,1.267636 -5.77715,1.120691 -2.031187,-0.102588 -3.760905,-0.445025 -4.801424,-0.950552 -2.339533,-1.136642 -4.720467,-3.6912 -6.038015,-6.478327 C 77.574998,80.098019 74.464294,69.344977 68.089071,45.743802 66.125768,38.47562 64.400332,32.389322 64.254773,32.218694 64.10921,32.048067 62.562968,37.171373 60.818678,43.603818 54.374616,67.367653 50.771241,80.000814 49.830138,82.128816 c -1.172387,2.650977 -3.873008,5.669934 -6.101118,6.820287 -1.821163,0.940253 -7.280579,1.372871 -9.262979,0.734027 z"
     id="path436"
     transform="matrix(0.23170732,0,0,0.23170732,0,-0.00609756)" />
  <path
     style="fill:#ffffff;stroke-width:0.406612"
     d="M 132.96198,61.398347 V 33.138843 h 8.53885 8.53884 v 28.259504 28.259504 h -8.53884 -8.53885 z"
     id="path438"
     transform="matrix(0.23170732,0,0,0.23170732,0,-0.00609756)" />
  <path
     style="fill:#ffffff;stroke-width:0.406612"
     d="m 137.22238,21.82708 c -3.75257,-1.752718 -5.64803,-4.710281 -5.66897,-8.845527 -0.0127,-2.506634 0.14408,-3.1337306 1.21987,-4.8793389 3.08266,-5.0020273 9.65808,-6.2900605 14.71674,-2.882804 4.19381,2.8247334 5.39051,8.4091119 2.72568,12.7193739 -0.7466,1.207585 -1.98044,2.43751 -3.20445,3.194268 -1.68304,1.040552 -2.46626,1.248137 -5.0719,1.344247 -2.34344,0.08644 -3.47321,-0.0693 -4.71697,-0.650219 z"
     id="path440"
     transform="matrix(0.23170732,0,0,0.23170732,0,-0.00609756)" />
  <path
     style="fill:#ffffff;stroke-width:0.406612"
     d="m 173.01322,21.8142 c -7.45514,-3.560446 -7.80215,-13.3877213 -0.61094,-17.3016702 5.50495,-2.9961666 13.03697,-0.069268 14.65031,5.6930192 1.17208,4.18624 -0.56538,8.643559 -4.25953,10.927503 -1.68303,1.040552 -2.46625,1.248137 -5.07189,1.344247 -2.36867,0.08737 -3.45774,-0.06602 -4.70795,-0.663099 z"
     id="path442"
     transform="matrix(0.23170732,0,0,0.23170732,0,-0.00609756)" />
  <path
     style="fill:#ffffff;stroke-width:0.406612"
     d="M 168.7438,61.398347 V 33.138843 h 8.53884 8.53885 v 28.259504 28.259504 h -8.53885 -8.53884 z"
     id="path444"
     transform="matrix(0.23170732,0,0,0.23170732,0,-0.00609756)" />
  <path
     style="fill:#ffffff;stroke-width:0.406612"
     d="M 223.76159,90.099415 C 214.90524,87.565587 209.7584,79.91397 209.70937,69.208506 c -0.0153,-3.335496 0.79979,-8.630156 5.02297,-32.629303 l 5.04121,-28.6477289 8.60243,-0.00127 c 7.98402,-0.00118 8.59075,0.04988 8.43986,0.710296 -0.0894,0.3913636 -2.29689,12.7879339 -4.90551,27.5479339 -4.93845,27.942607 -5.32071,31.13761 -4.07622,34.070508 1.82035,4.290028 9.78396,4.06847 13.69055,-0.38089 2.73242,-3.112054 2.96041,-4.054031 8.15934,-33.711575 2.70194,-15.41334 4.96433,-28.0759627 5.02753,-28.1391609 0.0632,-0.063198 3.94375,-0.065445 8.62346,-0.00499 l 8.50856,0.1099127 -4.78716,27.0396692 c -3.78445,21.376025 -4.76571,27.678428 -4.68479,30.089256 0.13199,3.932597 1.1091,5.906053 3.58386,7.238239 1.54548,0.831944 2.17978,0.937923 4.51239,0.753915 1.49277,-0.117759 3.26031,-0.496546 3.92786,-0.841755 1.69069,-0.874288 3.60012,-3.312283 4.52151,-5.773153 0.42812,-1.14342 3.01853,-14.820817 5.75646,-30.394213 l 4.97807,-28.315264 h 8.46669 c 6.96656,0 8.46668,0.1003745 8.46668,0.566513 0,0.3115822 -2.18962,12.982615 -4.86583,28.157851 -5.31864,30.158968 -6.08143,33.308854 -9.40548,38.839556 -6.13963,10.215392 -14.79507,15.38484 -25.75954,15.38484 -6.50582,0 -10.49658,-1.378482 -14.74179,-5.092086 l -2.02322,-1.769867 -1.99628,1.432436 c -3.01591,2.164068 -6.41806,3.771314 -9.83024,4.644 -4.0002,1.02308 -10.63872,1.026467 -14.20115,0.0072 z"
     id="path446"
     transform="matrix(0.23170732,0,0,0.23170732,0,-0.00609756)" />
  <path
     style="fill:#ffffff;stroke-width:0.406612"
     d="M 320.40053,89.952311 C 306.19063,85.107156 301.05113,67.7624 308.60814,50.15547 c 4.61727,-10.757671 13.92331,-19.036026 24.69893,-21.97138 4.49279,-1.223867 12.81704,-1.222912 17.31428,0.002 8.20675,2.235239 13.75954,7.114296 16.22993,14.260692 0.78792,2.279329 0.92587,3.489296 0.90903,7.973068 -0.0181,4.817243 -0.29753,6.776622 -3.15124,22.097338 -1.72226,9.246266 -3.13138,16.885481 -3.13138,16.976033 0,0.09056 -4.03779,0.164645 -8.97286,0.164645 -8.35538,0 -8.95824,-0.04897 -8.76054,-0.71157 0.11677,-0.391364 1.40993,-7.397041 2.87368,-15.568173 2.74276,-15.310988 3.203,-20.178484 2.23686,-23.657216 -1.69223,-6.093133 -10.88159,-7.855068 -17.62464,-3.379285 -6.09122,4.043123 -9.45607,13.374639 -7.36356,20.420884 1.61109,5.425127 8.07757,7.569467 15.80941,5.242526 1.39406,-0.41955 1.89042,-0.449505 1.7603,-0.106235 -0.0997,0.262943 -0.79539,3.999443 -1.54604,8.303333 l -1.36481,7.825256 -1.84043,0.872438 c -4.7006,2.228264 -11.53985,2.6703 -16.28453,1.052502 z"
     id="path448"
     transform="matrix(0.23170732,0,0,0.23170732,0,-0.00609756)" />
  <path
     style="fill:#ffffff;stroke-width:0.406612"
     d="m 370.62446,88.742975 c 0.11925,-0.503182 2.59412,-13.997603 5.49972,-29.987603 2.90559,-15.99 5.3877,-29.575909 5.5158,-30.190909 l 0.2329,-1.118182 h 8.85912 8.85912 l -0.75653,4.136553 c -0.41609,2.275104 -0.68056,4.212523 -0.5877,4.305375 0.0928,0.09285 1.34511,-0.392569 2.7828,-1.078715 4.42175,-2.110307 7.07411,-2.515109 15.66642,-2.391002 l 7.64573,0.110434 -1.4108,7.827272 -1.41079,7.827273 h -8.22473 c -7.0901,0 -8.58983,0.112766 -10.87123,0.817419 -3.26406,1.008165 -6.2223,3.515744 -7.49957,6.357078 -0.56712,1.261575 -1.85857,7.405218 -3.57754,17.018892 -1.47952,8.274545 -2.79011,15.547809 -2.91241,16.162809 l -0.22237,1.118182 h -8.90238 -8.90237 z"
     id="path450"
     transform="matrix(0.23170732,0,0,0.23170732,0,-0.00609756)" />
  <path
     style="fill:#ffffff;stroke-width:0.406612"
     d="m 443.69327,90.280748 c -9.7288,-2.204079 -16.69827,-7.956067 -19.61303,-16.186857 -1.25729,-3.550345 -1.55713,-11.113959 -0.62331,-15.722597 1.73858,-8.580246 4.96515,-14.632279 10.95941,-20.556418 4.66987,-4.615244 8.10429,-6.765714 13.88913,-8.696701 11.42358,-3.813208 22.11404,-2.099665 29.97814,4.805112 2.14927,1.887078 5.32878,6.812653 6.35036,9.837704 1.57192,4.654712 1.89673,8.888142 1.10583,14.41263 -0.38199,2.668145 -0.79632,5.262867 -0.92074,5.766048 l -0.22623,0.914876 h -19.06666 c -14.98432,0 -19.06584,-0.108823 -19.0628,-0.508264 0.002,-0.279545 0.45957,-2.96094 1.01653,-5.958654 0.55696,-2.997714 1.01266,-5.605111 1.01266,-5.794215 0,-0.189104 4.46332,-0.343825 9.91848,-0.343825 10.83353,0 10.4121,0.0971 10.4121,-2.399125 0,-2.466106 -1.18797,-5.193554 -2.98266,-6.847838 -2.36406,-2.179115 -4.05782,-2.677002 -8.40056,-2.469374 -8.39869,0.401547 -13.00352,5.19673 -15.675,16.322987 -2.82665,11.772449 0.77977,19.095836 9.87175,20.046136 4.78476,0.500108 9.96792,-1.395979 14.07364,-5.148377 l 2.2909,-2.093753 5.39196,4.589713 c 2.96557,2.524343 5.48344,4.663656 5.59526,4.754034 0.28992,0.234326 -3.03322,3.098868 -5.84755,5.040593 -3.07491,2.121508 -8.17051,4.503003 -12.04336,5.628622 -3.96734,1.153081 -13.52378,1.486673 -17.40425,0.607543 z"
     id="path452"
     transform="matrix(0.23170732,0,0,0.23170732,0,-0.00609756)" />
</svg>
