<svg width="492" height="95" version="1" viewBox="0 0 114 22" xmlns="http://www.w3.org/2000/svg"><style>.s0{fill:#9f9fa0;stroke-width:1;}.s1{fill:#22b2e9;stroke-width:1;}</style><g transform="matrix(.024049 0 0 .024049 1.1579 .69474)"><path class="A s0" d="m1215 96c0 53 45 96 99 96 57 0 102-42 102-96s-45-96-102-96c-55 0-99 43-99 96"/><rect class="A s0" x="1231" y="288" width="170" height="549"/><path class="A s0" d="m1560 96c0 53 45 96 99 96 57 0 102-42 102-96s-45-96-102-96c-55 0-99 43-99 96"/><rect class="A s0" x="1576" y="288" width="170" height="549"/><path class="A s0" d="m962 46-149 583s-114-437-132-499c-18-63-57-90-110-90-54 0-93 27-111 90-19 62-132 499-132 499l-149-583h-179s172 622 195 694c18 56 61 102 125 102 73 0 107-53 123-102s127-459 127-459 111 411 127 459c16 49 50 102 123 102 64 0 107-46 125-102 23-72 195-694 195-694zM2480 577 2480 577"/><path class="B s1" d="m2480 577c-23 110-124 274-305 273-90 0-139-40-164-73-57-76-40-180-37-200l94-532 169 1-94 533v2c-2 13-5 54 11 76 4 4 14 18 51 19 74 1 99-72 107-105l49-280 43-246h169l-94 532v-2l51-287v-2"/><path class="B s1" d="m2311 577c-15 110 27 274 209 273 90 0 153-40 189-73 83-76 104-180 107-200l94-532-169 1-94 533v2c-2 13-14 54-38 76-5 4-20 18-58 19-74 1-74-72-70-105l49-279 43-245h-169l-94 532v-2l51-287 1-2"/><path class="B s1" d="m3215 820c-36 22-73 30-119 30-111 0-237-106-200-309 32-177 179-311 348-311 165 0 284 100 250 287l-58 318h-175l49-272c19-104 4-168-90-168-82 0-136 71-149 141-16 92 26 136 91 136 32 0 61-7 82-15z"/><path class="B s1" d="m3920 280c-48 0-91 13-131 38l15-84h-175l-110 603h175l58-320c13-33 47-82 139-82h124l28-155h-123"/><path class="B s1" d="m4205 535c-23 132 42 176 112 176 60 0 105-30 143-72l111 94c-71 74-175 117-270 117-182 0-307-121-273-310 33-188 180-310 362-310 146 0 276 121 243 310l-10 57h-373l22-124h192c12-61-26-112-92-112-80 0-142 42-165 174"/></g><style type="text/css">.A{fill:#9F9FA0;}.B{fill:#22B2E9;}</style></svg>
