<?xml version="1.0" encoding="UTF-8" standalone="no"?>
<svg
   version="1.2"
   width="566.929"
   height="98.441"
   xml:space="preserve"
   id="svg2"
   sodipodi:docname="zmachine-w.svg"
   inkscape:version="1.3 (0e150ed6c4, 2023-07-21)"
   xmlns:inkscape="http://www.inkscape.org/namespaces/inkscape"
   xmlns:sodipodi="http://sodipodi.sourceforge.net/DTD/sodipodi-0.dtd"
   xmlns="http://www.w3.org/2000/svg"
   xmlns:svg="http://www.w3.org/2000/svg"><defs
   id="defs2" /><sodipodi:namedview
   id="namedview2"
   pagecolor="#ffffff"
   bordercolor="#111111"
   borderopacity="1"
   inkscape:showpageshadow="0"
   inkscape:pageopacity="0"
   inkscape:pagecheckerboard="1"
   inkscape:deskcolor="#d1d1d1"
   inkscape:zoom="6.9098096"
   inkscape:cx="359.05476"
   inkscape:cy="38.785439"
   inkscape:window-width="3440"
   inkscape:window-height="1377"
   inkscape:window-x="-8"
   inkscape:window-y="760"
   inkscape:window-maximized="1"
   inkscape:current-layer="svg2" />&#10;    <path
   fill="#707070"
   d="M12 98.442c-6.627 0-12-5.373-12-12V31.906c0-6.628 5.373-12 12-12s12 5.371 12 12v54.535c0 6.628-5.373 12.001-12 12.001zM174.735 48.034h-36.223v-6.528h36.223c5.964 0 10.799-4.835 10.799-10.799 0-5.965-4.835-10.8-10.799-10.8h-49.423c-5.965 0-10.8 4.835-10.8 10.8v55.735c0 6.627 5.373 12 12 12s12-5.373 12-12v-16.81h36.223c5.964 0 10.799-4.835 10.799-10.8.001-5.963-4.834-10.798-10.799-10.798zM540.859 82.934l-15.535-54.18a11.866 11.866 0 0 0-5.787-7.194 10.737 10.737 0 0 0-5.723-1.652h-57a10.9 10.9 0 0 0-1.105.056c-6.107.56-10.895 5.688-10.895 11.944v54.535c0 6.627 5.371 12 12 12 6.627 0 12-5.373 12-12V41.506h5.314v44.938c0 6.627 5.373 12 12 12 6.625 0 11.998-5.373 11.998-12V41.506h6.041l13.766 48.002c1.5 5.233 6.271 8.644 11.457 8.644 1.088 0 2.193-.149 3.293-.465 6.33-1.819 9.992-8.422 8.176-14.753zM250.508 19.907h-40.751c-11.338 0-20.615 9.276-20.615 20.614v37.306c0 11.338 9.277 20.614 20.615 20.614h40.751c11.339 0 20.615-9.276 20.615-20.614V40.522c0-11.338-9.276-20.615-20.615-20.615zm-2.65 53.848c0 1.32-1.08 2.4-2.4 2.4h-30.652c-1.32 0-2.4-1.08-2.4-2.4V44.593a2.407 2.407 0 0 1 2.4-2.398h30.652c1.32 0 2.4 1.08 2.4 2.398v29.162zM419.322 19.907H378.57c-11.336 0-20.615 9.276-20.615 20.614v37.306c0 11.338 9.279 20.614 20.615 20.614h40.752c11.338 0 20.613-9.276 20.613-20.614V40.522c0-11.338-9.275-20.615-20.613-20.615zm-2.651 53.848c0 1.32-1.08 2.4-2.398 2.4h-30.652c-1.32 0-2.4-1.08-2.4-2.4V44.593a2.407 2.407 0 0 1 2.4-2.398h30.652a2.406 2.406 0 0 1 2.398 2.398v29.162zM105.464 19.907H34.742a5.44 5.44 0 0 0-5.441 5.44v61.095c0 6.627 5.373 12 12 12s11.861-5.373 11.861-12V44.583a2.407 2.407 0 0 1 2.4-2.398h28.855c1.32 0 2.488 1.08 2.488 2.398v41.858c0 6.627 5.373 12 12 12s12-5.373 12-12V25.348a5.441 5.441 0 0 0-5.441-5.441zM345.042 76.156h-42.9c-1.32 0-2.4-1.08-2.4-2.4V44.593a2.407 2.407 0 0 1 2.4-2.398h42.9c6.152 0 11.145-4.988 11.145-11.145 0-6.153-4.99-11.144-11.145-11.144h-48.664c-11.279 0-20.507 9.228-20.507 20.507v37.521c0 11.276 9.228 20.507 20.507 20.507h48.664c6.152 0 11.145-4.988 11.145-11.146 0-6.154-4.99-11.139-11.145-11.139z"
   id="path1" />&#10;    <g
   fill="#707070"
   id="g2">&#10;        <path
   d="M541.027 11.729h-4.131V8.826h11.752v2.903h-4.176v12.387h-3.445V11.729zM563.324 18.263c-.07-1.84-.139-4.038-.139-6.285h-.045a96.867 96.867 0 0 1-1.725 5.921l-1.859 5.967h-2.701l-1.633-5.898c-.5-1.813-.998-3.97-1.385-5.987h-.045a443.855 443.855 0 0 1-.248 6.33l-.297 5.809h-3.197l.977-15.29h4.604l1.496 5.127c.5 1.747.955 3.651 1.295 5.444h.09a92.47 92.47 0 0 1 1.451-5.489l1.611-5.082h4.539l.814 15.29h-3.355l-.248-5.857z"
   id="path2" />&#10;    </g>&#10;<path
   style="fill:#f9f9f9;fill-opacity:1;stroke-width:0.204668"
   d="M 9.4796199,98.035128 C 5.1315588,97.089967 1.6931051,93.754603 0.45493909,89.281019 0.12896178,88.103239 0.10233376,85.835454 0.10233376,59.251246 c 0,-27.09005 0.0214767,-28.839505 0.37075524,-30.201025 1.1383941,-4.437568 4.7458532,-7.829971 9.3702036,-8.811606 5.0126414,-1.064059 10.5809394,1.792448 12.8692734,6.601867 1.293716,2.719021 1.25233,1.565791 1.18884,33.1271 l -0.05764,28.653452 -0.47756,1.330339 c -0.737729,2.055085 -1.621855,3.460199 -3.090746,4.91202 -2.876649,2.843221 -6.886976,4.021424 -10.7958391,3.171735 z"
   id="path3" /><path
   style="fill:#f9f9f9;fill-opacity:1;stroke-width:0.204668"
   d="M 38.742107,98.034115 C 34.400475,97.090579 30.586639,93.268513 29.696637,88.969128 29.539282,88.208985 29.47272,78.352064 29.474122,56.017658 l 0.002,-31.866891 0.477238,-1.024828 c 0.521297,-1.11944 1.634604,-2.215678 2.778559,-2.735957 0.664679,-0.302302 4.026822,-0.337476 36.946566,-0.386522 31.632855,-0.04713 36.348455,-0.01526 37.267325,0.251864 1.3805,0.401321 2.77433,1.635186 3.34455,2.960691 l 0.44095,1.025011 -0.0543,32.394671 -0.0543,32.394672 -0.45811,1.21412 c -1.74755,4.631448 -5.69487,7.662762 -10.45645,8.02995 C 93.963374,98.71745 88.494666,94.555905 87.291596,88.825701 87.038137,87.618495 86.989766,83.978839 86.98423,65.698272 86.979101,48.760846 86.921567,43.892662 86.721861,43.497991 86.58117,43.21995 86.154457,42.782473 85.773607,42.52582 l -0.692455,-0.466646 -15.063961,7.66e-4 c -14.748204,7.49e-4 -15.078165,0.0094 -15.74145,0.413815 -1.330918,0.811439 -1.266855,-0.386361 -1.266855,23.686611 0,18.856972 -0.04263,22.030719 -0.310077,23.082837 -1.60095,6.298098 -7.712897,10.147833 -13.956702,8.790912 z"
   id="path4" /><path
   style="fill:#f9f9f9;fill-opacity:1;stroke-width:0.204668"
   d="m 124.33552,98.133569 c -2.41783,-0.485306 -4.90608,-1.904536 -6.60507,-3.767344 -1.31442,-1.441164 -2.60255,-4.030869 -2.90859,-5.847525 -0.15712,-0.932662 -0.20641,-10.10983 -0.16491,-30.700127 l 0.0592,-29.369788 0.55446,-1.383625 c 1.40725,-3.511697 4.37192,-6.06484 7.91427,-6.815693 2.01191,-0.426452 51.66093,-0.426452 53.67283,0 1.82597,0.387039 3.69549,1.365663 5.04662,2.641711 1.43063,1.351126 2.17974,2.447543 2.85181,4.173982 0.74398,1.911141 0.79173,5.03069 0.10735,7.011981 -1.20903,3.50016 -4.37412,6.304138 -7.97809,7.067853 -1.14125,0.241841 -4.62966,0.293692 -19.95657,0.296625 l -18.57358,0.0036 v 3.377014 3.377014 h 18.99693 c 16.87884,0 19.12088,0.0368 20.10859,0.330014 3.86364,1.146989 6.7724,4.140454 7.65287,7.875735 1.31889,5.595229 -2.15827,11.302604 -7.77773,12.766287 -1.03832,0.270446 -3.7912,0.313385 -20.09192,0.313385 h -18.88874 v 9.269372 c 0,10.185354 -0.0284,10.478362 -1.2654,13.039387 -0.89794,1.859104 -3.44908,4.375776 -5.36599,5.293486 -2.31799,1.10973 -5.10631,1.504751 -7.38833,1.046703 z"
   id="path5" /><path
   style="fill:#f9f9f9;fill-opacity:1;stroke-width:0.204668"
   d="m 206.30814,98.028717 c -8.38585,-1.516966 -14.98524,-8.006003 -16.68168,-16.402732 -0.28503,-1.410763 -0.31644,-4.166535 -0.26437,-23.19341 l 0.0591,-21.592422 0.57558,-1.842008 c 2.29682,-7.350303 7.80549,-12.590947 15.22192,-14.481295 l 1.8025,-0.459434 h 22.92276 c 21.37287,0 23.04039,0.02513 24.66244,0.371652 4.80385,1.026259 9.26282,3.88983 12.32845,7.917383 1.3037,1.712774 2.87238,4.949547 3.47168,7.163363 l 0.47094,1.739674 v 21.899424 21.899424 l -0.47357,1.739674 c -2.17416,7.986959 -8.54613,13.845274 -16.59181,15.254326 -2.43311,0.426112 -45.14077,0.413868 -47.50394,-0.01362 z m 40.45665,-22.189216 c 1.2465,-0.760041 1.1899,0.03381 1.1899,-16.690589 0,-14.892732 -0.0119,-15.367665 -0.4,-15.940822 -0.79772,-1.178152 -0.35396,-1.148944 -17.45066,-1.148598 -17.5692,3.56e-4 -16.75437,-0.06631 -17.50743,1.432355 -0.3353,0.667273 -0.35633,1.756166 -0.307,15.897983 0.0525,15.052964 0.0566,15.186545 0.48201,15.759399 0.23599,0.317762 0.65044,0.69152 0.92101,0.830569 0.37792,0.194221 4.19199,0.25334 16.456,0.255069 15.44916,0.0022 15.9851,-0.01057 16.61617,-0.395366 z"
   id="path6" /><path
   style="fill:#f9f9f9;fill-opacity:1;stroke-width:0.204668"
   d="m 292.86052,98.024688 c -1.70405,-0.308545 -4.01769,-1.085098 -5.60966,-1.882835 -4.33679,-2.173162 -8.31413,-6.609727 -9.93171,-11.078415 -1.38668,-3.830838 -1.32501,-2.624589 -1.32501,-25.914526 0,-16.653876 0.0565,-21.338631 0.26896,-22.308759 1.96053,-8.951272 8.50937,-15.255287 17.23012,-16.585973 2.92254,-0.445947 51.60606,-0.43676 53.72522,0.01014 2.2028,0.464538 3.87962,1.387445 5.54299,3.050811 2.53008,2.530084 3.67985,5.840085 3.19684,9.203226 -0.57524,4.005366 -3.41702,7.494639 -7.30716,8.972094 l -1.228,0.466391 -23.0251,0.102333 c -18.49389,0.08219 -23.11787,0.155251 -23.49655,0.37123 -0.2593,0.147893 -0.65038,0.562345 -0.86907,0.921004 -0.38422,0.63013 -0.39764,1.161515 -0.39838,15.766572 -6.8e-4,13.341252 0.0371,15.194275 0.32205,15.794751 0.66568,1.402828 -0.71311,1.325918 23.77012,1.325918 15.081,0 22.47195,0.07086 23.30117,0.223401 3.80061,0.69914 7.21272,3.710919 8.5139,7.514988 0.61201,1.78924 0.65169,4.716448 0.0865,6.38367 -1.32866,3.919551 -4.35936,6.780094 -8.12345,7.667369 -1.13252,0.266958 -4.80386,0.306543 -27.19968,0.293272 -21.02171,-0.01246 -26.18262,-0.06824 -27.44414,-0.296661 z"
   id="path7" /><path
   style="fill:#f9f9f9;fill-opacity:1;stroke-width:0.204668"
   d="m 376.17889,98.209371 c -4.9708,-0.811648 -8.89427,-2.754677 -12.08769,-5.98622 -3.49137,-3.533052 -5.43972,-7.686616 -5.91927,-12.618882 -0.25837,-2.657372 -0.25924,-38.244468 -10e-4,-40.900129 0.26248,-2.699274 0.83741,-4.713234 2.05466,-7.197433 2.58479,-5.275088 7.50798,-9.274985 13.39496,-10.882881 l 2.04667,-0.559004 21.89943,-0.06662 c 15.44682,-0.04699 22.49969,0.002 23.93666,0.166318 4.89251,0.559416 9.30553,2.772975 12.69819,6.369369 2.43572,2.581991 3.9616,5.325195 4.97268,8.939806 l 0.55398,1.980462 v 21.694757 c 0,21.620544 -0.002,21.70045 -0.44457,23.359211 -2.03959,7.636239 -7.45622,13.090391 -15.17659,15.281717 -1.56863,0.445233 -1.60425,0.445923 -24.49368,0.47448 -12.60752,0.01573 -23.15301,-0.009 -23.43443,-0.05495 z m 39.30286,-22.281188 c 1.26725,-0.655321 1.22131,-0.0241 1.22131,-16.779271 0,-16.860645 0.0583,-16.110074 -1.30109,-16.755139 -0.63378,-0.300747 -2.30673,-0.334521 -16.53591,-0.333833 -15.34021,7.41e-4 -15.85111,0.01315 -16.48604,0.400284 -1.36176,0.830316 -1.30254,0.02062 -1.24175,16.976479 l 0.055,15.336435 0.51167,0.550471 c 0.28141,0.302759 0.69586,0.62666 0.921,0.719781 0.22513,0.09312 7.57471,0.175151 16.3324,0.182285 13.84983,0.01129 16.00123,-0.02745 16.52343,-0.297492 z"
   id="path8" /><path
   style="fill:#f9f9f9;fill-opacity:1;stroke-width:0.204668"
   d="m 454.2427,98.039323 c -4.23192,-0.920852 -7.96835,-4.631883 -8.97846,-8.917445 -0.4673,-1.9826 -0.46954,-57.953885 -0.002,-59.935653 0.94658,-4.0157 4.27886,-7.49455 8.38371,-8.752485 1.16867,-0.358141 2.7014,-0.376324 31.72346,-0.376324 h 30.49546 l 1.22604,0.466405 c 3.12772,1.189839 5.8012,3.411424 7.11519,5.912533 0.56887,1.082817 2.54645,7.703562 8.76236,29.335544 7.15693,24.906847 8.0383,28.13207 8.12561,29.734473 0.19888,3.650049 -0.85823,6.425187 -3.41098,8.954574 -2.44698,2.424586 -5.01268,3.523372 -8.23183,3.525359 -1.98076,0.0012 -3.37018,-0.321424 -5.28491,-1.227241 -1.98757,-0.940282 -4.32401,-3.235491 -5.26324,-5.17035 -0.40579,-0.835936 -3.20476,-10.267631 -7.53148,-25.378772 -3.78714,-13.226638 -6.93348,-24.209609 -6.99188,-24.406601 -0.0952,-0.321027 -0.43328,-0.358168 -3.26059,-0.358168 h -3.15442 l -0.0553,23.792598 -0.0553,23.792599 -0.45812,1.21412 c -1.34918,3.575673 -4.07796,6.261212 -7.62625,7.505387 -1.08941,0.381992 -1.7566,0.466141 -3.68401,0.464645 -2.02492,-0.0016 -2.5464,-0.07487 -3.73345,-0.524776 -3.11408,-1.180264 -5.46255,-3.232953 -6.79373,-5.938068 -1.38152,-2.80743 -1.33605,-1.879906 -1.33999,-27.332577 l -0.004,-22.973928 h -2.76301 -2.76301 l -0.003,23.178596 c -0.003,19.687191 -0.0484,23.371114 -0.30437,24.456683 -0.81031,3.436728 -3.31851,6.546119 -6.46547,8.015198 -2.64315,1.233883 -5.00463,1.52431 -7.67304,0.943674 z"
   id="path9" /><path
   style="fill:#f9f9f9;fill-opacity:1;stroke-width:0.144722"
   d="m 541.11476,17.873141 v -6.223037 h -2.09846 -2.09847 V 10.275247 8.9003899 h 5.86123 5.86124 v 1.3748571 1.374857 h -2.09847 -2.09846 v 6.223037 6.223037 h -1.66431 -1.6643 z"
   id="path10" /><path
   style="fill:#f9f9f9;fill-opacity:1;stroke-width:0.144722"
   d="m 550.1615,23.336388 c 0.0421,-0.417884 0.23775,-3.397344 0.43482,-6.621022 0.19707,-3.223677 0.39776,-6.300824 0.44597,-6.838104 l 0.0877,-0.9768721 h 2.21875 c 1.9878,0 2.22662,0.026362 2.29438,0.2532632 1.26884,4.2489459 2.16703,7.5921779 2.54669,9.4792769 0.0921,0.457683 0.22064,0.83215 0.28568,0.83215 0.065,0 0.26312,-0.602404 0.44017,-1.338676 0.40983,-1.704363 1.2702,-4.69637 2.07038,-7.199909 l 0.62445,-1.9537442 2.18881,-0.039899 2.18881,-0.039899 0.0771,0.6187863 c 0.0424,0.3403324 0.21072,3.3540279 0.37406,6.6971009 0.16334,3.343074 0.33586,6.485345 0.38338,6.982826 l 0.0864,0.904512 h -1.59993 -1.59993 l -0.0771,-0.615068 c -0.0965,-0.769122 -0.37589,-8.388633 -0.37525,-10.23183 2.7e-4,-0.759636 -0.0541,-1.306501 -0.12221,-1.230136 -0.0675,0.07562 -0.30252,0.788734 -0.52231,1.584704 -0.37119,1.344269 -2.17426,7.233655 -2.84676,9.298375 l -0.29461,0.904511 h -1.29069 c -0.70989,0 -1.2907,-0.02655 -1.2907,-0.05901 0,-0.03245 -0.45327,-1.694362 -1.00726,-3.693126 -0.554,-1.998765 -1.21347,-4.593484 -1.46549,-5.766043 -0.25202,-1.172559 -0.50553,-2.184201 -0.56336,-2.248092 -0.0578,-0.06389 -0.1479,0.847856 -0.20018,2.026105 -0.0523,1.178249 -0.16282,3.705267 -0.24567,5.615594 -0.0828,1.910328 -0.18286,3.684979 -0.22227,3.943669 l -0.0716,0.470346 h -1.51429 -1.51428 z"
   id="path11" /></svg>
